<?xml version="1.0" encoding="utf-8"?>
<!-- Generator: Adobe Illustrator 21.0.2, SVG Export Plug-In . SVG Version: 6.00 Build 0)  -->
<svg version="1.1" id="Layer_1" xmlns="http://www.w3.org/2000/svg" xmlns:xlink="http://www.w3.org/1999/xlink" x="0px" y="0px"
	 viewBox="0 0 105 61.9" style="enable-background:new 0 0 105 61.9;" xml:space="preserve">
<style type="text/css">
	.st0{fill:none;stroke:#fff;stroke-linecap:round;stroke-linejoin:round;stroke-miterlimit:10;}
</style>
<g id="XMLID_1754_">
	<path id="XMLID_1758_" class="st0" d="M52.4,1c-1.6,1.7-10.6,11.7-10.7,26.4c0,1.5,0.1,3,0.3,4.6c1.3,10.5,6.8,17.6,9.7,20.7l0,0
		l0.8,0.9l0.8-0.9l0,0c2.9-3.1,8.4-10.2,9.7-20.7c0.2-1.6,0.3-3.1,0.3-4.6C63.2,12.7,54.1,2.6,52.4,1L52.4,1z"/>
	<path id="XMLID_1757_" class="st0" d="M39,51.1L39,51.1c-2.6-1-5.4-2.5-8.1-4.5c-3.9-2.9-6.9-6.3-9-9.8c-5.9-9.5-6.2-19.5-6.3-21.2
		c1.8,0.1,12.4,0.7,21.8,7.8"/>
	<path id="XMLID_1756_" class="st0" d="M16.8,38c-1.2,0.1-2.1,0.4-2.9,0.7c-3.3,1.3-4.8,3.7-9.4,5.2C3,44.4,1.8,44.6,1,44.7
		c0.8,1.1,4.7,6.2,11.3,10.4c4.9,3.1,11.3,5.7,19,5.8c7.4,0.1,13.4-2.3,17.4-4.4c1.4-0.7,2.7-1.6,3.8-2.7l0,0l0,0
		c1.2,1,2.5,2,3.8,2.7c3.9,2.1,10,4.5,17.4,4.4c7.7-0.1,14.1-2.7,19-5.8c6.6-4.2,10.5-9.3,11.3-10.4c-0.8-0.1-2-0.3-3.5-0.8
		c-4.6-1.5-6.1-4-9.5-5.3c-0.8-0.3-1.7-0.6-2.9-0.7"/>
	<path id="XMLID_1755_" class="st0" d="M66,51.1L66,51.1c2.6-1,5.4-2.5,8.1-4.5c3.9-2.9,6.9-6.3,9-9.8c5.9-9.5,6.2-19.5,6.3-21.2
		c-1.8,0.1-12.4,0.7-21.8,7.8"/>
</g>
</svg>
