<?xml version="1.0" encoding="utf-8"?>
<!-- Generator: Adobe Illustrator 21.0.2, SVG Export Plug-In . SVG Version: 6.00 Build 0)  -->
<svg version="1.1" id="Layer_1" xmlns="http://www.w3.org/2000/svg" xmlns:xlink="http://www.w3.org/1999/xlink" x="0px" y="0px"
	 viewBox="0 0 89 64.8" style="enable-background:new 0 0 89 64.8;" xml:space="preserve">
<style type="text/css">
	.st0{fill:none;stroke:#fff;stroke-linecap:round;stroke-linejoin:round;stroke-miterlimit:10;}
</style>
<g id="XMLID_19_">
	<path id="XMLID_71_" class="st0" d="M31.2,18.3c2.1-4,9.3-6.1,12-6.7c0.8-0.2,1.6-0.5,2.4-0.8c0.2-0.1,0.3-0.1,0.5-0.2
		c2-0.9,3.8-2.2,5.3-3.8c1.8-1.9,4.1-4.5,5-5.5C56.7,1,57.1,0.9,57.5,1c2,0.6,4.3,3.4,4.3,3.4l2.2-1c0.5-0.3,1.1-0.3,1.7,0l1.6,0.8
		C68,2.3,70,3,70,3l2.2,1.4l2.8-1c4.8-1,6.3,5.1,6.8,9.1c0.3,2.7,0.8,5.4,1.3,8l0,0c0.1,0.7,0.6,1.3,1.2,1.5l3.7,1.7"/>
	<line id="XMLID_85_" class="st0" x1="67.2" y1="4.3" x2="68.4" y2="6.1"/>
	<g id="XMLID_92_">
		<path id="XMLID_96_" class="st0" d="M38.2,29.5l3.1-0.2l8.3-3c1-0.3,1.6-1.4,1.4-2.4c-0.2-1.1-1.2-1.8-2.3-1.6l-9.2,2l-8.9-1.4
			c-2.3-0.3-4.1-2.3-4.1-4.6c0-0.9,0.3-1.9,1.1-2.8l7.5-6.4c3.7-3.9,1.7-5.9,1.7-5.9l-6.3,3.7l-4.2,2.5c0,0-10.9,3.7-16.1,6.2
			c-2,0.9-4.1,1.4-6.3,1.4l0,0"/>
		<path id="XMLID_95_" class="st0" d="M50.7,25.7c1.1-0.2,2.2,0.4,2.5,1.4c0.3,0.8,0,1.7-0.7,2.3c-3.2,1.7-6.4,3.4-9.7,5.1
			c-1.6,0.2-3.2,0.3-4.8,0.5"/>
		<path id="XMLID_90_" class="st0" d="M50.2,30.8c0.1,0,1.1,0.2,1.5,1.1c0.3,0.7,0.2,1.5-0.3,2c-2.4,1.7-4.8,3.4-7.1,5L37,39.6
			c-0.7,0.1-1.2,0.6-1.2,1.3l0,0c0,0.7,0.5,1.3,1.2,1.3l7.4,0.7l3.8-0.6c0.7-0.1,1.5,0.4,1.7,1.1l0,0c0.2,0.8-0.2,1.6-1,1.8
			l-5.3,1.6c-0.3,0.1-0.6,0.1-0.8,0.1h-6.4c-2.2,0-4.3-0.3-6.4-1l-13.2-4.1l-9.9-5.7L3.5,35"/>
	</g>
	<path id="XMLID_43_" class="st0" d="M74.3,57.3c1-0.3,2.1-0.6,3.2-0.7c1.9-0.3,3.9-0.3,5.8-0.1"/>
	<path id="XMLID_79_" class="st0" d="M16.6,42c-4,1.4-6,5.1-7.4,8.9c-1.6,4.6-3.5,7.9-8.2,9.7"/>
	<path id="XMLID_83_" class="st0" d="M52.8,36.5c1.9,2.9,3.8,4.7,5.3,5.8C63.6,46.7,69,46.7,73,52c0.8,1,1.1,1.7,1.3,2.5
		c1.1,4.2-2.8,8.3-3.8,9.3"/>
	<path id="XMLID_86_" class="st0" d="M58,48c3.1,1.9,6.3,4.1,7.9,7.3c0.5,1,0.8,2,0.8,3.1s-0.4,2.2-1.2,2.9c-0.9,0.8-2.2,1-3.3,0.6"
		/>
	<path id="XMLID_93_" class="st0" d="M22.9,47.4c-0.7-0.2-1.4,0-2,0.4c-2.7,1.7-3.5,5.2-5.2,7.9c-0.6,1-1.3,1.9-2.1,2.7
		s-1.8,1.7-2.9,1.4"/>
	<path id="XMLID_94_" class="st0" d="M45,50.9c-1,0.1-1.4,1.4-1.1,2.3c0.3,0.9,1.1,1.5,1.9,2.1c0.6,0.5,1.3,0.9,1.9,1.4
		c0.6,0.4,1.3,0.9,1.5,1.7c0.2,0.9-0.3,1.8-1,2.3s-1.7,0.6-2.6,0.6c-2.7,0-5.2-1-7.9-1.5c-2.9-0.5-6-0.3-8.9,0.6"/>
	<path id="XMLID_97_" class="st0" d="M36.9,50.3c-0.3,0.5-0.7,1-0.8,1.6s0,1.3,0.4,1.7c0.4,0.3,1,0.6,0.9,1c-3.5,1-7.6-0.4-10.6,1.5
		c-1.2,0.8-2.2,2-3.4,2.8"/>
</g>
</svg>
