<?xml version="1.0" encoding="utf-8"?>
<!-- Generator: Adobe Illustrator 21.0.2, SVG Export Plug-In . SVG Version: 6.00 Build 0)  -->
<svg version="1.1" id="Layer_1" xmlns="http://www.w3.org/2000/svg" xmlns:xlink="http://www.w3.org/1999/xlink" x="0px" y="0px"
	 viewBox="0 0 98 65" style="enable-background:new 0 0 98 65;" xml:space="preserve">
<style type="text/css">
	.st0{fill:none;stroke:#000000;stroke-linecap:round;stroke-linejoin:round;stroke-miterlimit:10;}
</style>
<g id="XMLID_2186_">
	<g id="XMLID_2187_">
		<g id="XMLID_2189_">
			<path id="XMLID_2194_" class="st0" d="M20.4,45.2c-1.3-2.3-2.5-4.5-3.8-6.8l-9-11.2c1.8-2.1,4.8-2.5,7-1c3.7,2.5,12,10.1,12,10.1
				c0.8,0.1,1.9,0.3,3.2,0.7c6.2,1.9,9.7,6.4,10.7,7.8c1.3,1.7,2.2,3.4,2.8,5c1.3,3.3,1.6,6.9,0.9,10.4c-0.2,1-0.4,2.1-0.5,3.3"/>
			<path id="XMLID_2193_" class="st0" d="M8.2,23.1l-0.9-9.6c0-2.4,0.7-5.6-0.2-7.3C6.5,5.1,5.5,4.1,4.3,3.7C3.7,3.5,3.2,3.5,3.2,4
				L1.5,24c0,2.6,1.2,9.1,1.9,13.1c0.4,2.1,1.5,4.1,3,5.6l15.1,14.7c1.5,1.2,2.9,3.3,3.9,6.1"/>
			<path id="XMLID_2192_" class="st0" d="M12.7,20.7l-0.5-5.4c0-2.6,0.1-6.1,0.1-8.9c0-0.7-0.1-1.3-0.4-2c-0.1-0.2-0.2-0.4-0.3-0.6
				c-0.4-1-1.2-1.8-2.2-2.3c-0.1,0-0.2-0.1-0.3-0.1C8.4,1.3,7.6,1.9,7.6,2.7v2.9"/>
			<path id="XMLID_2191_" class="st0" d="M14,6.6c0,0,4.2-1.4,3.2,10.4l1.1,5"/>
			<path id="XMLID_2190_" class="st0" d="M43.8,51.2"/>
		</g>
		<path id="XMLID_2188_" class="st0" d="M18.8,11.4c0,0,2.6,1.3,3.5,4.7l0.8,6.8l3,6.9"/>
	</g>
</g>
<g id="XMLID_2177_">
	<g id="XMLID_2178_">
		<g id="XMLID_2180_">
			<path id="XMLID_2185_" class="st0" d="M77.6,45.2c1.3-2.3,2.5-4.5,3.8-6.8l9-11.2c-1.8-2.1-4.8-2.5-7-1c-3.7,2.5-12,10.1-12,10.1
				c-0.8,0.1-1.9,0.3-3.2,0.7c-6.2,1.9-9.7,6.4-10.7,7.8c-1.3,1.7-2.2,3.4-2.8,5c-1.3,3.3-1.6,6.9-0.9,10.4c0.2,1,0.4,2.1,0.5,3.3"
				/>
			<path id="XMLID_2184_" class="st0" d="M89.8,23.1l0.9-9.6c0-2.4-0.7-5.6,0.2-7.3c0.6-1.1,1.6-2.1,2.9-2.5
				c0.6-0.2,1.1-0.2,1.1,0.2l1.7,20c0,2.6-1.2,9.1-1.9,13.1c-0.4,2.1-1.5,4.1-3,5.6L76.5,57.4c-1.5,1.2-2.9,3.3-3.9,6.1"/>
			<path id="XMLID_2183_" class="st0" d="M85.3,20.7l0.5-5.4c0-2.6-0.1-6.1-0.1-8.9c0-0.7,0.1-1.3,0.4-2c0.1-0.2,0.2-0.4,0.3-0.6
				c0.4-1,1.2-1.8,2.2-2.3c0.1,0,0.2-0.1,0.3-0.1c0.8-0.3,1.6,0.3,1.6,1.2v2.9"/>
			<path id="XMLID_2182_" class="st0" d="M84,6.6c0,0-4.2-1.4-3.2,10.4l-1.1,5"/>
			<path id="XMLID_2181_" class="st0" d="M54.2,51.2"/>
		</g>
		<path id="XMLID_2179_" class="st0" d="M79.2,11.4c0,0-2.6,1.3-3.5,4.7L75,22.9l-3,6.9"/>
	</g>
</g>
</svg>
