<?xml version="1.0" encoding="utf-8"?>
<!-- Generator: Adobe Illustrator 21.0.2, SVG Export Plug-In . SVG Version: 6.00 Build 0)  -->
<svg version="1.1" id="Layer_1" xmlns="http://www.w3.org/2000/svg" xmlns:xlink="http://www.w3.org/1999/xlink" x="0px" y="0px"
	 viewBox="0 0 92.1 61" style="enable-background:new 0 0 92.1 61;" xml:space="preserve">
<style type="text/css">
	.st0{fill:none;stroke:#000000;stroke-linecap:round;stroke-linejoin:round;stroke-miterlimit:10;}
</style>
<g id="XMLID_115_">
	<g id="XMLID_20_">
		<g id="XMLID_462_">
			<path id="XMLID_286_" class="st0" d="M27.3,48c0.1,0.1,0.3,0.2,0.5,0.4s0.5,0.4,0.9,0.7c2.4,1.9,5,3.7,7.5,5.5c1.4,1,2.7,2,4,3
				c0.2,0.2,0.7,0.7,1.5,0.9c0.9,0.2,1.7-0.2,2-0.3c1.2-0.6,1.8-1.9,1.4-2.9c-0.1-0.3-0.3-0.4-1.2-1.2c-0.8-0.7-1.5-1.3-2-1.7
				c0.5,0,2.3,0.1,3.5-0.9c0.2-0.2,0.5-0.6,0.7-1c0.1-0.4,0.1-0.8-0.1-1.2c-0.5-1.3-2-2.3-3.2-3.2c-1.7-1.3-11.4-8.5-13.8-11.5
				c-1.7-2.2-3-4.9-2.2-7.4c0.6-2.1,2.6-4.1,5.3-4.5s5.5,0.6,7.5,1.9c1.1,0.7,2.3,1.7,3.8,1.6c2.4-0.2,1.7-1.9,1.7-1.9
				s-4.3-4.9-5.4-7.1l-10.3-2.5C28,14.4,26.5,14.1,25,14l-11.8-0.9h-0.1l0,0c-2-0.3-3.8-1.3-4.9-2.7L0.5,0.5"/>
			<path id="XMLID_467_" class="st0" d="M40.9,58.4c0,0.2-0.3,1.3-1.4,1.8c-0.8,0.4-1.5,0.3-2,0.3c-1.5-0.1-2.4-0.8-4.5-2.1
				c-3.2-2-2.8-1.8-3.1-2c-3.3-2.4-6.4-4.7-8.2-6"/>
			<path id="XMLID_289_" class="st0" d="M32.1,57.8c0,1-0.2,2-1.3,2.5c-1.6,0.7-3.6-0.5-4.7-1.3c-1.7-1.2-3.4-2.5-5.2-3.7
				c-0.7-0.5-1.4-1-2.1-1.5l-7.9-5.9c-1.5-1.1-2.9-2.4-4-3.9c-1.3-1.6-3.1-3.9-4.9-6.5l-1.4-2.7"/>
			<line id="XMLID_280_" class="st0" x1="41.8" y1="52.4" x2="27.3" y2="41.7"/>
		</g>
	</g>
	<g id="XMLID_117_">
		<g id="XMLID_137_">
			<path id="XMLID_174_" class="st0" d="M64.7,48c-0.1,0.1-0.3,0.2-0.5,0.4s-0.5,0.4-0.9,0.7c-2.4,1.9-5,3.7-7.5,5.5
				c-1.3,1-2.7,2-4,3c-0.2,0.2-0.7,0.7-1.5,0.9c-0.9,0.2-1.7-0.2-2-0.3c-1.2-0.6-1.8-1.9-1.4-2.9c0.1-0.3,0.3-0.4,1.2-1.2
				c0.8-0.7,1.5-1.3,2-1.7c-0.5,0-2.3,0.1-3.5-0.9c-0.2-0.2-0.5-0.6-0.7-1c-0.1-0.4-0.1-0.8,0.1-1.2c0.5-1.3,2-2.3,3.2-3.2
				c1.7-1.3,11.4-8.5,13.8-11.5c1.7-2.2,3-4.9,2.2-7.4c-0.6-2.1-2.6-4.1-5.3-4.5s-5.5,0.6-7.5,1.9c-1.1,0.7-2.3,1.7-3.8,1.6
				c-2.4-0.2-1.7-1.9-1.7-1.9s4.3-4.9,5.4-7.1l10.3-2.5c1.4-0.3,2.9-0.6,4.4-0.7l11.8-0.9h0.1l0,0c2-0.3,3.8-1.3,4.9-2.7l7.8-9.8"/>
			<path id="XMLID_173_" class="st0" d="M51.1,58.4c0,0.2,0.3,1.3,1.4,1.8c0.8,0.4,1.5,0.3,2,0.3c1.5-0.1,2.4-0.8,4.5-2.1
				c3.2-2,2.8-1.8,3.1-2c3.3-2.4,6.4-4.7,8.2-6"/>
			<path id="XMLID_288_" class="st0" d="M59.9,57.8c0,1,0.2,2,1.3,2.5c1.6,0.7,3.6-0.5,4.7-1.3c1.7-1.2,3.4-2.5,5.2-3.7
				c0.7-0.5,1.4-1,2.1-1.5l7.9-5.9c1.5-1.1,2.9-2.4,4-3.9c1.3-1.6,3.1-3.9,4.9-6.5l1.4-2.7"/>
			<line id="XMLID_169_" class="st0" x1="50.2" y1="52.4" x2="64.7" y2="41.7"/>
		</g>
	</g>
</g>
</svg>
