<?xml version="1.0" encoding="utf-8"?>
<!-- Generator: Adobe Illustrator 21.0.2, SVG Export Plug-In . SVG Version: 6.00 Build 0)  -->
<svg version="1.1" id="Layer_1" xmlns="http://www.w3.org/2000/svg" xmlns:xlink="http://www.w3.org/1999/xlink" x="0px" y="0px"
	 viewBox="0 0 53 68" style="enable-background:new 0 0 53 68;" xml:space="preserve">
<style type="text/css">
	.st0{fill:none;stroke:#fff;stroke-linecap:round;stroke-linejoin:round;stroke-miterlimit:10;}
</style>
<g id="XMLID_1077_">
	<rect id="XMLID_1109_" x="0.5" y="0.5" class="st0" width="39.8" height="62.6"/>
	<polyline id="XMLID_1107_" class="st0" points="43,4.1 52.5,5.4 45.5,67.5 30,65.5 	"/>
	<g id="XMLID_1103_">
		<polyline id="XMLID_1105_" class="st0" points="11.4,19.5 11.4,22.2 7.3,22.2 7.3,17.9 9.4,17.9 		"/>
		<line id="XMLID_1104_" class="st0" x1="11.4" y1="22.2" x2="30" y2="22.2"/>
	</g>
	<g id="XMLID_1098_">
		<polyline id="XMLID_1102_" class="st0" points="11.4,29.7 11.4,32.4 7.3,32.4 7.3,28 9.4,28 		"/>
		<line id="XMLID_1099_" class="st0" x1="11.4" y1="32.4" x2="30" y2="32.4"/>
	</g>
	<g id="XMLID_1094_">
		<polyline id="XMLID_1096_" class="st0" points="11.4,39.9 11.4,42.6 7.3,42.6 7.3,38.2 9.4,38.2 		"/>
		<line id="XMLID_1095_" class="st0" x1="11.4" y1="42.6" x2="30" y2="42.6"/>
	</g>
	<g id="XMLID_1089_">
		<polyline id="XMLID_1091_" class="st0" points="11.4,50 11.4,52.8 7.3,52.8 7.3,48.4 9.4,48.4 		"/>
		<line id="XMLID_1090_" class="st0" x1="11.4" y1="52.8" x2="30" y2="52.8"/>
	</g>
</g>
</svg>
