<?xml version="1.0" encoding="utf-8"?>
<!-- Generator: Adobe Illustrator 21.0.2, SVG Export Plug-In . SVG Version: 6.00 Build 0)  -->
<svg version="1.1" id="Layer_1" xmlns="http://www.w3.org/2000/svg" xmlns:xlink="http://www.w3.org/1999/xlink" x="0px" y="0px"
	 viewBox="0 0 58 65" style="enable-background:new 0 0 58 65;" xml:space="preserve">
<style type="text/css">
	.st0{fill:none;stroke:#fff;stroke-linecap:round;stroke-linejoin:round;stroke-miterlimit:10;}
</style>
<g id="XMLID_1548_">
	<path id="XMLID_1587_" class="st0" d="M34,43c-1,0.4-2.6,1.4-4.7,1.4s-3.7-0.9-4.7-1.4c0.3-0.4,0.5-0.7,0.8-1.1
		c0.3-0.4,0.8-0.8,1.3-0.9c0.1,0,0.3-0.1,0.5-0.1c1-0.1,1.3,0.3,2.1,0.3c0.8,0,1.1-0.4,2.1-0.3c0.2,0,0.4,0.1,0.6,0.1
		c0.4,0.2,0.8,0.4,1.1,0.8C33.5,42.3,33.7,42.6,34,43z"/>
	<path id="XMLID_1586_" class="st0" d="M26.2,46.4L27,47c0.4,0.2,0.8,0.3,1.2,0.4c0.1,0,0.2,0,0.3,0h1.8c0.2,0,0.3,0,0.5,0
		c0.4-0.1,0.8-0.2,1.2-0.4l0.5-0.4"/>
	<path id="XMLID_1585_" class="st0" d="M32,35c-0.1,0.3-0.3,0.4-1.2,1c-0.9,0.6-2.5,0.6-3.3,0c-0.9-0.6-1.1-0.7-1.2-1"/>
	<g id="XMLID_1582_">
		<path id="XMLID_1584_" class="st0" d="M14.1,25.9c0.2-0.1,0.6-0.5,1.3-0.5c0.8,0,1.3,0.4,1.4,0.5c0.5,0.4,1.3,0.9,2.3,1.2
			c0.8,0.2,1.5,0.1,1.8,0.1c0.4,0,0.7-0.1,2.4-0.6c0.6-0.2,1-0.3,1.4-0.4"/>
		<path id="XMLID_1583_" class="st0" d="M17,28c0.4-0.9,1.4-1.1,1.7-1.1"/>
	</g>
	<g id="XMLID_1567_">
		<path id="XMLID_1569_" class="st0" d="M44.2,25.9c-0.2-0.1-0.6-0.5-1.3-0.5c-0.8,0-1.3,0.4-1.4,0.5c-0.5,0.4-1.3,0.9-2.3,1.2
			c-0.8,0.2-1.5,0.1-1.8,0.1c-0.4,0-0.7-0.1-2.4-0.6c-0.6-0.2-1-0.3-1.4-0.4"/>
		<path id="XMLID_1568_" class="st0" d="M39.6,26.9c0.3,0,1.4,0.3,1.7,1.1"/>
	</g>
	<path id="XMLID_1566_" class="st0" d="M11.1,38c-1.1-4.2-1.9-9.3-1.8-14.2c0.5-1.4,1.3-3.4,2.6-5.7c1.3-2.4,3.7-6.6,8.5-10.2
		c1.3-1,3.2-2.2,5.7-3.3"/>
	<path id="XMLID_1565_" class="st0" d="M47.4,37.9c1.1-4.1,1.7-9.4,1.6-14.2c-0.3-0.6-0.7-1.5-1.2-2.6c-4.3-9-11.3-16.2-20.9-19.6"
		/>
	<path id="XMLID_1564_" class="st0" d="M24.7,20.7c0,0-1.1-1.4-3.5-1.9c-2.5-0.5-5.5,0-5.5,0"/>
	<path id="XMLID_1563_" class="st0" d="M32.2,20.7c0,0,1.1-1.4,3.5-1.9c2.5-0.5,5.5,0,5.5,0"/>
	<g id="XMLID_1558_">
		<g id="XMLID_1559_">
			<path id="XMLID_1562_" class="st0" d="M24.7,61.3c1.5-2.2,1.5-3.8,1.3-4.7c-0.3-1.9-1.7-3.2-4.4-5.7c0,0-3-2.8-4.1-4
				c0,0-0.2-0.2-0.5-0.5c-0.3-0.4-0.7-0.8-1.1-1.3c-2.6-2.9-3.1-3.1-3.8-3.6c-1.2-0.9-2.8-0.8-3.9,0.2l4.4,6.5
				c0.6,1.3,1.2,2.5,1.7,3.8"/>
			<path id="XMLID_1561_" class="st0" d="M16.5,63.5l-1.7-2.6c-1.5-1.4-9.5-11.4-11.5-14.6c-0.8-0.9-1.2-2-1.4-3.2
				c-0.2-2.2-0.5-5.8-0.4-7.2l2-10.6c0-0.3,0.3-0.2,0.6-0.1c0.7,0.3,1.2,0.8,1.4,1.5c0.4,0.9-0.1,2.6-0.3,3.9v5.2l0.5,1.4l1,2.2"/>
			<path id="XMLID_1560_" class="st0" d="M25.1,55.1"/>
		</g>
	</g>
	<g id="XMLID_1553_">
		<g id="XMLID_1554_">
			<path id="XMLID_1557_" class="st0" d="M33.3,61.3c-1.5-2.2-1.5-3.8-1.3-4.7c0.3-1.9,1.7-3.2,4.4-5.7c0,0,3-2.8,4.1-4
				c0,0,0.2-0.2,0.5-0.5c0.3-0.4,0.7-0.8,1.1-1.3c2.6-2.9,3.1-3.1,3.8-3.6c1.2-0.9,2.8-0.8,3.9,0.2l-4.4,6.5
				c-0.6,1.3-1.2,2.5-1.7,3.8"/>
			<path id="XMLID_1556_" class="st0" d="M41.5,63.5l1.7-2.6c1.5-1.4,9.5-11.4,11.5-14.6c0.8-0.9,1.2-2,1.4-3.2
				c0.2-2.2,0.5-5.8,0.4-7.2l-2-10.6c0-0.3-0.3-0.2-0.6-0.1c-0.7,0.3-1.2,0.8-1.4,1.5c-0.4,0.9,0.1,2.6,0.3,3.9v5.2l-0.5,1.4l-1,2.2
				"/>
			<path id="XMLID_1555_" class="st0" d="M32.9,55.1"/>
		</g>
	</g>
	<path id="XMLID_1552_" class="st0" d="M26.1,55.9c0.5,0.3,1.7,0.8,3.3,0.8c1.3-0.1,2.2-0.5,2.7-0.8"/>
	<path id="XMLID_1551_" class="st0" d="M9.3,23.8c0,0-3.8-5.2-4.1-8"/>
	<path id="XMLID_1550_" class="st0" d="M49,23.8c0,0,3.8-5.2,4.1-8"/>
</g>
</svg>
