<?xml version="1.0" encoding="utf-8"?>
<!-- Generator: Adobe Illustrator 21.0.2, SVG Export Plug-In . SVG Version: 6.00 Build 0)  -->
<svg version="1.1" id="Layer_1" xmlns="http://www.w3.org/2000/svg" xmlns:xlink="http://www.w3.org/1999/xlink" x="0px" y="0px"
	 viewBox="0 0 84 54.5" style="enable-background:new 0 0 84 54.5;" xml:space="preserve">
<style type="text/css">
	.st0{fill:none;stroke:#fff;stroke-linecap:round;stroke-linejoin:round;stroke-miterlimit:10;}
</style>
<g id="XMLID_21_">
	<path id="XMLID_2194_" class="st0" d="M28.8,37.5c3,0.4,6.1,0.8,9.2,1.2l16.4,5.1c1.5-2.9,0.6-6.4-2.1-8.3
		c-4.4-3-16.6-8.9-16.6-8.9c-0.5-0.8-1.2-2-2.2-3.2C28.7,17.3,22,15.5,20,14.9c-2.4-0.6-4.7-0.9-6.8-0.9C9.1,14,5,15.3,1.5,17.6"/>
	<path id="XMLID_23_" class="st0" d="M60.8,41.5l8.9-3.7c2.7-1.1,5.9-3.3,8.2-3c1.5,0.2,3,0.9,4.1,2.1c0.5,0.6,0.7,1.1,0.2,1.3
		L60.9,49c-2.9,1.2-10.6,2.8-15.4,3.8C43,53.3,40.3,53,38,52l-22.1-9.8c-0.7-0.3-1.4-0.5-2.1-0.7l-0.5-0.1"/>
	<path id="XMLID_22_" class="st0" d="M59.9,36l5.7-2.2c2.9-1.2,6.7-2.8,9.7-4.1c0.7-0.3,1.5-0.5,2.3-0.5c0.3,0,0.5,0,0.8,0
		c1.3,0,2.6,0.5,3.5,1.4c0.1,0.1,0.2,0.2,0.2,0.3c0.7,0.8,0.4,2-0.5,2.3l-3.9,1.4"/>
	<path id="XMLID_27_" class="st0" d="M74.9,30c0.2-0.6,0.3-1.5-0.2-2.4c-0.8-1.7-2.9-1.8-3.5-1.8c-1.2-0.1-2.1,0.3-2.6,0.5
		c-1.7,0.7-3.9,1.5-7.1,2.6l-4.9,1.7"/>
	<path id="XMLID_2188_" class="st0" d="M66.4,26.6c0.1-0.4,0.1-1.4-0.6-2.2c-0.8-0.9-2.1-1-3.2-1c0,0-7.8,2.6-11.2,3.4L44,26.7"/>
</g>
<circle class="st0" cx="33.9" cy="7.9" r="4.9"/>
<circle class="st0" cx="41.1" cy="18.8" r="4.9"/>
<circle class="st0" cx="47.8" cy="6.4" r="4.9"/>
</svg>
