<?xml version="1.0" encoding="utf-8"?>
<!-- Generator: Adobe Illustrator 21.0.2, SVG Export Plug-In . SVG Version: 6.00 Build 0)  -->
<svg version="1.1" id="Layer_1" xmlns="http://www.w3.org/2000/svg" xmlns:xlink="http://www.w3.org/1999/xlink" x="0px" y="0px"
	 viewBox="0 0 106 63" style="enable-background:new 0 0 106 63;" xml:space="preserve">
<style type="text/css">
	.st0{fill:none;stroke:#fff;stroke-linecap:round;stroke-linejoin:round;stroke-miterlimit:10;}
</style>
<g id="XMLID_1703_">
	<path id="XMLID_1741_" class="st0" d="M97.1,38.8c-2.4,3.7-2.1,8.5-1.4,11.9c0.6,3.2,0.6,6.5,0,9.7c0,0,0,0.1,0,0.1"/>
	<path id="XMLID_1740_" class="st0" d="M65.8,38.8c0,0,3.1,4.2,2,12.5c-0.4,3.1-0.2,6.2,0.6,9.2l0.1,0.4"/>
	<path id="XMLID_1739_" class="st0" d="M82.6,1c-3.8-1.4-8.1,0-11,2.8c-3.7,3.5-5.4,8.9-5.4,14.1c0,2.6,0.5,5.2,1.4,7.7
		c1,2.8,2.9,5.2,3.9,8.1"/>
	<path id="XMLID_1738_" class="st0" d="M84.1,2c1,2.2,3.6,4,3.5,6.6c-0.1,3.1-2.7,5.8-5.2,7c-3.6,1.8-8,1.3-11.1,4.3"/>
	<path id="XMLID_1737_" class="st0" d="M88.7,12.1c-0.7,2.9,3.5,3.5,3.2,6.5"/>
	<path id="XMLID_1736_" class="st0" d="M84.1,2c4.3-0.5,7.9,2.4,9.7,6.4c3.1,6.9,2,15.6-3,21.3"/>
	<path id="XMLID_1735_" class="st0" d="M78.1,35.2c0.9,1.8,1.2,3.8,1.2,5.8c0,3.6-1.3,7-3.5,9.8c0-3.8-2.1-7.2-4.3-10.3
		c-1-1.4-2-2.7-2.7-4.3c-0.7-1.6-1-3.4-0.6-5"/>
	<path id="XMLID_1734_" class="st0" d="M72.4,45.4c-0.3,1-0.4,1.9-0.4,2.5c-0.1,2.3,0.7,4.2,1.4,5.6c0.4,0.9,0.8,1.7,1.2,2.2"/>
	<path id="XMLID_1733_" class="st0" d="M79.9,45.3c0.6,1.5,1.6,4.6,0.6,7.7c-0.1,0.3-0.5,1.6-1.4,3.1c-1.2,1.9-2.6,3-3.5,3.6"/>
	<path id="XMLID_1732_" class="st0" d="M83.8,5.9c1,1.8,0.9,3.9-0.6,5.3c-1.1,1.1-2.6,1.8-4,2.3c-2.2,0.8-4.8,1-6.6,2.7"/>
	<path id="XMLID_1724_" class="st0" d="M81.2,5.6c0.2,0.7,0.1,1.5-0.3,2.1c-0.5,0.8-1.3,1.2-2.1,1.6"/>
	<path id="XMLID_1723_" class="st0" d="M81.7,2.7c0,0-8.5-0.5-10.8,6.9"/>
	<path id="XMLID_1722_" class="st0" d="M82.6,45.3H86c1.7,0,3-1.4,3.1-3.1c0.2-3,0.9-5,1.3-5.9"/>
	<path id="XMLID_1711_" class="st0" d="M86.8,30.3v0.6c0,2.6,1.7,4.8,4.1,5.5l8,2.4c2.6,0.8,4.8,2.7,5.9,5.2c0,0,0,0,0,0.1
		c0.5,1.2,0.7,2.4,0.6,3.7l-1.1,14.7"/>
	<path id="XMLID_1709_" class="st0" d="M67.3,38l-2.8,0.8h0c-2.6,0.8-4.8,2.7-5.9,5.2c0,0,0,0,0,0c-0.5,1.2-0.7,2.5-0.6,3.8
		l2.1,14.6"/>
	<path id="XMLID_1708_" class="st0" d="M90.3,21.4c0,1.3-0.2,2.9-0.6,4.4c-0.2,1-0.8,1.9-1.4,2.8l-0.1,0.2c-1.4,1.8-3.3,3.4-4.7,4.4
		c-1.1,0.8-2.4,0.8-3.5,0c-2.1-1.6-5.4-4.4-6.2-7.3c-0.4-1.5-0.5-3-0.6-4.4"/>
</g>
<g id="XMLID_31_">
	<g id="XMLID_2282_">
		<g id="XMLID_2283_">
			<path id="XMLID_2286_" class="st0" d="M21.2,14.1c0,0.4,0,1.2,0,2.8c0,2.2-0.1,3.3,0.5,3.6c0.3,0.2,0.6,0.1,0.8,0
				c0,0,0.4,6,5.7,7.7c0.9,0.3,1.9,0.4,2.8,0.1c3.1-0.8,5.6-3.8,6.2-7.9c0.2,0,0.5,0,0.7-0.1c0.6-0.4,0.4-1.5,0.4-3.3
				c0-0.7,0-1.8,0-3.1c0-0.6,0-1.1,0-1.7"/>
			<path id="XMLID_2285_" class="st0" d="M39.1,9.9c0.9-5.3-1.7-9.1-1.7-9.1c-0.1,1-0.4,1.2-1,1.4c-0.8,0.2-1.6,0.1-2.3-0.1
				c-1.1-0.3-5-1.2-7.7-0.6c-0.2,0-3.7,0.9-5,3.9c-0.7,1.5-0.6,3.1-0.6,4.2"/>
			<path id="XMLID_2284_" class="st0" d="M21.2,14.1c0.4,0,0.9-0.2,1.4-0.6c1.2-1,0.6-2.8,1.6-4c0.9-1,2.3-1.1,2.7-1.1
				c2.4-0.1,2.8,2,6.3,3.7c2,1,5.3,0.3,5.3,0.3"/>
		</g>
	</g>
	<path id="XMLID_27_" class="st0" d="M24.1,25.3l-0.4,2.9c-0.3,2.2-1.9,3.8-4,4.1c-0.7,0.1-1.4,0.2-2.2,0.3
		c-5.9,0.9-7.1,1.2-8.3,2.4c-1.3,1.2-2,2.7-2.6,4.2c-0.3,0.7-0.9,2.1-1.3,4.4c-0.9,1.3-1.9,2.9-2.8,4.9c-1.4,3.2-1.9,6.2-2,8.3"/>
	<path id="XMLID_26_" class="st0" d="M9.3,59.9c1-0.8,2.4-2.1,3.6-4c1.9-3,2.3-6,2.4-7.6"/>
	<path id="XMLID_120_" class="st0" d="M21.2,31.8c0.2,0.4,3.4,4.8,8.8,4.6c4.8-0.2,7.5-3.7,8.2-4.6"/>
	<path id="XMLID_32_" class="st0" d="M5.3,43.5c0.2,1.1,1.1,4.5,4.2,7c2,1.6,4,2.1,5.1,2.3"/>
	<path id="XMLID_30_" class="st0" d="M15.1,50.2c0,0,1.8,5.8,0.9,12.2"/>
	<g id="XMLID_28_">
		<path id="XMLID_91_" class="st0" d="M59.3,56.9c0.1-1.7-0.4-5.1-1.9-8.5c-1-2.2-2.2-3.8-3.2-4.9c0,0,0,0,0,0
			c-0.5-2.3-1-3.7-1.3-4.4c-0.7-1.5-1.3-3-2.6-4.2c-1.2-1.1-2.4-1.4-8.3-2.4c-0.8-0.1-1.5-0.2-2.2-0.3c-0.5-0.1-1-0.2-1.5-0.5
			c-1.3-0.7-2.3-2.1-2.5-3.7l-0.4-2.8"/>
		<path id="XMLID_86_" class="st0" d="M49.7,59.8c-1-0.7-2.4-1.9-3.5-3.8c-1.9-3.1-2.1-6.2-2.1-7.6"/>
		<path id="XMLID_33_" class="st0" d="M54.2,43.5c-0.2,1.1-1.1,4.5-4.2,7c-2,1.6-4,2.1-5.1,2.3"/>
		<path id="XMLID_29_" class="st0" d="M44.2,49.8c0,0-1.7,6.2-0.8,12.6"/>
	</g>
</g>
</svg>
