<?xml version="1.0" encoding="utf-8"?>
<!-- Generator: Adobe Illustrator 21.0.2, SVG Export Plug-In . SVG Version: 6.00 Build 0)  -->
<svg version="1.1" id="Layer_1" xmlns="http://www.w3.org/2000/svg" xmlns:xlink="http://www.w3.org/1999/xlink" x="0px" y="0px"
	 viewBox="0 0 21 21" style="enable-background:new 0 0 21 21;" xml:space="preserve">
<style type="text/css">
	.st0{fill:#4B82B3;}
</style>
<g>
	<g>
		<g>
			<path class="st0" d="M13.4,7.2L13.4,7.2c0.2-0.1,0.4-0.3,0.4-0.6V4.2c0-0.4-0.3-0.7-0.7-0.7l-1.9,0c-2.5,0-3.3,1.8-3.3,3.3v0.4
				c-0.4,0-0.7,0.3-0.7,0.7v2.6c0,0.4,0.3,0.7,0.7,0.7V17c0,0.4,0.3,0.7,0.7,0.7h2.6c0.4,0,0.7-0.3,0.7-0.7v-5.9h1.4
				c0.4,0,0.6-0.3,0.7-0.6l0.2-2.6c0-0.2,0-0.4-0.2-0.5C13.8,7.3,13.6,7.2,13.4,7.2z M12.6,9.8h-1.4c-0.4,0-0.7,0.3-0.7,0.7v5.9H9.2
				v-5.9c0-0.4-0.3-0.7-0.7-0.7V8.6c0.4,0,0.7-0.3,0.7-0.7v-1c0-0.7,0.3-2,2-2l1.3,0v1l-0.7,0c-1.2,0-1.3,0.9-1.3,1.1v0.9
				c0,0.4,0.3,0.7,0.7,0.7h1.5L12.6,9.8z"/>
			<path class="st0" d="M15.5,0H5.5C2.3,0,0,2.3,0,5.5v10.1C0,18.7,2.3,21,5.5,21h10.1c3.2,0,5.5-2.3,5.5-5.5V5.5
				C21,2.3,18.7,0,15.5,0z M19.6,15.5c0,2.4-1.7,4.1-4.1,4.1H5.5c-2.4,0-4.1-1.7-4.1-4.1V5.5C1.4,3,3,1.4,5.5,1.4h10.1
				c2.4,0,4.1,1.7,4.1,4.1V15.5z"/>
		</g>
	</g>
</g>
</svg>
