<?xml version="1.0" encoding="utf-8"?>
<!-- Generator: Adobe Illustrator 21.0.0, SVG Export Plug-In . SVG Version: 6.00 Build 0)  -->
<svg version="1.1" id="Layer_1" xmlns="http://www.w3.org/2000/svg" xmlns:xlink="http://www.w3.org/1999/xlink" x="0px" y="0px"
	 viewBox="0 0 21 21" style="enable-background:new 0 0 21 21;" xml:space="preserve">
<style type="text/css">
	.st0{fill:#4D83B1;}
</style>
<g>
	<g>
		<path class="st0" d="M15.3,0H5.7C2.5,0,0,2.5,0,5.7v9.7C0,18.5,2.5,21,5.7,21h9.7c3.1,0,5.7-2.5,5.7-5.7V5.7C21,2.5,18.5,0,15.3,0
			z M19.3,15.3c0,2.2-1.8,4-4,4H5.7c-2.2,0-4-1.8-4-4V5.7c0-2.2,1.8-4,4-4h9.7c2.2,0,4,1.8,4,4V15.3z"/>
	</g>
</g>
<g>
	<g>
		<path class="st0" d="M15.2,9.8c-0.1-1-0.6-1.9-1.3-2.6c-0.7-0.7-1.6-1.2-2.6-1.3c-0.5-0.1-0.9-0.1-1.4,0C8.6,6,7.5,6.6,6.8,7.7
			c-0.7,1-1.1,2.3-0.9,3.5c0.2,1.2,0.8,2.3,1.9,3.1c0.8,0.6,1.8,0.9,2.8,0.9c0.2,0,0.5,0,0.7-0.1c1.2-0.2,2.3-0.8,3.1-1.9
			C15.1,12.3,15.4,11,15.2,9.8z M11,13.4c-0.8,0.1-1.6-0.1-2.2-0.6s-1.1-1.2-1.2-2c-0.1-0.8,0.1-1.6,0.6-2.2c0.5-0.6,1.2-1.1,2-1.2
			c0.1,0,0.3,0,0.4,0c0.1,0,0.3,0,0.4,0c1.3,0.2,2.3,1.2,2.5,2.5C13.8,11.7,12.6,13.2,11,13.4z"/>
	</g>
</g>
<g>
	<g>
		<path class="st0" d="M16.4,4.6c-0.2-0.2-0.4-0.2-0.6-0.2c-0.2,0-0.4,0.1-0.6,0.2C15.1,4.7,15,5,15,5.2s0.1,0.4,0.2,0.6
			C15.4,5.9,15.6,6,15.8,6c0.2,0,0.4-0.1,0.6-0.2c0.2-0.2,0.2-0.4,0.2-0.6C16.7,5,16.6,4.7,16.4,4.6z"/>
	</g>
</g>
</svg>
