<?xml version="1.0" encoding="utf-8"?>
<!-- Generator: Adobe Illustrator 21.0.2, SVG Export Plug-In . SVG Version: 6.00 Build 0)  -->
<svg version="1.1" id="Layer_1" xmlns="http://www.w3.org/2000/svg" xmlns:xlink="http://www.w3.org/1999/xlink" x="0px" y="0px"
	 viewBox="0 0 109.9 58.2" style="enable-background:new 0 0 109.9 58.2;" xml:space="preserve">
<style type="text/css">
	.st0{fill:#588FBE;}
	.st1{fill:#2B4F86;}
	.st2{fill-rule:evenodd;clip-rule:evenodd;fill:#274F87;}
	.st3{fill-rule:evenodd;clip-rule:evenodd;fill:#4F75AB;}
	.st4{fill-rule:evenodd;clip-rule:evenodd;fill:#739CD2;}
</style>
<path class="st0" d="M1.6,39.2h1.2l0.9,2.5l0.9-2.5h1.2v3.6H4.9v-2.4L4,42.8H3.2l-0.8-2.4v2.4H1.6V39.2L1.6,39.2z M8.7,41.6l0.9,0.2
	c-0.1,0.3-0.3,0.6-0.6,0.8c-0.3,0.2-0.6,0.3-1,0.3c-0.6,0-1.1-0.2-1.4-0.6c-0.2-0.3-0.4-0.7-0.4-1.2c0-0.6,0.2-1.1,0.5-1.4
	c0.3-0.3,0.7-0.5,1.2-0.5c0.5,0,1,0.2,1.3,0.5c0.3,0.4,0.5,0.9,0.4,1.6H7.3c0,0.3,0.1,0.5,0.2,0.7c0.1,0.2,0.3,0.2,0.5,0.2
	c0.1,0,0.3,0,0.4-0.1C8.6,42,8.6,41.8,8.7,41.6L8.7,41.6z M8.7,40.7c0-0.3-0.1-0.5-0.2-0.6c-0.1-0.1-0.3-0.2-0.5-0.2
	c-0.2,0-0.4,0.1-0.5,0.2c-0.1,0.1-0.2,0.4-0.2,0.6H8.7L8.7,40.7z M11.8,42.8v-1.5c-0.1,0-0.2,0-0.3,0.1c0,0-0.1,0.2-0.3,0.4l-0.4,1
	h-1l0.5-1c0.3-0.5,0.5-0.8,0.8-0.8c-0.2-0.1-0.4-0.3-0.5-0.6c-0.1-0.2-0.2-0.4-0.2-0.4c-0.1,0-0.2-0.1-0.5-0.1v-0.6
	c0.2,0,0.3,0,0.4,0c0.2,0,0.4,0,0.5,0.1c0.1,0.1,0.3,0.3,0.4,0.7c0.1,0.3,0.2,0.5,0.2,0.5c0.1,0.1,0.2,0.1,0.3,0.1v-1.5h0.9v1.5
	c0.1,0,0.2,0,0.3-0.1c0.1-0.1,0.1-0.3,0.2-0.5c0.1-0.4,0.3-0.6,0.4-0.7c0.1-0.1,0.3-0.1,0.6-0.1c0.1,0,0.2,0,0.4,0v0.6
	c-0.2,0-0.4,0-0.5,0.1c-0.1,0-0.1,0.2-0.2,0.4c-0.1,0.3-0.3,0.5-0.5,0.6c0.3,0.1,0.5,0.4,0.8,0.8l0.5,1h-1l-0.4-1
	c-0.1-0.2-0.2-0.3-0.2-0.4c-0.1-0.1-0.2-0.1-0.3-0.1v1.5H11.8L11.8,42.8z M18.2,42.8h-2.7v0.9h-0.8V42h0.4c0.2-0.2,0.3-0.5,0.4-0.8
	c0.1-0.4,0.2-1,0.2-2h2.9V42H19v1.7h-0.8V42.8L18.2,42.8z M17.7,42l0-2h-1.1c0,1-0.2,1.7-0.5,2H17.7L17.7,42z M19.3,39.2h1l0.9,2.5
	l0.8-2.5h1l-1.3,3.4l-0.2,0.6c-0.1,0.2-0.2,0.4-0.2,0.5c-0.1,0.1-0.2,0.2-0.3,0.3c-0.1,0.1-0.2,0.1-0.4,0.2c-0.1,0-0.3,0.1-0.5,0.1
	c-0.2,0-0.4,0-0.5-0.1l-0.1-0.7c0.1,0,0.3,0,0.4,0c0.2,0,0.4-0.1,0.5-0.2c0.1-0.1,0.2-0.3,0.2-0.5L19.3,39.2L19.3,39.2z M23.5,39.2
	h0.9v1.3h1.4v-1.3h0.9v3.6h-0.9v-1.5h-1.4v1.5h-0.9V39.2L23.5,39.2z M28.4,40.3l-0.9-0.2c0.1-0.3,0.3-0.6,0.5-0.8
	c0.2-0.2,0.6-0.2,1-0.2c0.4,0,0.7,0.1,0.9,0.2c0.2,0.1,0.4,0.2,0.4,0.4c0.1,0.2,0.1,0.4,0.1,0.8l0,1.1c0,0.3,0,0.5,0,0.7
	c0,0.1,0.1,0.3,0.2,0.5h-0.9c0-0.1-0.1-0.2-0.1-0.3c0-0.1,0-0.1,0-0.1c-0.2,0.2-0.3,0.3-0.5,0.4c-0.2,0.1-0.4,0.1-0.6,0.1
	c-0.4,0-0.7-0.1-0.9-0.3c-0.2-0.2-0.3-0.5-0.3-0.8c0-0.2,0-0.4,0.1-0.5c0.1-0.2,0.2-0.3,0.4-0.4c0.2-0.1,0.4-0.2,0.8-0.2
	c0.4-0.1,0.7-0.2,0.9-0.2v-0.1c0-0.2,0-0.3-0.1-0.4c-0.1-0.1-0.3-0.1-0.5-0.1c-0.2,0-0.3,0-0.4,0.1C28.5,40,28.5,40.1,28.4,40.3
	L28.4,40.3z M29.7,41.1c-0.1,0-0.3,0.1-0.6,0.1c-0.3,0.1-0.4,0.1-0.5,0.2c-0.1,0.1-0.2,0.2-0.2,0.3c0,0.1,0,0.2,0.1,0.3
	c0.1,0.1,0.2,0.1,0.4,0.1c0.2,0,0.3-0.1,0.5-0.2c0.1-0.1,0.2-0.2,0.2-0.3c0-0.1,0-0.2,0-0.5V41.1L29.7,41.1z M31.5,39.2h0.9v0.5
	c0.1-0.2,0.3-0.3,0.5-0.4c0.2-0.1,0.4-0.2,0.6-0.2c0.4,0,0.8,0.2,1.1,0.5c0.3,0.3,0.4,0.8,0.4,1.4c0,0.6-0.1,1.1-0.4,1.4
	c-0.3,0.3-0.6,0.5-1.1,0.5c-0.2,0-0.4,0-0.5-0.1c-0.2-0.1-0.3-0.2-0.5-0.4v1.8h-0.9V39.2L31.5,39.2z M32.4,40.9
	c0,0.4,0.1,0.7,0.2,0.9c0.2,0.2,0.4,0.3,0.6,0.3c0.2,0,0.4-0.1,0.5-0.3c0.1-0.2,0.2-0.5,0.2-0.9c0-0.4-0.1-0.7-0.2-0.8
	c-0.2-0.2-0.3-0.3-0.6-0.3c-0.2,0-0.4,0.1-0.6,0.3C32.5,40.3,32.4,40.6,32.4,40.9L32.4,40.9z M35.5,40.9c0-0.3,0.1-0.6,0.2-0.9
	c0.2-0.3,0.4-0.5,0.7-0.7c0.3-0.2,0.6-0.2,1-0.2c0.5,0,1,0.2,1.3,0.5c0.3,0.4,0.5,0.8,0.5,1.3c0,0.5-0.2,1-0.5,1.3
	c-0.3,0.4-0.8,0.5-1.3,0.5c-0.3,0-0.6-0.1-0.9-0.2c-0.3-0.1-0.5-0.4-0.7-0.7C35.6,41.7,35.5,41.4,35.5,40.9L35.5,40.9z M36.5,41
	c0,0.4,0.1,0.6,0.3,0.8c0.2,0.2,0.4,0.3,0.6,0.3c0.2,0,0.5-0.1,0.6-0.3c0.2-0.2,0.3-0.5,0.3-0.8c0-0.3-0.1-0.6-0.3-0.8
	c-0.2-0.2-0.4-0.3-0.6-0.3c-0.2,0-0.5,0.1-0.6,0.3C36.6,40.4,36.5,40.6,36.5,41L36.5,41z M42.8,42.8h-2.7v0.9h-0.8V42h0.4
	c0.2-0.2,0.3-0.5,0.4-0.8c0.1-0.4,0.2-1,0.2-2h2.9V42h0.4v1.7h-0.8V42.8L42.8,42.8z M42.2,42l0-2h-1.1c0,1-0.2,1.7-0.5,2H42.2
	L42.2,42z M44.2,39.2h0.9v1.3h1.4v-1.3h0.9v3.6h-0.9v-1.5h-1.4v1.5h-0.9V39.2L44.2,39.2z M49.1,40.3l-0.9-0.2
	c0.1-0.3,0.3-0.6,0.5-0.8c0.2-0.2,0.6-0.2,1-0.2c0.4,0,0.7,0.1,0.9,0.2c0.2,0.1,0.4,0.2,0.4,0.4c0.1,0.2,0.1,0.4,0.1,0.8l0,1.1
	c0,0.3,0,0.5,0,0.7c0,0.1,0.1,0.3,0.2,0.5h-0.9c0-0.1-0.1-0.2-0.1-0.3c0-0.1,0-0.1,0-0.1c-0.2,0.2-0.3,0.3-0.5,0.4
	c-0.2,0.1-0.4,0.1-0.6,0.1c-0.4,0-0.7-0.1-0.9-0.3c-0.2-0.2-0.3-0.5-0.3-0.8c0-0.2,0-0.4,0.1-0.5c0.1-0.2,0.2-0.3,0.4-0.4
	c0.2-0.1,0.4-0.2,0.8-0.2c0.4-0.1,0.7-0.2,0.9-0.2v-0.1c0-0.2,0-0.3-0.1-0.4c-0.1-0.1-0.3-0.1-0.5-0.1c-0.2,0-0.3,0-0.4,0.1
	C49.2,40,49.1,40.1,49.1,40.3L49.1,40.3z M50.3,41.1c-0.1,0-0.3,0.1-0.6,0.1c-0.3,0.1-0.4,0.1-0.5,0.2c-0.1,0.1-0.2,0.2-0.2,0.3
	c0,0.1,0,0.2,0.1,0.3c0.1,0.1,0.2,0.1,0.4,0.1c0.2,0,0.3-0.1,0.5-0.2c0.1-0.1,0.2-0.2,0.2-0.3c0-0.1,0-0.2,0-0.5V41.1L50.3,41.1z
	 M55.3,39.2v3.6h-0.9v-1.5h-0.1c-0.2,0-0.4,0-0.4,0.1c-0.1,0.1-0.2,0.2-0.3,0.3l-0.1,0.1l-0.6,1h-1.1l0.7-1c0.2-0.3,0.4-0.5,0.5-0.5
	c-0.3,0-0.5-0.1-0.6-0.3c-0.2-0.2-0.2-0.4-0.2-0.7c0-0.2,0.1-0.4,0.2-0.6c0.1-0.2,0.3-0.3,0.4-0.3c0.2-0.1,0.4-0.1,0.8-0.1H55.3
	L55.3,39.2z M54.3,39.8h-0.7c-0.2,0-0.4,0-0.5,0.1C53,40,53,40.1,53,40.3c0,0.2,0.1,0.3,0.2,0.4c0.1,0.1,0.3,0.1,0.6,0.1h0.6V39.8
	L54.3,39.8z M58.1,39.2H59V42h1.1v-2.8h0.9V42H62v-2.8h0.9v3.6h-4.8V39.2L58.1,39.2z M63.8,39.2h0.9v1.5c0.2,0,0.3-0.1,0.3-0.1
	c0.1-0.1,0.1-0.3,0.2-0.5c0.1-0.4,0.3-0.6,0.4-0.7c0.1-0.1,0.3-0.1,0.6-0.1c0.1,0,0.2,0,0.4,0l0,0.6c-0.2,0-0.4,0-0.5,0.1
	c-0.1,0-0.1,0.2-0.2,0.4c-0.1,0.3-0.3,0.5-0.5,0.6c0.3,0.1,0.5,0.3,0.8,0.8c0,0,0,0,0,0.1l0.5,1h-1l-0.5-1c-0.1-0.2-0.2-0.3-0.3-0.4
	c-0.1-0.1-0.2-0.1-0.3-0.1v1.5h-0.9V39.2L63.8,39.2z M67,40.9c0-0.3,0.1-0.6,0.2-0.9c0.2-0.3,0.4-0.5,0.7-0.7c0.3-0.2,0.6-0.2,1-0.2
	c0.5,0,1,0.2,1.3,0.5c0.3,0.4,0.5,0.8,0.5,1.3c0,0.5-0.2,1-0.5,1.3c-0.3,0.4-0.8,0.5-1.3,0.5c-0.3,0-0.6-0.1-0.9-0.2
	c-0.3-0.1-0.5-0.4-0.7-0.7C67.1,41.7,67,41.4,67,40.9L67,40.9z M68,41c0,0.4,0.1,0.6,0.3,0.8c0.2,0.2,0.4,0.3,0.6,0.3
	c0.2,0,0.5-0.1,0.6-0.3c0.2-0.2,0.3-0.5,0.3-0.8c0-0.3-0.1-0.6-0.3-0.8c-0.2-0.2-0.4-0.3-0.6-0.3c-0.2,0-0.5,0.1-0.6,0.3
	C68.1,40.4,68,40.6,68,41L68,41z M71.5,39.2h3.2v3.6h-0.9V40h-1.3v1.6c0,0.4,0,0.7-0.1,0.9c-0.1,0.2-0.2,0.3-0.3,0.3
	c-0.1,0.1-0.3,0.1-0.6,0.1c-0.2,0-0.3,0-0.6-0.1v-0.7c0,0,0.1,0,0.2,0c0.1,0,0.2,0,0.2,0c0.1,0,0.2,0,0.2-0.1c0-0.1,0-0.3,0-0.7
	V39.2L71.5,39.2z M76.3,40.3l-0.9-0.2c0.1-0.3,0.3-0.6,0.5-0.8c0.2-0.2,0.6-0.2,1-0.2c0.4,0,0.7,0.1,0.9,0.2
	c0.2,0.1,0.4,0.2,0.4,0.4c0.1,0.2,0.1,0.4,0.1,0.8l0,1.1c0,0.3,0,0.5,0,0.7c0,0.1,0.1,0.3,0.2,0.5h-0.9c0-0.1-0.1-0.2-0.1-0.3
	c0-0.1,0-0.1,0-0.1c-0.2,0.2-0.3,0.3-0.5,0.4c-0.2,0.1-0.4,0.1-0.6,0.1c-0.4,0-0.7-0.1-0.9-0.3c-0.2-0.2-0.3-0.5-0.3-0.8
	c0-0.2,0-0.4,0.1-0.5c0.1-0.2,0.2-0.3,0.4-0.4c0.2-0.1,0.4-0.2,0.8-0.2c0.4-0.1,0.7-0.2,0.9-0.2v-0.1c0-0.2,0-0.3-0.1-0.4
	c-0.1-0.1-0.3-0.1-0.5-0.1c-0.2,0-0.3,0-0.4,0.1C76.5,40,76.4,40.1,76.3,40.3L76.3,40.3z M77.6,41.1c-0.1,0-0.3,0.1-0.6,0.1
	c-0.3,0.1-0.4,0.1-0.5,0.2c-0.1,0.1-0.2,0.2-0.2,0.3c0,0.1,0,0.2,0.1,0.3c0.1,0.1,0.2,0.1,0.4,0.1c0.2,0,0.3-0.1,0.5-0.2
	c0.1-0.1,0.2-0.2,0.2-0.3c0-0.1,0-0.2,0-0.5V41.1L77.6,41.1z M81.4,39.2h1.2l0.9,2.5l0.9-2.5h1.2v3.6h-0.8v-2.4l-0.9,2.4H83
	l-0.8-2.4v2.4h-0.8V39.2L81.4,39.2z M87.1,40.3l-0.9-0.2c0.1-0.3,0.3-0.6,0.5-0.8c0.2-0.2,0.6-0.2,1-0.2c0.4,0,0.7,0.1,0.9,0.2
	c0.2,0.1,0.4,0.2,0.4,0.4c0.1,0.2,0.1,0.4,0.1,0.8l0,1.1c0,0.3,0,0.5,0,0.7c0,0.1,0.1,0.3,0.2,0.5h-0.9c0-0.1-0.1-0.2-0.1-0.3
	c0-0.1,0-0.1,0-0.1c-0.2,0.2-0.3,0.3-0.5,0.4c-0.2,0.1-0.4,0.1-0.6,0.1c-0.4,0-0.7-0.1-0.9-0.3c-0.2-0.2-0.3-0.5-0.3-0.8
	c0-0.2,0-0.4,0.1-0.5c0.1-0.2,0.2-0.3,0.4-0.4c0.2-0.1,0.4-0.2,0.8-0.2c0.4-0.1,0.7-0.2,0.9-0.2v-0.1c0-0.2,0-0.3-0.1-0.4
	c-0.1-0.1-0.3-0.1-0.5-0.1c-0.2,0-0.3,0-0.4,0.1C87.2,40,87.1,40.1,87.1,40.3L87.1,40.3z M88.4,41.1c-0.1,0-0.3,0.1-0.6,0.1
	c-0.3,0.1-0.4,0.1-0.5,0.2c-0.1,0.1-0.2,0.2-0.2,0.3c0,0.1,0,0.2,0.1,0.3c0.1,0.1,0.2,0.1,0.4,0.1c0.2,0,0.3-0.1,0.5-0.2
	c0.1-0.1,0.2-0.2,0.2-0.3c0-0.1,0-0.2,0-0.5V41.1L88.4,41.1z M93.3,40.3l-0.9,0.2c0-0.2-0.1-0.3-0.2-0.4c-0.1-0.1-0.3-0.1-0.4-0.1
	c-0.2,0-0.4,0.1-0.6,0.2C91,40.3,91,40.6,91,40.9c0,0.4,0.1,0.7,0.2,0.9c0.1,0.2,0.3,0.3,0.6,0.3c0.2,0,0.3-0.1,0.4-0.2
	c0.1-0.1,0.2-0.3,0.2-0.5l0.9,0.2c-0.1,0.4-0.3,0.7-0.6,1c-0.3,0.2-0.6,0.3-1.1,0.3c-0.5,0-0.9-0.2-1.2-0.5C90.2,42,90,41.6,90,41
	c0-0.6,0.2-1,0.5-1.4c0.3-0.3,0.7-0.5,1.3-0.5c0.4,0,0.8,0.1,1,0.3C93,39.6,93.2,39.9,93.3,40.3L93.3,40.3z M97.2,40.3l-0.9,0.2
	c0-0.2-0.1-0.3-0.2-0.4c-0.1-0.1-0.3-0.1-0.4-0.1c-0.2,0-0.4,0.1-0.6,0.2c-0.1,0.2-0.2,0.4-0.2,0.8c0,0.4,0.1,0.7,0.2,0.9
	c0.1,0.2,0.3,0.3,0.6,0.3c0.2,0,0.3-0.1,0.4-0.2c0.1-0.1,0.2-0.3,0.2-0.5l0.9,0.2c-0.1,0.4-0.3,0.7-0.6,1c-0.3,0.2-0.6,0.3-1.1,0.3
	c-0.5,0-0.9-0.2-1.2-0.5C94,42,93.8,41.6,93.8,41c0-0.6,0.2-1,0.5-1.4c0.3-0.3,0.7-0.5,1.3-0.5c0.4,0,0.8,0.1,1,0.3
	C96.9,39.6,97,39.9,97.2,40.3L97.2,40.3z M98.7,40.3l-0.9-0.2c0.1-0.3,0.3-0.6,0.5-0.8c0.2-0.2,0.6-0.2,1-0.2c0.4,0,0.7,0.1,0.9,0.2
	c0.2,0.1,0.4,0.2,0.4,0.4c0.1,0.2,0.1,0.4,0.1,0.8l0,1.1c0,0.3,0,0.5,0,0.7c0,0.1,0.1,0.3,0.2,0.5h-0.9c0-0.1-0.1-0.2-0.1-0.3
	c0-0.1,0-0.1,0-0.1c-0.2,0.2-0.3,0.3-0.5,0.4c-0.2,0.1-0.4,0.1-0.6,0.1c-0.4,0-0.7-0.1-0.9-0.3c-0.2-0.2-0.3-0.5-0.3-0.8
	c0-0.2,0-0.4,0.1-0.5c0.1-0.2,0.2-0.3,0.4-0.4c0.2-0.1,0.4-0.2,0.8-0.2c0.4-0.1,0.7-0.2,0.9-0.2v-0.1c0-0.2,0-0.3-0.1-0.4
	c-0.1-0.1-0.3-0.1-0.5-0.1c-0.2,0-0.3,0-0.4,0.1C98.8,40,98.7,40.1,98.7,40.3L98.7,40.3z M99.9,41.1c-0.1,0-0.3,0.1-0.6,0.1
	c-0.3,0.1-0.4,0.1-0.5,0.2c-0.1,0.1-0.2,0.2-0.2,0.3c0,0.1,0,0.2,0.1,0.3c0.1,0.1,0.2,0.1,0.4,0.1c0.2,0,0.3-0.1,0.5-0.2
	c0.1-0.1,0.2-0.2,0.2-0.3c0-0.1,0-0.2,0-0.5V41.1L99.9,41.1z M103.3,42.8v-1.5c-0.1,0-0.2,0-0.3,0.1s-0.1,0.2-0.3,0.4l-0.4,1h-1
	l0.5-1c0.3-0.5,0.5-0.8,0.8-0.8c-0.2-0.1-0.4-0.3-0.5-0.6c-0.1-0.2-0.2-0.4-0.2-0.4c-0.1,0-0.2-0.1-0.5-0.1v-0.6c0.2,0,0.3,0,0.4,0
	c0.2,0,0.4,0,0.5,0.1c0.1,0.1,0.3,0.3,0.4,0.7c0.1,0.3,0.2,0.5,0.2,0.5c0.1,0.1,0.2,0.1,0.3,0.1v-1.5h0.9v1.5c0.1,0,0.2,0,0.3-0.1
	c0.1-0.1,0.1-0.3,0.2-0.5c0.1-0.4,0.3-0.6,0.4-0.7c0.1-0.1,0.3-0.1,0.6-0.1c0.1,0,0.2,0,0.4,0v0.6c-0.2,0-0.4,0-0.5,0.1
	c-0.1,0-0.1,0.2-0.2,0.4c-0.1,0.3-0.3,0.5-0.5,0.6c0.3,0.1,0.5,0.4,0.8,0.8l0.5,1h-1l-0.4-1c-0.1-0.2-0.2-0.3-0.2-0.4
	c-0.1-0.1-0.2-0.1-0.3-0.1v1.5H103.3L103.3,42.8z M107.5,40.3l-0.9-0.2c0.1-0.3,0.3-0.6,0.5-0.8c0.2-0.2,0.6-0.2,1-0.2
	c0.4,0,0.7,0.1,0.9,0.2c0.2,0.1,0.4,0.2,0.4,0.4c0.1,0.2,0.1,0.4,0.1,0.8l0,1.1c0,0.3,0,0.5,0,0.7c0,0.1,0.1,0.3,0.2,0.5h-0.9
	c0-0.1-0.1-0.2-0.1-0.3c0-0.1,0-0.1,0-0.1c-0.2,0.2-0.3,0.3-0.5,0.4c-0.2,0.1-0.4,0.1-0.6,0.1c-0.4,0-0.7-0.1-0.9-0.3
	c-0.2-0.2-0.3-0.5-0.3-0.8c0-0.2,0-0.4,0.1-0.5c0.1-0.2,0.2-0.3,0.4-0.4c0.2-0.1,0.4-0.2,0.8-0.2c0.4-0.1,0.7-0.2,0.9-0.2v-0.1
	c0-0.2,0-0.3-0.1-0.4c-0.1-0.1-0.3-0.1-0.5-0.1c-0.2,0-0.3,0-0.4,0.1C107.6,40,107.5,40.1,107.5,40.3L107.5,40.3z M108.7,41.1
	c-0.1,0-0.3,0.1-0.6,0.1c-0.3,0.1-0.4,0.1-0.5,0.2c-0.1,0.1-0.2,0.2-0.2,0.3c0,0.1,0,0.2,0.1,0.3c0.1,0.1,0.2,0.1,0.4,0.1
	c0.2,0,0.3-0.1,0.5-0.2c0.1-0.1,0.2-0.2,0.2-0.3c0-0.1,0-0.2,0-0.5V41.1L108.7,41.1z"/>
<path class="st1" d="M5.8,52.8H5.5c-0.1-0.2-0.2-0.4-0.4-0.6c-0.2-0.2-0.4-0.3-0.5-0.4c-0.1,0-0.2,0-0.3,0c-0.1,0-0.2,0-0.3,0H3.1
	v2.1h0.6c0.1,0,0.3,0,0.4,0c0.1,0,0.2-0.1,0.3-0.2c0.1-0.1,0.1-0.2,0.2-0.3c0.1-0.1,0.1-0.3,0.1-0.4H5v2.2H4.7
	c0-0.1-0.1-0.2-0.1-0.4c-0.1-0.2-0.1-0.3-0.2-0.3c-0.1-0.1-0.2-0.2-0.3-0.2c-0.1,0-0.2-0.1-0.4-0.1H3.1v1.5c0,0.2,0,0.3,0,0.4
	c0,0.1,0.1,0.2,0.1,0.2c0.1,0,0.2,0.1,0.3,0.1c0.1,0,0.3,0,0.4,0c0.1,0,0.2,0,0.3,0c0.1,0,0.2,0,0.3,0c0.1,0,0.2,0,0.3-0.1
	c0.1,0,0.2-0.1,0.2-0.1c0.1-0.1,0.3-0.3,0.4-0.6c0.2-0.3,0.3-0.4,0.3-0.6h0.3L6,56.8H1v-0.3c0.1,0,0.2,0,0.3,0c0.1,0,0.2,0,0.3-0.1
	c0.1,0,0.2-0.1,0.2-0.2c0-0.1,0.1-0.1,0.1-0.2v-3.8c0-0.1,0-0.2,0-0.2c0-0.1-0.1-0.1-0.2-0.2c-0.1,0-0.2-0.1-0.3-0.1
	c-0.1,0-0.2,0-0.3,0v-0.3h4.8V52.8L5.8,52.8z M11.3,54.3c0.2,0.1,0.3,0.3,0.4,0.4c0.1,0.2,0.2,0.4,0.2,0.6c0,0.3-0.1,0.5-0.2,0.7
	c-0.1,0.2-0.3,0.3-0.5,0.4c-0.2,0.1-0.5,0.2-0.8,0.2c-0.3,0-0.6,0.1-1,0.1H6.6v-0.3c0.1,0,0.2,0,0.3,0c0.1,0,0.2,0,0.2-0.1
	c0.1,0,0.2-0.1,0.2-0.1c0-0.1,0.1-0.1,0.1-0.2v-3.8c0-0.1,0-0.2,0-0.2c0-0.1-0.1-0.1-0.2-0.2c-0.1,0-0.2-0.1-0.3-0.1
	c-0.1,0-0.2,0-0.3-0.1v-0.3h2.9c0.7,0,1.3,0.1,1.6,0.3c0.3,0.2,0.5,0.5,0.5,0.9c0,0.2,0,0.3-0.1,0.5c-0.1,0.1-0.2,0.3-0.3,0.4
	c-0.1,0.1-0.3,0.2-0.4,0.2c-0.2,0.1-0.4,0.1-0.6,0.2V54c0.2,0,0.4,0.1,0.6,0.1C11,54.2,11.2,54.2,11.3,54.3L11.3,54.3z M10.1,52.7
	c0-0.3-0.1-0.5-0.3-0.7c-0.2-0.2-0.4-0.3-0.8-0.3c0,0-0.1,0-0.2,0c-0.1,0-0.1,0-0.2,0v2h0.2c0.4,0,0.7-0.1,0.9-0.3
	C10,53.3,10.1,53.1,10.1,52.7L10.1,52.7z M10.4,55.3c0-0.4-0.1-0.7-0.3-0.9c-0.2-0.2-0.5-0.3-1-0.3c0,0-0.1,0-0.2,0
	c-0.1,0-0.1,0-0.2,0v2c0,0.1,0.1,0.2,0.2,0.2c0.1,0.1,0.3,0.1,0.4,0.1c0.3,0,0.5-0.1,0.7-0.3C10.3,56,10.4,55.7,10.4,55.3L10.4,55.3
	z M17.3,53H17c0-0.1-0.1-0.2-0.1-0.3c-0.1-0.1-0.1-0.3-0.2-0.4c-0.1-0.1-0.2-0.2-0.3-0.3c-0.1-0.1-0.2-0.1-0.3-0.2
	c-0.1,0-0.2,0-0.3,0c-0.1,0-0.2,0-0.4,0h-0.8V56c0,0.1,0,0.2,0.1,0.2c0,0.1,0.1,0.1,0.2,0.1c0.1,0,0.1,0,0.2,0.1
	c0.1,0,0.2,0,0.4,0.1v0.3h-3v-0.3c0.1,0,0.2,0,0.3,0c0.1,0,0.2,0,0.3-0.1c0.1,0,0.2-0.1,0.2-0.1c0-0.1,0.1-0.1,0.1-0.2v-3.8
	c0-0.1,0-0.2,0-0.2c0-0.1-0.1-0.1-0.2-0.2c-0.1,0-0.2-0.1-0.3-0.1c-0.1,0-0.2,0-0.3,0v-0.3h4.8V53L17.3,53z M22.3,52.8H22
	c-0.1-0.2-0.2-0.4-0.4-0.6c-0.2-0.2-0.4-0.3-0.5-0.4c-0.1,0-0.2,0-0.3,0c-0.1,0-0.2,0-0.3,0h-0.8v2.1h0.6c0.1,0,0.3,0,0.4,0
	c0.1,0,0.2-0.1,0.3-0.2c0.1-0.1,0.1-0.2,0.2-0.3c0.1-0.1,0.1-0.3,0.1-0.4h0.3v2.2h-0.3c0-0.1-0.1-0.2-0.1-0.4
	c-0.1-0.2-0.1-0.3-0.2-0.3c-0.1-0.1-0.2-0.2-0.3-0.2c-0.1,0-0.2-0.1-0.4-0.1h-0.6v1.5c0,0.2,0,0.3,0,0.4c0,0.1,0.1,0.2,0.1,0.2
	c0.1,0,0.2,0.1,0.3,0.1c0.1,0,0.3,0,0.4,0c0.1,0,0.2,0,0.3,0c0.1,0,0.2,0,0.3,0c0.1,0,0.2,0,0.3-0.1c0.1,0,0.2-0.1,0.2-0.1
	c0.1-0.1,0.3-0.3,0.4-0.6c0.2-0.3,0.3-0.4,0.3-0.6h0.3l-0.1,1.7h-5v-0.3c0.1,0,0.2,0,0.3,0c0.1,0,0.2,0,0.3-0.1
	c0.1,0,0.2-0.1,0.2-0.2c0-0.1,0.1-0.1,0.1-0.2v-3.8c0-0.1,0-0.2,0-0.2c0-0.1-0.1-0.1-0.2-0.2c-0.1,0-0.2-0.1-0.3-0.1
	c-0.1,0-0.2,0-0.3,0v-0.3h4.8V52.8L22.3,52.8z M29.7,56.8h-2.9v-0.3c0.1,0,0.2,0,0.3,0c0.1,0,0.2,0,0.3,0c0.1,0,0.2-0.1,0.2-0.1
	c0-0.1,0.1-0.1,0.1-0.2v-1.9h-2.3V56c0,0.1,0,0.2,0.1,0.2c0,0.1,0.1,0.1,0.2,0.2c0,0,0.1,0,0.2,0.1c0.1,0,0.2,0,0.3,0v0.3h-2.9v-0.3
	c0.1,0,0.2,0,0.3,0c0.1,0,0.2,0,0.3-0.1c0.1,0,0.2-0.1,0.2-0.1c0-0.1,0.1-0.1,0.1-0.2v-3.8c0-0.1,0-0.2,0-0.2c0-0.1-0.1-0.1-0.2-0.2
	c-0.1,0-0.2-0.1-0.3-0.1c-0.1,0-0.2,0-0.3,0v-0.3h2.9v0.3c-0.1,0-0.2,0-0.3,0c-0.1,0-0.2,0-0.2,0.1c-0.1,0-0.2,0.1-0.2,0.2
	c0,0.1,0,0.1,0,0.2v1.6h2.3v-1.6c0-0.1,0-0.2,0-0.2c0-0.1-0.1-0.1-0.2-0.2c-0.1,0-0.2-0.1-0.3-0.1c-0.1,0-0.2,0-0.3-0.1v-0.3h2.9
	v0.3c-0.1,0-0.2,0-0.3,0c-0.1,0-0.2,0-0.3,0.1c-0.1,0-0.2,0.1-0.2,0.2c0,0.1,0,0.1,0,0.2V56c0,0.1,0,0.2,0,0.2
	c0,0.1,0.1,0.1,0.2,0.2c0.1,0,0.1,0,0.3,0.1c0.1,0,0.2,0,0.3,0V56.8L29.7,56.8z M36.9,56.8H34v-0.3c0.1,0,0.2,0,0.3,0
	c0.1,0,0.2,0,0.2,0c0.1,0,0.2-0.1,0.2-0.1c0-0.1,0.1-0.1,0.1-0.2v-3.1l-2.4,3c0,0.2,0,0.3,0.1,0.3c0,0.1,0.1,0.1,0.2,0.1
	c0.1,0,0.1,0,0.2,0.1c0.1,0,0.2,0,0.3,0v0.3h-2.9v-0.3c0.1,0,0.2,0,0.3,0c0.1,0,0.2,0,0.3-0.1c0.1,0,0.2-0.1,0.2-0.1
	c0-0.1,0.1-0.1,0.1-0.2v-3.8c0-0.1,0-0.2,0-0.2c0-0.1-0.1-0.1-0.2-0.2c-0.1,0-0.2-0.1-0.3-0.1c-0.1,0-0.2,0-0.3,0v-0.3h2.9v0.3
	c-0.1,0-0.2,0-0.3,0c-0.1,0-0.2,0-0.3,0.1c-0.1,0-0.2,0.1-0.2,0.2c0,0.1,0,0.1,0,0.2v3.1l2.4-3c0-0.1,0-0.2-0.1-0.3
	c0-0.1-0.1-0.1-0.2-0.1c-0.1,0-0.2-0.1-0.3-0.1c-0.1,0-0.2,0-0.3,0v-0.3h2.9v0.3c-0.1,0-0.2,0-0.3,0c-0.1,0-0.2,0-0.3,0.1
	c-0.1,0-0.2,0.1-0.2,0.2c0,0.1,0,0.1,0,0.2V56c0,0.1,0,0.2,0,0.2c0,0.1,0.1,0.1,0.2,0.2c0.1,0,0.1,0,0.3,0.1c0.1,0,0.2,0,0.3,0V56.8
	L36.9,56.8z M44,56.8h-2.9v-0.3c0.1,0,0.2,0,0.3,0c0.1,0,0.2,0,0.2,0c0.1,0,0.2-0.1,0.2-0.1c0-0.1,0.1-0.1,0.1-0.2v-3.1l-2.4,3
	c0,0.2,0,0.3,0.1,0.3c0,0.1,0.1,0.1,0.2,0.1c0.1,0,0.1,0,0.2,0.1c0.1,0,0.2,0,0.3,0v0.3h-2.9v-0.3c0.1,0,0.2,0,0.3,0
	c0.1,0,0.2,0,0.3-0.1c0.1,0,0.2-0.1,0.2-0.1c0-0.1,0.1-0.1,0.1-0.2v-3.8c0-0.1,0-0.2,0-0.2c0-0.1-0.1-0.1-0.2-0.2
	c-0.1,0-0.2-0.1-0.3-0.1c-0.1,0-0.2,0-0.3,0v-0.3h2.9v0.3c-0.1,0-0.2,0-0.3,0c-0.1,0-0.2,0-0.3,0.1c-0.1,0-0.2,0.1-0.2,0.2
	c0,0.1,0,0.1,0,0.2v3.1l2.4-3c0-0.1,0-0.2-0.1-0.3c0-0.1-0.1-0.1-0.2-0.1c-0.1,0-0.2-0.1-0.3-0.1c-0.1,0-0.2,0-0.3,0v-0.3H44v0.3
	c-0.1,0-0.2,0-0.3,0c-0.1,0-0.2,0-0.3,0.1c-0.1,0-0.2,0.1-0.2,0.2c0,0.1,0,0.1,0,0.2V56c0,0.1,0,0.2,0,0.2c0,0.1,0.1,0.1,0.2,0.2
	c0.1,0,0.1,0,0.3,0.1c0.1,0,0.2,0,0.3,0V56.8L44,56.8z M51.6,52.8c0,0.3-0.1,0.6-0.2,0.8c-0.1,0.2-0.3,0.4-0.5,0.5
	c-0.2,0.1-0.5,0.2-0.8,0.3c-0.3,0.1-0.6,0.1-1,0.1h-0.4V56c0,0.1,0,0.2,0.1,0.2c0,0.1,0.1,0.1,0.2,0.2c0.1,0,0.1,0,0.2,0.1
	c0.1,0,0.2,0,0.3,0v0.3h-2.9v-0.3c0.1,0,0.2,0,0.3,0c0.1,0,0.2,0,0.3-0.1c0.1,0,0.2-0.1,0.2-0.1c0-0.1,0-0.1,0-0.2v-3.8
	c0-0.1,0-0.2,0-0.2c0-0.1-0.1-0.1-0.2-0.2c-0.1,0-0.2-0.1-0.3-0.1c-0.1,0-0.2,0-0.3,0v-0.3h3c0.7,0,1.2,0.1,1.6,0.3
	C51.4,52,51.6,52.3,51.6,52.8L51.6,52.8z M50.1,53c0-0.4-0.1-0.7-0.2-0.9c-0.2-0.2-0.5-0.3-0.9-0.3h-0.3v2.4h0.2
	c0.4,0,0.7-0.1,0.9-0.3C50,53.7,50.1,53.4,50.1,53L50.1,53z M57.8,56.8h-2.9v-0.3c0.1,0,0.3,0,0.5-0.1c0.2,0,0.3-0.1,0.3-0.1
	c0,0,0,0,0-0.1c0,0,0-0.1,0-0.1L55.1,55h-1.9c0,0.1-0.1,0.2-0.1,0.4c-0.1,0.1-0.1,0.3-0.1,0.4c0,0.1-0.1,0.2-0.1,0.3
	c0,0.1,0,0.1,0,0.1c0,0.1,0.1,0.1,0.2,0.2c0.1,0.1,0.3,0.1,0.6,0.1v0.3h-2.2v-0.3c0.1,0,0.2,0,0.3,0c0.1,0,0.2-0.1,0.2-0.1
	c0.1-0.1,0.2-0.1,0.3-0.2c0.1-0.1,0.1-0.2,0.2-0.3c0.3-0.7,0.6-1.4,0.9-2.1c0.3-0.7,0.6-1.5,1-2.4h0.8c0.5,1.2,0.9,2.2,1.2,2.9
	c0.3,0.7,0.5,1.3,0.7,1.8c0,0.1,0.1,0.1,0.1,0.2c0.1,0.1,0.1,0.1,0.2,0.2c0.1,0,0.2,0.1,0.2,0.1c0.1,0,0.2,0,0.3,0V56.8L57.8,56.8z
	 M55,54.6l-0.8-1.9l-0.8,1.9H55L55,54.6z M61.4,56.1v-4.3H60c0,0.8-0.2,1.6-0.4,2.4c-0.2,0.8-0.5,1.6-0.9,2.2h2.4
	c0.1,0,0.2,0,0.2-0.1C61.4,56.3,61.4,56.2,61.4,56.1L61.4,56.1z M59.6,56.8c-0.1,0-0.2,0-0.3,0c-0.1,0-0.2,0-0.3,0
	c-0.2,0-0.4,0.2-0.6,0.5s-0.4,0.6-0.5,0.8h-0.3v-1.7h0.5c0.3-0.5,0.7-1.2,0.9-2c0.3-0.8,0.4-1.5,0.4-2.1c0-0.1,0-0.3,0-0.3
	c0-0.1-0.1-0.1-0.2-0.2c-0.1,0-0.2-0.1-0.3-0.1c-0.1,0-0.2,0-0.3,0v-0.3h4.9v0.3c-0.1,0-0.2,0-0.3,0c-0.1,0-0.2,0-0.3,0.1
	c-0.1,0-0.2,0.1-0.2,0.2c0,0.1,0,0.1,0,0.2v3.8c0,0.1,0,0.2,0.1,0.3c0.1,0.1,0.2,0.1,0.4,0.1h0.4v1.7h-0.3c-0.1-0.3-0.2-0.6-0.5-0.8
	c-0.2-0.3-0.4-0.4-0.6-0.5c-0.1,0-0.2,0-0.3,0c-0.1,0-0.2,0-0.3,0H59.6L59.6,56.8z M70.7,56.8h-2.9v-0.3c0.1,0,0.2,0,0.3,0
	c0.1,0,0.2,0,0.2,0c0.1,0,0.2-0.1,0.2-0.1c0-0.1,0.1-0.1,0.1-0.2v-3.1l-2.4,3c0,0.2,0,0.3,0.1,0.3c0,0.1,0.1,0.1,0.2,0.1
	c0.1,0,0.1,0,0.2,0.1c0.1,0,0.2,0,0.3,0v0.3H64v-0.3c0.1,0,0.2,0,0.3,0c0.1,0,0.2,0,0.3-0.1c0.1,0,0.2-0.1,0.2-0.1
	c0-0.1,0.1-0.1,0.1-0.2v-3.8c0-0.1,0-0.2,0-0.2c0-0.1-0.1-0.1-0.2-0.2c-0.1,0-0.2-0.1-0.3-0.1c-0.1,0-0.2,0-0.3,0v-0.3h2.9v0.3
	c-0.1,0-0.2,0-0.3,0c-0.1,0-0.2,0-0.3,0.1c-0.1,0-0.2,0.1-0.2,0.2c0,0.1,0,0.1,0,0.2v3.1l2.4-3c0-0.1,0-0.2-0.1-0.3
	c0-0.1-0.1-0.1-0.2-0.1c-0.1,0-0.2-0.1-0.3-0.1c-0.1,0-0.2,0-0.3,0v-0.3h2.9v0.3c-0.1,0-0.2,0-0.3,0c-0.1,0-0.2,0-0.3,0.1
	c-0.1,0-0.2,0.1-0.2,0.2c0,0.1,0,0.1,0,0.2V56c0,0.1,0,0.2,0,0.2c0,0.1,0.1,0.1,0.2,0.2c0.1,0,0.1,0,0.3,0.1c0.1,0,0.2,0,0.3,0V56.8
	L70.7,56.8z M76.2,52c0.3,0.2,0.5,0.5,0.6,0.9c0.2,0.3,0.2,0.7,0.2,1.2c0,0.4-0.1,0.8-0.2,1.1c-0.1,0.4-0.3,0.7-0.6,0.9
	c-0.3,0.3-0.6,0.5-0.9,0.6C75,56.9,74.6,57,74.1,57c-0.4,0-0.8-0.1-1.1-0.2c-0.3-0.1-0.7-0.3-0.9-0.6c-0.3-0.2-0.5-0.5-0.6-0.9
	c-0.2-0.3-0.2-0.7-0.2-1.1c0-0.4,0.1-0.8,0.2-1.2c0.2-0.4,0.4-0.7,0.6-0.9c0.3-0.2,0.6-0.4,0.9-0.6c0.4-0.1,0.7-0.2,1.1-0.2
	c0.4,0,0.8,0.1,1.1,0.2C75.6,51.6,75.9,51.8,76.2,52L76.2,52z M75.2,55.9c0.1-0.2,0.2-0.5,0.2-0.8c0.1-0.3,0.1-0.6,0.1-1
	c0-0.3,0-0.6-0.1-0.9c0-0.3-0.1-0.6-0.2-0.8c-0.1-0.2-0.3-0.4-0.4-0.6c-0.2-0.1-0.4-0.2-0.7-0.2c-0.5,0-0.8,0.2-1,0.6
	c-0.2,0.4-0.4,1-0.4,1.8c0,0.3,0,0.7,0.1,1c0.1,0.3,0.1,0.6,0.2,0.8c0.1,0.2,0.3,0.4,0.4,0.5c0.2,0.1,0.4,0.2,0.6,0.2
	c0.2,0,0.5-0.1,0.6-0.2C74.9,56.3,75.1,56.1,75.2,55.9L75.2,55.9z M84.1,56.8h-2.9v-0.3c0.1,0,0.2,0,0.3,0c0.1,0,0.2,0,0.3,0
	c0.1,0,0.2-0.1,0.2-0.1c0-0.1,0.1-0.1,0.1-0.2v-1.9h-2.3V56c0,0.1,0,0.2,0.1,0.2c0,0.1,0.1,0.1,0.2,0.2c0,0,0.1,0,0.2,0.1
	c0.1,0,0.2,0,0.3,0v0.3h-2.9v-0.3c0.1,0,0.2,0,0.3,0c0.1,0,0.2,0,0.3-0.1c0.1,0,0.2-0.1,0.2-0.1c0-0.1,0.1-0.1,0.1-0.2v-3.8
	c0-0.1,0-0.2,0-0.2c0-0.1-0.1-0.1-0.2-0.2c-0.1,0-0.2-0.1-0.3-0.1c-0.1,0-0.2,0-0.3,0v-0.3h2.9v0.3c-0.1,0-0.2,0-0.3,0
	c-0.1,0-0.2,0-0.2,0.1c-0.1,0-0.2,0.1-0.2,0.2c0,0.1,0,0.1,0,0.2v1.6H82v-1.6c0-0.1,0-0.2,0-0.2c0-0.1-0.1-0.1-0.2-0.2
	c-0.1,0-0.2-0.1-0.3-0.1c-0.1,0-0.2,0-0.3-0.1v-0.3h2.9v0.3c-0.1,0-0.2,0-0.3,0c-0.1,0-0.2,0-0.3,0.1c-0.1,0-0.2,0.1-0.2,0.2
	c0,0.1,0,0.1,0,0.2V56c0,0.1,0,0.2,0,0.2c0,0.1,0.1,0.1,0.2,0.2c0.1,0,0.1,0,0.3,0.1c0.1,0,0.2,0,0.3,0V56.8L84.1,56.8z M89.6,52
	c0.3,0.2,0.5,0.5,0.6,0.9c0.2,0.3,0.2,0.7,0.2,1.2c0,0.4-0.1,0.8-0.2,1.1c-0.1,0.4-0.3,0.7-0.6,0.9c-0.3,0.3-0.6,0.5-0.9,0.6
	C88.4,56.9,88,57,87.5,57c-0.4,0-0.8-0.1-1.1-0.2c-0.3-0.1-0.7-0.3-0.9-0.6c-0.3-0.2-0.5-0.5-0.6-0.9c-0.2-0.3-0.2-0.7-0.2-1.1
	c0-0.4,0.1-0.8,0.2-1.2c0.2-0.4,0.4-0.7,0.6-0.9c0.3-0.2,0.6-0.4,0.9-0.6c0.4-0.1,0.7-0.2,1.1-0.2c0.4,0,0.8,0.1,1.1,0.2
	C89,51.6,89.3,51.8,89.6,52L89.6,52z M88.6,55.9c0.1-0.2,0.2-0.5,0.2-0.8c0.1-0.3,0.1-0.6,0.1-1c0-0.3,0-0.6-0.1-0.9
	c0-0.3-0.1-0.6-0.2-0.8c-0.1-0.2-0.3-0.4-0.4-0.6c-0.2-0.1-0.4-0.2-0.7-0.2c-0.5,0-0.8,0.2-1,0.6c-0.2,0.4-0.4,1-0.4,1.8
	c0,0.3,0,0.7,0.1,1c0.1,0.3,0.1,0.6,0.2,0.8c0.1,0.2,0.3,0.4,0.4,0.5c0.2,0.1,0.4,0.2,0.6,0.2c0.2,0,0.5-0.1,0.6-0.2
	C88.4,56.3,88.5,56.1,88.6,55.9L88.6,55.9z M95.7,54.3c0.2,0.1,0.3,0.3,0.4,0.4c0.1,0.2,0.2,0.4,0.2,0.6c0,0.3-0.1,0.5-0.2,0.7
	c-0.1,0.2-0.3,0.3-0.5,0.4c-0.2,0.1-0.5,0.2-0.8,0.2c-0.3,0-0.6,0.1-1,0.1H91v-0.3c0.1,0,0.2,0,0.3,0c0.1,0,0.2,0,0.2-0.1
	c0.1,0,0.2-0.1,0.2-0.1c0-0.1,0.1-0.1,0.1-0.2v-3.8c0-0.1,0-0.2,0-0.2c0-0.1-0.1-0.1-0.2-0.2c-0.1,0-0.2-0.1-0.3-0.1
	c-0.1,0-0.2,0-0.3-0.1v-0.3h2.9c0.7,0,1.3,0.1,1.6,0.3c0.3,0.2,0.5,0.5,0.5,0.9c0,0.2,0,0.3-0.1,0.5c-0.1,0.1-0.2,0.3-0.3,0.4
	c-0.1,0.1-0.3,0.2-0.4,0.2c-0.2,0.1-0.4,0.1-0.6,0.2V54c0.2,0,0.4,0.1,0.6,0.1C95.4,54.2,95.6,54.2,95.7,54.3L95.7,54.3z M94.5,52.7
	c0-0.3-0.1-0.5-0.3-0.7c-0.2-0.2-0.4-0.3-0.8-0.3c0,0-0.1,0-0.2,0c-0.1,0-0.1,0-0.2,0v2h0.2c0.4,0,0.7-0.1,0.9-0.3
	C94.4,53.3,94.5,53.1,94.5,52.7L94.5,52.7z M94.8,55.3c0-0.4-0.1-0.7-0.3-0.9c-0.2-0.2-0.5-0.3-1-0.3c0,0-0.1,0-0.2,0
	c-0.1,0-0.1,0-0.2,0v2c0,0.1,0.1,0.2,0.2,0.2c0.1,0.1,0.3,0.1,0.4,0.1c0.3,0,0.5-0.1,0.7-0.3C94.7,56,94.8,55.7,94.8,55.3L94.8,55.3
	z M101.8,52c0.3,0.2,0.5,0.5,0.6,0.9c0.2,0.3,0.2,0.7,0.2,1.2c0,0.4-0.1,0.8-0.2,1.1c-0.1,0.4-0.3,0.7-0.6,0.9
	c-0.3,0.3-0.6,0.5-0.9,0.6c-0.4,0.1-0.8,0.2-1.3,0.2c-0.4,0-0.8-0.1-1.1-0.2c-0.3-0.1-0.7-0.3-0.9-0.6c-0.3-0.2-0.5-0.5-0.6-0.9
	c-0.2-0.3-0.2-0.7-0.2-1.1c0-0.4,0.1-0.8,0.2-1.2c0.2-0.4,0.4-0.7,0.6-0.9c0.3-0.2,0.6-0.4,0.9-0.6c0.4-0.1,0.7-0.2,1.1-0.2
	c0.4,0,0.8,0.1,1.1,0.2C101.3,51.6,101.6,51.8,101.8,52L101.8,52z M100.9,55.9c0.1-0.2,0.2-0.5,0.2-0.8c0.1-0.3,0.1-0.6,0.1-1
	c0-0.3,0-0.6-0.1-0.9c0-0.3-0.1-0.6-0.2-0.8c-0.1-0.2-0.3-0.4-0.4-0.6c-0.2-0.1-0.4-0.2-0.7-0.2c-0.5,0-0.8,0.2-1,0.6
	c-0.2,0.4-0.4,1-0.4,1.8c0,0.3,0,0.7,0.1,1c0.1,0.3,0.1,0.6,0.2,0.8c0.1,0.2,0.3,0.4,0.4,0.5c0.2,0.1,0.4,0.2,0.6,0.2
	c0.2,0,0.5-0.1,0.6-0.2C100.6,56.3,100.8,56.1,100.9,55.9L100.9,55.9z"/>
<path class="st1" d="M109.9,56.8H107v-0.3c0.1,0,0.2,0,0.3,0c0.1,0,0.2,0,0.2,0c0.1,0,0.2-0.1,0.2-0.1c0-0.1,0.1-0.1,0.1-0.2v-3.1
	l-2.4,3c0,0.2,0,0.3,0.1,0.3c0,0.1,0.1,0.1,0.2,0.1c0.1,0,0.1,0,0.2,0.1c0.1,0,0.2,0,0.3,0v0.3h-2.9v-0.3c0.1,0,0.2,0,0.3,0
	c0.1,0,0.2,0,0.3-0.1c0.1,0,0.2-0.1,0.2-0.1c0-0.1,0.1-0.1,0.1-0.2v-3.8c0-0.1,0-0.2,0-0.2c0-0.1-0.1-0.1-0.2-0.2
	c-0.1,0-0.2-0.1-0.3-0.1c-0.1,0-0.2,0-0.3,0v-0.3h2.9v0.3c-0.1,0-0.2,0-0.3,0c-0.1,0-0.2,0-0.3,0.1c-0.1,0-0.2,0.1-0.2,0.2
	c0,0.1,0,0.1,0,0.2v3.1l2.4-3c0-0.1,0-0.2-0.1-0.3c0-0.1-0.1-0.1-0.2-0.1c-0.1,0-0.2-0.1-0.3-0.1c-0.1,0-0.2,0-0.3,0v-0.3h2.9v0.3
	c-0.1,0-0.2,0-0.3,0c-0.1,0-0.2,0-0.3,0.1c-0.1,0-0.2,0.1-0.2,0.2c0,0.1,0,0.1,0,0.2V56c0,0.1,0,0.2,0,0.2c0,0.1,0.1,0.1,0.2,0.2
	c0.1,0,0.1,0,0.3,0.1c0.1,0,0.2,0,0.3,0V56.8L109.9,56.8z M108.3,50.2c0,0.1,0,0.2-0.1,0.3c-0.1,0.1-0.1,0.2-0.3,0.3
	c-0.1,0.1-0.3,0.2-0.5,0.2c-0.2,0.1-0.5,0.1-0.8,0.1c-0.3,0-0.6,0-0.8-0.1c-0.2-0.1-0.4-0.1-0.5-0.2c-0.1-0.1-0.2-0.2-0.3-0.3
	c-0.1-0.1-0.1-0.2-0.1-0.3c0-0.1,0-0.2,0.1-0.3c0.1-0.1,0.2-0.1,0.3-0.1c0.2,0,0.3,0,0.4,0.1c0.1,0.1,0.1,0.2,0.1,0.3
	c0,0.1,0,0.2-0.1,0.2c0,0.1-0.1,0.2-0.1,0.2c0.1,0.1,0.2,0.1,0.4,0.2c0.1,0,0.3,0.1,0.4,0.1c0.1,0,0.3,0,0.4,0
	c0.1,0,0.3-0.1,0.4-0.2c0,0-0.1-0.1-0.1-0.2c0-0.1-0.1-0.2-0.1-0.2c0-0.1,0.1-0.2,0.2-0.3c0.1-0.1,0.2-0.1,0.4-0.1
	c0.1,0,0.3,0,0.3,0.1C108.2,49.9,108.3,50,108.3,50.2L108.3,50.2z"/>
<polygon class="st2" points="0,47.2 109,47.2 109,48 0,48 0,47.2 "/>
<polygon class="st1" points="57.9,11.8 45.8,11.8 45.8,20.5 50.1,20.5 50.1,16 57.9,16 57.9,11.8 "/>
<path class="st0" d="M52.7,4.2h5.9h1.5c5.9,0,7.4,3.8,7.4,6.6c0,4.6-3.8,6.6-7.4,6.6l7,12.9h5.2l-6.4-10.4c4.1-1.8,5.9-6,5.9-9.3
	C71.9,6.7,69.8,0,59.7,0h-1h-8.2h-2.2v8.4h4.4V4.2L52.7,4.2z"/>
<path class="st1" d="M37.1,0L37.1,0c0,10.1-0.1,20.4-0.1,30.4h20.8v-4.2H41.4V4.4h5.4L46.9,0L37.1,0L37.1,0z"/>
<path class="st3" d="M57.9,11.9c-2.6,1.5-5.6,2.3-8.9,2.3c-1.1,0-2.2-0.1-3.2-0.3v-2.1L57.9,11.9L57.9,11.9L57.9,11.9z"/>
<path class="st4" d="M65.9,1.1c-0.3,1.4-0.8,2.7-1.5,4c-1.1-0.6-2.5-0.9-4.3-0.9h-1.5h-5.9v4.2h-4.4V0h2.2h8.2h1
	C62.2,0,64.3,0.4,65.9,1.1L65.9,1.1z"/>
<path class="st3" d="M41.4,12.5c-1.6-0.8-3-1.7-4.3-2.9c0-3.2,0-6.4,0-9.6l0,0l9.8,0l-0.1,4.4h-5.4V12.5L41.4,12.5z"/>
</svg>
