<?xml version="1.0" encoding="utf-8"?>
<!-- Generator: Adobe Illustrator 21.0.2, SVG Export Plug-In . SVG Version: 6.00 Build 0)  -->
<svg version="1.1" id="Layer_1" xmlns="http://www.w3.org/2000/svg" xmlns:xlink="http://www.w3.org/1999/xlink" x="0px" y="0px"
	 viewBox="0 0 55 55.6" style="enable-background:new 0 0 55 55.6;" xml:space="preserve">
<style type="text/css">
	.st0{fill:none;stroke:#16406E;stroke-width:1.0431;stroke-miterlimit:10;}
	.st1{fill:#FFFFFF;}
	.st2{fill-rule:evenodd;clip-rule:evenodd;fill:#FFFFFF;stroke:#16406E;stroke-width:1.0431;stroke-miterlimit:10;}
	.st3{fill:#16406E;stroke:#16406E;stroke-width:0.2608;stroke-miterlimit:10;}
</style>
<g>
	<path class="st0" d="M48.8,11.2v30.3c0,1.2-0.9,2.1-2.1,2.1H18.9c-1.1,0-2.1-0.9-2.1-2.1V2.6c0-1.2,0.9-2.1,2.1-2.1h19.2L48.8,11.2
		z"/>
	<polyline class="st0" points="48.8,11.5 37.8,11.5 37.8,1 	"/>
	<g>
		<path class="st1" d="M32.9,35.8c0,1.1-0.9,2.1-2.1,2.1H2.6c-1.1,0-2.1-0.9-2.1-2.1V24c0-1.1,0.9-2.1,2.1-2.1h28.2
			c1.1,0,2.1,0.9,2.1,2.1V35.8z"/>
		<path class="st0" d="M32.9,35.8c0,1.1-0.9,2.1-2.1,2.1H2.6c-1.1,0-2.1-0.9-2.1-2.1V24c0-1.1,0.9-2.1,2.1-2.1h28.2
			c1.1,0,2.1,0.9,2.1,2.1V35.8z"/>
	</g>
	<path class="st2" d="M44.7,53.5c0,0-7.6-4.6-5.9-11.3c1.7-6.8,4.7-6.1,5.9-11.4c0,0,6.8,3.4,5.5,11.1c0,0,2-0.4,2.6-4
		c0,0,5.5,10.4-3.3,15.2c0,0,1.8-4,1-6.3c0,0-0.4,1.9-1.9,3.2c0,0,0-2.3-1.8-4.1c-1.8-1.8-1.9-3.9-1.9-3.9S39.7,47.5,44.7,53.5
		L44.7,53.5z"/>
	<g>
		<path class="st3" d="M9.1,29.9c0,1.2-0.3,2.2-1,2.8c-0.7,0.7-1.6,1-2.9,1h-2v-7.5h2.3c1.1,0,2,0.3,2.7,1S9.1,28.7,9.1,29.9z
			 M8.2,29.9c0-1-0.2-1.7-0.7-2.2s-1.2-0.7-2.2-0.7H4v6h1c1,0,1.8-0.3,2.3-0.8C7.9,31.6,8.2,30.9,8.2,29.9z"/>
		<path class="st3" d="M17.2,29.9c0,1.2-0.3,2.1-0.9,2.8c-0.6,0.7-1.4,1-2.5,1c-1.1,0-1.9-0.3-2.5-1c-0.6-0.7-0.9-1.6-0.9-2.9
			c0-1.2,0.3-2.2,0.9-2.8c0.6-0.7,1.4-1,2.5-1c1.1,0,1.9,0.3,2.5,1C16.9,27.8,17.2,28.7,17.2,29.9z M11.3,29.9c0,1,0.2,1.8,0.6,2.3
			c0.4,0.5,1,0.8,1.9,0.8c0.8,0,1.4-0.3,1.9-0.8c0.4-0.5,0.6-1.3,0.6-2.3c0-1-0.2-1.8-0.6-2.3c-0.4-0.5-1-0.8-1.8-0.8
			c-0.8,0-1.4,0.3-1.9,0.8C11.5,28.2,11.3,28.9,11.3,29.9z"/>
		<path class="st3" d="M21.7,26.9c-0.8,0-1.5,0.3-1.9,0.8C19.3,28.2,19,29,19,29.9c0,1,0.2,1.7,0.7,2.3c0.5,0.5,1.1,0.8,1.9,0.8
			c0.5,0,1.1-0.1,1.8-0.3v0.8c-0.5,0.2-1.1,0.3-1.9,0.3c-1.1,0-1.9-0.3-2.5-1c-0.6-0.7-0.9-1.6-0.9-2.9c0-0.8,0.1-1.4,0.4-2
			c0.3-0.6,0.7-1,1.2-1.3c0.5-0.3,1.2-0.5,1.9-0.5c0.8,0,1.5,0.1,2,0.4l-0.4,0.7C22.8,27,22.2,26.9,21.7,26.9z"/>
		<path class="st3" d="M30.3,33.7h-1l-2-3.3l-2,3.3h-0.9l2.5-3.9l-2.3-3.6h1l1.8,3l1.9-3h0.9l-2.3,3.5L30.3,33.7z"/>
	</g>
</g>
</svg>
