<?xml version="1.0" encoding="utf-8"?>
<!-- Generator: Adobe Illustrator 21.0.2, SVG Export Plug-In . SVG Version: 6.00 Build 0)  -->
<svg version="1.1" id="Layer_1" xmlns="http://www.w3.org/2000/svg" xmlns:xlink="http://www.w3.org/1999/xlink" x="0px" y="0px"
	 viewBox="0 0 48 55.6" style="enable-background:new 0 0 48 55.6;" xml:space="preserve">
<style type="text/css">
	.st0{fill:none;stroke:#16406E;stroke-width:1.0418;stroke-miterlimit:10;}
	.st1{fill:#FFFFFF;}
	.st2{fill:#16406E;}
	.st3{fill-rule:evenodd;clip-rule:evenodd;fill:#FFFFFF;stroke:#16406E;stroke-width:1.0418;stroke-miterlimit:10;}
</style>
<path class="st0" d="M41.9,11.2v30.3c0,1.2-0.9,2.1-2.1,2.1H12c-1.1,0-2.1-0.9-2.1-2.1V2.6c0-1.2,0.9-2.1,2.1-2.1h19.2L41.9,11.2z"
	/>
<polyline class="st0" points="41.9,11.5 30.9,11.5 30.9,1 "/>
<g>
	<path class="st1" d="M32.9,34.4c0,1.1-0.9,2.1-2.1,2.1H2.6c-1.1,0-2.1-0.9-2.1-2.1V22.6c0-1.1,0.9-2.1,2.1-2.1h28.2
		c1.1,0,2.1,0.9,2.1,2.1V34.4z"/>
	<path class="st0" d="M32.9,34.4c0,1.1-0.9,2.1-2.1,2.1H2.6c-1.1,0-2.1-0.9-2.1-2.1V22.6c0-1.1,0.9-2.1,2.1-2.1h28.2
		c1.1,0,2.1,0.9,2.1,2.1V34.4z"/>
</g>
<g>
	<path class="st2" d="M9.6,31.4v-5.7h1.8c0.4,0,0.7,0,1,0.1c0.3,0.1,0.5,0.2,0.7,0.4c0.2,0.2,0.3,0.4,0.4,0.6
		c0.1,0.2,0.1,0.5,0.1,0.7c0,0.3,0,0.5-0.1,0.8c-0.1,0.2-0.2,0.4-0.4,0.6c-0.2,0.2-0.4,0.3-0.7,0.4c-0.3,0.1-0.6,0.1-1,0.1h-0.8v2
		H9.6z M10.6,28.6h0.8c0.2,0,0.4,0,0.5-0.1c0.1,0,0.3-0.1,0.4-0.2c0.1-0.1,0.2-0.2,0.2-0.3c0-0.1,0.1-0.3,0.1-0.4
		c0-0.2,0-0.3-0.1-0.4c0-0.1-0.1-0.2-0.2-0.3c-0.1-0.1-0.2-0.2-0.4-0.2c-0.1,0-0.3-0.1-0.5-0.1h-0.8V28.6z"/>
	<path class="st2" d="M14.4,31.4v-5.7h2.1c0.4,0,0.8,0.1,1.2,0.2c0.3,0.1,0.6,0.3,0.9,0.6c0.2,0.3,0.4,0.6,0.6,0.9
		c0.1,0.4,0.2,0.7,0.2,1.2c0,0.4-0.1,0.8-0.2,1.2c-0.1,0.3-0.3,0.7-0.6,0.9c-0.2,0.3-0.5,0.4-0.9,0.6c-0.3,0.1-0.7,0.2-1.2,0.2H14.4
		z M15.4,30.5h1.1c0.3,0,0.5,0,0.7-0.1c0.2-0.1,0.4-0.2,0.6-0.4c0.2-0.2,0.3-0.4,0.4-0.6c0.1-0.2,0.1-0.5,0.1-0.8
		c0-0.3,0-0.6-0.1-0.8c-0.1-0.2-0.2-0.5-0.4-0.6c-0.2-0.2-0.3-0.3-0.6-0.4c-0.2-0.1-0.5-0.1-0.7-0.1h-1.1V30.5z"/>
	<path class="st2" d="M20.3,31.4v-5.7h3.5v0.8h-2.5v1.7h2.1v0.8h-2.1v2.3H20.3z"/>
</g>
<path class="st3" d="M37.8,53.5c0,0-7.6-4.6-5.9-11.3c1.7-6.8,4.7-6.1,5.8-11.4c0,0,6.8,3.4,5.5,11.1c0,0,2-0.4,2.6-4
	c0,0,5.5,10.4-3.3,15.2c0,0,1.8-4,1-6.3c0,0-0.4,1.9-1.9,3.2c0,0,0-2.3-1.8-4.1C38,44,38,41.9,38,41.9S32.8,47.5,37.8,53.5
	L37.8,53.5z"/>
</svg>
