<?xml version="1.0" encoding="utf-8"?>
<!-- Generator: Adobe Illustrator 21.0.2, SVG Export Plug-In . SVG Version: 6.00 Build 0)  -->
<svg version="1.1" id="Layer_1" xmlns="http://www.w3.org/2000/svg" xmlns:xlink="http://www.w3.org/1999/xlink" x="0px" y="0px"
	 viewBox="0 0 51 63" style="enable-background:new 0 0 51 63;" xml:space="preserve">
<style type="text/css">
	.st0{fill:#14A3B8;}
</style>
<g>
	<path class="st0" d="M25.5,63c-5.3,0-9.6-4.4-9.6-9.8v-20h2.5v20c0,4,3.2,7.2,7.1,7.2c3.9,0,7.1-3.2,7.1-7.2V33.4h2.5v19.9
		C35.1,58.6,30.8,63,25.5,63z"/>
</g>
<g>
	<path class="st0" d="M40.4,35.6l-0.2,0l-7.4-1.3c-4.8-0.8-9.7-0.8-14.6,0l-7.6,1.3c-2.1,0-3.9-1.5-4.3-3.5
		c-0.5-2.3-1.6-3.9-2.7-5.6C1.9,24.1,0,21.3,0,16.3C0,7.3,7.2,0,16.1,0c3.4,0,6.7,1.1,9.4,3.1c2.7-2,6-3.1,9.4-3.1
		C43.8,0,51,7.3,51,16.3c0,5-1.9,7.8-3.5,10.2c-1.1,1.7-2.2,3.3-2.7,5.6C44.3,34.1,42.5,35.6,40.4,35.6z M16.1,2.5
		C8.6,2.5,2.5,8.7,2.5,16.3c0,4.2,1.5,6.4,3.1,8.7c1.2,1.8,2.5,3.7,3.1,6.5c0.2,0.9,0.9,1.5,1.8,1.5l7.3-1.2
		c5.1-0.9,10.3-0.9,15.4,0l7.3,1.2c0.9,0,1.7-0.7,1.8-1.5c0.6-2.8,1.9-4.7,3.1-6.5c1.6-2.3,3.1-4.5,3.1-8.7
		c0-7.6-6.1-13.8-13.6-13.8c-3.1,0-6.2,1.1-8.6,3.1l-0.8,0.7l-0.8-0.7C22.3,3.6,19.2,2.5,16.1,2.5z"/>
</g>
<g>
	<polygon class="st0" points="17.6,54.4 16.6,52.1 33.4,44.7 34.4,47 	"/>
</g>
<g>
	<polygon class="st0" points="17.6,48.1 16.6,45.8 33.4,38.4 34.4,40.7 	"/>
</g>
<g>
	<polygon class="st0" points="17.6,41.8 16.6,39.5 33.4,32.1 34.4,34.4 	"/>
</g>
</svg>
