<?xml version="1.0" encoding="utf-8"?>
<!-- Generator: Adobe Illustrator 21.0.2, SVG Export Plug-In . SVG Version: 6.00 Build 0)  -->
<svg version="1.1" id="Layer_1" xmlns="http://www.w3.org/2000/svg" xmlns:xlink="http://www.w3.org/1999/xlink" x="0px" y="0px"
	 viewBox="0 0 43 60" style="enable-background:new 0 0 43 60;" xml:space="preserve">
<style type="text/css">
	.st0{fill:#14A3B8;}
</style>
<g>
	<path class="st0" d="M39.1,60H18.5V29.9c0-5.7,4.6-10.3,10.3-10.3s10.3,4.6,10.3,10.3V60z M20.9,57.6h15.8V29.9
		c0-4.4-3.6-7.9-7.9-7.9c-4.4,0-7.9,3.6-7.9,7.9V57.6z"/>
</g>
<g>
	<path class="st0" d="M28.8,16.6c-4.6,0-8.3-3.7-8.3-8.3S24.2,0,28.8,0c4.6,0,8.3,3.7,8.3,8.3S33.4,16.6,28.8,16.6z M28.8,2.4
		c-3.3,0-5.9,2.7-5.9,5.9c0,3.3,2.6,5.9,5.9,5.9c3.3,0,5.9-2.7,5.9-5.9C34.7,5,32.1,2.4,28.8,2.4z"/>
</g>
<g>
	<g>
		<path class="st0" d="M28.8,40.9c-2.4,0-4.4-2-4.4-4.4c0-2.4,2-4.4,4.4-4.4s4.4,2,4.4,4.4C33.2,39,31.2,40.9,28.8,40.9z M28.8,34.5
			c-1.1,0-2,0.9-2,2c0,1.1,0.9,2,2,2c1.1,0,2-0.9,2-2C30.8,35.4,29.9,34.5,28.8,34.5z"/>
	</g>
	<g>
		<path class="st0" d="M28.8,47.5c-2.4,0-4.4-2-4.4-4.4v-6.5h2.4v6.5c0,1.1,0.9,2,2,2c1.1,0,2-0.9,2-2v-6.5h2.4v6.5
			C33.2,45.5,31.2,47.5,28.8,47.5z"/>
	</g>
</g>
<g>
	<rect x="30" y="15.4" class="st0" width="2.4" height="5.4"/>
</g>
<g>
	<rect x="25.2" y="15.4" class="st0" width="2.4" height="5.4"/>
</g>
<g>
	<rect x="35.9" y="6.7" class="st0" width="7.1" height="2.4"/>
</g>
<g>
	<path class="st0" d="M12.8,60H5.5V19.6h7.2V60z M7.9,57.6h2.4V22H7.9V57.6z"/>
</g>
<g>
	<polygon class="st0" points="10.3,20.8 8,20.8 8,15.9 0,8 8.3,0.3 10,2 3.5,8 10.3,14.9 	"/>
</g>
</svg>
