<?xml version="1.0" encoding="utf-8"?>
<!-- Generator: Adobe Illustrator 21.0.2, SVG Export Plug-In . SVG Version: 6.00 Build 0)  -->
<svg version="1.1" id="Layer_1" xmlns="http://www.w3.org/2000/svg" xmlns:xlink="http://www.w3.org/1999/xlink" x="0px" y="0px"
	 viewBox="0 0 50 63" style="enable-background:new 0 0 50 63;" xml:space="preserve">
<style type="text/css">
	.st0{fill:#14A3B8;}
</style>
<g>
	<g>
		<path class="st0" d="M38.4,63H11.6c-3.7,0-7.1-1.7-9.3-4.7c-2.2-3-2.8-6.7-1.6-10.2c2.9-8.7,7.7-15.7,13.6-19.6l1.4,2.1
			c-5.4,3.5-9.9,10-12.6,18.2c-0.9,2.7-0.4,5.6,1.3,7.9c1.7,2.3,4.4,3.7,7.3,3.7h26.9c2.9,0,5.6-1.3,7.3-3.7
			c1.7-2.3,2.2-5.2,1.3-7.9c-2.8-8.4-7.3-14.9-12.9-18.4l1.4-2.1c6,3.8,11,10.8,13.9,19.8c1.1,3.5,0.6,7.2-1.6,10.2
			C45.6,61.3,42.2,63,38.4,63z"/>
	</g>
	<g>
		<rect x="35.4" y="46.6" class="st0" width="6" height="2.5"/>
	</g>
	<g>
		<rect x="37.1" y="44.9" class="st0" width="2.6" height="6"/>
	</g>
</g>
<g>
	<g>
		<g>
			<path class="st0" d="M24.8,36.7c-8.4,0-15.6-10.6-15.6-19.4C9.2,0,20.9,0,24.8,0c15.6,0,15.6,13.1,15.6,17.4
				C40.4,26.1,33.2,36.7,24.8,36.7z M24.8,2.5c-11.5,0-13,7.5-13,14.9c0,7.4,6.1,16.8,13,16.8c6.9,0,13-9.4,13-16.8
				C37.8,7.1,33.8,2.5,24.8,2.5z"/>
		</g>
	</g>
	<g>
		<path class="st0" d="M11.5,14.3l-1.7-1.9l4.7-4c1.7-1.4,3.9-1.9,6-1.3l3.1,0.8c0.7,0.2,1.4,0.2,2.1,0L29.2,7
			c2-0.5,4.1-0.1,5.7,1.1l4.6,3.5l-1.5,2l-4.6-3.5c-1-0.8-2.3-1-3.5-0.7l-3.3,0.9c-1.1,0.3-2.3,0.3-3.5,0l-3.1-0.8
			c-1.3-0.3-2.7,0-3.7,0.8L11.5,14.3z"/>
	</g>
</g>
<g>
	<polygon class="st0" points="18.4,61.6 15.9,48 20.5,40 18.4,34.7 20.7,33.8 23.3,40.2 18.6,48.5 20.9,61.2 	"/>
</g>
<g>
	<polygon class="st0" points="31,61.6 28.5,61.2 30.8,48.5 26.1,40.2 28.7,33.8 31,34.7 28.9,40 33.5,48 	"/>
</g>
</svg>
