<?xml version="1.0" encoding="utf-8"?>
<!-- Generator: Adobe Illustrator 21.0.2, SVG Export Plug-In . SVG Version: 6.00 Build 0)  -->
<svg version="1.1" id="Layer_1" xmlns="http://www.w3.org/2000/svg" xmlns:xlink="http://www.w3.org/1999/xlink" x="0px" y="0px"
	 viewBox="0 0 21.2 26.2" style="enable-background:new 0 0 21.2 26.2;" xml:space="preserve">
<style type="text/css">
	.st0{fill:#FFFFFF;}
	.st1{fill:#14A3B8;}
</style>
<g>
	<path class="st0" d="M20.1,7.7c0-3.6-2.9-6.5-6.5-6.5c-1.1,0-2.1,0.2-3,0.8c-0.9-0.5-1.9-0.8-3-0.8C4,1.1,1.1,4.1,1.1,7.7
		c0,1,0.2,1.9,0.6,2.7l1.9,4.3c-0.4,1.5,0.3,10.5,3.4,10.5c1,0,2.6-8.3,3.5-8.3l0,0c1,0,2.5,8.3,3.5,8.3c3.1,0,3.9-9,3.4-10.5
		l1.9-4.3C19.9,9.6,20.1,8.6,20.1,7.7z"/>
	<path class="st1" d="M13.9,26.2c-1.3,0-1.8-1.7-2.8-5c-0.2-0.6-0.4-1.4-0.6-2.1c-0.2,0.6-0.4,1.3-0.6,1.9c-1.1,3.7-1.6,5.2-2.9,5.2
		c-0.6,0-1.6-0.2-2.4-1.4c-1.8-2.4-2.4-8-2.1-10.1l-1.8-4C0.2,9.8,0,8.7,0,7.7C0,3.4,3.4,0,7.6,0c1,0,2,0.2,3,0.7
		C11.5,0.2,12.5,0,13.6,0c4.2,0,7.6,3.4,7.6,7.7c0,1.3-0.4,2.5-1.2,3.3l-1.7,3.8c0.4,2.1-0.2,7.5-1.9,9.9
		C15.6,26,14.6,26.2,13.9,26.2z M10.4,15.7c1.3,0,1.8,1.7,2.8,5c0.3,1,0.7,2.5,1,3.2c0.1-0.1,0.3-0.3,0.4-0.4
		c1.5-2.1,1.9-7.5,1.5-8.4L16,14.6l0.2-0.4l2-4.5l0.1-0.1C18.8,9.1,19,8.5,19,7.7c0-3-2.4-5.4-5.4-5.4c-1,0-1.8,0.2-2.4,0.6
		l-0.5,0.3l-0.6-0.3C9.2,2.5,8.4,2.2,7.6,2.2c-3,0-5.4,2.4-5.4,5.4c0,0.8,0.2,1.5,0.5,2.3l2.1,4.6L4.7,15c-0.2,0.8,0.1,6.5,1.6,8.6
		c0.1,0.1,0.2,0.2,0.3,0.3c0.3-0.8,0.8-2.4,1.1-3.4C8.7,17.1,9.1,15.7,10.4,15.7z"/>
</g>
</svg>
