<?xml version="1.0" encoding="utf-8"?>
<!-- Generator: Adobe Illustrator 19.2.1, SVG Export Plug-In . SVG Version: 6.00 Build 0)  -->
<svg version="1.1" id="Layer_1" xmlns="http://www.w3.org/2000/svg" xmlns:xlink="http://www.w3.org/1999/xlink" x="0px" y="0px"
	 viewBox="0 0 717.8 70.8" style="enable-background:new 0 0 717.8 70.8;" xml:space="preserve">
<style type="text/css">	
	.st0{fill:#FFFFFF;fill-opacity:0;stroke:#FFFFFF;stroke-width:2;stroke-miterlimit:10;}
</style>
<animate attributeName="fill-opacity" from="0" to="1" dur="1s" begin="2s" fill="freeze"/>
<g>
	<path class="st0" id="latter" d="M30.9,57.4l-2.1-8H14.9l-2.2,8H0l14-43h15.4l14.2,43H30.9z M26.4,39.9l-1.8-7c-0.4-1.6-1-3.6-1.6-6.1
		s-1-4.3-1.2-5.3c-0.2,1-0.5,2.6-1,4.9s-1.7,6.8-3.4,13.5H26.4z">
		<animate attributeName="fill-opacity" from="0" to="1" dur="1s" begin="2s" fill="freeze"/> </path>
	<path class="st0" id="latter" d="M84.9,57.4H73.3V40H59.8v17.5H48.2V14.6h11.6v15.9h13.4V14.6h11.6L84.9,57.4L84.9,57.4z"><animate attributeName="fill-opacity" from="0" to="1" dur="1s" begin="2.1s" fill="freeze"/> </path>
	<path class="st0" id="latter" d="M113.1,57.4h-11.6V24.1H91v-9.5h32.5v9.5h-10.4V57.4z"> <animate attributeName="fill-opacity" from="0" to="1" dur="1s" begin="2.2s" fill="freeze"/></path>
	<path class="st0" id="latter" d="M169.7,35.9c0,7.2-1.8,12.7-5.3,16.4c-3.5,3.8-8.7,5.6-15.5,5.6c-6.7,0-11.9-1.9-15.5-5.7s-5.4-9.3-5.4-16.5
		c0-7.1,1.8-12.6,5.3-16.3c3.6-3.8,8.7-5.6,15.5-5.6s12,1.9,15.5,5.6C167.9,23.2,169.7,28.7,169.7,35.9z M140.2,35.9
		c0,8.3,2.9,12.4,8.6,12.4c2.9,0,5.1-1,6.5-3s2.1-5.1,2.1-9.4s-0.7-7.4-2.2-9.5c-1.4-2-3.6-3.1-6.4-3.1
		C143.1,23.4,140.2,27.6,140.2,35.9z"> 
		<animate attributeName="fill-opacity" from="0" to="1" dur="1s" begin="2.3s" fill="freeze"/></path>
	<path class="st0" d="M214.1,57.4h-11.6V40h-13.4v17.5h-11.6V14.6h11.6v15.9h13.4V14.6h11.6V57.4z"><animate attributeName="fill-opacity" from="0" to="1" dur="1s" begin="2.4s" fill="freeze"/> </path>
	<path class="st0" d="M274.1,57.4h-11.7V24.1h-11.8v33.4H239V14.6h35.1V57.4z"><animate attributeName="fill-opacity" from="0" to="1" dur="1s" begin="2.5s" fill="freeze"/> </path>
	<path class="st0" d="M323.4,35.9c0,7.2-1.8,12.7-5.3,16.4c-3.5,3.8-8.7,5.6-15.5,5.6c-6.7,0-11.9-1.9-15.5-5.7s-5.4-9.3-5.4-16.5
		c0-7.1,1.8-12.6,5.3-16.3c3.6-3.8,8.7-5.6,15.5-5.6s12,1.9,15.5,5.6C321.6,23.2,323.4,28.7,323.4,35.9z M293.9,35.9
		c0,8.3,2.9,12.4,8.6,12.4c2.9,0,5.1-1,6.5-3s2.1-5.1,2.1-9.4s-0.7-7.4-2.2-9.5c-1.4-2-3.6-3.1-6.4-3.1
		C296.8,23.4,293.9,27.6,293.9,35.9z">
		<animate attributeName="fill-opacity" from="0" to="1" dur="1s" begin="2.6s" fill="freeze"/> </path>
	<path class="st0" d="M374.2,70.8H363V57.4h-25v13.3h-11.3V47.9h3.5c2.6-4.3,4.7-9.4,6.3-15c1.7-5.7,2.7-11.8,3.2-18.3h28.6v33.3
		h5.9V70.8z M356.7,47.9V24.1h-7.6c-0.8,8.4-3,16.3-6.6,23.9L356.7,47.9L356.7,47.9z"><animate attributeName="fill-opacity" from="0" to="1" dur="1s" begin="2.7s" fill="freeze"/> </path>
	<path class="st0" d="M420,35.9c0,7.2-1.8,12.7-5.3,16.4c-3.5,3.8-8.7,5.6-15.5,5.6c-6.7,0-11.9-1.9-15.5-5.7s-5.4-9.3-5.4-16.5
		c0-7.1,1.8-12.6,5.3-16.3c3.6-3.8,8.7-5.6,15.5-5.6s12,1.9,15.5,5.6C418.3,23.2,420,28.7,420,35.9z M390.6,35.9
		c0,8.3,2.9,12.4,8.6,12.4c2.9,0,5.1-1,6.5-3s2.1-5.1,2.1-9.4s-0.7-7.4-2.2-9.5c-1.4-2-3.6-3.1-6.4-3.1
		C393.5,23.4,390.6,27.6,390.6,35.9z"><animate attributeName="fill-opacity" from="0" to="1" dur="1s" begin="2.8s" fill="freeze"/> </path>
	<path class="st0" d="M458.8,28.2c0,4.8-1.4,8.5-4.2,11.1c-2.8,2.6-6.8,3.9-12,3.9h-3.3v14.2h-11.6V14.6h14.8
		c5.4,0,9.5,1.2,12.2,3.5C457.5,20.5,458.8,23.9,458.8,28.2z M439.3,33.8h2.1c1.7,0,3.1-0.5,4.1-1.5s1.5-2.3,1.5-4
		c0-2.9-1.6-4.3-4.8-4.3h-3L439.3,33.8L439.3,33.8z"><animate attributeName="fill-opacity" from="0" to="1" dur="1s" begin="2.9s" fill="freeze"/> </path>
	<path class="st0" d="M505.8,35.9c0,7.2-1.8,12.7-5.3,16.4c-3.5,3.8-8.7,5.6-15.5,5.6c-6.7,0-11.9-1.9-15.5-5.7s-5.4-9.3-5.4-16.5
		c0-7.1,1.8-12.6,5.3-16.3c3.6-3.8,8.7-5.6,15.5-5.6s12,1.9,15.5,5.6C504,23.2,505.8,28.7,505.8,35.9z M476.3,35.9
		c0,8.3,2.9,12.4,8.6,12.4c2.9,0,5.1-1,6.5-3s2.1-5.1,2.1-9.4s-0.7-7.4-2.2-9.5c-1.4-2-3.6-3.1-6.4-3.1
		C479.2,23.4,476.3,27.6,476.3,35.9z"><animate attributeName="fill-opacity" from="0" to="1" dur="1s" begin="3s" fill="freeze"/> </path>
	<path class="st0" d="M522.2,35l-12.5-20.4h12.5l11.9,20.7V14.6h11.2v20.7l12-20.7h12.5L557.1,35l13.6,22.4h-12.8l-12.7-21.7v21.7
		H534V35.7l-12.7,21.7h-12.8L522.2,35z"><animate attributeName="fill-opacity" from="0" to="1" dur="1s" begin="3.1s" fill="freeze"/> </path>
	<path class="st0" d="M611.7,57.4h-11.6V40h-13.4v17.5H575V14.6h11.6v15.9H600V14.6h11.6v42.8H611.7z"><animate attributeName="fill-opacity" from="0" to="1" dur="1s" begin="3.2s" fill="freeze"/> </path>
	<path class="st0" d="M651.6,43.2c0,4.6-1.6,8.1-4.7,10.5c-3.1,2.5-7.5,3.7-13.3,3.7H621V14.6h11.6v15.2h0.6c6,0,10.5,1.1,13.7,3.4
		S651.6,38.8,651.6,43.2z M632.6,48.5h0.5c4.5,0,6.8-1.7,6.8-5c0-3.2-2.3-4.9-6.9-4.9h-0.4L632.6,48.5L632.6,48.5z M667.1,57.4
		h-11.7V14.6h11.7V57.4z"> <animate attributeName="fill-opacity" from="0" to="1" dur="1s" begin="3.3s" fill="freeze"/></path>
	<path class="st0" d="M676.4,14.6h10.3V33c0,2-0.2,5.9-0.5,11.7h0.2l17.1-30.1h14.3v42.8h-10.3V39.5c0-2.7,0.2-6.8,0.5-12.2h-0.2
		l-17.2,30.1h-14.3V14.6H676.4z M697,11.2c-4.7,0-8.2-0.9-10.5-2.7s-3.6-4.6-3.9-8.4h9.6c0.1,1.9,0.5,3.3,1.3,4.2
		c0.7,0.9,1.9,1.3,3.5,1.3c2.9,0,4.5-1.8,4.8-5.4h9.7C710.7,7.4,705.9,11.2,697,11.2z"><animate attributeName="fill-opacity" from="0" to="1" dur="1s" begin="3.4s" fill="freeze"/> </path>
</g>
</svg>
