<?xml version="1.0" encoding="utf-8"?>
<!-- Generator: Adobe Illustrator 21.0.2, SVG Export Plug-In . SVG Version: 6.00 Build 0)  -->
<svg version="1.1" id="Layer_1" xmlns="http://www.w3.org/2000/svg" xmlns:xlink="http://www.w3.org/1999/xlink" x="0px" y="0px"
	 viewBox="0 0 44 44" style="enable-background:new 0 0 44 44;" xml:space="preserve">
<style type="text/css">
	.st0{fill:#3A5BA0;}
	.st1{fill:#FFFFFF;}
</style>
<path class="st0" d="M40.3,0H3.7C1.6,0,0,1.6,0,3.7v36.7c0,2,1.6,3.7,3.7,3.7h36.7c2,0,3.7-1.6,3.7-3.7V3.7C44,1.6,42.4,0,40.3,0z"
	/>
<path id="f_1_" class="st1" d="M28.4,22.9l0.9-4.6h-4.6v-3.7c0-1.4,0.7-1.8,2.8-1.8h1.8V8.3c0,0-1.8,0-3.7,0c-3.8,0-6.4,2.2-6.4,6.4
	v3.7h-4.6v4.6h4.6v12.8h5.5V22.9H28.4z"/>
</svg>
