<?xml version="1.0" encoding="utf-8"?>
<!-- Generator: Adobe Illustrator 21.0.2, SVG Export Plug-In . SVG Version: 6.00 Build 0)  -->
<svg version="1.1" id="Layer_1" xmlns="http://www.w3.org/2000/svg" xmlns:xlink="http://www.w3.org/1999/xlink" x="0px" y="0px"
	 viewBox="0 0 44 44" style="enable-background:new 0 0 44 44;" xml:space="preserve">
<style type="text/css">
	.st0{fill:url(#SVGID_1_);}
	.st1{fill:#FFFFFF;}
</style>
<linearGradient id="SVGID_1_" gradientUnits="userSpaceOnUse" x1="-588.3323" y1="132.325" x2="-555.6677" y2="85.675" gradientTransform="matrix(1 0 0 1 594 -87)">
	<stop  offset="0" style="stop-color:#FFB900"/>
	<stop  offset="1" style="stop-color:#9100EB"/>
</linearGradient>
<path class="st0" d="M44,38.5c0,3-2.5,5.5-5.5,5.5h-33c-3,0-5.5-2.5-5.5-5.5v-33C0,2.5,2.5,0,5.5,0h33c3,0,5.5,2.5,5.5,5.5V38.5z"/>
<g>
	<g>
		<path class="st1" d="M29.6,38.5H14.4c-4.9,0-8.9-4-8.9-8.9V14.4c0-4.9,4-8.9,8.9-8.9h15.1c4.9,0,8.9,4,8.9,8.9v15.1
			C38.5,34.5,34.5,38.5,29.6,38.5z M14.4,8.3c-3.4,0-6.2,2.8-6.2,6.2v15.1c0,3.4,2.8,6.2,6.2,6.2h15.1c3.4,0,6.2-2.8,6.2-6.2V14.4
			c0-3.4-2.8-6.2-6.2-6.2H14.4z"/>
	</g>
	<g>
		<path class="st1" d="M22,30.3c-4.5,0-8.3-3.7-8.3-8.3c0-4.5,3.7-8.3,8.3-8.3c4.5,0,8.3,3.7,8.3,8.3C30.3,26.5,26.5,30.3,22,30.3z
			 M22,16.5c-3,0-5.5,2.5-5.5,5.5s2.5,5.5,5.5,5.5s5.5-2.5,5.5-5.5S25,16.5,22,16.5z"/>
	</g>
	<g>
		<circle class="st1" cx="30.8" cy="13.2" r="1.9"/>
	</g>
</g>
</svg>
