<?xml version="1.0" encoding="utf-8"?>
<!-- Generator: Adobe Illustrator 21.0.2, SVG Export Plug-In . SVG Version: 6.00 Build 0)  -->
<svg version="1.1" id="Layer_1" xmlns="http://www.w3.org/2000/svg" xmlns:xlink="http://www.w3.org/1999/xlink" x="0px" y="0px"
	 viewBox="0 0 2990.6 1280" style="enable-background:new 0 0 2990.6 1280;" xml:space="preserve">
<style type="text/css">
	.st0{fill:none;stroke:#1D7ACE;stroke-width:2.0615;stroke-miterlimit:10;}
	.st1{fill:none;stroke:#1D7ACE;stroke-width:2.0848;stroke-miterlimit:10;}
	.st2{fill:none;stroke:#1D7ACE;stroke-width:2.108;stroke-miterlimit:10;}
	.st3{fill:none;stroke:#1D7ACE;stroke-width:2.1313;stroke-miterlimit:10;}
	.st4{fill:none;stroke:#1D7ACE;stroke-width:2.1545;stroke-miterlimit:10;}
	.st5{fill:none;stroke:#1D7ACE;stroke-width:2.1778;stroke-miterlimit:10;}
	.st6{fill:none;stroke:#1D7ACE;stroke-width:2.201;stroke-miterlimit:10;}
	.st7{fill:none;stroke:#1D7ACE;stroke-width:2.2243;stroke-miterlimit:10;}
	.st8{fill:none;stroke:#1D7ACE;stroke-width:2.2475;stroke-miterlimit:10;}
	.st9{fill:none;stroke:#1D7ACE;stroke-width:2.2707;stroke-miterlimit:10;}
	.st10{fill:none;stroke:#1D7ACE;stroke-width:2.294;stroke-miterlimit:10;}
	.st11{fill:none;stroke:#1D7ACE;stroke-width:2.3172;stroke-miterlimit:10;}
	.st12{fill:none;stroke:#1D7ACE;stroke-width:2.3405;stroke-miterlimit:10;}
	.st13{fill:none;stroke:#1D7ACE;stroke-width:2.3637;stroke-miterlimit:10;}
	.st14{fill:none;stroke:#1D7ACE;stroke-width:2.387;stroke-miterlimit:10;}
	.st15{fill:none;stroke:#1D7ACE;stroke-width:2.4102;stroke-miterlimit:10;}
	.st16{fill:none;stroke:#1D7ACE;stroke-width:2.4334;stroke-miterlimit:10;}
	.st17{fill:none;stroke:#1D7ACE;stroke-width:2.4567;stroke-miterlimit:10;}
	.st18{fill:none;stroke:#1D7ACE;stroke-width:2.4799;stroke-miterlimit:10;}
	.st19{fill:none;stroke:#1D7ACE;stroke-width:2.5032;stroke-miterlimit:10;}
	.st20{fill:none;stroke:#1D7ACE;stroke-width:2.5264;stroke-miterlimit:10;}
	.st21{fill:none;stroke:#1D7ACE;stroke-width:2.5497;stroke-miterlimit:10;}
	.st22{fill:none;stroke:#1D7ACE;stroke-width:2.5729;stroke-miterlimit:10;}
	.st23{fill:none;stroke:#1D7ACE;stroke-width:2.5962;stroke-miterlimit:10;}
	.st24{fill:none;stroke:#1D7ACE;stroke-width:2.6194;stroke-miterlimit:10;}
	.st25{fill:none;stroke:#1D7ACE;stroke-width:2.6426;stroke-miterlimit:10;}
	.st26{fill:none;stroke:#1D7ACE;stroke-width:2.6659;stroke-miterlimit:10;}
	.st27{fill:none;stroke:#50CDF9;stroke-width:2.2158;stroke-miterlimit:10;}
	.st28{fill:none;stroke:#A6E4F4;stroke-width:1.4214;stroke-miterlimit:10;}
	.st29{fill:none;stroke:#A6E4F4;stroke-width:1.4243;stroke-miterlimit:10;}
	.st30{fill:none;stroke:#A6E4F4;stroke-width:1.4272;stroke-miterlimit:10;}
	.st31{fill:none;stroke:#A6E4F4;stroke-width:1.4301;stroke-miterlimit:10;}
	.st32{fill:none;stroke:#A6E4F4;stroke-width:1.433;stroke-miterlimit:10;}
	.st33{fill:none;stroke:#A6E4F4;stroke-width:1.4359;stroke-miterlimit:10;}
	.st34{fill:none;stroke:#A6E4F4;stroke-width:1.4389;stroke-miterlimit:10;}
	.st35{fill:none;stroke:#A6E4F4;stroke-width:1.4418;stroke-miterlimit:10;}
	.st36{fill:none;stroke:#A6E4F4;stroke-width:1.4447;stroke-miterlimit:10;}
	.st37{fill:none;stroke:#A6E4F4;stroke-width:1.4476;stroke-miterlimit:10;}
	.st38{fill:none;stroke:#A6E4F4;stroke-width:1.4505;stroke-miterlimit:10;}
	.st39{fill:none;stroke:#A6E4F4;stroke-width:1.4534;stroke-miterlimit:10;}
	.st40{fill:none;stroke:#A6E4F4;stroke-width:1.4563;stroke-miterlimit:10;}
	.st41{fill:none;stroke:#A6E4F4;stroke-width:1.4592;stroke-miterlimit:10;}
	.st42{fill:none;stroke:#A6E4F4;stroke-width:1.4622;stroke-miterlimit:10;}
	.st43{fill:none;stroke:#A6E4F4;stroke-width:1.4651;stroke-miterlimit:10;}
	.st44{fill:none;stroke:#A6E4F4;stroke-width:1.468;stroke-miterlimit:10;}
	.st45{fill:none;stroke:#A6E4F4;stroke-width:1.4709;stroke-miterlimit:10;}
	.st46{fill:none;stroke:#A6E4F4;stroke-width:1.4738;stroke-miterlimit:10;}
	.st47{fill:none;stroke:#A6E4F4;stroke-width:1.4767;stroke-miterlimit:10;}
	.st48{fill:none;stroke:#A6E4F4;stroke-width:1.4796;stroke-miterlimit:10;}
	.st49{fill:none;stroke:#A6E4F4;stroke-width:1.4826;stroke-miterlimit:10;}
	.st50{fill:none;stroke:#14A3B8;stroke-width:1.3271;stroke-miterlimit:10;}
	.st51{fill:none;}
</style>
<g>
	<path class="st0" d="M92,924.3c0,0,398-232.3,746.2-149.5s554.4,316,969.9,289.3s834.1-410.7,834.1-410.7"/>
	<path class="st1" d="M92,920.4c0,0,398.7-238.6,746.7-154s553.6,323.8,969.1,296s835.3-421.9,835.3-421.9"/>
	<path class="st2" d="M92,916.4c0,0,399.4-244.9,747.2-158.4s552.7,331.5,968.4,302.7c415.7-28.8,836.6-433.1,836.6-433.1"/>
	<path class="st3" d="M92,912.4c0,0,400.1-251.2,747.7-162.8s551.8,339.2,967.6,309.4s837.8-444.4,837.8-444.4"/>
	<path class="st4" d="M92,908.5c0,0,400.8-257.5,748.2-167.2s551,346.9,966.9,316.1s839-455.6,839-455.6"/>
	<path class="st5" d="M92,904.5c0,0,401.5-263.8,748.6-171.7s550.1,354.7,966.1,322.9c416-31.8,840.3-466.8,840.3-466.8"/>
	<path class="st6" d="M92,900.6c0,0,402.2-270.1,749.1-176.1s549.3,362.4,965.4,329.6C2222.6,1021.3,2648,576,2648,576"/>
	<path class="st7" d="M91.9,896.6c0,0,402.9-276.4,749.6-180.5s548.4,370.1,964.6,336.3s842.7-489.3,842.7-489.3"/>
	<path class="st8" d="M91.9,892.7c0,0,403.5-282.7,750.1-184.9s547.6,377.8,963.9,343c416.3-34.8,844-500.5,844-500.5"/>
	<path class="st9" d="M91.9,888.7c0,0,404.2-289,750.6-189.4s546.7,385.6,963.1,349.7c416.4-35.8,845.2-511.7,845.2-511.7"/>
	<path class="st10" d="M91.9,884.7c0,0,404.9-295.2,751-193.8s545.8,393.3,962.4,356.4c416.5-36.8,846.4-523,846.4-523"/>
	<path class="st11" d="M91.9,880.8c0,0,405.6-301.5,751.5-198.2s545,401,961.6,363.2c416.6-37.8,847.7-534.2,847.7-534.2"/>
	<path class="st12" d="M91.9,876.8c0,0,406.3-307.8,752-202.7s544.1,408.7,960.9,369.9c416.8-38.9,848.9-545.4,848.9-545.4"/>
	<path class="st13" d="M91.9,872.9c0,0,407-314.1,752.5-207.1s543.3,416.5,960.1,376.6c416.9-39.9,850.1-556.7,850.1-556.7"/>
	<path class="st14" d="M91.9,868.9c0,0,407.7-320.4,753-211.5s542.4,424.2,959.4,383.3c417-40.9,851.4-567.9,851.4-567.9"/>
	<path class="st15" d="M91.9,865c0,0,408.4-326.7,753.5-215.9s541.5,431.9,958.6,390c417.1-41.9,852.6-579.1,852.6-579.1"/>
	<path class="st16" d="M91.8,861c0,0,409.1-333,753.9-220.4s540.7,439.6,957.9,396.7c417.2-42.9,853.8-590.4,853.8-590.4"/>
	<path class="st17" d="M91.8,857c0,0,409.8-339.3,754.4-224.8s539.8,447.3,957.1,403.5c417.3-43.9,855.1-601.6,855.1-601.6"/>
	<path class="st18" d="M91.8,853.1c0,0,410.5-345.6,754.9-229.2s539,455.1,956.4,410.2c417.4-44.9,856.3-612.8,856.3-612.8"/>
	<path class="st19" d="M91.8,849.1c0,0,411.2-351.9,755.4-233.6s538.1,462.8,955.6,416.9c417.5-45.9,857.5-624,857.5-624"/>
	<path class="st20" d="M91.8,845.2c0,0,411.8-358.2,755.9-238.1s537.3,470.5,954.9,423.6c417.6-46.9,858.8-635.3,858.8-635.3"/>
	<path class="st21" d="M91.8,841.2c0,0,412.5-364.5,756.3-242.5s536.4,478.2,954.1,430.3c417.7-47.9,860-646.5,860-646.5"/>
	<path class="st22" d="M91.8,837.3c0,0,413.2-370.8,756.8-246.9s535.5,486,953.4,437c417.8-48.9,861.2-657.7,861.2-657.7"/>
	<path class="st23" d="M91.8,833.3c0,0,413.9-377.1,757.3-251.4s534.7,493.7,952.6,443.8c417.9-49.9,862.5-669,862.5-669"/>
	<path class="st24" d="M91.7,829.3c0,0,414.6-383.4,757.8-255.8s533.8,501.4,951.9,450.5c418-51,863.7-680.2,863.7-680.2"/>
	<path class="st25" d="M91.7,825.4c0,0,415.3-389.7,758.3-260.2s533,509.1,951.1,457.2c418.2-52,864.9-691.4,864.9-691.4"/>
	<path class="st26" d="M91.7,821.4c0,0,416-396,758.8-264.6s532.1,516.9,950.4,463.9S2667,318.1,2667,318.1"/>
</g>
<g>
	<path class="st27" d="M105.5,590.7c0,0,587-269.5,836.5-120.6s442.5,407.7,808.8,411.1s1019.1-254.2,1019.1-254.2"/>
	<path class="st27" d="M106.2,584.2c0,0,588.6-265.4,837-114.8s439.5,410.6,805.6,416.5c366.1,5.9,1020.5-247.1,1020.5-247.1"/>
	<path class="st27" d="M107,577.7c0,0,590.2-261.2,837.5-108.9s436.5,413.5,802.4,422c365.9,8.4,1021.8-239.9,1021.8-239.9"/>
	<path class="st27" d="M107.7,571.3c0,0,591.9-257,838-103.1s433.5,416.4,799.3,427.4c365.8,11,1023.2-232.8,1023.2-232.8"/>
	<path class="st27" d="M108.4,564.8c0,0,593.5-252.9,838.5-97.3s430.5,419.3,796.1,432.9s1024.6-225.6,1024.6-225.6"/>
	<path class="st27" d="M109.1,558.3c0,0,595.2-248.7,839-91.4s427.5,422.2,793,438.3c365.4,16.1,1025.9-218.5,1025.9-218.5"/>
	<path class="st27" d="M109.8,551.8c0,0,596.8-244.5,839.6-85.6s424.5,425.2,789.8,443.7s1027.3-211.3,1027.3-211.3"/>
	<path class="st27" d="M110.5,545.4c0,0,598.4-240.4,840.1-79.7s421.5,428.1,786.7,449.2s1028.7-204.2,1028.7-204.2"/>
	<path class="st27" d="M111.3,538.9c0,0,600.1-236.2,840.6-73.9s418.5,431,783.5,454.6s1030-197,1030-197"/>
	<path class="st27" d="M112,532.4c0,0,601.7-232,841.1-68.1s415.6,433.9,780.3,460.1c364.8,26.2,1031.4-189.9,1031.4-189.9"/>
	<path class="st27" d="M112.7,525.9c0,0,603.4-227.9,841.6-62.2s412.6,436.8,777.2,465.5c364.6,28.7,1032.8-182.7,1032.8-182.7"/>
	<path class="st27" d="M113.4,519.5c0,0,605-223.7,842.1-56.4s409.6,439.7,774,470.9c364.5,31.3,1034.1-175.5,1034.1-175.5"/>
	<path class="st27" d="M114.1,513c0,0,606.6-219.5,842.6-50.6s406.6,442.6,770.9,476.4c364.3,33.8,1035.5-168.4,1035.5-168.4"/>
	<path class="st27" d="M114.8,506.5c0,0,608.3-215.4,843.1-44.7s403.6,445.5,767.7,481.8c364.1,36.3,1036.9-161.2,1036.9-161.2"/>
	<path class="st27" d="M115.5,500c0,0,609.9-211.2,843.7-38.9s400.6,448.4,764.6,487.3S2762,794.4,2762,794.4"/>
	<path class="st27" d="M116.3,493.6c0,0,611.6-207,844.2-33s397.6,451.3,761.4,492.7s1039.6-146.9,1039.6-146.9"/>
	<path class="st27" d="M117,487.1c0,0,613.2-202.8,844.7-27.2s394.6,454.2,758.2,498.2s1041-139.8,1041-139.8"/>
</g>
<g>
	<path class="st28" d="M782.7,606.4c0,0,533.1-323.8,1196.9-19.6s674.1,393.5,674.1,393.5"/>
	<path class="st29" d="M779.3,612.3c0,0,532.9-321.1,1196.3-15.6s673.7,395.2,673.7,395.2"/>
	<path class="st30" d="M776,618.2c0,0,532.7-318.4,1195.7-11.7s673.3,396.8,673.3,396.8"/>
	<path class="st31" d="M772.7,624.1c0,0,532.5-315.7,1195.1-7.7s672.9,398.4,672.9,398.4"/>
	<path class="st32" d="M769.3,630c0,0,532.3-312.9,1194.6-3.8s672.5,400,672.5,400"/>
	<path class="st33" d="M766,635.9c0,0,532.1-310.2,1194,0.1s672,401.7,672,401.7"/>
	<path class="st34" d="M762.6,641.8c0,0,531.9-307.5,1193.4,4.1s671.6,403.3,671.6,403.3"/>
	<path class="st35" d="M759.3,647.7c0,0,531.7-304.8,1192.8,8s671.2,404.9,671.2,404.9"/>
	<path class="st36" d="M756,653.6c0,0,531.5-302,1192.3,11.9s670.8,406.6,670.8,406.6"/>
	<path class="st37" d="M752.6,659.5c0,0,531.3-299.3,1191.7,15.9s670.4,408.2,670.4,408.2"/>
	<path class="st38" d="M749.3,665.4c0,0,531.1-296.6,1191.1,19.8s670,409.8,670,409.8"/>
	<path class="st39" d="M746,671.3c0,0,530.9-293.9,1190.5,23.7s669.6,411.4,669.6,411.4"/>
	<path class="st40" d="M742.6,677.2c0,0,530.7-291.2,1190,27.7s669.2,413.1,669.2,413.1"/>
	<path class="st41" d="M739.3,683.2c0,0,530.5-288.4,1189.4,31.6s668.8,414.7,668.8,414.7"/>
	<path class="st42" d="M735.9,689.1c0,0,530.3-285.7,1188.8,35.5s668.4,416.3,668.4,416.3"/>
	<path class="st43" d="M732.6,695c0,0,530.1-283,1188.2,39.5s668,417.9,668,417.9"/>
	<path class="st44" d="M729.3,700.9c0,0,529.9-280.3,1187.7,43.4s667.6,419.6,667.6,419.6"/>
	<path class="st45" d="M725.9,706.8c0,0,529.7-277.6,1187.1,47.3s667.2,421.2,667.2,421.2"/>
	<path class="st46" d="M722.6,712.7c0,0,529.5-274.8,1186.5,51.3s666.8,422.8,666.8,422.8"/>
	<path class="st47" d="M719.2,718.6c0,0,529.3-272.1,1185.9,55.2s666.4,424.5,666.4,424.5"/>
	<path class="st48" d="M715.9,724.5c0,0,529.1-269.4,1185.4,59.2s666,426.1,666,426.1"/>
	<path class="st49" d="M712.6,730.4c0,0,528.9-266.7,1184.8,63.1s665.5,427.7,665.5,427.7"/>
</g>
<g>
	<path class="st50" d="M0.3,850c0,0,468.6,282.3,836.6,226.6c368-55.7,330-474.3,1009.6-560.6s981.6-40.9,981.6-40.9"/>
	<path class="st50" d="M4.4,854.5c0,0,468.5,282.4,836.5,226.9c368.1-55.5,330.2-474.2,1009.8-560.2s981.7-40.5,981.7-40.5"/>
	<path class="st50" d="M8.4,859.1c0,0,468.3,282.6,836.4,227.2s330.4-474,1010.1-559.8s981.7-40.1,981.7-40.1"/>
	<path class="st50" d="M12.4,863.6c0,0,468.2,282.8,836.3,227.6S1179.3,617.3,1859,531.8s981.7-39.7,981.7-39.7"/>
	<path class="st50" d="M16.4,868.2c0,0,468.1,283,836.2,227.9c368.1-55.1,330.8-473.8,1010.5-559s981.7-39.3,981.7-39.3"/>
	<path class="st50" d="M20.4,872.7c0,0,468,283.2,836.1,228.3c368.1-54.9,331-473.6,1010.7-558.6s981.7-38.9,981.7-38.9"/>
	<path class="st50" d="M24.4,877.3c0,0,467.9,283.4,836.1,228.6s331.2-473.5,1011-558.1s981.7-38.5,981.7-38.5"/>
	<path class="st50" d="M28.4,881.8c0,0,467.8,283.6,836,228.9S1195.8,637.4,1875.6,553s981.7-38.1,981.7-38.1"/>
	<path class="st50" d="M32.5,886.4c0,0,467.7,283.8,835.9,229.3s331.6-473.2,1011.4-557.3s981.8-37.7,981.8-37.7"/>
	<path class="st50" d="M36.5,890.9c0,0,467.5,284,835.8,229.6S1204,647.4,1883.9,563.6s981.8-37.3,981.8-37.3"/>
	<path class="st50" d="M40.5,895.5c0,0,467.4,284.1,835.7,229.9c368.3-54.2,331.9-473,1011.9-556.5s981.8-36.9,981.8-36.9"/>
	<path class="st50" d="M44.5,900c0,0,467.3,284.3,835.6,230.3c368.3-54.1,332.1-472.8,1012.1-556.1s981.8-36.5,981.8-36.5"/>
	<path class="st50" d="M48.5,904.6c0,0,467.2,284.5,835.5,230.6c368.3-53.9,332.3-472.7,1012.3-555.7s981.8-36.1,981.8-36.1"/>
	<path class="st50" d="M52.5,909.1c0,0,467.1,284.7,835.4,230.9s332.5-472.6,1012.5-555.3s981.8-35.7,981.8-35.7"/>
	<path class="st50" d="M56.6,913.7c0,0,467,284.9,835.3,231.3c368.3-53.6,332.7-472.4,1012.8-554.9s981.8-35.3,981.8-35.3"/>
	<path class="st50" d="M60.6,918.2c0,0,466.9,285.1,835.2,231.6s332.9-472.3,1013-554.5s981.9-34.9,981.9-34.9"/>
	<path class="st50" d="M64.6,922.8c0,0,466.7,285.3,835.1,232s333.1-472.2,1013.2-554.1s981.9-34.6,981.9-34.6"/>
	<path class="st50" d="M68.6,927.3c0,0,466.6,285.5,835,232.3c368.4-53.2,333.3-472,1013.4-553.7s981.9-34.2,981.9-34.2"/>
	<path class="st50" d="M72.6,931.9c0,0,466.5,285.6,834.9,232.6c368.4-53,333.5-471.9,1013.6-553.3s981.9-33.8,981.9-33.8"/>
	<path class="st50" d="M76.6,936.4c0,0,466.4,285.8,834.8,233s333.7-471.8,1013.9-552.9s981.9-33.4,981.9-33.4"/>
	<path class="st50" d="M80.6,941c0,0,466.3,286,834.8,233.3s333.8-471.6,1014.1-552.4s981.9-33,981.9-33"/>
	<path class="st50" d="M84.7,945.5c0,0,466.2,286.2,834.7,233.6s334-471.5,1014.3-552s981.9-32.6,981.9-32.6"/>
</g>
<rect x="2589.6" class="st51" width="401" height="1280"/>
</svg>
