<?xml version="1.0" encoding="utf-8"?>
<!-- Generator: Adobe Illustrator 21.0.2, SVG Export Plug-In . SVG Version: 6.00 Build 0)  -->
<svg version="1.1" id="Layer_1" xmlns="http://www.w3.org/2000/svg" xmlns:xlink="http://www.w3.org/1999/xlink" x="0px" y="0px"
	 viewBox="0 0 1959.4 607.5" style="enable-background:new 0 0 1959.4 607.5;" xml:space="preserve">
<style type="text/css">
	.st0{fill:none;stroke:#1D7ACE;stroke-width:1.3854;stroke-miterlimit:10;}
	.st1{fill:none;stroke:#1D7ACE;stroke-width:1.401;stroke-miterlimit:10;}
	.st2{fill:none;stroke:#1D7ACE;stroke-width:1.4166;stroke-miterlimit:10;}
	.st3{fill:none;stroke:#1D7ACE;stroke-width:1.4323;stroke-miterlimit:10;}
	.st4{fill:none;stroke:#1D7ACE;stroke-width:1.4479;stroke-miterlimit:10;}
	.st5{fill:none;stroke:#1D7ACE;stroke-width:1.4635;stroke-miterlimit:10;}
	.st6{fill:none;stroke:#1D7ACE;stroke-width:1.4791;stroke-miterlimit:10;}
	.st7{fill:none;stroke:#1D7ACE;stroke-width:1.4948;stroke-miterlimit:10;}
	.st8{fill:none;stroke:#1D7ACE;stroke-width:1.5104;stroke-miterlimit:10;}
	.st9{fill:none;stroke:#1D7ACE;stroke-width:1.526;stroke-miterlimit:10;}
	.st10{fill:none;stroke:#1D7ACE;stroke-width:1.5416;stroke-miterlimit:10;}
	.st11{fill:none;stroke:#1D7ACE;stroke-width:1.5572;stroke-miterlimit:10;}
	.st12{fill:none;stroke:#1D7ACE;stroke-width:1.5729;stroke-miterlimit:10;}
	.st13{fill:none;stroke:#1D7ACE;stroke-width:1.5885;stroke-miterlimit:10;}
	.st14{fill:none;stroke:#1D7ACE;stroke-width:1.6041;stroke-miterlimit:10;}
	.st15{fill:none;stroke:#1D7ACE;stroke-width:1.6197;stroke-miterlimit:10;}
	.st16{fill:none;stroke:#1D7ACE;stroke-width:1.6353;stroke-miterlimit:10;}
	.st17{fill:none;stroke:#1D7ACE;stroke-width:1.651;stroke-miterlimit:10;}
	.st18{fill:none;stroke:#1D7ACE;stroke-width:1.6666;stroke-miterlimit:10;}
	.st19{fill:none;stroke:#1D7ACE;stroke-width:1.6822;stroke-miterlimit:10;}
	.st20{fill:none;stroke:#1D7ACE;stroke-width:1.6978;stroke-miterlimit:10;}
	.st21{fill:none;stroke:#1D7ACE;stroke-width:1.7134;stroke-miterlimit:10;}
	.st22{fill:none;stroke:#1D7ACE;stroke-width:1.7291;stroke-miterlimit:10;}
	.st23{fill:none;stroke:#1D7ACE;stroke-width:1.7447;stroke-miterlimit:10;}
	.st24{fill:none;stroke:#1D7ACE;stroke-width:1.7603;stroke-miterlimit:10;}
	.st25{fill:none;stroke:#1D7ACE;stroke-width:1.7759;stroke-miterlimit:10;}
	.st26{fill:none;stroke:#1D7ACE;stroke-width:1.7915;stroke-miterlimit:10;}
	.st27{fill:none;stroke:#50CDF9;stroke-width:1.4891;stroke-miterlimit:10;}
	.st28{fill:none;stroke:#A6E4F4;stroke-width:0.9552;stroke-miterlimit:10;}
	.st29{fill:none;stroke:#A6E4F4;stroke-width:0.9572;stroke-miterlimit:10;}
	.st30{fill:none;stroke:#A6E4F4;stroke-width:0.9591;stroke-miterlimit:10;}
	.st31{fill:none;stroke:#A6E4F4;stroke-width:0.9611;stroke-miterlimit:10;}
	.st32{fill:none;stroke:#A6E4F4;stroke-width:0.963;stroke-miterlimit:10;}
	.st33{fill:none;stroke:#A6E4F4;stroke-width:0.965;stroke-miterlimit:10;}
	.st34{fill:none;stroke:#A6E4F4;stroke-width:0.9669;stroke-miterlimit:10;}
	.st35{fill:none;stroke:#A6E4F4;stroke-width:0.9689;stroke-miterlimit:10;}
	.st36{fill:none;stroke:#A6E4F4;stroke-width:0.9709;stroke-miterlimit:10;}
	.st37{fill:none;stroke:#A6E4F4;stroke-width:0.9728;stroke-miterlimit:10;}
	.st38{fill:none;stroke:#A6E4F4;stroke-width:0.9748;stroke-miterlimit:10;}
	.st39{fill:none;stroke:#A6E4F4;stroke-width:0.9767;stroke-miterlimit:10;}
	.st40{fill:none;stroke:#A6E4F4;stroke-width:0.9787;stroke-miterlimit:10;}
	.st41{fill:none;stroke:#A6E4F4;stroke-width:0.9807;stroke-miterlimit:10;}
	.st42{fill:none;stroke:#A6E4F4;stroke-width:0.9826;stroke-miterlimit:10;}
	.st43{fill:none;stroke:#A6E4F4;stroke-width:0.9846;stroke-miterlimit:10;}
	.st44{fill:none;stroke:#A6E4F4;stroke-width:0.9865;stroke-miterlimit:10;}
	.st45{fill:none;stroke:#A6E4F4;stroke-width:0.9885;stroke-miterlimit:10;}
	.st46{fill:none;stroke:#A6E4F4;stroke-width:0.9904;stroke-miterlimit:10;}
	.st47{fill:none;stroke:#A6E4F4;stroke-width:0.9924;stroke-miterlimit:10;}
	.st48{fill:none;stroke:#A6E4F4;stroke-width:0.9944;stroke-miterlimit:10;}
	.st49{fill:none;stroke:#A6E4F4;stroke-width:0.9963;stroke-miterlimit:10;}
	.st50{fill:none;stroke:#14A3B8;stroke-width:0.8918;stroke-miterlimit:10;}
</style>
<g>
	<path class="st0" d="M61.8,407.9c0,0,267.5-156.1,501.5-100.5s372.6,212.4,651.8,194.4c279.2-18,560.5-276,560.5-276"/>
	<path class="st1" d="M61.8,405.3c0,0,267.9-160.3,501.8-103.5s372,217.6,651.3,198.9c279.3-18.7,561.4-283.5,561.4-283.5"/>
	<path class="st2" d="M61.8,402.6c0,0,268.4-164.6,502.1-106.4s371.4,222.8,650.8,203.4s562.2-291.1,562.2-291.1"/>
	<path class="st3" d="M61.8,399.9c0,0,268.9-168.8,502.5-109.4s370.9,228,650.3,207.9s563-298.6,563-298.6"/>
	<path class="st4" d="M61.8,397.3c0,0,269.3-173,502.8-112.4S934.9,518,1214.4,497.4c279.5-20.7,563.9-306.2,563.9-306.2"/>
	<path class="st5" d="M61.8,394.6c0,0,269.8-177.3,503.1-115.4s369.7,238.3,649.3,217c279.6-21.4,564.7-313.7,564.7-313.7"/>
	<path class="st6" d="M61.8,392c0,0,270.3-181.5,503.4-118.3S934.3,517.2,1214,495.1s565.5-321.3,565.5-321.3"/>
	<path class="st7" d="M61.8,389.3c0,0,270.7-185.7,503.7-121.3s368.5,248.7,648.3,226c279.7-22.7,566.3-328.8,566.3-328.8"/>
	<path class="st8" d="M61.8,386.7c0,0,271.2-190,504.1-124.3s368,253.9,647.8,230.5c279.8-23.4,567.2-336.4,567.2-336.4"/>
	<path class="st9" d="M61.8,384c0,0,271.7-194.2,504.4-127.3s367.4,259.1,647.2,235s568-343.9,568-343.9"/>
	<path class="st10" d="M61.8,381.3c0,0,272.1-198.4,504.7-130.2s366.8,264.3,646.7,239.5c279.9-24.8,568.8-351.5,568.8-351.5"/>
	<path class="st11" d="M61.8,378.7c0,0,272.6-202.6,505-133.2S933,514.9,1213,489.5c280-25.4,569.7-359,569.7-359"/>
	<path class="st12" d="M61.8,376c0,0,273.1-206.9,505.4-136.2s365.7,274.7,645.7,248.6s570.5-366.5,570.5-366.5"/>
	<path class="st13" d="M61.7,373.4c0,0,273.5-211.1,505.7-139.2s365.1,279.9,645.2,253.1S1784,113.2,1784,113.2"/>
	<path class="st14" d="M61.7,370.7c0,0,274-215.3,506-142.1s364.5,285.1,644.7,257.6c280.2-27.5,572.1-381.6,572.1-381.6"/>
	<path class="st15" d="M61.7,368c0,0,274.4-219.6,506.3-145.1S932,513.2,1212.3,485s573-389.2,573-389.2"/>
	<path class="st16" d="M61.7,365.4c0,0,274.9-223.8,506.7-148.1s363.4,295.4,643.7,266.6s573.8-396.7,573.8-396.7"/>
	<path class="st17" d="M61.7,362.7c0,0,275.4-228,507-151.1s362.8,300.6,643.2,271.1c280.4-29.5,574.6-404.3,574.6-404.3"/>
	<path class="st18" d="M61.7,360.1c0,0,275.8-232.3,507.3-154s362.2,305.8,642.7,275.6s575.5-411.8,575.5-411.8"/>
	<path class="st19" d="M61.7,357.4c0,0,276.3-236.5,507.6-157s361.6,311,642.2,280.2s576.3-419.4,576.3-419.4"/>
	<path class="st20" d="M61.7,354.7c0,0,276.8-240.7,508-160s361,316.2,641.7,284.7s577.1-426.9,577.1-426.9"/>
	<path class="st21" d="M61.7,352.1c0,0,277.2-244.9,508.3-163s360.5,321.4,641.2,289.2s577.9-434.5,577.9-434.5"/>
	<path class="st22" d="M61.7,349.4c0,0,277.7-249.2,508.6-165.9S930.2,510.1,1211,477.2s578.8-442,578.8-442"/>
	<path class="st23" d="M61.7,346.8c0,0,278.2-253.4,508.9-168.9s359.3,331.8,640.2,298.2s579.6-449.6,579.6-449.6"/>
	<path class="st24" d="M61.7,344.1c0,0,278.6-257.6,509.3-171.9s358.7,337,639.7,302.7S1791,17.8,1791,17.8"/>
	<path class="st25" d="M61.6,341.4c0,0,279.1-261.9,509.6-174.9s358.2,342.2,639.2,307.2S1791.7,9.2,1791.7,9.2"/>
	<path class="st26" d="M61.6,338.8c0,0,279.6-266.1,509.9-177.8s357.6,347.4,638.7,311.8S1792.3,0.5,1792.3,0.5"/>
</g>
<g>
	<path class="st27" d="M70.9,183.7c0,0,394.5-181.1,562.1-81.1s297.4,274,543.5,276.3c246.1,2.3,684.9-170.9,684.9-170.9"/>
	<path class="st27" d="M71.4,179.4c0,0,395.6-178.3,562.5-77.1s295.4,275.9,541.4,279.9c246,4,685.8-166,685.8-166"/>
	<path class="st27" d="M71.9,175c0,0,396.7-175.5,562.8-73.2S928,379.7,1174,385.4s686.7-161.2,686.7-161.2"/>
	<path class="st27" d="M72.4,170.7c0,0,397.8-172.7,563.2-69.3s291.3,279.9,537.1,287.2s687.6-156.4,687.6-156.4"/>
	<path class="st27" d="M72.8,166.3c0,0,398.9-169.9,563.5-65.4s289.3,281.8,535,290.9s688.5-151.6,688.5-151.6"/>
	<path class="st27" d="M73.3,162c0,0,400-167.1,563.9-61.4s287.3,283.8,532.9,294.5s689.5-146.8,689.5-146.8"/>
	<path class="st27" d="M73.8,157.6c0,0,401.1-164.3,564.2-57.5s285.3,285.7,530.8,298.2s690.4-142,690.4-142"/>
	<path class="st27" d="M74.3,153.3c0,0,402.2-161.5,564.5-53.6s283.3,287.7,528.6,301.9c245.4,14.2,691.3-137.2,691.3-137.2"/>
	<path class="st27" d="M74.8,148.9c0,0,403.3-158.7,564.9-49.7s281.3,289.6,526.5,305.5c245.3,15.9,692.2-132.4,692.2-132.4"/>
	<path class="st27" d="M75.2,144.6c0,0,404.4-155.9,565.2-45.7S919.7,390.4,1164.9,408S1858,280.4,1858,280.4"/>
	<path class="st27" d="M75.7,140.2c0,0,405.5-153.1,565.6-41.8s277.3,293.5,522.3,312.8c245,19.3,694.1-122.8,694.1-122.8"/>
	<path class="st27" d="M76.2,135.9c0,0,406.6-150.3,565.9-37.9s275.2,295.5,520.2,316.5s695-118,695-118"/>
	<path class="st27" d="M76.7,131.5c0,0,407.7-147.5,566.3-34S916.2,395,1161,417.7s695.9-113.2,695.9-113.2"/>
	<path class="st27" d="M77.2,127.2c0,0,408.8-144.7,566.6-30S915,396.5,1159.7,420.9s696.8-108.4,696.8-108.4"/>
	<path class="st27" d="M77.7,122.8c0,0,409.9-141.9,567-26.1S913.8,398,1158.4,424.1c244.6,26.1,697.7-103.5,697.7-103.5"/>
	<path class="st27" d="M78.1,118.5c0,0,411-139.1,567.3-22.2s267.2,303.3,511.7,331.1c244.5,27.8,698.6-98.7,698.6-98.7"/>
	<path class="st27" d="M78.6,114.1c0,0,412.1-136.3,567.7-18.3s265.2,305.2,509.6,334.8c244.4,29.5,699.6-93.9,699.6-93.9"/>
</g>
<g>
	<path class="st28" d="M526,194.3c0,0,358.2-217.6,804.3-13.1s453,264.5,453,264.5"/>
	<path class="st29" d="M523.7,198.2c0,0,358.1-215.8,803.9-10.5s452.7,265.6,452.7,265.6"/>
	<path class="st30" d="M521.5,202.2c0,0,358-214,803.6-7.9S1777.5,461,1777.5,461"/>
	<path class="st31" d="M519.3,206.2c0,0,357.8-212.1,803.2-5.2s452.2,267.7,452.2,267.7"/>
	<path class="st32" d="M517,210.1c0,0,357.7-210.3,802.8-2.6s451.9,268.8,451.9,268.8"/>
	<path class="st33" d="M514.8,214.1c0,0,357.6-208.5,802.4,0.1s451.6,269.9,451.6,269.9"/>
	<path class="st34" d="M512.5,218.1c0,0,357.4-206.6,802,2.7s451.4,271,451.4,271"/>
	<path class="st35" d="M510.3,222c0,0,357.3-204.8,801.6,5.4S1763,499.5,1763,499.5"/>
	<path class="st36" d="M508,226c0,0,357.2-203,801.2,8s450.8,273.2,450.8,273.2"/>
	<path class="st37" d="M505.8,230c0,0,357-201.2,800.8,10.7s450.5,274.3,450.5,274.3"/>
	<path class="st38" d="M503.5,233.9c0,0,356.9-199.3,800.5,13.3s450.3,275.4,450.3,275.4"/>
	<path class="st39" d="M501.3,237.9c0,0,356.8-197.5,800.1,16s450,276.5,450,276.5"/>
	<path class="st40" d="M499.1,241.9c0,0,356.6-195.7,799.7,18.6s449.7,277.6,449.7,277.6"/>
	<path class="st41" d="M496.8,245.9c0,0,356.5-193.8,799.3,21.2s449.4,278.7,449.4,278.7"/>
	<path class="st42" d="M494.6,249.8c0,0,356.3-192,798.9,23.9s449.2,279.8,449.2,279.8"/>
	<path class="st43" d="M492.3,253.8c0,0,356.2-190.2,798.5,26.5s448.9,280.9,448.9,280.9"/>
	<path class="st44" d="M490.1,257.8c0,0,356.1-188.4,798.1,29.2s448.6,282,448.6,282"/>
	<path class="st45" d="M487.8,261.7c0,0,355.9-186.5,797.8,31.8s448.4,283.1,448.4,283.1"/>
	<path class="st46" d="M485.6,265.7c0,0,355.8-184.7,797.4,34.5S1731,584.3,1731,584.3"/>
	<path class="st47" d="M483.3,269.7c0,0,355.7-182.9,797,37.1S1728.1,592,1728.1,592"/>
	<path class="st48" d="M481.1,273.6c0,0,355.5-181,796.6,39.8s447.5,286.3,447.5,286.3"/>
	<path class="st49" d="M478.9,277.6c0,0,355.4-179.2,796.2,42.4s447.3,287.4,447.3,287.4"/>
</g>
<g>
	<path class="st50" d="M0.2,358c0,0,314.9,189.7,562.2,152.3s221.8-318.7,678.5-376.7s659.7-27.5,659.7-27.5"/>
	<path class="st50" d="M2.9,361c0,0,314.8,189.8,562.2,152.5c247.3-37.3,221.9-318.6,678.6-376.5s659.7-27.2,659.7-27.2"/>
	<path class="st50" d="M5.6,364.1c0,0,314.7,189.9,562.1,152.7c247.4-37.2,222.1-318.6,678.8-376.2s659.7-26.9,659.7-26.9"/>
	<path class="st50" d="M8.3,367.1c0,0,314.7,190.1,562,152.9c247.4-37.1,222.2-318.5,678.9-375.9s659.7-26.7,659.7-26.7"/>
	<path class="st50" d="M11,370.2c0,0,314.6,190.2,562,153.2c247.4-37,222.3-318.4,679.1-375.6s659.7-26.4,659.7-26.4"/>
	<path class="st50" d="M13.7,373.3c0,0,314.5,190.3,561.9,153.4c247.4-36.9,222.4-318.3,679.2-375.4s659.7-26.1,659.7-26.1"/>
	<path class="st50" d="M16.4,376.3c0,0,314.4,190.4,561.8,153.6c247.4-36.8,222.6-318.2,679.4-375.1s659.7-25.9,659.7-25.9"/>
	<path class="st50" d="M19.1,379.4c0,0,314.4,190.6,561.8,153.8c247.4-36.7,222.7-318.1,679.5-374.8s659.8-25.6,659.8-25.6"/>
	<path class="st50" d="M21.8,382.4c0,0,314.3,190.7,561.7,154.1c247.4-36.6,222.8-318,679.7-374.5s659.8-25.3,659.8-25.3"/>
	<path class="st50" d="M24.5,385.5c0,0,314.2,190.8,561.7,154.3c247.5-36.5,222.9-317.9,679.8-374.3s659.8-25.1,659.8-25.1"/>
	<path class="st50" d="M27.2,388.5c0,0,314.1,190.9,561.6,154.5s223.1-317.8,680-374s659.8-24.8,659.8-24.8"/>
	<path class="st50" d="M29.9,391.6c0,0,314,191.1,561.5,154.7s223.2-317.8,680.1-373.7s659.8-24.5,659.8-24.5"/>
	<path class="st50" d="M32.6,394.7c0,0,314,191.2,561.5,155c247.5-36.2,223.3-317.7,680.3-373.4s659.8-24.3,659.8-24.3"/>
	<path class="st50" d="M35.3,397.7c0,0,313.9,191.3,561.4,155.2c247.5-36.1,223.5-317.6,680.4-373.2s659.8-24,659.8-24"/>
	<path class="st50" d="M38,400.8c0,0,313.8,191.5,561.4,155.4c247.5-36,223.6-317.5,680.6-372.9s659.8-23.8,659.8-23.8"/>
	<path class="st50" d="M40.7,403.8c0,0,313.7,191.6,561.3,155.7c247.5-35.9,223.7-317.4,680.7-372.6s659.8-23.5,659.8-23.5"/>
	<path class="st50" d="M43.4,406.9c0,0,313.7,191.7,561.2,155.9c247.6-35.8,223.8-317.3,680.9-372.4s659.8-23.2,659.8-23.2"/>
	<path class="st50" d="M46.1,409.9c0,0,313.6,191.8,561.2,156.1c247.6-35.7,224-317.2,681-372.1s659.9-23,659.9-23"/>
	<path class="st50" d="M48.8,413c0,0,313.5,192,561.1,156.3c247.6-35.6,224.1-317.1,681.2-371.8s659.9-22.7,659.9-22.7"/>
	<path class="st50" d="M51.5,416c0,0,313.4,192.1,561,156.6c247.6-35.5,224.2-317,681.3-371.5s659.9-22.4,659.9-22.4"/>
	<path class="st50" d="M54.2,419.1c0,0,313.4,192.2,561,156.8s224.4-316.9,681.5-371.3s659.9-22.2,659.9-22.2"/>
	<path class="st50" d="M56.9,422.2c0,0,313.3,192.3,560.9,157s224.5-316.9,681.6-371s659.9-21.9,659.9-21.9"/>
</g>
</svg>
