<?xml version="1.0" encoding="utf-8"?>
<!-- Generator: Adobe Illustrator 21.0.2, SVG Export Plug-In . SVG Version: 6.00 Build 0)  -->
<svg version="1.1" id="Layer_1" xmlns="http://www.w3.org/2000/svg" xmlns:xlink="http://www.w3.org/1999/xlink" x="0px" y="0px"
	 viewBox="0 0 52.5 52.7" style="enable-background:new 0 0 52.5 52.7;" xml:space="preserve">
<style type="text/css">
	.st0{fill:none;stroke:#14A3B8;stroke-width:2;stroke-miterlimit:10;}
	.st1{fill:#FFFFFF;}
	.st2{fill:#14A3B8;}
	.st3{fill:#FFFFFF;stroke:#14A3B8;stroke-width:2;stroke-miterlimit:10;}
</style>
<path class="st0" d="M41,11.2v28.9c0,1.1-0.9,2-2,2H12.1c-1.1,0-2-0.9-2-2V3c0-1.1,0.9-2,2-2h18.6L41,11.2z"/>
<polyline class="st0" points="41,11.4 30.4,11.4 30.4,1.5 "/>
<g>
	<path class="st1" d="M32.3,33.3c0,1.1-0.9,2-2,2H3c-1.1,0-2-0.9-2-2V22.1c0-1.1,0.9-2,2-2h27.3c1.1,0,2,0.9,2,2V33.3z"/>
	<path class="st0" d="M32.3,33.3c0,1.1-0.9,2-2,2H3c-1.1,0-2-0.9-2-2V22.1c0-1.1,0.9-2,2-2h27.3c1.1,0,2,0.9,2,2V33.3z"/>
</g>
<g>
	<path class="st2" d="M9.7,30.4V25h1.8c0.4,0,0.7,0,0.9,0.1c0.3,0.1,0.5,0.2,0.7,0.4c0.2,0.2,0.3,0.3,0.4,0.5
		c0.1,0.2,0.1,0.4,0.1,0.7c0,0.3,0,0.5-0.1,0.7s-0.2,0.4-0.4,0.6s-0.4,0.3-0.7,0.4s-0.6,0.1-0.9,0.1h-0.7v1.9
		C10.8,30.4,9.7,30.4,9.7,30.4z M10.8,27.7h0.8c0.2,0,0.3,0,0.5-0.1s0.3-0.1,0.3-0.2c0.1-0.1,0.2-0.2,0.2-0.3c0-0.1,0.1-0.3,0.1-0.4
		s0-0.3-0.1-0.4c0-0.1-0.1-0.2-0.2-0.3c-0.1-0.1-0.2-0.1-0.3-0.2c-0.1,0-0.3-0.1-0.5-0.1h-0.8V27.7z"/>
	<path class="st2" d="M14.4,30.4V25h2.1c0.4,0,0.8,0.1,1.1,0.2c0.3,0.1,0.6,0.3,0.9,0.6c0.2,0.2,0.4,0.5,0.6,0.9
		c0.1,0.3,0.2,0.7,0.2,1.1s-0.1,0.8-0.2,1.1c-0.1,0.3-0.3,0.6-0.6,0.9s-0.5,0.4-0.9,0.6s-0.7,0.2-1.1,0.2h-2.1V30.4z M15.4,29.6h1.1
		c0.3,0,0.5,0,0.7-0.1s0.4-0.2,0.5-0.4c0.1-0.2,0.3-0.4,0.3-0.6c0.1-0.2,0.1-0.5,0.1-0.8s0-0.6-0.1-0.8c-0.1-0.2-0.2-0.4-0.3-0.6
		c-0.1-0.2-0.3-0.3-0.5-0.4s-0.5-0.1-0.7-0.1h-1.1C15.4,25.8,15.4,29.6,15.4,29.6z"/>
	<path class="st2" d="M20.1,30.4V25h3.4v0.8h-2.4v1.6h2v0.8h-2v2.2H20.1z"/>
</g>
<path class="st3" d="M51.5,36.2c0-3.2-2.6-5.8-5.8-5.8c-1,0-1.9,0.2-2.7,0.7c-0.8-0.4-1.7-0.7-2.7-0.7c-3.2,0-5.8,2.6-5.8,5.8
	c0,0.9,0.2,1.7,0.5,2.4l1.7,3.8c-0.4,1.3,0.3,9.3,3,9.3c0.9,0,2.3-7.4,3.1-7.4l0,0c0.9,0,2.2,7.4,3.1,7.4c2.8,0,3.5-8,3-9.3l1.7-3.8
	C51.3,37.9,51.5,37,51.5,36.2z"/>
</svg>
