<?xml version="1.0" encoding="utf-8"?>
<!-- Generator: Adobe Illustrator 21.0.2, SVG Export Plug-In . SVG Version: 6.00 Build 0)  -->
<svg version="1.1" id="Layer_1" xmlns="http://www.w3.org/2000/svg" xmlns:xlink="http://www.w3.org/1999/xlink" x="0px" y="0px"
	 viewBox="0 0 44 44" style="enable-background:new 0 0 44 44;" xml:space="preserve">
<style type="text/css">
	.st0{fill:#61A8DE;}
	.st1{fill:#FFFFFF;}
</style>
<path class="st0" d="M44,38.5c0,3-2.5,5.5-5.5,5.5h-33c-3,0-5.5-2.5-5.5-5.5v-33C0,2.5,2.5,0,5.5,0h33c3,0,5.5,2.5,5.5,5.5V38.5z"/>
<g>
	<path class="st1" d="M35.6,8.9L7,20.1c-0.9,0.4-0.9,1.7,0.1,2l7.3,2.1l2.7,8.6c0.3,0.9,1.4,1.2,2.1,0.5l3.7-3.8l7.4,5.4
		c0.9,0.7,2.2,0.2,2.4-0.9l4.9-23.3C37.8,9.5,36.7,8.5,35.6,8.9z M32,14.1L18.8,25.8c-0.1,0.1-0.2,0.3-0.2,0.4L18,30.8
		c0,0.1-0.2,0.2-0.3,0l-2.1-6.8c-0.1-0.3,0-0.7,0.3-0.8l15.7-9.7C32,13.3,32.4,13.8,32,14.1z"/>
</g>
</svg>
