<?xml version="1.0" encoding="utf-8"?>
<!-- Generator: Adobe Illustrator 21.0.2, SVG Export Plug-In . SVG Version: 6.00 Build 0)  -->
<svg version="1.1" id="Layer_1" xmlns="http://www.w3.org/2000/svg" xmlns:xlink="http://www.w3.org/1999/xlink" x="0px" y="0px"
	 viewBox="0 0 54 63" style="enable-background:new 0 0 54 63;" xml:space="preserve">
<style type="text/css">
	.st0{fill:#14A3B8;}
</style>
<g>
	<path class="st0" d="M40.6,63c-2.8,0-5.7-2-5.7-5.4c0-4.4-1.5-17.1-7.9-17.1c-6.5,0-7.9,12.7-7.9,17.1c0,3.4-2.9,5.4-5.7,5.4
		c-2.3,0-4.2-1.3-5.1-3.3C6.7,56,5.9,52,5.9,48c0-3.3,0.1-7.1,0.8-10.6c0.2-0.8,0.2-1.6,0.2-2.4c0-4-1.5-6.2-3.2-8.4
		C2,24.1,0,21.4,0,16.4C0,7.3,7.6,0,17,0c3.6,0,7.1,1.1,10,3.1c2.9-2,6.4-3.1,10-3.1c9.4,0,17,7.3,17,16.4c0,5-2,7.8-3.7,10.2
		c-1.6,2.3-3.2,4.4-3.2,8.4c0,0.8,0.1,1.6,0.2,2.4c0.7,3.5,0.8,7.3,0.8,10.6c0,4.1-0.8,8-2.4,11.7C44.8,61.7,42.9,63,40.6,63z
		 M27,38c8.4,0,10.6,12.8,10.6,19.6c0,1.9,1.6,2.9,3.1,2.9c0.6,0,2-0.2,2.6-1.7c1.5-3.4,2.2-7.1,2.2-10.8c0-3.2-0.1-6.8-0.7-10.1
		c-0.2-0.9-0.3-1.9-0.3-2.9c0-4.8,1.9-7.4,3.6-9.9c1.7-2.3,3.3-4.5,3.3-8.7c0-7.6-6.5-13.8-14.4-13.8c-3.3,0-6.6,1.1-9.1,3.1L27,6.3
		l-0.8-0.7c-2.6-2-5.8-3.1-9.1-3.1C9.1,2.5,2.6,8.7,2.6,16.4c0,4.2,1.6,6.4,3.3,8.7c1.8,2.5,3.6,5.1,3.6,9.9c0,1-0.1,1.9-0.3,2.9
		c-0.6,3.3-0.7,7-0.7,10.1c0,3.7,0.7,7.4,2.2,10.8c0.7,1.6,2.1,1.7,2.6,1.7c1.5,0,3.1-1,3.1-2.9C16.4,50.8,18.6,38,27,38z"/>
</g>
<g>
	<path class="st0" d="M25.6,7.9l-2.1-1.5c3.8-4.7,9.7-7,15.8-6.2l-0.3,2.5C33.7,2,28.7,4,25.6,7.9z"/>
</g>
<g>
	<polygon class="st0" points="37,32.3 17.8,32.3 17.8,13.9 28.7,13.9 28.7,16.4 20.5,16.4 20.5,29.7 34.4,29.7 34.4,22.3 37,22.3 	
		"/>
</g>
<g>
	<polygon class="st0" points="27.4,26.2 21.9,19.4 23.9,17.9 27.5,22.2 37.2,11.9 39.2,13.6 	"/>
</g>
</svg>
