<?xml version="1.0" encoding="utf-8"?>
<!-- Generator: Adobe Illustrator 21.0.2, SVG Export Plug-In . SVG Version: 6.00 Build 0)  -->
<svg version="1.1" id="Layer_1" xmlns="http://www.w3.org/2000/svg" xmlns:xlink="http://www.w3.org/1999/xlink" x="0px" y="0px"
	 viewBox="0 0 63 43" style="enable-background:new 0 0 63 43;" xml:space="preserve">
<style type="text/css">
	.st0{fill:#14A3B8;}
</style>
<g>
	<path class="st0" d="M17.5,43L17.5,43c-2.5,0-4.9-1.9-7.6-5.8c-1.5-2.3-7.7-13.5-7.7-22.4C2.2,6.6,7.2,0,13.5,0
		c0.4,0,0.8,0,1.2,0.1c1.8,0.3,3.7,0.3,5.6,0C20.7,0,21.1,0,21.5,0c6.2,0,11.3,6.6,11.3,14.8c0,8.9-6.2,20.1-7.7,22.4
		C22.4,41.1,20,43,17.5,43z M13.5,2.7c-4.8,0-8.7,5.4-8.7,12.1c0,7.6,5.3,18,7.3,20.9c2.1,3.2,3.9,4.7,5.4,4.7
		c1.5,0,3.3-1.5,5.4-4.7c1.9-2.9,7.3-13.2,7.3-20.9c0-6.7-3.9-12.1-8.7-12.1c-0.3,0-0.6,0-0.9,0.1c-2.1,0.3-4.2,0.3-6.3,0
		C14.1,2.7,13.8,2.7,13.5,2.7z"/>
</g>
<g>
	<path class="st0" d="M45.5,43L45.5,43c-2.5,0-4.9-1.9-7.6-5.8c-1.5-2.3-7.7-13.5-7.7-22.4C30.2,6.6,35.2,0,41.5,0
		c0.4,0,0.8,0,1.2,0.1c1.8,0.3,3.7,0.3,5.6,0C48.7,0,49.1,0,49.5,0c6.2,0,11.3,6.6,11.3,14.8c0,8.9-6.2,20.1-7.7,22.4
		C50.4,41.1,48,43,45.5,43z M41.5,2.7c-4.8,0-8.7,5.4-8.7,12.1c0,7.6,5.3,18,7.3,20.9c2.1,3.2,3.9,4.7,5.4,4.7
		c1.5,0,3.3-1.5,5.4-4.7c1.9-2.9,7.3-13.2,7.3-20.9c0-6.7-3.9-12.1-8.7-12.1c-0.3,0-0.6,0-0.9,0.1c-2.1,0.3-4.2,0.3-6.3,0
		C42.1,2.7,41.8,2.7,41.5,2.7z"/>
</g>
<g>
	<rect y="14.6" class="st0" width="12.3" height="2.7"/>
</g>
<g>
	<rect x="22.7" y="14.6" class="st0" width="8.8" height="2.7"/>
</g>
<g>
	<rect x="50.7" y="14.6" class="st0" width="12.3" height="2.7"/>
</g>
<g>
	<path class="st0" d="M17.5,22.5c-3.6,0-6.5-2.9-6.5-6.5c0-3.6,2.9-6.5,6.5-6.5c3.6,0,6.5,2.9,6.5,6.5C24,19.6,21.1,22.5,17.5,22.5z
		 M17.5,12.1c-2.1,0-3.8,1.7-3.8,3.9c0,2.1,1.7,3.9,3.8,3.9c2.1,0,3.8-1.7,3.8-3.9C21.3,13.8,19.6,12.1,17.5,12.1z"/>
</g>
<g>
	<rect x="31.5" y="14.6" class="st0" width="8.8" height="2.7"/>
</g>
<g>
	<path class="st0" d="M45.5,22.5c-3.6,0-6.5-2.9-6.5-6.5c0-3.6,2.9-6.5,6.5-6.5c3.6,0,6.5,2.9,6.5,6.5C52,19.6,49.1,22.5,45.5,22.5z
		 M45.5,12.1c-2.1,0-3.8,1.7-3.8,3.9c0,2.1,1.7,3.9,3.8,3.9c2.1,0,3.8-1.7,3.8-3.9C49.3,13.8,47.6,12.1,45.5,12.1z"/>
</g>
</svg>
