<?xml version="1.0" encoding="utf-8"?>
<!-- Generator: Adobe Illustrator 21.0.2, SVG Export Plug-In . SVG Version: 6.00 Build 0)  -->
<svg version="1.1" id="Layer_1" xmlns="http://www.w3.org/2000/svg" xmlns:xlink="http://www.w3.org/1999/xlink" x="0px" y="0px"
	 viewBox="0 0 54 63" style="enable-background:new 0 0 54 63;" xml:space="preserve">
<style type="text/css">
	.st0{fill:#14A3B8;}
</style>
<g>
	<g>
		<path class="st0" d="M40,12.8c-5.9,0-8.8,3.6-10.7,6c-0.9,1.1-1.7,2.2-2.3,2.2c-0.6,0-1.5-1.1-2.3-2.2c-0.8-0.9-1.6-2-2.7-3
			c-0.5-0.5-1.4-0.4-1.9,0c-0.5,0.5-0.5,1.3,0,1.7c1,0.8,1.7,1.8,2.4,2.7c1.3,1.6,2.5,3.2,4.4,3.2s3.1-1.5,4.4-3.2
			c1.9-2.3,4-5,8.6-5c6.2,0,11.3,4.7,11.3,10.5c0,2.6,0,5.1-5.3,11.4c-2.7,3.1-3.8,8.4-4.9,13.4c-1,4.7-2.2,10-4.3,10
			c-2.1,0-3.4-4.4-4.5-8c-0.6-1.9-1.1-3.6-1.8-5c-0.3-0.7-1.4-2.9-3.5-2.9s-3.2,2.1-3.5,2.9c-0.7,1.4-1.2,3.1-1.8,5
			c-1.1,3.5-2.4,8-4.5,8c-2.1,0-3.2-5.3-4.3-10c-1.1-5.1-2.3-10.3-4.9-13.4c-5.3-6.3-5.3-8.8-5.3-11.4c0-5.8,5.1-10.5,11.3-10.5
			c0.7,0,1.3-0.6,1.3-1.2s-0.6-1.2-1.3-1.2c-7.7,0-14,5.8-14,13c0,3.5,0.4,6.5,5.9,12.9c2.3,2.7,3.4,7.8,4.4,12.4
			c0.6,2.9,1.3,5.7,2.1,7.9c0.4,1,1.7,4.1,4.7,4.1c4.1,0,5.7-5.2,7.1-9.8c0.5-1.8,1-3.5,1.6-4.7c0.5-1.1,1-1.4,1.1-1.4
			c0.2,0,0.6,0.3,1.1,1.4c0.6,1.2,1.1,2.9,1.6,4.7c1.4,4.6,2.9,9.8,7.1,9.8c3,0,4.3-3.1,4.7-4.1c0.9-2.1,1.5-4.9,2.1-7.9
			c1-4.6,2.1-9.7,4.4-12.4c5.5-6.4,5.9-9.4,5.9-12.9C54,18.6,47.7,12.8,40,12.8z"/>
	</g>
</g>
<g>
	<g>
		<path class="st0" d="M27.4,2.4c-0.1-0.3-0.4-0.5-0.7-0.6l-5-1.7C21-0.2,20.2,0.2,20,0.8L16.8,9c-0.1,0.3-0.1,0.6,0,0.9
			c0.1,0.3,0.4,0.5,0.7,0.6l1.1,0.4c-5.6,10.5-5.3,30.2-2.6,44.6c0.1,0.6,0.7,1,1.3,1c0.1,0,0.2,0,0.2,0c0.7-0.1,1.2-0.8,1.1-1.4
			c-1.5-8.2-2.1-17-1.7-24.9c0.4-7.9,1.9-14.3,4.2-18.5l1.4,0.5c0.1,0.1,0.3,0.1,0.5,0.1c0.5,0,1-0.3,1.2-0.8l3.2-8.2
			C27.6,3,27.6,2.7,27.4,2.4z M22.2,9.5l-2.5-0.8L22,2.8l2.5,0.8L22.2,9.5z"/>
	</g>
</g>
<g>
	<g>
		<path class="st0" d="M36.3,19.7c-0.7,0-1.3,0.6-1.3,1.2s0.6,1.2,1.3,1.2c4.2,0,7.6,3.2,7.6,7.1c0,1.4,0,2.6-1.5,5
			c-0.4,0.6-0.2,1.3,0.4,1.7c0.2,0.1,0.5,0.2,0.7,0.2c0.4,0,0.9-0.2,1.1-0.6c1.8-2.7,1.9-4.4,1.9-6.3C46.5,24,41.9,19.7,36.3,19.7z"
			/>
	</g>
</g>
<g>
	<g>
		<path class="st0" d="M42,36.9c-0.6-0.4-1.4-0.3-1.9,0.2l0,0c-0.4,0.5-0.3,1.3,0.2,1.7c0.2,0.2,0.5,0.3,0.8,0.3
			c0.4,0,0.8-0.2,1-0.5C42.7,38.1,42.6,37.3,42,36.9z"/>
	</g>
</g>
</svg>
