<?xml version="1.0" encoding="utf-8"?>
<!-- Generator: Adobe Illustrator 19.2.1, SVG Export Plug-In . SVG Version: 6.00 Build 0)  -->
<svg version="1.1" id="Layer_1" xmlns="http://www.w3.org/2000/svg" xmlns:xlink="http://www.w3.org/1999/xlink" x="0px" y="0px"
	 viewBox="0 0 54 63" style="enable-background:new 0 0 54 63;" xml:space="preserve">
<style type="text/css">
	.st0{fill:none;stroke:#14A3B8;stroke-width:2;stroke-linecap:round;stroke-linejoin:round;stroke-miterlimit:10;}
	.st1{fill:none;stroke:#14A3B8;stroke-width:2.5;stroke-linecap:round;stroke-linejoin:round;stroke-miterlimit:10;}
	.st2{fill:#14A3B8;stroke:#14A3B8;stroke-width:2;stroke-linecap:round;stroke-linejoin:round;stroke-miterlimit:10;}
</style>
<g>
	<g>
		<path class="st0" d="M20.2,18.1c1,0.8,1.7,1.8,2.4,2.7c1.3,1.6,2.5,3.2,4.4,3.2s3.1-1.5,4.4-3.2c1.9-2.3,4-5,8.6-5
			c6.2,0,11.3,4.7,11.3,10.5c0,2.6,0,5.1-5.3,11.4c-2.7,3.1-3.8,8.4-4.9,13.4c-1,4.7-2.2,10-4.3,10s-3.4-4.4-4.5-8
			c-0.6-1.9-1.1-3.6-1.8-5c-0.3-0.7-1.4-2.9-3.5-2.9s-3.2,2.1-3.5,2.9c-0.7,1.4-1.2,3.1-1.8,5c-1.1,3.5-2.4,8-4.5,8s-3.2-5.3-4.3-10
			C11.8,46,10.6,40.8,8,37.7c-5.3-6.3-5.3-8.8-5.3-11.4c0-5.8,5.1-10.5,11.3-10.5"/>
	</g>
</g>
<path class="st1" d="M36.6,20.5c0.7,0.1,4.8,0.4,7.3,3.2c2.4,2.8,2.4,6.7-0.3,9.9"/>
<g>
	<path class="st0" d="M19,51.3C17.1,45.7,14.1,35,15.7,22c0.5-4.3,1.4-8,2.4-11.1"/>
</g>
<polygon class="st0" points="15.2,10.2 20.4,11.6 22.1,4.8 17.1,3.8 "/>
<line class="st2" x1="39.9" y1="39.7" x2="39.9" y2="39.7"/>
</svg>
