<?xml version="1.0" encoding="utf-8"?>
<!-- Generator: Adobe Illustrator 19.2.1, SVG Export Plug-In . SVG Version: 6.00 Build 0)  -->
<svg version="1.1" id="Layer_1" xmlns="http://www.w3.org/2000/svg" xmlns:xlink="http://www.w3.org/1999/xlink" x="0px" y="0px"
	 viewBox="0 0 43 60" style="enable-background:new 0 0 43 60;" xml:space="preserve">
<style type="text/css">
	.st0{fill:none;stroke:#0EA3B8;stroke-width:3;stroke-miterlimit:10;}
	.st1{fill:none;stroke:#06A3B8;stroke-width:3;stroke-miterlimit:10;}
</style>
<g>
	<path class="st0" d="M20.9,57.6h15.8V29.9c0-4.4-3.6-7.9-7.9-7.9c-4.4,0-7.9,3.6-7.9,7.9C20.9,29.9,20.9,57.6,20.9,57.6z"/>
</g>
<g>
	<path class="st0" d="M28.8,2.4c-3.6,0-6.3,2.7-6.3,5.9c0,3.3,2.8,5.9,6.3,5.9s6.4-2.7,6.4-5.9C35.2,5,32.4,2.4,28.8,2.4z"/>
</g>
<g>
	<g>
		<path class="st0" d="M28.8,33.6c-1.4,0-2.5,1.1-2.5,2.5s1.1,2.5,2.5,2.5c1.4,0,2.5-1.1,2.5-2.5S30.2,33.6,28.8,33.6z"/>
	</g>
	<g>
		<path class="st0" d="M26.3,36.2v8.1c0,1.4,1.1,2.5,2.5,2.5c1.4,0,2.5-1.1,2.5-2.5v-8.1"/>
	</g>
</g>
<g>
	<line class="st0" x1="31.3" y1="22" x2="31.3" y2="14.2"/>
</g>
<g>
	<line class="st1" x1="26.3" y1="14.2" x2="26.3" y2="22"/>
</g>
<g>
	<line class="st1" x1="43" y1="8.3" x2="35.9" y2="8.3"/>
</g>
<g>
	<path class="st1" d="M6.9,57.6H13V22H6.9V57.6z"/>
</g>
<g>
	<polyline class="st0" points="9.6,1.7 3.1,7.7 9.9,14.6 9.9,20.5 	"/>
</g>
</svg>
