<?xml version="1.0" encoding="utf-8"?>
<!-- Generator: Adobe Illustrator 19.2.1, SVG Export Plug-In . SVG Version: 6.00 Build 0)  -->
<svg version="1.1" id="Layer_1" xmlns="http://www.w3.org/2000/svg" xmlns:xlink="http://www.w3.org/1999/xlink" x="0px" y="0px"
	 viewBox="0 0 63 43" style="enable-background:new 0 0 63 43;" xml:space="preserve">
<style type="text/css">
	.st0{fill:none;stroke:#0EA3B8;stroke-width:3;stroke-miterlimit:10;}
	.st1{fill:none;stroke:#06A3B8;stroke-width:3;stroke-miterlimit:10;}
</style>
<g>
	<path class="st0" d="M32.8,14.8 M13.5,2.7c-4.8,0-8.7,5.4-8.7,12.1c0,7.6,5.3,18,7.3,20.9c2.1,3.2,3.9,4.7,5.4,4.7s3.3-1.5,5.4-4.7
		c1.9-2.9,7.3-13.2,7.3-20.9c0-6.7-3.9-12.1-8.7-12.1c-0.3,0-0.6,0-0.9,0.1c-2.1,0.3-4.2,0.3-6.3,0C14.1,2.7,13.8,2.7,13.5,2.7z"/>
</g>
<g>
	<path class="st0" d="M30.2,14.8 M41.5,2.7c-4.8,0-8.7,5.4-8.7,12.1c0,7.6,5.3,18,7.3,20.9c2.1,3.2,3.9,4.7,5.4,4.7s3.3-1.5,5.4-4.7
		c1.9-2.9,7.3-13.2,7.3-20.9c0-6.7-3.9-12.1-8.7-12.1c-0.3,0-0.6,0-0.9,0.1c-2.1,0.3-4.2,0.3-6.3,0C42.1,2.7,41.8,2.7,41.5,2.7z"/>
</g>
<g>
	<line class="st0" x1="12.9" y1="16" x2="0" y2="16"/>
</g>
<g>
	<line class="st0" x1="31.5" y1="16" x2="22" y2="16"/>
</g>
<g>
	<line class="st0" x1="63" y1="16" x2="49.9" y2="16"/>
</g>
<g>
	<path class="st1" d="M17.5,12.1c-2.1,0-3.8,1.7-3.8,3.9c0,2.1,1.7,3.9,3.8,3.9s3.8-1.7,3.8-3.9S19.6,12.1,17.5,12.1z"/>
</g>
<g>
	<line class="st0" x1="41" y1="16" x2="31.5" y2="16"/>
</g>
<g>
	<path class="st0" d="M45.5,12.1c-2.1,0-3.8,1.7-3.8,3.9c0,2.1,1.7,3.9,3.8,3.9s3.8-1.7,3.8-3.9S47.6,12.1,45.5,12.1z"/>
</g>
</svg>
