<svg xmlns="http://www.w3.org/2000/svg" viewBox="0 0 300 320"><style type="text/css">  

	.st27{fill:none;stroke:#50CDF9;stroke-width:2.2158;stroke-miterlimit:10;}
	.st28{fill:none;stroke:#A6E4F4;stroke-width:1.4214;stroke-miterlimit:10;}
	.st29{fill:none;stroke:#A6E4F4;stroke-width:1.4243;stroke-miterlimit:10;}
	.st30{fill:none;stroke:#A6E4F4;stroke-width:1.4272;stroke-miterlimit:10;}
	.st31{fill:none;stroke:#A6E4F4;stroke-width:1.4301;stroke-miterlimit:10;}
	.st32{fill:none;stroke:#A6E4F4;stroke-width:1.433;stroke-miterlimit:10;}
	.st33{fill:none;stroke:#A6E4F4;stroke-width:1.4359;stroke-miterlimit:10;}
	.st34{fill:none;stroke:#A6E4F4;stroke-width:1.4389;stroke-miterlimit:10;}
	.st35{
	fill:none;
	}
	.st51{fill:none;}
</style>
<path class="st27" d="M105.5 590.7c0 0 587-269.5 836.5-120.6s442.5 407.7 808.8 411.1 1019.1-254.2 1019.1-254.2"/><path class="st27" d="M106.2 584.2c0 0 588.6-265.4 837-114.8s439.5 410.6 805.6 416.5c366.1 5.9 1020.5-247.1 1020.5-247.1"/><path class="st27" d="M107 577.7c0 0 590.2-261.2 837.5-108.9s436.5 413.5 802.4 422c365.9 8.4 1021.8-239.9 1021.8-239.9"/><path class="st27" d="M107.7 571.3c0 0 591.9-257 838-103.1s433.5 416.4 799.3 427.4c365.8 11 1023.2-232.8 1023.2-232.8"/><path class="st27" d="M108.4 564.8c0 0 593.5-252.9 838.5-97.3s430.5 419.3 796.1 432.9 1024.6-225.6 1024.6-225.6"/><path class="st27" d="M109.1 558.3c0 0 595.2-248.7 839-91.4s427.5 422.2 793 438.3c365.4 16.1 1025.9-218.5 1025.9-218.5"/><path class="st27" d="M109.8 551.8c0 0 596.8-244.5 839.6-85.6s424.5 425.2 789.8 443.7 1027.3-211.3 1027.3-211.3"/><path class="st27" d="M110.5 545.4c0 0 598.4-240.4 840.1-79.7s421.5 428.1 786.7 449.2 1028.7-204.2 1028.7-204.2"/><path class="st27" d="M111.3 538.9c0 0 600.1-236.2 840.6-73.9s418.5 431 783.5 454.6 1030-197 1030-197"/><path class="st27" d="M112 532.4c0 0 601.7-232 841.1-68.1s415.6 433.9 780.3 460.1c364.8 26.2 1031.4-189.9 1031.4-189.9"/><path class="st27" d="M112.7 525.9c0 0 603.4-227.9 841.6-62.2s412.6 436.8 777.2 465.5c364.6 28.7 1032.8-182.7 1032.8-182.7"/><path class="st27" d="M113.4 519.5c0 0 605-223.7 842.1-56.4s409.6 439.7 774 470.9c364.5 31.3 1034.1-175.5 1034.1-175.5"/><path class="st27" d="M114.1 513c0 0 606.6-219.5 842.6-50.6s406.6 442.6 770.9 476.4c364.3 33.8 1035.5-168.4 1035.5-168.4"/><path class="st27" d="M114.8 506.5c0 0 608.3-215.4 843.1-44.7s403.6 445.5 767.7 481.8c364.1 36.3 1036.9-161.2 1036.9-161.2"/><path class="st27" d="M115.5 500c0 0 609.9-211.2 843.7-38.9s400.6 448.4 764.6 487.3S2762 794.4 2762 794.4"/><path class="st27" d="M116.3 493.6c0 0 611.6-207 844.2-33s397.6 451.3 761.4 492.7 1039.6-146.9 1039.6-146.9"/><path class="st27" d="M117 487.1c0 0 613.2-202.8 844.7-27.2s394.6 454.2 758.2 498.2 1041-139.8 1041-139.8"/><path class="st28" d="M782.7 606.4c0 0 533.1-323.8 1196.9-19.6s674.1 393.5 674.1 393.5"/><path class="st29" d="M779.3 612.3c0 0 532.9-321.1 1196.3-15.6s673.7 395.2 673.7 395.2"/><path class="st30" d="M776 618.2c0 0 532.7-318.4 1195.7-11.7s673.3 396.8 673.3 396.8"/><path class="st31" d="M772.7 624.1c0 0 532.5-315.7 1195.1-7.7s672.9 398.4 672.9 398.4"/><path class="st32" d="M769.3 630c0 0 532.3-312.9 1194.6-3.8s672.5 400 672.5 400"/><path class="st33" d="M766 635.9c0 0 532.1-310.2 1194 0.1s672 401.7 672 401.7"/><path class="st34" d="M762.6 641.8c0 0 531.9-307.5 1193.4 4.1s671.6 403.3 671.6 403.3"/><path class="st35" d="M759.3 647.7c0 0 531.7-304.8 1192.8 8s671.2 404.9 671.2 404.9"/><rect x="2589.6" class="st51" width="101" height="320"/></svg>