<?xml version="1.0" encoding="utf-8"?>
<!-- Generator: Adobe Illustrator 19.2.1, SVG Export Plug-In . SVG Version: 6.00 Build 0)  -->
<svg version="1.1" id="Layer_1" xmlns="http://www.w3.org/2000/svg" xmlns:xlink="http://www.w3.org/1999/xlink" x="0px" y="0px"
	 viewBox="0 0 51 63" style="enable-background:new 0 0 51 63;" xml:space="preserve">
<style type="text/css">
	.st0{fill:none;stroke:#0EA3B8;stroke-width:3;stroke-linecap:round;stroke-miterlimit:10;}
	.st1{fill:none;stroke:#0EA3B8;stroke-width:3;stroke-miterlimit:10;}
</style>
<g>
	<path class="st0" d="M18.4,33.2v20c0,4,3.2,7.2,7.1,7.2s7.1-3.2,7.1-7.2V33.4"/>
</g>
<g>
	<path class="st0" d="M32.8,34.3 M51,16.3 M16.1,2.5C8.6,2.5,2.5,8.7,2.5,16.3c0,4.2,1.5,6.4,3.1,8.7c1.2,1.8,2.5,3.7,3.1,6.5
		c0.2,0.9,0.9,1.5,1.8,1.5l7.3-1.2c5.1-0.9,10.3-0.9,15.4,0l7.3,1.2c0.9,0,1.7-0.7,1.8-1.5c0.6-2.8,1.9-4.7,3.1-6.5
		c1.6-2.3,3.1-4.5,3.1-8.7c0-7.6-6.1-13.8-13.6-13.8c-3.1,0-6.2,1.1-8.6,3.1l-0.8,0.7l-0.8-0.7C22.3,3.6,19.2,2.5,16.1,2.5z"/>
</g>
<g>
	<line class="st1" x1="32.8" y1="47" x2="17.6" y2="54.4"/>
</g>
<g>
	<line class="st1" x1="32.6" y1="41.5" x2="17.6" y2="48.1"/>
</g>
<g>
	<line class="st1" x1="32.6" y1="35.2" x2="17.6" y2="41.8"/>
</g>
</svg>
