<?xml version="1.0" encoding="utf-8"?>
<!-- Generator: Adobe Illustrator 19.2.1, SVG Export Plug-In . SVG Version: 6.00 Build 0)  -->
<svg version="1.1" id="Layer_1" xmlns="http://www.w3.org/2000/svg" xmlns:xlink="http://www.w3.org/1999/xlink" x="0px" y="0px"
	 viewBox="0 0 50 63" style="enable-background:new 0 0 50 63;" xml:space="preserve">
<style type="text/css">
	.st0{fill:none;stroke:#06A3B8;stroke-width:3;stroke-miterlimit:10;}
	.st1{fill:none;stroke:#0EA3B8;stroke-width:3;stroke-miterlimit:10;}
</style>
<g>
	<g>
		<path class="st0" d="M15.7,30.6c-5.4,3.5-9.9,10-12.6,18.2c-0.9,2.7-0.4,5.6,1.3,7.9c1.7,2.3,4.4,3.7,7.3,3.7h26.9
			c2.9,0,5.6-1.3,7.3-3.7c1.7-2.3,2.2-5.2,1.3-7.9c-2.8-8.4-7.3-14.9-12.9-18.4"/>
	</g>
	<g>
		<line class="st0" x1="41.8" y1="47.9" x2="35.8" y2="47.9"/>
	</g>
	<g>
		<line class="st0" x1="38.8" y1="45" x2="38.8" y2="50.9"/>
	</g>
</g>
<g>
	<g>
		<g>
			<path class="st1" d="M24.8,2.5c-11.5,0-13,7.5-13,14.9s6.1,16.8,13,16.8s13-9.4,13-16.8C37.8,7.1,33.8,2.5,24.8,2.5z"/>
		</g>
	</g>
	<g>
		<path class="st1" d="M38,13.6l-4.6-3.5c-1-0.8-2.3-1-3.5-0.7l-3.3,0.9c-1.1,0.3-2.3,0.3-3.5,0L20,9.5c-1.3-0.3-2.7,0-3.7,0.8
			l-4.8,4"/>
	</g>
</g>
<g>
	<path class="st0" d="M19.5,39.1"/>
	<polyline class="st0" points="19.7,32.6 22.3,39.3 17.6,48 19.9,61.2 	"/>
</g>
<g>
	<polyline class="st0" points="29.6,61.2 31.9,48 27.2,39.4 29.8,32.8 	"/>
</g>
</svg>
