<?xml version="1.0" encoding="utf-8"?>
<!-- Generator: Adobe Illustrator 19.2.1, SVG Export Plug-In . SVG Version: 6.00 Build 0)  -->
<svg version="1.1" id="Layer_1" xmlns="http://www.w3.org/2000/svg" xmlns:xlink="http://www.w3.org/1999/xlink" x="0px" y="0px"
	 viewBox="0 0 54 63" style="enable-background:new 0 0 54 63;" xml:space="preserve">
<style type="text/css">
	.st0{fill:none;stroke:#06A3B8;stroke-width:3;stroke-miterlimit:10;}
</style>
<g>
	<path class="st0" d="M27,38c8.4,0,10.6,12.8,10.6,19.6c0,1.9,1.6,2.9,3.1,2.9c0.6,0,2-0.2,2.6-1.7c1.5-3.4,2.2-7.1,2.2-10.8
		c0-3.2-0.1-6.8-0.7-10.1C44.6,37,44.5,36,44.5,35c0-4.8,1.9-7.4,3.6-9.9c1.7-2.3,3.3-4.5,3.3-8.7c0-7.6-6.5-13.8-14.4-13.8
		c-3.3,0-6.6,1.1-9.1,3.1L27,6.3l-0.8-0.7c-2.6-2-5.8-3.1-9.1-3.1c-8,0-14.5,6.2-14.5,13.9c0,4.2,1.6,6.4,3.3,8.7
		c1.8,2.5,3.6,5.1,3.6,9.9c0,1-0.1,1.9-0.3,2.9c-0.6,3.3-0.7,7-0.7,10.1c0,3.7,0.7,7.4,2.2,10.8c0.7,1.6,2.1,1.7,2.6,1.7
		c1.5,0,3.1-1,3.1-2.9C16.4,50.8,18.6,38,27,38z"/>
</g>
<g>
	<path class="st0" d="M38,2.7c-5.3-0.9-10.2,1.6-13.3,6.5"/>
</g>
<g>
	<polyline class="st0" points="28.7,16.4 20.5,16.4 20.5,29.7 34.4,29.7 34.4,22.3 	"/>
</g>
<g>
	<polyline class="st0" points="23.8,19.5 27.4,23.8 37.1,13.5 	"/>
</g>
</svg>
