<?xml version="1.0" encoding="utf-8"?>
<!-- Generator: Adobe Illustrator 22.0.1, SVG Export Plug-In . SVG Version: 6.00 Build 0)  -->
<svg version="1.1" id="Слой_1" xmlns="http://www.w3.org/2000/svg" xmlns:xlink="http://www.w3.org/1999/xlink" x="0px" y="0px"
	 viewBox="0 0 1080 281.6" style="enable-background:new 0 0 1080 281.6;" xml:space="preserve">
<style type="text/css">
	.st0{fill:url(#SVGID_1_);}
	.st1{fill:#FFFFFF;}
</style>
<g>
	<g>
		<path d="M1045.8,183.9c0,36.9-30,60.9-67.2,60.9h-87.4v-208h81.4c36.3,0,65.7,23.5,65.7,59.4c0,17.2-6.8,30.9-18.1,40.7
			C1035.7,146.7,1045.8,162.8,1045.8,183.9z M938.8,81.3v36.9h33.9c10.7,0,18.1-7.7,18.1-18.4c0-10.7-7.1-18.4-18.1-18.4H938.8z
			 M998.2,180.3c0-11.6-7.7-19.9-19.6-19.9h-39.8v39.8h39.8C990.5,200.2,998.2,191.9,998.2,180.3z"/>
		<polygon points="588.1,199 588.1,36.8 540.6,36.8 540.6,36.8 535,36.8 535,244.8 540.6,244.8 662.4,244.8 662.4,199 		"/>
		<linearGradient id="SVGID_1_" gradientUnits="userSpaceOnUse" x1="672.8245" y1="140.756" x2="880.8284" y2="140.756">
			<stop  offset="0" style="stop-color:#1CD8D2"/>
			<stop  offset="1" style="stop-color:#93EDC7"/>
		</linearGradient>
		<path class="st0" d="M777,36.8l-104.1,208h208L777,36.8z M735,206.4l41.9-84.1l41.9,84.1H735z"/>
	</g>
	<g>
		<rect x="87.7" y="148.1" width="47.6" height="66.6"/>
		<rect x="34.2" y="36.8" width="154.5" height="15.6"/>
		<rect x="87.7" y="229.2" width="47.6" height="15.6"/>
		<polygon points="135.3,82.5 188.8,82.5 188.8,66.9 34.2,66.9 34.2,82.5 87.7,82.5 87.7,133.5 135.3,133.5 		"/>
		<rect x="322.5" y="36.8" width="47.6" height="15.6"/>
		<polygon points="209.6,148.1 209.6,214.6 257.1,214.6 257.1,162.2 322.5,162.2 322.5,214.6 370.1,214.6 370.1,148.1 		"/>
		<rect x="209.6" y="36.8" width="47.6" height="15.6"/>
		<rect x="322.5" y="229.2" width="47.6" height="15.6"/>
		<rect x="209.6" y="229.2" width="47.6" height="15.6"/>
		<polygon points="370.1,133.5 370.1,66.9 322.5,66.9 322.5,116.4 257.1,116.4 257.1,66.9 209.6,66.9 209.6,133.5 		"/>
		<rect x="405.7" y="229.2" width="129.3" height="15.6"/>
		<path d="M405.7,133.5H535c0-5.7,0-11.4,0-17.1c-27.2,0-54.5,0-81.7,0c0-11.3,0-22.6,0-33.8H535V66.9H405.7V133.5z"/>
		<path d="M405.7,214.6H535V199h-81.7v-36.9c27.2,0,54.5,0,81.7,0c0-4.7,0-9.4,0-14.1H405.7V214.6z"/>
		<rect x="405.7" y="36.8" width="129.3" height="15.6"/>
		<rect x="87.7" y="133.5" class="st1" width="47.6" height="14.6"/>
		<rect x="209.6" y="133.5" class="st1" width="160.5" height="14.6"/>
		<path class="st1" d="M405.7,148.1H535c0-4.9,0-9.7,0-14.6H405.7V148.1z"/>
		<rect x="34.2" y="52.4" class="st1" width="154.5" height="14.6"/>
		<rect x="322.5" y="52.4" class="st1" width="47.6" height="14.6"/>
		<rect x="209.6" y="52.4" class="st1" width="47.6" height="14.6"/>
		<rect x="405.7" y="52.4" class="st1" width="129.3" height="14.6"/>
		<rect x="87.7" y="214.6" class="st1" width="47.6" height="14.6"/>
		<rect x="322.5" y="214.6" class="st1" width="47.6" height="14.6"/>
		<rect x="209.6" y="214.6" class="st1" width="47.6" height="14.6"/>
		<rect x="405.7" y="214.6" class="st1" width="129.3" height="14.6"/>
	</g>
</g>
</svg>
