<?xml version="1.0" encoding="utf-8"?>
<!-- Generator: Adobe Illustrator 22.1.0, SVG Export Plug-In . SVG Version: 6.00 Build 0)  -->
<svg version="1.1" id="Layer_1" xmlns="http://www.w3.org/2000/svg" xmlns:xlink="http://www.w3.org/1999/xlink" x="0px" y="0px"
	 viewBox="0 0 140.2 124" style="enable-background:new 0 0 140.2 124;" xml:space="preserve">
<style type="text/css">
	.st0{fill:none;stroke:#525252;stroke-width:4.278;stroke-linecap:round;stroke-linejoin:round;stroke-miterlimit:10;}
</style>
<g>
	<g>
		<path class="st0" d="M85,56.1c-2,6.9-5.8,13.1-10.8,18.1"/>
		<path class="st0" d="M55.8,84.9c7-2,13.4-5.7,18.4-10.7"/>
		<path class="st0" d="M85,56.1c1.1-3.7,1.7-7.7,1.7-11.8c0-4.8-0.8-9.4-2.3-13.6"/>
		<path class="st0" d="M84.4,30.6C78.7,14.1,63,2.1,44.4,2.1C21.1,2.1,2.1,21,2.1,44.3c0,16.8,9.8,31.3,24.1,38.1c0,0,0,0,0,0
			c-1.5,4.5-4.4,8.6-9.6,12.6c9.3-1.2,14.9-2.9,21.2-9"/>
		<path class="st0" d="M37.9,85.9L37.9,85.9C37.9,85.9,37.9,85.9,37.9,85.9C37.9,85.9,37.9,85.9,37.9,85.9"/>
		<path class="st0" d="M55.8,84.9c-3.6,1-7.4,1.6-11.4,1.6c-2.2,0-4.4-0.2-6.5-0.5"/>
		<path class="st0" d="M102.3,112.9C102.3,112.9,102.3,112.9,102.3,112.9C102.3,112.9,102.3,112.9,102.3,112.9L102.3,112.9"/>
		<path class="st0" d="M84.4,30.6c3.6-1,7.4-1.6,11.4-1.6c23.3,0,42.3,18.9,42.3,42.1c0,16.8-9.8,31.3-24.1,38.1c0,0,0,0,0,0
			c1.5,4.5,4.4,8.6,9.6,12.6c-9.3-1.2-14.9-2.9-21.2-9"/>
		<path class="st0" d="M102.3,112.9c-2.1,0.3-4.3,0.5-6.5,0.5c-18.6,0-34.3-11.9-40-28.5"/>
		<path class="st0" d="M85,56.1c5.8,0.4,10.5,6.4,10.5,6.4s11-14,19.9-0.7C125,76,101.8,91.7,95.4,95.7
			c-4.5-2.8-17.6-11.6-21.3-21.5"/>
	</g>
	<g>
		<g>
			<path class="st0" d="M33.9,40.5c0,0,9.3-4.8,10.6-13.5c0.2-1.5,0.4-3,0.5-4.5c0.1-1.9-0.5-4,1.5-5c1.7-0.9,3.2-0.2,4,1.7
				c1.9,4.4,1.4,12.8-0.8,16.1c0,0,13.5,0,13.5,0c1.9,0,4,0.1,4.8,2.2c1.1,2.7-0.9,4.9-3.2,5.3c1.1,0.2,2.1,0.7,2.7,2
				c1.1,2.7-0.9,4.8-3.1,5.2c1.1,0.2,2.1,0.7,2.6,1.9c1.1,2.6-0.9,4.6-3.1,5c1.1,0.2,2.1,0.7,2.6,1.9c1.2,2.8-1.3,5-3.8,5
				c-3.7,0-7.4,0-11.1,0c-2.7,0-4.2,0-6.9,0c-1,0-2.2,0.2-3.2,0c-1.8-0.3-3.2-1.8-4.1-3.2c-0.7-1.1-2.8-1.8-3.8-1.6"/>
		</g>
		<rect x="20.6" y="38.1" class="st0" width="13.2" height="25.4"/>
	</g>
</g>
</svg>
