<?xml version="1.0" encoding="utf-8"?>
<!-- Generator: Adobe Illustrator 21.0.2, SVG Export Plug-In . SVG Version: 6.00 Build 0)  -->
<svg version="1.1" id="Layer_1" xmlns="http://www.w3.org/2000/svg" xmlns:xlink="http://www.w3.org/1999/xlink" x="0px" y="0px"
	 viewBox="0 0 150 36" style="enable-background:new 0 0 150 36;" xml:space="preserve">
<style type="text/css">
	.st0{fill:#FFFFFF;}
</style>
<title>cygnet</title>
<g id="Layer_2">
	<g id="Layer_1-2">
		<g id="IRk7CJ.tif">
			<path class="st0" d="M21.3,5c4.1,2.4,7.5,5.3,8.7,10.3c-1.5-1.9-3.7-2.1-5.8-2.5l-0.7-0.2c-3.4-0.7-5.5-3-6.9-6.2
				c-0.7-1.9-1-3.8-1.1-5.8c0-0.5,0.1-0.6,0.6-0.4c1.5,0.7,3,1.3,4.6,1.7c1.8,0.4,3.5,1,5.1,2C27.9,5,29.5,7,30.3,9.4
				c1.4,4.1,1.4,8.5,0,12.6c-2.2,6.1-6.6,9.8-12.9,10.6c-8.6,1-16.3-5.3-17.3-14.1c0-0.1,0-0.2,0-0.3c-0.8-8.1,4.3-15.5,12-17.5
				c0.8-0.2,0.8-0.2,0.9,0.7s0.5,1.1,0.2,1.7c-0.3,0.5-1,0.5-1.5,0.7C9,4.9,6.6,6.6,4.8,9c-1.9,2.7-2.7,5.9-2.4,9.2
				c0.2,3.5,1.6,6.9,4.1,9.4c4,4,8.9,5,14.1,3.3c4.4-1.3,8-5,9.3-9.5c1-3,1.3-6.1-0.2-9c-1.6-3.4-4.4-6-7.9-7.4h-0.6V5z"/>
			<path class="st0" d="M15.7,30c-4.4-0.3-8.2-3-10.4-7.9s-0.7-11.7,4-15.3c1.1-0.8,2.4-1.7,3.7-2.2C13.6,4.4,13.9,4.4,14,5
				s0.7,1.1,0.5,1.8s-1,0.5-1.5,0.8c-2.4,1.2-4.3,3.2-5.5,5.7c-1.2,2.8-1.1,5.9,0.2,8.6c1.2,2.9,3.5,5.3,6.5,6.4
				c2.8,1,5.8,0.8,8.5-0.7c4.2-2.1,7.1-6.3,7.5-11.2c0-0.2-0.1-0.6,0.2-0.6s0.3,0.4,0.3,0.6c-0.2,3.9-2,7.6-4.9,10.2
				C23,28.8,20,30,15.7,30z"/>
			<path class="st0" d="M18.8,26.1c4,0.2,8.2-3.2,9.8-7c0.4-1.1,0.7-2.3,0.8-3.4c0-0.2-0.1-0.4,0.2-0.4s0.2,0.2,0.3,0.4
				c0,0.4,0,0.9-0.1,1.3c-0.9,5.1-4.8,9.1-9.8,10c-5.1,1-10.2-2.4-11.3-7.8c0-0.1,0-0.1,0-0.2c-0.8-4.6,1.6-9,5.7-10.7
				c0.5-0.2,0.8-0.2,1,0.3L16,9.4c0.5,0.7,0.5,0.7-0.3,0.9c-2.4,0.7-4.2,2.8-4.7,5.4c-1,4.5,1.2,9.2,6,10.2L18.8,26.1z"/>
		</g>
		<path class="st0" d="M50.8,22.4l-0.2,2.7c-1.3,0.7-2.8,1-4.3,0.9c-3.4,0-6-0.9-7.9-2.9c-1.8-1.9-2.7-4.5-2.7-7
			c0-2.8,1-5.5,2.8-7.5c2-2.1,4.7-3.2,7.6-3.1c1.3,0,2.6,0.1,3.8,0.5l-0.5,3.2c-1.3-0.5-2.7-0.8-4.1-0.9c-1.7,0-3.3,0.7-4.4,2.1
			c-1.1,1.5-1.8,3.2-1.7,5.1c-0.1,2.1,0.7,4,2,5.5c1.5,1.6,3.5,2.3,5.6,2.2C48.2,23,49.5,22.8,50.8,22.4z"/>
		<path class="st0" d="M70.3,6.1c0,0.9-1,3.6-3,8.3c-1.6,3.6-3,7.5-4.2,11.3c-0.9,3.5-1.8,5.8-2.5,6.7c-0.7,0.9-2.6,1.7-5.6,2
			l-0.2-2.9c1.5,0,3-0.6,4.1-1.8c1.1-1.1,1.7-2.6,1.7-4.1c0-1.6-1.2-5.1-3.6-10.8c-2.4-5.7-3.6-8.6-3.7-8.7h4.1
			c0.7,2.5,1.5,5,2.5,7.4c1.7,4.6,2.5,7.4,2.5,8.5h0.2c0-0.9,0.7-3.4,2.1-7.7c1.4-4.3,2.1-6.9,2.1-8.2L70.3,6.1z"/>
		<path class="st0" d="M91.7,3.5l-0.3,2.8c-2.5,0-3.8,0.4-4,1.2v0.2c0.8,1,1.2,2.3,1.2,3.6c0.1,2-0.6,3.9-2,5.3
			c-1.3,1.3-3.4,2.1-6.3,2.1c-1,0-2-0.1-3-0.4c-0.6,0.4-1,1-1,1.8c-0.1,0.8,0.4,1.6,1.1,1.8c2,0.5,4,0.7,6.1,0.6
			c5,0,7.6,1.8,7.6,5.2c0,2.4-1,4.7-2.9,6.1c-2.2,1.6-4.8,2.4-7.6,2.2c-3.1,0-5.4-0.6-6.9-1.8c-1.3-1-2-2.6-2-4.3
			c-0.1-1.2,0.3-2.6,1-3.6c0.6-0.9,1.5-1.6,2.5-1.8v-0.2c-1.1-0.5-1.7-1.8-1.6-3c0.1-1.5,0.8-2.8,2-3.5v-0.2c-0.8-0.4-1.5-1-2-1.8
			c-0.6-0.9-0.9-2-0.9-3.1c-0.1-2,0.7-3.9,2.1-5.3c1.7-1.5,3.8-2.3,6-2.1c1.7-0.1,3.5,0.3,5,1.2h0.2c0.4-2.3,1.5-3.4,3.3-3.4
			C90.2,3.2,91,3.3,91.7,3.5z M88.2,28.9c0.1-1-0.4-2.2-1.3-2.7c-0.9-0.5-2.6-0.8-5.1-0.8l-4.6-0.2c-1.4,0.5-2.4,2-2.4,3.5
			c0,3.3,2.1,5,6.4,5c1.8,0.1,3.6-0.4,5.2-1.3C87.5,31.6,88.2,30.4,88.2,28.9z M85.5,12.2c0.1-1.3-0.5-2.6-1.4-3.4
			c-1-0.8-2.2-1.2-3.5-1.2c-1.2,0-2.4,0.4-3.3,1.1c-0.9,0.8-1.4,2.1-1.3,3.3c-0.1,1.3,0.4,2.6,1.4,3.4c1,0.7,2.2,1.1,3.4,1.1
			c1.2,0,2.4-0.4,3.3-1.1C85,14.6,85.5,13.5,85.5,12.2z"/>
		<path class="st0" d="M111.9,25.5h-3.6c0.3-3.6,0.4-7.5,0.4-11.7c0-2.1-0.4-3.5-1.2-4.3c-1-0.8-2.2-1.3-3.5-1.2
			c-1.9,0-3.8,0.7-5.2,2.1c0,4.7,0,9.6,0.1,15h-3.5c0.2-4.7,0.3-8,0.3-10.1c0-3.1-0.3-6.1-0.9-9.1l3.5-0.5l0.4,2.5h0.2
			c1.7-1.7,3.9-2.6,6.3-2.7c1.8-0.1,3.6,0.4,5.1,1.5c1.2,0.9,1.8,2.7,1.8,5.3c0,0.3,0,0.8,0,1.6c0,0.7,0,1.2,0,1.6
			C111.9,17.6,111.8,21,111.9,25.5z"/>
		<path class="st0" d="M133,13.5c0,0.5,0,1.3-0.1,2.4l-13.6,0.2c0.1,1.9,0.9,3.6,2.2,5c1.5,1.3,3.4,2.1,5.4,2c1.9,0,3.8-0.2,5.6-0.7
			l-0.3,2.9c-1.8,0.6-3.7,0.9-5.6,0.8c-3.4,0-6-0.9-7.9-2.9c-1.8-1.9-2.7-4.5-2.7-7c-0.1-2.8,0.8-5.5,2.4-7.7
			c1.6-2.2,4.1-3.3,6.8-3.2c2.2-0.2,4.3,0.6,5.8,2.3C132.4,9.1,133.1,11.3,133,13.5z M129.6,13.5c0-3.8-1.5-5.7-4.6-5.7
			s-4.9,2-5.6,5.9L129.6,13.5z"/>
		<path class="st0" d="M148.4,22.7l-0.2,2.7c-0.9,0.4-1.9,0.6-2.9,0.6c-2.3,0-3.9-0.6-4.8-1.9c-0.9-1.2-1.3-3.4-1.3-6.6
			c0-2.1,0-4.8,0-8.1h-3.2v-3h3.3c0-0.8,0.1-2.8,0.2-5.8l3.1-0.3c-0.2,2.8-0.3,4.9-0.3,6.1l5.7-0.2v3.1h-5.7c0,2.1,0,4.4,0,6.9
			s0.3,4.5,0.9,5.6c0.8,1,2,1.6,3.2,1.3L148.4,22.7z"/>
		<path class="st0" d="M97.4,30h0.7l1.9,4.6h-0.8l-0.4-1h-2l-0.4,1h-0.8L97.4,30z M98.5,32.7l-0.7-1.8l-0.7,1.8H98.5z"/>
		<path class="st0" d="M102.8,34.5l-0.9-0.2l-0.7-0.5c-0.2-0.2-0.4-0.4-0.5-0.7c-0.1-0.3-0.2-0.6-0.2-0.9l0,0c0-0.3,0.1-0.6,0.2-0.9
			c0.1-0.3,0.3-0.5,0.5-0.7l0.7-0.5l0.9-0.2h0.9l0.4,0.2l0.3,0.3l-0.5,0.6l-0.3-0.2h-1.5l-0.4,0.3l-0.3,0.5
			c-0.1,0.2-0.1,0.4-0.1,0.6l0,0c0,0.2,0,0.4,0.1,0.6l0.3,0.5l0.5,0.3h1.2l0.5-0.2v-0.8h-1.1v-0.7h1.8v1.9l-0.4,0.3l-0.4,0.2h-1
			V34.5z"/>
		<path class="st0" d="M105.8,30h2.7l0.5,0.3l0.3,0.4c0.1,0.2,0.1,0.3,0.1,0.5l0,0c0,0.2,0,0.3-0.1,0.5l-0.2,0.4l-0.3,0.3l-0.4,0.2
			l1.2,1.7h-0.9l-1.1-1.6h-1v1.6h-0.8V30z M107.8,32.1l0.7-0.2c0.1-0.1,0.2-0.3,0.2-0.5l0,0c0-0.2-0.1-0.4-0.2-0.5l-0.7-0.2h-1.1
			v1.6L107.8,32.1z"/>
		<path class="st0" d="M112.6,34.5l-0.9-0.2l-0.7-0.5c-0.2-0.2-0.4-0.4-0.5-0.7s-0.2-0.6-0.2-0.9l0,0c0-0.3,0.1-0.6,0.2-0.9
			s0.3-0.5,0.5-0.7l0.7-0.5l0.9-0.2l0.9,0.2l0.7,0.5l0.5,0.7c0.1,0.3,0.2,0.6,0.2,0.9l0,0c0,0.3-0.1,0.6-0.2,0.9s-0.3,0.5-0.5,0.7
			l-0.7,0.5L112.6,34.5z M112.6,33.8h0.6l0.5-0.3L114,33c0.1-0.2,0.1-0.4,0.1-0.6l0,0c0-0.2,0-0.4-0.1-0.6l-0.3-0.5l-0.5-0.3H112
			l-0.5,0.3l-0.3,0.5c-0.1,0.2-0.1,0.4-0.1,0.6l0,0c0,0.2,0,0.4,0.1,0.6l0.3,0.5l0.5,0.3H112.6z"/>
		<path class="st0" d="M118,34.5l-0.9-0.2l-0.7-0.5c-0.2-0.2-0.4-0.4-0.5-0.7s-0.2-0.6-0.2-0.9l0,0c0-0.3,0.1-0.6,0.2-0.9
			s0.3-0.5,0.5-0.7l0.7-0.5l0.9-0.2h1l0.4,0.2l0.3,0.3l-0.5,0.6l-0.6-0.4h-1.2l-0.5,0.3l-0.3,0.5c-0.1,0.2-0.1,0.4-0.1,0.6l0,0
			c0,0.2,0,0.4,0.1,0.6l0.3,0.5l0.5,0.3h0.6l0.7-0.2l0.6-0.4l0.5,0.5l-0.3,0.3l-0.4,0.2l-0.5,0.2L118,34.5z"/>
		<path class="st0" d="M122.8,34.5l-0.9-0.2l-0.7-0.5c-0.2-0.2-0.4-0.4-0.5-0.7c-0.1-0.3-0.2-0.6-0.2-0.9l0,0c0-0.3,0.1-0.6,0.2-0.9
			c0.1-0.3,0.3-0.5,0.5-0.7l0.7-0.5l0.9-0.2l0.9,0.2l0.7,0.5l0.5,0.7c0.1,0.3,0.2,0.6,0.2,0.9l0,0c0,0.3-0.1,0.6-0.2,0.9
			c-0.1,0.3-0.3,0.5-0.5,0.7l-0.7,0.5L122.8,34.5z M122.8,33.8h0.6l0.5-0.3l0.3-0.5c0.1-0.2,0.1-0.4,0.1-0.6l0,0
			c0-0.2,0-0.4-0.1-0.6l-0.3-0.5l-0.5-0.3h-1.2l-0.5,0.3l-0.3,0.5c-0.1,0.2-0.1,0.4-0.1,0.6l0,0c0,0.2,0,0.4,0.1,0.6l0.3,0.5
			l0.5,0.3H122.8z"/>
		<path class="st0" d="M126.2,30h0.8l1.3,2.1l1.3-2.1h0.8v4.5h-0.8v-3.1l-1.4,2.1l0,0l-1.4-2.1v3.2H126L126.2,30z"/>
		<path class="st0" d="M131.9,30h2.4l0.5,0.3l0.3,0.5c0.1,0.2,0.1,0.4,0.1,0.6l0,0c0,0.2,0,0.4-0.1,0.6l-0.4,0.5l-0.6,0.3h-1.5v1.5
			h-0.8L131.9,30z M133.5,32.3l0.7-0.2c0.2-0.1,0.3-0.4,0.3-0.6l0,0c0-0.2-0.1-0.5-0.3-0.6l-0.7-0.2h-0.9v1.7H133.5z"/>
		<path class="st0" d="M137.5,30h0.7l1.9,4.6h-0.8l-0.4-1h-2l-0.4,1h-0.8L137.5,30z M138.6,32.7l-0.7-1.8l-0.7,1.8H138.6z"/>
		<path class="st0" d="M141,30h0.7l2.3,3.1V30h0.8v4.5h-0.7l-2.4-3.2v3.2h-0.8L141,30z"/>
		<path class="st0" d="M147.5,32.7l-1.7-2.7h0.9l1.2,2l1.2-2h0.9l-1.8,2.7v1.8h-0.8L147.5,32.7z"/>
	</g>
</g>
</svg>
