<?xml version="1.0" encoding="utf-8"?>
<!-- Generator: Adobe Illustrator 21.0.2, SVG Export Plug-In . SVG Version: 6.00 Build 0)  -->
<svg version="1.1" id="Layer_1" xmlns="http://www.w3.org/2000/svg" xmlns:xlink="http://www.w3.org/1999/xlink" x="0px" y="0px"
	 viewBox="0 0 620 333.9" style="enable-background:new 0 0 620 333.9;" xml:space="preserve">
<style type="text/css">
	.st0{fill:#FFFFFF;}
	.st1{clip-path:url(#SVGID_2_);}
	.st2{fill:#D6ECFF;stroke:#FFFFFF;stroke-width:0.9086;}
	.st3{fill:#99CFFF;stroke:#FFFFFF;stroke-width:0.9086;}
	.st4{fill:none;}
	.st5{fill:#FFFFFF;stroke:#0086FF;stroke-width:0.9086;}
	.st6{fill:#0086FF;}
	.st7{enable-background:new    ;}
	.st8{fill:none;stroke:#0086FF;stroke-width:0.9086;}
	.st9{fill:none;stroke:#0086FF;stroke-width:0.9086;stroke-dasharray:1.8354,1.8354;}
	.st10{fill:none;stroke:#0086FF;stroke-width:0.9086;stroke-dasharray:0.9086,0.9086;}
	.st11{fill:none;stroke:#0086FF;stroke-width:0.9086;stroke-dasharray:1.8173,1.8173;}
	.st12{fill:#003F6F;}
	.st13{fill:#FFFFFF;stroke:#003F6F;stroke-width:0.9086;}
	.st14{fill:none;stroke:#003F6F;stroke-width:0.9086;}
	.st15{fill:none;stroke:#003F6F;stroke-width:0.9086;stroke-dasharray:1.8354,1.8354;}
	.st16{fill:none;stroke:#003F6F;stroke-width:0.9086;stroke-dasharray:0.9086,0.9086;}
	.st17{fill:none;stroke:#003F6F;stroke-width:0.9086;stroke-dasharray:1.8173,1.8173;}
	.st18{font-family:'MyriadPro-Regular';}
	.st19{font-size:9.9725px;}
	.st20{fill:url(#SVGID_3_);}
</style>
<rect x="3.4" y="0.6" class="st0" width="615.9" height="332.4"/>
<g>
	<g>
		<g>
			<defs>
				<rect id="SVGID_1_" x="3.4" y="0.6" width="615.9" height="332.4"/>
			</defs>
			<clipPath id="SVGID_2_">
				<use xlink:href="#SVGID_1_"  style="overflow:visible;"/>
			</clipPath>
			<g class="st1">
				<path id="AL" class="st2" d="M323.3,260.2l-1,3.6l1.3,4.3l3.9,2.4l-0.3,2.7l-2.9,1.3l-0.7,3.2l-4.3,4.9l-1.6-0.6l-0.3-2.2
					l-5.2-3.2l-0.7-4.9l0.7-6.8l1.3-3.2l-1.6-1.7l-0.7-3.2l3.9-5.2l0.7,1.9l2.6-0.8l2,2.7l2.3,1.1L323.3,260.2z"/>
				<path id="AT" class="st3" d="M290.4,192.7l-0.7,4.7h-5.2l1.6,2.4l-2.9,7.1l-1.6,1.9l-8.1,0.2l-4.6,2.4l-7.5-0.8l-13-3l-2-3.8
					l-9.1,1.9l-1,2.2l-5.6-1.7l-4.6-0.2l-4.3-1.9l1.3-2.7l-0.3-1.9l2.9-0.6l4.6,3l1.3-3l8.1,0.6l6.6-1.9l4.3,0.2l2.9,2.2l1-1.9
					l-1.3-7.3l3.3-1.3l3.3-5.2l6.9,3.8l5.2-4.7l3.3-0.8l7.2,3.6l4.3-0.6l4.3,2.2l-0.7,1.3L290.4,192.7z"/>
				<path id="BA" class="st2" d="M308.6,228.6h3.3l-2.3,4.7l4.6,4.1l-1.3,4.9l-2.3,0.6l-1.6,1.1l-2.9,2.4l-1.3,5.7l-8.1-3.8
					l-3.6-4.3l-3.6-2.2l-4.3-4.1l-2-3.2l-4.6-4.9l2-4.3l3.3,2.4l2-2.2l4.3-0.2l7.8,1.9l6.2-0.2L308.6,228.6z"/>
				<path id="BE" class="st2" d="M165.4,154.7l6.9,1.1l8.4-2.4l5.9,5.5l4.9,2.7l-1,8.1l-2.3,0.6l-1,6.6l-8.1-5.5l-4.6,0.8l-6.6-5.7
					l-4.3-4.9l-4.3-0.2L158,157L165.4,154.7z"/>
				<path id="BG" class="st2" d="M342.1,235.4l2.6,4.3l3.6-0.8l7.2,1.7l13.3,0.6l4.6-2.7l10.7-2.4l6.6,3.8l5.6,1.1l-4.9,4.3
					l-3.3,7.3l2.9,6l-7.8-1.3l-9.4,3.2v5.2l-8.1,1.1l-6.6-3.6l-7.2,2.7l-6.9-0.2l-0.7-6.8l-4.6-3.2l1.6-1.3l-1-1.1l1.6-3.2l3.6-3.2
					l-4.3-4.7l-0.7-3.8L342.1,235.4z"/>
				<path id="BY" class="st2" d="M349.6,122.5h8.7l9.7-4.9l2.3-7.3l7.5-4.3l-1-6l5.6-2.2l9.7-5.2l9.7,3.6l1.3,3.2l4.9-1.7l8.7,3.2
					l1,6.2l-2,3.6l5.9,8.5l3.6,2.4l-0.7,2.4l6.2,2.2l2.6,3.2l-3.6,2.7l-7.5-0.6l-1.6,1.3l2.3,4.1l2.3,7.9l-7.8,0.8l-2.9,2.7
					l-0.7,6.2l-3.6-1.1l-8.1,0.6l-2.3-2.7l-3.3,2.2l-3.3-1.7l-7.2-0.2l-9.7-2.9l-9.1-1.1l-7.2,0.2l-4.9,3.2l-4.3,0.6v-5.5l-2.9-5.7
					l5.6-2.4v-5.2l-2.6-4.9L349.6,122.5z"/>
				<path id="CH" class="st3" d="M222.7,199.3l0.3,1.9l-1.3,2.7l4.3,1.9l4.6,0.2l-0.7,4.7l-3.9,1.9l-6.9-1.3l-2,4.3l-4.3,0.2
					l-1.6-1.7l-5.2,3.8l-4.6,0.6l-3.9-2.4l-3.3-4.9l-4.3,1.7v-4.9l6.9-6.2l-0.3-3l4.3,1.1l2.6-1.9h7.8l2-2.4L222.7,199.3z"/>
				<path id="CY" class="st2" d="M444.7,324.4l6.2-4.1l-8.1,2.7l-6.6-0.2l-1.3,2.2h-0.7l-4.3,0.2l2,3.8l4.6,1.1l9.4-3.8l-0.3-0.8
					L444.7,324.4z"/>
				<path id="CZ" class="st2" d="M290.1,187.3l-4.3-2.2l-4.3,0.6l-7.2-3.6l-3.3,0.8l-5.2,4.7l-6.9-3.8l-5.2-4.9l-4.6-2.7l-1-4.9
					l-1.6-3.6l6.6-2.4l3.3-3l6.6-2.4l2.3-2.2l2.3,1.3l3.9-1.3l4.3,3.8l6.9,1.1l-0.7,3.2l4.9,2.4l1.3-3l6.2,1.3l1,3.8l6.9,0.8
					l4.3,5.7h-2.6l-1.3,2.2l-2,0.6l-0.7,2.7l-1.6,0.6l-0.3,1.1l-3.3,1.1l-3.9-0.2L290.1,187.3z"/>
				<path id="DE" class="st3" d="M226,108.4v5.2l9.1,3v4.7l9.4-2.4l5.2-3.6l10.4,5.2l4.3,4.1l2.3,6.6l-2.6,3.2l3.3,4.3l2.3,6.6
					l-0.7,4.3l3.6,7.9l-3.9,1.3l-2.3-1.3l-2.3,2.2l-6.6,2.4l-3.3,3l-6.6,2.4l1.6,3.6l1,4.9l4.6,2.7l5.2,4.9l-3.3,5.2l-3.3,1.3
					l1.3,7.3l-1,1.9l-2.9-2.2l-4.3-0.2l-6.6,1.9L232,198l-1.3,3l-4.6-3l-2.9,0.6l-9.7-3.6l-2,2.4h-7.8l1.3-8.1l4.6-7.9l-13-2.2
					l-4.3-3l0.7-5.2l-2-2.7l1-8.1l-1.6-12.8h5.6l2.3-4.7l2.3-11.5l-1.6-4.3l2-2.7l7.5-0.8l1.6,2.7l6.2-6.2l-2-4.9l-0.3-7.6l6.9,1.7
					L226,108.4z"/>
				<path id="DK" class="st2" d="M251,99.9l-5.6,10.9l-9.4-7.6l-1.3-5.5l13.3-4.7L251,99.9z M235.1,88.4l-2.3,5.2l-2.6-1.3l-6.6,9.8
					l2.6,6.6l-5.9,1.9l-6.9-1.7l-3.6-7.3l-0.3-13.9l1.6-3.8l2.6-4.1l8.1-0.8l3.3-3.8l7.5-4.1l-0.3,7.3l-2.6,4.7l1,3.8L235.1,88.4z"
					/>
				<path id="EE" class="st2" d="M357.1,69.7l1-8.5l-3.3,1.9L349,58l-0.7-8.5l11.4-4.1l11.4-2.2l9.7,2.4l9.4-0.6l1.3,2.7l-6.6,8.5
					l2.6,13.6l-3.9,4.7h-7.5l-7.8-5.2l-3.9-1.7L357.1,69.7z"/>
				<path id="ES" class="st2" d="M52.8,259.9l0.3-7.3l-3.6-4.7l13-7.6l11,1.9H86l9.7,1.9l7.5-0.6l14.6,0.2l3.6,4.1l16.9,4.7l3.3-2.2
					L152,255l10.4-1.3l0.3,6l-8.7,6.8l-11.7,2.2l-0.7,3.2l-5.6,5.5l-3.6,8.1l3.6,5.7l-5.2,4.3l-2,6.2l-6.9,1.9l-6.6,7.3l-11.7,0.2
					l-8.7-0.2l-5.9,3.2l-3.6,3.6L81,317l-3.1-3.2l-2.6-5.5l-8.4-1.3l-0.7-3.2l3.3-3.6l1.3-2.7l-3.3-3L70,288l-3.6-6l3.9-0.8l0.3-4.7
					l1.6-1.3v-7.9l4.3-2.7l-2.5-5.1l-5.2-0.2l-1.6,1.3H62l-2.3-4.9l-3.6,1.3L52.8,259.9z"/>
				<polygon class="st2" points="418.9,0.6 410.8,9.6 391.2,29.7 374.6,30.7 358.7,36.5 343.7,39.7 338.6,31.3 329.7,26.2 
					331.7,10.6 328.6,0.6 				"/>
				<path id="FR" class="st2" d="M222.7,257l-2.9,7.9l-4.3-2.2l-2-6.8l2-3.8l5.9-4.1L222.7,257z M168.1,166.3l6.6,5.7l4.6-0.8
					l8.1,5.5l2,1.1l2.6-0.2l4.3,3l13,2.2l-4.6,7.9l-1.3,8.1l-2.6,1.9l-4.3-1.1l0.3,2.7l-6.6,6.2v4.9l4.3-1.7l3.3,4.9l-0.3,3l2.6,4.1
					l-3.3,3.2l2.3,8.1l4.9,1.3l-1,4.7l-8.1,6l-17.9-2.7l-13.3,3.2l-1,6.2l-10.5,1.5l-10.1-4.7l-3.3,2.2l-16.9-4.7l-3.6-4.1l4.9-6.2
					l1.6-21.5l-9.4-11.7l-6.9-5.7l-13.9-4.2l-1-8.5l11.7-2.4l15.3,3l-2.9-13l8.4,5.2l21.2-9.2l2.6-9.8l8.1-2.4l1.3,4.3l4.3,0.2
					L168.1,166.3z"/>
				<path id="GB" class="st3" d="M83.7,114.1l-4.9,9l-6.9-2.7l-5.6,0.2l2-7.1l-2-7.1l7.8-0.6L83.7,114.1z M107.8,57.5L98,73l9.4-1.9
					h10.1l-2.3,11.5l-8.1,12.2l9.4,0.8l0.7,1.3l8.1,15.8l6.2,2.2l5.6,14.7l2.6,4.9l11,2.4l-1,7.9l-4.6,3.6l3.6,6.2l-8.1,6.2h-12.3
					l-15.6,3.2l-4.3-2.4l-6.2,5.7l-8.4-1.3l-6.6,4.7l-4.9-2.4l13.3-12.5l8.1-2.7l0,0l-14.3-2.2l-2.6-4.9l9.4-3.8l-4.9-6.8l1.6-8.5
					l13.7,1.1l0,0l1.3-7.3l-6.2-8.1v-0.2l-11-2.4l-2.3-3.6l3.3-6l-2.9-3.8l-4.9,6.2l-0.7-13l-4.7-7.1l3.3-14.7l7.2-11.7l7.2,1.1
					L107.8,57.5z"/>
				<path id="GE" class="st2" d="M514.6,263.5l1.3-4.3l-2.3-7.1l-5.2-3.8l-4.9-1.1l-3.3-3.2l1-1.3l7.8,1.9l13.3,1.7l12.3,4.9
					l1.6,1.9l5.6-1.7l8.4,2.2l2.6,4.1l5.9,2.4l-2.3,1.3l4.6,5.5l-1.3,1.1l-4.9-0.6l-6.9-3l-2.3,1.7l-12.7,1.7l-8.7-4.9L514.6,263.5z
					"/>
				<path id="GR" class="st2" d="M351.6,320.1l4.9,3.2l7.2-0.6l6.9,0.6l-0.3,1.7l4.9-1.1l-1,2.7l-13,0.8v-1.7l-11-1.9L351.6,320.1z
					 M377.9,263.2l-2.9,6.2l-2.3,1.1l-5.6-0.2l-4.9-1.1l-11,2.7l6.2,5.7l-4.6,1.7h-5.2l-4.9-5.2l-1.6,2.2l2,6l4.6,4.7l-3.6,2.2
					l5.2,4.3l4.6,2.7v5.5l-4.6-3l-3.3,0.6l2.6,4.9l-2.6,0.6l-3.3-1.9l3.9,10.9h-2l-1.6-3.2h-2l-1,3.6l-1.6-0.8l0.3-1.9l-2-2.7h-2
					l0.3,2.2l-0.7,0.8l-2-1.3l-1.3-2.7l1.6-1.7l-1.3-1.9l-1.3-1.1l-0.7-0.8l-1.6-2.4l2-1.3l1.3-1.3l2,0.2l0.7-1.1l2-0.6l2.3,1.3
					l1.6,0.6l1.3-1.7l-2.9-0.2l-2-0.6l-3.9,0.8h-3.9l-3.6-4.3l-0.7-0.6l0.7-1.7l-4.6-3l-0.7-2.7l4.3-4.9l0.7-3.2l2.9-1.3l0.3-2.7
					l5.9-0.8l3.6-2.2l4.9,0.2l1.6-1.7l1.6-0.2l6.9,0.2l7.2-2.7l6.6,3.6l8.1-1.1v-5.2L377.9,263.2z"/>
				<path id="HR" class="st2" d="M307,217.2l2.3,4.3l2.9,3l-3.6,4.1l-4.2-2.4l-6.2,0.2l-7.8-1.9l-4.3,0.2l-2,2.2l-3.3-2.4l-2,4.3
					l4.6,4.9l2,3.2l4.3,4.1l3.6,2.2l3.6,4.3l8.1,3.8l-1,1.7l-8.4-3.8l-5.2-3.8l-8.4-3l-7.8-7.9l2-0.8l-4.3-4.3l-0.3-3.6l-5.9-1.7
					l-2.9,4.7l-2.6-3.6l0.3-3.8l0.3-0.2l6.2,0.2l1.6-1.9l3.3,1.7l3.6,0.2v-3l3.3-1.1l1-4.3l7.2-3l2.9,1.3l6.9,4.7l7.5,2.2L307,217.2
					z"/>
				<path id="HU" class="st3" d="M283.2,206.8l2.9-7.1l-1.6-2.4h5.2l0.7-4.7l4.6,3l3.3,1.3l7.8-1.3l0.7-2.2l3.6-0.2l4.6-1.7l1,0.8
					l4.3-1.3l2.3-2.7l2.9-0.6l9.7,3.6l2-1.1l4.9,3l0.7,3l-5.6,2.4l-4.3,7.6l-5.6,7.6l-7.2,0.8l-5.9-0.6l-7.2,2.7l-3.3,1.7l-7.5-2.2
					l-6.9-4.7l-3-1.4l-1.6-3.8L283.2,206.8z"/>
				<path id="IE" class="st2" d="M78.9,123.1l1.7,9.2l-6.9,11.1l-16.3,7.3l-13-1.8l7.5-13l-4.9-13l12.3-10.3l6.9-6.2l2,7.1l-2,7.1
					l5.6-0.2L78.9,123.1z"/>
				<path id="IT" class="st2" d="M277.1,296.2l-3.3,7.6l1.3,3l-2,4.9l-6.9-3.6l-4.6-1.1l-12.7-4.9l1.3-4.9l10.7,0.8l9.4-1.1
					L277.1,296.2z M219.4,266.8l5.6,7.1l-1.3,13l-4.3-0.6l-3.6,3.2l-3.6-2.7l-0.3-12l-2-5.7l4.9,0.6L219.4,266.8z M248.4,208l13,2.7
					l-1,5.5l2.3,4.7l-7.2-1.7l-7.5,3.8l0.7,5.5l-1,3l2.9,5.5l8.4,5.5l4.6,8.7l10.1,8.1h7.2l2.3,2.2l-2.6,1.9l8.1,3.8l6.9,3l7.8,5.2
					l1,1.9l-1.6,3.6l-5.2-4.7l-7.8-1.7l-3.9,6.6l6.6,3.6l-1,5.2l-3.9,0.6l-5.2,8.1l-3.9,0.8v-3l2-5.2l2-2.2l-3.6-5.7l-2.9-4.9
					l-3.9-1.3l-2.6-4.3l-5.9-1.9l-3.9-4.1l-6.9-0.6l-7.2-4.7l-8.4-6.8l-6.2-6l-2.9-10.3l-4.6-1.3l-7.5-3.6l-4.3,1.3l-5.2,4.9
					l-3.9,0.8l1-4.7l-4.9-1.3l-2.3-8.1l3.3-3.2l-2.6-4.1l0.3-3l3.9,2.4l4.6-0.6l5.2-3.8l1.6,1.7l4.3-0.2l2-4.3l6.9,1.3l3.9-1.9
					l0.7-4.7l5.6,1.7l1-2.2l9.1-1.9L248.4,208z"/>
				<path id="XK" class="st2" d="M324.8,258l-0.3,2.2h-1.3l-0.7-3.8l-2.3-1.1l-2-2.7l1.6-2.4l2.3-0.8l1.3-3.6l1.6-0.6l1.3,1.3
					l1.6,0.6l1.3,1.7l1.6,0.6l1.6,1.9h1.3l-1,2.4l-1,1.3l0.3,0.8l-2,0.2L324.8,258z"/>
				<path id="LT" class="st2" d="M342.7,117.1l-0.7-3.2l1-3.6l-3.9-2.2l-9.4-2.4l-2-11.5l10.4-4.1l15.3,0.8l9.1-1.3l1.3,2.7l4.9,0.8
					l8.7,6.6l1,6l-7.5,4.3l-2.3,7.3l-9.7,4.9h-8.7l-2.3-4.1L342.7,117.1z"/>
				<path id="LU" class="st2" d="M190.5,169.3l2,2.7l-0.7,5.2l-2.6,0.2l-2-1.1l1-6.6L190.5,169.3z"/>
				<path id="LV" class="st2" d="M327.4,94.5l0.3-10.3l4.6-8.7l8.4-4.9l7.2,10.6l7.2-0.2l1.7-11l7.8-2.4l3.9,1.7l7.8,5.2h7.5
					l4.3,3.2l0.7,6.8l2.9,8.1l-9.7,5.2l-5.6,2.2l-8.7-6.6l-4.9-0.8l-1.3-2.7l-9.1,1.3L337,90.2L327.4,94.5z"/>
				<path id="MD" class="st2" d="M378.2,191.6l2.3-1.7l6.2-1.1l6.9,3.6l3.9,0.6l4.3,3l-0.7,3.8l3.3,1.9l1.3,4.7l3.3,2.7l-0.7,1.7
					l1.6,1.1l-2.3,0.8l-6.2-0.6l-1-1.7l-2,0.8l0.7,1.9l-2.6,3.6l-1.6,3.8l-2.3,1.1l-1.6-4.9l1-4.7l-0.3-4.9l-5.2-6.6l-2.9-4.9
					l-2.9-3.2L378.2,191.6z"/>
				<path id="ME" class="st2" d="M316.1,253.4l-0.7-1.9l-3.9,5.2l0.7,3.2l-2-0.8l-2.6-3.2l-3.9-2.2l1-1.7l1.3-5.7l2.9-2.4l1.6-1.1
					l2.3,1.9l1.3,1.3l2.9,1.1l3.6,2.2l-0.7,0.8l-1.6,2.4L316.1,253.4z"/>
				<path id="MK" class="st2" d="M323.3,260.2h1.3l0.3-2.2l5.6-1.7l2-0.2l3.3-0.6l4.3-0.2l4.6,3.2l0.7,6.8l-1.6,0.2l-1.6,1.7
					l-4.9-0.2l-3.6,2.2l-5.9,0.8l-3.9-2.4l-1.3-4.3L323.3,260.2z"/>
				<path id="NL" class="st2" d="M190.8,127.6l7.5,0.2l1.6,4.3l-2.3,11.5l-2.3,4.7h-5.6l1.6,12.8l-4.9-2.7l-5.9-5.5l-8.4,2.4
					l-6.9-1.1l4.6-3.2l8.1-18.2L190.8,127.6z"/>
				<polyline class="st2" points="244.9,0.6 245.2,9 251,17.2 248.1,35.4 240.6,45.8 236.7,54.2 236.2,53.5 230.5,45 212.6,62.1 
					200.6,65.3 187.9,58 184.7,42 181.7,5.7 185.9,0.6 244.3,0.6 				"/>
				<path id="PL" class="st3" d="M272.5,157.6l-3.6-7.9l0.7-4.3l-2.3-6.6l-3.3-4.3l2.6-3.2l-2.3-6.6l6.2-3.8l14.3-6l11.4-4.3
					l9.1,2.2l0.7,3.2l8.7,0.2l11.4,1.7l16.9-0.2l4.6,1.3l2.3,4.1l0.3,5.7l2.6,4.9v5.2l-5.6,2.4l2.9,5.7v5.5l4.6,10.6l-1,3.2
					l-4.6,1.3l-8,9.8l2.3,5.2l-2-0.6l-8.7-4.3l-6.6,1.7l-4.3-1.1l-5.6,2.4l-4.6-4.1l-3.9,1.7l-0.7-0.8l-4.3-5.7l-6.9-0.8l-1-3.8
					l-6.2-1.3l-1.3,3l-4.9-2.4l0.7-3.2l-6.9-1.1L272.5,157.6z"/>
				<path id="PT" class="st2" d="M52.8,259.9l3.3-2.7l3.6-1.3l2.3,4.9h5.2l1.6-1.3l5.2,0.2l2.6,5.2l-4.3,2.7v7.9l-1.6,1.3l-0.3,4.7
					l-3.9,0.8l3.6,6l-2.6,6.6l3.3,3l-1.3,2.7l-3.3,3.6l0.7,3.2l-3.6,2.4l-4.9-1.3l-4.9,1.1l1.3-7.3l-1-6l-4.3-0.8l-2.3-3.8L48,285
					l3.6-3.6l0.7-4.1l2-6l-0.3-4.3l-2-3.6L52.8,259.9z"/>
				<path id="RO" class="st2" d="M342.4,195.5l3.9-2.4l5.6,1.3h5.9l4.3,2.7l3.3-1.7l6.9-1.1l2.3-2.7h3.9l2.6,1.1l2.9,3.2l2.9,4.9
					l5.2,6.6l0.3,4.9l-1,4.7l1.6,4.9l4.1,1.8l4.3-1.7l4.3,1.9l0.3,2.7l-4.6,2.2l-2.9-1.1l-2.6,12.8l-5.6-1.1l-6.6-3.8l-10.7,2.4
					l-4.6,2.7l-13.3-0.6l-7.2-1.7l-3.6,0.8l-2.6-4.3l-1.6-1.9l2-1.9l-2.3-1.3l-2.9,2.4l-5.2-3l-0.7-4.3l-5.6-2.4l-1-3.6l-4.3-4.3
					l7.2-2.2l5.6-7.6l4.3-7.6L342.4,195.5z"/>
				<path id="RS" class="st2" d="M325.8,222.6l5.6,2.4l0.7,4.3l5.2,3l2.9-2.4l2.3,1.3l-2,1.9l1.6,1.9l-2.3,2.4l0.7,3.8l4.6,4.7
					l-3.6,3.2l-1.6,3.2l1,1.1l-1.6,1.3l-4.3,0.2l-3.3,0.6l-0.3-0.8l1-1.3l1-2.4h-1.3l-1.6-1.9l-1.6-0.6l-1.3-1.7l-1.6-0.6l-1.3-1.3
					l-1.6,0.6l-1.3,3.6l-1.6,0.8l0.7-0.8l-3.6-2.2l-2.9-1.1l-1.3-1.3l-2.3-1.9l2.3-0.6l1.3-4.9l-4.6-4.1l2.3-4.7H309l3.6-4.1l-2.9-3
					l-2.3-4.3l7.2-2.7l5.9,0.6l4.9,4.3L325.8,222.6z"/>
				<polygon class="st2" points="619.5,0.6 619.5,148.9 598.2,149.2 579.4,162.5 578.4,171.2 568.9,164.5 561.8,177.5 564.4,179.9 
					559.1,188.6 567,196.3 573.8,196 579.7,203.6 578.7,209.3 583.2,211.2 579,217.7 570.2,219.6 561.1,230.9 569.2,240.9 
					568.2,248 578.4,260.2 572.8,264.3 571.2,267 567.3,266.5 561.1,260.2 558.5,259.9 552.6,257.5 549.7,253.5 541.2,251.2 
					535.8,252.9 534.1,251 521.8,246.1 508.4,244.4 500.6,242.5 499.6,243.9 487.9,234.9 477.4,230.9 469.7,224.5 476.2,223 
					483.7,213.7 478.4,209.3 491.8,204.7 491.5,202.3 483.3,204.2 483.7,199.3 488.6,196 497.3,195.2 498.6,191.4 496.7,185.1 
					500.3,179.1 500.3,175.6 486.9,171.8 481.7,171.8 476.2,166.3 469,168.2 457.3,164.1 457.7,161.7 454.4,156.6 447.2,156 
					446.5,152.2 448.8,149.7 443,142.6 433.5,143.8 431,143.2 428.7,145.9 425.4,145.3 423.1,137.4 420.8,133.1 422.5,132 
					430,132.5 433.5,129.9 431,126.6 424.8,124.4 425.4,122 421.8,119.5 415.9,111 417.9,107.5 416.9,101.3 408.2,98 403.3,99.6 
					402,96.4 392.2,92.8 389.3,84.7 388.6,77.9 384.5,74.6 388.3,70 385.7,56.3 392.2,47.9 390.9,45.2 401.3,36.7 391.9,29.4 
					411.5,9.3 419.4,0.6 				"/>
				<line class="st4" x1="244.9" y1="0.6" x2="244.3" y2="0.6"/>
				<polygon class="st2" points="338.9,108.1 329.4,105.6 316.7,109.9 314.8,115.7 326.1,117.1 343.1,116.8 342.4,113.5 
					343.4,109.9 				"/>
				<polyline class="st2" points="244.9,0.6 296.1,0.6 291.7,16 298.2,27.3 307,35.6 298.5,52.5 289.1,56.1 285.5,80 280.3,93.1 
					269.2,91.7 264,102.4 253.6,102.9 250.6,90.1 242.9,74.3 236,53.9 236.2,53.5 239.9,45.5 247.5,35.1 250.3,16.9 244.5,8.7 
					244.3,0.6 				"/>
				<path id="SI" class="st2" d="M261.5,210.7l7.5,0.8l4.6-2.4l8.1-0.2l1.6-1.9l1.6,0.2l1.6,3.8l-7.2,3l-1,4.3l-3.3,1.1v3l-3.6-0.2
					l-3.3-1.7l-1.6,1.9l-6.2-0.2l2-1.1l-2.3-4.7L261.5,210.7z"/>
				<path id="SK" class="st2" d="M307.3,176.7l0.7,0.8l3.9-1.7l4.6,4.1l5.6-2.4l4.3,1.1l6.6-1.7l8.7,4.3l-2.6,3l-1.6,4.7l-2,1.1
					l-9.7-3.6l-2.9,0.6l-2.3,2.7l-4.3,1.3l-1-0.8l-4.6,1.7l-3.6,0.2l-0.7,2.2l-7.8,1.3l-3.3-1.3l-4.6-3l-1-4.1l0.7-1.3l1.3-2.4
					l3.9,0.2l3.3-1.1l0.3-1.1l1.6-0.6l0.7-2.7l2-0.6l1.3-2.2L307.3,176.7z"/>
				<path id="TR" class="st2" d="M472.3,265.4l13,3.8l10.7-1.7l7.8,0.8l10.7-5.2l9.7-0.6l8.7,4.9l1.6,3.6l-1,4.9l6.9,2.4l3.6,3
					l-6.2,2.7l2.9,11.1l-1.6,3l4.9,7.6l-4.3,1.7l-3.3-2.4l-10.6-1.5l-3.9,1.3l-10.4,1.3l-4.9-0.2l-10.4,3.6h-7.5l-4.9-1.9l-10.1,2.7
					l-2.9-1.9l-0.7,5.2l-2.6,2.2l-2.6,2.2l-3.3-4.3l3.6-3.6l-5.6,0.8l-7.5-2.2l-6.2,5.5l-14,1.1l-7.5-5.2l-9.7-0.2l-2.3,3.8
					l-6.2,1.1l-8.7-5.2l-10.1,0.2l-5.6-9.6l-6.6-5.5l4.6-7.6l-5.9-4.7l10.1-9.6l14-0.2l3.9-7.6l17.3,1.3l11-6.6l10.7-3l15-0.2
					L472.3,265.4z M383.5,271.9l-7.5,5.5l-2.9-4.7v-2.2l2.3-1.1l2.9-6.2l-4.6-2.7l9.4-3.2l7.8,1.3l1,3.8l8.1,3.2l-1.6,2.4l-10.7,0.6
					L383.5,271.9z"/>
				<path id="UA" class="st5" d="M425.4,145.3l3.3,0.6l2.3-2.7l2.6,0.6l9.4-1.1l5.9,7.1l-2.3,2.4l0.7,3.8l7.2,0.6l3.3,5.2l-0.3,2.4
					l11.7,4.1l6.9-1.9l5.6,5.5h5.2l13.3,3.8v3.6l-3.6,6l2,6.2l-1.3,3.8l-8.7,0.8l-4.6,3.2l-0.3,4.9l-7.2,0.8l-6.2,3.6l-8.4,0.6
					l-7.8,4.1l-4.3,2.7l4.9,4.1l4.6,2.7l9.4-0.6l-1.6,3.8l-10.2,1.8l-12.3,6.2l-4.9-2.2l2-4.9l-10.2-3.3l1.6-2.2l10.4-4.3l-1.3-2.2
					l-1.6,1.1l-1.3-0.6l-14.3-2.7l-0.7-4.1l-8.4,1.3l-3.3,6l-7.2,8.1l-4.3-1.9l-4.3,1.7l-3.9-1.9l2.3-1.1l1.6-3.8l2.6-3.6l-0.7-1.9
					l2-0.8l1,1.7l5.6,0.2l2.3-0.8l-1.6-1.1l0.7-1.7l-3.3-2.7l-1.3-4.7l-3.3-1.9l0.7-3.8l-4.3-3l-3.9-0.6l-6.9-3.6l-6.2,1.1l-2.3,1.7
					H374l-2.3,2.7l-6.9,1.1l-3.3,1.7l-4.3-2.7h-5.9l-5.6-1.3l-3.9,2.4l-0.7-3l-4.9-3l1.6-4.7l2.6-3l2,0.6l-2.3-5.2l8.1-9.8l4.6-1.3
					l1-3.2l-4.6-10.6l4.3-0.6l4.9-3.2l7.2-0.2l9.1,1.1l10.1,3l7.2,0.2l3.3,1.7l3.3-2.2l2.3,2.7l8.1-0.6l3.6,1.1l0.7-6.2l2.9-2.7
					L425.4,145.3z"/>
				<ellipse class="st6" cx="188.2" cy="210.7" rx="3.3" ry="2.7"/>
				<ellipse class="st6" cx="211" cy="197.1" rx="3.3" ry="2.7"/>
				<ellipse class="st6" cx="209.4" cy="206.6" rx="1.6" ry="1.3"/>
				<ellipse class="st6" cx="215.9" cy="217.5" rx="1.6" ry="1.3"/>
				<ellipse class="st6" cx="253.3" cy="137.2" rx="3.3" ry="2.7"/>
				<ellipse class="st6" cx="136.2" cy="148.1" rx="3.3" ry="2.7"/>
				<ellipse class="st6" cx="328.1" cy="145.3" rx="3.3" ry="2.7"/>
				<ellipse class="st6" cx="412.8" cy="167.1" rx="4.9" ry="4.1"/>
				<g class="st7">
					<path class="st6" d="M422.6,161.8h1v4h0.7l2.2-4h1l-2.3,4.2l2.6,4.6h-1l-2.5-4.3h-0.7v4.3h-1V161.8z"/>
				</g>
				<g class="st7">
					<path class="st6" d="M429,164.3h0.8v4.8l2.5-4.8h0.8v6.2h-0.8v-4.8l-2.5,4.8H429V164.3z"/>
				</g>
				<g class="st7">
					<path class="st6" d="M435.2,170.4c-0.3-0.2-0.5-0.4-0.7-0.7s-0.2-0.8-0.2-1.4v-1.6c0-0.6,0.1-1.1,0.2-1.4
						c0.1-0.3,0.4-0.6,0.7-0.7c0.3-0.2,0.7-0.2,1.2-0.2s0.9,0.1,1.2,0.2c0.3,0.2,0.5,0.5,0.6,0.8c0.1,0.3,0.2,0.8,0.2,1.5v0.6h-3
						v0.9c0,0.4,0,0.7,0.1,1s0.2,0.4,0.3,0.6c0.1,0.2,0.4,0.2,0.7,0.2c0.3,0,0.6-0.1,0.8-0.2c0.2-0.2,0.3-0.5,0.3-0.9v-0.4h0.9v0.3
						c0,0.6-0.2,1.1-0.5,1.4c-0.3,0.3-0.8,0.5-1.5,0.5C435.9,170.6,435.5,170.5,435.2,170.4z M437.4,166.9v-0.5c0-0.4,0-0.7-0.1-0.9
						c0-0.2-0.1-0.4-0.3-0.5c-0.1-0.1-0.4-0.2-0.7-0.2s-0.5,0.1-0.6,0.2c-0.2,0.1-0.3,0.2-0.3,0.5c-0.1,0.2-0.1,0.6-0.1,1v0.4
						L437.4,166.9L437.4,166.9z"/>
				</g>
				<g class="st7">
					<path class="st6" d="M439.7,164.3h1.8c0.7,0,1.2,0.2,1.5,0.4c0.3,0.2,0.5,0.7,0.5,1.1c0,0.3-0.1,0.6-0.2,0.8
						c-0.1,0.2-0.4,0.4-0.7,0.5c0.4,0.1,0.7,0.2,0.9,0.6s0.3,0.7,0.3,1c0,0.6-0.1,1-0.4,1.3c-0.3,0.3-0.8,0.5-1.6,0.5h-1.9v-6.2
						L439.7,164.3L439.7,164.3z M441.6,167c0.3,0,0.5-0.1,0.7-0.2c0.2-0.2,0.3-0.4,0.3-0.7c0-0.7-0.4-1-1.2-1h-0.8v2H441.6z
						 M441.5,169.9c0.4,0,0.7-0.1,0.9-0.3c0.2-0.2,0.3-0.5,0.3-0.9c0-0.5-0.1-0.7-0.3-0.9c-0.2-0.2-0.5-0.2-0.9-0.2h-0.9v2.4
						L441.5,169.9L441.5,169.9z"/>
				</g>
				<ellipse class="st6" cx="308.6" cy="205.3" rx="3.3" ry="2.7"/>
				<ellipse class="st6" cx="282.5" cy="191.6" rx="3.3" ry="2.7"/>
				<path class="st8" d="M188.2,210.7l0.8-0.5"/>
				<path class="st9" d="M190.5,209.1c53.1-36.6,145.5-49.1,220.3-42.1"/>
				<path class="st8" d="M411.8,167h1"/>
				<path class="st10" d="M209.4,206.6c0-5.2,0.7-9.6,1.6-9.6"/>
				<path class="st10" d="M215.9,217.5c-3.6,0-6.6-4.9-6.6-10.9"/>
				<path class="st11" d="M251.6,137.9c53.6-18,113.5-14.1,161,29.3"/>
				<path class="st11" d="M328.1,145.3c39.8-3.8,65.4,6.8,84.6,21.8"/>
				<path class="st11" d="M136.2,148.1c52.1,22,142.4-5.5,276.6,19"/>
				<path class="st11" d="M282.5,191.6c18.9-13.3,58.2-24.5,130.1-24.5"/>
				<path class="st11" d="M308.6,205.3c24-27.5,75.8-38.1,104.1-38.1"/>
			</g>
		</g>
	</g>
</g>
<ellipse class="st12" cx="328.1" cy="145.3" rx="3.3" ry="2.7"/>
<path id="UA-2" class="st13" d="M425.4,145.3l3.3,0.6l2.3-2.7l2.6,0.6l9.4-1.1l5.9,7.1l-2.3,2.4l0.7,3.8l7.2,0.6l3.3,5.2l-0.3,2.4
	l11.7,4.1l6.9-1.9l5.6,5.5h5.2l13.3,3.8v3.6l-3.6,6l2,6.2l-1.3,3.8l-8.7,0.8l-4.6,3.2l-0.3,4.9l-7.2,0.8l-6.2,3.6l-8.4,0.6l-7.8,4.1
	l-4.3,2.7l4.9,4.1l4.6,2.7l9.4-0.6l-1.6,3.8l-10.2,1.8l-12.3,6.2l-4.9-2.2l2-4.9l-10.2-3.3l1.6-2.2l10.4-4.3l-1.3-2.2l-1.6,1.1
	l-1.3-0.6l-14.3-2.7l-0.7-4.1l-8.4,1.3l-3.3,6l-7.2,8.1l-4.3-1.9l-4.3,1.7l-3.9-1.9l2.3-1.1l1.6-3.8l2.6-3.6l-0.7-1.9l2-0.8l1,1.7
	l5.6,0.2l2.3-0.8l-1.6-1.1l0.7-1.7l-3.3-2.7l-1.3-4.7l-3.3-1.9l0.7-3.8l-4.3-3l-3.9-0.6l-6.9-3.6l-6.2,1.1l-2.3,1.7H374l-2.3,2.7
	l-6.9,1.1l-3.3,1.7l-4.3-2.7h-5.9l-5.6-1.3l-3.9,2.4l-0.7-3l-4.9-3l1.6-4.7l2.6-3l2,0.6l-2.3-5.2l8.1-9.8l4.6-1.3l1-3.2l-4.6-10.6
	l4.3-0.6l4.9-3.2l7.2-0.2l9.1,1.1l10.1,3l7.2,0.2l3.3,1.7l3.3-2.2l2.3,2.7l8.1-0.6l3.6,1.1l0.7-6.2l2.9-2.7L425.4,145.3z"/>
<ellipse class="st12" cx="412.8" cy="167.1" rx="4.9" ry="4.1"/>
<path class="st14" d="M188.2,210.7l0.8-0.5"/>
<path class="st15" d="M190.5,209.1c53.1-36.6,145.5-49.1,220.3-42.1"/>
<path class="st8" d="M411.8,167h1"/>
<path class="st16" d="M209.4,206.6c0-5.2,0.7-9.6,1.6-9.6"/>
<path class="st16" d="M215.9,217.5c-3.6,0-6.6-4.9-6.6-10.9"/>
<path class="st17" d="M251.6,137.9c53.6-18,113.5-14.1,161,29.3"/>
<path class="st17" d="M328.1,145.3c39.8-3.8,65.4,6.8,84.6,21.8"/>
<path class="st17" d="M136.2,148.1c52.1,22,142.4-5.5,276.6,19"/>
<path class="st17" d="M282.5,191.6c18.9-13.3,58.2-24.5,130.1-24.5"/>
<ellipse class="st12" cx="188.2" cy="210.7" rx="3.3" ry="2.7"/>
<ellipse class="st12" cx="211" cy="197.1" rx="3.3" ry="2.7"/>
<ellipse class="st12" cx="209.4" cy="206.6" rx="1.6" ry="1.3"/>
<ellipse class="st12" cx="215.9" cy="217.5" rx="1.6" ry="1.3"/>
<ellipse class="st12" cx="253.3" cy="137.2" rx="3.3" ry="2.7"/>
<ellipse class="st12" cx="136.2" cy="148.1" rx="3.3" ry="2.7"/>
<ellipse class="st12" cx="328.1" cy="145.3" rx="3.3" ry="2.7"/>
<ellipse class="st12" cx="308.6" cy="205.3" rx="3.3" ry="2.7"/>
<ellipse class="st12" cx="282.5" cy="191.6" rx="3.3" ry="2.7"/>
<ellipse class="st12" cx="435.2" cy="178.1" rx="3.3" ry="2.7"/>
<ellipse class="st12" cx="355.9" cy="173.8" rx="3.3" ry="2.7"/>
<ellipse class="st12" cx="365.1" cy="184.3" rx="3.3" ry="2.7"/>
<ellipse class="st12" cx="441" cy="189.1" rx="3.3" ry="2.7"/>
<ellipse class="st12" cx="459.2" cy="172" rx="3.3" ry="2.7"/>
<path class="st17" d="M355.9,174c1,0,21.3-2.9,51-5.5"/>
<path class="st17" d="M365.1,184.3c20-0.7,45.7-14.7,47.7-17.3"/>
<path class="st17" d="M412.8,167c16.2,16.4,23.2,20,27.9,22.1"/>
<path class="st17" d="M412.8,167c10.8,6.1,17.6,9,22.3,11.1"/>
<path class="st17" d="M412.8,167c23.1-22.4,41.7,3,46.4,5.1"/>
<text transform="matrix(1.1954 0 0 1 220.1206 140.0469)" class="st18 st19">Berlin</text>
<text transform="matrix(1.1954 0 0 1 92.2954 150.5703)" class="st18 st19">London</text>
<text transform="matrix(1.1954 0 0 1 284.6948 147.8047)" class="st18 st19">Warsaw</text>
<text transform="matrix(1.1954 0 0 1 174.7524 197.3906)" class="st18 st19">Zurich</text>
<text transform="matrix(1.1954 0 0 1 145.9419 214.0078)" class="st18 st19">Geneva</text>
<text transform="matrix(1.1954 0 0 1 199.9204 226.75)" class="st18 st19">Lugano</text>
<text transform="matrix(1.1954 0 0 1 211.5112 210.1328)" class="st18 st19">Zug</text>
<text transform="matrix(1.1954 0 0 1 242.6391 194.6172)" class="st18 st19">Vienna</text>
<text transform="matrix(1.1954 0 0 1 314.4995 209.0781)" class="st18 st19">Budapest</text>
<rect x="1.3" y="59.6" class="st4" width="617.2" height="274"/>
<linearGradient id="SVGID_3_" gradientUnits="userSpaceOnUse" x1="71.5125" y1="286.9775" x2="548.4875" y2="763.9525" gradientTransform="matrix(1 0 0 -1 0 692.4401)">
	<stop  offset="0" style="stop-color:#FFFFFF;stop-opacity:0"/>
	<stop  offset="0.16" style="stop-color:#FFFFFF;stop-opacity:1.000000e-02"/>
	<stop  offset="0.29" style="stop-color:#FFFFFF;stop-opacity:5.000000e-02"/>
	<stop  offset="0.41" style="stop-color:#FFFFFF;stop-opacity:0.12"/>
	<stop  offset="0.52" style="stop-color:#FFFFFF;stop-opacity:0.21"/>
	<stop  offset="0.63" style="stop-color:#FFFFFF;stop-opacity:0.33"/>
	<stop  offset="0.74" style="stop-color:#FFFFFF;stop-opacity:0.48"/>
	<stop  offset="0.84" style="stop-color:#FFFFFF;stop-opacity:0.66"/>
	<stop  offset="0.94" style="stop-color:#FFFFFF;stop-opacity:0.86"/>
	<stop  offset="1" style="stop-color:#FFFFFF"/>
</linearGradient>
<rect class="st20" width="620" height="333.9"/>
</svg>
