<?xml version="1.0" encoding="utf-8"?>
<!-- Generator: Adobe Illustrator 21.0.2, SVG Export Plug-In . SVG Version: 6.00 Build 0)  -->
<svg version="1.1" id="Layer_1" xmlns="http://www.w3.org/2000/svg" xmlns:xlink="http://www.w3.org/1999/xlink" x="0px" y="0px"
	 viewBox="0 0 230 30" style="enable-background:new 0 0 230 30;" xml:space="preserve">
<style type="text/css">
	.st0{fill-rule:evenodd;clip-rule:evenodd;fill:#FFFFFF;}
</style>
<path class="st0" d="M22.9,16.6c-0.9-1.2-1.8-2.2-2.6-3.2c-1.4-1.7-2.6-3.5-3.2-6.6c-0.4-2.3,0.7-4.1,1.6-5.2
	c-5.9,2.3-8.1,8.7-8.2,13.6c0,4.9,3,10.4,7.9,12c1.8,0.3,3.6-0.1,4.8-1.2c1.2-1.2,1.9-3.1,1.7-5.2C24.5,19.1,23.7,17.8,22.9,16.6
	L22.9,16.6z M54.4,20.8c0-5.9-4.2-9.1-8.6-9.2v13.1c0,1,1.1,3.7,3.8,3.7C52.6,28.4,54.4,24.8,54.4,20.8L54.4,20.8z M88.8,16.6
	c-0.9-1.2-1.8-2.2-2.6-3.2c-1.4-1.7-2.6-3.5-3.2-6.6c-0.4-2.3,0.7-4.1,1.6-5.2c-5.9,2.3-8.1,8.7-8.2,13.6c0,4.9,3,10.4,7.9,12
	c1.8,0.3,3.6-0.1,4.8-1.2c1.2-1.2,1.9-3.1,1.7-5.2C90.4,19.1,89.6,17.8,88.8,16.6L88.8,16.6z M153.2,16.6c-0.9-1.2-1.8-2.2-2.6-3.2
	c-1.4-1.7-2.6-3.5-3.2-6.6c-0.4-2.3,0.6-4.1,1.6-5.2c-5.9,2.3-8.1,8.7-8.2,13.6c0,4.9,3,10.4,7.9,12c1.8,0.3,3.6-0.1,4.8-1.2
	c1.2-1.2,1.9-3.1,1.7-5.2C154.8,19.1,154.1,17.8,153.2,16.6L153.2,16.6z M220.6,21c0-2.5-0.8-4.6-2-6c-1.6-2-4.1-3.2-6.6-3.2V25
	c0,1.5,1.1,3.7,3.8,3.7C219,28.7,220.6,24.7,220.6,21L220.6,21z M34.2,4.6c0-2.7-2-3.7-3.1-3.7c-2,0.1-3.2,1.8-3.3,3.7
	c0,0.9,0.5,1.9,1.3,3.4c0.5,0.7,1.8,3.5,1.9,7.1c-0.1,4.4-1.8,7.6-3.5,9.6c-0.8,1-1.7,1.8-2.4,2.3c-0.3,0.3-0.6,0.5-0.8,0.6L24,27.7
	c-3,1.8-6,2.3-9.3,2.3C7.1,30,0,23.9,0,15C0,7.7,5.2,0,14.4,0H31h9.4h17.8c2.8,0,4.6,2.2,4.6,4.8c0,0.4-0.1,0.9-0.3,1.4
	c-0.2,0.5-0.4,1-0.6,1.6c-0.5,1.1-1,2.3-1.1,3.4c-0.1,0.7-0.5,0.8-0.8,0.1C57.4,5,51.2,1.9,45.7,1.9h-1.5c0.9,1.2,1.6,2.9,1.6,3.9
	v4.5c10.5,0.2,18,4.8,18,11.9c0,5.5-4.7,7.8-7.8,7.8h-16c-3.5,0-5.8-3-5.8-5.6V4.6L34.2,4.6z M176.1,11.8v13.6
	c0,1.3,1.1,3.7,3.2,3.7c0.4,0,0.6,0.1,0.6,0.4c0,0.3-0.2,0.4-0.6,0.4h-9c-3.5,0-5.8-3-5.8-5.6V4.6c0-2.6-2.1-3.7-3.2-3.7
	c-2,0-3.2,1.8-3.2,3.7c0,0.9,0.5,1.9,1.3,3.4c0.4,0.7,1.7,3.5,1.8,7.1c-0.1,4.4-1.8,7.6-3.5,9.6c-0.9,1-1.7,1.8-2.4,2.3
	c-0.3,0.3-0.6,0.5-0.8,0.6l-0.2,0.2c-2.9,1.8-5.9,2.3-9.3,2.3c-7.6,0-14.8-6.1-14.8-15c0-7.3,5.2-15,14.5-15h16.7h9
	c2.9,0,5.8,2.3,5.8,5.8v4.5h7V4.6c0-2.4-2.1-3.7-3.2-3.7c-0.4,0-0.6-0.1-0.6-0.4c0-0.3,0.2-0.4,0.6-0.4h9c2.7,0,5.8,2.2,5.8,5.9
	v19.5c0,1.3,1.1,3.7,3.2,3.7c0.4,0,0.6,0.1,0.6,0.4c0,0.3-0.2,0.4-0.6,0.4h-8.9c-3.6,0-5.8-3-5.8-5.6l0-6.4
	c-0.3-2.7-2.3-4.7-3.8-5.5c-0.7-0.4-1.6-0.5-2.3-0.6C176.6,11.8,176.3,11.8,176.1,11.8L176.1,11.8z M94.9,7.9
	c0.5,0.7,1.8,3.5,1.9,7.1c-0.1,4.4-1.8,7.6-3.5,9.6c-0.9,1-1.7,1.8-2.4,2.3c-0.6,0.5-1.1,0.8-1.2,0.9c-2.8,1.7-5.8,2.2-9.1,2.2
	c-7.7,0-14.8-6.1-14.8-15c0-7.3,5.2-15,14.4-15h16.7c0.4,0,0.6,0.1,0.6,0.4c0,0.3-0.2,0.4-0.6,0.4c-2,0-3.3,2.1-3.3,3.7
	C93.6,5.5,94.1,6.5,94.9,7.9L94.9,7.9z M123.1,5.2l5.3,19.5c1,3.9,3.9,4.4,4.5,4.4c0.4,0,0.6,0.1,0.6,0.4c0,0.3-0.2,0.4-0.6,0.4
	h-10.5c-2.1,0-5-1.4-5.7-5l-4.2-16.8c0,0-3.4,7.1-3.9,8.4c-0.5,1.4-0.9,2.8-0.9,4.1c0,5.1,1.7,7.4,3.8,8.4c0.6,0.3,0.5,0.8-0.1,0.8
	h-8.1c-3.1,0-5.4-2.1-5.4-5.4c0-3.5,2.2-7,3.7-8.5c1.2-1.3,5.4-5.9,5.8-6.2c2.1-2.3,2.8-4.4,2.8-5.3c0-2.2-1.9-3.7-3.3-3.7
	c-0.4,0-0.6-0.2-0.6-0.4c0-0.2,0.2-0.5,0.6-0.5h10.5C120.8,0,122.8,3.1,123.1,5.2L123.1,5.2z M200.5,4.6c0-2.4-2.2-3.7-3.2-3.7
	c-0.4,0-0.6-0.1-0.6-0.4c0-0.3,0.2-0.4,0.6-0.4h9.5c1.7,0.1,2.9,1,3.9,2c0.9,1,1.4,2.7,1.4,3.8v4.5c4.3,0.1,8,1,11,2.3
	c4.4,2.1,7,5.4,7,9.5c0,5.5-4.7,7.8-7.7,7.8h-16c-3.6,0-5.8-3-5.8-5.6V4.6L200.5,4.6z"/>
</svg>
