<?xml version="1.0" encoding="utf-8"?>
<!-- Generator: Adobe Illustrator 21.0.2, SVG Export Plug-In . SVG Version: 6.00 Build 0)  -->
<svg version="1.1" id="Layer_1" xmlns="http://www.w3.org/2000/svg" xmlns:xlink="http://www.w3.org/1999/xlink" x="0px" y="0px"
	 viewBox="0 0 80 70" style="enable-background:new 0 0 80 70;" xml:space="preserve">
<style type="text/css">
	.st0{fill:#FFFFFF;}
	.st1{fill:#003F6F;}
	.st2{fill:#0086FF;}
</style>
<g>
	<rect class="st0" width="80" height="70"/>
</g>
<g>
	<path class="st0" d="M8.5,40.5h9c4.4,0,8,3.6,8,8v21l0,0h-25l0,0v-21C0.5,44.1,4.1,40.5,8.5,40.5z"/>
	<path class="st1" d="M26,70H0V48.5C0,43.8,3.8,40,8.5,40h9c4.7,0,8.5,3.8,8.5,8.5V70z M1,69h24V48.5c0-4.1-3.4-7.5-7.5-7.5h-9
		C4.4,41,1,44.4,1,48.5V69z"/>
</g>
<g>
	<path class="st0" d="M62.5,40.5h9c4.4,0,8,3.6,8,8v21l0,0h-25l0,0v-21C54.5,44.1,58.1,40.5,62.5,40.5z"/>
	<path class="st2" d="M80,70H54V48.5c0-4.7,3.8-8.5,8.5-8.5h9c4.7,0,8.5,3.8,8.5,8.5V70z M55,69h24V48.5c0-4.1-3.4-7.5-7.5-7.5h-9
		c-4.1,0-7.5,3.4-7.5,7.5V69z"/>
</g>
<g>
	<path class="st0" d="M62.5,40.5h9c4.4,0,8,3.6,8,8v21l0,0h-25l0,0v-21C54.5,44.1,58.1,40.5,62.5,40.5z"/>
	<path class="st1" d="M80,70H54V48.5c0-4.7,3.8-8.5,8.5-8.5h9c4.7,0,8.5,3.8,8.5,8.5V70z M55,69h24V48.5c0-4.1-3.4-7.5-7.5-7.5h-9
		c-4.1,0-7.5,3.4-7.5,7.5V69z"/>
</g>
<g>
	<path class="st1" d="M54,22H27v-4.5C27,10.1,33.1,4,40.5,4C47.9,4,54,10.1,54,17.5V22z M28,21h25v-3.5C53,10.6,47.4,5,40.5,5
		S28,10.6,28,17.5V21z"/>
</g>
<g>
	<rect x="38.5" y="3.5" class="st0" width="4" height="10"/>
	<path class="st1" d="M43,14h-5V3h5V14z M39,13h3V4h-3V13z"/>
</g>
<g>
	<circle class="st0" cx="40.5" cy="14.5" r="4"/>
	<path class="st1" d="M40.5,19C38,19,36,17,36,14.5s2-4.5,4.5-4.5s4.5,2,4.5,4.5S43,19,40.5,19z M40.5,11c-1.9,0-3.5,1.6-3.5,3.5
		s1.6,3.5,3.5,3.5s3.5-1.6,3.5-3.5S42.4,11,40.5,11z"/>
</g>
<g>
	<rect x="33.5" y="33.5" class="st0" width="14" height="11"/>
	<path class="st1" d="M48,45H33V33h15V45z M34,44h13V34H34V44z"/>
</g>
<g>
	<rect x="26" y="21" class="st1" width="29" height="1"/>
</g>
<g>
	<path class="st0" d="M50.5,27c0,5.5-4.5,10-10,10s-10-4.5-10-10v-5.5h20V27z"/>
	<path class="st1" d="M40.5,37.5C34.7,37.5,30,32.8,30,27v-6h21v6C51,32.8,46.3,37.5,40.5,37.5z M31,22v5c0,5.2,4.3,9.5,9.5,9.5
		S50,32.2,50,27v-5H31z"/>
</g>
<g>
	<path class="st1" d="M21,32H4v-2.6c0-2.3,0.8-4.4,2.4-6c1.6-1.6,3.7-2.6,6-2.6c2.3-0.1,4.4,0.8,6.1,2.4c1.6,1.6,2.6,3.7,2.6,6V32z
		 M5,31h15v-1.9c0-2-0.9-3.9-2.3-5.3c-1.4-1.4-3.3-2.1-5.3-2.1c-2,0-3.9,0.9-5.3,2.3C5.7,25.5,5,27.4,5,29.4V31z"/>
</g>
<g>
	<path class="st0" d="M18.5,35.8c0,3.3-2.6,6-5.9,6.1c-0.3,0-0.6,0-0.9-0.1c-3-0.5-5.2-3.1-5.2-6.2v-4.1h12V35.8z"/>
	<path class="st1" d="M12.5,42.4c-0.3,0-0.6,0-0.9-0.1C8.3,41.8,6,38.9,6,35.6V31h13v4.8c0,1.7-0.6,3.4-1.9,4.6
		C15.9,41.6,14.3,42.3,12.5,42.4C12.5,42.4,12.5,42.4,12.5,42.4z M7,32v3.6c0,2.9,2,5.2,4.8,5.7c0.2,0,0.5,0,0.8,0
		c1.5,0,2.8-0.6,3.9-1.6c1-1,1.6-2.4,1.6-3.9V32H7z"/>
</g>
<g>
	<rect x="3.5" y="31" class="st1" width="18" height="1"/>
</g>
<g>
	<path class="st1" d="M31,26h-1.5c-0.8,0-1.5-0.7-1.5-1.5V21h3V26z M29,22v2.5c0,0.3,0.2,0.5,0.5,0.5H30v-3H29z"/>
</g>
<g>
	<path class="st1" d="M51.5,26H50v-5h3v3.5C53,25.3,52.3,26,51.5,26z M51,25h0.5c0.3,0,0.5-0.2,0.5-0.5V22h-1V25z"/>
</g>
<g>
	<path class="st0" d="M27.5,42.5h26c6.6,0,12,5.4,12,12v15l0,0h-50l0,0v-15C15.5,47.9,20.9,42.5,27.5,42.5z"/>
	<path class="st1" d="M66,70H15V54.5C15,47.6,20.6,42,27.5,42h26C60.4,42,66,47.6,66,54.5V70z M16,69h49V54.5
		C65,48.2,59.8,43,53.5,43h-26C21.2,43,16,48.2,16,54.5V69z"/>
</g>
<g>
	<polygon class="st0" points="40.5,46.5 31.5,43.5 31.5,39.5 40.5,42.5 	"/>
	<path class="st1" d="M41,47.2l-10-3.3v-5.1l10,3.3V47.2z M32,43.1l8,2.7v-2.9l-8-2.7V43.1z"/>
</g>
<g>
	<polygon class="st0" points="49.5,43.5 40.5,46.5 40.5,42.5 49.5,39.5 	"/>
	<path class="st1" d="M40,47.2v-5.1l10-3.3v5.1L40,47.2z M41,42.9v2.9l8-2.7v-2.9L41,42.9z"/>
</g>
<g>
	<rect x="25" y="43" class="st1" width="1" height="27"/>
</g>
<g>
	<polygon class="st1" points="50,58 31,58 31,43 32,43 32,57 49,57 49,43 50,43 	"/>
</g>
<g>
	<rect x="31.5" y="61" class="st1" width="18" height="1"/>
</g>
<g>
	<rect x="31.5" y="65" class="st1" width="18" height="1"/>
</g>
<g>
	<rect x="55" y="43" class="st1" width="1" height="27"/>
</g>
<g>
	<path class="st0" d="M4.5,31.5h2l0,0v3l0,0l0,0c-1.1,0-2-0.9-2-2V31.5L4.5,31.5z"/>
	<path class="st1" d="M7,35H6.5C5.1,35,4,33.9,4,32.5V31h3V35z M5,32v0.5c0,0.7,0.4,1.2,1,1.4V32H5z"/>
</g>
<g>
	<path class="st1" d="M76,32H59v-2.6c0-2.3,0.8-4.4,2.4-6c1.6-1.6,3.7-2.6,6-2.6c4.7-0.1,8.6,3.7,8.7,8.3V32z M60,31h15v-1.9
		c-0.1-4.1-3.5-7.4-7.6-7.4c-2,0-3.9,0.9-5.3,2.3c-1.4,1.4-2.1,3.3-2.1,5.3V31z"/>
</g>
<g>
	<path class="st0" d="M73.5,35.8c0,3.3-2.6,6-5.9,6.1c-0.3,0-0.6,0-0.9-0.1c-3-0.5-5.2-3.1-5.2-6.2v-4.1h12V35.8z"/>
	<path class="st1" d="M67.5,42.4c-0.3,0-0.6,0-0.9-0.1c-3.3-0.5-5.7-3.4-5.6-6.7V31h13v4.8c0,1.7-0.6,3.4-1.9,4.6
		C70.9,41.6,69.3,42.3,67.5,42.4C67.5,42.4,67.5,42.4,67.5,42.4z M62,32v3.6c0,2.9,2,5.2,4.8,5.7c0.2,0,0.5,0.1,0.8,0
		c1.5,0,2.8-0.6,3.9-1.6s1.6-2.4,1.6-3.9V32H62z"/>
</g>
<g>
	<rect x="58.5" y="31" class="st1" width="18" height="1"/>
</g>
<g>
	<path class="st0" d="M59.5,31.5h2l0,0v3l0,0l0,0c-1.1,0-2-0.9-2-2V31.5L59.5,31.5z"/>
	<path class="st1" d="M62,35h-0.5c-1.4,0-2.5-1.1-2.5-2.5V31h3V35z M60,32v0.5c0,0.7,0.4,1.2,1,1.4V32H60z"/>
</g>
<g>
	<path class="st0" d="M18.5,34.5L18.5,34.5L18.5,34.5v-3l0,0h2l0,0v1C20.5,33.6,19.6,34.5,18.5,34.5z"/>
	<path class="st1" d="M18.5,35H18v-4h3v1.5C21,33.9,19.9,35,18.5,35z M19,32v1.9c0.6-0.2,1-0.8,1-1.4V32H19z"/>
</g>
<g>
	<path class="st0" d="M73.5,34.5L73.5,34.5L73.5,34.5v-3l0,0h2l0,0v1C75.5,33.6,74.6,34.5,73.5,34.5z"/>
	<path class="st1" d="M73.5,35H73v-4h3v1.5C76,33.9,74.9,35,73.5,35z M74,32v1.9c0.6-0.2,1-0.8,1-1.4V32H74z"/>
</g>
</svg>
