<?xml version="1.0" encoding="utf-8"?>
<!-- Generator: Adobe Illustrator 21.0.2, SVG Export Plug-In . SVG Version: 6.00 Build 0)  -->
<svg version="1.1" id="Layer_1" xmlns="http://www.w3.org/2000/svg" xmlns:xlink="http://www.w3.org/1999/xlink" x="0px" y="0px"
	 viewBox="0 0 80.2 70" style="enable-background:new 0 0 80.2 70;" xml:space="preserve">
<style type="text/css">
	.st0{fill:#FFFFFF;}
	.st1{fill:#003F6F;}
	.st2{fill:#0086FF;}
</style>
<g>
	<g>
		<rect class="st0" width="80" height="70"/>
	</g>
	<g>
		<rect x="61.5" y="24.5" class="st0" width="8" height="9"/>
		<path class="st1" d="M70,34h-9V24h9V34z M62,33h7v-8h-7V33z"/>
	</g>
	<g>
		<rect x="61.5" y="33" class="st2" width="8" height="1"/>
	</g>
	<g>
		<polyline class="st0" points="70.6,37.5 79.5,69.5 71.5,69.5 67.1,53.5 63.9,53.5 59.5,69.5 51.5,69.5 60.4,37.5 		"/>
		<polygon class="st1" points="80.2,70 71.1,70 66.7,54 64.3,54 59.9,70 50.8,70 59.9,37.4 60.9,37.6 52.2,69 59.1,69 63.5,53 
			67.5,53 71.9,69 78.8,69 70.1,37.6 71.1,37.4 		"/>
	</g>
	<g>
		<rect x="62.7" y="57.5" class="st1" width="5.6" height="1"/>
	</g>
	<g>
		<path class="st1" d="M74,38H57v-5h17V38z M58,37h15v-3H58V37z"/>
	</g>
	<g>
		<rect x="59.5" y="24.5" class="st0" width="12" height="4"/>
		<path class="st1" d="M72,29H59v-5h13V29z M60,28h11v-3H60V28z"/>
	</g>
	<g>
		<rect x="60.7" y="65.5" class="st1" width="9.6" height="1"/>
	</g>
	<g>
		<path class="st1" d="M63.3,22.1c-0.1,0-0.2,0-0.3-0.1c-0.3-0.2-6.9-4.2-5.3-10.3c0.8-3.1,2-4.5,3-5.7c0.9-1.1,1.7-2,2.1-4.1
			c0-0.1,0.1-0.3,0.3-0.3c0.1-0.1,0.3-0.1,0.4,0c0.1,0,5.6,2.8,5.2,9c0.4-0.4,0.9-1.2,1.1-2.5c0-0.2,0.2-0.4,0.4-0.4
			c0.2,0,0.4,0.1,0.5,0.3c0,0.1,4.9,9.4-3,13.7c-0.2,0.1-0.4,0.1-0.6-0.1C67,21.4,67,21.2,67,21c0.3-0.6,0.8-1.9,1-3.1
			c-0.3,0.4-0.5,0.7-0.9,1C67,19,66.8,19,66.6,19c-0.2-0.1-0.3-0.2-0.3-0.4c-0.1-1.2-0.7-2.3-1.5-3.2c-0.7-0.7-1.2-1.6-1.5-2.5
			c-1,1.5-2.5,4.9,0.5,8.4c0.2,0.2,0.2,0.5,0,0.6C63.6,22,63.4,22.1,63.3,22.1z M68.4,15.3c0.2,0,0.4,0.1,0.5,0.3
			c0.5,1.3,0.1,3.1-0.4,4.3c4-3.1,2.8-7.9,1.9-10.2c-0.7,2-2.2,2.3-2.2,2.3c-0.2,0-0.3,0-0.5-0.1c-0.1-0.1-0.2-0.3-0.1-0.4
			c0.8-5-2.6-7.8-4-8.6c-0.5,1.9-1.3,2.8-2.2,3.9c-1,1.2-2,2.4-2.8,5.3c-0.8,3.2,1.1,5.9,2.8,7.5c-1.7-4.4,1.6-8.1,1.7-8.2
			c0.1-0.1,0.3-0.2,0.5-0.1c0.2,0.1,0.3,0.2,0.3,0.4c0.1,1.1,0.6,2.2,1.5,3c0.8,0.7,1.4,1.7,1.7,2.7c0.4-0.5,0.6-1.1,0.8-1.7
			C68,15.5,68.2,15.3,68.4,15.3C68.4,15.3,68.4,15.3,68.4,15.3z"/>
	</g>
	<g>
		<rect x="39.5" y="33.5" class="st0" width="8" height="36"/>
		<path class="st1" d="M48,70h-9V33h9V70z M40,69h7V34h-7V69z"/>
	</g>
	<g>
		<rect x="26.5" y="39.5" class="st0" width="8" height="30"/>
		<path class="st1" d="M35,70h-9V39h9V70z M27,69h7V40h-7V69z"/>
	</g>
	<g>
		<rect x="13.5" y="45.5" class="st0" width="8" height="24"/>
		<path class="st1" d="M22,70h-9V45h9V70z M14,69h7V46h-7V69z"/>
	</g>
	<g>
		<rect x="0.5" y="51.5" class="st0" width="8" height="18"/>
		<path class="st1" d="M9,70H0V51h9V70z M1,69h7V52H1V69z"/>
	</g>
	<g>
		
			<rect x="66.1" y="56.4" transform="matrix(0.7071 -0.7071 0.7071 0.7071 -24.2425 65.1736)" class="st1" width="1" height="10.9"/>
	</g>
	<g>
		<rect x="58.9" y="61.4" transform="matrix(0.7071 -0.7071 0.7071 0.7071 -24.9075 63.6677)" class="st1" width="11" height="1"/>
	</g>
</g>
</svg>
