<?xml version="1.0" encoding="utf-8"?>
<!-- Generator: Adobe Illustrator 21.0.2, SVG Export Plug-In . SVG Version: 6.00 Build 0)  -->
<svg version="1.1" id="Layer_1" xmlns="http://www.w3.org/2000/svg" xmlns:xlink="http://www.w3.org/1999/xlink" x="0px" y="0px"
	 viewBox="0 0 939 608" style="enable-background:new 0 0 939 608;" xml:space="preserve">
<style type="text/css">
	.st0{display:none;enable-background:new    ;}
	.st1{display:inline;fill:#003F6F;}
	.st2{display:none;}
	.st3{display:inline;}
	.st4{fill:#FFFFFF;}
	.st5{clip-path:url(#SVGID_2_);}
	.st6{fill:#D6ECFF;stroke:#FFFFFF;stroke-width:1.5152;}
	.st7{fill:#99CFFF;stroke:#FFFFFF;stroke-width:1.5152;}
	.st8{fill:none;}
	.st9{fill:#FFFFFF;stroke:#0086FF;stroke-width:1.5152;}
	.st10{fill:#0086FF;}
	.st11{enable-background:new    ;}
	.st12{fill:none;stroke:#0086FF;stroke-width:1.5152;}
	.st13{fill:none;stroke:#0086FF;stroke-width:1.5152;stroke-dasharray:3.0608,3.0608;}
	.st14{fill:none;stroke:#0086FF;stroke-width:1.5152;stroke-dasharray:1.5152,1.5152;}
	.st15{fill:none;stroke:#0086FF;stroke-width:1.5152;stroke-dasharray:3.0304,3.0304;}
	.st16{fill:url(#SVGID_3_);}
	.st17{fill:url(#SVGID_4_);}
	.st18{fill:#003F6F;}
	.st19{fill:#FFFFFF;stroke:#003F6F;stroke-width:1.5152;}
	.st20{fill:none;stroke:#003F6F;stroke-width:1.5152;}
	.st21{fill:none;stroke:#003F6F;stroke-width:1.5152;stroke-dasharray:3.0608,3.0608;}
	.st22{fill:none;stroke:#003F6F;stroke-width:1.5152;stroke-dasharray:1.5152,1.5152;}
	.st23{fill:none;stroke:#003F6F;stroke-width:1.5152;stroke-dasharray:3.0304,3.0304;}
</style>
<g class="st0">
	<path class="st1" d="M422,194h1v4.8h0.7l2.2-4.8h1l-2.3,5.1l2.6,5.5h-1l-2.5-5.2H423v5.2h-1V194z"/>
</g>
<g class="st0">
	<path class="st1" d="M428.4,197h0.8v5.8l2.5-5.8h0.8v7.5h-0.8v-5.8l-2.5,5.8h-0.8V197z"/>
</g>
<g class="st0">
	<path class="st1" d="M433.1,194h1v1.2h-1V194z M434.1,197h0.9v7.5h-0.9V197z M435.2,194h1v1.2h-1V194z"/>
</g>
<g class="st0">
	<path class="st1" d="M436.6,197h1.8c0.7,0,1.2,0.2,1.5,0.5s0.5,0.8,0.5,1.3c0,0.4-0.1,0.7-0.2,1s-0.4,0.5-0.7,0.6
		c0.4,0.1,0.7,0.3,0.9,0.7s0.3,0.8,0.3,1.2c0,0.7-0.1,1.2-0.4,1.6c-0.3,0.4-0.8,0.6-1.6,0.6h-1.9V197H436.6z M438.5,200.2
		c0.3,0,0.5-0.1,0.7-0.3s0.3-0.5,0.3-0.9c0-0.8-0.4-1.2-1.2-1.2h-0.8v2.4H438.5z M438.4,203.8c0.4,0,0.7-0.1,0.9-0.4
		c0.2-0.2,0.3-0.6,0.3-1.1c0-0.6-0.1-0.9-0.3-1.1c-0.2-0.2-0.5-0.3-0.9-0.3h-0.9v2.9L438.4,203.8L438.4,203.8z"/>
</g>
<g class="st2">
	<path class="st3" d="M362.1,209.2v4.7h-0.6v-4.2h-1.6v1.4c0,1,0,2.2-0.7,2.6c-0.2,0.1-0.4,0.2-0.7,0.2l-0.1-0.5
		c0.2,0,0.4-0.1,0.5-0.3c0.4-0.4,0.4-1.3,0.4-2v-2H362.1z"/>
	<path class="st3" d="M363.7,210.5v1.1c0.1,0,0.4,0,0.6,0c0.8,0,1.6,0.2,1.6,1.1c0,0.4-0.1,0.6-0.4,0.8c-0.4,0.3-1,0.4-1.5,0.4
		c-0.3,0-0.7,0-0.9,0v-3.4H363.7z M363.7,213.5c0.1,0,0.3,0,0.5,0c0.5,0,1.1-0.2,1.1-0.7c0-0.6-0.6-0.7-1.1-0.7c-0.2,0-0.3,0-0.4,0
		V213.5z"/>
	<path class="st3" d="M366.6,210.6c0.2,0,0.7-0.1,1.1-0.1c0.6,0,1.5,0.1,1.5,0.8c0,0.4-0.3,0.7-0.7,0.8v0c0.5,0.1,0.9,0.3,0.9,0.8
		c0,0.9-1.1,1-1.8,1c-0.4,0-0.8,0-1,0V210.6z M367.2,213.5c0.2,0,0.3,0,0.5,0c0.4,0,1-0.1,1-0.6s-0.5-0.6-1.1-0.6h-0.4V213.5z
		 M367.2,212h0.5c0.5,0,0.9-0.1,0.9-0.5c0-0.3-0.3-0.5-0.9-0.5c-0.2,0-0.3,0-0.5,0V212z"/>
	<path class="st3" d="M370.8,209.6c0,0.2-0.1,0.4-0.4,0.4c-0.2,0-0.4-0.2-0.4-0.4c0-0.2,0.2-0.4,0.4-0.4
		C370.7,209.2,370.8,209.4,370.8,209.6z M370.1,213.9v-3.4h0.6v3.4H370.1z"/>
	<path class="st3" d="M371.8,210.6c0.2,0,0.7-0.1,1.1-0.1c0.6,0,1.5,0.1,1.5,0.8c0,0.4-0.3,0.7-0.7,0.8v0c0.5,0.1,0.9,0.3,0.9,0.8
		c0,0.9-1.1,1-1.8,1c-0.4,0-0.8,0-1,0V210.6z M372.3,213.5c0.2,0,0.3,0,0.5,0c0.4,0,1-0.1,1-0.6s-0.5-0.6-1.1-0.6h-0.4V213.5z
		 M372.4,212h0.5c0.5,0,0.9-0.1,0.9-0.5c0-0.3-0.3-0.5-0.9-0.5c-0.2,0-0.3,0-0.5,0V212z"/>
	<path class="st3" d="M377.7,213.8c-0.2,0.1-0.5,0.2-1,0.2c-1,0-1.7-0.7-1.7-1.7c0-1,0.7-1.8,1.8-1.8c0.4,0,0.7,0.1,0.9,0.2
		l-0.1,0.5c-0.1-0.1-0.4-0.2-0.7-0.2c-0.8,0-1.2,0.6-1.2,1.3c0,0.8,0.5,1.3,1.2,1.3c0.3,0,0.6-0.1,0.8-0.2L377.7,213.8z"/>
	<path class="st3" d="M379,210.5v1.1c0.1,0,0.4,0,0.6,0c0.8,0,1.6,0.2,1.6,1.1c0,0.4-0.1,0.6-0.4,0.8c-0.4,0.3-1,0.4-1.5,0.4
		c-0.3,0-0.7,0-0.9,0v-3.4H379z M379,213.5c0.1,0,0.3,0,0.5,0c0.5,0,1.1-0.2,1.1-0.7c0-0.6-0.6-0.7-1.1-0.7c-0.2,0-0.3,0-0.4,0
		V213.5z"/>
	<path class="st3" d="M382.5,210.5v1.5h0.1l1.3-1.5h0.8l-1.5,1.5c0.5,0.1,0.9,0.4,1.1,1c0.1,0.2,0.2,0.6,0.4,0.8h-0.6
		c-0.1-0.1-0.2-0.4-0.3-0.7c-0.2-0.5-0.5-0.8-1.1-0.8h-0.1v1.5h-0.6v-3.4H382.5z"/>
	<path class="st3" d="M387.2,213.9l0-0.4h0c-0.2,0.3-0.6,0.5-1,0.5c-0.7,0-1-0.5-1-1c0-0.8,0.7-1.3,2-1.3v-0.1
		c0-0.3-0.1-0.8-0.8-0.8c-0.3,0-0.6,0.1-0.9,0.3l-0.1-0.4c0.3-0.2,0.7-0.3,1.1-0.3c1,0,1.3,0.7,1.3,1.4v1.3c0,0.3,0,0.6,0.1,0.8
		H387.2z M387.1,212.2c-0.7,0-1.4,0.1-1.4,0.8c0,0.4,0.3,0.6,0.6,0.6c0.4,0,0.7-0.3,0.8-0.6c0-0.1,0-0.1,0-0.2V212.2z"/>
</g>
<g class="st2">
	<path class="st3" d="M369.1,221.5v4.7h-0.6v-4.7H369.1z"/>
	<path class="st3" d="M370.1,222.8c0.2,0,0.7-0.1,1.1-0.1c0.6,0,1.5,0.1,1.5,0.8c0,0.4-0.3,0.7-0.7,0.8v0c0.5,0.1,0.9,0.3,0.9,0.8
		c0,0.9-1.1,1-1.8,1c-0.4,0-0.8,0-1,0V222.8z M370.7,225.8c0.2,0,0.3,0,0.5,0c0.4,0,1-0.1,1-0.6s-0.5-0.6-1.1-0.6h-0.4V225.8z
		 M370.7,224.2h0.5c0.5,0,0.9-0.1,0.9-0.5c0-0.3-0.3-0.5-0.9-0.5c-0.2,0-0.3,0-0.5,0V224.2z"/>
	<path class="st3" d="M375.5,226.2l0-0.4h0c-0.2,0.3-0.6,0.5-1,0.5c-0.7,0-1-0.5-1-1c0-0.8,0.7-1.3,2-1.3V224c0-0.3-0.1-0.8-0.8-0.8
		c-0.3,0-0.6,0.1-0.9,0.3l-0.1-0.4c0.3-0.2,0.7-0.3,1.1-0.3c1,0,1.3,0.7,1.3,1.4v1.3c0,0.3,0,0.6,0.1,0.8H375.5z M375.4,224.5
		c-0.7,0-1.4,0.1-1.4,0.8c0,0.4,0.3,0.6,0.6,0.6c0.4,0,0.7-0.3,0.8-0.6c0-0.1,0-0.1,0-0.2V224.5z"/>
	<path class="st3" d="M377.6,222.8v1.4h1.6v-1.4h0.6v3.4h-0.6v-1.5h-1.6v1.5H377v-3.4H377.6z"/>
	<path class="st3" d="M383.9,224.5c0,1.3-0.9,1.8-1.7,1.8c-0.9,0-1.6-0.7-1.6-1.7c0-1.1,0.7-1.8,1.7-1.8
		C383.2,222.7,383.9,223.4,383.9,224.5z M381.2,224.5c0,0.7,0.4,1.3,1,1.3c0.6,0,1-0.6,1-1.3c0-0.6-0.3-1.3-1-1.3
		C381.5,223.2,381.2,223.9,381.2,224.5z"/>
	<path class="st3" d="M386.1,224.1v0.5h-1.7v-0.5H386.1z"/>
	<path class="st3" d="M389.1,221.3v0.4c1,0,2,0.6,2,2.1c0,1.5-1,2.1-2,2.1v0.4h-0.6v-0.4c-1-0.1-2-0.6-2-2.1c0-1.5,1.1-2.1,2-2.2
		v-0.4H389.1z M388.6,222.1c-0.6,0-1.4,0.5-1.4,1.7c0,1.1,0.7,1.6,1.4,1.7V222.1z M389.1,225.5c0.7-0.1,1.4-0.5,1.4-1.7
		c0-1.2-0.7-1.6-1.4-1.7V225.5z"/>
	<path class="st3" d="M391.9,223.9c0-0.4,0-0.8,0-1.1h0.6l0,0.6h0c0.3-0.4,0.7-0.7,1.2-0.7c0.8,0,1.4,0.7,1.4,1.7
		c0,1.2-0.7,1.8-1.5,1.8c-0.4,0-0.8-0.2-1-0.5h0v1.8h-0.6V223.9z M392.5,224.8c0,0.1,0,0.2,0,0.3c0.1,0.4,0.5,0.7,0.9,0.7
		c0.7,0,1-0.5,1-1.3c0-0.7-0.4-1.3-1-1.3c-0.4,0-0.8,0.3-0.9,0.8c0,0.1,0,0.2,0,0.3V224.8z"/>
	<path class="st3" d="M397.8,226.2l0-0.4h0c-0.2,0.3-0.6,0.5-1,0.5c-0.7,0-1-0.5-1-1c0-0.8,0.7-1.3,2-1.3V224c0-0.3-0.1-0.8-0.8-0.8
		c-0.3,0-0.6,0.1-0.9,0.3l-0.1-0.4c0.3-0.2,0.7-0.3,1.1-0.3c1,0,1.3,0.7,1.3,1.4v1.3c0,0.3,0,0.6,0.1,0.8H397.8z M397.7,224.5
		c-0.7,0-1.4,0.1-1.4,0.8c0,0.4,0.3,0.6,0.6,0.6c0.4,0,0.7-0.3,0.8-0.6c0-0.1,0-0.1,0-0.2V224.5z"/>
	<path class="st3" d="M399.9,222.8v1.4h1.6v-1.4h0.6v3.4h-0.6v-1.5h-1.6v1.5h-0.6v-3.4H399.9z"/>
	<path class="st3" d="M403.7,222.8v1.5h0.1l1.3-1.5h0.8l-1.5,1.5c0.5,0.1,0.9,0.4,1.1,1c0.1,0.2,0.2,0.6,0.4,0.8h-0.6
		c-0.1-0.1-0.2-0.4-0.3-0.7c-0.2-0.5-0.5-0.8-1.1-0.8h-0.1v1.5h-0.6v-3.4H403.7z"/>
	<path class="st3" d="M407.1,221.8c0,0.2-0.1,0.4-0.4,0.4c-0.2,0-0.4-0.2-0.4-0.4c0-0.2,0.2-0.4,0.4-0.4
		C407,221.5,407.1,221.6,407.1,221.8z M406.4,226.2v-3.4h0.6v3.4H406.4z"/>
	<path class="st3" d="M408.1,222.8c0.2,0,0.7-0.1,1.1-0.1c0.6,0,1.5,0.1,1.5,0.8c0,0.4-0.3,0.7-0.7,0.8v0c0.5,0.1,0.9,0.3,0.9,0.8
		c0,0.9-1.1,1-1.8,1c-0.4,0-0.8,0-1,0V222.8z M408.6,225.8c0.2,0,0.3,0,0.5,0c0.4,0,1-0.1,1-0.6s-0.5-0.6-1.1-0.6h-0.4V225.8z
		 M408.6,224.2h0.5c0.5,0,0.9-0.1,0.9-0.5c0-0.3-0.3-0.5-0.9-0.5c-0.2,0-0.3,0-0.5,0V224.2z"/>
	<path class="st3" d="M414,226.1c-0.2,0.1-0.5,0.2-1,0.2c-1,0-1.7-0.7-1.7-1.7c0-1,0.7-1.8,1.8-1.8c0.4,0,0.7,0.1,0.9,0.2l-0.1,0.5
		c-0.1-0.1-0.4-0.2-0.7-0.2c-0.8,0-1.2,0.6-1.2,1.3c0,0.8,0.5,1.3,1.2,1.3c0.3,0,0.6-0.1,0.8-0.2L414,226.1z"/>
	<path class="st3" d="M415.3,222.8v1.1c0.1,0,0.4,0,0.6,0c0.8,0,1.6,0.2,1.6,1.1c0,0.4-0.1,0.6-0.4,0.8c-0.4,0.3-1,0.4-1.5,0.4
		c-0.3,0-0.7,0-0.9,0v-3.4H415.3z M415.3,225.8c0.1,0,0.3,0,0.5,0c0.5,0,1.1-0.2,1.1-0.7c0-0.6-0.6-0.7-1.1-0.7c-0.2,0-0.3,0-0.4,0
		V225.8z"/>
	<path class="st3" d="M418.8,222.8v1.5h0.1l1.3-1.5h0.8l-1.5,1.5c0.5,0.1,0.9,0.4,1.1,1c0.1,0.2,0.2,0.6,0.4,0.8h-0.6
		c-0.1-0.1-0.2-0.4-0.3-0.7c-0.2-0.5-0.5-0.8-1.1-0.8h-0.1v1.5h-0.6v-3.4H418.8z"/>
	<path class="st3" d="M423.5,226.2l0-0.4h0c-0.2,0.3-0.6,0.5-1,0.5c-0.7,0-1-0.5-1-1c0-0.8,0.7-1.3,2-1.3V224c0-0.3-0.1-0.8-0.8-0.8
		c-0.3,0-0.6,0.1-0.9,0.3l-0.1-0.4c0.3-0.2,0.7-0.3,1.1-0.3c1,0,1.3,0.7,1.3,1.4v1.3c0,0.3,0,0.6,0.1,0.8H423.5z M423.4,224.5
		c-0.7,0-1.4,0.1-1.4,0.8c0,0.4,0.3,0.6,0.6,0.6c0.4,0,0.7-0.3,0.8-0.6c0-0.1,0-0.1,0-0.2V224.5z"/>
</g>
<g class="st2">
	<path class="st3" d="M447.8,227.8v4.2l0.4,0l0,1.6h-0.5l0-1.1h-3l0,1.1h-0.5l0-1.6l0.4,0c0.2-0.3,0.3-0.7,0.5-1
		c0.2-0.5,0.2-1.2,0.2-2v-1.2H447.8z M445.7,229.2c0,0.8-0.1,1.4-0.2,1.9c-0.1,0.3-0.2,0.6-0.4,0.9h2.1v-3.7h-1.5V229.2z"/>
	<path class="st3" d="M449.5,229.2v1.4h1.6v-1.4h0.6v3.4h-0.6V231h-1.6v1.5h-0.6v-3.4H449.5z"/>
	<path class="st3" d="M453.4,228.2c0,0.2-0.1,0.4-0.4,0.4c-0.2,0-0.4-0.2-0.4-0.4c0-0.2,0.2-0.4,0.4-0.4
		C453.3,227.8,453.4,228,453.4,228.2z M452.8,232.6v-3.4h0.6v3.4H452.8z"/>
	<path class="st3" d="M457.2,229.2v3.4h-0.6v-2.9H455v2.9h-0.6v-3.4H457.2z"/>
	<path class="st3" d="M458.2,230.3c0-0.4,0-0.8,0-1.1h0.6l0,0.6h0c0.3-0.4,0.7-0.7,1.2-0.7c0.8,0,1.4,0.7,1.4,1.7
		c0,1.2-0.7,1.8-1.5,1.8c-0.4,0-0.8-0.2-1-0.5h0v1.8h-0.6V230.3z M458.8,231.2c0,0.1,0,0.2,0,0.3c0.1,0.4,0.5,0.7,0.9,0.7
		c0.7,0,1-0.5,1-1.3c0-0.7-0.4-1.3-1-1.3c-0.4,0-0.8,0.3-0.9,0.8c0,0.1,0,0.2,0,0.3V231.2z"/>
	<path class="st3" d="M465.2,230.8c0,1.3-0.9,1.8-1.7,1.8c-0.9,0-1.6-0.7-1.6-1.7c0-1.1,0.7-1.8,1.7-1.8
		C464.6,229.1,465.2,229.8,465.2,230.8z M462.6,230.9c0,0.7,0.4,1.3,1,1.3c0.6,0,1-0.6,1-1.3c0-0.6-0.3-1.3-1-1.3
		C462.9,229.6,462.6,230.2,462.6,230.9z"/>
	<path class="st3" d="M466,229.2c0.2,0,0.7-0.1,1.1-0.1c0.6,0,1.5,0.1,1.5,0.8c0,0.4-0.3,0.7-0.7,0.8v0c0.5,0.1,0.9,0.3,0.9,0.8
		c0,0.9-1.1,1-1.8,1c-0.4,0-0.8,0-1,0V229.2z M466.6,232.1c0.2,0,0.3,0,0.5,0c0.4,0,1-0.1,1-0.6s-0.5-0.6-1.1-0.6h-0.4V232.1z
		 M466.6,230.6h0.5c0.5,0,0.9-0.1,0.9-0.5c0-0.3-0.3-0.5-0.9-0.5c-0.2,0-0.3,0-0.5,0V230.6z"/>
	<path class="st3" d="M471.9,232.4c-0.2,0.1-0.5,0.2-1,0.2c-1,0-1.7-0.7-1.7-1.7c0-1,0.7-1.8,1.8-1.8c0.4,0,0.7,0.1,0.9,0.2
		l-0.1,0.5c-0.1-0.1-0.4-0.2-0.7-0.2c-0.8,0-1.2,0.6-1.2,1.3c0,0.8,0.5,1.3,1.2,1.3c0.3,0,0.6-0.1,0.8-0.2L471.9,232.4z"/>
	<path class="st3" d="M473.2,229.2v1.1c0.1,0,0.4,0,0.6,0c0.8,0,1.6,0.2,1.6,1.1c0,0.4-0.1,0.6-0.4,0.8c-0.4,0.3-1,0.4-1.5,0.4
		c-0.3,0-0.7,0-0.9,0v-3.4H473.2z M473.2,232.1c0.1,0,0.3,0,0.5,0c0.5,0,1.1-0.2,1.1-0.7c0-0.6-0.6-0.7-1.1-0.7c-0.2,0-0.3,0-0.4,0
		V232.1z"/>
	<path class="st3" d="M476.7,229.2v1.5h0.1l1.3-1.5h0.8l-1.5,1.5c0.5,0.1,0.9,0.4,1.1,1c0.1,0.2,0.2,0.6,0.4,0.8h-0.6
		c-0.1-0.1-0.2-0.4-0.3-0.7c-0.2-0.5-0.5-0.8-1.1-0.8h-0.1v1.5h-0.6v-3.4H476.7z"/>
	<path class="st3" d="M481.4,232.6l0-0.4h0c-0.2,0.3-0.6,0.5-1,0.5c-0.7,0-1-0.5-1-1c0-0.8,0.7-1.3,2-1.3v-0.1
		c0-0.3-0.1-0.8-0.8-0.8c-0.3,0-0.6,0.1-0.9,0.3l-0.1-0.4c0.3-0.2,0.7-0.3,1.1-0.3c1,0,1.3,0.7,1.3,1.4v1.3c0,0.3,0,0.6,0.1,0.8
		H481.4z M481.3,230.8c-0.7,0-1.4,0.1-1.4,0.8c0,0.4,0.3,0.6,0.6,0.6c0.4,0,0.7-0.3,0.8-0.6c0-0.1,0-0.1,0-0.2V230.8z"/>
</g>
<g class="st2">
	<path class="st3" d="M465.4,212.5l-0.6-1c-0.2-0.4-0.4-0.7-0.5-0.9h0c-0.1,0.3-0.3,0.5-0.5,0.9l-0.6,1h-0.7l1.4-2.4l-1.4-2.3h0.7
		l0.6,1.1c0.2,0.3,0.3,0.5,0.4,0.8h0c0.1-0.3,0.3-0.5,0.4-0.8l0.6-1.1h0.7l-1.4,2.3l1.5,2.4H465.4z"/>
	<path class="st3" d="M468.7,212.5l0-0.4h0c-0.2,0.3-0.6,0.5-1,0.5c-0.7,0-1-0.5-1-1c0-0.8,0.7-1.3,2-1.3v-0.1
		c0-0.3-0.1-0.8-0.8-0.8c-0.3,0-0.6,0.1-0.9,0.3l-0.1-0.4c0.3-0.2,0.7-0.3,1.1-0.3c1,0,1.3,0.7,1.3,1.4v1.3c0,0.3,0,0.6,0.1,0.8
		H468.7z M468.6,210.7c-0.7,0-1.4,0.1-1.4,0.8c0,0.4,0.3,0.6,0.6,0.6c0.4,0,0.7-0.3,0.8-0.6c0-0.1,0-0.1,0-0.2V210.7z"/>
	<path class="st3" d="M470.2,210.2c0-0.4,0-0.8,0-1.1h0.6l0,0.6h0c0.3-0.4,0.7-0.7,1.2-0.7c0.8,0,1.4,0.7,1.4,1.7
		c0,1.2-0.7,1.8-1.5,1.8c-0.4,0-0.8-0.2-1-0.5h0v1.8h-0.6V210.2z M470.8,211.1c0,0.1,0,0.2,0,0.3c0.1,0.4,0.5,0.7,0.9,0.7
		c0.7,0,1-0.5,1-1.3c0-0.7-0.4-1.3-1-1.3c-0.4,0-0.8,0.3-0.9,0.8c0,0.1,0,0.2,0,0.3V211.1z"/>
	<path class="st3" d="M474.8,209.1v1.5h0.1l1.3-1.5h0.8l-1.5,1.5c0.5,0.1,0.9,0.4,1.1,1c0.1,0.2,0.2,0.6,0.4,0.8h-0.6
		c-0.1-0.1-0.2-0.4-0.3-0.7c-0.2-0.5-0.5-0.8-1.1-0.8h-0.1v1.5h-0.6v-3.4H474.8z"/>
	<path class="st3" d="M478.2,208.1c0,0.2-0.1,0.4-0.4,0.4c-0.2,0-0.4-0.2-0.4-0.4c0-0.2,0.2-0.4,0.4-0.4
		C478,207.7,478.2,207.9,478.2,208.1z M477.5,212.5v-3.4h0.6v3.4H477.5z"/>
	<path class="st3" d="M479.1,209.1c0.2,0,0.7-0.1,1.1-0.1c0.6,0,1.5,0.1,1.5,0.8c0,0.4-0.3,0.7-0.7,0.8v0c0.5,0.1,0.9,0.3,0.9,0.8
		c0,0.9-1.1,1-1.8,1c-0.4,0-0.8,0-1,0V209.1z M479.7,212.1c0.2,0,0.3,0,0.5,0c0.4,0,1-0.1,1-0.6s-0.5-0.6-1.1-0.6h-0.4V212.1z
		 M479.7,210.5h0.5c0.5,0,0.9-0.1,0.9-0.5c0-0.3-0.3-0.5-0.9-0.5c-0.2,0-0.3,0-0.5,0V210.5z"/>
	<path class="st3" d="M485.1,212.3c-0.2,0.1-0.5,0.2-1,0.2c-1,0-1.7-0.7-1.7-1.7c0-1,0.7-1.8,1.8-1.8c0.4,0,0.7,0.1,0.9,0.2
		l-0.1,0.5c-0.1-0.1-0.4-0.2-0.7-0.2c-0.8,0-1.2,0.6-1.2,1.3c0,0.8,0.5,1.3,1.2,1.3c0.3,0,0.6-0.1,0.8-0.2L485.1,212.3z"/>
	<path class="st3" d="M486.4,209.1v1.1c0.1,0,0.4,0,0.6,0c0.8,0,1.6,0.2,1.6,1.1c0,0.4-0.1,0.6-0.4,0.8c-0.4,0.3-1,0.4-1.5,0.4
		c-0.3,0-0.7,0-0.9,0v-3.4H486.4z M486.4,212c0.1,0,0.3,0,0.5,0c0.5,0,1.1-0.2,1.1-0.7c0-0.6-0.6-0.7-1.1-0.7c-0.2,0-0.3,0-0.4,0
		V212z"/>
	<path class="st3" d="M489.9,209.1v1.5h0.1l1.3-1.5h0.8l-1.5,1.5c0.5,0.1,0.9,0.4,1.1,1c0.1,0.2,0.2,0.6,0.4,0.8h-0.6
		c-0.1-0.1-0.2-0.4-0.3-0.7c-0.2-0.5-0.5-0.8-1.1-0.8h-0.1v1.5h-0.6v-3.4H489.9z"/>
	<path class="st3" d="M494.6,212.5l0-0.4h0c-0.2,0.3-0.6,0.5-1,0.5c-0.7,0-1-0.5-1-1c0-0.8,0.7-1.3,2-1.3v-0.1
		c0-0.3-0.1-0.8-0.8-0.8c-0.3,0-0.6,0.1-0.9,0.3l-0.1-0.4c0.3-0.2,0.7-0.3,1.1-0.3c1,0,1.3,0.7,1.3,1.4v1.3c0,0.3,0,0.6,0.1,0.8
		H494.6z M494.5,210.7c-0.7,0-1.4,0.1-1.4,0.8c0,0.4,0.3,0.6,0.6,0.6c0.4,0,0.7-0.3,0.8-0.6c0-0.1,0-0.1,0-0.2V210.7z"/>
</g>
<g class="st2">
	<path class="st3" d="M442.1,215.2v4.7h-0.6v-4.2h-2.2v4.2h-0.6v-4.7H442.1z"/>
	<path class="st3" d="M446.3,218.2c0,1.3-0.9,1.8-1.7,1.8c-0.9,0-1.6-0.7-1.6-1.7c0-1.1,0.7-1.8,1.7-1.8
		C445.6,216.4,446.3,217.1,446.3,218.2z M443.6,218.2c0,0.7,0.4,1.3,1,1.3c0.6,0,1-0.6,1-1.3c0-0.6-0.3-1.3-1-1.3
		C443.9,216.9,443.6,217.6,443.6,218.2z"/>
	<path class="st3" d="M449.6,216.5v3.4H449V217h-1.2v0.9c0,1-0.1,1.6-0.5,1.9c-0.2,0.1-0.4,0.2-0.7,0.2l-0.1-0.5
		c0.1,0,0.3-0.1,0.3-0.1c0.3-0.2,0.3-0.7,0.3-1.5v-1.4H449.6z"/>
	<path class="st3" d="M452.9,216.5v0.5h-1.1v2.9h-0.6V217h-1.1v-0.5H452.9z"/>
	<path class="st3" d="M455.2,219.9l0-0.4h0c-0.2,0.3-0.6,0.5-1,0.5c-0.7,0-1-0.5-1-1c0-0.8,0.7-1.3,2-1.3v-0.1
		c0-0.3-0.1-0.8-0.8-0.8c-0.3,0-0.6,0.1-0.9,0.3l-0.1-0.4c0.3-0.2,0.7-0.3,1.1-0.3c1,0,1.3,0.7,1.3,1.4v1.3c0,0.3,0,0.6,0.1,0.8
		H455.2z M455.1,218.2c-0.7,0-1.4,0.1-1.4,0.8c0,0.4,0.3,0.6,0.6,0.6c0.4,0,0.7-0.3,0.8-0.6c0-0.1,0-0.1,0-0.2V218.2z"/>
	<path class="st3" d="M456.7,216.6c0.2,0,0.7-0.1,1.1-0.1c0.6,0,1.5,0.1,1.5,0.8c0,0.4-0.3,0.7-0.7,0.8v0c0.5,0.1,0.9,0.3,0.9,0.8
		c0,0.9-1.1,1-1.8,1c-0.4,0-0.8,0-1,0V216.6z M457.3,219.5c0.2,0,0.3,0,0.5,0c0.4,0,1-0.1,1-0.6s-0.5-0.6-1.1-0.6h-0.4V219.5z
		 M457.3,217.9h0.5c0.5,0,0.9-0.1,0.9-0.5c0-0.3-0.3-0.5-0.9-0.5c-0.2,0-0.3,0-0.5,0V217.9z"/>
	<path class="st3" d="M462.7,219.8c-0.2,0.1-0.5,0.2-1,0.2c-1,0-1.7-0.7-1.7-1.7c0-1,0.7-1.8,1.8-1.8c0.4,0,0.7,0.1,0.9,0.2
		l-0.1,0.5c-0.1-0.1-0.4-0.2-0.7-0.2c-0.8,0-1.2,0.6-1.2,1.3c0,0.8,0.5,1.3,1.2,1.3c0.3,0,0.6-0.1,0.8-0.2L462.7,219.8z"/>
	<path class="st3" d="M464,216.5v1.1c0.1,0,0.4,0,0.6,0c0.8,0,1.6,0.2,1.6,1.1c0,0.4-0.1,0.6-0.4,0.8c-0.4,0.3-1,0.4-1.5,0.4
		c-0.3,0-0.7,0-0.9,0v-3.4H464z M464,219.5c0.1,0,0.3,0,0.5,0c0.5,0,1.1-0.2,1.1-0.7c0-0.6-0.6-0.7-1.1-0.7c-0.2,0-0.3,0-0.4,0
		V219.5z"/>
	<path class="st3" d="M467.5,216.5v1.5h0.1l1.3-1.5h0.8l-1.5,1.5c0.5,0.1,0.9,0.4,1.1,1c0.1,0.2,0.2,0.6,0.4,0.8H469
		c-0.1-0.1-0.2-0.4-0.3-0.7c-0.2-0.5-0.5-0.8-1.1-0.8h-0.1v1.5h-0.6v-3.4H467.5z"/>
	<path class="st3" d="M472.2,219.9l0-0.4h0c-0.2,0.3-0.6,0.5-1,0.5c-0.7,0-1-0.5-1-1c0-0.8,0.7-1.3,2-1.3v-0.1
		c0-0.3-0.1-0.8-0.8-0.8c-0.3,0-0.6,0.1-0.9,0.3l-0.1-0.4c0.3-0.2,0.7-0.3,1.1-0.3c1,0,1.3,0.7,1.3,1.4v1.3c0,0.3,0,0.6,0.1,0.8
		H472.2z M472.1,218.2c-0.7,0-1.4,0.1-1.4,0.8c0,0.4,0.3,0.6,0.6,0.6c0.4,0,0.7-0.3,0.8-0.6c0-0.1,0-0.1,0-0.2V218.2z"/>
</g>
<g>
	<rect x="0" class="st4" width="938.2" height="606.9"/>
	<g>
		<g>
			<defs>
				<rect id="SVGID_1_" x="0" width="938.2" height="606.9"/>
			</defs>
			<clipPath id="SVGID_2_">
				<use xlink:href="#SVGID_1_"  style="overflow:visible;"/>
			</clipPath>
			<g class="st5">
				<path id="AL" class="st6" d="M487.3,474l-1.5,6.5l2,7.9l5.9,4.4l-0.5,5l-4.4,2.4l-1.1,5.9l-6.5,9l-2.4-1.1l-0.5-3.9l-7.9-5.9
					l-1.1-9l1.1-12.4l2-5.9l-2.4-3l-1.1-5.9l5.9-9.4l1.1,3.5l3.9-1.5l3,5l3.5,2L487.3,474z"/>
				<path id="AT" class="st7" d="M437.2,350.8l-1.1,8.5h-7.9l2.4,4.4l-4.4,12.9l-2.4,3.5l-12.4,0.5l-7,4.4l-11.3-1.5l-19.8-5.5l-3-7
					l-13.9,3.5l-1.5,3.9l-8.5-3l-7-0.5l-6.5-3.5l2-5l-0.5-3.5l4.4-1.1l7,5.5l2-5.5l12.4,1.1l10-3.5l6.5,0.5l4.4,3.9l1.5-3.5l-2-13.4
					l5-2.4l5-9.4l10.4,7l7.9-8.5l5-1.5l10.9,6.5l6.5-1.1l6.5,3.9l-1.1,2.4L437.2,350.8z"/>
				<path id="BA" class="st6" d="M464.9,416.3h5l-3.5,8.5l7,7.4l-2,9l-3.5,1.1l-2.4,2l-4.4,4.4l-2,10.5l-12.4-7l-5.4-7.9l-5.4-3.9
					l-6.5-7.4l-3-5.9l-7-9l3-7.9l5,4.4l3-3.9l6.5-0.5l12,3.5l9.4-0.5L464.9,416.3z"/>
				<path id="BE" class="st6" d="M246.8,281.3l10.4,2l12.9-4.4l8.9,10l7.4,5l-1.5,14.9l-3.5,1.1l-1.5,12l-12.4-10l-7,1.5l-10-10.5
					l-6.5-9l-6.5-0.5l-2-7.9L246.8,281.3z"/>
				<path id="BG" class="st6" d="M516,428.7l3.9,7.9l5.4-1.5l10.9,3l20.3,1.1l7-5l16.3-4.4l10,7l8.5,2l-7.4,7.9l-5,13.4l4.4,10.9
					l-12-2.4l-14.4,5.9v9.4l-12.4,2l-10-6.5l-10.9,5l-10.4-0.5l-1.1-12.4l-7-5.9l2.4-2.4l-1.5-2l2.4-5.9l5.4-5.9l-6.5-8.5l-1.1-7
					L516,428.7z"/>
				<path id="BY" class="st6" d="M527.4,222.6h13.3l14.8-9l3.5-13.4l11.3-7.9l-1.5-10.9l8.5-3.9l14.8-9.4l14.8,6.5l2,5.9l7.4-3
					l13.3,5.9l1.5,11.4l-3,6.5l8.9,15.5l5.4,4.4l-1.1,4.4l9.4,3.9l3.9,5.9l-5.4,5l-11.3-1.1l-2.4,2.4l3.5,7.4l3.5,14.4l-12,1.5
					l-4.4,5l-1.1,11.4l-5.4-2l-12.4,1.1l-3.5-5l-5,3.9l-5-3l-10.9-0.5l-14.8-5.3l-13.9-2l-10.9,0.5l-7.4,5.9l-6.5,1.1v-10l-4.4-10.5
					l8.5-4.4V242l-3.9-9L527.4,222.6z"/>
				<path id="CH" class="st7" d="M334.1,362.8l0.5,3.5l-2,5l6.5,3.5l7,0.5l-1.1,8.5l-5.9,3.5l-10.4-2.4l-3,7.9l-6.5,0.5l-2.4-3
					l-7.9,7l-7,1.1l-5.9-4.4l-5-9l-6.5,3v-9l10.4-11.4l-0.5-5.5l6.5,2l3.9-3.5h12l3-4.4L334.1,362.8z"/>
				<path id="CY" class="st6" d="M672.2,591.2l9.4-7.4l-12.4,5l-10-0.5l-2,3.9h-1.1l-6.5,0.5l3,7l7,2l14.4-7l-0.5-1.5L672.2,591.2z"
					/>
				<path id="CZ" class="st6" d="M436.7,340.9l-6.5-3.9l-6.5,1.1l-10.9-6.5l-5,1.5l-7.9,8.5l-10.4-7l-7.9-9l-7-5l-1.5-9l-2.4-6.5
					l10-4.4l5-5.5l10-4.4l3.5-3.9l3.5,2.4l5.9-2.4l6.5,7l10.4,2l-1.1,5.9l7.4,4.4l2-5.5l9.4,2.4l1.5,7l10.4,1.5l6.5,10.5h-3.9
					l-2,3.9l-3,1.1l-1.1,5l-2.4,1.1l-0.5,2l-5,2l-5.9-0.5L436.7,340.9z"/>
				<path id="DE" class="st7" d="M339.1,196.8v9.4l13.9,5.5v8.5l14.4-4.4l7.9-6.5l15.9,9.4l6.5,7.4l3.5,12l-3.9,5.9l5,7.9l3.5,12
					l-1.1,7.9l5.4,14.4l-5.9,2.4l-3.5-2.4l-3.5,3.9l-10,4.4l-5,5.5l-10,4.4l2.4,6.5l1.5,9l7,5l7.9,9l-5,9.4l-5,2.4l2,13.4l-1.5,3.5
					l-4.4-3.9l-6.5-0.5l-10,3.5l-12.4-1.1l-2,5.5l-7-5.5l-4.4,1.1l-14.8-6.5l-3,4.4h-12l2-14.9l7-14.4l-19.8-3.9l-6.5-5.5l1.1-9.4
					l-3-5l1.5-14.9l-2.4-23.4h8.5l3.5-8.5l3.5-20.9l-2.4-7.9l3-5l11.3-1.5l2.4,5l9.4-11.4l-3-9l-0.5-14l10.4,3L339.1,196.8z"/>
				<path id="DK" class="st6" d="M377.3,181.3l-8.5,19.9l-14.4-14l-2-10l20.3-8.5L377.3,181.3z M353.1,160.4l-3.5,9.4l-3.9-2.4
					l-10,17.9l3.9,12l-8.9,3.5l-10.4-3l-5.4-13.4l-0.5-25.3l2.4-7l3.9-7.4l12.4-1.5l5-7l11.3-7.4L349,142l-3.9,8.5l1.5,7
					L353.1,160.4z"/>
				<path id="EE" class="st6" d="M538.9,126.2l1.5-15.5l-5,3.5l-8.9-9.4l-1.1-15.5l17.4-7.4l17.4-3.9l14.8,4.4l14.4-1.1l2,5
					l-10,15.5l3.9,24.9l-5.9,8.5h-11.3l-12-9.4l-5.9-3L538.9,126.2z"/>
				<path id="ES" class="st6" d="M75.4,473.5l0.5-13.4l-5.4-8.5l19.8-14l16.8,3.5h18.9l14.8,3.5l11.3-1.1l22.2,0.5l5.4,7.4l25.7,8.5
					l5-3.9l15.9,8.5l15.9-2.4l0.5,10.9l-13.3,12.4l-17.9,3.9l-1.1,5.9l-8.5,10l-5.4,14.9l5.4,10.5l-7.9,7.9l-3,11.4l-10.4,3.5
					l-10,13.4l-17.9,0.5l-13.3-0.5l-8.9,5.9l-5.4,6.5l-7-1.5l-4.7-5.8l-3.9-10l-12.9-2.4l-1.1-5.9l5-6.5l2-5l-5-5.5l3.9-12
					l-5.4-10.9l5.9-1.5l0.5-8.5l2.4-2.4v-14.4l6.5-5l-3.8-9.3l-7.9-0.5l-2.4,2.4h-8l-3.5-9l-5.4,2.4L75.4,473.5z"/>
				<polygon class="st6" points="633,0 620.6,16.4 590.8,53.1 565.5,55.1 541.3,65.5 518.5,71.5 510.6,56.1 497.1,46.7 500.1,18.4 
					495.5,0 				"/>
				<path id="FR" class="st6" d="M334.1,468l-4.4,14.4l-6.5-3.9l-3-12.4l3-7l8.9-7.4L334.1,468z M250.9,302.5l10,10.5l7-1.5l12.4,10
					l3,2l3.9-0.5l6.5,5.5l19.8,3.9l-7,14.4l-2,14.9l-3.9,3.5l-6.5-2l0.5,5l-10,11.4v9l6.5-3l5,9l-0.5,5.5l3.9,7.4l-5,5.9l3.5,14.9
					l7.4,2.4l-1.5,8.5L291.6,450l-27.2-5l-20.3,5.9l-1.5,11.4l-16,2.7l-15.4-8.5l-5,3.9l-25.7-8.5l-5.4-7.4l7.4-11.4l2.4-39.3
					l-14.4-21.4L160,362l-21.2-7.7l-1.5-15.5l17.9-4.4l23.3,5.5L174,316l12.9,9.4l32.2-16.8l3.9-17.9l12.4-4.4l2,7.9l6.5,0.5
					L250.9,302.5z"/>
				<path id="GB" class="st7" d="M122.4,207.2l-7.4,16.4l-10.4-5l-8.5,0.5l3-12.9l-3-12.9l12-1.1L122.4,207.2z M159,103.9
					l-14.8,28.2l14.4-3.5H174l-3.5,20.9l-12.4,22.3l14.4,1.5l1.1,2.4l12.4,28.8l9.4,3.9l8.5,26.9l3.9,9l16.8,4.4l-1.5,14.4l-7,6.5
					l5.4,11.4l-12.4,11.4h-18.8l-23.8,5.9l-6.5-4.4l-9.4,10.5l-12.9-2.4l-10,8.5l-7.4-4.4l20.3-22.9l12.4-5l0,0l-21.8-3.9l-3.9-9
					l14.4-7l-7.4-12.4l2.4-15.5l20.9,2l0,0l2-13.4l-9.4-14.9v-0.5l-16.8-4.4l-3.5-6.5l5-10.9l-4.4-7l-7.4,11.4l-1.1-23.8l-7.1-12.9
					l5-26.9l10.9-21.4l10.9,2L159,103.9z"/>
				<path id="GE" class="st6" d="M778.7,480l2-7.9l-3.5-12.9l-7.9-7l-7.4-2l-5-5.9l1.5-2.4l12,3.5l20.3,3l18.8,9l2.4,3.5l8.5-3
					l12.9,3.9l3.9,7.4l8.9,4.4l-3.5,2.4l7,10l-2,2l-7.4-1.1l-10.4-5.5l-3.5,3l-19.4,3l-13.3-9L778.7,480z"/>
				<path id="GR" class="st6" d="M530.4,583.3l7.4,5.9l10.9-1.1l10.4,1.1l-0.5,3l7.4-2l-1.5,5l-19.8,1.5v-3l-16.8-3.5L530.4,583.3z
					 M570.5,479.4l-4.4,11.4l-3.5,2l-8.5-0.5l-7.4-2l-16.8,5l9.4,10.5l-7,3h-7.9l-7.4-9.4l-2.4,3.9l3,10.9l7,8.5l-5.4,3.9l7.9,7.9
					l7,5v10l-7-5.5l-5,1.1l3.9,9l-3.9,1.1l-5-3.5l5.9,19.9h-3l-2.4-5.9h-3l-1.5,6.5l-2.4-1.5l0.5-3.5l-3-5h-3l0.5,3.9l-1.1,1.5
					l-3-2.4l-2-5l2.4-3l-2-3.5l-2-2l-1.1-1.5l-2.4-4.4l3-2.4l2-2.4l3,0.5l1.1-2l3-1.1l3.5,2.4l2.4,1.1l2-3l-4.4-0.5l-3-1.1l-5.9,1.5
					h-5.9l-5.4-7.9l-1.1-1.1l1.1-3l-7-5.5l-1.1-5l6.5-9l1.1-5.9l4.4-2.4l0.5-5l8.9-1.5l5.4-3.9l7.4,0.5l2.4-3l2.4-0.5l10.4,0.5
					l10.9-5l10,6.5l12.4-2v-9.4L570.5,479.4z"/>
				<path id="HR" class="st6" d="M462.5,395.5l3.5,7.9l4.4,5.5l-5.4,7.4l-6.4-4.4l-9.4,0.5l-12-3.5l-6.5,0.5l-3,3.9l-5-4.4l-3,7.9
					l7,9l3,5.9l6.5,7.4l5.4,3.9l5.4,7.9l12.4,7l-1.5,3l-12.9-7l-7.9-7l-12.9-5.5l-12-14.4l3-1.5l-6.5-7.9l-0.5-6.5l-8.9-3l-4.4,8.5
					l-3.9-6.5l0.5-7l0.5-0.5l9.4,0.5l2.4-3.5l5,3l5.4,0.5v-5.5l5-2l1.5-7.9l10.9-5.5l4.4,2.4l10.4,8.5l11.3,3.9L462.5,395.5z"/>
				<path id="HU" class="st7" d="M426.3,376.6l4.4-12.9l-2.4-4.4h7.9l1.1-8.5l7,5.5l5,2.4l12-2.4l1.1-3.9l5.4-0.5l7-3l1.5,1.5
					l6.5-2.4l3.5-5l4.4-1.1l14.8,6.5l3-2l7.4,5.5l1.1,5.5l-8.5,4.4l-6.5,14l-8.5,14l-10.9,1.5l-8.9-1.1l-10.9,5l-5,3l-11.3-3.9
					l-10.4-8.5l-4.5-2.6l-2.4-7L426.3,376.6z"/>
				<path id="IE" class="st6" d="M115,223.6l2.6,16.8l-10.4,20.3l-24.8,13.4l-19.8-3.3L73.8,247l-7.4-23.8l18.8-18.8L95.6,193
					l3,12.9l-3,12.9l8.5-0.5L115,223.6z"/>
				<path id="IT" class="st6" d="M416.9,539.7l-5,14l2,5.5l-3,9l-10.4-6.5l-7-2l-19.4-9l2-9l16.3,1.5l14.4-2L416.9,539.7z
					 M329.1,485.9l8.5,12.9l-2,23.8l-6.5-1.1l-5.4,5.9l-5.4-5l-0.5-21.8l-3-10.5l7.4,1.1L329.1,485.9z M373.2,378.7l19.8,5l-1.5,10
					l3.5,8.5l-10.9-3l-11.3,7l1.1,10l-1.5,5.5l4.4,10l12.9,10l7,15.9l15.4,14.9h10.9l3.5,3.9l-3.9,3.5l12.4,7l10.4,5.5l12,9.4
					l1.5,3.5l-2.4,6.5l-7.9-8.5l-12-3l-5.9,12l10,6.5l-1.5,9.4l-5.9,1.1l-7.9,14.9l-5.9,1.5v-5.5l3-9.4l3-3.9l-5.4-10.5l-4.4-9
					l-5.9-2.4l-3.9-7.9l-8.9-3.5l-5.9-7.4l-10.4-1.1l-10.9-8.5l-12.9-12.4l-9.4-10.9l-4.4-18.8l-7-2.4l-11.3-6.5l-6.5,2.4l-7.9,9
					l-5.9,1.5l1.5-8.5l-7.4-2.4l-3.5-14.9l5-5.9l-3.9-7.4l0.5-5.5l5.9,4.4l7-1.1l7.9-7l2.4,3l6.5-0.5l3-7.9l10.4,2.4l5.9-3.5
					l1.1-8.5l8.5,3l1.5-3.9l13.9-3.5L373.2,378.7z"/>
				<path id="XK" class="st6" d="M489.7,470l-0.5,3.9h-2l-1.1-7l-3.5-2l-3-5l2.4-4.4l3.5-1.5l2-6.5l2.4-1.1l2,2.4l2.4,1.1l2,3
					l2.4,1.1l2.4,3.5h2l-1.5,4.4l-1.5,2.4l0.5,1.5l-3,0.5L489.7,470z"/>
				<path id="LT" class="st6" d="M516.9,212.7l-1.1-5.9l1.5-6.5l-5.9-3.9l-14.4-4.4l-3-20.9l15.9-7.4l23.3,1.5l13.9-2.4l2,5l7.4,1.5
					l13.3,12l1.5,10.9l-11.3,7.9l-3.5,13.4l-14.8,9h-13.3l-3.5-7.4L516.9,212.7z"/>
				<path id="LU" class="st6" d="M285.1,308l3,5l-1.1,9.4l-3.9,0.5l-3-2l1.5-12L285.1,308z"/>
				<path id="LV" class="st6" d="M493.6,171.4l0.5-18.8l7-15.9l12.9-9l10.9,19.4l10.9-0.5l2.6-20l12-4.4l5.9,3l12,9.4h11.3l6.5,5.9
					l1.1,12.4l4.4,14.9l-14.8,9.4l-8.5,3.9l-13.3-12l-7.4-1.5l-2-5l-13.9,2.4l-23.3-1.5L493.6,171.4z"/>
				<path id="MD" class="st6" d="M571,348.8l3.5-3l9.4-2l10.4,6.5l5.9,1.1l6.5,5.5l-1.1,7l5,3.5l2,8.5l5,5l-1.1,3l2.4,2l-3.5,1.5
					l-9.4-1.1l-1.5-3l-3,1.5l1.1,3.5l-3.9,6.5l-2.4,7l-3.5,2l-2.4-9l1.5-8.5l-0.5-9l-7.9-12l-4.4-9l-4.4-5.9L571,348.8z"/>
				<path id="ME" class="st6" d="M476.4,461.5l-1.1-3.5l-5.9,9.4l1.1,5.9l-3-1.5l-3.9-5.9l-5.9-3.9l1.5-3l2-10.5l4.4-4.4l2.4-2
					l3.5,3.5l2,2.4l4.4,2l5.4,3.9l-1.1,1.5l-2.4,4.4L476.4,461.5z"/>
				<path id="MK" class="st6" d="M487.3,474h2l0.5-3.9l8.5-3l3-0.5l5-1.1l6.5-0.5l7,5.9l1.1,12.4l-2.4,0.5l-2.4,3l-7.4-0.5l-5.4,3.9
					l-8.9,1.5l-5.9-4.4l-2-7.9L487.3,474z"/>
				<path id="NL" class="st6" d="M285.6,232l11.3,0.5l2.4,7.9l-3.5,20.9l-3.5,8.5h-8.5l2.4,23.4l-7.4-5l-8.9-10l-12.9,4.4l-10.4-2
					l7-5.9l12.4-33.2L285.6,232z"/>
				<polyline class="st6" points="367.9,0 368.3,15.3 377.3,30.3 372.7,63.6 361.4,82.5 355.5,97.9 354.7,96.6 345.9,81 
					318.7,112.3 300.4,118.2 281,104.8 276.2,75.6 271.6,9.4 278,0 367,0 				"/>
				<path id="PL" class="st7" d="M410,286.7l-5.4-14.4l1.1-7.9l-3.5-12l-5-7.9l3.9-5.9l-3.5-12l9.4-7l21.8-10.9l17.4-7.9l13.9,3.9
					l1.1,5.9l13.3,0.5l17.4,3l25.7-0.5l7,2.4l3.5,7.4l0.5,10.5l3.9,9v9.4l-8.5,4.4l4.4,10.5v10l7,19.4l-1.5,5.9l-7,2.4L514.5,323
					l3.5,9.4l-3-1.1l-13.3-7.9l-10,3l-6.5-2l-8.5,4.4l-7-7.4l-5.9,3l-1.1-1.5l-6.5-10.5l-10.4-1.5l-1.5-7l-9.4-2.4l-2,5.5l-7.4-4.4
					l1.1-5.9l-10.4-2L410,286.7z"/>
				<path id="PT" class="st6" d="M75.4,473.5l5-5l5.4-2.4l3.5,9h7.9l2.4-2.4l7.9,0.5l3.9,9.4l-6.5,5v14.4l-2.4,2.4l-0.5,8.5
					l-5.9,1.5l5.4,10.9l-3.9,12l5,5.5l-2,5l-5,6.5l1.1,5.9l-5.4,4.4l-7.4-2.4l-7.4,2l2-13.4l-1.5-10.9l-6.5-1.5l-3.5-7l1.1-12
					l5.4-6.5l1.1-7.4l3-10.9l-0.5-7.9l-3-6.5L75.4,473.5z"/>
				<path id="RO" class="st6" d="M516.5,355.8l5.9-4.4l8.5,2.4h8.9l6.5,5l5-3l10.4-2l3.5-5h5.9l3.9,2l4.4,5.9l4.4,9l7.9,12l0.5,9
					l-1.5,8.5l2.4,9l6.2,3.3l6.5-3l6.5,3.5l0.5,5l-7,3.9l-4.4-2l-3.9,23.4l-8.5-2l-10-7l-16.3,4.4l-7,5l-20.3-1.1l-10.9-3l-5.4,1.5
					l-3.9-7.9l-2.4-3.5l3-3.5l-3.5-2.4l-4.4,4.4l-7.9-5.5l-1.1-7.9l-8.5-4.4l-1.5-6.5l-6.5-7.9l10.9-3.9l8.5-14l6.5-14L516.5,355.8z
					"/>
				<path id="RS" class="st6" d="M491.2,405.4l8.5,4.4l1.1,7.9l7.9,5.5l4.4-4.4l3.5,2.4l-3,3.5l2.4,3.5l-3.5,4.4l1.1,7l7,8.5
					l-5.4,5.9l-2.4,5.9l1.5,2l-2.4,2.4l-6.5,0.5l-5,1.1l-0.5-1.5l1.5-2.4l1.5-4.4h-2l-2.4-3.5l-2.4-1.1l-2-3l-2.4-1.1l-2-2.4
					l-2.4,1.1l-2,6.5l-2.4,1.5l1.1-1.5l-5.4-3.9l-4.4-2l-2-2.4l-3.5-3.5l3.5-1.1l2-9l-7-7.4l3.5-8.5h-5l5.4-7.4l-4.4-5.5l-3.5-7.9
					l10.9-5l8.9,1.1l7.4,7.9L491.2,405.4z"/>
				<polygon class="st6" points="938.5,0 938.5,270.8 906,271.3 877.4,295.7 875.9,311.5 861.5,299.2 850.6,323 854.6,327.4 
					846.5,343.3 858.5,357.3 868.9,356.7 877.9,370.6 876.3,381.1 883.3,384.6 876.8,396.4 863.5,399.9 849.6,420.4 862,438.8 
					860.5,451.7 875.9,474 867.4,481.5 865,486.4 858.9,485.5 849.6,474 845.6,473.5 836.7,469.1 832.2,461.7 819.3,457.6 
					811,460.6 808.4,457.1 789.6,448.2 769.4,445.1 757.4,441.6 755.9,444.2 738,427.8 722.1,420.4 710.3,408.9 720.2,406 
					731.7,389 723.7,381.1 743.9,372.6 743.5,368.2 731.1,371.7 731.7,362.8 739.1,356.7 752.4,355.3 754.4,348.3 751.5,336.8 
					757,325.9 757,319.5 736.5,312.5 728.7,312.5 720.2,302.5 709.3,306 691.4,298.6 692,294.2 687,284.8 676.1,283.7 675.1,276.7 
					678.6,272.3 669.6,259.3 655.3,261.4 651.3,260.3 647.8,265.4 642.8,264.3 639.4,249.9 635.9,242 638.5,240 649.8,240.9 
					655.3,236.1 651.3,230 641.9,226.1 642.8,221.7 637.4,217.1 628.5,201.6 631.5,195.3 630,183.9 616.7,177.8 609.3,180.8 
					607.3,174.9 592.3,168.4 587.9,153.5 586.9,141.1 580.5,135.2 586.4,126.7 582.5,101.8 592.3,86.5 590.3,81.5 606.2,66 
					591.8,52.6 621.7,15.9 633.8,0 				"/>
				<line class="st8" x1="367.9" y1="0" x2="367" y2="0"/>
				<polygon class="st6" points="511,196.3 496.7,191.8 477.3,199.7 474.4,210.1 491.7,212.7 517.5,212.1 516.5,206.2 518,199.7 
									"/>
				<polyline class="st6" points="367.9,0 446,0 439.2,28.2 449.1,48.7 462.5,64 449.6,94.8 435.2,101.3 429.8,145 421.9,168.9 
					405,166.4 397.1,185.9 381.2,186.8 376.7,163.4 364.9,134.6 354.4,97.4 354.7,96.6 360.3,81.9 371.8,63.1 376.2,29.7 
					367.3,14.9 367,0 				"/>
				<path id="SI" class="st6" d="M393.2,383.5l11.3,1.5l7-4.4l12.4-0.5l2.4-3.5l2.4,0.5l2.4,7l-10.9,5.5l-1.5,7.9l-5,2v5.5l-5.4-0.5
					l-5-3l-2.4,3.5l-9.4-0.5l3-2L391,394L393.2,383.5z"/>
				<path id="SK" class="st6" d="M462.9,321.5l1.1,1.5l5.9-3l7,7.4l8.5-4.4l6.5,2l10-3l13.3,7.9l-3.9,5.5l-2.4,8.5l-3,2l-14.8-6.5
					l-4.4,1.1l-3.5,5l-6.5,2.4l-1.5-1.5l-7,3l-5.4,0.5l-1.1,3.9l-12,2.4l-5-2.4l-7-5.5l-1.5-7.4l1.1-2.4l2-4.4l5.9,0.5l5-2l0.5-2
					l2.4-1.1l1.1-5l3-1.1l2-3.9L462.9,321.5z"/>
				<path id="TR" class="st6" d="M714.3,483.5l19.8,7l16.3-3l12,1.5l16.3-9.4l14.8-1.1l13.3,9l2.4,6.5l-1.5,9l10.4,4.4l5.4,5.5
					l-9.4,5l4.4,20.3l-2.4,5.5l7.4,14l-6.5,3l-5-4.4l-16.2-2.7l-5.9,2.4l-15.9,2.4l-7.4-0.5l-15.9,6.5h-11.3l-7.4-3.5l-15.4,5
					l-4.4-3.5l-1.1,9.4l-3.9,3.9l-3.9,3.9l-5-7.9l5.4-6.5l-8.5,1.5l-11.3-3.9l-9.4,10l-21.3,2l-11.3-9.4l-14.8-0.5l-3.5,7l-9.4,2
					l-13.3-9.4l-15.4,0.5l-8.5-17.4l-10-10l7-14l-8.9-8.5l15.4-17.4l21.3-0.5l5.9-14l26.3,2.4l16.8-12l16.3-5.5l22.9-0.5
					L714.3,483.5z M579,495.4l-11.3,10l-4.4-8.5v-3.9l3.5-2l4.4-11.4l-7-5l14.4-5.9l12,2.4l1.5,7l12.4,5.9l-2.4,4.4l-16.3,1.1
					L579,495.4z"/>
				<path id="UA" class="st9" d="M642.8,264.3l5,1.1l3.5-5l3.9,1.1l14.4-2l8.9,12.9l-3.5,4.4l1.1,7l10.9,1.1l5,9.4l-0.5,4.4
					l17.9,7.4l10.4-3.5l8.5,10h7.9l20.3,7v6.5L751,337l3,11.4l-2,7l-13.3,1.5l-7,5.9l-0.5,9l-10.9,1.5l-9.4,6.5l-12.9,1.1l-12,7.4
					l-6.5,5l7.4,7.4l7,5l14.4-1.1l-2.4,7l-15.6,3.3l-18.8,11.4l-7.4-3.9l3-9l-15.6-6.1l2.4-3.9l15.9-7.9l-2-3.9l-2.4,2l-2-1.1
					l-21.8-5l-1.1-7.4l-12.9,2.4l-5,10.9l-10.9,14.9l-6.5-3.5l-6.5,3l-5.9-3.5l3.5-2l2.4-7l3.9-6.5l-1.1-3.5l3-1.5l1.5,3l8.5,0.5
					l3.5-1.5l-2.4-2l1.1-3l-5-5l-2-8.5l-5-3.5l1.1-7l-6.5-5.5l-5.9-1.1l-10.4-6.5l-9.4,2l-3.5,3h-5.9l-3.5,5l-10.4,2l-5,3l-6.5-5
					h-8.9l-8.5-2.4l-5.9,4.4l-1.1-5.5l-7.4-5.5l2.4-8.5l3.9-5.5l3,1.1l-3.5-9.4l12.4-17.9l7-2.4l1.5-5.9l-7-19.4l6.5-1.1l7.4-5.9
					l10.9-0.5l13.9,2l15.4,5.5l10.9,0.5l5,3l5-3.9l3.5,5l12.4-1.1l5.4,2l1.1-11.4l4.4-5L642.8,264.3z"/>
				<ellipse class="st10" cx="281.6" cy="383.5" rx="5" ry="5"/>
				<ellipse class="st10" cx="316.3" cy="358.8" rx="5" ry="5"/>
				<ellipse class="st10" cx="313.9" cy="376.1" rx="2.4" ry="2.4"/>
				<ellipse class="st10" cx="323.7" cy="396" rx="2.4" ry="2.4"/>
				<g class="st11">
					<path d="M311.6,410.7c0.6,0,0.9-0.2,1.2-0.3c0.3-0.2,0.5-0.8,0.6-1.5s0.3-2.3,0.5-4.2l0.3-5.3h4.7v12.3h-1.2v-11.4h-2.6
						l-0.3,4.4c-0.2,2.1-0.3,3.6-0.5,4.6c-0.2,0.9-0.5,1.5-0.8,1.8c-0.5,0.3-1.1,0.5-2,0.5V410.7z"/>
				</g>
				<g class="st11">
					<path d="M320.7,412.8c0.6,0,1.1-0.2,1.4-0.3c0.3-0.2,0.5-0.5,0.5-0.9c0-0.2,0-0.5-0.2-0.8l-1.8-8h1.1l0.9,4.6l0.6,3l0.5-3
						l0.9-4.6h1.1l-2,9.1c-0.2,0.5-0.3,0.9-0.5,1.2c-0.3,0.3-0.5,0.5-0.9,0.6c-0.5,0.2-0.8,0.2-1.4,0.2v-1.1H320.7z"/>
					<path d="M327,402.8h3.2v0.8h-2.1v7.9H327L327,402.8L327,402.8z"/>
				</g>
				<g class="st11">
					<path d="M332,411.1c-0.3-0.3-0.5-0.9-0.5-1.4c0-0.6,0.2-1.1,0.3-1.4c0.2-0.3,0.6-0.8,1.1-1.1c0.5-0.3,1.2-0.6,2.1-1.1v-0.6
						c0-0.6,0-0.9-0.2-1.2s-0.2-0.5-0.3-0.6c-0.2-0.2-0.3-0.2-0.6-0.2c-0.8,0-1.2,0.5-1.2,1.5v0.3h-1.1v-0.3c0-0.8,0.3-1.4,0.6-1.8
						c0.5-0.3,0.9-0.6,1.7-0.6s1.4,0.3,1.7,0.8c0.3,0.5,0.5,1.2,0.5,2.3v4.2c0,0.3,0,0.6,0,0.9c0,0.3,0,0.6,0,0.8h-0.9l-0.2-1.2
						c-0.2,0.5-0.3,0.8-0.6,0.9c-0.3,0.2-0.8,0.5-1.1,0.5C332.8,411.8,332.3,411.6,332,411.1z M334.4,410.5c0.3-0.2,0.5-0.5,0.6-0.8
						v-2.7c-0.8,0.3-1.2,0.6-1.5,0.9c-0.3,0.2-0.5,0.5-0.8,0.6c-0.2,0.3-0.3,0.6-0.3,1.1c0,0.5,0.2,0.8,0.3,0.9
						c0.2,0.2,0.5,0.3,0.8,0.3C334,410.8,334.3,410.7,334.4,410.5z"/>
				</g>
				<g class="st11">
					<path d="M338.1,402.8h1.1v3.8h2.7v-3.8h1.1v8.8h-1.1v-4.1h-2.7v4.1h-1.1V402.8z"/>
				</g>
				<g class="st11">
					<path d="M345.2,411c-0.3-0.6-0.5-1.4-0.5-2.4v-2.4c0-1.1,0.2-2,0.5-2.4c0.3-0.5,0.9-0.8,1.8-0.8c0.9,0,1.5,0.3,1.8,0.8
						c0.3,0.5,0.5,1.4,0.5,2.4v2.4c0,1.1-0.2,2-0.5,2.4c-0.3,0.6-0.9,0.8-1.8,0.8C346.1,411.8,345.5,411.5,345.2,411z M347.8,410.5
						c0.2-0.2,0.3-0.5,0.3-0.8c0-0.3,0-0.8,0-1.4v-2.6c0-0.6,0-1.1,0-1.4c0-0.3-0.2-0.6-0.3-0.8c-0.2-0.2-0.5-0.3-0.8-0.3
						s-0.6,0.2-0.8,0.3c-0.2,0.2-0.3,0.5-0.3,0.8c0,0.3,0,0.8,0,1.4v2.6c0,0.6,0,1.1,0,1.4s0.2,0.6,0.3,0.8c0.2,0.2,0.5,0.3,0.8,0.3
						C347.3,410.8,347.6,410.8,347.8,410.5z"/>
				</g>
				<g class="st11">
					<path d="M223.2,381.4l-3.6-7.7h1.5l3.3,7.6h0.2v-7.6h1.4v7.6h0.2l3.3-7.6h1.5l-3.6,7.7l3.9,8.3h-1.5l-3.6-8h-0.2v8h-1.4v-8
						h-0.2l-3.6,8h-1.5L223.2,381.4z"/>
				</g>
				<g class="st11">
					<path d="M233.7,389.5c-0.5-0.3-0.8-0.8-0.9-1.4c-0.2-0.6-0.3-1.5-0.3-2.6v-2.9c0-1.1,0.2-2,0.3-2.6c0.2-0.6,0.6-1.1,1.1-1.4
						c0.5-0.3,1.1-0.5,1.8-0.5s1.4,0.2,1.8,0.5c0.5,0.3,0.8,0.9,0.9,1.5c0.2,0.6,0.3,1.5,0.3,2.7v1.1h-4.5v1.7c0,0.8,0,1.4,0.2,1.8
						c0.2,0.5,0.3,0.8,0.5,1.1c0.3,0.2,0.6,0.3,1.1,0.3s0.9-0.2,1.2-0.5c0.3-0.3,0.5-0.9,0.5-1.7V386h1.4v0.6c0,1.1-0.3,2-0.8,2.6
						c-0.5,0.6-1.2,0.9-2.3,0.9C234.7,389.9,234.1,389.8,233.7,389.5z M237,383.1v-0.9c0-0.8,0-1.2-0.2-1.7c0-0.5-0.2-0.8-0.5-0.9
						c-0.2-0.2-0.6-0.3-1.1-0.3s-0.8,0.2-0.9,0.3c-0.3,0.2-0.5,0.5-0.5,0.9c-0.2,0.5-0.2,1.1-0.2,1.8v0.8L237,383.1L237,383.1z"/>
				</g>
				<g class="st11">
					<path d="M240.5,378.4h1.4v5h3.5v-5h1.5v11.4h-1.5v-5.3h-3.5v5.3h-1.4V378.4z"/>
				</g>
				<g class="st11">
					<path d="M250.3,389.5c-0.5-0.3-0.8-0.8-0.9-1.4c-0.2-0.6-0.3-1.5-0.3-2.6v-2.9c0-1.1,0.2-2,0.3-2.6c0.2-0.6,0.6-1.1,1.1-1.4
						c0.5-0.3,1.1-0.5,1.8-0.5s1.4,0.2,1.8,0.5c0.5,0.3,0.8,0.9,0.9,1.5c0.2,0.6,0.3,1.5,0.3,2.7v1.1h-4.5v1.7c0,0.8,0,1.4,0.2,1.8
						c0.2,0.5,0.3,0.8,0.5,1.1c0.3,0.2,0.6,0.3,1.1,0.3s0.9-0.2,1.2-0.5c0.3-0.3,0.5-0.9,0.5-1.7V386h1.4v0.6c0,1.1-0.3,2-0.8,2.6
						c-0.5,0.6-1.2,0.9-2.3,0.9C251.4,389.9,250.8,389.8,250.3,389.5z M253.6,383.1v-0.9c0-0.8,0-1.2-0.2-1.7c0-0.5-0.2-0.8-0.5-0.9
						c-0.2-0.2-0.6-0.3-1.1-0.3s-0.8,0.2-0.9,0.3c-0.3,0.2-0.5,0.5-0.5,0.9c-0.2,0.5-0.2,1.1-0.2,1.8v0.8L253.6,383.1L253.6,383.1z"
						/>
				</g>
				<g class="st11">
					<path d="M257.1,378.4h2.7c1.1,0,1.8,0.3,2.3,0.8c0.5,0.5,0.8,1.2,0.8,2c0,0.6-0.2,1.1-0.3,1.5c-0.2,0.5-0.6,0.8-1.1,0.9
						c0.6,0.2,1.1,0.5,1.4,1.1c0.3,0.6,0.5,1.2,0.5,1.8c0,1.1-0.2,1.8-0.6,2.4c-0.5,0.6-1.2,0.9-2.4,0.9h-2.9v-11.4H257.1z
						 M260,383.2c0.5,0,0.8-0.2,1.1-0.5c0.3-0.3,0.5-0.8,0.5-1.4c0-1.2-0.6-1.8-1.8-1.8h-1.2v3.6H260z M259.8,388.7
						c0.6,0,1.1-0.2,1.4-0.6c0.3-0.3,0.5-0.9,0.5-1.7c0-0.9-0.2-1.4-0.5-1.7c-0.3-0.3-0.8-0.5-1.4-0.5h-1.4v4.4H259.8z"/>
				</g>
				<g class="st11">
					<path d="M265.4,389.2c-0.5-0.5-0.6-1.1-0.6-1.8s0.2-1.4,0.5-1.8c0.3-0.5,0.8-0.9,1.4-1.4s1.5-0.9,2.7-1.4V382
						c0-0.8,0-1.2-0.2-1.7c-0.2-0.5-0.3-0.6-0.5-0.9c-0.2-0.2-0.5-0.3-0.9-0.3c-1.1,0-1.7,0.6-1.7,2v0.5h-1.4v-0.3
						c0-1.1,0.3-1.8,0.8-2.3c0.5-0.5,1.2-0.8,2.3-0.8c1.1,0,1.7,0.3,2.1,0.9c0.5,0.6,0.6,1.5,0.6,2.9v5.6c0,0.3,0,0.8,0,1.2
						c0,0.5,0,0.8,0,1.1h-1.2l-0.2-1.5c-0.2,0.5-0.5,0.9-0.9,1.2c-0.5,0.3-0.9,0.5-1.5,0.5C266.5,389.9,265.9,389.8,265.4,389.2z
						 M268.6,388.2c0.3-0.3,0.6-0.6,0.8-0.9v-3.5c-0.9,0.5-1.5,0.9-2,1.1c-0.5,0.3-0.6,0.5-0.9,0.9c-0.3,0.5-0.3,0.8-0.3,1.2
						c0,0.6,0.2,1.1,0.3,1.2c0.3,0.3,0.6,0.5,0.9,0.5C268,388.7,268.3,388.5,268.6,388.2z"/>
				</g>
				<g class="st11">
					<path d="M270.7,363.7h-8.2v-15.9h1.5v14.9h5.3v-14.9h1.5v14.9h1.2v3.8h-1.2L270.7,363.7z"/>
				</g>
				<g class="st11">
					<path d="M277.4,362.8c-0.5-0.8-0.6-1.8-0.6-3.2v-1.1h-1.5v5.2h-1.4v-11.4h1.4v5.3h1.5v-1.2c0-1.5,0.2-2.6,0.6-3.2
						s1.2-1.1,2.3-1.1c1.1,0,1.8,0.3,2.3,1.1c0.5,0.8,0.6,1.8,0.6,3.2v3.2c0,1.5-0.2,2.6-0.6,3.2c-0.5,0.8-1.2,1.1-2.3,1.1
						S277.8,363.5,277.4,362.8z M280.7,362.4c0.2-0.3,0.3-0.6,0.5-1.1c0-0.5,0.2-1.1,0.2-1.7v-3.3c0-0.8,0-1.4-0.2-1.7
						c-0.2-0.3-0.2-0.8-0.5-1.1c-0.2-0.3-0.6-0.3-1.1-0.3c-0.5,0-0.8,0.2-1.1,0.3c-0.3,0.2-0.3,0.6-0.5,1.1c0,0.5-0.2,1.1-0.2,1.8
						v3.3c0,0.8,0,1.4,0.2,1.8c0,0.5,0.2,0.8,0.5,1.1c0.2,0.3,0.6,0.3,1.1,0.3C280.1,362.8,280.4,362.6,280.7,362.4z"/>
					<path d="M284.5,352.3h1.4v0.9c0.6-0.8,1.4-1.1,2.1-1.1c1.1,0,1.7,0.5,2,1.2s0.6,2,0.6,3.3v2.4c0,1.5-0.2,2.7-0.6,3.6
						s-1.1,1.2-2.1,1.2c-0.8,0-1.4-0.3-2-1.1v4.7h-1.4V352.3z M288.9,361.8c0.2-0.6,0.3-1.5,0.3-2.7v-2.4c0-1.2-0.2-2.1-0.3-2.6
						c-0.2-0.5-0.6-0.8-1.2-0.8c-0.6,0-1.2,0.3-1.8,0.9v7.7c0.5,0.6,1.1,0.8,1.8,0.8C288.3,362.8,288.7,362.4,288.9,361.8z"/>
				</g>
				<g class="st11">
					<path d="M292.8,352.3h1.2v8.8l3.8-8.8h1.2v11.4h-1.2v-8.8l-3.8,8.8h-1.2V352.3z"/>
				</g>
				<g class="st11">
					<path d="M303.4,357.7l-2.6-5.5h1.4l2,4.2l1.8-4.2h1.4l-2.7,5.6l2.7,5.8H306l-2.1-4.6l-2,4.6h-1.4L303.4,357.7z"/>
				</g>
				<ellipse class="st10" cx="380.7" cy="249.4" rx="5" ry="5"/>
				<ellipse class="st10" cx="202.3" cy="269.3" rx="5" ry="5"/>
				<g class="st11">
					<path d="M140.4,273.2c0.8,0,1.2-0.2,1.5-0.5c0.3-0.3,0.5-0.9,0.8-2c0.2-1.1,0.3-2.9,0.6-5.5l0.5-6.8h6.1v15.9h-1.5v-14.9H145
						l-0.3,5.8c-0.2,2.9-0.5,4.9-0.6,5.9c-0.2,1.2-0.6,2-1.1,2.4c-0.5,0.5-1.4,0.8-2.4,0.6v-1.1H140.4z"/>
				</g>
				<g class="st11">
					<path d="M152.7,273.4c-0.5-0.8-0.6-1.8-0.6-3.2V267c0-1.5,0.2-2.6,0.6-3.2s1.2-1.1,2.4-1.1c1.1,0,2,0.3,2.4,1.1
						c0.5,0.8,0.6,1.8,0.6,3.2v3.2c0,1.5-0.2,2.6-0.6,3.2c-0.5,0.8-1.2,1.1-2.4,1.1S153.1,274.1,152.7,273.4z M156.2,273.1
						c0.3-0.3,0.3-0.6,0.5-1.1c0-0.5,0.2-1.1,0.2-1.7V267c0-0.8,0-1.4-0.2-1.7c0-0.5-0.2-0.8-0.5-1.1s-0.6-0.3-1.1-0.3
						s-0.8,0.2-1.1,0.3c-0.3,0.3-0.3,0.6-0.5,1.1c0,0.5-0.2,1.1-0.2,1.8v3.3c0,0.8,0,1.4,0.2,1.8c0,0.5,0.2,0.8,0.5,1.1
						c0.3,0.3,0.6,0.3,1.1,0.3S155.9,273.2,156.2,273.1z"/>
				</g>
				<g class="st11">
					<path d="M160.3,262.9h1.4v5h3.5v-5h1.5v11.4h-1.5V269h-3.5v5.3h-1.4V262.9z"/>
				</g>
				<g class="st11">
					<path d="M168.4,273.2c0.5-0.3,0.9-0.8,1.2-1.2c0.3-0.5,0.6-1.4,0.8-2.4c0.2-1.1,0.3-2.4,0.5-4.1l0.2-2.7h4.7v10.3h1.2v3.8h-1.1
						l-0.2-2.7h-6.1l-0.2,2.7h-1.1L168.4,273.2L168.4,273.2z M174.3,273.2V264h-2.1l-0.2,1.8c0,1.7-0.2,2.9-0.3,3.9
						c-0.2,0.9-0.5,1.7-0.6,2.3c-0.3,0.5-0.6,0.9-1.1,1.2H174.3z"/>
				</g>
				<g class="st11">
					<path d="M179,273.4c-0.5-0.8-0.6-1.8-0.6-3.2V267c0-1.5,0.2-2.6,0.6-3.2s1.2-1.1,2.4-1.1c1.1,0,2,0.3,2.4,1.1
						c0.5,0.8,0.6,1.8,0.6,3.2v3.2c0,1.5-0.2,2.6-0.6,3.2c-0.5,0.8-1.2,1.1-2.4,1.1S179.5,274.1,179,273.4z M182.5,273.1
						c0.3-0.3,0.3-0.6,0.5-1.1c0-0.5,0.2-1.1,0.2-1.7V267c0-0.8,0-1.4-0.2-1.7c0-0.5-0.2-0.8-0.5-1.1s-0.6-0.3-1.1-0.3
						c-0.5,0-0.8,0.2-1.1,0.3c-0.3,0.3-0.3,0.6-0.5,1.1c0,0.5-0.2,1.1-0.2,1.8v3.3c0,0.8,0,1.4,0.2,1.8c0,0.5,0.2,0.8,0.5,1.1
						s0.6,0.3,1.1,0.3C181.9,273.7,182.2,273.2,182.5,273.1z"/>
				</g>
				<g class="st11">
					<path d="M186.6,262.9h1.4v5h3.5v-5h1.5v11.4h-1.5V269H188v5.3h-1.4V262.9z"/>
				</g>
				<ellipse class="st10" cx="494.7" cy="264.3" rx="5" ry="5"/>
				<g class="st11">
					<path d="M424.5,254.6h3.5c1.4,0,2.4,0.3,3,1.1c0.6,0.8,0.9,1.7,0.9,2.9c0,0.9-0.2,1.7-0.5,2.3c-0.3,0.6-0.9,1.1-1.5,1.2
						c0.9,0.3,1.5,0.8,1.8,1.4c0.3,0.8,0.6,1.5,0.6,2.6c0,1.4-0.3,2.6-0.9,3.3c-0.6,0.8-1.5,1.2-2.9,1.2h-3.9v-15.9H424.5z
						 M428.1,261.4c0.9,0,1.5-0.3,1.8-0.8c0.3-0.5,0.5-1.2,0.5-2.1c0-0.6-0.2-1.2-0.3-1.7s-0.5-0.8-0.9-0.9
						c-0.5-0.2-1.1-0.3-1.8-0.3H426v5.8H428.1z M428.1,269.4c0.8,0,1.2-0.2,1.5-0.3c0.3-0.2,0.6-0.6,0.8-1.1s0.2-1.2,0.2-2
						c0-2.3-0.9-3.3-2.6-3.3h-2.1v6.8h2.3V269.4z"/>
				</g>
				<g class="st11">
					<path d="M434.6,269.9c-0.5-0.5-0.6-1.1-0.6-1.8s0.2-1.4,0.5-1.8c0.3-0.5,0.8-0.9,1.4-1.4s1.5-0.9,2.7-1.4v-0.8
						c0-0.8,0-1.2-0.2-1.7c-0.2-0.5-0.3-0.6-0.5-0.9c-0.2-0.2-0.5-0.3-0.9-0.3c-1.1,0-1.7,0.6-1.7,2v0.5H434V262
						c0-1.1,0.3-1.8,0.8-2.3c0.5-0.5,1.2-0.8,2.3-0.8s1.7,0.3,2.1,0.9c0.5,0.6,0.6,1.5,0.6,2.9v5.6c0,0.3,0,0.8,0,1.2
						c0,0.5,0,0.8,0,1.1h-0.9l-0.2-1.5c-0.2,0.5-0.5,0.9-0.9,1.2c-0.5,0.3-0.9,0.5-1.5,0.5C435.7,270.7,435.1,270.5,434.6,269.9z
						 M437.8,269c0.3-0.3,0.6-0.6,0.8-0.9v-3.5c-0.9,0.5-1.5,0.9-2,1.1c-0.5,0.3-0.6,0.5-0.9,0.9c-0.3,0.5-0.3,0.8-0.3,1.2
						c0,0.6,0.2,1.1,0.3,1.2c0.3,0.3,0.6,0.5,0.9,0.5C437.2,269.4,437.5,269.3,437.8,269z"/>
					<path d="M442.2,259.1h1.4v0.9c0.6-0.8,1.4-1.1,2.1-1.1c1.1,0,1.7,0.5,2,1.2c0.3,0.8,0.6,2,0.6,3.3v2.4c0,1.5-0.2,2.7-0.6,3.6
						c-0.5,0.9-1.1,1.2-2.1,1.2c-0.8,0-1.4-0.3-2-1.1v4.7h-1.4V259.1z M446.6,268.7c0.2-0.6,0.3-1.5,0.3-2.7v-2.4
						c0-1.2-0.2-2.1-0.3-2.6s-0.6-0.8-1.2-0.8c-0.6,0-1.2,0.3-1.8,0.9v7.7c0.5,0.6,1.1,0.8,1.8,0.8
						C446,269.6,446.4,269.3,446.6,268.7z"/>
				</g>
				<g class="st11">
					<path d="M450.5,259.1h1.4v10.3h2.6v-10.3h1.4v10.3h2.4v-10.3h1.4v11.4h-9.2v-11.4H450.5z"/>
				</g>
				<g class="st11">
					<path d="M462.3,269.9c-0.5-0.5-0.6-1.1-0.6-1.8s0.2-1.4,0.5-1.8c0.3-0.5,0.8-0.9,1.4-1.4s1.5-0.9,2.7-1.4v-0.8
						c0-0.8,0-1.2-0.2-1.7c-0.2-0.5-0.3-0.6-0.5-0.9c-0.2-0.2-0.5-0.3-0.9-0.3c-1.1,0-1.7,0.6-1.7,2v0.5h-1.4V262
						c0-1.1,0.3-1.8,0.8-2.3c0.5-0.5,1.2-0.8,2.3-0.8s1.7,0.3,2.1,0.9c0.5,0.6,0.6,1.5,0.6,2.9v5.6c0,0.3,0,0.8,0,1.2
						c0,0.5,0,0.8,0,1.1h-1.2l-0.2-1.5c-0.2,0.5-0.5,0.9-0.9,1.2c-0.5,0.3-0.9,0.5-1.5,0.5C463.4,270.7,462.8,270.5,462.3,269.9z
						 M465.5,269c0.3-0.3,0.6-0.6,0.8-0.9v-3.5c-0.9,0.5-1.5,0.9-2,1.1c-0.5,0.3-0.6,0.5-0.9,0.9c-0.3,0.5-0.3,0.8-0.3,1.2
						c0,0.6,0.2,1.1,0.3,1.2c0.3,0.3,0.6,0.5,0.9,0.5C464.9,269.4,465.2,269.3,465.5,269z"/>
				</g>
				<g class="st11">
					<path d="M469.9,259.1h2.7c1.1,0,1.8,0.3,2.3,0.8c0.5,0.5,0.8,1.2,0.8,2c0,0.6-0.2,1.1-0.3,1.5c-0.2,0.5-0.6,0.8-1.1,0.9
						c0.6,0.2,1.1,0.5,1.4,1.1c0.3,0.6,0.5,1.2,0.5,1.8c0,1.1-0.2,1.8-0.6,2.4s-1.2,0.9-2.4,0.9h-2.9v-11.4H469.9z M472.8,264
						c0.5,0,0.8-0.2,1.1-0.5s0.5-0.8,0.5-1.4c0-1.2-0.6-1.8-1.8-1.8h-1.2v3.6H472.8z M472.6,269.4c0.6,0,1.1-0.2,1.4-0.6
						c0.3-0.3,0.5-0.9,0.5-1.7c0-0.9-0.2-1.4-0.5-1.7c-0.3-0.3-0.8-0.5-1.4-0.5h-1.4v4.4H472.6L472.6,269.4z"/>
				</g>
				<g class="st11">
					<path d="M478.2,269.9c-0.5-0.5-0.6-1.1-0.6-1.8s0.2-1.4,0.5-1.8c0.3-0.5,0.8-0.9,1.4-1.4c0.6-0.5,1.5-0.9,2.7-1.4v-0.8
						c0-0.8,0-1.2-0.2-1.7c-0.2-0.5-0.3-0.6-0.5-0.9c-0.2-0.2-0.5-0.3-0.9-0.3c-1.1,0-1.7,0.6-1.7,2v0.5h-1.4V262
						c0-1.1,0.3-1.8,0.8-2.3c0.5-0.5,1.2-0.8,2.3-0.8s1.7,0.3,2.1,0.9c0.5,0.6,0.6,1.5,0.6,2.9v5.6c0,0.3,0,0.8,0,1.2
						c0,0.5,0,0.8,0,1.1h-1.2l-0.2-1.5c-0.2,0.5-0.5,0.9-0.9,1.2c-0.5,0.3-0.9,0.5-1.5,0.5C479.3,270.7,478.7,270.5,478.2,269.9z
						 M481.4,269c0.3-0.3,0.6-0.6,0.8-0.9v-3.5c-0.9,0.5-1.5,0.9-2,1.1c-0.5,0.3-0.6,0.5-0.9,0.9c-0.3,0.5-0.3,0.8-0.3,1.2
						c0,0.6,0.2,1.1,0.3,1.2c0.3,0.3,0.6,0.5,0.9,0.5C480.8,269.4,481.1,269.3,481.4,269z"/>
				</g>
				<ellipse class="st10" cx="623.6" cy="304" rx="7.4" ry="7.4"/>
				<g class="st11">
					<path class="st10" d="M638.6,294.3h1.5v7.3h1.1l3.3-7.3h1.5l-3.5,7.7l3.9,8.3H645l-3.8-7.9h-1.1v7.9h-1.5V294.3z"/>
				</g>
				<g class="st11">
					<path class="st10" d="M648.3,298.9h1.2v8.8l3.8-8.8h1.2v11.4h-1.2v-8.8l-3.8,8.8h-1.2V298.9z"/>
				</g>
				<g class="st11">
					<path class="st10" d="M657.8,310c-0.5-0.3-0.8-0.8-1.1-1.4c-0.3-0.6-0.3-1.5-0.3-2.6v-2.9c0-1.1,0.2-2,0.3-2.6
						c0.2-0.6,0.6-1.1,1.1-1.4c0.5-0.3,1.1-0.5,1.8-0.5s1.4,0.2,1.8,0.5c0.5,0.3,0.8,0.9,0.9,1.5c0.2,0.6,0.3,1.5,0.3,2.7v1.1h-4.5
						v1.7c0,0.8,0,1.4,0.2,1.8c0.2,0.5,0.3,0.8,0.5,1.1c0.2,0.3,0.6,0.3,1.1,0.3c0.5,0,0.9-0.2,1.2-0.5c0.3-0.3,0.5-0.9,0.5-1.7
						v-0.8h1.4v0.6c0,1.1-0.3,2-0.8,2.6c-0.5,0.6-1.2,0.9-2.3,0.9C658.9,310.4,658.3,310.3,657.8,310z M661.2,303.6v-0.9
						c0-0.8,0-1.2-0.2-1.7c0-0.5-0.2-0.8-0.5-0.9c-0.2-0.2-0.6-0.3-1.1-0.3c-0.5,0-0.8,0.2-0.9,0.3c-0.3,0.2-0.5,0.5-0.5,0.9
						c-0.2,0.5-0.2,1.1-0.2,1.8v0.8L661.2,303.6L661.2,303.6z"/>
				</g>
				<g class="st11">
					<path class="st10" d="M664.6,298.9h2.7c1.1,0,1.8,0.3,2.3,0.8c0.5,0.5,0.8,1.2,0.8,2c0,0.6-0.2,1.1-0.3,1.5
						c-0.2,0.5-0.6,0.8-1.1,0.9c0.6,0.2,1.1,0.5,1.4,1.1s0.5,1.2,0.5,1.8c0,1.1-0.2,1.8-0.6,2.4c-0.5,0.6-1.2,0.9-2.4,0.9h-2.9
						v-11.4H664.6z M667.5,303.7c0.5,0,0.8-0.2,1.1-0.5c0.3-0.3,0.5-0.8,0.5-1.4c0-1.2-0.6-1.8-1.8-1.8H666v3.6H667.5z M667.4,309.2
						c0.6,0,1.1-0.2,1.4-0.6c0.3-0.3,0.5-0.9,0.5-1.7c0-0.9-0.2-1.4-0.5-1.7c-0.3-0.3-0.8-0.5-1.4-0.5H666v4.4L667.4,309.2
						L667.4,309.2z"/>
				</g>
				<ellipse class="st10" cx="464.9" cy="373.7" rx="5" ry="5"/>
				<ellipse class="st10" cx="425.2" cy="348.8" rx="5" ry="5"/>
				<g class="st11">
					<path d="M480,364h6.4v1.1h-4.8v5.6h1.2c1.5,0,2.7,0.3,3.5,1.1s1.1,2,1.1,3.6c0,1.5-0.3,2.6-1.1,3.3s-1.8,1.2-3.5,1.2h-2.9V364
						H480z M482.9,378.7c1.1,0,1.8-0.3,2.3-0.8c0.5-0.6,0.8-1.4,0.8-2.6c0-1.2-0.3-2.1-0.8-2.7c-0.5-0.6-1.2-0.9-2.4-0.9h-1.4v7
						H482.9z"/>
				</g>
				<g class="st11">
					<path d="M488.8,381.6c0.8,0,1.4-0.2,1.7-0.5c0.3-0.3,0.5-0.6,0.5-1.2c0-0.3,0-0.6-0.2-1.1l-2.4-10.5h1.4l1.2,6.1l0.8,3.9
						l0.8-3.9l1.1-6.1h1.4l-2.6,11.7c-0.2,0.8-0.5,1.2-0.8,1.5c-0.3,0.3-0.8,0.6-1.2,0.8c-0.5,0.2-1.1,0.2-1.8,0.3v-1.1H488.8z"/>
				</g>
				<g class="st11">
					<path d="M495.3,378.8c0.5-0.3,0.9-0.8,1.2-1.2c0.3-0.5,0.6-1.4,0.8-2.4c0.2-1.1,0.3-2.4,0.5-4.1l0.2-2.7h4.7v10.3h1.2v3.8h-1.1
						l-0.2-2.7h-6.1l-0.2,2.7h-1.1L495.3,378.8L495.3,378.8z M501.2,378.8v-9.3h-2.1l-0.2,1.8c0,1.7-0.2,2.9-0.3,3.9
						c-0.2,1.1-0.5,1.7-0.6,2.3c-0.3,0.5-0.6,0.9-1.1,1.2H501.2z"/>
				</g>
				<g class="st11">
					<path d="M506,379.3c-0.5-0.5-0.6-1.1-0.6-1.8c0-0.8,0.2-1.4,0.5-1.8c0.3-0.5,0.8-0.9,1.4-1.4c0.6-0.5,1.5-0.9,2.7-1.4v-0.8
						c0-0.8,0-1.2-0.2-1.7c-0.2-0.5-0.3-0.6-0.5-0.9c-0.2-0.2-0.5-0.3-0.9-0.3c-1.1,0-1.7,0.6-1.7,2v0.5h-1.4v-0.3
						c0-1.1,0.3-1.8,0.8-2.3c0.5-0.5,1.2-0.8,2.3-0.8s1.7,0.3,2.1,0.9c0.5,0.6,0.6,1.5,0.6,2.9v5.6c0,0.3,0,0.8,0,1.2
						c0,0.5,0,0.8,0,1.1H510l-0.2-1.5c-0.2,0.5-0.5,0.9-0.9,1.2c-0.5,0.3-0.9,0.5-1.5,0.5C507.1,380,506.5,379.9,506,379.3z
						 M509.2,378.4c0.3-0.3,0.6-0.6,0.8-0.9V374c-0.9,0.5-1.5,0.9-2,1.1c-0.5,0.3-0.6,0.5-0.9,0.9c-0.3,0.5-0.3,0.8-0.3,1.2
						c0,0.6,0.2,1.1,0.3,1.2c0.2,0.2,0.6,0.5,0.9,0.5C508.6,378.8,508.9,378.7,509.2,378.4z"/>
				</g>
				<g class="st11">
					<path d="M513.6,368.5h6.1v11.4h-1.4v-10.3h-3.2v10.3h-1.4v-11.4H513.6z"/>
				</g>
				<g class="st11">
					<path d="M523,379.6c-0.5-0.3-0.8-0.8-0.9-1.4c-0.2-0.6-0.3-1.5-0.3-2.6v-2.9c0-1.1,0.2-2,0.3-2.6c0.2-0.6,0.6-1.1,1.1-1.4
						c0.5-0.3,1.1-0.5,1.8-0.5s1.4,0.2,1.8,0.5c0.5,0.3,0.8,0.9,0.9,1.5c0.2,0.6,0.3,1.5,0.3,2.7v1.1h-4.5v1.7c0,0.8,0,1.4,0.2,1.8
						c0.2,0.5,0.3,0.8,0.5,1.1c0.3,0.2,0.6,0.3,1.1,0.3c0.5,0,0.9-0.2,1.2-0.5c0.3-0.3,0.5-0.9,0.5-1.7v-0.8h1.4v0.6
						c0,1.1-0.3,2-0.8,2.6c-0.5,0.6-1.2,0.9-2.3,0.9C524.1,380,523.4,379.9,523,379.6z M526.3,373.2v-0.9c0-0.8,0-1.2-0.2-1.7
						c-0.2-0.5-0.2-0.8-0.5-0.9c-0.2-0.2-0.6-0.3-1.1-0.3c-0.5,0-0.8,0.2-0.9,0.3c-0.2,0.2-0.5,0.5-0.5,0.9
						c-0.2,0.5-0.2,1.1-0.2,1.8v0.8L526.3,373.2L526.3,373.2z"/>
				</g>
				<g class="st11">
					<path d="M529.8,368.5h1.4v10.3h2.6v-10.3h1.4v10.3h2.4v-10.3h1.4v11.4h-9.2v-11.4H529.8z"/>
				</g>
				<g class="st11">
					<path d="M543.1,369.6h-2.4v-1.1h6.4v1.1h-2.4v10.3h-1.4v-10.3H543.1z"/>
				</g>
				<g class="st11">
					<path d="M326.1,382.6h-6.4v-12.3h1.2v11.4h4.1v-11.4h1.2v11.4h0.9v3h-0.9L326.1,382.6z"/>
				</g>
				<g class="st11">
					<path d="M328.5,383.8c0.6,0,1.1-0.2,1.4-0.3c0.3-0.2,0.5-0.5,0.5-0.9c0-0.2,0-0.5-0.2-0.8l-1.8-8h1.1l0.9,4.6l0.6,3l0.5-3
						l0.9-4.6h1.1l-2,9.1c-0.2,0.5-0.3,0.9-0.5,1.2c-0.3,0.3-0.5,0.5-0.9,0.6c-0.5,0.2-0.8,0.2-1.4,0.2v-1.1H328.5z"/>
				</g>
				<g class="st11">
					<path d="M334.9,373.8h3.2v0.8H336v7.9h-1.1V373.8z"/>
				</g>
				<path class="st12" d="M281.6,383.5l1.2-0.9"/>
				<path class="st13" d="M285.1,380.7c80.8-66.8,221.7-89.7,335.5-76.9"/>
				<path class="st12" d="M622.1,303.9h1.5"/>
				<path class="st14" d="M313.9,376.1c0-9.6,1.1-17.4,2.4-17.4"/>
				<path class="st14" d="M323.7,396c-5.4,0-10-9-10-19.9"/>
				<path class="st15" d="M378.2,250.6c81.7-32.9,172.8-25.8,245.3,53.4"/>
				<path class="st15" d="M494.7,264.3c60.7-7,99.6,12.4,128.9,39.7"/>
				<path class="st15" d="M202.3,269.3c79.3,40.2,216.9-10,421.3,34.7"/>
				<path class="st15" d="M425.2,348.8C454,324.5,513.9,304,623.5,304"/>
				<path class="st15" d="M464.9,373.7c36.6-50.2,115.5-69.6,158.6-69.6"/>
			</g>
		</g>
	</g>
	
		<linearGradient id="SVGID_3_" gradientUnits="userSpaceOnUse" x1="83.602" y1="338.1553" x2="856.1547" y2="-434.3974" gradientTransform="matrix(1 0 0 1 0 352.69)">
		<stop  offset="0" style="stop-color:#FFFFFF;stop-opacity:0"/>
		<stop  offset="0.16" style="stop-color:#FFFFFF;stop-opacity:1.000000e-02"/>
		<stop  offset="0.29" style="stop-color:#FFFFFF;stop-opacity:5.000000e-02"/>
		<stop  offset="0.41" style="stop-color:#FFFFFF;stop-opacity:0.12"/>
		<stop  offset="0.52" style="stop-color:#FFFFFF;stop-opacity:0.21"/>
		<stop  offset="0.63" style="stop-color:#FFFFFF;stop-opacity:0.33"/>
		<stop  offset="0.74" style="stop-color:#FFFFFF;stop-opacity:0.48"/>
		<stop  offset="0.84" style="stop-color:#FFFFFF;stop-opacity:0.66"/>
		<stop  offset="0.94" style="stop-color:#FFFFFF;stop-opacity:0.86"/>
		<stop  offset="1" style="stop-color:#FFFFFF"/>
	</linearGradient>
	<rect x="0.8" y="1.1" class="st16" width="938.2" height="606.9"/>
	
		<linearGradient id="SVGID_4_" gradientUnits="userSpaceOnUse" x1="469.1217" y1="254.1721" x2="469.1217" y2="-352.69" gradientTransform="matrix(1 0 0 1 0 352.69)">
		<stop  offset="0" style="stop-color:#FFFFFF;stop-opacity:0"/>
		<stop  offset="0.12" style="stop-color:#FFFFFF;stop-opacity:2.000000e-02"/>
		<stop  offset="0.25" style="stop-color:#FFFFFF;stop-opacity:7.000000e-02"/>
		<stop  offset="0.37" style="stop-color:#FFFFFF;stop-opacity:0.15"/>
		<stop  offset="0.5" style="stop-color:#FFFFFF;stop-opacity:0.26"/>
		<stop  offset="0.63" style="stop-color:#FFFFFF;stop-opacity:0.41"/>
		<stop  offset="0.76" style="stop-color:#FFFFFF;stop-opacity:0.59"/>
		<stop  offset="0.89" style="stop-color:#FFFFFF;stop-opacity:0.8"/>
		<stop  offset="1" style="stop-color:#FFFFFF"/>
	</linearGradient>
	<rect class="st17" width="938.2" height="606.9"/>
	<ellipse class="st18" cx="494.7" cy="264.3" rx="5" ry="5"/>
	<path id="UA-2" class="st19" d="M642.8,264.3l5,1.1l3.5-5l3.9,1.1l14.4-2l8.9,12.9l-3.5,4.4l1.1,7l10.9,1.1l5,9.4l-0.5,4.4
		l17.9,7.4l10.4-3.5l8.5,10h7.9l20.3,7v6.5L751,337l3,11.4l-2,7l-13.3,1.5l-7,5.9l-0.5,9l-10.9,1.5l-9.4,6.5l-12.9,1.1l-12,7.4
		l-6.5,5l7.4,7.4l7,5l14.4-1.1l-2.4,7l-15.6,3.3l-18.8,11.4l-7.4-3.9l3-9l-15.6-6.1l2.4-3.9l15.9-7.9l-2-3.9l-2.4,2l-2-1.1l-21.8-5
		l-1.1-7.4l-12.9,2.4l-5,10.9l-10.9,14.9l-6.5-3.5l-6.5,3l-5.9-3.5l3.5-2l2.4-7l3.9-6.5l-1.1-3.5l3-1.5l1.5,3l8.5,0.5l3.5-1.5
		l-2.4-2l1.1-3l-5-5l-2-8.5l-5-3.5l1.1-7l-6.5-5.5l-5.9-1.1l-10.4-6.5l-9.4,2l-3.5,3h-5.9l-3.5,5l-10.4,2l-5,3l-6.5-5h-8.9l-8.5-2.4
		l-5.9,4.4l-1.1-5.5l-7.4-5.5l2.4-8.5l3.9-5.5l3,1.1l-3.5-9.4l12.4-17.9l7-2.4l1.5-5.9l-7-19.4l6.5-1.1l7.4-5.9l10.9-0.5l13.9,2
		l15.4,5.5l10.9,0.5l5,3l5-3.9l3.5,5l12.4-1.1l5.4,2l1.1-11.4l4.4-5L642.8,264.3z"/>
	<g class="st11">
		<path d="M311.6,410.7c0.6,0,0.9-0.2,1.2-0.3c0.3-0.2,0.5-0.8,0.6-1.5s0.3-2.3,0.5-4.2l0.3-5.3h4.7v12.3h-1.2v-11.4h-2.6l-0.3,4.4
			c-0.2,2.1-0.3,3.6-0.5,4.6c-0.2,0.9-0.5,1.5-0.8,1.8c-0.5,0.3-1.1,0.5-2,0.5V410.7z"/>
	</g>
	<g class="st11">
		<path d="M320.7,412.8c0.6,0,1.1-0.2,1.4-0.3c0.3-0.2,0.5-0.5,0.5-0.9c0-0.2,0-0.5-0.2-0.8l-1.8-8h1.1l0.9,4.6l0.6,3l0.5-3l0.9-4.6
			h1.1l-2,9.1c-0.2,0.5-0.3,0.9-0.5,1.2c-0.3,0.3-0.5,0.5-0.9,0.6c-0.5,0.2-0.8,0.2-1.4,0.2v-1.1H320.7z"/>
		<path d="M327,402.8h3.2v0.8h-2.1v7.9H327L327,402.8L327,402.8z"/>
	</g>
	<g class="st11">
		<path d="M332,411.1c-0.3-0.3-0.5-0.9-0.5-1.4c0-0.6,0.2-1.1,0.3-1.4c0.2-0.3,0.6-0.8,1.1-1.1c0.5-0.3,1.2-0.6,2.1-1.1v-0.6
			c0-0.6,0-0.9-0.2-1.2s-0.2-0.5-0.3-0.6c-0.2-0.2-0.3-0.2-0.6-0.2c-0.8,0-1.2,0.5-1.2,1.5v0.3h-1.1v-0.3c0-0.8,0.3-1.4,0.6-1.8
			c0.5-0.3,0.9-0.6,1.7-0.6s1.4,0.3,1.7,0.8c0.3,0.5,0.5,1.2,0.5,2.3v4.2c0,0.3,0,0.6,0,0.9c0,0.3,0,0.6,0,0.8h-0.9l-0.2-1.2
			c-0.2,0.5-0.3,0.8-0.6,0.9c-0.3,0.2-0.8,0.5-1.1,0.5C332.8,411.8,332.3,411.6,332,411.1z M334.4,410.5c0.3-0.2,0.5-0.5,0.6-0.8
			v-2.7c-0.8,0.3-1.2,0.6-1.5,0.9c-0.3,0.2-0.5,0.5-0.8,0.6c-0.2,0.3-0.3,0.6-0.3,1.1c0,0.5,0.2,0.8,0.3,0.9
			c0.2,0.2,0.5,0.3,0.8,0.3C334,410.8,334.3,410.7,334.4,410.5z"/>
	</g>
	<g class="st11">
		<path d="M338.1,402.8h1.1v3.8h2.7v-3.8h1.1v8.8h-1.1v-4.1h-2.7v4.1h-1.1V402.8z"/>
	</g>
	<g class="st11">
		<path d="M345.2,411c-0.3-0.6-0.5-1.4-0.5-2.4v-2.4c0-1.1,0.2-2,0.5-2.4c0.3-0.5,0.9-0.8,1.8-0.8c0.9,0,1.5,0.3,1.8,0.8
			c0.3,0.5,0.5,1.4,0.5,2.4v2.4c0,1.1-0.2,2-0.5,2.4c-0.3,0.6-0.9,0.8-1.8,0.8C346.1,411.8,345.5,411.5,345.2,411z M347.8,410.5
			c0.2-0.2,0.3-0.5,0.3-0.8c0-0.3,0-0.8,0-1.4v-2.6c0-0.6,0-1.1,0-1.4c0-0.3-0.2-0.6-0.3-0.8c-0.2-0.2-0.5-0.3-0.8-0.3
			s-0.6,0.2-0.8,0.3c-0.2,0.2-0.3,0.5-0.3,0.8c0,0.3,0,0.8,0,1.4v2.6c0,0.6,0,1.1,0,1.4s0.2,0.6,0.3,0.8c0.2,0.2,0.5,0.3,0.8,0.3
			C347.3,410.8,347.6,410.8,347.8,410.5z"/>
	</g>
	<g class="st11">
		<path d="M223.2,381.4l-3.6-7.7h1.5l3.3,7.6h0.2v-7.6h1.4v7.6h0.2l3.3-7.6h1.5l-3.6,7.7l3.9,8.3h-1.5l-3.6-8h-0.2v8h-1.4v-8h-0.2
			l-3.6,8h-1.5L223.2,381.4z"/>
	</g>
	<g class="st11">
		<path d="M233.7,389.5c-0.5-0.3-0.8-0.8-0.9-1.4c-0.2-0.6-0.3-1.5-0.3-2.6v-2.9c0-1.1,0.2-2,0.3-2.6c0.2-0.6,0.6-1.1,1.1-1.4
			c0.5-0.3,1.1-0.5,1.8-0.5s1.4,0.2,1.8,0.5c0.5,0.3,0.8,0.9,0.9,1.5c0.2,0.6,0.3,1.5,0.3,2.7v1.1h-4.5v1.7c0,0.8,0,1.4,0.2,1.8
			c0.2,0.5,0.3,0.8,0.5,1.1c0.3,0.2,0.6,0.3,1.1,0.3s0.9-0.2,1.2-0.5c0.3-0.3,0.5-0.9,0.5-1.7V386h1.4v0.6c0,1.1-0.3,2-0.8,2.6
			c-0.5,0.6-1.2,0.9-2.3,0.9C234.7,389.9,234.1,389.8,233.7,389.5z M237,383.1v-0.9c0-0.8,0-1.2-0.2-1.7c0-0.5-0.2-0.8-0.5-0.9
			c-0.2-0.2-0.6-0.3-1.1-0.3s-0.8,0.2-0.9,0.3c-0.3,0.2-0.5,0.5-0.5,0.9c-0.2,0.5-0.2,1.1-0.2,1.8v0.8L237,383.1L237,383.1z"/>
	</g>
	<g class="st11">
		<path d="M240.5,378.4h1.4v5h3.5v-5h1.5v11.4h-1.5v-5.3h-3.5v5.3h-1.4V378.4z"/>
	</g>
	<g class="st11">
		<path d="M250.3,389.5c-0.5-0.3-0.8-0.8-0.9-1.4c-0.2-0.6-0.3-1.5-0.3-2.6v-2.9c0-1.1,0.2-2,0.3-2.6c0.2-0.6,0.6-1.1,1.1-1.4
			c0.5-0.3,1.1-0.5,1.8-0.5s1.4,0.2,1.8,0.5c0.5,0.3,0.8,0.9,0.9,1.5c0.2,0.6,0.3,1.5,0.3,2.7v1.1h-4.5v1.7c0,0.8,0,1.4,0.2,1.8
			c0.2,0.5,0.3,0.8,0.5,1.1c0.3,0.2,0.6,0.3,1.1,0.3s0.9-0.2,1.2-0.5c0.3-0.3,0.5-0.9,0.5-1.7V386h1.4v0.6c0,1.1-0.3,2-0.8,2.6
			c-0.5,0.6-1.2,0.9-2.3,0.9C251.4,389.9,250.8,389.8,250.3,389.5z M253.6,383.1v-0.9c0-0.8,0-1.2-0.2-1.7c0-0.5-0.2-0.8-0.5-0.9
			c-0.2-0.2-0.6-0.3-1.1-0.3s-0.8,0.2-0.9,0.3c-0.3,0.2-0.5,0.5-0.5,0.9c-0.2,0.5-0.2,1.1-0.2,1.8v0.8L253.6,383.1L253.6,383.1z"/>
	</g>
	<g class="st11">
		<path d="M257.1,378.4h2.7c1.1,0,1.8,0.3,2.3,0.8c0.5,0.5,0.8,1.2,0.8,2c0,0.6-0.2,1.1-0.3,1.5c-0.2,0.5-0.6,0.8-1.1,0.9
			c0.6,0.2,1.1,0.5,1.4,1.1c0.3,0.6,0.5,1.2,0.5,1.8c0,1.1-0.2,1.8-0.6,2.4c-0.5,0.6-1.2,0.9-2.4,0.9h-2.9v-11.4H257.1z M260,383.2
			c0.5,0,0.8-0.2,1.1-0.5c0.3-0.3,0.5-0.8,0.5-1.4c0-1.2-0.6-1.8-1.8-1.8h-1.2v3.6H260z M259.8,388.7c0.6,0,1.1-0.2,1.4-0.6
			c0.3-0.3,0.5-0.9,0.5-1.7c0-0.9-0.2-1.4-0.5-1.7c-0.3-0.3-0.8-0.5-1.4-0.5h-1.4v4.4H259.8z"/>
	</g>
	<g class="st11">
		<path d="M265.4,389.2c-0.5-0.5-0.6-1.1-0.6-1.8s0.2-1.4,0.5-1.8c0.3-0.5,0.8-0.9,1.4-1.4s1.5-0.9,2.7-1.4V382c0-0.8,0-1.2-0.2-1.7
			c-0.2-0.5-0.3-0.6-0.5-0.9c-0.2-0.2-0.5-0.3-0.9-0.3c-1.1,0-1.7,0.6-1.7,2v0.5h-1.4v-0.3c0-1.1,0.3-1.8,0.8-2.3
			c0.5-0.5,1.2-0.8,2.3-0.8c1.1,0,1.7,0.3,2.1,0.9c0.5,0.6,0.6,1.5,0.6,2.9v5.6c0,0.3,0,0.8,0,1.2c0,0.5,0,0.8,0,1.1h-1.2l-0.2-1.5
			c-0.2,0.5-0.5,0.9-0.9,1.2c-0.5,0.3-0.9,0.5-1.5,0.5C266.5,389.9,265.9,389.8,265.4,389.2z M268.6,388.2c0.3-0.3,0.6-0.6,0.8-0.9
			v-3.5c-0.9,0.5-1.5,0.9-2,1.1c-0.5,0.3-0.6,0.5-0.9,0.9c-0.3,0.5-0.3,0.8-0.3,1.2c0,0.6,0.2,1.1,0.3,1.2c0.3,0.3,0.6,0.5,0.9,0.5
			C268,388.7,268.3,388.5,268.6,388.2z"/>
	</g>
	<g class="st11">
		<path d="M270.7,363.7h-8.2v-15.9h1.5v14.9h5.3v-14.9h1.5v14.9h1.2v3.8h-1.2L270.7,363.7z"/>
	</g>
	<g class="st11">
		<path d="M277.4,362.8c-0.5-0.8-0.6-1.8-0.6-3.2v-1.1h-1.5v5.2h-1.4v-11.4h1.4v5.3h1.5v-1.2c0-1.5,0.2-2.6,0.6-3.2s1.2-1.1,2.3-1.1
			c1.1,0,1.8,0.3,2.3,1.1c0.5,0.8,0.6,1.8,0.6,3.2v3.2c0,1.5-0.2,2.6-0.6,3.2c-0.5,0.8-1.2,1.1-2.3,1.1S277.8,363.5,277.4,362.8z
			 M280.7,362.4c0.2-0.3,0.3-0.6,0.5-1.1c0-0.5,0.2-1.1,0.2-1.7v-3.3c0-0.8,0-1.4-0.2-1.7c-0.2-0.3-0.2-0.8-0.5-1.1
			c-0.2-0.3-0.6-0.3-1.1-0.3c-0.5,0-0.8,0.2-1.1,0.3c-0.3,0.2-0.3,0.6-0.5,1.1c0,0.5-0.2,1.1-0.2,1.8v3.3c0,0.8,0,1.4,0.2,1.8
			c0,0.5,0.2,0.8,0.5,1.1c0.2,0.3,0.6,0.3,1.1,0.3C280.1,362.8,280.4,362.6,280.7,362.4z"/>
		<path d="M284.5,352.3h1.4v0.9c0.6-0.8,1.4-1.1,2.1-1.1c1.1,0,1.7,0.5,2,1.2s0.6,2,0.6,3.3v2.4c0,1.5-0.2,2.7-0.6,3.6
			s-1.1,1.2-2.1,1.2c-0.8,0-1.4-0.3-2-1.1v4.7h-1.4V352.3z M288.9,361.8c0.2-0.6,0.3-1.5,0.3-2.7v-2.4c0-1.2-0.2-2.1-0.3-2.6
			c-0.2-0.5-0.6-0.8-1.2-0.8c-0.6,0-1.2,0.3-1.8,0.9v7.7c0.5,0.6,1.1,0.8,1.8,0.8C288.3,362.8,288.7,362.4,288.9,361.8z"/>
	</g>
	<g class="st11">
		<path d="M292.8,352.3h1.2v8.8l3.8-8.8h1.2v11.4h-1.2v-8.8l-3.8,8.8h-1.2V352.3z"/>
	</g>
	<g class="st11">
		<path d="M303.4,357.7l-2.6-5.5h1.4l2,4.2l1.8-4.2h1.4l-2.7,5.6l2.7,5.8H306l-2.1-4.6l-2,4.6h-1.4L303.4,357.7z"/>
	</g>
	<g class="st11">
		<path d="M324.3,239.7h6.4v1.1h-4.8v5.6h1.2c1.5,0,2.7,0.3,3.5,1.1c0.8,0.8,1.1,2,1.1,3.6c0,1.5-0.3,2.6-1.1,3.3
			c-0.8,0.8-1.8,1.2-3.5,1.2h-2.9v-15.9H324.3z M327.2,254.4c1.1,0,1.8-0.3,2.3-0.8c0.5-0.6,0.8-1.4,0.8-2.6s-0.3-2.1-0.8-2.7
			c-0.5-0.6-1.2-0.9-2.4-0.9h-1.4v7H327.2z"/>
	</g>
	<g class="st11">
		<path d="M334.7,255.3c-0.5-0.3-0.8-0.8-0.9-1.4c-0.2-0.6-0.3-1.5-0.3-2.6v-2.9c0-1.1,0.2-2,0.3-2.6s0.6-1.1,1.1-1.4
			c0.5-0.3,1.1-0.5,1.8-0.5s1.4,0.2,1.8,0.5c0.5,0.3,0.8,0.9,0.9,1.5c0.2,0.6,0.3,1.5,0.3,2.7v1.1h-4.5v1.7c0,0.8,0,1.4,0.2,1.8
			c0.2,0.5,0.3,0.8,0.5,1.1c0.3,0.2,0.6,0.3,1.1,0.3c0.5,0,0.9-0.2,1.2-0.5c0.3-0.3,0.5-0.9,0.5-1.7v-0.8h1.4v0.6
			c0,1.1-0.3,2-0.8,2.6c-0.5,0.6-1.2,0.9-2.3,0.9C335.8,255.8,335.2,255.6,334.7,255.3z M338.1,249v-0.9c0-0.8,0-1.2-0.2-1.7
			c0-0.5-0.2-0.8-0.5-0.9c-0.2-0.2-0.6-0.3-1.1-0.3c-0.5,0-0.8,0.2-0.9,0.3c-0.3,0.2-0.5,0.5-0.5,0.9c-0.2,0.5-0.2,1.1-0.2,1.8v0.8
			L338.1,249L338.1,249z"/>
	</g>
	<g class="st11">
		<path d="M341.6,244.3h1.4v0.9c0.6-0.8,1.4-1.1,2.1-1.1c1.1,0,1.7,0.5,2,1.2c0.3,0.8,0.6,2,0.6,3.3v2.4c0,1.5-0.2,2.7-0.6,3.6
			s-1.1,1.2-2.1,1.2c-0.8,0-1.4-0.3-2-1.1v4.7h-1.4V244.3z M346.1,253.8c0.2-0.6,0.3-1.5,0.3-2.7v-2.4c0-1.2-0.2-2.1-0.3-2.6
			c-0.2-0.5-0.6-0.8-1.2-0.8s-1.2,0.3-1.8,0.9v7.7c0.5,0.6,1.1,0.8,1.8,0.8C345.5,254.7,345.8,254.4,346.1,253.8z"/>
	</g>
	<g class="st11">
		<path d="M349.1,254.6c0.5,0,0.9-0.2,1.2-0.5c0.3-0.3,0.5-0.8,0.6-1.5c0.2-0.8,0.3-1.8,0.3-3.3l0.3-5.2h5.1v11.4h-1.4v-10.3h-2.6
			l-0.3,3.9c-0.2,1.8-0.3,3-0.5,3.9c-0.2,0.9-0.6,1.5-0.9,1.8c-0.5,0.3-1.1,0.6-1.8,0.6h-0.2V254.6L349.1,254.6z"/>
	</g>
	<g class="st11">
		<path d="M359.6,240.9h1.7v2h-1.7V240.9z M359.6,244.3h1.4v11.4h-1.4V244.3z"/>
	</g>
	<g class="st11">
		<path d="M364.6,244.3h1.4v5h3.5v-5h1.5v11.4h-1.5v-5.3h-3.5v5.3h-1.4V244.3z"/>
	</g>
	<g class="st11">
		<path d="M140.4,273.2c0.8,0,1.2-0.2,1.5-0.5c0.3-0.3,0.5-0.9,0.8-2c0.2-1.1,0.3-2.9,0.6-5.5l0.5-6.8h6.1v15.9h-1.5v-14.9H145
			l-0.3,5.8c-0.2,2.9-0.5,4.9-0.6,5.9c-0.2,1.2-0.6,2-1.1,2.4c-0.5,0.5-1.4,0.8-2.4,0.6v-1.1H140.4z"/>
	</g>
	<g class="st11">
		<path d="M152.7,273.4c-0.5-0.8-0.6-1.8-0.6-3.2V267c0-1.5,0.2-2.6,0.6-3.2s1.2-1.1,2.4-1.1c1.1,0,2,0.3,2.4,1.1
			c0.5,0.8,0.6,1.8,0.6,3.2v3.2c0,1.5-0.2,2.6-0.6,3.2c-0.5,0.8-1.2,1.1-2.4,1.1S153.1,274.1,152.7,273.4z M156.2,273.1
			c0.3-0.3,0.3-0.6,0.5-1.1c0-0.5,0.2-1.1,0.2-1.7V267c0-0.8,0-1.4-0.2-1.7c0-0.5-0.2-0.8-0.5-1.1s-0.6-0.3-1.1-0.3
			s-0.8,0.2-1.1,0.3c-0.3,0.3-0.3,0.6-0.5,1.1c0,0.5-0.2,1.1-0.2,1.8v3.3c0,0.8,0,1.4,0.2,1.8c0,0.5,0.2,0.8,0.5,1.1
			c0.3,0.3,0.6,0.3,1.1,0.3S155.9,273.2,156.2,273.1z"/>
	</g>
	<g class="st11">
		<path d="M160.3,262.9h1.4v5h3.5v-5h1.5v11.4h-1.5V269h-3.5v5.3h-1.4V262.9z"/>
	</g>
	<g class="st11">
		<path d="M168.4,273.2c0.5-0.3,0.9-0.8,1.2-1.2c0.3-0.5,0.6-1.4,0.8-2.4c0.2-1.1,0.3-2.4,0.5-4.1l0.2-2.7h4.7v10.3h1.2v3.8h-1.1
			l-0.2-2.7h-6.1l-0.2,2.7h-1.1L168.4,273.2L168.4,273.2z M174.3,273.2V264h-2.1l-0.2,1.8c0,1.7-0.2,2.9-0.3,3.9
			c-0.2,0.9-0.5,1.7-0.6,2.3c-0.3,0.5-0.6,0.9-1.1,1.2H174.3z"/>
	</g>
	<g class="st11">
		<path d="M179,273.4c-0.5-0.8-0.6-1.8-0.6-3.2V267c0-1.5,0.2-2.6,0.6-3.2s1.2-1.1,2.4-1.1c1.1,0,2,0.3,2.4,1.1
			c0.5,0.8,0.6,1.8,0.6,3.2v3.2c0,1.5-0.2,2.6-0.6,3.2c-0.5,0.8-1.2,1.1-2.4,1.1S179.5,274.1,179,273.4z M182.5,273.1
			c0.3-0.3,0.3-0.6,0.5-1.1c0-0.5,0.2-1.1,0.2-1.7V267c0-0.8,0-1.4-0.2-1.7c0-0.5-0.2-0.8-0.5-1.1s-0.6-0.3-1.1-0.3
			c-0.5,0-0.8,0.2-1.1,0.3c-0.3,0.3-0.3,0.6-0.5,1.1c0,0.5-0.2,1.1-0.2,1.8v3.3c0,0.8,0,1.4,0.2,1.8c0,0.5,0.2,0.8,0.5,1.1
			s0.6,0.3,1.1,0.3C181.9,273.7,182.2,273.2,182.5,273.1z"/>
	</g>
	<g class="st11">
		<path d="M186.6,262.9h1.4v5h3.5v-5h1.5v11.4h-1.5V269H188v5.3h-1.4V262.9z"/>
	</g>
	<g class="st11">
		<path d="M424.5,254.6h3.5c1.4,0,2.4,0.3,3,1.1c0.6,0.8,0.9,1.7,0.9,2.9c0,0.9-0.2,1.7-0.5,2.3c-0.3,0.6-0.9,1.1-1.5,1.2
			c0.9,0.3,1.5,0.8,1.8,1.4c0.3,0.8,0.6,1.5,0.6,2.6c0,1.4-0.3,2.6-0.9,3.3c-0.6,0.8-1.5,1.2-2.9,1.2h-3.9v-15.9H424.5z
			 M428.1,261.4c0.9,0,1.5-0.3,1.8-0.8c0.3-0.5,0.5-1.2,0.5-2.1c0-0.6-0.2-1.2-0.3-1.7s-0.5-0.8-0.9-0.9c-0.5-0.2-1.1-0.3-1.8-0.3
			H426v5.8H428.1z M428.1,269.4c0.8,0,1.2-0.2,1.5-0.3c0.3-0.2,0.6-0.6,0.8-1.1s0.2-1.2,0.2-2c0-2.3-0.9-3.3-2.6-3.3h-2.1v6.8h2.3
			V269.4z"/>
	</g>
	<g class="st11">
		<path d="M434.6,269.9c-0.5-0.5-0.6-1.1-0.6-1.8s0.2-1.4,0.5-1.8c0.3-0.5,0.8-0.9,1.4-1.4s1.5-0.9,2.7-1.4v-0.8
			c0-0.8,0-1.2-0.2-1.7c-0.2-0.5-0.3-0.6-0.5-0.9c-0.2-0.2-0.5-0.3-0.9-0.3c-1.1,0-1.7,0.6-1.7,2v0.5H434V262c0-1.1,0.3-1.8,0.8-2.3
			c0.5-0.5,1.2-0.8,2.3-0.8s1.7,0.3,2.1,0.9c0.5,0.6,0.6,1.5,0.6,2.9v5.6c0,0.3,0,0.8,0,1.2c0,0.5,0,0.8,0,1.1h-0.9l-0.2-1.5
			c-0.2,0.5-0.5,0.9-0.9,1.2c-0.5,0.3-0.9,0.5-1.5,0.5C435.7,270.7,435.1,270.5,434.6,269.9z M437.8,269c0.3-0.3,0.6-0.6,0.8-0.9
			v-3.5c-0.9,0.5-1.5,0.9-2,1.1c-0.5,0.3-0.6,0.5-0.9,0.9c-0.3,0.5-0.3,0.8-0.3,1.2c0,0.6,0.2,1.1,0.3,1.2c0.3,0.3,0.6,0.5,0.9,0.5
			C437.2,269.4,437.5,269.3,437.8,269z"/>
		<path d="M442.2,259.1h1.4v0.9c0.6-0.8,1.4-1.1,2.1-1.1c1.1,0,1.7,0.5,2,1.2c0.3,0.8,0.6,2,0.6,3.3v2.4c0,1.5-0.2,2.7-0.6,3.6
			c-0.5,0.9-1.1,1.2-2.1,1.2c-0.8,0-1.4-0.3-2-1.1v4.7h-1.4V259.1z M446.6,268.7c0.2-0.6,0.3-1.5,0.3-2.7v-2.4
			c0-1.2-0.2-2.1-0.3-2.6s-0.6-0.8-1.2-0.8c-0.6,0-1.2,0.3-1.8,0.9v7.7c0.5,0.6,1.1,0.8,1.8,0.8C446,269.6,446.4,269.3,446.6,268.7z
			"/>
	</g>
	<g class="st11">
		<path d="M450.5,259.1h1.4v10.3h2.6v-10.3h1.4v10.3h2.4v-10.3h1.4v11.4h-9.2v-11.4H450.5z"/>
	</g>
	<g class="st11">
		<path d="M462.3,269.9c-0.5-0.5-0.6-1.1-0.6-1.8s0.2-1.4,0.5-1.8c0.3-0.5,0.8-0.9,1.4-1.4s1.5-0.9,2.7-1.4v-0.8
			c0-0.8,0-1.2-0.2-1.7c-0.2-0.5-0.3-0.6-0.5-0.9c-0.2-0.2-0.5-0.3-0.9-0.3c-1.1,0-1.7,0.6-1.7,2v0.5h-1.4V262
			c0-1.1,0.3-1.8,0.8-2.3c0.5-0.5,1.2-0.8,2.3-0.8s1.7,0.3,2.1,0.9c0.5,0.6,0.6,1.5,0.6,2.9v5.6c0,0.3,0,0.8,0,1.2
			c0,0.5,0,0.8,0,1.1h-1.2l-0.2-1.5c-0.2,0.5-0.5,0.9-0.9,1.2c-0.5,0.3-0.9,0.5-1.5,0.5C463.4,270.7,462.8,270.5,462.3,269.9z
			 M465.5,269c0.3-0.3,0.6-0.6,0.8-0.9v-3.5c-0.9,0.5-1.5,0.9-2,1.1c-0.5,0.3-0.6,0.5-0.9,0.9c-0.3,0.5-0.3,0.8-0.3,1.2
			c0,0.6,0.2,1.1,0.3,1.2c0.3,0.3,0.6,0.5,0.9,0.5C464.9,269.4,465.2,269.3,465.5,269z"/>
	</g>
	<g class="st11">
		<path d="M469.9,259.1h2.7c1.1,0,1.8,0.3,2.3,0.8c0.5,0.5,0.8,1.2,0.8,2c0,0.6-0.2,1.1-0.3,1.5c-0.2,0.5-0.6,0.8-1.1,0.9
			c0.6,0.2,1.1,0.5,1.4,1.1c0.3,0.6,0.5,1.2,0.5,1.8c0,1.1-0.2,1.8-0.6,2.4s-1.2,0.9-2.4,0.9h-2.9v-11.4H469.9z M472.8,264
			c0.5,0,0.8-0.2,1.1-0.5s0.5-0.8,0.5-1.4c0-1.2-0.6-1.8-1.8-1.8h-1.2v3.6H472.8z M472.6,269.4c0.6,0,1.1-0.2,1.4-0.6
			c0.3-0.3,0.5-0.9,0.5-1.7c0-0.9-0.2-1.4-0.5-1.7c-0.3-0.3-0.8-0.5-1.4-0.5h-1.4v4.4H472.6L472.6,269.4z"/>
	</g>
	<g class="st11">
		<path d="M478.2,269.9c-0.5-0.5-0.6-1.1-0.6-1.8s0.2-1.4,0.5-1.8c0.3-0.5,0.8-0.9,1.4-1.4c0.6-0.5,1.5-0.9,2.7-1.4v-0.8
			c0-0.8,0-1.2-0.2-1.7c-0.2-0.5-0.3-0.6-0.5-0.9c-0.2-0.2-0.5-0.3-0.9-0.3c-1.1,0-1.7,0.6-1.7,2v0.5h-1.4V262
			c0-1.1,0.3-1.8,0.8-2.3c0.5-0.5,1.2-0.8,2.3-0.8s1.7,0.3,2.1,0.9c0.5,0.6,0.6,1.5,0.6,2.9v5.6c0,0.3,0,0.8,0,1.2
			c0,0.5,0,0.8,0,1.1h-1.2l-0.2-1.5c-0.2,0.5-0.5,0.9-0.9,1.2c-0.5,0.3-0.9,0.5-1.5,0.5C479.3,270.7,478.7,270.5,478.2,269.9z
			 M481.4,269c0.3-0.3,0.6-0.6,0.8-0.9v-3.5c-0.9,0.5-1.5,0.9-2,1.1c-0.5,0.3-0.6,0.5-0.9,0.9c-0.3,0.5-0.3,0.8-0.3,1.2
			c0,0.6,0.2,1.1,0.3,1.2c0.3,0.3,0.6,0.5,0.9,0.5C480.8,269.4,481.1,269.3,481.4,269z"/>
	</g>
	<ellipse class="st18" cx="623.6" cy="304" rx="7.4" ry="7.4"/>
	<g class="st11">
		<path d="M480,364h6.4v1.1h-4.8v5.6h1.2c1.5,0,2.7,0.3,3.5,1.1s1.1,2,1.1,3.6c0,1.5-0.3,2.6-1.1,3.3s-1.8,1.2-3.5,1.2h-2.9V364H480
			z M482.9,378.7c1.1,0,1.8-0.3,2.3-0.8c0.5-0.6,0.8-1.4,0.8-2.6c0-1.2-0.3-2.1-0.8-2.7c-0.5-0.6-1.2-0.9-2.4-0.9h-1.4v7H482.9z"/>
	</g>
	<g class="st11">
		<path d="M488.8,381.6c0.8,0,1.4-0.2,1.7-0.5c0.3-0.3,0.5-0.6,0.5-1.2c0-0.3,0-0.6-0.2-1.1l-2.4-10.5h1.4l1.2,6.1l0.8,3.9l0.8-3.9
			l1.1-6.1h1.4l-2.6,11.7c-0.2,0.8-0.5,1.2-0.8,1.5c-0.3,0.3-0.8,0.6-1.2,0.8c-0.5,0.2-1.1,0.2-1.8,0.3v-1.1H488.8z"/>
	</g>
	<g class="st11">
		<path d="M495.3,378.8c0.5-0.3,0.9-0.8,1.2-1.2c0.3-0.5,0.6-1.4,0.8-2.4c0.2-1.1,0.3-2.4,0.5-4.1l0.2-2.7h4.7v10.3h1.2v3.8h-1.1
			l-0.2-2.7h-6.1l-0.2,2.7h-1.1L495.3,378.8L495.3,378.8z M501.2,378.8v-9.3h-2.1l-0.2,1.8c0,1.7-0.2,2.9-0.3,3.9
			c-0.2,1.1-0.5,1.7-0.6,2.3c-0.3,0.5-0.6,0.9-1.1,1.2H501.2z"/>
	</g>
	<g class="st11">
		<path d="M506,379.3c-0.5-0.5-0.6-1.1-0.6-1.8c0-0.8,0.2-1.4,0.5-1.8c0.3-0.5,0.8-0.9,1.4-1.4c0.6-0.5,1.5-0.9,2.7-1.4v-0.8
			c0-0.8,0-1.2-0.2-1.7c-0.2-0.5-0.3-0.6-0.5-0.9c-0.2-0.2-0.5-0.3-0.9-0.3c-1.1,0-1.7,0.6-1.7,2v0.5h-1.4v-0.3
			c0-1.1,0.3-1.8,0.8-2.3c0.5-0.5,1.2-0.8,2.3-0.8s1.7,0.3,2.1,0.9c0.5,0.6,0.6,1.5,0.6,2.9v5.6c0,0.3,0,0.8,0,1.2
			c0,0.5,0,0.8,0,1.1H510l-0.2-1.5c-0.2,0.5-0.5,0.9-0.9,1.2c-0.5,0.3-0.9,0.5-1.5,0.5C507.1,380,506.5,379.9,506,379.3z
			 M509.2,378.4c0.3-0.3,0.6-0.6,0.8-0.9V374c-0.9,0.5-1.5,0.9-2,1.1c-0.5,0.3-0.6,0.5-0.9,0.9c-0.3,0.5-0.3,0.8-0.3,1.2
			c0,0.6,0.2,1.1,0.3,1.2c0.2,0.2,0.6,0.5,0.9,0.5C508.6,378.8,508.9,378.7,509.2,378.4z"/>
	</g>
	<g class="st11">
		<path d="M513.6,368.5h6.1v11.4h-1.4v-10.3h-3.2v10.3h-1.4v-11.4H513.6z"/>
	</g>
	<g class="st11">
		<path d="M523,379.6c-0.5-0.3-0.8-0.8-0.9-1.4c-0.2-0.6-0.3-1.5-0.3-2.6v-2.9c0-1.1,0.2-2,0.3-2.6c0.2-0.6,0.6-1.1,1.1-1.4
			c0.5-0.3,1.1-0.5,1.8-0.5s1.4,0.2,1.8,0.5c0.5,0.3,0.8,0.9,0.9,1.5c0.2,0.6,0.3,1.5,0.3,2.7v1.1h-4.5v1.7c0,0.8,0,1.4,0.2,1.8
			c0.2,0.5,0.3,0.8,0.5,1.1c0.3,0.2,0.6,0.3,1.1,0.3c0.5,0,0.9-0.2,1.2-0.5c0.3-0.3,0.5-0.9,0.5-1.7v-0.8h1.4v0.6
			c0,1.1-0.3,2-0.8,2.6c-0.5,0.6-1.2,0.9-2.3,0.9C524.1,380,523.4,379.9,523,379.6z M526.3,373.2v-0.9c0-0.8,0-1.2-0.2-1.7
			c-0.2-0.5-0.2-0.8-0.5-0.9c-0.2-0.2-0.6-0.3-1.1-0.3c-0.5,0-0.8,0.2-0.9,0.3c-0.2,0.2-0.5,0.5-0.5,0.9c-0.2,0.5-0.2,1.1-0.2,1.8
			v0.8L526.3,373.2L526.3,373.2z"/>
	</g>
	<g class="st11">
		<path d="M529.8,368.5h1.4v10.3h2.6v-10.3h1.4v10.3h2.4v-10.3h1.4v11.4h-9.2v-11.4H529.8z"/>
	</g>
	<g class="st11">
		<path d="M543.1,369.6h-2.4v-1.1h6.4v1.1h-2.4v10.3h-1.4v-10.3H543.1z"/>
	</g>
	<g>
		<g class="st11">
			<path d="M370.8,339.1h3.5c1.4,0,2.4,0.3,3,1.1c0.6,0.8,0.9,1.7,0.9,2.9c0,0.9-0.2,1.7-0.5,2.3c-0.3,0.6-0.9,1.1-1.5,1.2
				c0.9,0.3,1.5,0.8,1.8,1.4c0.3,0.8,0.6,1.5,0.6,2.6c0,1.4-0.3,2.6-0.9,3.3c-0.6,0.8-1.5,1.2-2.9,1.2h-4.1V339.1z M374.4,345.9
				c0.9,0,1.5-0.3,1.8-0.8c0.3-0.5,0.5-1.2,0.5-2.1c0-0.6-0.2-1.2-0.3-1.7c-0.2-0.5-0.5-0.8-0.9-0.9c-0.5-0.2-1.1-0.3-1.8-0.3h-1.4
				v5.8H374.4z M374.4,354c0.8,0,1.2-0.2,1.5-0.3c0.3-0.2,0.6-0.6,0.8-1.1c0.2-0.5,0.2-1.2,0.2-2c0-2.3-0.9-3.3-2.6-3.3h-2v6.8h2.1
				V354z"/>
		</g>
		<g class="st11">
			<path d="M380.7,340.1h1.4v2h-1.4V340.1z M380.7,343.6h1.4V355h-1.4V343.6z"/>
			<path d="M383.8,354c0.5-0.3,0.9-0.8,1.2-1.2c0.3-0.5,0.6-1.4,0.8-2.4s0.3-2.4,0.5-4.1l0.2-2.7h4.7v10.3h1.2v3.8h-1.1l-0.2-2.7
				H385l-0.2,2.7h-1.1L383.8,354L383.8,354z M389.7,354v-9.3h-2.3l-0.2,1.8c0,1.7-0.2,2.9-0.3,3.9c-0.2,0.9-0.5,1.7-0.6,2.3
				c-0.3,0.5-0.6,0.9-1.1,1.2H389.7z"/>
			<path d="M395,354.7c-0.5-0.3-0.8-0.8-0.9-1.4c-0.2-0.6-0.3-1.5-0.3-2.6v-2.9c0-1.1,0.2-2,0.3-2.6c0.2-0.6,0.6-1.1,1.1-1.4
				c0.5-0.3,1.1-0.5,1.8-0.5s1.4,0.2,1.8,0.5c0.5,0.3,0.8,0.9,0.9,1.5c0.2,0.6,0.3,1.5,0.3,2.7v1.1h-4.5v1.7c0,0.8,0,1.4,0.2,1.8
				c0.2,0.5,0.3,0.8,0.5,1.1c0.3,0.2,0.6,0.3,1.1,0.3c0.5,0,0.9-0.2,1.2-0.5c0.3-0.3,0.5-0.9,0.5-1.7v-0.8h1.4v0.6
				c0,1.1-0.3,2-0.8,2.6c-0.5,0.6-1.2,0.9-2.3,0.9C396,355.2,395.4,355,395,354.7z M398.3,348.3v-0.9c0-0.8,0-1.2-0.2-1.7
				c0-0.5-0.2-0.8-0.5-0.9c-0.2-0.2-0.6-0.3-1.1-0.3c-0.5,0-0.8,0.2-0.9,0.3c-0.3,0.2-0.5,0.5-0.5,0.9c-0.2,0.5-0.2,1.1-0.2,1.8v0.8
				L398.3,348.3L398.3,348.3z"/>
		</g>
		<g class="st11">
			<path d="M402.1,343.6h1.4v5h3.5v-5h1.5V355h-1.5v-5.3h-3.5v5.3h-1.4V343.6z"/>
			<path d="M411,343.6h1.4v4.7h0.8c1.5,0,2.4,0.3,3,0.9c0.6,0.6,0.9,1.4,0.9,2.6c0,1.1-0.3,2-0.9,2.4c-0.6,0.6-1.7,0.9-3.2,0.9h-2
				V343.6z M413,354.1c1.1,0,1.8-0.2,2.1-0.6c0.3-0.5,0.6-1.1,0.6-1.8s-0.2-1.4-0.6-1.8c-0.5-0.5-1.1-0.6-2.1-0.6h-0.6v5h0.6V354.1z
				"/>
		</g>
	</g>
	<g class="st11">
		<path d="M326.1,382.6h-6.4v-12.3h1.2v11.4h4.1v-11.4h1.2v11.4h0.9v3h-0.9L326.1,382.6z"/>
	</g>
	<g class="st11">
		<path d="M328.5,383.8c0.6,0,1.1-0.2,1.4-0.3c0.3-0.2,0.5-0.5,0.5-0.9c0-0.2,0-0.5-0.2-0.8l-1.8-8h1.1l0.9,4.6l0.6,3l0.5-3l0.9-4.6
			h1.1l-2,9.1c-0.2,0.5-0.3,0.9-0.5,1.2c-0.3,0.3-0.5,0.5-0.9,0.6c-0.5,0.2-0.8,0.2-1.4,0.2v-1.1H328.5z"/>
	</g>
	<g class="st11">
		<path d="M334.9,373.8h3.2v0.8H336v7.9h-1.1V373.8z"/>
	</g>
	<path class="st20" d="M281.6,383.5l1.2-0.9"/>
	<path class="st21" d="M285.1,380.7c80.8-66.8,221.7-89.7,335.5-76.9"/>
	<path class="st12" d="M622.1,303.9h1.5"/>
	<path class="st22" d="M313.9,376.1c0-9.6,1.1-17.4,2.4-17.4"/>
	<path class="st22" d="M323.7,396c-5.4,0-10-9-10-19.9"/>
	<path class="st23" d="M378.2,250.6c81.7-32.9,172.8-25.8,245.3,53.4"/>
	<path class="st23" d="M494.7,264.3c60.7-7,99.6,12.4,128.9,39.7"/>
	<path class="st23" d="M202.3,269.3c79.3,40.2,216.9-10,421.3,34.7"/>
	<path class="st23" d="M425.2,348.8C454,324.5,513.9,304,623.5,304"/>
	<ellipse class="st18" cx="281.6" cy="383.5" rx="5" ry="5"/>
	<ellipse class="st18" cx="316.3" cy="358.8" rx="5" ry="5"/>
	<ellipse class="st18" cx="313.9" cy="376.1" rx="2.4" ry="2.4"/>
	<ellipse class="st18" cx="323.7" cy="396" rx="2.4" ry="2.4"/>
	<ellipse class="st18" cx="380.7" cy="249.4" rx="5" ry="5"/>
	<ellipse class="st18" cx="202.3" cy="269.3" rx="5" ry="5"/>
	<ellipse class="st18" cx="494.7" cy="264.3" rx="5" ry="5"/>
	<ellipse class="st18" cx="464.9" cy="373.7" rx="5" ry="5"/>
	<ellipse class="st18" cx="425.2" cy="348.8" rx="5" ry="5"/>
	<ellipse class="st18" cx="658.1" cy="323.5" rx="5" ry="5"/>
	<ellipse class="st18" cx="537.5" cy="315.8" rx="5" ry="5"/>
	<ellipse class="st18" cx="551.4" cy="334.9" rx="5" ry="5"/>
	<ellipse class="st18" cx="666.9" cy="343.7" rx="5" ry="5"/>
	<ellipse class="st18" cx="694.7" cy="312.5" rx="5" ry="5"/>
	<path class="st23" d="M537.5,316.1c1.5,0,32.3-5.3,77.6-9.9"/>
	<path class="st23" d="M551.4,334.9c30.5-1.3,69.6-26.9,72.6-31.6"/>
	<path class="st23" d="M624,303.3c24.7,29.9,35.5,36.6,42.5,40.4"/>
	<path class="st23" d="M624,303.3c16.5,11.2,26.8,16.4,33.9,20.2"/>
	<path class="st23" d="M624,303.3c35.3-41,63.6,5.4,70.6,9.2"/>
</g>
</svg>
