<?xml version="1.0" encoding="utf-8"?>
<!-- Generator: Adobe Illustrator 21.0.2, SVG Export Plug-In . SVG Version: 6.00 Build 0)  -->
<svg version="1.1" id="Layer_1" xmlns="http://www.w3.org/2000/svg" xmlns:xlink="http://www.w3.org/1999/xlink" x="0px" y="0px"
	 viewBox="0 0 80.2 70" style="enable-background:new 0 0 80.2 70;" xml:space="preserve">
<style type="text/css">
	.st0{fill:#FFFFFF;}
	.st1{fill:#003F6F;}
</style>
<g>
	<rect class="st0" width="80" height="70"/>
</g>
<g>
	<path class="st1" d="M61,70H0V49h61V70z M1,69h59V50H1V69z"/>
</g>
<g>
	<path class="st1" d="M70,34H43V17h27V34z M44,33h25V18H44V33z"/>
</g>
<g>
	<polygon class="st1" points="80.2,63 60.5,63 60.5,62 78.8,62 69.1,34 43.9,34 38.5,49.7 37.5,49.3 43.1,33 69.9,33 	"/>
</g>
<g>
	<path class="st1" d="M25,50H0V0h13v27.2l12,6V50z M1,49h23V33.8l-12-6V1H1V49z"/>
</g>
<g>
	<path class="st1" d="M7,37v1H6v-1H7 M8,36H5v3h3V36z"/>
</g>
<g>
	<path class="st1" d="M13,56v1H6v-1H13 M14,55H5v3h9V55z"/>
</g>
<g>
	<path class="st1" d="M25,56v1h-7v-1H25 M26,55h-9v3h9V55z"/>
</g>
<g>
	<path class="st1" d="M37,56v1h-7v-1H37 M38,55h-9v3h9V55z"/>
</g>
<g>
	<path class="st1" d="M49,56v1h-7v-1H49 M50,55h-9v3h9V55z"/>
</g>
<g>
	<path class="st1" d="M13,62v7H6v-7H13 M14,61H5v9h9V61z"/>
</g>
<g>
	<path class="st1" d="M37,62v7h-7v-7H37 M38,61h-9v9h9V61z"/>
</g>
<g>
	<path class="st1" d="M13,37v1h-1v-1H13 M14,36h-3v3h3V36z"/>
</g>
<g>
	<path class="st1" d="M7,25v1H6v-1H7 M8,24H5v3h3V24z"/>
</g>
<g>
	<path class="st1" d="M7,19v1H6v-1H7 M8,18H5v3h3V18z"/>
</g>
<g>
	<path class="st1" d="M7,13v1H6v-1H7 M8,12H5v3h3V12z"/>
</g>
<g>
	<path class="st1" d="M55,68v1h-1v-1H55 M56,67h-3v3h3V67z"/>
</g>
<g>
	<path class="st1" d="M55,62v1h-1v-1H55 M56,61h-3v3h3V61z"/>
</g>
<g>
	<path class="st1" d="M55,56v1h-1v-1H55 M56,55h-3v3h3V55z"/>
</g>
<g>
	<polygon class="st1" points="80,70 33.5,70 33.5,69 79,69 79,63 60.5,63 60.5,62 80,62 	"/>
</g>
<g>
	<path class="st1" d="M70,27H43v-6h27V27z M44,26h25v-4H44V26z"/>
</g>
<g>
	<path class="st1" d="M13,8H0V4h13V8z M1,7h11V5H1V7z"/>
</g>
<g>
	<path class="st1" d="M79.5,15h-28l0-0.5c0-1.7,0.6-3.4,1.8-4.6c1.2-1.2,2.8-1.9,4.6-2c0,0,0.1,0,0.1,0c2.2,0,4.3,1.2,5.5,3
		c1.3-1.3,3.3-1.8,5.1-1.2C69.8,8.6,71.3,8,72.9,8c1.7,0,3.4,0.6,4.6,1.8c1.3,1.2,2,2.9,2,4.7L79.5,15z M52.5,14h26
		c-0.1-1.3-0.7-2.5-1.6-3.5c-1.1-1-2.5-1.6-3.9-1.6c-1.5,0-2.8,0.6-3.9,1.7l-0.2,0.2l-0.3-0.1c-1.7-0.7-3.6-0.1-4.7,1.3l-0.5,0.7
		L63,12c-0.9-1.9-2.9-3.1-5-3.1c-1.5,0-2.8,0.6-3.9,1.7C53.1,11.5,52.6,12.7,52.5,14z"/>
</g>
<g>
	<rect x="14.5" y="43.5" class="st0" width="20" height="6"/>
	<path class="st1" d="M35,50H14v-7h21V50z M15,49h19v-5H15V49z"/>
</g>
<g>
	<rect x="19.5" y="39.5" class="st0" width="10" height="4"/>
	<path class="st1" d="M30,44H19v-5h11V44z M20,43h9v-3h-9V43z"/>
</g>
</svg>
