<?xml version="1.0" encoding="utf-8"?>
<!-- Generator: Adobe Illustrator 21.0.2, SVG Export Plug-In . SVG Version: 6.00 Build 0)  -->
<svg version="1.1" id="Layer_1" xmlns="http://www.w3.org/2000/svg" xmlns:xlink="http://www.w3.org/1999/xlink" x="0px" y="0px"
	 viewBox="0 0 200 33" style="enable-background:new 0 0 200 33;" xml:space="preserve">
<style type="text/css">
	.st0{fill-rule:evenodd;clip-rule:evenodd;fill:#FFFFFF;}
</style>
<g>
	<path class="st0" d="M18.5,0v33c8.4-0.8,15.1-7.9,15.1-16.5C33.6,7.9,27,0.8,18.5,0L18.5,0z"/>
	<path class="st0" d="M0,16.5C0,25.1,6.6,32.2,15.1,33V0C6.6,0.8,0,7.9,0,16.5L0,16.5z M10,26c-0.7-0.5-1.4-1.1-2-1.7
		c-2-2.1-3-4.9-3-7.8c0-2.9,1.1-5.7,3-7.8C8.7,8,9.3,7.5,10,7V26L10,26z"/>
	<path class="st0" d="M43.4,27.1h4.5v-8.2h9v-4.3h-9v-4.3h8.4c1.5,0,2.3-1,2.3-2.5V5.9H47.9h-2.3h-2.3V27.1L43.4,27.1z"/>
	<path class="st0" d="M62.5,27.1h0.7h3.9h10.3v-4.3H67.1v-4.1h9.1v-4.3h-9.1v-4h7.5c1.5,0,2.3-1,2.3-2.5V5.9h-9.8h-3.2h-1.4V27.1
		L62.5,27.1z"/>
	<path class="st0" d="M120.6,27.1h0.8h3.8h10.4v-4.3h-10.4v-4.1h9.3v-4.3h-9.3v-4h7.5c1.5,0,2.3-1,2.3-2.5V5.9h-9.8H122h-1.4V27.1
		L120.6,27.1z"/>
	<path class="st0" d="M83.3,27.1h-1.9L81.4,5.9h1.1h3.4h4.3c3.9,0,7.2,3,7.2,6.8l0,0c0,3.4-2.7,6.3-6.2,6.7l6.4,7.7H92l-6-7.6H86
		l0,5.3C86,26.3,84.9,27.1,83.3,27.1L83.3,27.1z M85.9,9.7l0,6.4h2c2.1,0,4.6-0.7,4.6-3.2c0-2.6-2.6-3.2-4.7-3.2L85.9,9.7L85.9,9.7z
		"/>
	<path class="st0" d="M102.8,27.1h-1.9l-0.1-21.2h1.1h3.4h4.3c3.9,0,7.2,3,7.2,6.8l0,0c0,3.4-2.7,6.3-6.2,6.7l6.4,7.7h-5.6l-6-7.6
		h-0.1l0,5.3C105.4,26.3,104.3,27.1,102.8,27.1L102.8,27.1z M105.4,9.7l0,6.4h2c2.1,0,4.6-0.7,4.6-3.2c0-2.6-2.6-3.2-4.7-3.2
		L105.4,9.7L105.4,9.7z"/>
	<path class="st0" d="M162,27.1h-1.9l-0.1-21.2h1.1h3.4h4.3c3.9,0,7.2,3,7.2,6.8l0,0c0,3.7-3.2,6.8-7.2,6.8h-4.3l0,5.3
		C164.6,26.3,163.5,27.1,162,27.1L162,27.1z M164.6,9.7l0,6.4h2c2.1,0,4.6-0.7,4.6-3.2c0-2.6-2.6-3.2-4.7-3.2L164.6,9.7L164.6,9.7z"
		/>
	<path class="st0" d="M189.2,5.9c6,0,10.8,5,10.8,11.1c0,6.1-4.9,11.1-10.8,11.1c-6,0-10.8-5-10.8-11.1
		C178.3,10.9,183.2,5.9,189.2,5.9L189.2,5.9z M189.2,10.1c3.5,0,6.3,3.1,6.3,7c0,3.8-2.8,7-6.3,7c-3.5,0-6.3-3.1-6.3-7
		C182.9,13.2,185.7,10.1,189.2,10.1L189.2,10.1z"/>
	<path class="st0" d="M141.2,27.1H138l6.9-10.6L138,5.9h5.3l4.2,6.5l4.2-6.5h5.3l-6.9,10.6l6.9,10.6h-5.3l-4.2-6.5l-3.1,4.8
		C143.8,26.3,142.4,27.1,141.2,27.1L141.2,27.1z"/>
</g>
</svg>
