<?xml version="1.0" encoding="utf-8"?>
<!-- Generator: Adobe Illustrator 21.0.2, SVG Export Plug-In . SVG Version: 6.00 Build 0)  -->
<svg version="1.1" id="Layer_1" xmlns="http://www.w3.org/2000/svg" xmlns:xlink="http://www.w3.org/1999/xlink" x="0px" y="0px"
	 viewBox="0 0 117 35" style="enable-background:new 0 0 117 35;" xml:space="preserve">
<style type="text/css">
	.st0{fill-rule:evenodd;clip-rule:evenodd;fill:#FFFFFF;}
</style>
<path class="st0" d="M44.5,34c-0.8,0.4-2.5,0.1-3.6,0.2c-0.1,0-0.1,0-0.2,0c-1.1,0.3-3.5,0.3-4.6,0c-10.6,0.1-12.5-8.7-17-14.8
	c-0.4,3.1-5.6,11.3-0.6,12.3c-0.3,0.7-0.5,1.5-0.6,2.3c-2.7,0.4-6.2,0.1-9.2,0.2c-2.6-0.3-7.2,0.6-8.8-0.4c0,0,0.1,0,0.2,0
	c-0.1-0.9,0.3-1.4,0.4-2.1c0.8,0,1.4-0.2,1.9-0.4c3.8-3.8,5.1-13.4,7.1-20.4c0.9-3.3,3.3-7.5-1-8.1C8.7,2,8.9,1.2,9.2,0.5
	C9.7,0,11,0.4,11.9,0.3c4.8,0,9.6,0,14.3,0c0,0.3,0,0.5,0,0.8c-0.1,0-0.1,0-0.2,0c0.1,0.7-0.3,0.8-0.2,1.5C21,4,22,11.3,19.9,15.5
	c4.7-3.2,10.2-7.1,14.5-11.4c-0.2-1-1.3-1.2-2.1-1.5c0.3-0.7,0.5-1.5,0.6-2.3c0.4,0,0.9,0,1.3,0c2.5,0,5.4,0,8.4,0
	c2.8,0,6.2-0.7,8.2,0c0.1,0-0.1,0.5-0.2,0.4c0.1,0.9-0.4,1.3-0.4,2.1C46,3.5,43,7.1,40,9.5c-2.8,2.2-5.4,4.3-8,6.4
	c2.5,3.7,5.4,9,8.2,12.7c1.1,1.5,2.4,2.9,5,3.1C45.1,32.6,44.9,33.4,44.5,34z M76.9,14c-0.3,2.9-1.3,5.1-1.7,7.9
	c-1-0.1-2.1-1.6-3.8-1.5c-2.6,0.1-5.7-0.2-8,0.2c-0.2,3.6-4.4,9.5,0,11.4c-0.2,0.7-0.3,1.5-0.6,2.1c-3.4-0.3-11.3,1.1-14.9,0.2
	c-0.5-0.1-0.6-0.4-0.2-0.6c1.6-6.4,3.9-14.5,5.9-21.9c0.9-3.2,3.3-8.3-0.8-9c-0.1-0.9,0.4-1.3,0.4-2.1c0.1,0,0.1,0,0.2,0
	c7.1-0.4,15-0.1,22.4-0.2c2.7,0,5.4,0,8,0c0,0.3,0,0.5,0,0.8c-0.1,0-0.1,0-0.2,0c-0.6,3-1.3,5.8-2.1,8.5c-2,0.1-1.6-2.1-3.4-2.1
	c-3.7,0-7.4,0-11.1,0c-0.3,2.3-1.2,4.1-1.5,6.4C69,13.9,74.2,13.5,76.9,14z M114.5,10.1c-1.9-0.2-2.6-2-4.2-2.7
	c-7.4-3.1-18.5,1.7-18.9,9.2c0,0.8,0,1.5,0,2.3c1,5.8,5.2,8.5,11.3,9.2c0.7,0,1.4,0,2.1,0c2.8-0.4,5.6-0.9,8-1.7
	c-0.5,2.5-1,5-1.7,7.3c-2.8,0.3-5.1,1-8.2,1c-1.8,0.3-5,0.3-6.9,0c-9.3-0.8-17.8-5.6-16.8-16.4c1-10.8,12.6-17.1,23.7-18.1
	c2-0.3,5.4-0.3,7.5,0c2.7,0,4.5,0.7,6.7,1.2C116.3,4.4,115.6,7.5,114.5,10.1z"/>
</svg>
