<?xml version="1.0" encoding="utf-8"?>
<!-- Generator: Adobe Illustrator 21.0.2, SVG Export Plug-In . SVG Version: 6.00 Build 0)  -->
<svg version="1.1" id="Layer_1" xmlns="http://www.w3.org/2000/svg" xmlns:xlink="http://www.w3.org/1999/xlink" x="0px" y="0px"
	 viewBox="0 0 123 62" style="enable-background:new 0 0 123 62;" xml:space="preserve">
<style type="text/css">
	.st0{fill:#003F6F;}
</style>
<title>zagora</title>
<g id="Layer_2">
	<g id="Layer_1-2">
		<g id="_3HSsIF.tif">
			<path class="st0" d="M81,25.4c-4.4,1-8.4,3-11.9,5.8c-9.1,7.8-10.9,18.1-8.9,29.5c0.1,0.3,0.2,0.5,0.4,0.7c0.6,0.5,2,0.8,4.1,0.1
				c0.9-0.3,1.7-0.7,2.5-1.3c1.5-1.3,3-2.6,4.7-3.7c4.8-3.3,8.5-7.4,10.4-13c1.4-4.3,2.1-8.9,2-13.4v-1.8
				C84.3,24.6,84.3,24.6,81,25.4z M77.5,45.2c-2.4,4.5-5.4,6.2-9.3,7.7c-0.4,0.2-0.9,0-1.1-0.4C67,52.4,67,52.3,67,52.2
				c-0.8-7.4,1-15.8,9-20.4c2.4-1.4,3.5-1.2,3.6,1.7C79.6,33.7,80.2,40.4,77.5,45.2L77.5,45.2z M122.8,58.8
				c-0.4-1.7-0.8-3.4-1.1-5.2c-1.4-7.1-2.8-14.2-4-21.3c-0.8-5.2-1.3-4-5.3-4.2c-1.8-0.1-2.3,0.6-1.6,2.2c0.5,1.2,0.3,2.6-0.4,3.7
				c-1.9,3.5-3.9,6.9-5.7,10.5c-1.8,3.5-3.1,8.4-1.8,13.1c0.7,2.5,2.4,4.2,4.7,4.3c2.3,0.1,3.6-1.4,4.6-3.2c0.5-1,1-2,1.3-3
				c0.5-1.3,0.9-2.8,1.3-4.1h0.4c0.3,1.7,0.5,3.4,0.9,5c1.3,5-0.4,4.3,5.1,4.3C122.9,61,123.3,60.5,122.8,58.8L122.8,58.8z
				 M112.3,51.4c-0.7,0.7-1.7,1.1-2.7,0.9c-0.8-0.2-1.6-1.3-1.8-2.3c-1.3-4.7,1-8.7,3.5-12.5c0.1-0.1,1.1,0.1,1.2,0.3
				c0.6,3,1.2,6.1,1.9,9.7C113.8,48.6,113.3,50.2,112.3,51.4z M45,59.2c-0.1-0.5-0.2-1.1-0.3-1.6c-1.6-8.3-3-16.6-4.8-24.9
				c-1.1-5,0.3-4.7-5.5-4.6c-1.5,0-1.7,0.6-1.5,2c0.2,1.4,0.3,2.4-0.1,3.3C31,37.1,29,40.7,27,44.3c-2,3.6-2.8,7.9-2.1,12
				c0.2,1.4,0.8,2.7,1.6,3.8c2.1,2.6,5.5,2.5,7.3-0.4c1.7-2.9,2.3-5,3.6-8c0.4,1.9,1,3.6,1.1,5.4c0.5,4.3,0.3,4,5.1,4
				C44.9,61,45.4,60.5,45,59.2L45,59.2z M34.3,51.7c-1.4,1.6-3.4,1.1-4-1c-0.6-2.1-0.8-3.6-0.3-5.2c0.9-2.8,2.4-5.5,3.7-8.3
				c0.1-0.1,0.3-0.2,0.8-0.6c0.7,3.5,1.7,6.9,1.9,10.3C36.4,48.6,35.3,50.5,34.3,51.7z M96.7,27.5c-5.6-1.5-9.6,1.3-10.5,6.4
				L85,44.2c0,4-0.1,8,0,12c0.1,4,0.3,4.8,4.8,4.8c1.7,0,2.3-0.6,2.1-2.3c-0.1-1.7-0.1-5.3,0-7.9s1.3-4,4-4.5l3.4-0.5
				c2.4-0.5,4.2-1.7,5.1-4C107,34.9,103.1,29.2,96.7,27.5L96.7,27.5z M95.4,43.2l-3.6,2.4c-0.1-0.7-0.1-1.3-0.1-1.8
				c0.1-3.2,0.1-6.4,0.3-9.5c0.1-1.1,0.3-2.2,0.6-3.3c0.5-1.5,1.8-1.9,3.2-1.1c1.6,1,2.6,2.7,2.8,4.6C99.3,38.7,98.9,41,95.4,43.2z
				 M17.6,43.9l-1.2-0.6l2-1.1c2.4-1,4.1-3.3,4.2-6c0.3-2.8-1.1-5.6-3.5-7.1C15.8,27,11.6,26.9,8.3,29c-3.5,2-4.4,5.5-4.8,9.3
				c-0.1,1,0.3,1.5,1.3,1.3l2.2-0.4c2.3-0.7,2.5-1.2,2.6-3.6c0.1-1.4,0.3-2.8,0.9-4c0.6-1.3,2.2-1.9,3.5-1.2
				c0.3,0.1,0.6,0.4,0.8,0.6c1.9,2.2,2.1,4.8,1.4,7.5c-0.8,2.7-2.7,3.5-5.1,3.8c-0.8,0.1-1.7,0.1-1.5,1.2c0.3,0.6,0.8,0.9,1.4,1.1
				c5.7,0.9,7.1,5.7,5,10.5c-0.6,1.5-2.1,2.4-3.6,2.3c-2,0-3.9-0.7-5.4-2.1c-1.8-1.5-2.9-1.5-4.4,0.4S1.2,58,0.4,59.3
				s-0.5,2,0.6,2.7l1.3-1c3-2.1,5.8-2.8,9-0.7c1.4,0.9,3,1.3,4.6,1.5c2.4,0.3,4.7-0.4,6-2.7C24.6,54.6,24.3,46.9,17.6,43.9z
				 M62.9,29.3c-0.9-0.6-1.9-1-3-1.1c-3-0.1-6.1,0-9.1,0c-3,0-3.7,0.5-3.7,3.7c-0.1,4.3,0,8.6,0,12.9H47v12.4c0,3.3,0.3,3.7,3.5,3.7
				s3-0.4,3-3.3c-0.1-8.1-0.2-16.3-0.3-24.4c0-2.2,0.9-2.8,3-1.9c1.2,0.4,2,1.6,1.9,2.8c-0.1,1.6-0.1,3.3,0,5c0,0.5,0.6,1.3,0.9,1.3
				c0.6-0.1,1.2-0.4,1.6-0.9c1.1-2.1,2-4.3,3-6.4C64.7,31,64.3,30.3,62.9,29.3z M73.8,19.7c-0.1-4.9-1.2-9.4-4.3-13.3
				c-0.8-1-1.5-1.1-2.6-0.3c-3.9,2.8-5.6,6.8-5.7,11.5s0.8,8.1,3.5,11.4c0.8,0.9,1.4,1.3,2.5,0.3c1.2-1.2,2.6-2.2,4.1-3
				c2.1-1,2.6-2.7,2.6-4.7C73.8,21.1,73.8,20.3,73.8,19.7L73.8,19.7z M85.7,0.4h-0.1C81,2,77.1,4.3,75.1,9c-0.2,0.8-0.2,1.7,0,2.5
				c0.5,2.5,1.3,4.9,1.7,7.4c0.5,3.6,0.8,3.9,3.9,2.1l0.3-0.2c6.1-3.9,8.2-10.1,8.4-16.6C89.4-0.4,89.4-0.4,85.7,0.4z"/>
		</g>
	</g>
</g>
</svg>
