<?xml version="1.0" encoding="utf-8"?>
<!-- Generator: Adobe Illustrator 21.0.2, SVG Export Plug-In . SVG Version: 6.00 Build 0)  -->
<svg version="1.1" id="Layer_1" xmlns="http://www.w3.org/2000/svg" xmlns:xlink="http://www.w3.org/1999/xlink" x="0px" y="0px"
	 viewBox="0 0 118 55" style="enable-background:new 0 0 118 55;" xml:space="preserve">
<style type="text/css">
	.st0{fill:#003F6F;}
</style>
<title>yzsensvit</title>
<g id="Layer_2">
	<g id="Layer_1-2">
		<path class="st0" d="M81.9,26.5c0.9-0.2,1.6-0.2,2.2-0.5c0.6-0.2,1.1-1.1,0.8-2s-1-1.2-1.9-1.1s-1.3,0.6-1.2,1.5
			S81.9,25.6,81.9,26.5z"/>
		<path class="st0" d="M84.6,28.2c-0.8-0.1-1.7,0-2.8,0c0.1,1.2,0.1,2.3,0.4,3.4c0.2,1.1,0.9,1.6,2,1.7c1.1,0.1,2.2-0.6,2.4-1.9
			C86.9,29.6,86.2,28.4,84.6,28.2z"/>
		<path class="st0" d="M19.2,29c-1.7,0-3.2,1.2-3.2,2.6c0,1.4,0.7,2,2.1,2c2.1,0,2.7-0.5,2.7-2.2C20.7,29.7,20.5,29,19.2,29z"/>
		<path class="st0" d="M117.9,42.9c-2-7-2.8-14.2-3-21.4c-0.1-2.9-0.4-5.7-0.8-8.5c-0.3-2.2-1.8-12.8-3.9-12.9L1.4,0.1
			C0,0.1-0.2,0.4,0.2,1.7S0.9,4,1.3,5.1c2.2,7.9,2.1,15.9,1.2,24c-0.8,7.7-0.8,15.4,0.5,23c0.4,2.4,1.7,3.2,4.1,2.7
			c5.8-1.2,11.6-2.6,17.4-3.5c8.5-1.4,17.1-2.8,25.7-3.8c9.2-1.1,18.4-2,27.6-2.6c10.4-0.7,20.9-1,31.3-1.5c3-0.1,5.9,0,9,0
			C118,43.3,118,43.1,117.9,42.9z M24.2,37.6c0,2.4-0.8,3.2-3.5,3.1v-5.5c-1.5,0.3-2.5,0.9-3.2,2.2c-0.5,1.1-1.2,2.2-1.9,3.2
			l-0.3,0.3L15,41.2c-0.2,0.2-0.5,0.4-0.8,0.5c-0.6,0.3-1.4,0.3-2,0.2l-0.2,0l-0.5-0.2l0,0c0.6-1,1.1-2.1,1.7-3.1s1-2,1.6-3.1
			c-2.9-1.4-3.2-4.6-0.6-6.7s5.2-2.2,8.1-1.8c1.3,0.2,2,1.1,2,2.5C24.2,32.1,24.2,34.8,24.2,37.6z M29.9,35.1
			c0.6,2.3,2.7,3.1,4.8,2.1c1-0.4,1.9-0.8,3.1,0.4c-0.7,0.5-1.4,1.1-2.1,1.4c-1.7,0.7-3.7,0.9-5.5,0.4c-2.6-0.6-4.3-2.8-4.5-5.7
			c-0.2-5.6,4.2-9.3,10-8.5c0.7,0.1,1.3,0.6,2.1,0.9c-0.8,1.1-1.7,1.4-2.6,1.1c-2.7-1-5.2,1.5-5.5,3.9
			C29.5,32.4,29.6,33.8,29.9,35.1L29.9,35.1z M48.4,37.7c-1.7,0.3-3.5,0.4-5.3,0.3c-2.1-0.1-3.5-1.3-3.7-3.3
			c-0.3-2.5-0.2-4.9-0.2-7.4c0-1.4,1-2.5,2.3-2.7c2.6-0.4,5.2-0.7,7.8-1.1c0.1,1.4-0.4,2.1-1.7,2.4c-1.2,0.2-2.5,0.3-3.7,0.4
			c-1.1,0-1.5,0.5-1.4,1.6c0,0.5,0,1,0,1.8l5.1-0.4c0,1.2-0.5,1.9-1.5,2.2c-0.9,0.1-1.8,0.3-2.7,0.3c-0.7,0-0.9,0.4-0.8,1.1
			c0.2,2.4,1.1,3.2,3.6,3.1c1.2,0,2.5-0.2,3.8-0.4C50.1,36.7,49.5,37.5,48.4,37.7L48.4,37.7L48.4,37.7z M63.4,36.3
			c-2.3,0.8-3.5,0-3.5-2.4c0-1.1,0-2.3,0-3.7l-4.8,0.4v6.6c-0.7,0-1.3,0-1.8,0c-1.1-0.1-1.8-0.7-1.8-1.8c0-3.3,0-6.6,0-9.9
			c0-1.6,1-2.2,3.5-2.3v5.4c1.5-0.1,2.9-0.2,4.2-0.3c0.2,0,0.6-0.5,0.6-0.8s0-1.2,0-1.9c0.1-2.4,0.8-3.1,3.4-3L63.4,36.3z M69.3,32
			c0.4,1.6,2.7,3,4.7,1.9c0.9-0.5,2-0.6,2.8,0.3c-1.2,1.9-4.8,2.6-7.6,1.6c-2.9-1-4.5-3.6-4.2-7.1c0.2-3.4,2.6-6.2,5.9-6.8
			c3-0.6,5.2-0.1,6.1,1.7c-0.9,0.1-1.8,0.4-2.5,0.3c-3.1-0.5-5.1,0.7-5.5,3.9C68.7,29.1,68.9,30.6,69.3,32L69.3,32z M86.5,35.2
			c-1.2,0.3-2.5,0.3-3.8,0.2c-2.7-0.3-4.2-2.2-4.3-5.2c-0.1-2-0.1-4,0-5.9s0.9-2.7,2.6-3c0.9-0.1,1.9-0.2,2.8-0.3
			c3.8-0.1,5.3,2,4,5.1c0.8,1.1,1.8,2,2.2,3.1C90.9,31.9,89.2,34.6,86.5,35.2L86.5,35.2z M95.3,32.9c0,1.6-1.3,2.2-3.5,2
			c0-1.2,0-2.5,0-3.8c0-2.3,0-4.6,0-7c0-2.8,0.6-3.3,3.5-3.2C95.3,24.9,95.3,28.9,95.3,32.9L95.3,32.9z M107.8,22.6
			c-0.9,0.1-1.8,0-2.8,0v11.7c-2.3,0.8-3.7,0-3.7-2.4s0-5.2,0.1-7.8c0-0.4,0-0.8,0-1.3H97c-0.1-1.3,0.6-2.1,1.6-2.1
			c3.6-0.1,7.2,0,10.9,0C109.5,21.7,108.9,22.4,107.8,22.6L107.8,22.6z"/>
	</g>
</g>
</svg>
