<?xml version="1.0" encoding="utf-8"?>
<!-- Generator: Adobe Illustrator 21.0.2, SVG Export Plug-In . SVG Version: 6.00 Build 0)  -->
<svg version="1.1" id="Layer_1" xmlns="http://www.w3.org/2000/svg" xmlns:xlink="http://www.w3.org/1999/xlink" x="0px" y="0px"
	 viewBox="0 0 113 56" style="enable-background:new 0 0 113 56;" xml:space="preserve">
<style type="text/css">
	.st0{fill:#003F6F;}
</style>
<title>ovostar</title>
<g id="Layer_2">
	<g id="Layer_1-2">
		<path class="st0" d="M75.6,31.8H77v4.8h-1.4V31.8z M77,30.4c0,0.5-0.2,0.7-0.7,0.7s-0.7-0.2-0.7-0.7c0-0.4,0.3-0.7,0.7-0.7
			C76.8,29.7,77.1,30,77,30.4 M68.7,33.3c0-0.7-0.2-1.1-0.2-1.5h1.2l0.2,0.9l0,0c0.3-0.6,1-0.9,1.6-0.9c0.9,0,1.9,0.5,1.9,1.9v2.9
			H72V34c0-0.7-0.2-1.3-0.9-1.3c-0.5,0.1-0.9,0.4-1.2,0.9v3.1h-1.2V33.3z M82,31.8v0.9c-0.8,0-1.5,0.7-1.4,1.5l0,0
			c0,1.1,0.5,1.7,1.4,1.7v0.9l0,0c-1.6,0-2.8-0.9-2.8-2.6S80.4,31.8,82,31.8 M66.1,35.3v1.3h-1.2v-0.7l0,0c-0.4,0.6-1.1,0.9-1.9,0.9
			c-0.9,0-1.6-0.7-1.6-2.2v-2.8h1.2v2.6c0,0.9,0.4,1.3,0.9,1.3c0.5,0.1,1-0.2,1.2-0.7v-3.3h1.4L66.1,35.3z M86.7,33.3v-1.5h1.2v0.9
			l0,0c0.4-0.6,1.1-0.9,1.9-0.9c0.9,0,1.9,0.5,1.9,1.9v2.9h-1.4V34c0-0.7-0.2-1.3-0.9-1.3c-0.7,0-0.9,0.5-1.2,0.9v3.1h-1.4
			L86.7,33.3z M82,36.8v-0.9l0,0c0.7,0,1.2-0.7,1.2-1.7c0-1.1-0.2-1.5-1.2-1.5l0,0v-0.9l0,0c1.6,0,2.6,0.9,2.6,2.4
			C84.6,35.6,83.5,36.7,82,36.8C82,36.8,82,36.8,82,36.8"/>
		<path class="st0" d="M45.3,25.4L45.3,25.4c-3.2,0-5.6-1.9-5.6-5s2.1-5,5.6-5v2.2c-1.4,0-2.1,1.3-2.1,2.9c0,1.5,0.7,2.6,2.1,2.9
			V25.4z M51.6,15.6l3.7,9.6h3.5l4-9.6h-3.5L57.9,20c-0.3,0.7-0.4,1.4-0.5,2.2h-0.2c0-0.7-0.2-1.5-0.5-2.2l-1.4-4.3H51.6z
			 M68.9,15.4v2.2c-1.4,0-2.1,1.3-2.1,2.9c0,1.5,0.7,2.6,2.1,2.9v2.2l0,0c-3.2,0-5.6-1.9-5.6-5S65.4,15.5,68.9,15.4 M50.9,20.2
			c0,3.5-2.6,5.3-5.6,5.3v-2.2l0,0c1.4,0,2.1-1.3,2.1-2.9c0-1.5-0.7-2.9-2.1-2.9l0,0v-2.2h0.2C48.8,15.4,50.9,17.3,50.9,20.2
			 M68.9,25.4v-2.2l0,0c1.4,0,2.1-1.3,2.1-2.9c0-1.5-0.5-2.9-2.1-2.9l0,0v-2.2h0.2c3.2,0,5.6,1.9,5.6,4.8
			C74.7,23.7,71.9,25.4,68.9,25.4"/>
		<path class="st0" d="M86.8,13.6v1.9h-1.4v2.2h1.4v3.9c0,1.3,0.2,2.2,0.9,2.9c0.7,0.6,1.6,0.9,2.6,0.9c0.9,0,1.9-0.2,2.1-0.5v-2.2
			h-0.9c-0.9,0-1.2-0.5-1.2-1.7v-3.3h2.3v-2.2h-2.3V13L86.8,13.6z M75.9,24.8c1.1,0.4,2.3,0.6,3.5,0.7c3,0,4.7-1.3,4.7-3.3
			c0-1.3-0.7-2.2-2.8-2.9c-1.4-0.5-1.9-0.7-1.9-1.1s0.5-0.9,1.4-0.9c0.8,0.1,1.6,0.3,2.3,0.7l0.5-2.2c-1-0.3-2-0.5-3-0.5
			c-2.8,0-4.4,1.3-4.4,3.1c0,1.1,0.7,2.2,3,3.1c1.2,0.2,1.6,0.5,1.6,0.9s-0.4,0.9-1.4,0.9c-1.1,0-2.1-0.3-3-0.9L75.9,24.8z M99,18.6
			v2.2c-0.9,0.2-1.4,0.5-1.4,1.3c0,0.6,0.4,1.1,1.1,1.1c0,0,0.1,0,0.1,0H99v1.9c-0.4,0-0.9,0.2-1.4,0.2c-2.1,0-3.5-1.5-3.5-3.1
			C94.1,20.1,95.9,19.1,99,18.6 M99,15.3v2.2c0-0.2-0.2-0.2-0.4-0.2c-1.1,0-2.1,0.3-3,0.9l-0.7-1.9C95.5,15.8,97.1,15.4,99,15.3
			 M99,25.2v-1.9c0.7-0.2,1.4-0.7,1.4-1.1c0.1-0.1,0.2-0.3,0.2-0.5v-1.1c-0.6,0-1.1,0-1.6,0.2v-2.2h1.4c0-0.5-0.2-1.1-1.4-1.1v-2.2
			h0.2c3.5,0,4.7,1.7,4.7,4.1v3.3c0,0.8,0,1.6,0.2,2.4h-3.3v-1.1h-0.2C100.2,24.7,99.7,25.1,99,25.2 M106.2,18.6v-3h3v1.7h0.2
			c0.4-1.2,1.5-2,2.8-1.9h0.7v2.8h-0.9c-1.2,0-1.9,0.5-2.1,1.5c-0.2,0.2-0.2,0.4-0.2,0.7v4.8h-3.5V18.6z"/>
		<path class="st0" d="M36.9,40.9C34.6,51,26.7,54.5,20.6,54.5l0,0c-6.1,0-11.4-3.1-14.2-8.1c-5.2-9.6-1.2-21.6,3.9-28.8
			c-0.6-0.2-1.2-0.8-1.4-1.5c0-0.2-0.1-0.3-0.2-0.5c-4.2,4.4-10,14-8.4,25.1C2.4,52.7,13.6,56,19.2,56h1.2c3.2-0.5,10-2.2,14-7.4
			c1.6-2.2,3.2-6.3,3.2-11.3C37.4,38.6,37.4,39.6,36.9,40.9"/>
		<path class="st0" d="M29,17.6c0,0,7.5,10.5,5.8,20.5c-0.9,5.3-4.7,9.6-6.5,10.9c-3.2,1.7-6,2.4-8.6,1.9
			c-5.8-1.1-9.8-5.5-10.3-11.6c-0.9-8.5,3.2-15.1,8.2-21.6l-6.1-0.2c-5.1,7.2-9,18.8-4.2,28.4c0.9,1.4,1.9,2.7,3,3.7
			c7.5,7.4,23.8,3.7,26.1-9.2C38.8,28.5,29,17.6,29,17.6"/>
		<path class="st0" d="M22.9,49.7c-1.5,0-3-0.4-4.4-1.1c-3-1.5-4.9-4.6-5.4-8.1c-1-5.9,1.6-12.5,6.7-18.6L18,18.2
			c-4.9,6.3-8.9,12.9-8.2,21.2c0.7,5.9,4.4,10.1,10.3,10.9c0.2,0.2,0.7,0.2,1.4,0.2l0,0c2.2,0,4.4-0.7,6.3-1.9
			C26.3,49.3,24.6,49.7,22.9,49.7z"/>
		<path class="st0" d="M23.1,24.8h-0.2c-0.9,0-1.7-0.5-2.1-1.3l-0.7-1.3c-5.1,6.2-7.4,12.7-6.7,18.2c0.5,3.7,2.4,6.5,5.2,8.1
			c0.9,0.4,1.8,0.7,2.8,0.9c-4.7-1.3-8-7.2-3.7-16.8C18.9,29.4,21.1,26.5,23.1,24.8"/>
		<path class="st0" d="M22.2,22.6l-3.5-6.1L11,16c-0.2,0-0.4-0.2-0.4-0.4c-0.2-0.2,0-0.5,0.2-0.7l5.1-4.6l-3.2-7.4
			c-0.2-0.2-0.2-0.7,0-0.7s0.7-0.5,0.9-0.2l7.9,4.1l0.7-0.5v1.5l-0.2,0.2c-0.2,0.2-0.4,0.2-0.9,0l-6.3-3.2l2.8,5.9
			c0,0.3,0,0.6-0.2,0.9l-4.4,3.7l6.3,0.5c0.2,0,0.5,0,0.7,0.2l2.4,4.3L22.2,22.6z M22.9,23.2c-0.2,0-0.5-0.2-0.7-0.5v-3l0.4,1.1
			l2.1-5.5c0-0.2,0.2-0.5,0.4-0.5l6.3-0.7l-5.1-3.4c-0.2-0.2-0.5-0.5-0.2-0.7l2.1-7.7l-6.1,4.8V5.8l7-5.7c0.2,0,0.4-0.2,0.7,0
			c0.3,0.2,0.5,0.5,0.5,0.9l-2.8,9l6.1,4.3c0.2,0.2,0.5,0.5,0.5,0.7s-0.5,0.5-0.7,0.7l-7.5,0.7l-2.3,6.5C23.6,23,23.2,23,22.9,23.2
			L22.9,23.2"/>
	</g>
</g>
</svg>
