<?xml version="1.0" encoding="utf-8"?>
<!-- Generator: Adobe Illustrator 21.0.2, SVG Export Plug-In . SVG Version: 6.00 Build 0)  -->
<svg version="1.1" id="Layer_1" xmlns="http://www.w3.org/2000/svg" xmlns:xlink="http://www.w3.org/1999/xlink" x="0px" y="0px"
	 viewBox="0 0 140 77" style="enable-background:new 0 0 140 77;" xml:space="preserve">
<style type="text/css">
	.st0{fill:#11406D;}
</style>
<g>
	<polygon class="st0" points="21.3,52.8 22.3,54 22.3,61.7 24.7,61.7 24.7,52.8 	"/>
	<polygon class="st0" points="107.5,52.9 108.4,54.1 108.4,61.8 110.7,61.8 110.7,52.9 	"/>
	<polygon class="st0" points="35.4,52.9 36.4,54.2 36.4,61.9 38.8,61.9 38.8,52.9 	"/>
	<polygon class="st0" points="26.4,55.2 26.8,52.8 34.1,52.8 34.5,55.2 33.2,53.9 31.5,53.9 31.5,61.8 29.2,61.8 29.2,53.8 
		27.8,53.8 	"/>
	<path class="st0" d="M46.8,55.4l-0.2-2.2c-1.4-0.2-2.6-0.7-4-0.1c-1.3,0.5-2.6,2.9-0.8,4.2c0.9,0.7,4.8,2.3,1.9,3.6
		c-1.2,0.2-2.3-0.1-2.9-1.5v1.3c0.9,0.5,1.8,1,2.9,1c2.5,0.2,3.8-2.2,2.9-3.7c-1-1.1-1.9-1.5-3.1-2.3c-0.9-0.5-0.7-2.1,0-2.3
		c0.6-0.3,1.6,0,2.1,0.4L46.8,55.4z"/>
	<polygon class="st0" points="48.3,52.7 49.4,54 49.4,61.7 51.8,61.7 51.8,57.6 55.1,57.6 55.1,61.7 57.6,61.7 57.6,52.8 55.1,52.8 
		55.1,56.3 51.8,56.3 51.8,52.7 	"/>
	<polygon class="st0" points="75.5,61.8 77.2,54.5 76.4,53 79.2,53 81.2,57.2 83.6,52.8 85.7,52.8 87.1,61.8 84.7,61.8 83.7,55.2 
		80.6,61.1 77.6,55.4 76.2,61.8 	"/>
	<polygon class="st0" points="88.4,52.8 89.4,53.9 89.4,61.8 95.4,61.8 95.4,60 94.3,60.8 91.7,60.8 91.7,57.3 94.6,57.3 94.6,56.1 
		91.7,56.1 91.7,53.9 94.8,53.9 94.8,52.8 	"/>
	<path class="st0" d="M120.4,55.6l-0.2-2.2c-4-1.7-7.9,0.5-7,5.1c0.3,1.5,2.5,3.2,4.4,3.1c1.2,0.1,1.8-0.3,2.7-0.5v-1.6
		c-1.3,1-2.5,1.7-4.3-0.1c-1.9-2.3-0.6-5.9,2.7-5.6C119.5,54.3,119.8,55,120.4,55.6"/>
	<polygon class="st0" points="131.7,52.8 132.5,54.5 132.5,61.8 133.5,61.8 133.5,55.8 138.7,61.8 140,61.8 140,52.8 138.9,52.8 
		138.9,58.7 134,52.8 	"/>
	<path class="st0" d="M6.5,51.4c2.7,0.4,2.5,3.7,0.2,4.5C10,57,10,60.8,6.3,61.8H0.9v-8.9L0,51.4H6.5z M3.2,52.2v3.7
		c1.8,0,2.8-0.3,2.9-1.8C6.2,52.7,5.2,51.9,3.2,52.2z M3.2,56.8v3.9c2.2,0,3.3,0,3.4-2C6.7,56.8,5.3,56.6,3.2,56.8z"/>
	<path class="st0" d="M16,52.9c3.3,0,3.2,4,0.3,4.6l4.3,4.3h-3.1L13.6,58v3.7h-2.2v-7.6l-0.8-1.2H16z M13.7,53.3v3.3
		c1.6,0,2.5-0.3,2.5-1.6C16.4,53.7,15.4,53.2,13.7,53.3z"/>
	<path class="st0" d="M102,52.9c3.2,0,3.1,3.7,0.3,4.3l4.6,4.5h-3.2l-4-4.1v4.1h-2V54l-0.8-1.1H102z M99.8,53.7V57
		c1.5,0,2.4-0.2,2.5-1.6C102.5,54.1,101.5,53.4,99.8,53.7z"/>
	<path class="st0" d="M64,61.8l4.2-9.5l-1-1.4h3.1l4.6,10.9h-2.5l-1.5-3.7H67l-1.6,3.7H64z M70.5,57.3L69,53.1l-1.7,4.2H70.5z"/>
	<path class="st0" d="M121.8,61.8l3.5-7.7l-0.8-1.1h2.6l3.7,8.9h-2.1l-1.2-3h-3.2l-1.2,3H121.8z M127.2,58.1l-1.2-3.5l-1.4,3.5
		H127.2z"/>
	<polygon class="st0" points="35.5,69.1 36,66.6 44.7,66.6 45.1,69 43.9,67.7 41.4,67.7 41.4,76.9 39.2,76.9 39.2,67.6 36.9,67.6 	
		"/>
	<path class="st0" d="M83.5,70.9l-0.1-2.2c-4-1.8-7.9,0.5-7.1,5.1c0.3,1.5,2.5,3.2,4.5,3c1.2,0.1,1.8-0.2,2.6-0.4v-1.6
		c-1.2,1-2.4,1.7-4.2-0.2c-1.8-2.3-0.7-5.9,2.7-5.6C82.6,69.6,83,70.3,83.5,70.9"/>
	<path class="st0" d="M92.7,71l-0.1-2.2c-4-1.8-7.9,0.5-7.1,5.1c0.4,1.5,2.5,3.2,4.5,3c1.3,0.1,1.8-0.2,2.7-0.4V75
		c-1.2,1-2.5,1.7-4.2-0.2c-1.9-2.3-0.7-5.9,2.7-5.6C91.8,69.7,92.2,70.4,92.7,71"/>
	<path class="st0" d="M62.2,68.3c2.6,0.3,2.5,3,0.2,3.7c3.2,0.9,3.1,4.4-0.3,4.8h-5.2v-7.4L56,68.3H62.2z M59,68.9V72
		c1.8,0,2.7-0.2,2.8-1.5C62,69.3,61,68.6,59,68.9z M59,72.7V76c2.1,0,3.2,0,3.2-1.6C62.5,72.8,61.1,72.6,59,72.7z"/>
	<path class="st0" d="M65.9,76.8l3.3-7.5l-0.8-1.1h2.7l3.5,8.7l-2.2-0.1l-0.9-2.2H68l-1,2.2H65.9z M71.2,73.7l-1.4-3.7l-1.5,3.7
		H71.2z"/>
	<path class="st0" d="M50.1,68.1c2.6,0,4.8,1.9,4.8,4.3c0,2.4-2.2,4.3-4.8,4.3c-2.6,0-4.7-1.9-4.7-4.3C45.3,70,47.5,68.1,50.1,68.1
		 M47.6,72.6c0,2.1,1.1,3.7,2.5,3.7c1.4,0,2.5-1.6,2.5-3.7c0-2-1.1-3.6-2.5-3.6C48.8,68.9,47.6,70.6,47.6,72.6z"/>
	<path class="st0" d="M99.7,68.1c2.6,0,4.7,1.9,4.7,4.3c0,2.4-2.1,4.3-4.7,4.3c-2.6,0-4.8-1.9-4.8-4.3C94.9,70,97.1,68.1,99.7,68.1
		 M97.3,72.6c0,2.1,1.1,3.7,2.5,3.7c1.3,0,2.5-1.6,2.5-3.7c0-2-1.1-3.6-2.5-3.6C98.3,68.9,97.3,70.6,97.3,72.6z"/>
</g>
<path class="st0" d="M55.6,45c-12.2,0-23.5-12.2-26.3-26c10.8-0.6,24.1,3.5,30.3,9.8C59.1,18,63.6,6.5,70,0
	c7.9,7.2,10.7,21,10.5,28.5c9-6.9,18.6-9.4,30.2-9c-3.1,14-14,25.7-26.7,25.6l9.6-5.3l-12.2,3.8l17.9-15.5L77.9,42.6l5.2-10.9
	L75,42.4l1.7-11.2l-5.3,11L70.3,9.4l-1.8,32.5l-5.1-10.9l2.1,11.2l-8.4-9.9l4.9,10.5L40.6,28l18.3,15.4L47,39.3L55.6,45z"/>
</svg>
