<?xml version="1.0" encoding="utf-8"?>
<!-- Generator: Adobe Illustrator 21.0.2, SVG Export Plug-In . SVG Version: 6.00 Build 0)  -->
<svg version="1.1" id="Layer_1" xmlns="http://www.w3.org/2000/svg" xmlns:xlink="http://www.w3.org/1999/xlink" x="0px" y="0px"
	 viewBox="0 0 180 35" style="enable-background:new 0 0 180 35;" xml:space="preserve">
<style type="text/css">
	.st0{fill:#003F6F;}
</style>
<title>Arterium</title>
<g id="Layer_2">
	<g id="Layer_1-2">
		<path class="st0" d="M93.1,11.8c0-3.5-0.2-3.7-2.6-3.8V7.2h13.3c0,0.5,0.2,2.8,0.3,4.6h-0.7c-0.1-1.1-0.5-2.1-1.1-3
			c-0.5-0.5-1.5-0.7-3.3-0.7h-2.3c-0.8,0-0.9,0.1-0.9,0.9v7.4h3c2.6,0,2.7-0.2,3-2.5h0.7V20h-0.7c-0.1-1.2-0.2-1.8-0.6-2.1
			c-0.4-0.3-1-0.4-2.3-0.4h-3V23c0,1.8,0.2,2.7,0.7,3.2c1,0.4,2,0.5,3,0.4c1.7,0,3.1-0.2,3.7-0.9c0.7-0.9,1.1-2,1.4-3.1h0.7
			c-0.2,0.8-0.8,4.1-1,5H90.2v-0.7c2.7-0.2,2.9-0.4,2.9-3.8V11.8z"/>
		<path class="st0" d="M128.3,23.1c0,3.5,0.2,3.7,2.7,3.8v0.7h-8v-0.7c2.4-0.2,2.7-0.4,2.7-3.8V11.8c0-3.5-0.2-3.7-2.7-3.8V7.2h8
			v0.7c-2.4,0.2-2.7,0.4-2.7,3.8L128.3,23.1z"/>
		<path class="st0" d="M140.8,7.2v0.7c-2.4,0.2-2.6,0.4-2.6,3.8v6.2c0,2.6,0.3,4.7,1.3,6.1c1,1.5,2.6,2.3,4.4,2.2
			c1.7,0.1,3.4-0.8,4.5-2.3c1-1.6,1.3-4.3,1.3-7v-1.4c0-2,0-4-0.2-6c-0.1-1.1-1-1.6-2.9-1.7V7.2h7.2v0.7c-1.6,0.1-2.4,0.5-2.6,1.7
			c-0.2,2-0.2,4-0.2,6v1.7c0,3.7-0.5,6.2-2.3,8.2c-2.9,2.7-7.3,3.1-10.5,0.6c-1.6-1.4-2.3-3.5-2.3-7.1v-7.3c0-3.5-0.2-3.7-2.7-3.8
			V7.2H140.8z"/>
		<path class="st0" d="M160.3,7.2l7.3,16.2l7.2-16.2h5v0.7c-2.6,0.2-2.8,0.3-2.7,3.8l0.2,11.4c0.1,3.5,0.2,3.6,2.8,3.8v0.7h-8v-0.7
			c2.5-0.2,2.6-0.3,2.6-3.8V10.4h-0.1l-7.4,16.9h-0.7l-7-16.4h-0.1l-0.3,8.8c-0.1,1.9-0.1,3.8,0,5.7c0.2,1.2,0.9,1.5,2.8,1.6v0.7
			h-7.1v-0.7c1.7-0.1,2.3-0.4,2.5-1.6c0.3-2,0.4-4,0.5-6l0.3-6.6c0.2-4.2,0-4.5-2.8-4.7V7.2H160.3z"/>
		<path class="st0" d="M72.9,7.2l-0.3,4.7h0.7c0.2-0.9,0.5-1.9,1-2.7c0.4-0.6,1.3-1.1,3.9-1.1h1.4v15c0,3.5-0.2,3.7-3,3.8v0.7h8.8
			v-0.7c-2.9-0.2-3.2-0.4-3.2-3.8V8.2h2c1.8,0,2.8,0.2,3.3,0.8c0.6,0.8,1,1.8,1.1,2.8h0.7l-0.3-4.7H72.9z"/>
		<path class="st0" d="M71.7,25.7c-0.9-1.1-1.7-2.2-2.5-3.4c-0.9-1.4-2.1-3.6-2.7-4.5c2.4-1.1,3.9-3,3.9-5.5c0-1.6-0.7-3.2-2-4
			c-1.4-0.8-3.1-1.2-4.8-1.1h-4.9v1.1h4.5c2.2,0,4.6,1.2,4.6,4.5c0,1.6-0.6,3.1-1.7,4c-0.9,0.6-1.9,0.8-3,0.7h-4.3v1.1h4.2
			c0.8-0.1,1.6,0.4,1.9,1.2c0.8,1.5,2.1,3.8,3,5.2s2.2,2.8,5.7,3H74v-0.6C73.1,27.1,72.3,26.5,71.7,25.7"/>
		<path class="st0" d="M119.9,25.8c-0.9-1.1-1.7-2.2-2.5-3.5c-0.9-1.4-2.1-3.6-2.6-4.5c2.4-1.1,3.9-3,3.9-5.5c0.1-1.6-0.7-3.2-2-4
			c-1.4-0.8-3.1-1.2-4.8-1.1h-5.1v1.1h4.6c2.2,0,4.6,1.2,4.6,4.5c0.1,1.6-0.6,3.1-1.7,4.1c-0.9,0.6-1.9,0.8-3,0.7H107v1.1h4.2
			c0.8-0.1,1.6,0.4,1.9,1.2c0.8,1.5,2.1,3.8,3,5.3c0.9,1.5,2.2,2.8,5.7,3h0.4v-0.6c-0.9-0.2-1.7-0.8-2.2-1.6"/>
		<path class="st0" d="M47,18.7h5.4L49.7,11h-0.1L47,18.7z M52.7,26.9h1c1.1-0.1,1.2-0.4,0.9-1.5c-0.3-1.1-1.1-3.3-1.9-5.5h-6.1
			c-0.3,0.8-1.1,3.3-1.5,4.6s-0.3,2.2,1,2.3H47v0.7h-6.5v-0.7h0.7c1.3-0.2,1.6-0.7,2.5-3.2L50,7.4l0.8-0.3l2.2,5.6
			c1.4,4,2.7,8,3.9,11.2c1.2,3.2,1.3,2.8,3.2,3.1v0.7h-7.5V26.9z"/>
		<path class="st0" d="M16.8,0c0.9,0.1,1.8,0.3,2.6,0.6c5.1,1.8,8,10.5-1.2,15.5l-0.5,0.3l-1,0.4c-5.8,2.6-9.2,3.4-10.7,7.3
			s2,10.8,10.9,10.9c-0.9-0.1-1.8-0.2-2.6-0.5c-5.1-1.8-8-10.5,1.2-15.5l0.5-0.2l0.9-0.4c5.8-2.6,9.2-3.3,10.7-7.3S25.7,0.1,16.8,0"
			/>
		<path class="st0" d="M16.5,1.8c-2-1.2-4.5-1.3-6.6-0.2C4.3,4.2,0.5,9.8,0,16.2c-0.3,4.1,0.8,8.2,3.1,11.6
			c-1.7-2.7-0.9-6.3,1.6-8.1c3.4-2.4,8-3,10.5-3.9c3.8-1.4,5.9-5.8,4.6-9.8C19.3,4.2,18.1,2.7,16.5,1.8"/>
		<path class="st0" d="M30.3,7.2c1.7,2.6,1,6.3-1.5,8.1c-3.4,2.3-8,3-10.5,3.9c-1.7,0.6-3.1,1.9-4.1,3.6c-1.9,3.7-0.6,8.4,2.9,10.4
			c2,1.2,4.6,1.3,6.7,0.2c5.6-2.6,9.3-8.3,9.7-14.7C33.9,14.7,32.8,10.5,30.3,7.2"/>
	</g>
</g>
</svg>
