<?xml version="1.0" encoding="utf-8"?>
<!-- Generator: Adobe Illustrator 21.0.2, SVG Export Plug-In . SVG Version: 6.00 Build 0)  -->
<svg version="1.1" id="Layer_1" xmlns="http://www.w3.org/2000/svg" xmlns:xlink="http://www.w3.org/1999/xlink" x="0px" y="0px"
	 viewBox="0 0 78 66" style="enable-background:new 0 0 78 66;" xml:space="preserve">
<style type="text/css">
	.st0{fill:#003F6F;}
	.st1{enable-background:new    ;}
</style>
<g>
	<path class="st0" d="M12,52.2c-1.2,0-2.2-0.3-2.8-0.9c-0.7-0.6-1-1.4-1-2.5c0-1.1,0.3-1.9,0.9-2.5c0.6-0.6,1.5-1,2.5-1
		c1,0,1.7,0.3,2.2,0.8c0.5,0.6,0.8,1.3,0.8,2.3v0.7h-4.5c0,0.3,0.1,0.6,0.2,0.8c0.1,0.2,0.3,0.3,0.4,0.5c0.2,0.1,0.4,0.2,0.6,0.3
		c0.2,0,0.5,0.1,0.8,0.1c0.2,0,0.5,0,0.7-0.1c0.2,0,0.4-0.1,0.6-0.2c0.2-0.1,0.3-0.2,0.5-0.2s0.3-0.2,0.3-0.2l-0.8,2.1
		c-0.2,0.1-0.5,0.1-0.7,0.2C12.6,52.2,12.3,52.2,12,52.2 M7.5,47.7c0,0.8-0.2,1.5-0.5,2.1c-0.3,0.6-0.8,1.1-1.3,1.4
		c-0.4,0.3-0.9,0.5-1.4,0.6c-0.5,0.1-1,0.1-1.6,0.1H0.1v-8.4h2.6c0.6,0,1.1,0,1.6,0.1c0.5,0.1,1,0.3,1.4,0.6c0.5,0.3,1,0.8,1.3,1.4
		C7.3,46.2,7.5,47,7.5,47.7z M5.4,47.7c0-0.6-0.1-1-0.3-1.4c-0.2-0.4-0.5-0.7-0.9-0.9c-0.3-0.2-0.6-0.2-0.9-0.3c-0.3,0-0.7,0-1.1,0
		h0v5.2h0c0.5,0,0.9,0,1.2,0c0.3,0,0.6-0.1,0.9-0.3c0.3-0.2,0.6-0.5,0.8-0.9C5.2,48.7,5.4,48.3,5.4,47.7z M12.6,47.9
		c0-0.4-0.1-0.8-0.3-1c-0.2-0.2-0.5-0.3-0.9-0.3s-0.7,0.1-0.9,0.3s-0.3,0.6-0.4,1H12.6z M17.7,52h-2.1V43h2.1V52z M21.7,52.2
		c-0.8,0-1.4-0.2-1.8-0.5c-0.4-0.3-0.6-0.9-0.6-1.7v-3.1h-0.8v-1.4h0.8v-1.9h2.1v1.9h2v1.4h-2v2.3c0,0.2,0,0.4,0,0.6s0,0.3,0.1,0.5
		s0.2,0.2,0.3,0.3c0.2,0.1,0.3,0.1,0.6,0.1c0.1,0,0.3,0,0.4-0.1c0.2,0,0.3-0.1,0.4-0.1h0.2V52c-0.2,0-0.5,0.1-0.7,0.2
		C22.4,52.2,22.1,52.2,21.7,52.2z M27.8,50.3V49c-0.3,0-0.6,0.1-0.9,0.1c-0.2,0-0.4,0.1-0.6,0.2c-0.2,0.1-0.3,0.2-0.4,0.3
		c-0.1,0.1-0.2,0.3-0.2,0.5c0,0.3,0.1,0.5,0.2,0.6c0.2,0.1,0.4,0.2,0.7,0.2c0.2,0,0.3,0,0.5-0.1C27.5,50.6,27.6,50.5,27.8,50.3z
		 M27.8,51.3c-0.2,0.1-0.3,0.2-0.4,0.3c-0.1,0.1-0.3,0.2-0.4,0.3c-0.2,0.1-0.3,0.2-0.5,0.2c-0.2,0-0.4,0.1-0.7,0.1
		c-0.6,0-1-0.2-1.4-0.6c-0.4-0.4-0.6-0.9-0.6-1.5c0-0.5,0.1-0.9,0.3-1.2c0.2-0.3,0.5-0.6,0.9-0.7c0.4-0.2,0.8-0.3,1.3-0.4
		c0.5-0.1,1-0.1,1.6-0.2v0c0-0.3-0.1-0.6-0.4-0.7c-0.3-0.2-0.7-0.2-1.2-0.2c-0.2,0-0.5,0-0.9,0.1c-0.3,0.1-0.6,0.2-0.9,0.3l0.8-1.8
		c0.5-0.1,0.9-0.1,1.3-0.1c1.1,0,1.9,0.2,2.5,0.6c0.5,0.4,0.8,0.9,0.8,1.7V52h-2.1L27.8,51.3L27.8,51.3z M46.7,43.6L44.3,52h-2.8
		L40,46.6L38.6,52h-2.8l-2.4-8.4h2.7l1.3,5.5l1.6-5.5h2.3l1.5,5.5l1.3-5.5C44,43.6,46.7,43.6,46.7,43.6z M49.6,52h-2.1v-6.5h2.1V52z
		 M53.2,52h-2.1v-9.3h2.1V52z M62.5,52v-3.2c0-0.3,0-0.6,0-0.8s0-0.9-0.1-1.1s-0.2-0.2-0.3-0.3c-0.1-0.1-0.3-0.1-0.5-0.1
		c-0.2,0-0.3,0-0.5,0.1s-0.3,0.2-0.5,0.3V52h-2.1v-3.2c0-0.3,0-0.6,0-0.8c0-0.2,0-0.9-0.1-1.1s-0.2-0.2-0.3-0.3
		c-0.1-0.1-0.3-0.1-0.5-0.1c-0.2,0-0.3,0-0.5,0.1c-0.2,0.1-0.3,0.2-0.5,0.3V52h-2.1v-6.5h2.1v1c0.3-0.3,0.7-0.8,0.9-1
		c0.3-0.2,0.6-0.2,1-0.2c0.4,0,0.7,0.1,1,0.3c0.3,0.2,0.5,0.8,0.7,1.1c0.4-0.3,0.8-0.9,1.1-1.1c0.3-0.2,0.7-0.3,1-0.3
		c0.3,0,0.6,0,0.8,0.2c0.2,0.1,0.4,0.2,0.6,0.4c0.2,0.2,0.3,0.5,0.4,0.7c0.1,0.3,0.2,0.7,0.2,1.1v4.3h-2.1V52L62.5,52L62.5,52z
		 M69.6,50.3V49c-0.3,0-0.6,0.1-0.9,0.1c-0.2,0-0.4,0.1-0.6,0.2c-0.2,0.1-0.3,0.2-0.4,0.3c-0.1,0.1-0.2,0.3-0.2,0.5
		c0,0.3,0.1,0.5,0.2,0.6c0.2,0.1,0.4,0.2,0.7,0.2c0.2,0,0.3,0,0.5-0.1C69.3,50.6,69.5,50.5,69.6,50.3z M69.6,51.3
		c-0.2,0.1-0.3,0.2-0.4,0.3c-0.1,0.1-0.3,0.2-0.4,0.3c-0.2,0.1-0.3,0.2-0.5,0.2c-0.2,0-0.4,0.1-0.7,0.1c-0.6,0-1-0.2-1.4-0.6
		c-0.4-0.4-0.6-0.9-0.6-1.5c0-0.5,0.1-0.9,0.3-1.2c0.2-0.3,0.5-0.6,0.9-0.7c0.4-0.2,0.8-0.3,1.3-0.4c0.5-0.1,1-0.1,1.6-0.2v0
		c0-0.3-0.1-0.6-0.4-0.7c-0.3-0.2-0.7-0.2-1.2-0.2c-0.2,0-0.5,0-0.9,0.1c-0.3,0.1-0.6,0.2-0.9,0.3l0.8-1.8c0.5-0.1,0.9-0.1,1.3-0.1
		c1.1,0,1.9,0.2,2.5,0.6c0.5,0.4,0.8,0.9,0.8,1.7V52h-2L69.6,51.3L69.6,51.3L69.6,51.3z M77.5,47.4c-0.6-1.2-1.8-0.7-2.4,0V52h-2.1
		v-6.5h2.1v1.2c0.5-0.5,0.7-0.9,1.3-1.2c0.2-0.1,0.4-0.1,0.5-0.1c0.1,0,0.2,0,0.2,0s0.2,0,0.2,0V47.4z M48.6,42.4
		c0.7,0,1.2,0.6,1.2,1.2s-0.5,1.2-1.2,1.2c-0.7,0-1.2-0.6-1.2-1.2S48,42.4,48.6,42.4z"/>
	<g>
		<polygon class="st0" points="69.5,12.7 58,26.1 46.1,12.7 37.3,12.7 58,35.9 78,12.7 		"/>
		<path class="st0" d="M20.3,39.1c12.1-5.2,9.7-25.1-4-27H0v27l11-11.6L20.3,39.1z"/>
		<path class="st0" d="M45,23.4l-2.4,2.7L30.7,12.7h-7.9c1.3,0.9,2.5,2,3.5,3.3c1,1.3,1.8,2.8,2.4,4.3l14,15.6l6.7-7.8L45,23.4z
			 M54.2,12.7l-3.1,3.6l4.3,4.8l7.3-8.4H54.2z"/>
	</g>
</g>
<g class="st1">
	<path class="st0" d="M6.4,62.3C6.4,62.3,6.4,62.2,6.4,62.3c0-0.1-0.1-0.1-0.1,0c0,0-0.1,0-0.1,0s-0.1,0-0.1,0c0,0-0.1,0-0.1,0
		c0,0,0,0-0.1,0c0,0,0,0,0-0.1c0.1,0,0.1-0.1,0.2-0.1c0.1,0,0.2-0.1,0.3-0.1c0.1,0,0.2-0.1,0.2-0.1c0.1,0,0.1,0,0.1,0c0,0,0,0,0.1,0
		c0,0,0,0,0,0.1c0,0,0,0.1,0,0.1l-0.2,0.8h0c0.2-0.3,0.4-0.6,0.6-0.8C7.6,62,7.8,61.9,8,61.9c0.1,0,0.2,0,0.2,0.1
		c0.1,0,0.1,0.1,0.2,0.2c0.1,0.1,0.1,0.1,0.1,0.2c0,0.1,0,0.2,0,0.2c0,0.3-0.1,0.6-0.2,0.8S8.1,63.9,7.9,64s-0.3,0.3-0.5,0.4
		c-0.2,0.1-0.4,0.1-0.5,0.1c0,0-0.1,0-0.2,0c-0.1,0-0.1,0-0.2,0L6.4,65c0,0.2-0.1,0.4-0.1,0.5c0,0.1,0,0.1,0.1,0.1c0,0,0.1,0,0.1,0
		s0.1,0,0.2,0s0,0,0,0c0,0,0,0,0,0.1c-0.2,0-0.3,0.1-0.5,0.1c-0.1,0-0.3,0.1-0.4,0.2c0,0-0.1,0-0.1-0.1s0,0,0-0.1c0,0,0,0,0-0.1
		l0.7-3.3C6.4,62.4,6.4,62.4,6.4,62.3C6.4,62.3,6.4,62.3,6.4,62.3z M6.6,64.2c0,0,0.1,0,0.2,0.1c0.1,0,0.1,0,0.2,0
		c0.2,0,0.3,0,0.4-0.1c0.1-0.1,0.2-0.2,0.3-0.3c0.1-0.1,0.2-0.3,0.2-0.5c0-0.2,0.1-0.4,0.1-0.6c0-0.2,0-0.3-0.1-0.4
		c0-0.1-0.1-0.1-0.2-0.1c-0.1,0-0.1,0-0.2,0.1c-0.1,0.1-0.2,0.2-0.2,0.3C7.1,62.7,7,62.8,7,63c-0.1,0.1-0.1,0.3-0.2,0.4
		c-0.1,0.1-0.1,0.3-0.1,0.4C6.6,64,6.6,64.1,6.6,64.2z"/>
	<path class="st0" d="M10.4,63.5L10.4,63.5c-0.1,0.2-0.2,0.3-0.3,0.5s-0.2,0.2-0.3,0.3s-0.2,0.1-0.3,0.2c-0.1,0-0.2,0.1-0.3,0.1
		c-0.1,0-0.1,0-0.2,0c-0.1,0-0.1,0-0.1-0.1s-0.1-0.1-0.1-0.2c0-0.1,0-0.2,0-0.3c0-0.3,0.1-0.6,0.2-0.9s0.2-0.5,0.4-0.7
		s0.3-0.3,0.5-0.4c0.2-0.1,0.3-0.1,0.5-0.1c0.1,0,0.2,0,0.3,0c0.1,0,0.2,0,0.4,0.1l-0.4,2c0,0,0,0.1,0,0.1c0,0,0,0.1,0.1,0.1
		s0.1,0,0.1,0c0,0,0.1,0,0.1,0c0,0,0.1,0,0.1,0c0,0,0,0,0.1,0c0,0,0.1,0,0.1,0.1c-0.1,0-0.1,0.1-0.2,0.1c-0.1,0-0.1,0.1-0.2,0.1
		c-0.1,0-0.1,0.1-0.2,0.1c-0.1,0-0.1,0-0.1,0c0,0-0.1,0-0.1,0c0,0-0.1-0.1-0.1-0.1s0,0,0-0.1s0-0.1,0-0.1L10.4,63.5z M10.6,62.1
		c0,0-0.1,0-0.2,0s-0.1,0-0.2,0c-0.2,0-0.3,0-0.4,0.1c-0.1,0.1-0.2,0.2-0.3,0.3c-0.1,0.1-0.2,0.3-0.2,0.5c0,0.2-0.1,0.4-0.1,0.7
		c0,0.1,0,0.2,0.1,0.3s0.1,0.1,0.1,0.1s0.2,0,0.2-0.1c0.1-0.1,0.2-0.2,0.3-0.3c0.1-0.1,0.2-0.2,0.2-0.4c0.1-0.1,0.1-0.3,0.2-0.4
		c0.1-0.1,0.1-0.3,0.1-0.4C10.5,62.3,10.6,62.2,10.6,62.1z"/>
	<path class="st0" d="M13.1,62.4c-0.1,0-0.1,0-0.2,0.1c-0.1,0.1-0.2,0.1-0.2,0.2c-0.1,0.1-0.2,0.2-0.2,0.3c-0.1,0.1-0.1,0.2-0.2,0.4
		c-0.1,0.1-0.1,0.3-0.1,0.4c0,0.1-0.1,0.3-0.1,0.4c0,0.1,0,0.1,0,0.2c-0.1,0-0.2,0-0.2,0c-0.1,0-0.2,0-0.2,0.1c0,0-0.1,0-0.1-0.1
		c0,0,0,0,0-0.1s0-0.1,0-0.1c0,0,0,0,0-0.1c0,0,0-0.1,0-0.1l0.2-1.3c0-0.1,0-0.2,0.1-0.3c0-0.1,0-0.1,0-0.1c0,0,0-0.1-0.1-0.1
		c0,0,0,0-0.1,0c0,0-0.1,0-0.1,0s-0.1,0-0.1,0c0,0-0.1,0-0.1,0c0,0,0,0,0,0c0,0,0,0,0-0.1c0.1,0,0.1-0.1,0.2-0.1
		c0.1,0,0.2-0.1,0.3-0.1c0.1,0,0.2-0.1,0.2-0.1c0.1,0,0.1,0,0.1,0c0,0,0,0,0.1,0c0,0,0,0,0,0.1v0c0,0,0,0,0,0.1L12.3,63h0
		c0.2-0.4,0.4-0.7,0.6-0.8s0.3-0.2,0.5-0.2c0,0,0.1,0,0.1,0c0,0,0,0,0.1,0c0,0.1-0.1,0.2-0.1,0.3c0,0.1,0,0.2-0.1,0.3h-0.1
		C13.3,62.4,13.2,62.4,13.1,62.4z"/>
	<path class="st0" d="M14.2,61.8c0-0.1,0-0.3,0-0.3c0,0,0-0.1,0-0.2c0.1,0,0.1,0,0.2,0c0.1,0,0.2,0,0.2-0.1c0,0,0,0,0,0.1v0
		c0,0,0,0,0,0.1l-0.1,0.5h0.6c0,0,0,0.1,0,0.1c0,0.1,0,0.1,0,0.1c-0.1,0-0.2,0-0.3,0c-0.1,0-0.2,0-0.3,0l-0.3,1.8c0,0.1,0,0.1,0,0.1
		c0,0.1,0.1,0.1,0.2,0.1c0.1,0,0.1,0,0.2,0c0,0,0.1,0,0.1,0c0,0,0.1,0,0.1,0c0,0,0,0,0.1,0c0,0,0.1,0,0.1,0.1
		c-0.1,0.1-0.2,0.2-0.4,0.2c-0.1,0.1-0.3,0.1-0.4,0.1c-0.1,0-0.2,0-0.3-0.1c-0.1,0-0.1-0.1-0.1-0.2c0,0,0-0.1,0-0.1l0.4-2h-0.4
		c0-0.1,0-0.1,0-0.1c0,0,0,0,0.1,0L14.2,61.8L14.2,61.8z"/>
	<path class="st0" d="M17.9,61.8c0.1,0,0.3,0,0.4,0.1c0.1,0,0.2,0.1,0.3,0.2c0.1,0.1,0.1,0.2,0.1,0.3c0,0.1,0,0.2,0,0.4
		c0,0.3,0,0.5-0.1,0.7c-0.1,0.2-0.2,0.4-0.3,0.5s-0.3,0.2-0.5,0.3c-0.2,0.1-0.3,0.1-0.5,0.1c-0.1,0-0.2,0-0.3-0.1
		c-0.1,0-0.2-0.1-0.2-0.2s-0.1-0.2-0.1-0.3c0-0.1,0-0.2,0-0.4c0-0.2,0-0.5,0.1-0.7c0.1-0.2,0.2-0.4,0.3-0.6s0.3-0.3,0.4-0.3
		C17.6,61.8,17.8,61.8,17.9,61.8z M17.5,64.3c0.1,0,0.2,0,0.3-0.1c0.1-0.1,0.2-0.2,0.2-0.3s0.1-0.3,0.2-0.4c0-0.2,0.1-0.3,0.1-0.6
		c0-0.2,0-0.4-0.1-0.6c-0.1-0.1-0.2-0.2-0.3-0.2c-0.1,0-0.2,0-0.3,0.1c-0.1,0.1-0.2,0.2-0.2,0.3c-0.1,0.1-0.1,0.3-0.2,0.4
		c0,0.2-0.1,0.3-0.1,0.5c0,0.2,0,0.4,0.1,0.6C17.2,64.2,17.3,64.3,17.5,64.3z"/>
	<path class="st0" d="M19.6,62.1h-0.4c0-0.1,0.1-0.2,0.1-0.2h0.4l0.1-0.5c0-0.2,0.1-0.3,0.2-0.4c0.1-0.1,0.2-0.2,0.3-0.3
		c0.1-0.1,0.2-0.2,0.3-0.2c0.1-0.1,0.2-0.1,0.4-0.1c0.1,0,0.2,0,0.3,0.1c0,0.1-0.1,0.1-0.1,0.2c0,0.1,0,0.1-0.1,0.2l-0.1,0
		c0,0-0.1-0.1-0.1-0.1c0,0-0.1-0.1-0.2-0.1s-0.1,0-0.1,0c0,0-0.1,0.1-0.1,0.2c0,0.1-0.1,0.2-0.1,0.3c0,0.1-0.1,0.3-0.1,0.6l0,0.2
		h0.6c0,0.1,0,0.2-0.1,0.3c-0.1,0-0.2,0-0.3,0s-0.2,0-0.3,0l-0.3,1.7c0,0.3-0.1,0.6-0.2,0.8c-0.1,0.2-0.1,0.4-0.2,0.6
		c-0.1,0.2-0.2,0.3-0.3,0.4s-0.2,0.2-0.3,0.3c0,0-0.1,0-0.1,0.1c0,0-0.1,0-0.1,0c-0.1,0-0.1,0-0.2,0c0-0.1,0-0.1,0.1-0.2
		s0-0.2,0-0.2l0.1,0c0,0.1,0.1,0.1,0.1,0.1c0.1,0,0.1,0.1,0.2,0.1c0.1,0,0.2-0.1,0.3-0.3s0.2-0.6,0.2-1L19.6,62.1z"/>
	<path class="st0" d="M22.6,61c0-0.1,0-0.1-0.1-0.1c-0.1,0-0.1,0-0.2-0.1c0,0-0.1,0-0.1-0.1c0,0,0-0.1,0-0.1c0.1,0,0.2,0,0.3,0
		c0.1,0,0.2,0,0.3,0c0.1,0,0.2,0,0.3,0c0.1,0,0.2,0,0.3,0c0,0,0,0,0,0.1v0c0,0,0,0,0,0.1c0,0,0,0-0.1,0c-0.1,0-0.2,0-0.3,0.1
		c-0.1,0-0.1,0.1-0.1,0.2l0.4,2.5l1.5-3c0,0,0,0,0.1,0c0,0,0.1,0,0.1,0.1l0.4,2.9l1.3-2.5c0-0.1,0.1-0.2,0-0.2c0,0-0.1-0.1-0.2-0.1
		c0,0-0.1,0-0.1-0.1v0c0,0,0,0,0-0.1c0.1,0,0.2,0,0.3,0s0.2,0,0.3,0c0.1,0,0.1,0,0.2,0c0.1,0,0.2,0,0.3,0c0,0,0,0,0,0.1v0
		c0,0,0,0.1-0.1,0.1c-0.2,0-0.3,0.1-0.4,0.2l-1.9,3.5c0,0,0,0-0.1,0c-0.1,0-0.1,0-0.1-0.1l-0.4-2.8l-1.5,2.9c0,0,0,0-0.1,0
		c-0.1,0-0.1,0-0.1-0.1L22.6,61z"/>
	<path class="st0" d="M28.1,64C28.1,64,28.1,64,28.1,64c0,0.1,0,0.1,0,0.1s0,0.1,0.1,0.1s0.1,0,0.1,0c0,0,0.1,0,0.1,0
		c0,0,0.1,0,0.1,0c0,0,0,0,0.1,0c0,0,0.1,0,0.1,0.1c-0.1,0-0.1,0.1-0.2,0.1c-0.1,0-0.1,0.1-0.2,0.1c-0.1,0-0.1,0.1-0.2,0.1
		c-0.1,0-0.1,0-0.1,0c0,0-0.1,0-0.1,0c0,0-0.1-0.1-0.1-0.1c0,0,0,0,0-0.1s0,0,0-0.1c0.1-0.4,0.1-0.8,0.2-1c0-0.2,0.1-0.4,0.1-0.6
		c0-0.1,0-0.2,0-0.3c0,0,0-0.1,0-0.1c0,0,0-0.1-0.1-0.1c0,0,0,0-0.1,0c0,0-0.1,0-0.1,0s-0.1,0-0.1,0c0,0-0.1,0-0.1,0c0,0,0,0-0.1,0
		c0,0,0,0,0-0.1c0.1,0,0.1-0.1,0.2-0.1c0.1-0.1,0.2-0.1,0.3-0.1c0.1,0,0.2-0.1,0.2-0.1c0.1,0,0.1,0,0.1,0c0.1,0,0.1,0,0.1,0.1
		c0,0,0,0.1,0,0.1L28.1,64z M28.4,61.2c-0.1,0-0.1,0-0.2-0.1c0,0-0.1-0.1-0.1-0.2c0-0.1,0-0.2,0.1-0.3c0.1-0.1,0.2-0.1,0.3-0.1
		c0.1,0,0.1,0,0.2,0.1c0,0,0,0.1,0,0.2s0,0.2-0.1,0.3C28.6,61.2,28.5,61.2,28.4,61.2z"/>
	<path class="st0" d="M29.7,60.8C29.7,60.8,29.7,60.8,29.7,60.8c0-0.1,0-0.1,0-0.1s0,0-0.1,0c0,0-0.1,0-0.1,0c0,0-0.1,0-0.1,0
		c0,0,0,0-0.1,0s-0.1,0-0.1-0.1c0.2,0,0.3-0.1,0.5-0.1c0.1,0,0.3-0.1,0.4-0.2c0,0,0,0,0.1,0.1c0,0,0,0,0,0.1c0,0,0,0.1,0,0.1
		l-0.7,3.4c0,0,0,0,0,0.1c0,0,0,0,0,0c0,0,0,0.1,0.1,0.1s0.1,0,0.1,0c0,0,0.1,0,0.1,0c0,0,0.1,0,0.1,0c0,0,0,0,0.1,0
		c0,0,0.1,0,0.1,0.1c-0.1,0-0.1,0.1-0.2,0.1c-0.1,0-0.1,0.1-0.2,0.1c-0.1,0-0.1,0.1-0.2,0.1c-0.1,0-0.1,0-0.1,0c0,0-0.1,0-0.1,0
		c0,0-0.1-0.1-0.1-0.1c0,0,0,0,0-0.1c0,0,0,0,0-0.1l0.5-2.8c0-0.1,0-0.2,0.1-0.3C29.7,60.9,29.7,60.9,29.7,60.8z"/>
	<path class="st0" d="M32.3,62.7c0-0.1,0-0.2,0-0.3c0-0.1,0-0.2-0.1-0.2c-0.1,0-0.1,0-0.2,0.1c-0.1,0.1-0.2,0.1-0.2,0.2
		c-0.1,0.1-0.2,0.2-0.3,0.3c-0.1,0.1-0.2,0.3-0.2,0.4c0,0.1-0.1,0.1-0.1,0.2c0,0.1-0.1,0.2-0.1,0.2c0,0.1,0,0.2-0.1,0.2
		c0,0.1,0,0.2,0,0.2s0,0.1,0,0.2c-0.1,0-0.3,0-0.4,0.1c0,0,0,0,0-0.1v0c0,0,0,0,0-0.1c0.1-0.4,0.1-0.8,0.2-1.1
		c0-0.3,0.1-0.4,0.1-0.6c0-0.1,0-0.2,0-0.3c0,0,0-0.1,0-0.1c0,0,0-0.1,0-0.1c0,0,0,0-0.1,0c0,0-0.1,0-0.1,0s-0.1,0-0.1,0
		c0,0-0.1,0-0.1,0c0,0,0,0,0,0c0,0,0,0,0-0.1c0.1,0,0.1-0.1,0.2-0.1c0.1,0,0.2-0.1,0.3-0.1c0.1,0,0.2-0.1,0.2-0.1c0.1,0,0.1,0,0.1,0
		s0,0,0.1,0c0,0,0,0,0,0.1v0c0,0,0,0,0,0.1l-0.2,1h0c0.1-0.2,0.2-0.3,0.3-0.5c0.1-0.1,0.2-0.3,0.3-0.4c0.1-0.1,0.2-0.2,0.3-0.2
		c0.1,0,0.2-0.1,0.3-0.1c0.1,0,0.2,0,0.2,0.1c0.1,0.1,0.1,0.1,0.1,0.3c0,0,0,0.1,0,0.2c0,0.1,0,0.1,0,0.2l-0.1,0.5h0
		c0.1-0.2,0.2-0.3,0.3-0.5c0.1-0.1,0.2-0.3,0.3-0.4c0.1-0.1,0.2-0.2,0.3-0.2c0.1-0.1,0.2-0.1,0.3-0.1c0.1,0,0.2,0,0.2,0.1
		c0.1,0.1,0.1,0.1,0.1,0.3c0,0.1,0,0.1,0,0.2c0,0.1,0,0.1,0,0.2L33.9,64c0,0,0,0,0,0.1s0,0,0,0c0,0,0,0.1,0.1,0.1c0,0,0.1,0,0.1,0
		c0,0,0.1,0,0.1,0c0,0,0.1,0,0.1,0c0,0,0,0,0.1,0s0.1,0,0.1,0.1c-0.1,0-0.1,0.1-0.2,0.1S34,64.3,34,64.4c-0.1,0-0.1,0.1-0.2,0.1
		c-0.1,0-0.1,0-0.1,0s-0.1,0-0.1,0c0,0-0.1-0.1-0.1-0.1c0,0,0,0,0-0.1s0,0,0-0.1l0.3-1.6c0-0.1,0-0.2,0-0.3s0-0.2-0.1-0.2
		c-0.1,0-0.1,0-0.2,0.1c-0.1,0.1-0.2,0.1-0.2,0.2c-0.1,0.1-0.2,0.2-0.3,0.3c-0.1,0.1-0.2,0.3-0.2,0.4c0,0.1-0.1,0.1-0.1,0.2
		c0,0.1-0.1,0.2-0.1,0.2c0,0.1,0,0.2-0.1,0.2c0,0.1,0,0.2,0,0.2c0,0.1,0,0.1,0,0.2c-0.1,0-0.3,0-0.4,0.1c0,0,0,0,0-0.1v0
		c0,0,0,0,0-0.1L32.3,62.7z"/>
	<path class="st0" d="M36.4,63.5L36.4,63.5c-0.1,0.2-0.2,0.3-0.3,0.5c-0.1,0.1-0.2,0.2-0.3,0.3c-0.1,0.1-0.2,0.1-0.3,0.2
		c-0.1,0-0.2,0.1-0.3,0.1c-0.1,0-0.1,0-0.2,0c-0.1,0-0.1,0-0.1-0.1s-0.1-0.1-0.1-0.2s0-0.2,0-0.3c0-0.3,0.1-0.6,0.2-0.9
		c0.1-0.3,0.2-0.5,0.4-0.7c0.2-0.2,0.3-0.3,0.5-0.4c0.2-0.1,0.3-0.1,0.5-0.1c0.1,0,0.2,0,0.3,0c0.1,0,0.2,0,0.4,0.1l-0.4,2
		c0,0,0,0.1,0,0.1c0,0,0,0.1,0.1,0.1c0,0,0.1,0,0.1,0c0,0,0.1,0,0.1,0c0,0,0.1,0,0.1,0c0,0,0,0,0.1,0s0.1,0,0.1,0.1
		c-0.1,0-0.1,0.1-0.2,0.1s-0.1,0.1-0.2,0.1c-0.1,0-0.1,0.1-0.2,0.1c-0.1,0-0.1,0-0.1,0s-0.1,0-0.1,0s-0.1-0.1-0.1-0.1s0,0,0-0.1
		s0-0.1,0-0.1L36.4,63.5z M36.6,62.1c0,0-0.1,0-0.2,0c-0.1,0-0.1,0-0.2,0c-0.2,0-0.3,0-0.4,0.1c-0.1,0.1-0.2,0.2-0.3,0.3
		c-0.1,0.1-0.2,0.3-0.2,0.5c0,0.2-0.1,0.4-0.1,0.7c0,0.1,0,0.2,0.1,0.3c0,0.1,0.1,0.1,0.1,0.1c0.1,0,0.2,0,0.2-0.1
		c0.1-0.1,0.2-0.2,0.3-0.3c0.1-0.1,0.2-0.2,0.2-0.4c0.1-0.1,0.1-0.3,0.2-0.4c0.1-0.1,0.1-0.3,0.1-0.4C36.6,62.3,36.6,62.2,36.6,62.1
		z"/>
	<path class="st0" d="M39.2,62.4c-0.1,0-0.1,0-0.2,0.1c-0.1,0.1-0.2,0.1-0.2,0.2c-0.1,0.1-0.2,0.2-0.2,0.3c-0.1,0.1-0.1,0.2-0.2,0.4
		c-0.1,0.1-0.1,0.3-0.1,0.4c0,0.1-0.1,0.3-0.1,0.4c0,0.1,0,0.1,0,0.2c-0.1,0-0.2,0-0.2,0c-0.1,0-0.2,0-0.2,0.1c0,0-0.1,0-0.1-0.1
		c0,0,0,0,0-0.1s0-0.1,0-0.1c0,0,0,0,0-0.1c0,0,0-0.1,0-0.1l0.2-1.3c0-0.1,0-0.2,0.1-0.3c0-0.1,0-0.1,0-0.1c0,0,0-0.1-0.1-0.1
		c0,0,0,0-0.1,0c0,0-0.1,0-0.1,0s-0.1,0-0.1,0c0,0-0.1,0-0.1,0c0,0,0,0,0,0c0,0,0,0,0-0.1c0.1,0,0.1-0.1,0.2-0.1
		c0.1,0,0.2-0.1,0.3-0.1c0.1,0,0.2-0.1,0.2-0.1c0.1,0,0.1,0,0.1,0c0,0,0,0,0.1,0c0,0,0,0,0,0.1v0c0,0,0,0,0,0.1l-0.2,0.8h0
		c0.2-0.4,0.4-0.7,0.6-0.8s0.3-0.2,0.5-0.2c0,0,0.1,0,0.1,0c0,0,0,0,0.1,0c0,0.1-0.1,0.2-0.1,0.3c0,0.1,0,0.2-0.1,0.3h-0.1
		C39.3,62.4,39.2,62.4,39.2,62.4z"/>
	<path class="st0" d="M40.2,61.8c0-0.1,0-0.3,0-0.3c0,0,0-0.1,0-0.2c0.1,0,0.1,0,0.2,0c0.1,0,0.2,0,0.2-0.1c0,0,0,0,0,0.1v0
		c0,0,0,0,0,0.1l-0.1,0.5h0.6c0,0,0,0.1,0,0.1c0,0.1,0,0.1,0,0.1c-0.1,0-0.2,0-0.3,0c-0.1,0-0.2,0-0.3,0l-0.3,1.8c0,0.1,0,0.1,0,0.1
		c0,0.1,0.1,0.1,0.2,0.1c0.1,0,0.1,0,0.2,0c0,0,0.1,0,0.1,0c0,0,0.1,0,0.1,0s0,0,0.1,0c0,0,0.1,0,0.1,0.1c-0.1,0.1-0.2,0.2-0.4,0.2
		c-0.1,0.1-0.3,0.1-0.4,0.1c-0.1,0-0.2,0-0.3-0.1c-0.1,0-0.1-0.1-0.1-0.2c0,0,0-0.1,0-0.1l0.4-2h-0.4c0-0.1,0-0.1,0-0.1
		c0,0,0,0,0.1,0L40.2,61.8L40.2,61.8z"/>
	<path class="st0" d="M43.6,61c0-0.1,0-0.1,0-0.2c0,0-0.1-0.1-0.2-0.1c-0.1,0-0.1,0-0.1-0.1v0v0c0.1,0,0.2,0,0.3,0
		c0.1,0,0.2,0,0.3,0c0.1,0,0.2,0,0.3,0c0.1,0,0.2,0,0.3,0c0,0,0,0.1,0,0.1c0,0.1,0,0.1-0.1,0.1c-0.1,0-0.2,0-0.3,0.1
		c0,0-0.1,0.1-0.1,0.2l-0.6,3c0,0.1,0,0.1,0,0.2c0,0,0.1,0.1,0.3,0.1c0,0,0.1,0,0.1,0.1c0,0,0,0.1,0,0.1c-0.1,0-0.2,0-0.3,0
		c-0.1,0-0.2,0-0.3,0c-0.1,0-0.2,0-0.3,0c-0.1,0-0.2,0-0.3,0c0,0,0-0.1,0-0.1c0,0,0-0.1,0.1-0.1c0.1,0,0.2,0,0.3-0.1
		c0.1,0,0.1-0.1,0.1-0.2L43.6,61z"/>
	<path class="st0" d="M46.6,62.7c0-0.1,0-0.2,0-0.3c0-0.1-0.1-0.2-0.2-0.2c-0.1,0-0.1,0-0.2,0.1c-0.1,0.1-0.2,0.1-0.3,0.2
		c-0.1,0.1-0.2,0.2-0.3,0.3c-0.1,0.1-0.2,0.3-0.2,0.4c0,0.1-0.1,0.1-0.1,0.2c0,0.1-0.1,0.2-0.1,0.2c0,0.1,0,0.2-0.1,0.2
		c0,0.1,0,0.2,0,0.2s0,0.1,0,0.2c-0.1,0-0.3,0-0.4,0.1c0,0,0,0,0-0.1v0c0,0,0,0,0-0.1c0.1-0.4,0.2-0.8,0.2-1.1
		c0-0.2,0.1-0.4,0.1-0.6c0-0.1,0-0.2,0-0.3c0,0,0-0.1,0-0.1c0,0,0-0.1,0-0.1c0,0,0,0-0.1,0c0,0-0.1,0-0.1,0s-0.1,0-0.1,0
		c0,0-0.1,0-0.1,0c0,0,0,0,0,0c0,0,0,0,0-0.1c0.1,0,0.1-0.1,0.2-0.1c0.1,0,0.2-0.1,0.3-0.1c0.1,0,0.2-0.1,0.2-0.1c0.1,0,0.1,0,0.1,0
		c0,0,0,0,0.1,0c0,0,0,0,0,0.1v0c0,0,0,0,0,0.1l-0.2,1h0c0.1-0.2,0.2-0.3,0.3-0.5c0.1-0.1,0.2-0.3,0.3-0.4c0.1-0.1,0.2-0.2,0.3-0.2
		c0.1,0,0.2-0.1,0.3-0.1c0.1,0,0.2,0,0.3,0.1c0.1,0.1,0.1,0.1,0.1,0.3c0,0,0,0.1,0,0.2c0,0.1,0,0.1,0,0.2L46.8,64c0,0.1,0,0.1,0,0.1
		c0,0,0,0.1,0.1,0.1c0,0,0,0,0.1,0c0,0,0.1,0,0.1,0c0,0,0.1,0,0.1,0c0,0,0,0,0.1,0c0,0,0.1,0,0.1,0.1c-0.1,0-0.1,0.1-0.2,0.1
		c-0.1,0-0.1,0.1-0.2,0.1c-0.1,0-0.1,0.1-0.2,0.1c-0.1,0-0.1,0-0.1,0c0,0-0.1,0-0.1,0c0,0-0.1-0.1-0.1-0.1c0,0,0,0,0-0.1s0,0,0-0.1
		L46.6,62.7z"/>
	<path class="st0" d="M48.2,61.8c0-0.1,0-0.3,0-0.3c0,0,0-0.1,0-0.2c0.1,0,0.1,0,0.2,0c0.1,0,0.2,0,0.2-0.1c0,0,0,0,0,0.1v0
		c0,0,0,0,0,0.1l-0.1,0.5h0.6c0,0,0,0.1,0,0.1c0,0.1,0,0.1,0,0.1c-0.1,0-0.2,0-0.3,0c-0.1,0-0.2,0-0.3,0l-0.3,1.8c0,0.1,0,0.1,0,0.1
		c0,0.1,0.1,0.1,0.2,0.1c0.1,0,0.1,0,0.2,0c0,0,0.1,0,0.1,0c0,0,0.1,0,0.1,0s0,0,0.1,0c0,0,0.1,0,0.1,0.1c-0.1,0.1-0.2,0.2-0.4,0.2
		c-0.1,0.1-0.3,0.1-0.4,0.1c-0.1,0-0.2,0-0.3-0.1c-0.1,0-0.1-0.1-0.1-0.2c0,0,0-0.1,0-0.1l0.4-2h-0.4c0-0.1,0-0.1,0-0.1
		c0,0,0,0,0.1,0L48.2,61.8L48.2,61.8z"/>
	<path class="st0" d="M49.8,63.2c0,0,0,0.1,0,0.1c0,0,0,0.1,0,0.1c0,0.1,0,0.2,0,0.3c0,0.1,0,0.2,0.1,0.2c0,0.1,0.1,0.1,0.2,0.2
		c0.1,0,0.2,0.1,0.3,0.1c0.1,0,0.2,0,0.3-0.1c0.1,0,0.2-0.1,0.3-0.2c0,0,0.1,0,0.1,0c0,0,0.1,0,0.1,0c0,0,0,0.1,0,0.1
		c-0.1,0.1-0.1,0.1-0.2,0.2c-0.1,0.1-0.1,0.1-0.2,0.1c-0.1,0-0.2,0.1-0.3,0.1c-0.1,0-0.2,0-0.3,0c-0.2,0-0.3,0-0.4-0.1
		c-0.1-0.1-0.2-0.1-0.2-0.2c-0.1-0.1-0.1-0.2-0.1-0.3c0-0.1,0-0.2,0-0.3c0-0.2,0-0.4,0.1-0.6s0.2-0.4,0.3-0.6
		c0.1-0.2,0.3-0.3,0.4-0.4c0.2-0.1,0.3-0.1,0.5-0.1c0.1,0,0.2,0,0.2,0c0.1,0,0.1,0.1,0.2,0.1c0.1,0,0.1,0.1,0.1,0.2
		c0,0.1,0.1,0.1,0.1,0.2c0,0.1,0,0.3-0.1,0.4C51.1,62.9,51,63,50.9,63c-0.1,0.1-0.3,0.1-0.5,0.2C50.3,63.2,50.1,63.2,49.8,63.2z
		 M49.9,63.1c0.4,0,0.6-0.1,0.8-0.2c0.2-0.1,0.2-0.3,0.2-0.4c0-0.1,0-0.2-0.1-0.2c-0.1-0.1-0.1-0.1-0.2-0.1c-0.1,0-0.2,0-0.3,0.1
		c-0.1,0.1-0.1,0.1-0.2,0.2c-0.1,0.1-0.1,0.2-0.2,0.3C49.9,62.8,49.9,62.9,49.9,63.1z"/>
	<path class="st0" d="M53.2,62.4c-0.1,0-0.1,0-0.2,0.1c-0.1,0.1-0.2,0.1-0.2,0.2c-0.1,0.1-0.2,0.2-0.2,0.3c-0.1,0.1-0.1,0.2-0.2,0.4
		c-0.1,0.1-0.1,0.3-0.1,0.4c0,0.1-0.1,0.3-0.1,0.4c0,0.1,0,0.1,0,0.2c-0.1,0-0.2,0-0.2,0c-0.1,0-0.2,0-0.2,0.1c0,0-0.1,0-0.1-0.1
		c0,0,0,0,0-0.1s0-0.1,0-0.1c0,0,0,0,0-0.1c0,0,0-0.1,0-0.1l0.2-1.3c0-0.1,0-0.2,0.1-0.3c0-0.1,0-0.1,0-0.1c0,0,0-0.1-0.1-0.1
		c0,0,0,0-0.1,0c0,0-0.1,0-0.1,0s-0.1,0-0.1,0c0,0-0.1,0-0.1,0c0,0,0,0,0,0c0,0,0,0,0-0.1c0.1,0,0.1-0.1,0.2-0.1
		c0.1,0,0.2-0.1,0.3-0.1c0.1,0,0.2-0.1,0.2-0.1c0.1,0,0.1,0,0.1,0c0,0,0,0,0.1,0c0,0,0,0,0,0.1v0c0,0,0,0,0,0.1L52.4,63h0
		c0.2-0.4,0.4-0.7,0.6-0.8c0.2-0.2,0.3-0.2,0.5-0.2c0,0,0.1,0,0.1,0c0,0,0,0,0.1,0c0,0.1-0.1,0.2-0.1,0.3s0,0.2-0.1,0.3h-0.1
		C53.4,62.4,53.3,62.4,53.2,62.4z"/>
	<path class="st0" d="M55.7,62.7c0-0.1,0-0.2,0-0.3c0-0.1-0.1-0.2-0.2-0.2c-0.1,0-0.1,0-0.2,0.1c-0.1,0.1-0.2,0.1-0.3,0.2
		c-0.1,0.1-0.2,0.2-0.3,0.3c-0.1,0.1-0.2,0.3-0.2,0.4c0,0.1-0.1,0.1-0.1,0.2c0,0.1-0.1,0.2-0.1,0.2c0,0.1,0,0.2-0.1,0.2
		c0,0.1,0,0.2,0,0.2s0,0.1,0,0.2c-0.1,0-0.3,0-0.4,0.1c0,0,0,0,0-0.1v0c0,0,0,0,0-0.1c0.1-0.4,0.2-0.8,0.2-1.1
		c0-0.2,0.1-0.4,0.1-0.6c0-0.1,0-0.2,0-0.3c0,0,0-0.1,0-0.1c0,0,0-0.1,0-0.1c0,0,0,0-0.1,0c0,0-0.1,0-0.1,0s-0.1,0-0.1,0
		c0,0-0.1,0-0.1,0c0,0,0,0,0,0c0,0,0,0,0-0.1c0.1,0,0.1-0.1,0.2-0.1c0.1,0,0.2-0.1,0.3-0.1c0.1,0,0.2-0.1,0.2-0.1c0.1,0,0.1,0,0.1,0
		c0,0,0,0,0.1,0c0,0,0,0,0,0.1v0c0,0,0,0,0,0.1l-0.2,1h0c0.1-0.2,0.2-0.3,0.3-0.5c0.1-0.1,0.2-0.3,0.3-0.4c0.1-0.1,0.2-0.2,0.3-0.2
		c0.1,0,0.2-0.1,0.3-0.1c0.1,0,0.2,0,0.3,0.1c0.1,0.1,0.1,0.1,0.1,0.3c0,0,0,0.1,0,0.2c0,0.1,0,0.1,0,0.2L55.9,64c0,0.1,0,0.1,0,0.1
		c0,0,0,0.1,0.1,0.1c0,0,0,0,0.1,0c0,0,0.1,0,0.1,0c0,0,0.1,0,0.1,0c0,0,0,0,0.1,0c0,0,0.1,0,0.1,0.1c-0.1,0-0.1,0.1-0.2,0.1
		c-0.1,0-0.1,0.1-0.2,0.1c-0.1,0-0.1,0.1-0.2,0.1c-0.1,0-0.1,0-0.1,0c0,0-0.1,0-0.1,0c0,0-0.1-0.1-0.1-0.1c0,0,0,0,0-0.1s0,0,0-0.1
		L55.7,62.7z"/>
	<path class="st0" d="M58.3,63.5L58.3,63.5c-0.1,0.2-0.2,0.3-0.3,0.5c-0.1,0.1-0.2,0.2-0.3,0.3c-0.1,0.1-0.2,0.1-0.3,0.2
		c-0.1,0-0.2,0.1-0.3,0.1c-0.1,0-0.1,0-0.2,0c-0.1,0-0.1,0-0.1-0.1c0-0.1-0.1-0.1-0.1-0.2s0-0.2,0-0.3c0-0.3,0.1-0.6,0.2-0.9
		c0.1-0.2,0.2-0.5,0.4-0.7s0.3-0.3,0.5-0.4c0.2-0.1,0.3-0.1,0.5-0.1c0.1,0,0.2,0,0.3,0c0.1,0,0.2,0,0.4,0.1l-0.4,2c0,0,0,0.1,0,0.1
		c0,0,0,0.1,0.1,0.1c0,0,0.1,0,0.1,0c0,0,0.1,0,0.1,0s0.1,0,0.1,0c0,0,0,0,0.1,0c0,0,0.1,0,0.1,0.1c-0.1,0-0.1,0.1-0.2,0.1
		s-0.1,0.1-0.2,0.1c-0.1,0-0.1,0.1-0.2,0.1c-0.1,0-0.1,0-0.1,0c0,0-0.1,0-0.1,0c0,0-0.1-0.1-0.1-0.1s0,0,0-0.1s0-0.1,0-0.1
		L58.3,63.5z M58.5,62.1c0,0-0.1,0-0.2,0s-0.1,0-0.2,0c-0.2,0-0.3,0-0.4,0.1c-0.1,0.1-0.2,0.2-0.3,0.3c-0.1,0.1-0.2,0.3-0.2,0.5
		c0,0.2-0.1,0.4-0.1,0.7c0,0.1,0,0.2,0.1,0.3c0,0.1,0.1,0.1,0.1,0.1c0.1,0,0.2,0,0.2-0.1c0.1-0.1,0.2-0.2,0.3-0.3
		c0.1-0.1,0.2-0.2,0.2-0.4c0.1-0.1,0.1-0.3,0.2-0.4c0.1-0.1,0.1-0.3,0.1-0.4C58.5,62.3,58.5,62.2,58.5,62.1z"/>
	<path class="st0" d="M60,61.8c0-0.1,0-0.3,0-0.3c0,0,0-0.1,0-0.2c0.1,0,0.1,0,0.2,0c0.1,0,0.2,0,0.2-0.1c0,0,0,0,0,0.1v0
		c0,0,0,0,0,0.1l-0.1,0.5h0.6c0,0,0,0.1,0,0.1c0,0.1,0,0.1,0,0.1c-0.1,0-0.2,0-0.3,0c-0.1,0-0.2,0-0.3,0l-0.3,1.8c0,0.1,0,0.1,0,0.1
		c0,0.1,0.1,0.1,0.2,0.1c0.1,0,0.1,0,0.2,0c0,0,0.1,0,0.1,0c0,0,0.1,0,0.1,0c0,0,0,0,0.1,0c0,0,0.1,0,0.1,0.1
		c-0.1,0.1-0.2,0.2-0.4,0.2c-0.1,0.1-0.3,0.1-0.4,0.1c-0.1,0-0.2,0-0.3-0.1c-0.1,0-0.1-0.1-0.1-0.2c0,0,0-0.1,0-0.1l0.4-2h-0.4
		c0-0.1,0-0.1,0-0.1c0,0,0,0,0.1,0L60,61.8L60,61.8z"/>
	<path class="st0" d="M61.8,64C61.8,64,61.8,64,61.8,64c0,0.1,0,0.1,0,0.1s0,0.1,0.1,0.1c0,0,0.1,0,0.1,0c0,0,0.1,0,0.1,0
		c0,0,0.1,0,0.1,0c0,0,0,0,0.1,0c0,0,0.1,0,0.1,0.1c-0.1,0-0.1,0.1-0.2,0.1c-0.1,0-0.1,0.1-0.2,0.1c-0.1,0-0.1,0.1-0.2,0.1
		c-0.1,0-0.1,0-0.1,0c0,0-0.1,0-0.1,0c0,0-0.1-0.1-0.1-0.1c0,0,0,0,0-0.1s0,0,0-0.1c0.1-0.4,0.1-0.8,0.2-1c0-0.2,0.1-0.4,0.1-0.6
		c0-0.1,0-0.2,0-0.3c0,0,0-0.1,0-0.1c0,0,0-0.1-0.1-0.1c0,0,0,0-0.1,0c0,0-0.1,0-0.1,0s-0.1,0-0.1,0c0,0-0.1,0-0.1,0c0,0,0,0-0.1,0
		c0,0,0,0,0-0.1c0.1,0,0.1-0.1,0.2-0.1c0.1-0.1,0.2-0.1,0.3-0.1c0.1,0,0.2-0.1,0.2-0.1c0.1,0,0.1,0,0.1,0c0.1,0,0.1,0,0.1,0.1
		c0,0,0,0.1,0,0.1L61.8,64z M62.1,61.2c-0.1,0-0.1,0-0.2-0.1c0,0-0.1-0.1-0.1-0.2c0-0.1,0-0.2,0.1-0.3c0.1-0.1,0.2-0.1,0.3-0.1
		c0.1,0,0.1,0,0.2,0.1c0,0,0,0.1,0,0.2s0,0.2-0.1,0.3C62.3,61.2,62.2,61.2,62.1,61.2z"/>
	<path class="st0" d="M63.9,61.8c0.1,0,0.3,0,0.4,0.1c0.1,0,0.2,0.1,0.3,0.2c0.1,0.1,0.1,0.2,0.1,0.3c0,0.1,0,0.2,0,0.4
		c0,0.3,0,0.5-0.1,0.7c-0.1,0.2-0.2,0.4-0.3,0.5c-0.1,0.1-0.3,0.2-0.5,0.3c-0.2,0.1-0.3,0.1-0.5,0.1c-0.1,0-0.2,0-0.3-0.1
		c-0.1,0-0.2-0.1-0.2-0.2s-0.1-0.2-0.1-0.3c0-0.1,0-0.2,0-0.4c0-0.2,0-0.5,0.1-0.7c0.1-0.2,0.2-0.4,0.3-0.6c0.1-0.2,0.3-0.3,0.4-0.3
		C63.7,61.9,63.8,61.8,63.9,61.8z M63.5,64.3c0.1,0,0.2,0,0.3-0.1c0.1-0.1,0.2-0.2,0.2-0.3c0.1-0.1,0.1-0.3,0.2-0.4s0.1-0.3,0.1-0.6
		c0-0.2,0-0.4-0.1-0.6c-0.1-0.1-0.2-0.2-0.3-0.2c-0.1,0-0.2,0-0.3,0.1c-0.1,0.1-0.2,0.2-0.2,0.3c-0.1,0.1-0.1,0.3-0.2,0.4
		c0,0.2-0.1,0.3-0.1,0.5c0,0.2,0,0.4,0.1,0.6C63.2,64.2,63.4,64.3,63.5,64.3z"/>
	<path class="st0" d="M67.1,62.7c0-0.1,0-0.2,0-0.3c0-0.1-0.1-0.2-0.2-0.2c-0.1,0-0.1,0-0.2,0.1c-0.1,0.1-0.2,0.1-0.3,0.2
		c-0.1,0.1-0.2,0.2-0.3,0.3C66.1,63,66,63.2,66,63.3c0,0.1-0.1,0.1-0.1,0.2c0,0.1-0.1,0.2-0.1,0.2c0,0.1,0,0.2-0.1,0.2
		c0,0.1,0,0.2,0,0.2s0,0.1,0,0.2c-0.1,0-0.3,0-0.4,0.1c0,0,0,0,0-0.1v0c0,0,0,0,0-0.1c0.1-0.4,0.2-0.8,0.2-1.1
		c0-0.2,0.1-0.4,0.1-0.6c0-0.1,0-0.2,0-0.3c0,0,0-0.1,0-0.1c0,0,0-0.1,0-0.1c0,0,0,0-0.1,0c0,0-0.1,0-0.1,0s-0.1,0-0.1,0
		s-0.1,0-0.1,0c0,0,0,0,0,0c0,0,0,0,0-0.1c0.1,0,0.1-0.1,0.2-0.1c0.1,0,0.2-0.1,0.3-0.1c0.1,0,0.2-0.1,0.2-0.1c0.1,0,0.1,0,0.1,0
		s0,0,0.1,0c0,0,0,0,0,0.1v0c0,0,0,0,0,0.1l-0.2,1h0c0.1-0.2,0.2-0.3,0.3-0.5c0.1-0.1,0.2-0.3,0.3-0.4c0.1-0.1,0.2-0.2,0.3-0.2
		s0.2-0.1,0.3-0.1s0.2,0,0.3,0.1c0.1,0.1,0.1,0.1,0.1,0.3c0,0,0,0.1,0,0.2c0,0.1,0,0.1,0,0.2L67.3,64c0,0.1,0,0.1,0,0.1
		c0,0,0,0.1,0.1,0.1c0,0,0,0,0.1,0c0,0,0.1,0,0.1,0s0.1,0,0.1,0c0,0,0,0,0.1,0c0,0,0.1,0,0.1,0.1c-0.1,0-0.1,0.1-0.2,0.1
		s-0.1,0.1-0.2,0.1s-0.1,0.1-0.2,0.1c-0.1,0-0.1,0-0.1,0c0,0-0.1,0-0.1,0c0,0-0.1-0.1-0.1-0.1c0,0,0,0,0-0.1s0,0,0-0.1L67.1,62.7z"
		/>
	<path class="st0" d="M69.7,63.5L69.7,63.5c-0.1,0.2-0.2,0.3-0.3,0.5c-0.1,0.1-0.2,0.2-0.3,0.3c-0.1,0.1-0.2,0.1-0.3,0.2
		c-0.1,0-0.2,0.1-0.3,0.1c-0.1,0-0.1,0-0.2,0c-0.1,0-0.1,0-0.1-0.1c0-0.1-0.1-0.1-0.1-0.2c0-0.1,0-0.2,0-0.3c0-0.3,0.1-0.6,0.2-0.9
		c0.1-0.2,0.2-0.5,0.4-0.7s0.3-0.3,0.5-0.4c0.2-0.1,0.3-0.1,0.5-0.1c0.1,0,0.2,0,0.3,0c0.1,0,0.2,0,0.4,0.1l-0.4,2c0,0,0,0.1,0,0.1
		c0,0,0,0.1,0.1,0.1c0,0,0.1,0,0.1,0c0,0,0.1,0,0.1,0c0,0,0.1,0,0.1,0c0,0,0,0,0.1,0s0.1,0,0.1,0.1c-0.1,0-0.1,0.1-0.2,0.1
		s-0.1,0.1-0.2,0.1c-0.1,0-0.1,0.1-0.2,0.1s-0.1,0-0.1,0c0,0-0.1,0-0.1,0s-0.1-0.1-0.1-0.1s0,0,0-0.1s0-0.1,0-0.1L69.7,63.5z
		 M69.9,62.1c0,0-0.1,0-0.2,0s-0.1,0-0.2,0c-0.2,0-0.3,0-0.4,0.1c-0.1,0.1-0.2,0.2-0.3,0.3c-0.1,0.1-0.2,0.3-0.2,0.5
		c0,0.2-0.1,0.4-0.1,0.7c0,0.1,0,0.2,0.1,0.3c0,0.1,0.1,0.1,0.1,0.1c0.1,0,0.2,0,0.2-0.1c0.1-0.1,0.2-0.2,0.3-0.3
		c0.1-0.1,0.2-0.2,0.2-0.4c0.1-0.1,0.1-0.3,0.2-0.4c0.1-0.1,0.1-0.3,0.1-0.4C69.9,62.3,69.9,62.2,69.9,62.1z"/>
	<path class="st0" d="M71.6,60.8C71.6,60.8,71.6,60.8,71.6,60.8c0-0.1,0-0.1,0-0.1s0,0-0.1,0s-0.1,0-0.1,0c0,0-0.1,0-0.1,0
		c0,0,0,0-0.1,0c0,0-0.1,0-0.1-0.1c0.2,0,0.3-0.1,0.5-0.1c0.1,0,0.3-0.1,0.4-0.2c0,0,0,0,0.1,0.1c0,0,0,0,0,0.1c0,0,0,0.1,0,0.1
		l-0.7,3.4c0,0,0,0,0,0.1s0,0,0,0c0,0,0,0.1,0.1,0.1s0.1,0,0.1,0c0,0,0.1,0,0.1,0s0.1,0,0.1,0c0,0,0,0,0.1,0c0,0,0.1,0,0.1,0.1
		c-0.1,0-0.1,0.1-0.2,0.1c-0.1,0-0.1,0.1-0.2,0.1c-0.1,0-0.1,0.1-0.2,0.1c-0.1,0-0.1,0-0.1,0s-0.1,0-0.1,0c0,0-0.1-0.1-0.1-0.1
		c0,0,0,0,0-0.1c0,0,0,0,0-0.1l0.5-2.8c0-0.1,0-0.2,0.1-0.3C71.6,60.9,71.6,60.9,71.6,60.8z"/>
</g>
<g class="st1">
	<path class="st0" d="M17.7,5c0.1,0.1,0.1,0.2,0.2,0.3c0.1,0.1,0.2,0.1,0.4,0.1c0.2,0,0.3-0.1,0.4-0.2c0.1-0.1,0.2-0.3,0.3-0.6
		l0.3-1.4h0C19.1,3.5,19,3.8,18.8,4c-0.2,0.2-0.4,0.2-0.5,0.2c-0.1,0-0.1,0-0.2,0c-0.1,0-0.1,0-0.1-0.1S17.8,4,17.8,3.9
		c0-0.1,0-0.2,0-0.3c0-0.3,0-0.6,0.1-0.9c0.1-0.2,0.2-0.5,0.4-0.7c0.1-0.2,0.3-0.3,0.5-0.4c0.2-0.1,0.4-0.1,0.5-0.1
		c0.1,0,0.3,0,0.4,0c0.1,0,0.2,0,0.4,0.1l-0.5,2.8c0,0.2-0.1,0.4-0.2,0.6c-0.1,0.1-0.2,0.3-0.3,0.4c-0.1,0.1-0.2,0.2-0.4,0.2
		c-0.1,0-0.3,0.1-0.4,0.1c-0.3,0-0.5,0-0.7-0.1c0-0.1,0-0.2,0.1-0.2C17.7,5.2,17.7,5.1,17.7,5L17.7,5z M19.6,1.9c0,0-0.1,0-0.2,0
		s-0.1,0-0.2,0c-0.2,0-0.3,0-0.4,0.1c-0.1,0.1-0.2,0.2-0.3,0.3s-0.1,0.3-0.2,0.5c0,0.2-0.1,0.4-0.1,0.7c0,0.1,0,0.2,0.1,0.3
		s0.1,0.1,0.2,0.1s0.1,0,0.2-0.1c0.1-0.1,0.2-0.2,0.2-0.3s0.2-0.2,0.2-0.4c0.1-0.1,0.1-0.3,0.2-0.4c0.1-0.1,0.1-0.3,0.1-0.4
		C19.6,2.1,19.6,1.9,19.6,1.9z"/>
	<path class="st0" d="M22,2.1c-0.1,0-0.1,0-0.2,0.1c-0.1,0.1-0.2,0.1-0.2,0.2c-0.1,0.1-0.2,0.2-0.2,0.3c-0.1,0.1-0.1,0.2-0.2,0.4
		C21.1,3.2,21,3.3,21,3.5c0,0.1-0.1,0.3-0.1,0.4c0,0.1,0,0.1,0,0.2c-0.1,0-0.2,0-0.2,0s-0.2,0-0.2,0.1c0,0-0.1,0-0.1-0.1
		c0,0,0,0,0-0.1c0,0,0-0.1,0-0.1c0,0,0,0,0-0.1c0,0,0-0.1,0-0.1l0.2-1.3c0-0.1,0-0.2,0.1-0.3c0-0.1,0-0.1,0-0.1c0,0,0-0.1-0.1-0.1
		c0,0,0,0-0.1,0c0,0-0.1,0-0.1,0c0,0-0.1,0-0.1,0c0,0-0.1,0-0.1,0c0,0,0,0,0,0s0,0,0-0.1c0.1,0,0.1-0.1,0.2-0.1
		c0.1,0,0.2-0.1,0.3-0.1s0.2-0.1,0.2-0.1c0.1,0,0.1,0,0.1,0s0,0,0.1,0c0,0,0,0,0,0.1v0c0,0,0,0,0,0.1l-0.2,0.8h0
		c0.2-0.4,0.4-0.7,0.6-0.8s0.3-0.2,0.5-0.2c0,0,0.1,0,0.1,0c0,0,0,0,0.1,0c0,0.1-0.1,0.2-0.1,0.3c0,0.1,0,0.2-0.1,0.3h-0.1
		C22.2,2.1,22.1,2.1,22,2.1z"/>
	<path class="st0" d="M23.8,1.6c0.1,0,0.3,0,0.4,0.1c0.1,0,0.2,0.1,0.3,0.2c0.1,0.1,0.1,0.2,0.1,0.3c0,0.1,0,0.2,0,0.4
		c0,0.3,0,0.5-0.1,0.7c-0.1,0.2-0.2,0.4-0.3,0.5C24,3.9,23.8,4,23.6,4.1c-0.2,0.1-0.3,0.1-0.5,0.1c-0.1,0-0.2,0-0.3-0.1
		S22.6,4,22.5,3.9c-0.1-0.1-0.1-0.2-0.1-0.3c0-0.1,0-0.2,0-0.4c0-0.2,0-0.5,0.1-0.7s0.2-0.4,0.3-0.6c0.1-0.2,0.3-0.3,0.4-0.3
		C23.5,1.6,23.6,1.6,23.8,1.6z M23.3,4c0.1,0,0.2,0,0.3-0.1c0.1-0.1,0.2-0.2,0.2-0.3C23.9,3.4,24,3.3,24,3.1s0.1-0.3,0.1-0.6
		c0-0.2,0-0.4-0.1-0.6c-0.1-0.1-0.2-0.2-0.3-0.2c-0.1,0-0.2,0-0.3,0.1c-0.1,0.1-0.2,0.2-0.2,0.3c-0.1,0.1-0.1,0.3-0.2,0.4
		c0,0.2-0.1,0.3-0.1,0.5c0,0.2,0,0.4,0.1,0.6S23.2,4,23.3,4z"/>
	<path class="st0" d="M25.6,3.4c0,0.1,0,0.2,0,0.3s0,0.1,0.1,0.1c0,0,0.1,0,0.1,0c0.1,0,0.2,0,0.3-0.1s0.2-0.2,0.3-0.3
		c0.1-0.1,0.2-0.2,0.3-0.4c0.1-0.1,0.2-0.3,0.2-0.4c0.1-0.1,0.1-0.3,0.1-0.4c0-0.2,0-0.3,0-0.4c0,0,0-0.1,0-0.2c0.1,0,0.3,0,0.4-0.1
		c0,0,0,0,0,0.1v0c0,0,0,0,0,0.1l-0.4,2c0,0.1,0,0.1,0.1,0.1c0,0,0,0,0.1,0c0,0,0.1,0,0.1,0c0,0,0.1,0,0.1,0c0,0,0,0,0.1,0
		s0.1,0,0.1,0.1c-0.1,0-0.1,0.1-0.2,0.1C27.2,4,27.1,4,27,4.1c-0.1,0-0.1,0.1-0.2,0.1c-0.1,0-0.1,0-0.1,0c0,0-0.1,0-0.1,0
		c0,0-0.1-0.1-0.1-0.1c0,0,0,0,0-0.1c0,0,0-0.1,0-0.1l0.2-0.8h0c-0.2,0.4-0.4,0.7-0.6,0.8c-0.2,0.2-0.4,0.2-0.6,0.2
		c-0.1,0-0.2,0-0.3-0.1C25,4,25,3.9,25,3.8c0,0,0-0.1,0-0.2s0-0.1,0-0.2l0.3-1.3v0c0,0,0,0,0,0c0-0.1,0-0.1-0.1-0.1c0,0,0,0-0.1,0
		c0,0-0.1,0-0.1,0C25,2,25,2,25,2c0,0-0.1,0-0.1,0c0,0,0,0,0,0c0,0,0,0,0-0.1c0.1,0,0.1-0.1,0.2-0.1s0.2-0.1,0.3-0.1
		s0.2-0.1,0.2-0.1c0.1,0,0.1,0,0.1,0c0.1,0,0.1,0,0.1,0.1c0,0,0,0,0,0.1s0,0,0,0.1L25.6,3.4z"/>
	<path class="st0" d="M28.4,2C28.4,2,28.4,2,28.4,2c0-0.1-0.1-0.1-0.1,0c0,0-0.1,0-0.1,0c0,0-0.1,0-0.1,0s-0.1,0-0.1,0
		c0,0,0,0-0.1,0c0,0,0,0,0-0.1c0.1,0,0.1-0.1,0.2-0.1c0.1,0,0.2-0.1,0.3-0.1s0.2-0.1,0.2-0.1c0.1,0,0.1,0,0.1,0s0,0,0.1,0
		c0,0,0,0,0,0.1s0,0.1,0,0.1l-0.2,0.8h0C29,2.3,29.2,2,29.4,1.9c0.2-0.2,0.4-0.2,0.6-0.2c0.1,0,0.2,0,0.2,0.1c0.1,0,0.1,0.1,0.2,0.2
		c0.1,0.1,0.1,0.1,0.1,0.2c0,0.1,0,0.2,0,0.2c0,0.3-0.1,0.6-0.2,0.8S30,3.6,29.9,3.8c-0.2,0.2-0.3,0.3-0.5,0.4
		c-0.2,0.1-0.4,0.1-0.5,0.1c0,0-0.1,0-0.2,0s-0.1,0-0.2,0l-0.1,0.4c0,0.2-0.1,0.4-0.1,0.5c0,0.1,0,0.1,0.1,0.1c0,0,0.1,0,0.1,0
		c0.1,0,0.1,0,0.2,0s0,0,0,0c0,0,0,0,0,0.1c-0.2,0-0.3,0.1-0.5,0.1c-0.1,0-0.3,0.1-0.4,0.2c0,0-0.1,0-0.1-0.1c0,0,0,0,0-0.1
		s0,0,0-0.1L28.4,2C28.4,2.1,28.4,2.1,28.4,2L28.4,2z M28.5,3.9c0,0,0.1,0,0.2,0.1c0.1,0,0.1,0,0.2,0c0.2,0,0.3,0,0.4-0.1
		s0.2-0.2,0.3-0.3s0.2-0.3,0.2-0.5c0-0.2,0.1-0.4,0.1-0.6c0-0.2,0-0.3-0.1-0.4c0-0.1-0.1-0.1-0.2-0.1c-0.1,0-0.1,0-0.2,0.1
		c-0.1,0.1-0.2,0.2-0.2,0.3c-0.1,0.1-0.2,0.2-0.2,0.4c-0.1,0.1-0.1,0.3-0.2,0.4c-0.1,0.1-0.1,0.3-0.1,0.4
		C28.5,3.7,28.5,3.8,28.5,3.9z"/>
	<path class="st0" d="M33.3,1.6c0.1,0,0.3,0,0.4,0.1s0.2,0.1,0.3,0.2C34,1.9,34,2,34.1,2.1c0,0.1,0,0.2,0,0.4c0,0.3,0,0.5-0.1,0.7
		c-0.1,0.2-0.2,0.4-0.3,0.5c-0.1,0.1-0.3,0.2-0.5,0.3c-0.2,0.1-0.3,0.1-0.5,0.1c-0.1,0-0.2,0-0.3-0.1c-0.1,0-0.2-0.1-0.2-0.2
		c-0.1-0.1-0.1-0.2-0.1-0.3c0-0.1,0-0.2,0-0.4c0-0.2,0-0.5,0.1-0.7c0.1-0.2,0.2-0.4,0.3-0.6s0.3-0.3,0.4-0.3
		C33,1.6,33.1,1.6,33.3,1.6z M32.8,4c0.1,0,0.2,0,0.3-0.1c0.1-0.1,0.2-0.2,0.2-0.3c0.1-0.1,0.1-0.3,0.2-0.4s0.1-0.3,0.1-0.6
		c0-0.2,0-0.4-0.1-0.6c-0.1-0.1-0.2-0.2-0.3-0.2s-0.2,0-0.3,0.1c-0.1,0.1-0.2,0.2-0.2,0.3c-0.1,0.1-0.1,0.3-0.2,0.4
		c0,0.2-0.1,0.3-0.1,0.5c0,0.2,0,0.4,0.1,0.6S32.7,4,32.8,4z"/>
	<path class="st0" d="M35,1.8h-0.4c0-0.1,0.1-0.2,0.1-0.2h0.4l0.1-0.5c0-0.2,0.1-0.3,0.2-0.4c0.1-0.1,0.2-0.2,0.3-0.3
		c0.1-0.1,0.2-0.2,0.3-0.2C36.1,0,36.2,0,36.3,0c0.1,0,0.2,0,0.3,0.1c0,0.1-0.1,0.1-0.1,0.2c0,0.1,0,0.1-0.1,0.2l-0.1,0
		c0,0-0.1-0.1-0.1-0.1c0,0-0.1-0.1-0.2-0.1s-0.1,0-0.1,0c0,0-0.1,0.1-0.1,0.2c0,0.1-0.1,0.2-0.1,0.3s-0.1,0.3-0.1,0.6l0,0.2h0.6
		c0,0.1,0,0.2-0.1,0.3c-0.1,0-0.2,0-0.3,0c-0.1,0-0.2,0-0.3,0l-0.3,1.7c0,0.3-0.1,0.6-0.2,0.8c-0.1,0.2-0.1,0.4-0.2,0.6
		c-0.1,0.2-0.2,0.3-0.3,0.4s-0.2,0.2-0.3,0.3c0,0-0.1,0-0.1,0.1c0,0-0.1,0-0.1,0c-0.1,0-0.1,0-0.2,0c0-0.1,0-0.1,0.1-0.2
		c0-0.1,0-0.2,0-0.2l0.1,0c0,0.1,0.1,0.1,0.1,0.1c0.1,0,0.1,0.1,0.2,0.1c0.1,0,0.2-0.1,0.3-0.3c0.1-0.2,0.2-0.6,0.2-1L35,1.8z"/>
	<path class="st0" d="M38.7,1.8c-0.1,0-0.2,0-0.3,0.1c-0.1,0.1-0.2,0.2-0.2,0.3C38,2.3,38,2.5,37.9,2.7c-0.1,0.2-0.1,0.3-0.1,0.6
		c0,0.1,0,0.2,0,0.3c0,0.1,0,0.2,0.1,0.2c0.1,0,0.1,0.1,0.2,0.1c0.1,0,0.2,0.1,0.3,0.1c0.1,0,0.2,0,0.3-0.1c0.1,0,0.2-0.1,0.3-0.2
		c0,0,0,0,0,0h0c0,0,0.1,0,0.1,0s0,0.1,0,0.1c-0.1,0-0.1,0.1-0.2,0.2C39,4,38.9,4,38.8,4c-0.1,0-0.2,0.1-0.3,0.1c-0.1,0-0.2,0-0.3,0
		c-0.1,0-0.3,0-0.4-0.1C37.8,4,37.7,4,37.6,3.9c-0.1-0.1-0.1-0.2-0.1-0.3c0-0.1,0-0.2,0-0.3c0-0.2,0-0.4,0.1-0.6
		c0.1-0.2,0.2-0.4,0.3-0.6c0.1-0.2,0.3-0.3,0.4-0.4c0.2-0.1,0.3-0.1,0.5-0.1c0.2,0,0.5,0.1,0.7,0.2c0,0.1,0,0.1-0.1,0.2
		c0,0.1,0,0.2,0,0.3h-0.1c-0.1,0-0.1,0-0.1-0.1c0-0.1-0.1-0.2-0.2-0.3C38.9,1.8,38.8,1.8,38.7,1.8z"/>
	<path class="st0" d="M40.8,1.6c0.1,0,0.3,0,0.4,0.1s0.2,0.1,0.3,0.2c0.1,0.1,0.1,0.2,0.1,0.3c0,0.1,0,0.2,0,0.4
		c0,0.3,0,0.5-0.1,0.7c-0.1,0.2-0.2,0.4-0.3,0.5C41,3.9,40.9,4,40.7,4.1c-0.2,0.1-0.3,0.1-0.5,0.1c-0.1,0-0.2,0-0.3-0.1
		c-0.1,0-0.2-0.1-0.2-0.2s-0.1-0.2-0.1-0.3c0-0.1,0-0.2,0-0.4c0-0.2,0-0.5,0.1-0.7c0.1-0.2,0.2-0.4,0.3-0.6s0.3-0.3,0.4-0.3
		C40.5,1.6,40.7,1.6,40.8,1.6z M40.4,4c0.1,0,0.2,0,0.3-0.1c0.1-0.1,0.2-0.2,0.2-0.3c0.1-0.1,0.1-0.3,0.2-0.4c0-0.2,0.1-0.3,0.1-0.6
		c0-0.2,0-0.4-0.1-0.6c-0.1-0.1-0.2-0.2-0.3-0.2s-0.2,0-0.3,0.1c-0.1,0.1-0.2,0.2-0.2,0.3S40.1,2.5,40,2.7c0,0.2-0.1,0.3-0.1,0.5
		c0,0.2,0,0.4,0.1,0.6C40.1,3.9,40.2,4,40.4,4z"/>
	<path class="st0" d="M43.9,2.4c0-0.1,0-0.2,0-0.3c0-0.1,0-0.2-0.1-0.2c-0.1,0-0.1,0-0.2,0.1c-0.1,0.1-0.2,0.1-0.2,0.2
		c-0.1,0.1-0.2,0.2-0.3,0.3c-0.1,0.1-0.2,0.3-0.2,0.4c0,0.1-0.1,0.1-0.1,0.2c0,0.1-0.1,0.2-0.1,0.2c0,0.1,0,0.2-0.1,0.2
		c0,0.1,0,0.2,0,0.2s0,0.1,0,0.2c-0.1,0-0.3,0-0.4,0.1c0,0,0,0,0-0.1v0c0,0,0,0,0-0.1c0.1-0.4,0.1-0.8,0.2-1.1
		c0-0.3,0.1-0.4,0.1-0.6s0-0.2,0-0.3s0-0.1,0-0.1c0,0,0-0.1,0-0.1c0,0,0,0-0.1,0c0,0-0.1,0-0.1,0c0,0-0.1,0-0.1,0c0,0-0.1,0-0.1,0
		c0,0,0,0,0,0s0,0,0-0.1c0.1,0,0.1-0.1,0.2-0.1c0.1,0,0.2-0.1,0.3-0.1s0.2-0.1,0.2-0.1c0.1,0,0.1,0,0.1,0s0,0,0.1,0c0,0,0,0,0,0.1v0
		c0,0,0,0,0,0.1l-0.2,1h0c0.1-0.2,0.2-0.3,0.3-0.5c0.1-0.1,0.2-0.3,0.3-0.4c0.1-0.1,0.2-0.2,0.3-0.2c0.1-0.1,0.2-0.1,0.3-0.1
		c0.1,0,0.2,0,0.2,0.1c0.1,0.1,0.1,0.1,0.1,0.3c0,0,0,0.1,0,0.2c0,0.1,0,0.1,0,0.2l-0.1,0.5h0c0.1-0.2,0.2-0.3,0.3-0.5
		c0.1-0.1,0.2-0.3,0.3-0.4c0.1-0.1,0.2-0.2,0.3-0.2c0.1-0.1,0.2-0.1,0.3-0.1c0.1,0,0.2,0,0.2,0.1c0.1,0.1,0.1,0.1,0.1,0.3
		c0,0.1,0,0.1,0,0.2c0,0.1,0,0.1,0,0.2l-0.3,1.4c0,0,0,0,0,0.1s0,0,0,0c0,0,0,0.1,0.1,0.1c0,0,0.1,0,0.1,0c0,0,0.1,0,0.1,0
		s0.1,0,0.1,0c0,0,0,0,0.1,0c0,0,0.1,0,0.1,0.1c-0.1,0-0.1,0.1-0.2,0.1c-0.1,0-0.1,0.1-0.2,0.1c-0.1,0-0.1,0.1-0.2,0.1
		c-0.1,0-0.1,0-0.1,0c0,0-0.1,0-0.1,0C45,4.1,45,4.1,45,4c0,0,0,0,0-0.1c0,0,0,0,0-0.1l0.3-1.6c0-0.1,0-0.2,0-0.3
		c0-0.1,0-0.2-0.1-0.2c-0.1,0-0.1,0-0.2,0.1c-0.1,0.1-0.2,0.1-0.2,0.2c-0.1,0.1-0.2,0.2-0.3,0.3c-0.1,0.1-0.2,0.3-0.2,0.4
		c0,0.1-0.1,0.1-0.1,0.2c0,0.1-0.1,0.2-0.1,0.2c0,0.1,0,0.2-0.1,0.2c0,0.1,0,0.2,0,0.2s0,0.1,0,0.2c-0.1,0-0.3,0-0.4,0.1
		c0,0,0,0,0-0.1v0c0,0,0,0,0-0.1L43.9,2.4z"/>
	<path class="st0" d="M46.9,2C46.9,2,46.9,2,46.9,2c0-0.1-0.1-0.1-0.1,0s-0.1,0-0.1,0s-0.1,0-0.1,0c0,0-0.1,0-0.1,0c0,0,0,0-0.1,0
		c0,0,0,0,0-0.1c0.1,0,0.1-0.1,0.2-0.1c0.1,0,0.2-0.1,0.3-0.1c0.1,0,0.2-0.1,0.2-0.1c0.1,0,0.1,0,0.1,0c0,0,0,0,0.1,0c0,0,0,0,0,0.1
		s0,0.1,0,0.1l-0.2,0.8h0c0.2-0.3,0.4-0.6,0.6-0.8c0.2-0.2,0.4-0.2,0.6-0.2c0.1,0,0.2,0,0.2,0.1s0.1,0.1,0.2,0.2s0.1,0.1,0.1,0.2
		c0,0.1,0,0.2,0,0.2c0,0.3-0.1,0.6-0.2,0.8c-0.1,0.2-0.2,0.4-0.4,0.6S48,4.1,47.8,4.1c-0.2,0.1-0.4,0.1-0.5,0.1c0,0-0.1,0-0.2,0
		c-0.1,0-0.1,0-0.2,0l-0.1,0.5c0,0.2-0.1,0.4-0.1,0.5c0,0.1,0,0.1,0.1,0.1c0,0,0.1,0,0.1,0c0.1,0,0.1,0,0.2,0c0,0,0,0,0,0
		c0,0,0,0,0,0.1c-0.2,0-0.3,0.1-0.5,0.1c-0.1,0-0.3,0.1-0.4,0.2c0,0-0.1,0-0.1-0.1c0,0,0,0,0-0.1c0,0,0,0,0-0.1l0.7-3.3
		C46.8,2.1,46.8,2.1,46.9,2C46.9,2,46.9,2,46.9,2z M47,3.9c0,0,0.1,0,0.2,0.1c0.1,0,0.1,0,0.2,0c0.2,0,0.3,0,0.4-0.1
		s0.2-0.2,0.3-0.3c0.1-0.1,0.2-0.3,0.2-0.5s0.1-0.4,0.1-0.6c0-0.2,0-0.3-0.1-0.4c0-0.1-0.1-0.1-0.2-0.1C48,1.9,48,2,47.8,2
		c-0.1,0.1-0.2,0.2-0.2,0.3s-0.2,0.2-0.2,0.4c-0.1,0.1-0.1,0.3-0.2,0.4c-0.1,0.1-0.1,0.3-0.1,0.4C47,3.7,47,3.8,47,3.9z"/>
	<path class="st0" d="M50.8,3.2L50.8,3.2c-0.1,0.2-0.2,0.3-0.3,0.5c-0.1,0.1-0.2,0.2-0.3,0.3C50,4,49.9,4.1,49.8,4.1
		c-0.1,0-0.2,0.1-0.3,0.1c-0.1,0-0.1,0-0.2,0c-0.1,0-0.1,0-0.1-0.1c0-0.1-0.1-0.1-0.1-0.2s0-0.2,0-0.3c0-0.3,0.1-0.6,0.2-0.9
		c0.1-0.2,0.2-0.5,0.4-0.7c0.2-0.2,0.3-0.3,0.5-0.4c0.2-0.1,0.3-0.1,0.5-0.1c0.1,0,0.2,0,0.3,0c0.1,0,0.2,0,0.4,0.1l-0.4,2
		c0,0,0,0.1,0,0.1s0,0.1,0.1,0.1c0,0,0.1,0,0.1,0c0,0,0.1,0,0.1,0c0,0,0.1,0,0.1,0c0,0,0,0,0.1,0c0,0,0.1,0,0.1,0.1
		c-0.1,0-0.1,0.1-0.2,0.1C51.2,4,51.1,4,51.1,4c-0.1,0-0.1,0.1-0.2,0.1c-0.1,0-0.1,0-0.1,0c0,0-0.1,0-0.1,0c0,0-0.1-0.1-0.1-0.1
		c0,0,0,0,0-0.1c0,0,0-0.1,0-0.1L50.8,3.2z M51,1.9c0,0-0.1,0-0.2,0s-0.1,0-0.2,0c-0.2,0-0.3,0-0.4,0.1c-0.1,0.1-0.2,0.2-0.3,0.3
		c-0.1,0.1-0.2,0.3-0.2,0.5c0,0.2-0.1,0.4-0.1,0.7c0,0.1,0,0.2,0.1,0.3c0,0.1,0.1,0.1,0.1,0.1c0.1,0,0.2,0,0.2-0.1
		c0.1-0.1,0.2-0.2,0.3-0.3c0.1-0.1,0.2-0.2,0.2-0.4s0.1-0.3,0.2-0.4c0.1-0.1,0.1-0.3,0.1-0.4C50.9,2.1,51,2,51,1.9z"/>
	<path class="st0" d="M53.9,2.4c0-0.1,0-0.2,0-0.3c0-0.1-0.1-0.2-0.2-0.2c-0.1,0-0.1,0-0.2,0.1c-0.1,0.1-0.2,0.1-0.3,0.2
		c-0.1,0.1-0.2,0.2-0.3,0.3c-0.1,0.1-0.2,0.3-0.2,0.4c0,0.1-0.1,0.1-0.1,0.2c0,0.1-0.1,0.2-0.1,0.2c0,0.1,0,0.2-0.1,0.2
		c0,0.1,0,0.2,0,0.2s0,0.1,0,0.2c-0.1,0-0.3,0-0.4,0.1c0,0,0,0,0-0.1v0c0,0,0,0,0-0.1c0.1-0.4,0.2-0.8,0.2-1.1
		c0-0.2,0.1-0.4,0.1-0.6s0-0.2,0-0.3c0,0,0-0.1,0-0.1c0,0,0-0.1,0-0.1c0,0,0,0-0.1,0c0,0-0.1,0-0.1,0s-0.1,0-0.1,0s-0.1,0-0.1,0
		c0,0,0,0,0,0s0,0,0-0.1c0.1,0,0.1-0.1,0.2-0.1c0.1,0,0.2-0.1,0.3-0.1c0.1,0,0.2-0.1,0.2-0.1c0.1,0,0.1,0,0.1,0c0,0,0,0,0.1,0
		c0,0,0,0,0,0.1v0c0,0,0,0,0,0.1l-0.2,1h0c0.1-0.2,0.2-0.3,0.3-0.5c0.1-0.1,0.2-0.3,0.3-0.4c0.1-0.1,0.2-0.2,0.3-0.2
		c0.1,0,0.2-0.1,0.3-0.1c0.1,0,0.2,0,0.3,0.1c0.1,0.1,0.1,0.1,0.1,0.3c0,0,0,0.1,0,0.2c0,0.1,0,0.1,0,0.2l-0.3,1.4
		c0,0.1,0,0.1,0,0.1c0,0,0,0.1,0.1,0.1c0,0,0,0,0.1,0c0,0,0.1,0,0.1,0c0,0,0.1,0,0.1,0c0,0,0,0,0.1,0c0,0,0.1,0,0.1,0.1
		c-0.1,0-0.1,0.1-0.2,0.1c-0.1,0-0.1,0.1-0.2,0.1c-0.1,0-0.1,0.1-0.2,0.1c-0.1,0-0.1,0-0.1,0c0,0-0.1,0-0.1,0c0,0-0.1-0.1-0.1-0.1
		c0,0,0,0,0-0.1s0,0,0-0.1L53.9,2.4z"/>
	<path class="st0" d="M55.5,3.7C55.5,3.7,55.5,3.7,55.5,3.7c0,0.1,0,0.1,0,0.1c0,0,0,0.1,0.1,0.1c0,0,0.1,0,0.1,0c0,0,0.1,0,0.1,0
		c0,0,0.1,0,0.1,0c0,0,0,0,0.1,0c0,0,0.1,0,0.1,0.1c-0.1,0-0.1,0.1-0.2,0.1c-0.1,0-0.1,0.1-0.2,0.1c-0.1,0-0.1,0.1-0.2,0.1
		c-0.1,0-0.1,0-0.1,0c0,0-0.1,0-0.1,0C55,4.1,55,4.1,55,4c0,0,0,0,0-0.1s0,0,0-0.1c0.1-0.4,0.1-0.8,0.2-1c0-0.2,0.1-0.4,0.1-0.6
		c0-0.1,0-0.2,0-0.3c0,0,0-0.1,0-0.1c0,0,0-0.1-0.1-0.1c0,0,0,0-0.1,0c0,0-0.1,0-0.1,0S55,2,55,2c0,0-0.1,0-0.1,0c0,0,0,0-0.1,0
		c0,0,0,0,0-0.1c0.1,0,0.1-0.1,0.2-0.1c0.1-0.1,0.2-0.1,0.3-0.1c0.1,0,0.2-0.1,0.2-0.1c0.1,0,0.1,0,0.1,0c0.1,0,0.1,0,0.1,0.1
		c0,0,0,0.1,0,0.1L55.5,3.7z M55.8,0.9c-0.1,0-0.1,0-0.2-0.1c0,0-0.1-0.1-0.1-0.2c0-0.1,0-0.2,0.1-0.3c0.1-0.1,0.2-0.1,0.3-0.1
		c0.1,0,0.1,0,0.2,0.1c0,0,0,0.1,0,0.2s0,0.2-0.1,0.3C55.9,0.9,55.9,0.9,55.8,0.9z"/>
	<path class="st0" d="M56.8,3c0,0,0,0.1,0,0.1s0,0.1,0,0.1c0,0.1,0,0.2,0,0.3c0,0.1,0,0.2,0.1,0.2c0,0.1,0.1,0.1,0.2,0.2
		c0.1,0,0.2,0.1,0.3,0.1c0.1,0,0.2,0,0.3-0.1c0.1,0,0.2-0.1,0.3-0.2c0,0,0.1,0,0.1,0c0,0,0.1,0,0.1,0s0,0.1,0,0.1
		C58.1,3.9,58,3.9,58,4c-0.1,0.1-0.1,0.1-0.2,0.1c-0.1,0-0.2,0.1-0.3,0.1c-0.1,0-0.2,0-0.3,0c-0.2,0-0.3,0-0.4-0.1
		c-0.1-0.1-0.2-0.1-0.2-0.2s-0.1-0.2-0.1-0.3c0-0.1,0-0.2,0-0.3c0-0.2,0-0.4,0.1-0.6c0.1-0.2,0.2-0.4,0.3-0.6
		c0.1-0.2,0.3-0.3,0.4-0.4c0.2-0.1,0.3-0.1,0.5-0.1c0.1,0,0.2,0,0.2,0s0.1,0.1,0.2,0.1c0.1,0,0.1,0.1,0.1,0.2c0,0.1,0.1,0.1,0.1,0.2
		c0,0.1,0,0.3-0.1,0.4c-0.1,0.1-0.2,0.2-0.3,0.2c-0.1,0.1-0.3,0.1-0.5,0.2C57.2,2.9,57,3,56.8,3z M56.8,2.8c0.4,0,0.6-0.1,0.8-0.2
		c0.2-0.1,0.2-0.3,0.2-0.4c0-0.1,0-0.2-0.1-0.2c-0.1-0.1-0.1-0.1-0.2-0.1c-0.1,0-0.2,0-0.3,0.1c-0.1,0.1-0.1,0.1-0.2,0.2
		C57,2.2,57,2.3,56.9,2.4C56.9,2.5,56.9,2.7,56.8,2.8z"/>
	<path class="st0" d="M60.1,2.2C60.1,2.2,60,2.2,60.1,2.2C60,2.1,60,2.1,60,2.1c0-0.1-0.1-0.2-0.1-0.3c-0.1-0.1-0.2-0.1-0.3-0.1
		c-0.1,0-0.2,0-0.3,0.1c-0.1,0.1-0.1,0.1-0.1,0.3c0,0.1,0,0.2,0.1,0.2s0.1,0.2,0.2,0.2c0.1,0.1,0.1,0.1,0.2,0.2
		c0.1,0.1,0.1,0.1,0.2,0.2C60,3.1,60,3.1,60.1,3.2c0,0.1,0.1,0.1,0.1,0.2c0,0.1,0,0.2-0.1,0.3C60,3.9,60,3.9,59.9,4
		c-0.1,0.1-0.2,0.1-0.3,0.2c-0.1,0-0.2,0.1-0.4,0.1c-0.1,0-0.3,0-0.4,0c-0.1,0-0.2-0.1-0.4-0.1c0-0.1,0.1-0.2,0.1-0.3
		c0-0.1,0-0.2,0-0.3h0.1c0.1,0,0.1,0,0.1,0.1c0,0.2,0,0.3,0.1,0.4s0.2,0.1,0.3,0.1c0.1,0,0.3,0,0.4-0.1c0.1-0.1,0.1-0.2,0.1-0.3
		c0-0.1,0-0.1,0-0.2c0-0.1-0.1-0.1-0.1-0.2c0,0-0.1-0.1-0.2-0.1c-0.1,0-0.1-0.1-0.2-0.1c-0.1-0.1-0.2-0.2-0.3-0.3
		c-0.1-0.1-0.1-0.2-0.1-0.4c0-0.1,0-0.2,0.1-0.3c0-0.1,0.1-0.2,0.2-0.2c0.1-0.1,0.2-0.1,0.3-0.1c0.1,0,0.2-0.1,0.3-0.1
		c0.2,0,0.4,0.1,0.7,0.2c0,0.1,0,0.1,0,0.2c0,0.1,0,0.2,0,0.3L60.1,2.2z"/>
</g>
</svg>
