<?xml version="1.0" encoding="utf-8"?>
<!-- Generator: Adobe Illustrator 21.0.2, SVG Export Plug-In . SVG Version: 6.00 Build 0)  -->
<svg version="1.1" id="Layer_1" xmlns="http://www.w3.org/2000/svg" xmlns:xlink="http://www.w3.org/1999/xlink" x="0px" y="0px"
	 viewBox="0 0 78 55" style="enable-background:new 0 0 78 55;" xml:space="preserve">
<style type="text/css">
	.st0{fill:#003F6F;}
</style>
<title>formula_smaku</title>
<g id="Layer_2">
	<g id="Layer_1-2">
		<g id="WVtEYI.tif">
			<path class="st0" d="M0,25.7v-2.2c0.1-0.2,0.1-0.5,0.1-0.7c0.4-2.8,1.4-5.4,2.9-7.7c2.9-4.4,7-7.4,11.6-9.7
				c7-3.5,14.5-5.1,22.2-5.3c4.4-0.2,8.9,0.2,13.2,1c5.4,1.1,10.6,2.8,15.3,5.7c5.8,3.6,10.3,8.2,12,15.2c1.2,5.2,0.5,9.9-2.5,14.3
				c-0.8,1.1-1.6,2.3-2.4,3.4c-0.1,0.1-0.3,0.3-0.2,0.4c0.1,0.2,0.3,0.1,0.5,0.1c0.7,0,1.3,0,2,0.1c0.7,0.1,1,0.3,0.9,1.1
				c-0.1,1-0.4,2-0.7,3c-0.6,2-0.4,3.9,0.3,5.8c0.4,1.1,0.3,1.3-0.9,1.5c-0.2,0-0.4,0-0.6,0c-2,0.1-3.8-0.3-5.7-0.8
				c-1.7-0.4-1.7-0.4-1.7,1.3c0,1.2-0.3,1.7-1.5,2.1c-2,0.6-4.1,0.8-6.2,0.5c-2.9-0.4-5.6-1.4-8.4-2.2c-0.4-0.1-0.8-0.2-1.3-0.1
				c-1.9,0.3-3.8,0.6-5.8,0.7c-4.8,0.4-9.7,0.1-14.5-0.9c-0.3-0.1-0.7,0-1,0.1c-1.9,0.6-3.9,1.1-5.8,1.7s-4.2,1-6.4,0.8
				c-1-0.1-2.1-0.3-3.1-0.7s-1.2-0.8-1.2-1.9c0-0.4,0-0.8,0-1.3c0-0.4-0.1-0.7-0.6-0.5c-1.7,0.6-3.4,0.8-5.2,1
				c-0.8,0.1-1.7,0.1-2.5,0s-1-0.4-0.7-1.3c0.7-1.7,0.9-3.5,0.5-5.3c-0.3-1.2-0.6-2.4-0.7-3.6c-0.1-0.8,0.1-1,0.9-1.1
				c0.8-0.1,1.9-0.1,2.8-0.1c0.2,0,0.4,0.1,0.5-0.1c0.1-0.2-0.1-0.3-0.2-0.4c-0.7-0.9-1.3-1.9-2-2.8c-1-1.3-1.8-2.8-2.4-4.3
				C1,30.3,0.3,28.1,0,25.7z M18.6,43.2c1-0.3,1.8-0.2,2.7-0.3c0.4-0.1,0.5-0.2,0.2-0.6c-0.3-0.3-0.5-0.6-0.4-1
				c0.1-0.5,0.3-1,0.6-1.5c0.2-0.3,0.4-0.2,0.6-0.1c0.8,0.6,1.1,1.2,0.8,2.1c-0.1,0.4-0.1,0.5,0.3,0.4l0.9-0.3
				c0.2-0.1,0.5,0,0.6-0.3c0-0.3-0.3-0.4-0.4-0.5c-1.2-0.9-2.3-1.9-3.3-3c-0.1-0.1-0.3-0.3-0.2-0.5c0.1-0.1,0.2-0.2,0.3-0.2
				c0.7,0.1,1.4-0.2,2.1-0.3c0.7-0.1,1.6,0.1,2.3,0.7c0.4,0.3,0.4,0.5-0.1,0.7c-0.8,0.3-1.6,0.4-2.6,0c0.4,0.7,0.9,0.7,1.4,0.5
				c1.1-0.3,2-0.1,2.9,0.5c0.1,0.1,0.3,0.1,0.3,0.3c0,0.2-0.2,0.2-0.4,0.3c-0.7,0.3-1.4,0.4-2.1,0.4c0.1,0.3,0.3,0.3,0.5,0.3
				c1-0.3,2-0.2,3-0.2c0.7,0,0.7-0.2,0.6-0.8c0-0.1-0.1-0.2-0.1-0.3c0-0.5,0.8-1.8,1.2-1.8s1.1,1,1,1.8c-0.1,0.6,0.2,0.4,0.5,0.4
				c1.9-0.4,3.8-0.7,5.7-0.8c2.9-0.1,5.7,0.1,8.5,0.8c0.4,0.1,0.7,0.1,0.6-0.5s0.3-1.2,0.7-1.6c0.1-0.1,0.3-0.1,0.4-0.1
				c0.4,0.3,1.1,1.5,1,2c-0.1,0.9,0,1,0.9,0.9c0.9-0.1,1.6-0.1,2.5,0.1c0.2,0.1,0.5,0.1,0.6-0.3c-0.7,0-1.3-0.2-2-0.4
				c-0.2-0.1-0.4-0.1-0.4-0.3c0-0.2,0.2-0.3,0.4-0.4c0.9-0.5,1.8-0.7,2.8-0.4c0.6,0.2,1.2,0.1,1.6-0.7c-1,0.6-1.9,0.4-2.8,0.1
				c-0.4-0.1-0.5-0.3-0.1-0.6c0.7-0.6,1.5-0.9,2.4-0.7c0.7,0.1,1.3,0.3,2.1,0.3c0.4,0,0.5,0.2,0.2,0.5l-0.3,0.3
				c-1.1,1-2.1,2.1-3.3,3c-0.1,0.1-0.4,0.2-0.3,0.4c0.1,0.2,0.2,0.2,0.4,0.2l1,0.3c0.2,0,0.3,0.2,0.5,0.1c0.2-0.1,0-0.3-0.1-0.5
				c-0.2-0.8,0.1-1.7,0.9-2.1c0.1-0.1,0.3-0.1,0.4,0c0.7,0.5,0.9,2,0.3,2.6c-0.3,0.3-0.2,0.4,0.2,0.5c0.8,0.1,1.7,0,2.6,0.3
				c-0.1-0.3-0.3-0.4-0.5-0.5c-0.2-0.1-0.4-0.1-0.4-0.4c0-0.2,0.3-0.3,0.4-0.3c0.5-0.1,0.7-0.4,0.7-1s-0.1-0.9-0.3-1.3
				c-0.2-0.4-0.3-0.9-0.2-1.4c0-0.4,0.5-0.8,0.2-1.1c-0.3-0.3-0.8,0.1-1.2,0.1c-0.2,0-0.4,0.1-0.5,0c-0.1-0.2,0.1-0.3,0.2-0.4
				c1-1.1,2-2,3.4-2.4c0.2-0.1,0.5-0.1,0.6-0.5l-1.9,0.4c-0.2,0.1-0.5,0.2-0.6,0c-0.1-0.2,0.1-0.4,0.2-0.6c0.7-1,1.6-1.8,2.7-2.2
				c0.2-0.1,0.5-0.1,0.5-0.5c-0.6,0.2-1.1,0.3-1.6,0.5c-0.2,0.1-0.5,0.2-0.7,0s0-0.4,0.1-0.7c0.4-0.9,1.1-1.6,2-2
				c0.2-0.1,0.5-0.1,0.6-0.5c-0.6,0-1.1,0.3-1.6,0.4c-0.5,0.1-0.7,0.1-0.5-0.5c0.3-1,0.9-1.9,1.9-2.3c0.2-0.1,0.3-0.2,0.4-0.3
				c0.1-0.1,0.2-0.2,0.1-0.3c-0.1-0.1-0.2,0-0.3,0c-0.5,0.3-1,0.4-1.5,0.6c-0.5,0.2-0.6,0-0.6-0.5c0.1-1.2,0.7-2,1.8-2.4
				c0.5-0.2,0.8-0.4,0.5-1c-0.6,0.7-1.3,1-2.1,1.2c-0.4,0.1-0.6-0.1-0.7-0.5c-0.1-1,0.2-1.8,1.1-2.3c0.4-0.2,0.8-0.3,1.2-0.5
				s0.5-0.4,0.1-0.5c-0.3-0.1-0.6-0.6-0.8-1c-1.5-3-3.5-5.6-6.3-7.5c-1.7-1.1-3.4-2.1-5.2-3c-0.2-0.1-0.5-0.1-0.6-0.6
				c5.5,2.5,10.3,5.4,12.8,11.3c0.3-0.7-0.2-1.2,0.2-1.8c0.3,1.3,0.4,2.5,0.6,3.6c0.1,0.8-0.2,1.7,0.6,2.4c0.1,0.1,0,0.3,0,0.4
				c0,0.4-0.1,0.7-0.2,1.1c-0.1,0.3-0.2,0.7,0,1c0.1,0.1,0.2,0.1,0.3,0.1c0,0,0,0,0,0c0.3-0.2,0.2-0.6,0.2-0.9
				c0-2.2-0.5-4.2-0.9-6.3c0-0.2-0.2-0.4,0-0.6c0.3,0.3,0.3,0.6,0.3,1c0.5,2.6,0.8,5.2,0.9,7.9c0.1,1.6-0.1,3-1.3,4.2l0,0.1
				c-0.1,0.1-0.2,0.3-0.1,0.4c0.1,0.2,0.2,0.1,0.4,0.1c0.4,0,0.6-0.3,0.7-0.7c0.1-0.6,0.4-1.1,0.8-1.6c0.3-0.3,0.6-0.3,0.7,0.1
				c0.5,1.2,0.6,2.5,0.2,3.8c-0.1,0.4-0.4,0.8-0.9,0.8s-0.7-0.4-0.8-0.8c-0.1-0.4-0.2-0.7-0.3-1.1c-0.4,0.3-0.2,0.6-0.1,0.9
				c0.2,0.5,0.2,1,0.2,1.6c0,0.3,0,0.8-0.3,1c-0.3,0.2-0.4-0.4-0.7-0.5h-0.1c-0.1,0.2,0,0.4,0,0.6c0.1,0.6,0,1.2-0.2,1.7
				c0,0.1-0.1,0.3-0.3,0.4s-0.3-0.2-0.4-0.3s-0.3-0.7-0.7-1c0.1,0.6,0.4,1.1,0.4,1.6c-0.1,0.5,0.2,0.7,0.6,0.7c0.4,0,0.7,0.1,1,0.2
				c0.8,0.2,1.7,0.4,2.2,1.2c0.3,0.5,0.8,0.6,1.4,0.6c0.7,0,1.5,0,2.2,0c1.3,0.2,2.1-0.4,2.8-1.5c2.6-3.9,3.9-8.2,3.1-12.9
				c-0.7-4.1-2.7-7.4-5.5-10.3c-3.7-3.8-8.2-6.3-13.1-8.1c-7.7-2.8-15.6-3.6-23.7-2.7c-5.5,0.6-10.9,2-15.9,4.5
				c-4.2,2.1-8,4.9-10.9,8.8c-5,6.8-4.9,15.1,0.4,21.7c0.3,0.3,0.5,0.5,1,0.5c0.8,0,1.7,0,2.5,0c0.6,0,1.2-0.2,1.5-0.7
				c0.4-0.5,1.1-0.9,1.8-1.1c0.5-0.1,1-0.2,1.5-0.3c0.2,0,0.5,0,0.5-0.3c0-0.6,0.2-1.2,0.4-1.9c-0.4,0.3-0.5,0.6-0.7,0.9
				c-0.2,0.3-0.1,0.4-0.4,0.3c-0.2,0-0.2-0.3-0.3-0.4c-0.2-0.6-0.3-1.2-0.1-1.8c0-0.2,0.2-0.4,0-0.5c-0.2,0.1-0.2,0.2-0.3,0.4
				c-0.1,0.1-0.1,0.4-0.4,0.3s-0.2-0.2-0.2-0.4c-0.2-0.6-0.2-1.3,0-1.9c0.1-0.5,0.3-0.9,0-1.4c-0.1-0.2,0-0.4,0.2-0.3
				s0.5,0.2,0.6-0.2c0.1-0.3-0.2-0.4-0.3-0.6c-0.5-0.7-1.1-1.3-1.1-2.3c-0.1-3.3,0.3-6.7,1-10c0-0.2,0-0.4,0.3-0.5
				c0,0.3-0.1,0.4-0.1,0.6c-0.2,1.2-0.4,2.4-0.7,3.6c0,0.2-0.2,0.6,0.2,0.6s0.3-0.3,0.4-0.6c0.2-1.2,0.3-2.4,0.4-3.5
				c0.1-0.5,0.1-0.9,0.4-1.5c0.2,0.6-0.1,1.2,0,1.8c2.5-5.9,7.4-9,12.9-11.3c-1.2,0.8-2.5,1.5-3.7,2.1c-3.7,2.1-6.5,4.9-8.4,8.8
				c-0.1,0.3-0.3,0.5-0.4,0.8s-0.7,0.1-0.5,0.6c0.2,0.5,0.5,0.3,0.8,0.4l0.5,0.3c0.9,0.4,1.3,1.4,1.1,2.4c-0.1,0.4-0.2,0.5-0.6,0.4
				c-0.6-0.2-1.3-0.4-1.7-0.8c-0.1-0.1-0.2-0.3-0.4-0.2c-0.1,0.2-0.1,0.4,0,0.5c0,0,0,0,0.1,0c0.2,0.2,0.5,0.3,0.7,0.4
				c1,0.4,1.4,1.3,1.6,2.3c0.1,0.5-0.1,0.6-0.6,0.5c-0.5-0.1-1-0.3-1.5-0.5c-0.1,0-0.2-0.1-0.3,0c-0.1,0.1,0,0.3,0.1,0.3
				c0.2,0.1,0.3,0.2,0.5,0.2c1,0.5,1.6,1.3,1.8,2.4c0.1,0.4-0.1,0.6-0.5,0.5c-0.4-0.1-0.8-0.3-1.2-0.4c-0.2-0.1-0.4-0.3-0.5,0
				c-0.1,0.3,0.2,0.3,0.4,0.4c1,0.4,1.8,1.2,2.2,2.1c0.1,0.2,0.3,0.4,0.1,0.7c-0.2,0.2-0.4,0-0.6,0l-1.8-0.5
				c0.1,0.4,0.4,0.4,0.6,0.5c1,0.4,1.8,1,2.5,1.9c0.2,0.3,0.6,0.6,0.4,0.9c-0.2,0.3-0.6,0-1,0s-1-0.4-1.6-0.3
				c0.1,0.3,0.3,0.3,0.5,0.4c1.4,0.5,2.6,1.3,3.6,2.5c0.1,0.1,0.3,0.2,0.2,0.4c-0.1,0.2-0.3,0.1-0.4,0L19,37.1
				c-0.3-0.1-0.4,0.1-0.2,0.3c0.5,0.9,0.4,1.7-0.1,2.6c-0.2,0.5-0.2,1.1,0,1.7c0.2,0.3,0.9,0.2,0.8,0.7S18.9,42.7,18.6,43.2z M12,43
				c-0.1,0.3-0.1,0.6-0.1,0.8c0,2.7,0,5.4,0,8.1c0,1.4,0.2,1.6,1.5,2c2.7,0.8,5.4,0.6,8-0.2c3-0.8,6-1.7,9-2.5c3.8-1,7.6-1.4,11.5-1
				c3.3,0.3,6.4,1.2,9.5,2.1c2.7,0.8,5.4,1.7,8.2,2c1.7,0.2,3.4,0,5.1-0.5c1-0.3,1.2-0.6,1.2-1.7s0-1.8,0-2.7c0-2,0-4,0-5.9
				c0-0.3,0.1-0.6-0.5-0.4c-1.8,0.8-3.7,1-5.7,0.8c-3.1-0.3-5.9-1.3-8.9-2.2c-4-1.2-8.1-2.2-12.3-2.1c-3.7,0-7.2,0.8-10.8,1.8
				c-2.9,0.8-5.8,1.9-8.9,2.3C16.6,44.3,14.3,44,12,43L12,43z M30.2,51.9c3.4,1,15.6,1.1,17.7,0C43.9,50.3,34.3,50.3,30.2,51.9z
				 M3.6,40.6c-1.1,0.1-1.2,0.2-1,1.3c0.1,0.8,0.3,1.6,0.4,2.3c0.6,2.2,0.6,4.3-0.3,6.4c-0.2,0.5,0,0.7,0.4,0.7l0.5,0.1
				c0.6,0,0.6,0,0.4-0.5c0-0.1,0-0.3,0-0.3c0.3-0.3,0.7-0.6,0.3-1.1c0,0,0.1-0.2,0.1-0.3c0.4-0.2,0.1-0.4,0.2-0.6
				c0.1-0.6-0.1-1.1,0.1-1.6c0.1-0.3,0.2-0.4-0.1-0.6c-0.3-0.2,0.2-0.6,0.1-0.8c-0.1-0.2-0.5-0.4-0.4-0.8c0-0.1,0.1-0.1,0.1-0.2
				C4.3,44,4.1,43.5,4.2,43l-0.1-0.1c-0.4-0.3-0.2-0.5,0-0.9c0.2-0.3-0.6-0.4-0.4-0.9l0.1-0.1c0.1-0.1,0.4-0.2,0.2-0.4
				C3.9,40.4,3.7,40.6,3.6,40.6z M74.5,40.6c-0.2,0-0.4-0.1-0.5,0.1c-0.1,0.2,0.2,0.3,0.2,0.4c0.1,0.1,0.1,0.5-0.1,0.7
				C73.8,42,73.8,42,74,42.3c0.2,0.2-0.1,0.6-0.3,0.8c-0.2,0.3,0.5,0.6,0,0.9l-0.2,0.1c-0.2,0.1-0.2,0.2,0,0.4
				c0.4,0.4,0.1,0.6-0.2,0.9c-0.3,0.3,0.5,0.6,0,1l-0.1,0c-0.2,0.1-0.2,0.2-0.1,0.4c0.3,0.5-0.1,1.2,0.2,1.8l0,0.1
				c-0.5,0.5,0.2,0.6,0.3,0.8c0.1,0.2-0.6,0.6,0,1c0.3,0.1,0.5,0.4,0.2,0.7c-0.1,0.1-0.2,0.3,0,0.3c0.4,0.1,0.9,0.1,1.3-0.1
				c0.4-0.2,0.1-0.5,0-0.7c-0.9-2-1-4.3-0.3-6.4c0.2-0.7,0.4-1.5,0.5-2.2C75.5,40.7,75.5,40.7,74.5,40.6z M5.2,51.2
				c0.3,0.2,0.7,0.2,1,0C6.5,51,6,50.9,6.1,50.6c0-0.1,0-0.2,0-0.3c0-0.5,0.8-0.9,0.3-1.6c0,0,0.1-0.2,0.2-0.3
				c0.1-0.1,0.2-0.3,0-0.5c-0.2-0.2-0.1-0.3-0.1-0.5c0-0.5,0.5-1-0.1-1.5c0,0,0,0,0-0.1c0.4-0.4,0.1-0.6-0.1-0.9
				c-0.2-0.3-0.2-0.5-0.1-0.7c0.3-0.4,0.2-0.7-0.1-1C6,43.1,6,42.8,6.2,42.7c0.2-0.1,0.1-0.2,0-0.4c-0.5-0.4-0.5-0.9-0.1-1.3
				c0.1-0.1,0.2-0.2,0.1-0.3c-0.1-0.1-0.5-0.1-0.8-0.1c-0.3,0-0.4,0-0.5,0.2c-0.1,0.2,0.2,0.3,0.3,0.4c0.1,0.1,0.1,0.1,0.1,0.1
				c-0.2,0.5,0.1,0.9,0.1,1.4c0.1,0.4-0.1,0.6,0.2,0.9c0.1,0.1,0.1,0.2,0,0.3c-0.4,0.4,0,0.6,0.1,0.9c0.1,0.3,0.1,0.9,0.2,1.4
				c0.1,0.2-0.2,0.5,0.1,0.8c0.1,0.1,0.1,0.2,0,0.3c-0.2,0.3-0.1,0.6-0.1,0.8c0,0.5-0.3,1-0.1,1.5c0,0.1-0.2,0.2-0.3,0.2
				S5.3,50,5.5,50.1C6.1,50.6,5.5,50.9,5.2,51.2L5.2,51.2z M72.8,51.2c-0.4-0.3-0.9-0.5-0.3-1c0.1-0.1,0.1-0.2,0-0.2c0,0,0,0-0.1,0
				c-0.5-0.2-0.6-0.5-0.2-0.9C71.8,48.5,72,48,72,47.6s-0.3-0.6,0.1-0.9c0.1-0.1,0-0.2-0.1-0.3c-0.2-0.6,0.2-1.1,0.1-1.7
				c0,0,0.1-0.1,0.1-0.1c0.2-0.5,0.1-1,0.2-1.5s0-0.6,0.3-0.8c0.3-0.3-0.5-0.6-0.1-1l0.2-0.1c0.1-0.1,0.2-0.2,0.1-0.3
				c-0.1-0.1-0.2-0.1-0.3-0.2h-0.5c-0.2,0-0.3,0-0.4,0.2c-0.1,0.2,0.1,0.2,0.2,0.3c0.1,0.1,0.2,0.4,0.2,0.7
				c-0.1,0.5-0.7,0.9-0.2,1.4c0,0,0,0.1-0.1,0.2c-0.4,0.2-0.5,0.4-0.1,0.8c0.1,0.1,0,0.4,0,0.6C71.6,45,71,45.5,71.5,46
				c-0.7,0.5,0,1,0,1.5c0,0.2,0,0.5-0.2,0.6s-0.2,0.3,0,0.5c0.3,0.2,0.4,0.4,0.1,0.7c-0.3,0.2-0.2,0.3,0,0.4
				c0.4,0.3,0.6,0.8,0.4,1.3c-0.1,0.3-0.1,0.3,0.1,0.4S72.5,51.4,72.8,51.2L72.8,51.2L72.8,51.2z M62.6,38.6c-0.2-0.1-0.5-0.1-0.7,0
				c-0.1,0.1-0.5,0.6-0.9,0.1c-0.1-0.1-0.3,0-0.3,0.2c0,0.4-0.4,0.9-0.2,1.3c0.2,0.4,0.7,0.1,1.1,0.1c0.1,0,0.1,0,0.2,0
				c0.9,0,1.9,0,2.5,0.9c0.3,0.5,1.6,0.7,2.1,0.4c-0.5-0.6-0.5-0.6,0.1-1.1c-0.2-0.1-0.4-0.3-0.5-0.5c-0.4-0.4-0.7-0.5-1.2-0.2
				c-0.5,0.4-1.2,0.4-1.9,0.1c-0.3-0.1-0.8-0.1-0.9-0.5S62.4,38.9,62.6,38.6L62.6,38.6z M15.4,38.6c0.1,0.3,0.3,0.3,0.4,0.4
				c0.1,0.1,0.4,0.4,0.1,0.6c-0.9,0.5-1.8,0.8-2.7,0.1c-0.4-0.3-0.8-0.3-1,0.1s-1,0.4-0.2,0.9c0.1,0.1,0.1,0.3-0.1,0.5
				c-0.2,0.1-0.1,0.4,0.1,0.5c0.2,0.1,0.4,0,0.6,0c0.6-0.2,1-0.7,1.5-1c0.8-0.5,1.7-0.6,2.6-0.4c0.3,0.1,0.7,0.1,0.7-0.3
				c0-0.5-0.1-0.9-0.4-1.3c0,0-0.2,0-0.2,0.1c-0.3,0.3-0.5,0.2-0.7-0.1C15.9,38.5,15.7,38.5,15.4,38.6z M68.5,50.6
				c-0.4-0.6-0.6-1-0.3-1.6c0.1-0.3-0.2-0.8,0-1.3c0,0-0.2-0.1-0.2-0.2c-0.2-0.4-0.3-0.8,0.1-1.1c0.4-0.3,0.3-0.2,0-0.4
				c-0.3-0.2-0.3-0.5,0-0.6c0.3-0.2,0.2-0.2,0.1-0.4c-0.2-0.2-0.4-0.9,0-1.1c0.4-0.3,0.3-0.3,0-0.5c-0.1-0.1-0.1-0.2-0.1-0.3
				c0.5-0.4,0.1-0.8,0-1.3c-0.1-0.2,0-0.5,0.2-0.7c0.1-0.1,0.3-0.1,0.2-0.3c-0.1-0.2-0.3-0.1-0.4-0.1l-0.5,0c-0.1,0-0.3-0.1-0.3,0.1
				c-0.1,0.2,0.1,0.2,0.2,0.3c0.4,0.2,0.3,0.5,0,0.7c-0.3,0.2-0.3,0.2-0.1,0.3c0.2,0.1,0.4,0.5,0,0.8c-0.1,0-0.1,0.1-0.1,0.2
				c0,0,0,0.1,0.1,0.1c0.4,0.3,0.4,0.5,0,0.8c-0.1,0-0.1,0.1-0.1,0.2c0,0,0,0.1,0.1,0.1c0.3,0.3,0.4,0.5-0.1,0.8
				c-0.1,0.1-0.1,0.2,0,0.3c0.3,0.3,0.4,0.5,0,0.8c-0.2,0.1,0,0.2,0.1,0.3c0.2,0.5-0.1,1.1,0.1,1.6c0,0-0.1,0.1-0.1,0.1
				s-0.1,0.2,0,0.3c0.3,0.3,0.5,0.6,0,0.9c-0.1,0,0,0.2,0.1,0.2c0.5,0.3,0.4,0.6-0.2,0.9C67.6,50.5,68.1,50.6,68.5,50.6L68.5,50.6
				L68.5,50.6z M9.4,50.6l0.5,0c0.6-0.1,0.6-0.1,0.5-0.7c-0.1-0.2,0-0.4,0.2-0.5c0.1-0.1,0.2-0.2,0.2-0.2c-0.5-0.4-0.4-0.7,0-1
				c0-0.1,0-0.1-0.1-0.2c-0.5-0.3-0.2-0.5,0-0.9c0.2-0.3-0.6-0.5-0.1-0.9c0.2-0.1,0.2-0.2,0-0.4c-0.5-0.4,0.1-0.6,0.1-0.8
				s-0.7-0.4-0.2-0.8c0.5-0.4,0.2-0.4-0.1-0.5c-0.1-0.1-0.2-0.2-0.1-0.3c0,0,0,0,0,0c0.3-0.3,0-0.6,0-0.9c0-0.3,0.2-0.8-0.1-1.2
				c-0.1-0.1,0.1-0.2,0.3-0.3c0.1-0.1,0.1-0.3,0-0.3c-0.2,0-0.7-0.1-1,0.1C9.2,41,9.7,41,9.7,41.2c0.1,0.2,0.1,0.4,0.1,0.6
				c-0.1,0.4-0.5,0.8,0.1,1.1c0.1,0.1,0,0.3-0.2,0.4s-0.2,0.2,0,0.3c0.5,0.4,0.3,0.8,0.1,1.2s0.2,0.9,0,1.4l0.1,0
				c0.4,0.4,0.3,0.8,0,1.2c-0.1,0.1-0.3,0.2-0.1,0.3c0.4,0.3,0.3,0.6,0,0.9c-0.1,0.1,0,0.2,0,0.2C10.1,49.6,10,50.1,9.4,50.6z
				 M70.7,47.7c0.3-0.7-0.4-1-0.6-1.4c-0.2-0.4-0.3-0.6,0.1-0.8s0.4-0.5,0.7-0.6c0.3-0.2,0.3-0.4,0.1-0.7c-1.2,1-1.2,1-2-0.1
				c0,0-0.1,0-0.1,0c-0.2,0.3-0.2,0.5,0.1,0.7c0.8,0.8,0.8,0.8,0.1,1.7c-0.2,0.3-0.5,0.4-0.2,0.8c1.1-0.9,1.1-0.9,1.9,0.2L70.7,47.7
				z M7.3,47.6c0.4-0.3,0.6-0.8,0.9-0.9s0.6,0.5,1,0.6h0.1c0.3-0.6-0.4-0.8-0.6-1c-0.2-0.3-0.3-0.5-0.1-0.9c0.3-0.4,0.8-0.7,0.5-1.3
				c-1,1.2-1,1.2-1.8,0.4c-0.1-0.1-0.1-0.3-0.3-0.2c-0.2,0.1-0.1,0.5,0.1,0.6c0.2,0.1,0.4,0.4,0.6,0.6s0.4,0.5,0.1,0.9
				C7.5,46.7,7.1,47,7.3,47.6z M7.7,40.6c-0.4,0-1.1,0.7-1.1,1.1c0,0.1,0,0.3,0.2,0.4S7,41.9,7,41.8C7.7,41,7.7,41,8.5,41.6l0.2,0.1
				c0.1,0.1,0.1,0.4,0.3,0.2c0.2-0.2,0.2-0.5,0-0.5C8.5,41.2,8.3,40.4,7.7,40.6z M69.1,42.1c0.2-0.3,0.6-0.5,0.8-0.8
				c0.1-0.2,0.3-0.2,0.4-0.2c0.1,0,0.2,0.1,0.2,0.2c0.1,0.3,0.3,0.3,0.5,0.5c0.1,0.2,0.1,0.3,0.3,0.2s0.1-0.3,0.1-0.4
				c-0.1-0.7-0.8-1.1-1.4-1c0,0,0,0,0,0C69.4,40.8,68.9,41.6,69.1,42.1L69.1,42.1z M9.1,49.5C9,50,8.5,50.1,8.3,50.4
				c-0.2,0.4-0.4,0.5-0.7,0c-0.1-0.2-0.4-0.3-0.6-0.5c-0.4,0.5,0,0.8,0.2,1c0.2,0.2,0.8,0.1,1.1-0.1C8.6,50.6,9.3,50.3,9.1,49.5z
				 M68.9,49.6c-0.1,0.6,0.4,1.2,1.1,1.4c0.5,0.1,0.8-0.1,1-0.4c0.2-0.2,0.2-0.5,0-0.6c0,0,0,0,0,0c-0.2-0.2-0.2,0.1-0.3,0.2
				c-0.2,0.1-0.3,0.2-0.4,0.4c-0.1,0.2-0.2,0.2-0.4,0.2c-0.1,0-0.1-0.1-0.2-0.2C69.5,50.2,69.1,50,68.9,49.6z"/>
			<path class="st0" d="M39.1,15.9c4.1,0.1,7.6,1.5,10.9,3.9c1.9,1.5,1.9,3-0.1,4.5c-0.7,0.5-1.3,0.9-2.1,1.2
				c-0.5,0.3-1.1,0.4-1.7,0.3c-1.5-0.2-2.8,0.3-4.2,0.9c-1.8,0.7-3.6,0.7-5.3,0.1c-1-0.4-2.1-0.8-3.2-0.9c-0.3-0.1-0.6-0.1-0.9,0
				c-1,0.2-1.9-0.1-2.8-0.7c-0.4-0.3-0.7-0.4-1.2-0.6c-0.3-0.1-0.6-0.2-0.8-0.4c-1.6-1.4-1.5-3,0.2-4.4c1.7-1.4,4-2.5,6.3-3.2
				C35.9,16.1,37.5,15.8,39.1,15.9z M43.5,24.8c0.2,0.1,0.4,0.1,0.6,0.1c0.9-0.1,1.9-0.2,2.8-0.4c0.5-0.1,1-0.4,1.4-0.7
				c1.2-0.9,1.3-2.1,0.2-3.1c-1.4-1.2-3.2-1.8-4.9-2.4c0.5,0.6,1.2,0.9,1.8,1.4c0.6,0.5,1.5,1.1,1.8,2c0.3,0.9,0.2,1.4-0.6,1.9
				s-1.6,0.7-2.4,0.9C44,24.6,43.7,24.5,43.5,24.8z"/>
			<path class="st0" d="M38.8,35.5c-2.6,0-5.2-0.6-7.7-1.3c-0.8-0.2-1-0.8-1.2-1.5c-0.4-1.7-0.7-3.5-1.1-5.2
				c-0.1-0.6-0.2-1.1-0.4-1.7c0-0.2-0.1-0.4,0.1-0.6c0.2-0.1,0.4,0,0.6,0.1c0.1,0.1,0.3,0.2,0.4,0.3c0.7,0.6,1.5,0.9,2.5,0.8
				c1.3-0.1,2.5,0.2,3.6,0.6c1.5,0.6,3,1,4.6,0.7c0.7-0.1,1.4-0.4,2-0.6c1.2-0.5,2.4-0.8,3.7-0.7c1,0.1,1.7-0.4,2.6-0.8
				c0.2-0.1,0.4-0.3,0.6-0.2c0.2,0.1,0.1,0.4,0.1,0.6c-0.4,2.2-0.7,4.4-1.1,6.6c-0.1,0.8-0.6,1.3-1.3,1.5
				C44.2,34.8,41.6,35.5,38.8,35.5z M39.4,30.8L39.4,30.8c-0.1-0.5-0.1-1-0.1-1.5c0-0.5,0-0.7-0.4-0.7s-0.4,0.4-0.4,0.7
				c0,1.5,0,2.9,0.1,4.4c0,0.3,0,0.6,0.4,0.6s0.3-0.4,0.4-0.7C39.4,32.8,39.4,31.8,39.4,30.8L39.4,30.8z M37.4,33.5
				c-0.1-0.8-0.1-1.5-0.2-2.3s-0.1-1.5-0.2-2.2c0-0.3-0.2-0.5-0.5-0.4c-0.3,0.1-0.3,0.3-0.3,0.5c0.1,1.5,0.2,3,0.4,4.5
				c0,0.3,0,0.7,0.4,0.7C37.5,34.3,37.4,33.8,37.4,33.5L37.4,33.5z M40.5,33.5C40.5,33.4,40.4,33.5,40.5,33.5c0,0.4-0.1,0.9,0.3,0.9
				c0.5,0,0.4-0.5,0.4-0.8c0.1-1.4,0.2-2.9,0.3-4.3c0-0.3,0.1-0.6-0.3-0.7s-0.4,0.3-0.4,0.6C40.6,30.5,40.5,31.9,40.5,33.5
				L40.5,33.5z M35.7,33.7l-0.6-4.8c0-0.3-0.1-0.5-0.4-0.5c-0.3,0-0.3,0.3-0.3,0.6c0.1,0.6,0.1,1.1,0.2,1.7c0.1,1,0.3,2,0.4,3.1
				c0,0.3,0.2,0.5,0.5,0.4S35.7,34,35.7,33.7L35.7,33.7z M43.5,28.9c0-0.2,0-0.4-0.3-0.5s-0.4,0.1-0.4,0.4c-0.1,0.2-0.1,0.3-0.1,0.4
				c-0.2,1.5-0.4,2.9-0.5,4.4c0,0.2-0.1,0.5,0.2,0.6s0.4-0.3,0.5-0.5C43.1,32,43.3,30.5,43.5,28.9L43.5,28.9z M32.5,28.7
				c0.2,1.5,0.5,3,0.7,4.5c0,0.1,0.1,0.2,0.1,0.3c0.1,0.2,0.2,0.3,0.4,0.3s0.2-0.3,0.2-0.4c-0.2-1.6-0.5-3.3-0.8-4.9
				c0-0.2-0.1-0.4-0.4-0.4C32.4,28.2,32.5,28.5,32.5,28.7L32.5,28.7z M44,33.2c0,0.2-0.1,0.5,0.2,0.6c0.3,0.1,0.4-0.2,0.5-0.4
				c0-0.1,0-0.2,0.1-0.3c0.2-1.5,0.5-2.9,0.7-4.3c0-0.2,0.1-0.5-0.2-0.6c-0.3-0.1-0.4,0.3-0.4,0.5C44.4,30.2,44.2,31.7,44,33.2
				L44,33.2z M32.1,33c0-0.2-0.1-0.4-0.1-0.7l-0.7-4c-0.1-0.3-0.2-0.6-0.5-0.5c-0.4,0.1-0.2,0.4-0.1,0.6c0.2,1.3,0.4,2.6,0.6,3.9
				c0,0.3,0.1,0.6,0.2,0.8c0,0.2,0.2,0.3,0.4,0.3c0,0,0,0,0,0C32.1,33.3,32,33.1,32.1,33L32.1,33z M47.2,28.3c0-0.2,0.1-0.5-0.2-0.5
				c-0.3,0-0.3,0.2-0.4,0.4c0,0.1-0.1,0.2-0.1,0.3c-0.2,1.4-0.4,2.9-0.6,4.3c0,0.2-0.2,0.5,0.2,0.6s0.4-0.2,0.5-0.5L47.2,28.3z"/>
			<path class="st0" d="M20.5,22.7l-1.9,0.5c-0.1,0-0.3,0.1-0.4,0c-0.1-0.2,0-0.3,0.1-0.4c0.5-1.1,1.3-2,2.5-2.3
				c0.7-0.2,1.2-0.6,1.5-1.3c0.4-1,1-1.8,1.7-2.6c-0.5,1.1-1.2,2.1-1.7,3.3c0.3,0.1,0.4-0.1,0.5-0.3c1-2.3,2.5-4.3,4.1-6.1
				c1.9-2.1,4-3.9,6.1-5.7l0.2-0.1c0.2-0.1,0.3-0.3,0.5-0.1c0.2,0.2-0.1,0.3-0.3,0.4c-1.7,1.5-3.4,3-5,4.6c-0.8,0.9-1.5,1.7-2,2.9
				c-1,2.8-2,5.6-2.3,8.6c-0.1,0.7,0,1.4-0.2,2.1c-0.4-0.3-0.4-0.7-0.3-1c0.2-1.6,0.5-3.1,0.9-4.7c0.4-1.7,1.1-3.4,1.6-5.2
				c-0.3,0.3-0.5,0.6-0.7,1c-1.1,2.5-2,5.1-2.5,7.8c-0.1,0.3,0,0.8-0.3,0.7s-0.1-0.5-0.1-0.7c0.4-1.9,1-3.8,1.6-5.6
				c0.1-0.2,0.1-0.4,0.1-0.6c-0.4,0.5-0.7,1-0.9,1.6c-0.8,2.1-1.4,4.3-1.8,6.6c-0.1,0.6-0.1,1.3-0.8,1.6c-0.2,0.1-0.6,0.4-0.5,0.8
				c0,0.1,0.2,0.1,0.3,0.1c0.4-0.1,0.8-0.2,0.9-0.6c0.1-0.6,0.3-1.2,0.6-1.8c0.1-0.3,0.2-0.7,0.6-0.7c0.4,0,0.5,0.4,0.6,0.7
				c0.4,1.2,0.4,2.4-0.2,3.5c-0.3,0.6-0.7,0.8-1.3,0.5c-0.2-0.1-0.3-0.1-0.4,0.1c-0.1,0.2-0.1,0.4,0.2,0.5c0.2,0.1,0.8,0.4,1,0.8
				c0.2,0.4,0.5,0.8,0,1.2c-0.2,0.2-0.1,0.5,0.1,0.6c0.8,0.5,1.2,1.2,1.3,2.2c0,0.3,0.2,0.5,0.4,0.7c0.2,0.2,0.3,0.6-0.2,0.7
				c-0.8,0.2-1.7,0.3-2.5,0.5c-0.2,0.1-0.4-0.1-0.5-0.3c-0.3-0.7-0.6-1.3-0.2-2.1c0.2-0.4,0-0.6-0.4-0.6c-0.4,0-0.8,0.4-1-0.1
				c-0.3-0.6-0.3-1.3,0-1.9c0.1-0.3,0.7-0.4,0.4-0.8c-0.3-0.4-0.6,0-0.9,0.1c-0.3,0.1-0.6-0.1-0.6-0.5c0-0.9,0.1-1.6,0.9-2.1
				c0.1-0.1,0.4-0.2,0.3-0.4s-0.3-0.1-0.5,0l-0.1,0c-0.4,0.1-0.8,0.4-1,0.1c-0.3-0.3,0-0.8,0.1-1.2c0.2-0.7,0.7-1.2,1.4-1.5
				c0.2-0.1,0.5-0.1,0.3-0.4s-0.4,0-0.5,0c-0.2,0.1-0.4,0.1-0.6,0.2S18,26.2,17.8,26c-0.2-0.2,0-0.6,0.1-0.9c0.3-1,1-1.6,1.9-1.9
				C20.1,23.2,20.4,23.1,20.5,22.7z"/>
			<path class="st0" d="M51.5,14.7c-1.1-1.5-2.4-2.8-3.8-4.1c-1-0.9-2-1.8-3-2.7c-0.1-0.1-0.4-0.2-0.3-0.4c0.2-0.2,0.4,0,0.5,0.1
				c2.8,2.3,5.5,4.7,7.7,7.5c1,1.3,1.9,2.8,2.6,4.4c0.1,0.2,0.1,0.3,0.5,0.3c-0.5-1.2-1.3-2.2-1.8-3.4c0.4,0.1,0.5,0.3,0.6,0.5
				c0.4,0.7,0.9,1.5,1.3,2.2s0.7,1,1.4,1.2c1.2,0.3,2,1.1,2.5,2.2c0.1,0.2,0.2,0.4,0.1,0.6c-0.1,0.2-0.4,0.1-0.5,0
				c-0.6-0.2-1.2-0.3-1.8-0.5c0.1,0.4,0.4,0.4,0.6,0.5c1.1,0.4,1.8,1.2,2.1,2.3c0.1,0.2,0.2,0.4,0,0.6c-0.2,0.2-0.4,0-0.6,0
				c-0.5-0.1-0.8-0.4-1.4-0.3c0.1,0.4,0.4,0.4,0.6,0.5c0.9,0.5,1.2,1.3,1.3,2.2c0,0.4-0.1,0.5-0.5,0.4l-0.7-0.2
				c-0.2,0-0.4-0.3-0.5,0s0.1,0.3,0.3,0.4c0.7,0.4,0.9,1.1,0.9,1.9s-0.1,0.8-0.8,0.7l-0.3-0.1c-0.1,0-0.3-0.1-0.4,0.1
				c-0.1,0.2,0,0.3,0.1,0.4c0.5,0.5,0.6,1.2,0.4,1.9c-0.1,0.7-0.3,0.7-0.9,0.6c-0.7-0.2-0.9,0-0.6,0.7c0.2,0.7,0,1.3-0.3,2
				c-0.1,0.2-0.3,0.3-0.6,0.2c-0.7-0.3-1.5-0.3-2.2-0.5s-0.7-0.3-0.3-0.8c0.2-0.2,0.4-0.5,0.4-0.9c0.1-0.8,0.4-1.4,1.1-1.8
				c0.4-0.2,0.6-0.5,0.1-0.9c-0.4-0.4,0-1.1,0.6-1.5c0.2-0.1,0.4-0.2,0.6-0.3c0.2-0.1,0.2-0.3,0.1-0.5c-0.1-0.2-0.2-0.2-0.4-0.1
				c-0.7,0.3-1,0.2-1.3-0.4c-0.6-1.2-0.6-2.5-0.1-3.7c0.1-0.2,0.2-0.5,0.5-0.5s0.4,0.3,0.5,0.5c0.3,0.5,0.5,1,0.6,1.6
				c0,0.2,0.1,0.3,0.1,0.5c0.2,0.4,0.5,0.4,0.9,0.5c0.1,0,0.2,0,0.2-0.1c0,0,0,0,0,0c0-0.3-0.3-0.7-0.5-0.7
				c-0.7-0.2-0.7-0.7-0.8-1.2c-0.2-1.1-0.4-2.2-0.7-3.3c-0.4-1.5-0.9-3-1.6-4.5c-0.1-0.2-0.2-0.5-0.5-0.7c0.4,1.2,0.8,2.3,1.1,3.5
				c0.3,0.9,0.5,1.8,0.7,2.7c0,0.2,0.2,0.5-0.1,0.6c-0.2,0.1-0.3-0.3-0.3-0.5c-0.5-2.7-1.4-5.3-2.5-7.8c-0.2-0.5-0.5-1-0.9-1.4
				L51.5,14.7z"/>
			<path class="st0" d="M60.5,19.6c0,0.8-0.4,1.2-1.1,1.2c-0.3,0-0.6-0.1-0.9-0.3c-1.3-0.9-2.1-2.2-2.1-3.8c0-0.9,0.4-1.1,1.2-0.7
				c0.9,0.5,1.6,1.1,2.3,1.9C60.2,18.4,60.5,19,60.5,19.6z"/>
			<path class="st0" d="M21.6,16.9c-0.1,1.5-0.9,2.8-2.1,3.6c-0.5,0.3-1.1,0.5-1.7,0.1c-0.5-0.5-0.4-1.1-0.2-1.7
				c0.7-1.4,1.8-2.3,3.2-3c0.4-0.2,0.6,0,0.7,0.4C21.5,16.5,21.6,16.7,21.6,16.9z"/>
			<path class="st0" d="M29.5,7.5c-2.1,1.4-4.1,2.8-6.1,4.4s-3.4,3.6-5.2,5.3C18.8,14.5,26.7,7.7,29.5,7.5z"/>
			<path class="st0" d="M48.4,7.5c2.6,0,10.6,6.8,11.3,9.6c-0.5-0.1-0.8-0.5-1.1-0.8c-2.7-3.5-6.1-6.2-9.9-8.4
				C48.7,7.8,48.5,7.7,48.4,7.5z"/>
			<path class="st0" d="M13.6,31.5c0,0.4,0,0.7-0.1,1.1c-0.1,0.4-0.3,0.9-0.8,0.9c-0.5,0-0.7-0.4-0.9-0.8c-0.2-0.4-0.2-0.8-0.2-1.2
				c0-0.8,0.1-1.6,0.4-2.3c0.2-0.6,0.5-0.7,1-0.2C13.4,29.8,13.6,30.6,13.6,31.5z"/>
			<path class="st0" d="M11.2,30.9c-0.9-4.2,0-8.1,1.7-11.9C11.7,22.9,11.2,26.9,11.2,30.9z"/>
			<path class="st0" d="M65.1,18.9c1.7,3.8,2.6,7.7,1.7,11.9C66.7,26.8,66.2,22.8,65.1,18.9z"/>
			<path class="st0" d="M12.2,19.7l-0.4,1c-1,2.7-1.9,5.5-1.8,8.5c0,1.3,0.2,2.5,0.5,3.8c0,0.2,0.1,0.4,0.1,0.6c0,0.2,0,0.3-0.1,0.3
				c-0.2,0.1-0.2-0.1-0.3-0.2c0-0.1-0.1-0.4-0.1-0.6c-0.9-3.8-0.4-7.6,1-11.2c0.2-0.7,0.5-1.3,0.8-2C11.9,19.8,12,19.7,12.2,19.7z"
				/>
			<path class="st0" d="M65.9,19.7c0.4,0.6,0.6,1.2,0.9,1.9c0.9,2.5,1.7,5.1,1.6,7.8c-0.1,1.3-0.2,2.7-0.5,4c0,0.2,0,0.5-0.3,0.5
				s-0.1-0.4-0.1-0.6c0.1-0.9,0.3-1.8,0.4-2.7c0.5-3.4-0.4-6.6-1.6-9.8C66.1,20.5,65.9,20.1,65.9,19.7z"/>
			<path class="st0" d="M47.2,7.5c0.2-0.1,0.4,0,0.6,0.1c3.1,2,6,4.2,8.5,7c0.1,0.2,0.5,0.3,0.3,0.6c-0.2,0.2-0.5-0.1-0.7-0.2
				c-1.5-1.7-3.2-3.3-5-4.7c-1-0.8-2.1-1.6-3.2-2.3C47.5,7.8,47.3,7.7,47.2,7.5z"/>
			<path class="st0" d="M27.5,14.2c0,0.4-0.1,0.8-0.3,1.1c-1.2,3.6-2,7.2-2,11c0,0.2,0.1,0.6-0.2,0.6s-0.2-0.4-0.2-0.6
				c0-4.1,1-8,2.4-11.9c0-0.1,0.1-0.2,0.1-0.2C27.3,14.3,27.3,14.3,27.5,14.2z"/>
			<path class="st0" d="M30.8,7.5c-0.1,0.3-0.3,0.4-0.5,0.5c-3,2-5.8,4.2-8.1,7L22.1,15c-0.2,0.1-0.4,0.4-0.6,0.2
				c-0.2-0.2,0.1-0.4,0.2-0.5c1.3-1.4,2.7-2.8,4.2-4c1.4-1.1,2.9-2.2,4.4-3.1C30.4,7.5,30.5,7.4,30.8,7.5z"/>
			<path class="st0" d="M50.5,14.2c0.2,0,0.3,0.2,0.4,0.3c1.3,3.8,2.4,7.7,2.4,11.8c0,0.3,0.2,0.7-0.2,0.7c-0.3,0-0.2-0.5-0.2-0.7
				c0-3.9-0.9-7.7-2.2-11.4C50.6,14.7,50.4,14.5,50.5,14.2z"/>
			<path class="st0" d="M48.7,37.7c0.1-0.5,0.2-1.3,0.7-1.4s0.7,0.6,0.9,0.9c0.6,0.8,0.5,1.6-0.2,2.3c-0.2,0.2-0.4,0.3-0.5,0.1
				C49.1,39.1,48.7,38.6,48.7,37.7z"/>
			<path class="st0" d="M45.6,7.6c0.4-0.2,0.5,0,0.7,0.1c3.3,2.4,6.3,5.2,8.9,8.4c0.4,0.4,0.7,0.9,0.5,1.7
				C53.1,13.5,49.6,10.3,45.6,7.6z"/>
			<path class="st0" d="M29.3,37.8c-0.1,0.8-0.5,1.3-1,1.8c-0.2,0.2-0.3,0.1-0.5,0c-0.6-0.5-0.7-1.4-0.3-2.1
				c0.1-0.2,0.2-0.3,0.3-0.4c0.2-0.3,0.3-0.8,0.7-0.7c0.4,0.1,0.5,0.6,0.6,0.9C29.3,37.4,29.3,37.6,29.3,37.8z"/>
			<path class="st0" d="M57,40.2c0-0.6,0.3-1.1,0.8-1.6c0.1-0.1,0.3-0.2,0.4,0l0,0c0.8,0.7,0.9,2.3,0.1,3.1C58,42,57.7,42,57.5,41.6
				S57,40.7,57,40.2z"/>
			<path class="st0" d="M22.3,17.6c-0.1-0.6,0.1-1.1,0.4-1.5c2.6-3.2,5.6-6,8.9-8.4c0.1-0.1,0.3-0.3,0.7-0.1
				C28.4,10.3,24.9,13.5,22.3,17.6z"/>
			<path class="st0" d="M19,40.4c0.1-0.7,0.4-1.2,0.7-1.8c0.1-0.3,0.3-0.2,0.5,0c0.9,0.7,0.9,2.4,0.1,3.1c-0.2,0.2-0.3,0.2-0.5,0
				C19.4,41.4,19.1,41,19,40.4z"/>
			<path class="st0" d="M23.1,31.1c0-1.4,0.8-2.4,1.7-3.3c0.1-0.1,0.2-0.2,0.3-0.1c0.1,0.1,0.1,0.2,0.1,0.3c0,1.5-0.6,2.9-1.7,3.9
				c-0.2,0.2-0.4,0.1-0.4-0.2S23.1,31.3,23.1,31.1z"/>
			<path class="st0" d="M54.9,31.4c0,0.1,0.1,0.5-0.2,0.6c-0.3,0.1-0.4-0.2-0.5-0.4c-0.9-0.9-1.3-2.1-1.4-3.3c0-0.2-0.1-0.4,0.1-0.5
				c0.2-0.1,0.3,0.1,0.4,0.2C54.2,28.9,55,29.9,54.9,31.4z"/>
			<path class="st0" d="M50.3,35.9c0-0.4,0.1-0.9,0.3-1.3c0.1-0.2,0.2-0.3,0.4-0.2c0.9,0.5,1.4,2.2,0.9,3.2
				c-0.3,0.5-0.4,0.6-0.8,0.1C50.7,37.3,50.3,36.7,50.3,35.9z"/>
			<path class="st0" d="M27.7,35.9c0,0.8-0.4,1.5-1,2c-0.2,0.3-0.4,0.1-0.6-0.1c-0.4-0.7-0.5-1.4-0.1-2.1c0.2-0.4,0.5-0.7,0.7-1
				s0.5-0.3,0.6,0.1C27.6,35.1,27.7,35.5,27.7,35.9z"/>
			<path class="st0" d="M25.6,31.1c0,1.1-0.5,2.1-1.2,2.9c-0.1,0.1-0.2,0.3-0.4,0.2c-0.2,0-0.2-0.3-0.2-0.4
				c-0.3-1.5,0.5-2.6,1.4-3.6c0.2-0.2,0.3-0.1,0.4,0.1S25.6,30.8,25.6,31.1z"/>
			<path class="st0" d="M53.4,35c-0.1,0.4,0,1.1-0.4,1.2c-0.5,0.1-0.6-0.5-0.9-0.8c-0.5-0.8-0.6-1.7-0.4-2.6
				c0.1-0.2,0.2-0.5,0.4-0.2C52.7,33.2,53.3,33.9,53.4,35z"/>
			<path class="st0" d="M12.2,36.1c-0.6,0-1.4-0.7-1.6-1.2c-0.1-0.2,0-0.4,0.1-0.4c1-0.7,2.3-0.3,2.8,0.8c0.1,0.2,0.1,0.4-0.2,0.5
				C13,35.9,12.6,36.1,12.2,36.1z"/>
			<path class="st0" d="M52.4,31c0.1-0.2-0.2-0.7,0.2-0.8c0.4-0.1,0.5,0.4,0.7,0.6c0.7,0.8,1.1,1.8,0.9,2.9c0,0.2,0,0.4-0.2,0.4
				s-0.3-0.1-0.4-0.3C52.8,33.1,52.4,32.2,52.4,31z"/>
			<path class="st0" d="M65.8,36.1c-0.5-0.1-1.1,0-1.4-0.7c-0.1-0.4,0.7-1.2,1.2-1.3l0.2,0c0.6-0.1,1.6,0.3,1.6,0.7
				C67.4,35.3,66.5,36.1,65.8,36.1z"/>
			<path class="st0" d="M26.4,33.7c0.1,1-0.4,1.7-1,2.4c-0.3,0.3-0.5,0.2-0.6-0.1c-0.2-0.8-0.3-1.5,0.2-2.2c0.1-0.1,0.2-0.3,0.3-0.4
				c0.3-0.3,0.4-0.9,0.8-0.8C26.5,32.7,26.3,33.3,26.4,33.7z"/>
			<path class="st0" d="M64.8,38.2c-0.1,0-0.3,0-0.4-0.1c-0.4-0.1-1-0.1-1.1-0.6c-0.1-0.4,0.5-0.8,0.9-1c0.8-0.4,1.5-0.1,2.2,0.2
				c0.2,0.1,0.2,0.3,0.1,0.5C66.1,37.8,65.6,38.2,64.8,38.2z"/>
			<path class="st0" d="M13,36.4c0.7,0,1.7,0.7,1.7,1.1s-0.8,0.7-1.5,0.7s-1.3-0.4-1.7-1c-0.2-0.2-0.1-0.4,0.2-0.5
				C12.1,36.5,12.5,36.4,13,36.4z"/>
			<path class="st0" d="M13.7,18.3c0,0.7-0.3,1.3-0.4,1.9c-0.5,2.3-0.9,4.6-0.9,6.9c0,0.3,0.1,0.9-0.3,0.8c-0.4,0-0.1-0.6-0.1-0.9
				c0.1-2.8,0.6-5.5,1.3-8.1C13.3,18.8,13.3,18.5,13.7,18.3z"/>
			<path class="st0" d="M64.4,18.3c0.2,0.1,0.2,0.2,0.3,0.4c0.8,2.8,1.3,5.6,1.4,8.6c0,0.1,0,0.3,0,0.4c0,0.1,0,0.4-0.2,0.4
				s-0.2-0.2-0.2-0.3c0-0.7-0.1-1.4-0.1-2.1c-0.1-2.2-0.5-4.4-1.1-6.5C64.4,18.8,64.2,18.6,64.4,18.3z"/>
			<path class="st0" d="M51.5,14.7l0.2,0.2c0.7,2.1,1.5,4.3,2,6.5c0.2,1.1,0.5,2.3,0.7,3.4c0.1,0.4,0.1,0.9-0.2,1.3
				C54,26,54,25.9,54,25.7c-0.2-3.5-1.1-6.9-2.4-10.1C51.5,15.3,51.2,15,51.5,14.7z"/>
			<path class="st0" d="M49.3,45.9c-0.3,0.8-0.5,1.6-0.5,2.4c0,0.3,0,0.6-0.4,0.6c-0.4-0.1-0.7-0.2-0.6-0.7c0.2-1.2,0.5-2.4,1-3.6
				c0.1-0.2,0.2-0.5,0.5-0.5c0.3,0,0.6,0.2,0.7,0.5s0.2,0.8,0.4,1.2c0.3,0,0.4-0.3,0.6-0.5c0.3-0.3,0.7-0.3,1.1-0.1
				c0.4,0.2,0.4,0.6,0.3,0.9c-0.2,1.1-0.5,2.2-1,3.3c-0.2,0.5-0.5,0.6-0.9,0.4c-0.4-0.2-0.2-0.6-0.1-0.8c0.3-0.7,0.7-1.3,0.8-2.3
				c-0.5,0.3-0.6,0.7-0.8,1c-0.2,0.3-0.2,0.4-0.3,0.7c-0.1,0.2-0.2,0.4-0.4,0.3c-0.2-0.1-0.3-0.3-0.3-0.5c0-0.5,0-1.1,0-1.6
				C49.4,46.3,49.5,46.1,49.3,45.9z"/>
			<path class="st0" d="M39.8,45.7c0.1-1.2,0.4-2.3,1.3-3.2c0.9-0.9,1.2-0.6,1.7,0.3c0.6,1.2,0.6,2.5,0.2,3.8
				c-0.1,0.5-0.4,0.6-0.8,0.4c-0.4-0.1-0.2-0.5-0.1-0.7c0.1-0.3,0.3-0.7-0.1-1c-0.3-0.2-0.6-0.1-0.8,0.1c-0.3,0.3-0.2,0.6-0.2,0.9
				c0,0.3,0,0.5-0.4,0.5c-0.4,0-0.6,0-0.7-0.4C39.8,46.1,39.8,45.9,39.8,45.7z"/>
			<path class="st0" d="M55.5,48.4c0,0.7-0.2,1.5-0.5,2.3c-0.2,0.4-0.4,0.5-0.8,0.3c-0.4-0.1-0.5-0.3-0.2-0.6
				c0.1-0.1,0.2-0.3,0.2-0.4c0.1-0.2,0.3-0.5,0-0.7c-0.2-0.2-0.5-0.2-0.7-0.1S53,49.4,53,49.7c0,0.3,0,0.2,0,0.3s0,0.6-0.3,0.5
				c-0.4,0-0.7-0.1-0.7-0.6c0-0.5,0.2-1.2,0.4-1.7c0.4-0.8,0.9-1.6,1.7-2c0.5-0.2,0.8-0.1,1.1,0.4C55.4,47.2,55.5,47.8,55.5,48.4z"
				/>
			<path class="st0" d="M57.1,48c0.5-0.3,0.6-0.7,0.8-1.2c0.2-0.4,0.4-0.5,0.8-0.4c0.4,0.2,0.1,0.5,0,0.8c-0.1,0.2-0.2,0.4-0.4,0.6
				c-0.2,0.3-0.3,0.6-0.1,1c0.3,0.5,0.5,1.2,0.5,1.8c0,0.3-0.1,0.6-0.5,0.6s-0.6-0.1-0.6-0.5c0-0.4-0.1-0.8-0.2-1.2
				c-0.1-0.1-0.1-0.3-0.3-0.3S57,49.4,57,49.5c-0.1,0.1,0,0.5,0,0.8c0,0.3,0,0.7-0.5,0.7s-0.7-0.2-0.7-0.6c-0.1-1.3,0.1-2.5,0.4-3.7
				c0.1-0.4,0.3-0.4,0.7-0.4c0.3,0,0.4,0.3,0.3,0.6C57.1,47.2,57,47.6,57.1,48z"/>
			<path class="st0" d="M38.3,44.9c0-0.5,0-1.1,0-1.6c0-0.3-0.1-0.5-0.5-0.5c-0.3,0-0.4,0.3-0.4,0.5c0,0.9,0,1.8,0,2.7
				c0,0.5-0.1,0.9-0.5,1.1c-0.4,0.3-0.5,0.2-0.7-0.1c-0.2-0.3-0.3-0.7,0-0.8c0.3-0.2,0.4-0.6,0.4-1c0-0.8,0.1-1.6,0-2.4
				c0-0.5,0.2-0.7,0.7-0.8l0.9-0.1c0.4-0.1,0.6,0.1,0.7,0.5c0.4,1.3,0.5,2.6,0.4,3.9c0,0.4-0.3,0.6-0.7,0.6s-0.4-0.3-0.4-0.6
				C38.3,46.1,38.3,45.4,38.3,44.9L38.3,44.9z"/>
			<path class="st0" d="M45,45.9c0-0.7,0.3-1.4,0.7-1.9c0.5-0.7,1.4-0.8,2-0.4c0.3,0.2,0.5,0.5,0.5,0.9c0,0.2-0.2,0.4-0.4,0.4
				s-0.3,0-0.4-0.2c-0.4-0.5-0.7-0.3-1,0.1c-0.3,0.4-0.4,1.2-0.2,1.8s0.7,0.7,1.3,0.4c0.1-0.1,0.2-0.3,0.4-0.2
				c0.2,0.1,0.1,0.3,0.1,0.5c-0.1,0.5-0.5,1-1,1.1c-0.6,0.1-1-0.1-1.4-0.6C45.1,47.3,45,46.8,45,45.9z"/>
			<path class="st0" d="M62.6,47.1c-0.3,1.4-0.9,2.7-2,3.8c-0.1,0.1-0.3,0.2-0.5,0.2c-0.2,0-0.4,0-0.5-0.2c-0.1-0.2,0.1-0.3,0.2-0.4
				c0.7-0.9,0.7-0.9,0.2-1.9c-0.3-0.5-0.5-1.1-0.5-1.7c0-0.4,0-0.7,0.5-0.8c0.5,0,0.6,0.3,0.6,0.7c0,0.4,0,0.7,0.2,1
				c0.2,0.4,0.4,0.4,0.7,0c0.1-0.3,0.2-0.6,0.2-0.9c0-0.3,0.1-0.6,0.5-0.5C62.5,46.5,62.7,46.7,62.6,47.1z"/>
		</g>
		<path class="st0" d="M31.3,44.7C31,45.4,30.9,46.2,31,47c0,0.2,0.1,0.6-0.2,0.6s-0.4-0.3-0.5-0.5c-0.3-0.7-0.5-1.3-1.1-2
			c0,1.1,0.2,2,0.6,2.9c0.1,0.2,0.4,0.5-0.1,0.6c-0.5,0.2-0.7,0.1-0.8-0.4c-0.3-1.2-0.5-2.4-0.6-3.6c0-0.2-0.1-0.5,0.2-0.6
			s0.6-0.2,0.8,0.1c0.2,0.3,0.6,0.7,0.8,1c0.2-0.2,0.2-0.5,0.2-0.8c0.1-0.3,0.3-0.7,0.7-0.8s0.6-0.1,0.7,0.4
			c0.4,1.2,0.5,2.5,0.6,3.8c0,0.6-0.3,0.6-0.7,0.6s-0.2-0.4-0.2-0.6C31.7,46.7,31.7,45.8,31.3,44.7z"/>
		<path class="st0" d="M22.2,47.6c0.1-0.7,0.2-1.5,0.6-2.1c0.5-0.6,1.2-0.8,1.7-0.1c0.9,1,1.3,2.2,0.9,3.6c-0.1,0.4-0.4,0.7-0.8,0.7
			l-0.3,0C22.9,50,22.2,49.2,22.2,47.6z M23,47.6c0,0.1,0,0.3,0.1,0.4c0.1,0.6,0.5,0.8,1,0.8s0.7-0.4,0.7-0.9s-0.2-1.2-0.6-1.7
			s-0.7-0.4-0.9,0.1C23.1,46.7,23.1,47.1,23,47.6L23,47.6z"/>
		<path class="st0" d="M27,44.3c0.4,0,0.9,0,1.2,0.5c0.3,0.5,0.2,1.1-0.1,1.5c-0.2,0.3-0.4,0.6-0.7,0.8c-0.5,0.4-0.6,0.9-0.4,1.5
			c0.1,0.2,0.4,0.5-0.1,0.6s-0.7,0.3-0.8-0.4c-0.2-1.2-0.3-2.5-0.5-3.7c-0.1-0.4,0.1-0.6,0.4-0.7L27,44.3z M27,45.2
			c-0.5,0-0.7,0.2-0.7,0.7c0,0.3-0.1,0.7,0.3,0.9c0.4,0.2,0.9-0.7,0.9-1.1C27.5,45.3,27.3,45.2,27,45.2L27,45.2z"/>
		<path class="st0" d="M33.4,47.7c0.2-0.4,0.5-0.8,0.7-1.3c0.2-0.4,0.1-0.6-0.2-0.9c-0.6-0.5-1-1.2-1.1-2c-0.1-0.3-0.1-0.6,0.4-0.7
			s0.5,0.1,0.5,0.5c0,0.5,0.2,0.9,0.5,1.3c0.2,0.3,0.4,0.2,0.5-0.1c0.2-0.4,0.3-0.9,0.2-1.4c-0.1-0.3,0-0.6,0.4-0.6s0.5,0.2,0.4,0.5
			c0,1.6-0.4,3.1-1.3,4.4C34.2,47.7,34,47.8,33.4,47.7z"/>
		<path class="st0" d="M15.5,48.4c0-0.8,0.5-1.7,1.6-2.1c0.4-0.2,0.6-0.3,0.5-0.8c-0.1-0.4,0-0.5,0.4-0.5s0.4,0.1,0.4,0.4
			c0,0.1,0.1,0.3,0.1,0.4c0.2,0.6,0,0.9-0.7,1c-1,0.1-1.7,1.1-1.6,2.1c0,0.1,0,0.2,0.1,0.3c0.2,0.8,0.8,1.2,1.7,1.1
			c0.4-0.1,0.6,0.1,0.6,0.5c0,0.3,0,0.6,0.1,0.8c0,0.3,0,0.4-0.3,0.4s-0.4-0.1-0.4-0.4c0.1-0.5-0.1-0.6-0.5-0.6
			C16.2,50.8,15.5,49.9,15.5,48.4z"/>
		<path class="st0" d="M18.8,45.9c0-0.2,0-0.5,0.1-0.7c0.1-0.2,0.3-0.1,0.5-0.1c0.2,0,0.2,0.2,0.1,0.3c0,0.2,0.1,0.5,0.5,0.6
			c1.1,0.3,1.8,1.1,1.9,2.2c0.1,1.1-0.5,2.1-1.5,2.6c-0.3,0.1-0.7,0.3-0.6,0.7c0.1,0.5-0.1,0.5-0.4,0.5c-0.2,0-0.4-0.2-0.4-0.4
			c0,0,0-0.1,0-0.1c0.1-0.3,0.1-0.6,0.1-0.9c0-0.4,0.3-0.3,0.6-0.4c0.8-0.1,1.4-0.6,1.5-1.3c0.2-0.7-0.2-1.6-0.8-2
			c-0.2-0.1-0.5-0.2-0.7-0.2C18.8,46.7,18.8,46.7,18.8,45.9z"/>
	</g>
</g>
</svg>
