<?xml version="1.0" encoding="utf-8"?>
<!-- Generator: Adobe Illustrator 21.0.2, SVG Export Plug-In . SVG Version: 6.00 Build 0)  -->
<svg version="1.1" id="Layer_1" xmlns="http://www.w3.org/2000/svg" xmlns:xlink="http://www.w3.org/1999/xlink" x="0px" y="0px"
	 viewBox="0 0 201 50" style="enable-background:new 0 0 201 50;" xml:space="preserve">
<style type="text/css">
	.st0{fill:#003F6F;}
</style>
<title>kyiv_hleb</title>
<g id="Layer_2">
	<g id="Layer_1-2">
		<g id="_9YFrJg.tif">
			<path class="st0" d="M200.8,34.1c-0.5,2.8-2.8,5.2-5.3,5.2h-58.7c-3.3,0-5.2-1.5-5.7-4.9c-0.4-2.1-0.3-4.1,0.2-6.2
				c0.4-1.4,1.1-2.9,2.4-3.4s1.7-1.6,2-2.8c0.7-2.5,1-5.1,0.9-7.6c-0.4-6-3.8-9.6-9.5-10.1c-5.3-0.5-10.2,0.9-15,2.9
				C101.8,11.5,92.7,18,84.4,25.5S69.3,40.6,63.5,49.7C63.4,49.9,63.2,50,63,50c1.7-3.7,4-7,6.3-10.5c-1.8-0.2-3.7-0.2-5.5-0.2
				c-0.5,0-0.9,0.2-0.8-0.7c0.4-4.4,0.2-8.9,0.1-13.3c0-1,0.2-1.1,1-1.1c1.7,0,3.5,0,5.2,0c0.5,0,1-0.1,1,0.5s0.6,1.9,0,2.8
				c-0.6,0.9-0.7,0-0.9-0.4c-0.2-0.4-0.2-0.9-0.4-1.3c-0.2-0.6-0.8-1-1.4-0.9c-1.1,0.2-1,1.1-0.9,1.8s-0.6,2.1,0.8,2.3
				c3.9,0.7,4.6,1.7,4.7,5.6c0,0.2,0.1,0.4,0.1,0.6c0.8-0.2,1.1-0.9,1.5-1.4c10.4-12.3,22.3-22.6,36.7-29.5c5-2.4,10.2-4.3,15.9-4.4
				c8.8-0.1,13.2,5.3,11.9,14.4c-0.4,2.8-1.1,5.5-2.2,8.1c-0.6,1.5-0.3,1.7,1.1,1.7h40.5c5.7,0,11.5,0.2,17.2-0.1
				c4.1-0.2,5.8,3,6,6.1C201,32.4,201,32.9,200.8,34.1z M167.2,31.7c3.5-0.1,3.8-3.2,5.3-5.3c-3-0.5-5.1,0.5-6.5,3
				c-1.3,2.5-0.9,3.8,0.4,5.6s3.9,2.6,5.9,2C170.8,35.1,170.5,32,167.2,31.7z M159.8,26.4c-2.9-0.5-4.9,0.4-6.3,2.8
				c-1.1,1.7-1,3.9,0.2,5.6c1.4,1.9,3.8,2.8,6,2.2c-1.4-2-1.8-5-5.2-5.3C157.9,31.5,158.5,28.6,159.8,26.4z M135.9,31.7
				c3.4-0.3,4-3.1,5.2-5.4c-2.9-0.3-5.3,0.5-6.5,3.3c-0.7,1.7-1,3.5,0.4,5.2c1.4,1.7,3.6,2.4,6.1,2.4
				C139.5,34.9,139.1,32,135.9,31.7z M153.6,26.3c-3.4-0.3-5.3,0.7-6.6,3.3c-0.9,2-0.6,3.9,0.7,5.6s3.9,2.3,5.6,1.7
				c-1.4-2-1.8-4.9-5.4-5.1C151.2,30.6,151.2,30.6,153.6,26.3L153.6,26.3z M166,26.4c-3.2-0.3-5.3,0.6-6.4,3.1
				c-0.8,1.8-1,3.7,0.4,5.5s3.5,2.3,6,2.2c-1.6-2.2-1.9-5.1-5.3-5.2C165,29.9,163.7,30.7,166,26.4L166,26.4z M178.6,37.2
				c-1.6-2.3-2-5.2-5.2-5.3c3.5-1.5,2.8-0.8,5.2-5.6c-2.6-0.3-4.8,0.3-6.2,2.7c-1,1.7-1.3,3.5-0.2,5.3
				C173.6,36.8,175.9,37.2,178.6,37.2L178.6,37.2z M184.9,26.5c-2.9-0.5-5.1,0.4-6.2,2.6c-0.9,1.7-1.4,3.6-0.1,5.5
				c1.4,2,3.8,3,6.1,2.4c-1.4-2.1-1.8-5.1-5.2-5.3C183,31.5,183.5,28.6,184.9,26.5L184.9,26.5z M191.1,26.4
				c-3.2-0.4-5.3,0.6-6.5,3.2c-1.3,2.6-0.7,3.9,0.8,5.7c1.6,1.8,3.9,2.2,5.5,1.5c-1.5-1.9-1.8-4.9-5.1-5.1
				C189.2,31.4,189.8,28.5,191.1,26.4L191.1,26.4z M147.3,26.4c-3.1-0.4-5.1,0.6-6.4,3c-1.3,2.4-0.8,3.9,0.6,5.7
				c1.4,1.7,3.9,2.5,5.7,1.9c-1.5-2-1.8-5.1-5.3-5.3C145.4,31.6,146,28.7,147.3,26.4L147.3,26.4z M66.7,34.1L66.7,34.1
				c0,1.2,0,2.4,0,3.5c0,0.5,0,0.9,0.6,1c0.5,0.1,0.9-0.2,1-0.6c0-0.1,0-0.1,0-0.2c0.2-2.4,0.2-4.8,0-7.2c0-0.5-0.4-0.9-0.9-0.9
				c0,0-0.1,0-0.1,0c-0.6,0.1-0.6,0.7-0.6,1.2C66.7,31.9,66.7,33,66.7,34.1z"/>
			<path class="st0" d="M16.7,29.1c-2,2.8-2.6,5.9-1.9,9.2c0.2,0.8,0.1,1-0.6,1c-0.8,0-2.3,0.3-3-0.2c-0.7-0.5,0-1.8-0.1-2.8
				c-0.1-3.8,0-7.5-0.1-11.3c0-0.7,0.2-0.8,0.8-0.8s2-0.3,2.7,0.1c0.7,0.4-0.1,1.6,0.1,2.5c0.1,0.9,0,2.4,0.3,3.6
				c0.7-1.8,2.1-3.3,1.8-5.5c-0.1-0.6,0.1-0.7,0.6-0.7h0.5c2.5-0.1,2.5-0.1,2.5,2.4c0,3.5,0,7-0.1,10.4c0,0.7,0.7,1.6,0,2.1
				c-0.7,0.5-1.4,0-2,0.1c-1.3,0.2-1.7,0-1.6-1.7C16.8,34.8,16.4,31.9,16.7,29.1z"/>
			<path class="st0" d="M4.2,24.4c-0.4,1.2-0.3,2.4-0.3,3.5s0.6,1.3,1.5,0.7s1-1.5,1.3-2.5s0.6-1.7,1.5-2.1c0.5-0.2,1-0.2,1.4,0.2
				c0.3,0.3,0.4,0.8,0.3,1.2c-0.1,0.5-0.6,0.8-1.1,0.7c0,0,0,0-0.1,0c-1.6-0.3-1.6,0.9-1.1,1.7c1.9,3.3,1.6,7.1,2.4,10.7
				c0.1,0.6-0.1,0.7-0.5,0.7H9c-1,0-2.3,0.4-3-0.1c-0.7-0.5-0.1-1.9-0.2-2.9c-0.1-1.8-0.3-3.6-0.6-5.4c-0.1-0.6-0.2-1.4-1-1.2
				S3.9,30.5,3.9,31c0.1,2.7-0.3,5.5,0.3,8.2c-0.1,0-0.2,0.1-0.3,0.1c-1.2,0-2.6,0.4-3.5-0.2s0-2.1,0-3.2c-0.1-3.7-0.1-7.4-0.1-11.1
				c0-0.6,0.3-0.6,0.6-0.6C2,24.3,3,24.1,4.2,24.4z"/>
			<path class="st0" d="M27,24.2c2.2,0,4.1-0.1,6,0s2.6,0.8,3,2.3c0.4,1.5-0.3,2.6-1.6,3.3c-0.7,0.4-0.6,0.7,0,1.1
				c1.8,1.2,2.4,3.1,1.7,5.6c-0.5,1.8-2,2.8-4.1,2.8l-4.7-0.1c0-1.5,0.1-3.1,0.1-4.6c0-2.4,0-4.7,0-7.1C27.5,26.5,27.7,25.4,27,24.2
				z M32.7,34.6c-0.1-1-0.2-2-0.4-3c0-0.5-0.4-0.8-0.9-0.8c-0.1,0-0.1,0-0.2,0c-0.6,0.1-0.6,0.6-0.5,1c0.3,1.9,0.2,3.7,0,5.5
				c-0.1,0.5-0.2,1.1,0.6,1.2s0.9-0.5,1-1C32.4,37.1,32.6,35.6,32.7,34.6z M31.1,27.7L31.1,27.7c-0.1,0.5-0.1,1-0.1,1.5
				s0.1,0.7,0.5,0.7c0.3,0,0.6-0.1,0.8-0.4c0.5-0.7,0.4-3.7-0.1-4.4c-0.2-0.3-0.6-0.5-1-0.3c-0.4,0.2-0.3,0.5-0.3,0.8
				C30.9,26.1,31,27.1,31.1,27.7z"/>
			<path class="st0" d="M37.5,24.5l0.4-0.2c3.9-0.2,3.8-0.2,4.7,3.8c0.1,0.5-0.3,1.7,0.8,1.4s0.9-1.3,0.6-2.1
				c-0.3-0.8-0.5-0.9-0.6-1.3s-0.3-1.1,0.1-1.6c0.3-0.4,0.8-0.5,1.3-0.4c0.7,0.2,0.9,0.7,1,1.4c0.2,1.2-0.2,2.5-0.9,3.5
				c-1.1,1.4-1.3,3-0.6,4.7c0.6,1.7,0.8,3.8,2.1,5.7h-3.5c-0.7,0-0.9-0.6-1-1.1c-0.5-1.4-1-2.9-1.2-4.4c0-0.4,0.1-0.9-0.4-0.9
				c-0.5,0-0.5,0.5-0.7,0.8c-0.5,0.9-0.4,2,0.1,2.9c0.3,0.4,0.5,0.9,0.7,1.3c0.4,0.9,0.6,1.8-0.5,2.3c-1.1,0.5-2.1-0.2-2.4-1.3
				c-0.3-1.2-0.2-3.1,0.6-4.4c1.8-2.5,1.4-5.1,0.5-7.7C38.2,26,38.1,25.2,37.5,24.5z"/>
			<path class="st0" d="M49.8,39.3h-3.1c0.7-0.8,1.1-1.5,1.2-2.5c0.4-3.2,1-6.4,1.9-9.5c0.2-0.6,0.5-1.3-0.1-1.9s-0.5-1.1,0.5-1.1
				c3.6-0.1,3.7-0.2,4.2,3.7c0.4,2.8,0.8,5.7,1.2,8.5c0.1,0.9,0.1,1.9,1.3,2.8h-5.4c0.9-1,0.7-2.2,0.6-3.3c-0.3-1.9-0.5-3.9-0.7-5.8
				c0-0.3,0-0.7-0.4-0.8c-0.3-0.1-0.6,0.1-0.7,0.4c0,0,0,0,0,0.1c-0.8,2.6-1.2,5.4-1.3,8.1C48.9,38.4,49.4,38.6,49.8,39.3z"/>
			<path class="st0" d="M109.1,47.1c1.9-7.3,2-14.3,0.4-21.3c-0.2-0.8-0.5-1.6-0.8-2.4c-0.8-1.7-1.7-1.7-2.7-0.2l-0.7,1
				c0.3-2.6,0.7-4.6,1.7-6.5s2-1.7,2.9,0c1,1.8,1.4,3.9,1.7,5.9c0.8,6.8,0.9,13.6-0.8,20.3C110.4,45.6,110.3,45.8,109.1,47.1z"/>
			<path class="st0" d="M25.5,31.6c0.2,2.1-0.3,4.5,0.2,7c0.1,0.4,0,0.6-0.4,0.7h-0.5c-1,0-2.1,0.3-2.9-0.1c-0.7-0.4,0.1-1.7,0-2.6
				c-0.1-3.9-0.1-7.7-0.2-11.6c0-0.7,0.2-0.7,0.6-0.7h2.3c0.6,0,0.8,0.1,0.8,0.8C25.5,27.1,25.5,29.2,25.5,31.6z"/>
			<path class="st0" d="M59.8,39.3h-1.6c-0.5,0-0.7,0-0.6-0.7c0.4-4.4,0.2-8.8,0.1-13.2c0-1,0.2-1.1,1-1.1c2.6,0,2.6-0.1,2.6,2.6
				c0,3.2,0,6.5,0,9.7c0,0.3,0,0.6,0,0.8C62,39.4,61,39.6,59.8,39.3z"/>
			<path class="st0" d="M96.3,44.1c-0.2-3.1-0.6-6.3-1.5-9.3c-0.1-0.4-0.3-0.8-0.5-1.2c-0.5-0.8-0.8-2-2-2c-1.2,0-1.4,1.1-1.8,1.9
				c-0.1,0.3-0.3,0.6-0.6,0.8c0.2-2.1,0.6-4.1,1.7-5.9s2.2-1.7,3.2,0.1c1.5,2.7,1.8,5.7,2.2,8.7C97.8,43.9,96.6,49,96.3,44.1z"/>
			<path class="st0" d="M123.2,32.5c0.2-1.8,0.4-3.1,0.5-4.5c0.3-3.9,0.2-7.8-1-11.6c-0.4-1.1-0.8-2.2-2.5-1.4
				c0.3-1.2,0.6-2.3,0.9-3.4c0.4-1,0.5-1.8,1.5-1.7c1,0.1,1.2,1,1.5,1.8c0.4,1.1,0.6,2.3,0.8,3.4c0.7,4.6,0.6,9.3-0.2,13.8
				C124.4,30.1,124.2,31.2,123.2,32.5z"/>
			<path class="st0" d="M23.6,21.8c-0.2,0.9-0.8,1.3-1.6,1.4c-0.8,0.1-1.2-0.1-1.1-0.8c0.1-0.7,0.7-1.3,1.6-1.4
				C23.3,20.9,23.5,21.1,23.6,21.8z"/>
			<path class="st0" d="M26.9,21.9c-0.2,0.9-0.8,1.2-1.6,1.3c-0.8,0.1-1.1-0.2-1-0.9c0.1-0.7,0.8-1.2,1.6-1.3
				C26.6,20.9,26.8,21.1,26.9,21.9z"/>
		</g>
	</g>
</g>
</svg>
