<?xml version="1.0" encoding="utf-8"?>
<!-- Generator: Adobe Illustrator 21.0.2, SVG Export Plug-In . SVG Version: 6.00 Build 0)  -->
<svg version="1.1" id="Layer_1" xmlns="http://www.w3.org/2000/svg" xmlns:xlink="http://www.w3.org/1999/xlink" x="0px" y="0px"
	 viewBox="0 0 78 78" style="enable-background:new 0 0 78 78;" xml:space="preserve">
<style type="text/css">
	.st0{fill:#003F6F;}
</style>
<title>malinovsky</title>
<g id="Layer_2">
	<g id="Layer_1-2">
		<g id="cbtMjd.tif">
			<path class="st0" d="M38.9,63.5L38,62.8C27.9,52.7,17.8,42.7,7.7,32.6c-0.7-0.7-0.7-1.1,0-1.8C17.9,20.7,28,10.6,38,0.5
				c0.6-0.6,1-0.7,1.7,0C49.8,10.6,60,20.7,70.2,30.8c0.7,0.7,0.6,1,0,1.7L39.7,62.9C39.4,63.1,39.2,63.3,38.9,63.5z M67.6,31.7
				c-0.3-0.3-0.5-0.6-0.7-0.8c-9.1-9-18.1-18.1-27.2-27.2C39,2.9,38.6,3.1,38,3.7c-9,9-18,18-27.1,27c-0.7,0.7-0.7,1.1,0,1.8
				c9,9,18.1,18,27.1,27c0.6,0.6,1.1,0.8,1.8,0.1c9-9.1,18.1-18.1,27.2-27.2C67.1,32.2,67.4,32,67.6,31.7L67.6,31.7z"/>
			<path class="st0" d="M3.5,39.8l2.7-1.9c0.5-0.4,0.9-0.6,1.4,0c0.5,0.6-0.1,0.8-0.4,1.1c-1.2,1.2-2.4,2.4-3.6,3.6
				c-0.2,0.2-0.4,0.4-0.6,0.2s-0.1-0.5,0.1-0.8c0.9-0.9,1.8-1.9,2.6-3l-3.2,2.2c-0.3,0.2-0.5,0.5-0.9,0.2s-0.1-0.7,0.2-1
				c0.7-1,1.4-2.1,2.1-3.2C2.7,37.9,1.9,39,1,39.8C0.7,40,0.5,40.5,0.1,40c-0.4-0.4,0.1-0.5,0.3-0.8l3.8-3.7
				c0.2-0.2,0.5-0.6,0.9-0.2c0.4,0.4,0.6,0.7,0.2,1.2c-0.7,1-1.3,2-2,3L3.5,39.8z"/>
			<path class="st0" d="M26.9,57.2c0.7,0.6,1.5,1.2,1.9,2.1c0.4,0.9-0.1,1.6-0.9,2c-0.6,0.2-1.1,0.8-1.3,1.5
				c-0.2,0.9-1.2,1.5-2.1,1.3c-1.1-0.2-1.7-1.1-2.3-2c-0.1-0.1,0.2-0.5,0.3-0.6l3.7-3.7L26.9,57.2z M26,62c-0.1-0.7-0.6-1.3-1.2-1.4
				s-1.2,0.6-1.2,1.2s0.6,1.2,1.3,1.2C25.6,63.2,25.9,62.7,26,62z M27.1,60.9c0.4-0.2,0.9-0.5,0.8-1.1c-0.1-0.6-0.5-1.1-1.1-1.1
				c-0.6,0-1,0.5-1.1,1C25.8,60.3,26.4,60.7,27.1,60.9z"/>
			<path class="st0" d="M37,71.4c-1.3-0.2-2.2,0.4-3.2,0.7c-0.5,0.2-1.1,0.7-1.5,0.1c-0.4-0.6,0.4-0.8,0.7-1.1
				c1.1-1.2,2.2-2.3,3.4-3.4c0.2-0.2,0.5-0.5,0.8-0.2s0,0.5-0.2,0.7c-0.9,0.8-1.7,1.6-2.4,2.5c1.4,0,2.4-0.7,3.6-1.1
				c0.4-0.1,0.9-0.4,1.2,0.1c0.3,0.5-0.2,0.7-0.5,0.9c-1.2,1.2-2.3,2.4-3.5,3.5c-0.2,0.2-0.5,0.6-0.9,0.2s0.1-0.5,0.3-0.7L37,71.4z"
				/>
			<path class="st0" d="M25.2,56.1c0.1,1.8-2.5,4.3-4.3,4.2c-1.3-0.1-2.2-1.2-1.8-2.4c0.5-1.7,1.8-3,3.4-3.6c1-0.4,2.2,0.1,2.6,1.2
				C25.2,55.6,25.2,55.9,25.2,56.1z M24.2,56.3c-0.1-0.8-0.6-1.4-1.5-1.1c-1.2,0.3-2.2,1.3-2.6,2.5c-0.3,0.9,0.1,1.6,1.2,1.6
				C22.4,59.3,24.2,57.5,24.2,56.3z"/>
			<path class="st0" d="M40.4,74.5l-3.5,1.3c-0.4,0.2-0.8,0.3-1.1-0.2s0.2-0.6,0.4-0.8c1.1-1.2,2.3-2.3,3.4-3.4
				c0.2-0.2,0.5-0.8,0.9-0.5c0.4,0.4-0.2,0.8-0.5,1s-1.5,1.4-2.2,2l0.3,0.4l3.5-1.3c0.3-0.1,0.8-0.5,1.1,0c0.3,0.5-0.1,0.7-0.4,1
				l-3.6,3.6c-0.2,0.2-0.4,0.5-0.8,0.2s0-0.5,0.2-0.7l2.4-2.3L40.4,74.5z"/>
			<path class="st0" d="M13.8,49.9l3.5-1.4c0.4-0.2,0.8-0.3,1.1,0.1c0.3,0.5-0.2,0.6-0.4,0.8l-3.6,3.6c-0.2,0.2-0.4,0.5-0.8,0.2
				s0-0.5,0.2-0.8l2.6-2.6c-1.7,0.2-2.8,0.9-4,1.3c-0.3,0.1-0.7,0.3-0.9-0.1s0-0.6,0.2-0.8l3.9-3.9c0.2-0.2,0.5-0.5,0.7-0.1
				c0.3,0.4-0.1,0.5-0.3,0.7l-2.4,2.3L13.8,49.9z"/>
			<path class="st0" d="M78,41.3c-0.8-0.6-1.4-0.6-2,0.2s-1.7,1.2-0.1,2.3c-1.1-0.1-1.6-0.6-1.7-1.1c-0.5-1.6-1.6-2.7-2.7-3.7
				c-1.1-1.1-0.1-1.2,0.4-1.6c0.4-0.4,0.8-1.4,1.6-0.4C74.8,38.5,76.6,39.7,78,41.3z M75.7,40.6c0-0.2,0-0.3,0-0.4
				c-0.9-0.8-1.7-1.7-2.6-2.5c-0.3-0.2-0.5,0.1-0.8,0.3s-0.3,0.6,0,0.9s1.2,1.4,1.8,2.1c0.2,0.2,0.3,0.6,0.7,0.4
				C75.1,41.1,75.4,40.8,75.7,40.6L75.7,40.6z"/>
			<path class="st0" d="M31.9,67.5c-0.9,0.3-1.3,1-1.9,1.5s-0.5,0.4-0.8,0.1s-0.1-0.5,0.1-0.7l4.1-4c0.2-0.2,0.4-0.3,0.6-0.1
				c0.2,0.2,0.2,0.4,0,0.5c0,0-0.1,0.1-0.1,0.1l-1.9,1.5c1.2,0.6,1.6,0,2.1-0.2s0.9-0.5,1.4-0.3c0.2,0.1,0.3,0.2,0.4,0.4
				c0.1,0.2,0,0.3-0.2,0.4c0,0-0.1,0-0.1,0c-2.4-0.2-3.1,1.5-3.8,3.3c-0.2,0.4-0.1,1.2-0.9,0.8c-0.8-0.4-0.1-0.9,0.1-1.3
				C31.5,69.3,32.1,68.5,31.9,67.5z"/>
			<path class="st0" d="M13.6,45.5c-0.2-0.3-0.5-0.5-0.7-0.8s-0.6-0.1-0.9,0.2l-2.6,2.5c-0.4,0.4-0.8,0.8-1.5,0.5
				c-0.2-0.1-0.4-0.3-0.5-0.5c0-0.1,0.2-0.4,0.3-0.4c1.8-0.1,2.3-1.8,3.5-2.6c0.5-0.4,0.9-1.4,1.5-1.1s1.3,1.2,1.9,1.9
				s0,0.6-0.2,0.8l-3.8,3.9c-0.2,0.2-0.4,0.5-0.7,0.1s0-0.5,0.2-0.8l2.9-2.9C13.2,46,13.4,45.8,13.6,45.5z"/>
			<path class="st0" d="M17.3,57.1C17.2,57,17.1,57,17,56.9c-0.2-0.2-0.1-0.4,0.1-0.5c0.1-0.2,0.6-0.7,1-1s0.9-0.9,0.2-1.7
				s-1.1-0.4-1.7,0.1s-0.9,1.5-1.6,0.8c-0.7-0.7,0.6-1,1-1.4c0.9-1,2-2,3-3c0.2-0.2,0.5-0.6,0.9-0.2c0.4,0.4-0.2,0.6-0.3,0.8
				s-1.9,1-0.6,2.2c0.6,0.5,1,0.5,1.5-0.1c0.3-0.3,0.6-0.6,1-0.9c0.2-0.2,0.4-0.1,0.5,0c0.2,0.1,0.2,0.3,0.1,0.4c0,0,0,0.1-0.1,0.1
				l-4.3,4.3C17.6,57,17.5,57.1,17.3,57.1z"/>
			<path class="st0" d="M7,46.8c-0.6-0.2-0.6-0.6-0.3-1c0.3-0.4,0.4-1-0.2-1.5s-1-0.9-1.7-0.3c-0.7,0.5-0.7,0.4-0.9-0.1
				c-0.2-0.4,0.3-0.5,0.6-0.7l4.6-2.6c0.3-0.2,0.6-0.5,0.9-0.2s0.3,0.6,0.1,0.9l-2.8,5C7.3,46.5,7.1,46.7,7,46.8z M8.8,41.6
				l-1.6,0.9c-0.5,0.3-0.4,0.6-0.1,0.9s0.6,0.5,0.9-0.1C8.3,42.9,8.8,42.5,8.8,41.6L8.8,41.6z"/>
			<path class="st0" d="M70.5,46.6c-0.3,0.8-0.9,1.6-1.7,2c-0.6,0.3-0.9-0.5-1.2-0.8c-0.7-0.6-1.3-1.2-1.9-1.9
				c-0.4-0.4-1.2-0.7-0.9-1.4s0.9-1.4,1.8-1.5c0.9-0.1,1.3,0.4,1.5,1c0.1,0.4,0.5,0.8,0.9,0.8C69.9,45,70.3,45.7,70.5,46.6z
				 M69.5,46.4c-0.1-0.5-0.3-0.9-0.9-0.9c-0.5,0-1.2,0.4-1.2,1c0,0.5,0.5,0.9,1,1C69,47.5,69.3,46.9,69.5,46.4z M66.8,43.8
				c-0.5,0.2-0.9,0.5-1,0.9c0,0.5,0.3,0.8,0.8,0.9c0,0,0,0,0.1,0c0.6,0,1-0.5,1-1.1C67.6,44.1,67.2,43.9,66.8,43.8L66.8,43.8z"/>
			<path class="st0" d="M30.4,61.4c1.4,0,2.3,1.2,1.8,2.4c-0.1,0.3-0.2,0.6-0.6,0.5c-0.4,0-0.3-0.3-0.3-0.7c0-1.4-0.7-1.8-1.9-1.1
				c-0.8,0.5-1.4,1.1-1.9,1.9c-0.3,0.4-0.3,1,0,1.4c0.3,0.5,0.8,0.4,1.2,0.3s0.7-0.5,0.8,0.2s-0.3,0.6-0.6,0.7
				c-1.3,0.6-2.7-0.3-2.6-1.7C26.3,64.1,28.7,61.4,30.4,61.4z"/>
			<path class="st0" d="M67.9,49.3c-0.1,0.3-0.3,0.5-0.6,0.4c-1.9-0.2-2.1-0.1-1.8,1.7c0,0.2,0.1,0.4-0.1,0.5
				c-0.2,0.1-0.5-0.1-0.6-0.3l-2.4-4.2c-0.2-0.3-0.2-0.6,0.1-0.8s0.5-0.1,0.7,0l4.2,2.4C67.6,49.1,67.8,49.2,67.9,49.3z"/>
			<path class="st0" d="M61.4,55.4c0,0.9-0.7,1.7-1.6,1.7c-0.2,0-0.4,0-0.6-0.1c-1.5-0.4-2.6-1.6-3.1-3.1c-0.3-1,0.5-2.1,1.6-2.1
				C58.8,51.9,61.4,53.9,61.4,55.4z M59.6,56.3c0.5,0,1-0.4,1-0.9c0-0.1,0-0.1,0-0.2c0-0.9-1.6-2.5-2.5-2.5c-0.6,0-1.1,0.4-1.1,1
				c0,0,0,0.1,0,0.1C56.9,54.7,58.5,56.3,59.6,56.3L59.6,56.3z"/>
			<path class="st0" d="M73.3,43.2c0,1.5-1,2.3-2.2,1.9c-1.3-0.4-2.3-1.4-2.8-2.6c-0.3-0.7-0.3-1.5,0.3-2.1c0.7-0.6,1.4-0.6,2.1-0.2
				C72.1,40.9,73.1,41.8,73.3,43.2z M72.5,43.3c0-0.9-1.5-2.5-2.4-2.5s-1.1,0.4-1.1,1.1c0,0.8,1.6,2.5,2.5,2.5c0.5,0,1-0.4,1-0.9
				C72.5,43.4,72.5,43.4,72.5,43.3z"/>
			<path class="st0" d="M51.1,62.3c0,0.4-0.3,0.6-0.6,0.8s-0.6,0.9,0,1.5c0.6,0.6,0.9,0.2,1.4-0.2l0.7-0.6c0.2-0.2,0.4-0.2,0.5,0
				l0,0c0.2,0.1,0.2,0.4,0.1,0.5c-0.6,1.5-2,1.8-3.1,0.7l-2.2-2.2c-0.3-0.3-0.9-0.6-0.3-1.1c0.6-0.5,1-1.3,1.8-1.5
				c0.3-0.1,0.5,0.4,0.2,0.7c-0.2,0.3-0.5,0.5-0.7,0.8c-0.4,0.4-0.5,0.7,0,1.1s0.8,0.3,1.2-0.1l0.6-0.6C50.8,61.7,50.9,62,51.1,62.3
				z"/>
			<path class="st0" d="M52.3,60.4c0-1-0.8-1.5-0.8-2.4c0-0.3,0-0.5,0.3-0.6c0.3-0.1,0.4,0.1,0.4,0.4c0,1.6,0.9,2.4,2.3,2.8
				c0.3,0.1,0.6,0.3,0.9,0.5c0.2,0.1,0.4,0.2,0.3,0.4c-0.1,0.2-0.4,0.3-0.6,0.2c-0.7-0.2-1.4-0.8-2.3-0.8c0.1,0.8,0.8,1.1,1.2,1.6
				s0.4,0.4,0.2,0.6c-0.3,0.3-0.5,0.1-0.6-0.1l-3.4-3.4c-0.2-0.2-0.2-0.3-0.1-0.5c0.2-0.2,0.4-0.1,0.5,0
				C50.7,59.3,51.4,60.1,52.3,60.4z"/>
			<path class="st0" d="M58.4,59c-1.2-0.7-1.9-1.8-2.9-2.7c-0.4-0.4-0.7-0.7-1.2-0.2c-0.5,0.5-0.2,0.9,0.2,1.2l2.1,2.2
				c0.3,0.3,0.4,0.7,0.2,1.1c-0.1,0.2-0.3,0.3-0.5,0.3S56.1,60.3,56,60c-0.6-1.1-1.6-1.9-2.6-2.7c-0.9-0.8-0.2-1.3,0.3-1.9
				s0.9-1.1,1.7-0.2c0.8,0.9,2.2,2.2,3.3,3.4L58.4,59z"/>
			<path class="st0" d="M43.6,66c0.4,0.1,0.9-0.1,1,0.4c0.1,0.5-0.5,0.3-0.8,0.4c-0.3,0-0.9,0.4-0.9,1s1.7,2.5,2.6,2.5
				c0.9,0,1.1-0.5,0.9-1.2c-0.2-0.8-0.2-0.7,0.3-0.7s0.4,0.3,0.5,0.5c0.4,0.8,0.1,1.7-0.7,2c-0.3,0.2-0.7,0.2-1.1,0.1
				c-1.3-0.2-3.1-2.1-3.2-3.3c-0.1-0.8,0.4-1.5,1.2-1.7C43.5,66,43.6,66,43.6,66z"/>
			<path class="st0" d="M59.5,51.3c-0.7-0.9-0.5-1.6,0.3-2.1c0.5-0.4,1.3-0.3,1.7,0.2c0.1,0.1,0.2,0.2,0.2,0.3
				c0.3,0.8,0.9,1,1.6,1.4s1.2,1.1,0.9,2c-0.2,0.7-0.9,1.2-1.7,1c-0.2,0-0.5-0.1-0.6-0.4c0-0.3,0.2-0.4,0.5-0.4s1.1-0.2,1-0.9
				c-0.1-0.7-0.6-0.9-1.3-0.7s-0.7,0.1-0.6-0.4s-0.1-1.4-0.9-1.4C59.7,49.9,60.1,50.8,59.5,51.3z"/>
			<path class="st0" d="M49.4,67.9c-1.2-0.5-1.9-1.5-2.8-2.3c-0.5-0.4-0.8-1.2-1.6-0.4c-0.2,0.2-0.5,0.1-0.6-0.1s0.1-0.5,0.2-0.6
				c0.3-0.4,0.7-0.7,1.1-1.1c0.3-0.2,0.4-0.8,0.9-0.5c0.5,0.3,0.1,0.6-0.2,0.9s0.2,0.8,0.4,1.1C47.8,65.9,48.9,66.6,49.4,67.9z"/>
			<path class="st0" d="M61.7,28.6c-0.3,0.8-1.1,1.1-1.5,1.7c-0.9,1.2-1.6,1.1-2.6,0c-2.8-2.9-5.7-5.7-8.5-8.6
				c-0.7-0.8-1.2-0.8-2-0.1c-2.2,2.1-4.6,4.1-6.9,6.2c-0.7,0.6-1.1,0.6-1.7,0c-2.1-2-4.3-3.9-6.3-5.9c-1-1-1.6-0.8-2.5,0.1
				c-3,3.1-6.1,6.1-9.1,9.2c-0.7,0.7-1.1,0.7-1.8,0.1c-2.5-2.3-2.5-2.2-0.2-4.6c3.6-3.6,7.2-7.2,10.7-10.9c1-1.1,1.6-1,2.6,0
				c2,2,4.2,3.8,6.2,5.8c0.8,0.8,1.3,0.7,2.1,0c2.3-2.1,4.7-4.1,6.9-6.2c0.7-0.6,1.1-0.6,1.7,0.1c4,4.2,8.1,8.4,12.1,12.6L61.7,28.6
				z"/>
		</g>
	</g>
</g>
</svg>
