<?xml version="1.0" encoding="utf-8"?>
<!-- Generator: Adobe Illustrator 21.0.2, SVG Export Plug-In . SVG Version: 6.00 Build 0)  -->
<svg version="1.1" id="Isolation_Mode" xmlns="http://www.w3.org/2000/svg" xmlns:xlink="http://www.w3.org/1999/xlink" x="0px"
	 y="0px" viewBox="0 0 107.3 34.5" style="enable-background:new 0 0 107.3 34.5;" xml:space="preserve">
<style type="text/css">
	.st0{fill:#E3000F;}
</style>
<g>
	<path class="st0" d="M7.3,8c-0.1,0-0.1,0-0.2,0.1s-0.1,0-0.2,0c-0.2,0-0.3,0.1-0.5,0.1c-0.2,0-0.3,0-0.5,0.1
		c-0.2,0-0.5,0.1-0.7,0.1c-0.2,0-0.5,0-0.7,0c-0.1,0-0.2,0-0.3,0s-0.2,0-0.3,0c-0.1,0-0.1,0-0.2,0c0,0-0.1,0-0.2,0
		c-0.2,0-0.3,0-0.5,0c-0.2,0-0.3,0-0.5,0c-0.7,0-1.3-0.1-1.8-0.2C0.2,8.2,0,7.9,0,7.5c0,0,0-0.1,0-0.2c0-0.1,0-0.1,0.1-0.2l1-2.4
		c0.4-0.9,1.5-1.7,3.3-2.3C6.2,1.9,8.1,1.4,10.2,1c1.7-0.3,3.4-0.5,4.9-0.6c1.6-0.1,2.7-0.2,3.5-0.2c0.2,0,0.4,0,0.6,0
		c0.2,0,0.4,0,0.5,0c0.2,0,0.4,0,0.6,0c0.2,0,0.4,0,0.5,0c0.4,0,0.8,0,1.3,0c0.4,0,0.9,0,1.3,0c0.7,0,1.4,0,2.1-0.1
		c0.7,0,1.4,0,2-0.1C27.8,0,28,0,28.2,0c0.2,0,0.4,0,0.6,0c-0.3,2.3-0.9,3.7-1.9,4.2c-1,0.5-2.1,0.7-3.2,0.7c-0.2,0-0.4,0-0.8,0
		c-0.4,0-0.8,0-1.2-0.1c-0.1,0-0.1,0-0.2,0c-0.1,0-0.1,0-0.2,0c-0.3,0-0.6,0-0.9-0.1c-0.3,0-0.5,0-0.6,0c-0.8,0.8-1.8,2-3.1,3.6
		c-1.2,1.6-3,4.5-5.4,8.5c-0.8,1.3-1.4,2.4-1.9,3.3c-0.5,0.9-1,1.7-1.4,2.5c0,0.1-0.1,0.2-0.1,0.3c0,0.1-0.1,0.2-0.1,0.2
		c-0.1,0.2-0.2,0.4-0.3,0.6c-0.1,0.2-0.2,0.4-0.4,0.7c-0.5,0.9-0.8,1.5-1.1,1.8c-0.3,0.4-0.5,0.6-0.8,0.7C5,27,4.9,27.1,4.8,27.1
		c-0.1,0-0.3,0-0.4,0.1c-0.1,0-0.2,0-0.3,0c-0.1,0-0.2,0-0.3,0c0,0-0.1,0-0.1,0s-0.1,0-0.1,0c-0.6,0-1-0.3-1.3-0.8
		c-0.3-0.6-0.5-1.2-0.6-1.8c-0.1-0.4-0.1-0.9-0.1-1.3c0-0.4,0-0.8,0-1c0-0.3,0-0.5,0.1-0.8c0-0.3,0.1-0.6,0.2-0.9
		c0.1-0.4,0.2-0.7,0.3-1c0.1-0.3,0.2-0.7,0.4-1c0.1-0.4,0.3-0.7,0.4-1c0.1-0.3,0.2-0.5,0.3-0.7c0,0,0,0,0.1-0.1c0,0,0,0,0-0.1
		c0.2-0.3,0.4-0.6,0.6-0.7c0.2-0.2,0.4-0.3,0.7-0.5c0.3-0.1,0.6-0.3,0.9-0.4c0.3-0.1,0.8-0.3,1.3-0.5c0,0,0.1,0,0.2-0.1
		c0.1,0,0.2-0.1,0.3-0.1c0,0,0,0,0.1,0s0,0,0.1,0c0.1-0.1,0.3-0.1,0.4-0.1s0.2,0,0.2,0c0,0.1-0.1,0.2-0.3,0.5
		C7.3,15,7,15.5,6.7,16.1c-0.5,0.8-0.8,1.5-1,2c-0.1,0.5-0.2,0.9-0.2,1.3c0,0.6,0.1,1.1,0.3,1.5c0.2,0.4,0.4,0.8,0.6,1.2
		c0.8-1.4,1.6-2.8,2.3-4.2c0.7-1.3,1.4-2.6,2.1-3.8c0.6-1.1,1.3-2.2,1.9-3.2c0.6-1,1.3-2.1,2-3.1c0.3-0.5,0.7-1.1,1.1-1.6
		c0.4-0.5,0.8-1.1,1.2-1.6c-0.7,0-1.5,0.1-2.4,0.2c-0.9,0.1-1.9,0.2-2.8,0.3C10.5,5.4,9.3,5.6,8.2,6c-1.1,0.3-2,0.7-2.7,1.2L7.3,8z"
		/>
	<path class="st0" d="M33.5,15.3c0.1,0.2,0.2,0.5,0.3,0.7c0,0.1,0,0.2,0.1,0.2c0,0.1,0,0.2,0,0.2c0,0.1-0.1,0.4-0.3,0.7
		c-0.2,0.3-0.5,0.9-1,1.7c-0.4,0.6-0.7,1.1-1,1.6c-0.3,0.5-0.4,0.9-0.5,1.3c0,0,0,0.1,0,0.1c0,0,0,0.1,0,0.1c0,0.4,0.1,0.7,0.3,0.9
		c0.2,0.2,0.4,0.3,0.6,0.4c0.1,0,0.1,0,0.2,0.1c0.1,0,0.1,0,0.2,0c0.3,0,0.6-0.1,0.9-0.2c0.3-0.1,0.6-0.3,0.9-0.5
		c0,0,0.1-0.1,0.2-0.1c0.1,0,0.1-0.1,0.2-0.1c0.1,0,0.2-0.1,0.3-0.2c0.1-0.1,0.2-0.1,0.3-0.2c0.4-0.2,0.6-0.4,0.8-0.5
		c0.2-0.1,0.3-0.2,0.4-0.3c0,0,0,0,0.1,0c0,0,0,0,0.1,0c0,0,0.1,0,0.1,0.1c0,0,0.1,0.1,0.1,0.1c0,0.1-0.2,0.4-0.5,0.7
		c-0.3,0.3-0.9,0.9-1.7,1.7c-0.1,0.1-0.3,0.3-0.5,0.5c-0.2,0.2-0.4,0.4-0.6,0.5c-0.4,0.4-0.8,0.7-1.3,1c-0.5,0.3-0.9,0.5-1.4,0.7
		c-0.1,0-0.2,0.1-0.4,0.1c-0.1,0-0.2,0-0.4,0c0,0-0.1,0-0.2,0c-0.1,0-0.1,0-0.2,0c-0.4,0-0.8-0.2-1.1-0.5c-0.3-0.3-0.5-0.7-0.5-1.3
		c0-0.4,0-0.8,0.1-1.2c0.1-0.4,0.2-0.7,0.3-1c0.1-0.2,0.1-0.4,0.2-0.6c0.1-0.2,0.1-0.3,0.2-0.4c0,0,0-0.1,0.1-0.1c0,0,0-0.1,0-0.1
		c0,0,0,0,0.1-0.1c0,0,0,0,0-0.1c0.1-0.1,0.1-0.3,0.2-0.4c0.1-0.2,0.2-0.4,0.3-0.6c-2.3,2.4-4,4-5.1,4.7c-1.1,0.7-1.8,1.1-2.2,1.1
		c-0.5,0-0.8-0.3-1.2-0.8c-0.3-0.6-0.6-1.2-0.7-1.8c-0.1-0.3-0.1-0.6-0.2-0.9c0-0.3-0.1-0.6-0.1-0.8c0-0.9,0.3-1.8,0.8-2.6
		c0.6-0.8,1.2-1.6,1.8-2.2c0.5-0.4,0.9-0.8,1.3-1.1c0.4-0.3,0.8-0.6,1-0.7c0.2-0.2,0.5-0.4,0.9-0.6c0.3-0.2,0.7-0.4,1.1-0.6
		c0.3-0.2,0.6-0.3,1-0.5c0.3-0.2,0.7-0.3,1-0.5c0.7-0.3,1.3-0.6,1.9-0.8c0.6-0.2,1.2-0.3,1.6-0.3c0.4,0,0.8,0.1,1.1,0.3
		c0.3,0.2,0.5,0.4,0.6,0.7c0,0,0,0.1,0.1,0.1c0,0,0,0.1,0,0.1c0,0.1,0,0.3-0.1,0.4c-0.1,0.1-0.2,0.2-0.3,0.3c0,0-0.1,0.1-0.1,0.1
		c0,0-0.1,0.1-0.1,0.1s0,0-0.1,0.1c0,0,0,0-0.1,0l0,0c0,0-0.1,0.1-0.1,0.1c0,0-0.1,0.1-0.1,0.2C33.3,14.8,33.4,15.1,33.5,15.3z
		 M22,22.2c0,0,0,0.1,0,0.1c0,0.2,0.1,0.3,0.2,0.5c0.1,0.2,0.2,0.3,0.3,0.3c0,0,0.1,0,0.1,0s0.1,0,0.1,0c0,0,0.1,0,0.1,0
		c0,0,0.1,0,0.1,0c0.3-0.1,0.8-0.3,1.4-0.6c0.6-0.3,1.5-0.9,2.5-1.8c0.1-0.1,0.4-0.3,0.7-0.6c0.3-0.3,0.7-0.6,1-1
		c0.1-0.1,0.2-0.2,0.3-0.3c0.1-0.1,0.2-0.2,0.3-0.3c0.3-0.4,0.6-0.8,0.9-1.1c0.3-0.4,0.4-0.6,0.4-0.9c0-0.1,0-0.2-0.1-0.3
		c-0.1-0.1-0.2-0.1-0.3-0.1c-0.1,0-0.1,0-0.2,0c0,0-0.1,0-0.1,0c-0.3,0-0.6,0-1,0.1c-0.3,0.1-0.7,0.2-1,0.3c-1.1,0.3-2.1,0.9-3,1.6
		c-1,0.7-1.7,1.5-2.2,2.3c-0.2,0.3-0.3,0.6-0.4,0.9C22,21.5,22,21.8,22,22.1C22,22.1,22,22.2,22,22.2z"/>
	<path class="st0" d="M46.5,18.9c-0.6,0.3-1.4,0.7-2.3,1.4c-0.9,0.7-2.2,2-4,3.9c0,0-0.1,0.1-0.1,0.1c0,0-0.1,0.1-0.1,0.1
		c-0.4,0.5-0.8,0.9-1.2,1.2c-0.4,0.4-0.7,0.5-1,0.5c0,0,0,0-0.1,0s0,0-0.1,0c-0.3,0-0.6-0.3-0.8-0.7c-0.3-0.4-0.4-0.9-0.4-1.4
		c0-0.3,0-0.6,0.1-0.9c0.1-0.3,0.2-0.7,0.3-1c0.2-0.5,0.4-0.9,0.6-1.4c0.3-0.4,0.5-0.8,0.8-1.1c0.1-0.2,0.3-0.3,0.4-0.4
		c0.1-0.1,0.3-0.1,0.4-0.1s0.2,0,0.3,0.1c0.1,0,0.1,0.1,0.1,0.1c0,0,0,0.1-0.1,0.2c0,0.1-0.1,0.2-0.1,0.3c-0.2,0.4-0.3,0.7-0.3,1.1
		c0,0.3-0.1,0.6-0.1,0.9c0,0.1,0,0.1,0,0.2s0,0.1,0,0.2c0,0,0,0.1,0,0.1c0,0,0,0.1,0,0.1c0,0,0,0.1,0,0.1c0,0,0,0.1,0,0.1
		c0,0.1,0.1,0.3,0.1,0.4c0,0.1,0.1,0.2,0.2,0.2c0.3,0,0.8-0.6,1.7-1.7c0.9-1.1,2.1-2.4,3.6-3.7c0.2-0.2,0.5-0.4,0.8-0.7
		c0.3-0.3,0.7-0.6,1.1-0.9c0.1-0.1,0.2-0.1,0.3-0.2c0.1-0.1,0.2-0.2,0.3-0.2c0.6-0.4,1.1-0.8,1.6-1.1c0.5-0.3,0.9-0.5,1.1-0.5
		c0.2,0,0.3,0.1,0.5,0.3c0.1,0.2,0.3,0.5,0.3,0.7c0.1,0.2,0.1,0.3,0.1,0.5c0,0.2,0,0.3,0,0.4c0,0.1-0.1,0.3-0.2,0.5
		c-0.1,0.2-0.3,0.4-0.4,0.6c0,0-0.1,0.1-0.1,0.1c0,0-0.1,0.1-0.1,0.1c-0.2,0.2-0.3,0.3-0.5,0.5s-0.3,0.3-0.3,0.4
		c-0.1,0.1-0.2,0.3-0.3,0.4c-0.1,0.1-0.2,0.3-0.3,0.4c-0.1,0.2-0.3,0.4-0.4,0.6c-0.1,0.2-0.3,0.4-0.4,0.6c-0.1,0.3-0.3,0.5-0.4,0.8
		c-0.1,0.3-0.1,0.5-0.1,0.8c0,0,0,0.1,0,0.1s0,0.1,0,0.1c0,0.2,0.1,0.3,0.3,0.5c0.2,0.1,0.4,0.2,0.8,0.2c0.2,0,0.4,0,0.6-0.1
		c0.2-0.1,0.4-0.2,0.7-0.4c0.2-0.1,0.3-0.2,0.5-0.3c0.2-0.1,0.3-0.3,0.5-0.4c0.1-0.1,0.3-0.2,0.4-0.4c0.1-0.1,0.2-0.2,0.3-0.3
		c0.1-0.1,0.2-0.2,0.3-0.3c0.1-0.1,0.2-0.1,0.3-0.1c0.1,0,0.1,0,0.2,0.1c0.1,0.1,0.1,0.2,0.1,0.3c0,0.2-0.1,0.4-0.4,0.7
		c-0.3,0.3-0.7,0.8-1.2,1.4c-0.1,0.2-0.4,0.4-0.7,0.7c-0.3,0.3-0.7,0.6-1.1,1c-0.2,0.1-0.3,0.3-0.5,0.4c-0.2,0.1-0.3,0.3-0.5,0.4
		c-0.4,0.3-0.8,0.5-1.2,0.7c-0.4,0.2-0.7,0.3-1,0.3c0,0,0,0-0.1,0s0,0-0.1,0c-0.5,0-0.9-0.3-1.2-0.7c-0.4-0.4-0.6-1.1-0.6-2.1
		c0-0.5,0.1-1,0.3-1.4c0.2-0.4,0.4-0.8,0.6-1.1c0.1-0.1,0.1-0.2,0.2-0.3c0.1-0.1,0.1-0.2,0.2-0.3c0.1-0.1,0.1-0.2,0.2-0.3
		c0.1-0.1,0.1-0.2,0.2-0.3c0,0,0-0.1,0.1-0.1c0.1-0.2,0.3-0.4,0.4-0.6C46.1,19.4,46.3,19.2,46.5,18.9C46.6,18.9,46.5,18.9,46.5,18.9
		z"/>
	<path class="st0" d="M55.5,21.4c0,0.1,0,0.1,0,0.2c0,0.1,0,0.3,0,0.4c0,0.2,0,0.3,0.1,0.5c0.1,0.4,0.3,0.8,0.6,1.1
		c0.3,0.3,0.8,0.5,1.4,0.5c0.2,0,0.4,0,0.6-0.1c0.2-0.1,0.5-0.1,0.7-0.2c0.2-0.1,0.4-0.1,0.6-0.2c0.2-0.1,0.4-0.2,0.5-0.2
		c0.3-0.1,0.5-0.3,0.7-0.4c0.2-0.1,0.4-0.2,0.5-0.3c0.9-0.6,1.4-0.9,1.7-1.2c0.2-0.2,0.4-0.3,0.5-0.4c0,0,0,0,0.1,0s0,0,0.1,0
		c0.1,0,0.1,0,0.2,0.1c0,0.1,0.1,0.2,0.1,0.4c0,0.1-0.1,0.2-0.2,0.4c-0.1,0.2-0.5,0.6-1,1.1c-0.2,0.2-0.5,0.5-0.8,0.8
		c-0.4,0.3-0.8,0.7-1.2,1.1c-0.5,0.4-0.9,0.7-1.5,1.1c-0.5,0.3-1.1,0.6-1.6,0.8c-0.3,0.1-0.5,0.2-0.8,0.3c-0.3,0.1-0.6,0.1-0.8,0.1
		c-0.9,0-1.7-0.3-2.4-1c-0.7-0.7-1.1-1.7-1.1-3.1c0-0.5,0.1-1.1,0.2-1.7c0.1-0.6,0.3-1.2,0.6-1.8c0.7-1.5,1.7-2.9,3-4.3
		c1.3-1.3,2.7-2.2,4.1-2.6c0.2,0,0.4-0.1,0.7-0.1c0.2,0,0.5-0.1,0.7-0.1c0.6,0,1.1,0.1,1.4,0.3c0.3,0.2,0.5,0.5,0.6,0.8
		c0,0.1,0.1,0.2,0.1,0.3c0,0.1,0,0.2,0,0.3c0,0.4-0.1,0.8-0.3,1.2c-0.2,0.4-0.5,0.9-0.9,1.3c-0.6,0.8-1.4,1.5-2.4,2.3
		c-1,0.7-2,1.3-3.1,1.6c-0.2,0.1-0.5,0.2-0.7,0.2c-0.3,0.1-0.5,0.1-0.7,0.2C55.5,21.3,55.5,21.3,55.5,21.4z M56.4,19.5
		c0.3-0.2,0.7-0.3,1-0.5c0.4-0.3,0.9-0.6,1.3-0.9c0.4-0.3,0.8-0.6,1.1-1c0.3-0.3,0.5-0.6,0.6-0.9s0.3-0.6,0.3-0.8
		c0-0.3,0-0.5-0.1-0.7c-0.1-0.2-0.3-0.3-0.6-0.3c-0.2,0-0.3,0-0.5,0.1c-0.2,0.1-0.3,0.1-0.5,0.2c-0.5,0.3-1,0.7-1.5,1.3
		c-0.5,0.6-0.9,1.2-1.2,1.9c-0.2,0.3-0.3,0.6-0.5,0.9c-0.1,0.3-0.2,0.6-0.3,0.9C55.8,19.8,56.1,19.7,56.4,19.5z"/>
	<path class="st0" d="M64.3,21.2c-0.2,0.2-0.4,0.4-0.5,0.4c-0.1,0-0.2,0.1-0.2,0.1c0,0,0,0-0.1,0c0,0-0.1,0-0.1-0.1
		c0,0-0.1,0-0.1-0.1c0,0,0-0.1,0-0.1c0,0,0-0.1,0-0.1c0-0.1,0.3-0.4,0.8-1c0.5-0.5,2-2,4.4-4.4c1.7-1.6,2.8-2.9,3.5-4
		c0.7-1,1.2-1.8,1.7-2.3C74,9.3,74.2,9.1,74.5,9c0.3-0.1,0.6-0.2,1-0.2c0.1,0,0.1,0,0.2,0c0.1,0,0.1,0,0.2,0.1
		c0.2,0,0.3,0.1,0.5,0.2c0.2,0.1,0.2,0.2,0.2,0.3c0,0,0,0,0,0.1c0,0,0,0-0.1,0.1c-1.8,2.4-3.1,4.1-3.8,5.2c-0.7,1.1-1.1,1.7-1.2,1.9
		c0,0-0.1,0.1-0.1,0.2c0,0.1-0.1,0.1-0.1,0.2c-0.1,0.2-0.2,0.4-0.3,0.6c-0.1,0.2-0.3,0.5-0.6,0.9c0.2-0.2,0.6-0.5,1-0.9
		c0.4-0.3,0.8-0.7,1.3-1.1c0.2-0.2,0.4-0.3,0.6-0.5s0.4-0.3,0.6-0.5c0.6-0.5,1.3-0.8,1.9-1.1c0.6-0.3,1.1-0.5,1.5-0.5
		c0,0,0.1,0,0.1,0s0.1,0,0.1,0c0.4,0.1,0.7,0.3,1,0.5c0.3,0.3,0.5,0.8,0.5,1.4c0,0.3-0.1,0.7-0.2,1c-0.1,0.3-0.2,0.7-0.4,1.1
		c-0.4,0.7-0.8,1.3-1.4,2c-0.6,0.6-1.1,1.2-1.7,1.8c-0.4,0.4-0.8,0.7-1.2,1c-0.4,0.3-0.8,0.6-1.1,0.8c0.4,0.2,0.7,0.3,1.1,0.3
		c0.4,0.1,0.8,0.1,1.2,0.1c0.7,0,1.3-0.1,1.8-0.4c0.6-0.2,1-0.5,1.4-0.8c0.3-0.2,0.5-0.4,0.7-0.6c0.2-0.2,0.3-0.3,0.4-0.4
		c0,0,0,0,0.1-0.1c0,0,0,0,0.1-0.1c0,0,0.1-0.1,0.1-0.1c0,0,0.1-0.1,0.2-0.1c0,0,0,0,0.1,0c0.1,0,0.1,0,0.2,0.1c0,0,0.1,0.1,0.1,0.1
		c0,0.1-0.1,0.2-0.2,0.5c-0.1,0.3-0.6,0.8-1.3,1.5c-0.6,0.6-1.3,1.1-2,1.5c-0.7,0.4-1.5,0.8-2.3,1c-0.7,0.3-1.5,0.5-2.2,0.6
		c-0.7,0.1-1.4,0.2-2,0.2c-0.4,0-0.8-0.1-1.2-0.2c-0.4-0.1-0.9-0.3-1.3-0.5c-0.2-0.1-0.5-0.2-0.7-0.3c-0.2-0.1-0.4-0.2-0.6-0.4
		c-1.3,2.7-2.1,4.7-2.6,5.9c-0.5,1.2-0.9,2-1.2,2.4c-0.1,0.1-0.2,0.2-0.3,0.3c-0.1,0-0.3,0.1-0.4,0.1c-0.3,0-0.5-0.1-0.6-0.4
		s-0.2-0.6-0.3-1c0,0,0-0.1,0-0.1c0,0,0-0.1,0-0.1c0-0.1,0.1-0.4,0.2-0.8c0.1-0.5,0.2-1,0.3-1.5c0,0,0-0.1,0-0.1c0,0,0-0.1,0-0.1
		c0.1-0.5,0.2-0.9,0.3-1.3c0.1-0.4,0.2-0.7,0.2-0.8c0.4-0.7,0.9-1.5,1.4-2.2s1.2-1.4,1.9-2l4.2-7.8L64.3,21.2z M69,22.8
		c0.3,0,0.5-0.1,0.8-0.1c0.3,0,0.5,0,0.7,0.1c0.2,0.1,0.4,0.1,0.6,0.2c0.1,0,0.2,0.1,0.3,0.1c0.1,0,0.1,0.1,0.2,0.1
		c0.4-0.3,0.8-0.6,1.1-0.9c0.3-0.3,0.7-0.7,1-1c0.5-0.5,0.9-1,1.2-1.5c0.3-0.5,0.5-0.9,0.6-1.2c0,0,0-0.1,0-0.2c0-0.1,0-0.1,0-0.2
		c0,0,0-0.1,0-0.1c0,0,0-0.1,0-0.1c0-0.1-0.2-0.3-0.3-0.4c-0.2-0.1-0.4-0.2-0.6-0.2c-0.5,0-1,0.2-1.7,0.7c-0.7,0.5-1.3,1.1-2.1,1.8
		c-0.3,0.3-0.7,0.7-1,1.1c-0.3,0.4-0.6,0.7-1,1.1c-0.1,0.1-0.2,0.3-0.4,0.4s-0.2,0.3-0.3,0.4C68.4,22.9,68.7,22.8,69,22.8z"/>
	<path class="st0" d="M83.7,21.4c0,0.1,0,0.1,0,0.2c0,0.1,0,0.3,0,0.4c0,0.2,0,0.3,0.1,0.5c0.1,0.4,0.3,0.8,0.6,1.1
		c0.3,0.3,0.8,0.5,1.4,0.5c0.2,0,0.4,0,0.6-0.1c0.2-0.1,0.5-0.1,0.7-0.2c0.2-0.1,0.4-0.1,0.6-0.2c0.2-0.1,0.4-0.2,0.5-0.2
		c0.3-0.1,0.5-0.3,0.7-0.4c0.2-0.1,0.4-0.2,0.5-0.3c0.9-0.6,1.4-0.9,1.7-1.2c0.2-0.2,0.4-0.3,0.5-0.4c0,0,0,0,0.1,0s0,0,0.1,0
		c0.1,0,0.1,0,0.2,0.1c0,0.1,0.1,0.2,0.1,0.4c0,0.1-0.1,0.2-0.2,0.4c-0.1,0.2-0.5,0.6-1,1.1c-0.2,0.2-0.5,0.5-0.8,0.8
		c-0.4,0.3-0.8,0.7-1.2,1.1c-0.5,0.4-0.9,0.7-1.5,1.1c-0.5,0.3-1.1,0.6-1.6,0.8c-0.3,0.1-0.5,0.2-0.8,0.3c-0.3,0.1-0.6,0.1-0.8,0.1
		c-0.9,0-1.7-0.3-2.4-1c-0.7-0.7-1.1-1.7-1.1-3.1c0-0.5,0.1-1.1,0.2-1.7c0.1-0.6,0.3-1.2,0.6-1.8c0.7-1.5,1.7-2.9,3-4.3
		c1.3-1.3,2.7-2.2,4.1-2.6c0.2,0,0.4-0.1,0.7-0.1c0.2,0,0.5-0.1,0.7-0.1c0.6,0,1.1,0.1,1.4,0.3c0.3,0.2,0.5,0.5,0.6,0.8
		c0,0.1,0.1,0.2,0.1,0.3c0,0.1,0,0.2,0,0.3c0,0.4-0.1,0.8-0.3,1.2c-0.2,0.4-0.5,0.9-0.9,1.3c-0.6,0.8-1.4,1.5-2.4,2.3
		c-1,0.7-2,1.3-3.1,1.6C85,20.9,84.7,21,84.5,21c-0.3,0.1-0.5,0.1-0.7,0.2C83.7,21.3,83.7,21.3,83.7,21.4z M84.7,19.5
		c0.3-0.2,0.7-0.3,1-0.5c0.4-0.3,0.9-0.6,1.3-0.9c0.4-0.3,0.8-0.6,1.1-1c0.3-0.3,0.5-0.6,0.6-0.9s0.3-0.6,0.3-0.8
		c0-0.3,0-0.5-0.1-0.7c-0.1-0.2-0.3-0.3-0.6-0.3c-0.2,0-0.3,0-0.5,0.1c-0.2,0.1-0.3,0.1-0.5,0.2c-0.5,0.3-1,0.7-1.5,1.3
		c-0.5,0.6-0.9,1.2-1.2,1.9c-0.2,0.3-0.3,0.6-0.5,0.9c-0.1,0.3-0.2,0.6-0.3,0.9C84,19.8,84.3,19.7,84.7,19.5z"/>
	<path class="st0" d="M102.9,18.6c0.3-0.1,0.6-0.2,0.8-0.3c0.8-0.4,1.3-0.7,1.6-1s0.5-0.4,0.7-0.4c0,0,0.1,0,0.1,0.1
		c0,0.1,0,0.1,0,0.2c0,0,0,0,0,0.1s0,0,0,0.1c0,0.1,0,0.2,0,0.3c0,0.1,0,0.2,0,0.3c0,0.5-0.1,0.8-0.1,1c0,0.2-0.1,0.3-0.3,0.5
		c-0.1,0.1-0.2,0.1-0.3,0.2c-0.1,0.1-0.2,0.1-0.3,0.2c-0.1,0.1-0.3,0.2-0.4,0.3c-0.2,0.1-0.3,0.2-0.5,0.4c-0.3,0.3-0.6,0.6-0.9,1
		c-0.3,0.4-0.4,0.8-0.4,1.4c0,0.3,0.1,0.5,0.2,0.6c0.1,0.1,0.3,0.2,0.6,0.2c0.2,0,0.4-0.1,0.7-0.2c0.3-0.1,0.8-0.4,1.5-0.9
		c0.3-0.2,0.5-0.3,0.6-0.4c0.1-0.1,0.3-0.1,0.4-0.1c0.2,0,0.3,0,0.3,0.1c0,0.1,0.1,0.2,0.1,0.3c0,0.2-0.2,0.4-0.5,0.8
		c-0.4,0.3-0.8,0.7-1.3,1c-0.2,0.1-0.4,0.2-0.6,0.4s-0.4,0.2-0.6,0.4c-0.6,0.4-1.2,0.7-1.8,0.9c-0.6,0.3-0.9,0.4-1.1,0.4
		c-0.5,0-0.8-0.1-1-0.3c-0.2-0.2-0.4-0.4-0.5-0.6c0,0,0-0.1-0.1-0.1c0,0,0-0.1,0-0.1c0-0.1,0-0.2-0.1-0.3c0-0.1,0-0.2,0-0.2
		c0-0.1,0-0.2,0-0.3c0-0.1,0-0.1,0-0.2c0-0.1,0-0.2,0.1-0.3c0-0.1,0-0.2,0.1-0.3c0.1-0.4,0.3-0.9,0.6-1.3c0.2-0.4,0.5-0.8,0.7-1.1
		c0-0.1,0.1-0.1,0.1-0.2c0,0,0.1-0.1,0.1-0.1c-0.4,0.3-0.7,0.4-1,0.6c-0.3,0.1-0.4,0.2-0.6,0.2c-2.1,3.2-3.9,5.3-5.3,6.4
		c-1.4,1.1-2.6,1.6-3.5,1.6c0,0-0.1,0-0.1,0c0,0-0.1,0-0.2,0c-0.3,0-0.6-0.1-0.8-0.2c-0.3-0.1-0.4-0.2-0.4-0.4v0
		c0-0.1,0-0.3,0.1-0.6c0.1-0.3,0.3-0.7,0.7-1.2c0.1-0.2,0.2-0.3,0.3-0.5c0.1-0.1,0.2-0.3,0.3-0.4c0,0,0.1-0.1,0.2-0.2
		c0.1-0.1,0.1-0.1,0.2-0.2c0.1-0.1,0.2-0.2,0.2-0.3c0.1-0.1,0.2-0.2,0.3-0.3c0.1,0.1,0.1,0.2,0.2,0.2c0.1,0.1,0.2,0.1,0.3,0.2
		c0.1,0,0.2,0.1,0.3,0.1c0.1,0,0.2,0,0.3,0c0.3,0,0.6-0.1,0.9-0.3c0.3-0.2,0.7-0.4,1-0.7c0.2-0.2,0.4-0.4,0.6-0.6
		c0.2-0.2,0.4-0.4,0.6-0.6c0.3-0.3,0.5-0.5,0.7-0.8s0.4-0.5,0.6-0.7c-0.6,0.3-1.1,0.5-1.6,0.6c-0.5,0.1-0.9,0.2-1.3,0.2h0
		c-0.6,0-1.1-0.1-1.4-0.4c-0.3-0.3-0.4-1.2-0.4-2.8c0-0.3,0.1-0.8,0.4-1.5c0.3-0.7,1.3-1.8,3-3.3c0.2-0.2,0.4-0.4,0.6-0.5
		c0.2-0.2,0.4-0.3,0.6-0.5c1.1-0.8,2.1-1.4,3.1-1.8c1-0.4,1.7-0.6,2.2-0.6c0.7,0,1.1,0.3,1.3,0.9c0.2,0.6,0.3,1.2,0.3,1.9
		c0,0.1,0,0.2,0,0.4c0,0.1,0,0.2,0,0.4c0,0.1,0,0.1,0,0.2c0,0.1,0,0.1,0,0.2c0,0.5-0.3,1-0.6,1.5c-0.4,0.5-1,1.2-1.8,2
		C102.3,18.8,102.6,18.7,102.9,18.6z M101.8,16.7c0.3-0.5,0.4-0.9,0.4-1.2c0-0.1,0-0.2-0.1-0.3c-0.1-0.1-0.2-0.1-0.3-0.1
		c-0.1,0-0.1,0-0.2,0c-0.1,0-0.1,0-0.2,0c-0.3,0-0.6,0-0.9,0.1c-0.3,0.1-0.6,0.2-1,0.3c-0.6,0.2-1.1,0.5-1.7,0.8
		c-0.5,0.3-1,0.7-1.4,1c-0.4,0.3-0.7,0.7-1,1C95.2,18.5,95,18.8,95,19c0,0.3,0.1,0.5,0.4,0.6c0.3,0.1,0.6,0.2,0.9,0.2
		c0.3,0,0.6,0,0.9,0c0.3,0,0.6,0,1-0.1c0.2,0,0.5-0.1,0.7-0.1c0.2,0,0.4-0.1,0.7-0.2C100.8,18.1,101.5,17.2,101.8,16.7z"/>
</g>
</svg>
