<?xml version="1.0" encoding="utf-8"?>
<!-- Generator: Adobe Illustrator 21.0.2, SVG Export Plug-In . SVG Version: 6.00 Build 0)  -->
<svg version="1.1" id="Слой_1" xmlns="http://www.w3.org/2000/svg" xmlns:xlink="http://www.w3.org/1999/xlink" x="0px" y="0px"
	 viewBox="0 0 512 512" style="enable-background:new 0 0 512 512;" xml:space="preserve">
<style type="text/css">
	.st0{fill:none;}
	.st1{fill:none;enable-background:new    ;}
	.st3 {fill:#8e5656}
</style>
<g>
	<path class="st3" d="M55,17c67.3,0,134.7,0,202,0c1.1,1.2,2.3,2.4,3.4,3.6c38.4,38.2,76.8,76.4,115.1,114.7c1.7,1.7,3.2,4.5,3.2,6.7
		c0.2,102,0.2,204,0.1,306c0,28.2-22.8,51.1-50.2,51.1c-88.8,0.1-177.7,0.1-266.5,0c-27.6,0-50.2-22.8-50.2-50.3c0-127,0-254,0-381
		c0-16.6,6.6-30.4,20-39.9C38.7,23,47.2,20.5,55,17z M347,151.2c-2.6,0-4.4,0-6.3,0c-19.3,0-38.7,0-58,0
		c-23.1,0-37.9-14.7-37.9-37.7c0-19.3,0-38.7,0-58c0-6.7,0-6.7-6.9-6.7c-57.7,0-115.3,0-173,0c-13.7,0-21.8,7.9-21.8,21.6
		c0,125.1,0,250.3,0,375.4c0,13.7,8.2,21.6,21.9,21.6c86.6,0,173.3,0,259.9,0c14.2,0,22-7.7,22-21.9c0-96.1,0-192.3,0-288.4
		C347,155.4,347,153.6,347,151.2z"/>
	<path class="st0" d="M55,17c-7.8,3.5-16.3,6-23.2,10.9c-13.4,9.5-20,23.3-20,39.9c0,127,0,254,0,381c0,27.5,22.7,50.3,50.2,50.3
		c88.8,0.1,177.7,0.1,266.5,0c27.4,0,50.2-22.9,50.2-51.1c0.2-102,0.1-204-0.1-306c0-2.3-1.5-5.1-3.2-6.7
		C337.2,97,298.8,58.8,260.4,20.6c-1.2-1.2-2.3-2.4-3.4-3.6c79.7,0,159.3,0,239,0c0,37.7,0,75.3,0,113
		c-4.7-15.5-15.9-20.7-31.5-18.9c0-4.9,0-9,0-13.1c0.1-6.5-1.1-12.6-4.9-18c-6.6-9.2-18.3-13.2-29.3-9.9
		c-11,3.3-18.4,13.3-18.4,25.2c0,105.3,0,210.6,0,316c0,1.1,0.1,2.2,0.2,3.6c17.6,0,34.8,0,52.6,0c0-57.2,0-114,0-170.3
		c3.6,2.5,6.7,5.8,10.5,7.2c8.9,3.3,16-1,20.8-11.7c0,86.7,0,173.3,0,260c-161.7,0-323.3,0-485,0c0-161,0-322,0-483
		C25.7,17,40.3,17,55,17z M411.9,425.8c6.7,15.3,13,30.2,19.8,44.9c0.9,2,4.5,3.9,6.7,3.8c2.3-0.1,5.3-2.2,6.4-4.3
		c2.9-5.2,4.9-10.9,7.3-16.3c4-9.2,8-18.4,12.2-28C446.5,425.8,429.5,425.8,411.9,425.8z"/>
	<path class="st3" d="M496,240c-4.8,10.7-11.9,15.1-20.8,11.7c-3.8-1.4-6.9-4.7-10.5-7.2c0,56.3,0,113.1,0,170.3c-17.9,0-35.1,0-52.6,0
		c-0.1-1.3-0.2-2.4-0.2-3.6c0-105.3,0-210.6,0-316c0-11.9,7.5-21.8,18.4-25.2c10.9-3.3,22.6,0.7,29.3,9.9c3.9,5.4,5,11.5,4.9,18
		c0,4.1,0,8.3,0,13.1c15.6-1.8,26.8,3.4,31.5,18.9C496,166.7,496,203.3,496,240z"/>
	<path class="st0" d="M347,151.2c0,2.5,0,4.3,0,6.1c0,96.1,0,192.3,0,288.4c0,14.1-7.8,21.9-22,21.9c-86.6,0-173.3,0-259.9,0
		c-13.7,0-21.9-8-21.9-21.6c0-125.1,0-250.3,0-375.4c0-13.7,8.1-21.6,21.8-21.6c57.7,0,115.3,0,173,0c6.9,0,6.9,0,6.9,6.7
		c0,19.3,0,38.7,0,58c0.1,23,14.9,37.7,37.9,37.7c19.3,0,38.7,0,58,0C342.6,151.2,344.4,151.2,347,151.2z M201.5,352
		c16.8,0,33.6,0,50.5,0c20.3,0,40.6,0.1,61,0c10.1,0,16.9-7,16.5-16.6c-0.4-9.2-7.2-15.2-17.5-15.2c-69.5,0-138.9,0-208.4,0
		c-4.8,0-9.7-0.1-14.5,0c-7.2,0.2-12.7,4-15.1,10.3c-4.1,10.9,3.7,21.5,16.1,21.5C127.3,352,164.4,352,201.5,352z M201.3,268
		c37,0,73.9,0,110.9,0c10.5,0,17.3-6.3,17.3-15.7c0-9.5-6.9-15.7-17.3-15.7c-73.9,0-147.9,0-221.8,0c-10.5,0-17.4,6.3-17.4,15.7
		c0,9.4,7,15.8,17.4,15.8C127.3,268,164.3,268,201.3,268z M146.2,184.2c18.8,0,37.6,0,56.5,0c10.2,0,17.4-6.6,17.3-15.9
		c0-9.1-7-15.7-17-15.8c-37.6-0.1-75.3-0.1-112.9,0.1c-3.3,0-7,1-9.9,2.7c-6,3.4-8.4,10.8-6.5,17.4c2,7,7.6,11.4,15.1,11.5
		C107.9,184.2,127,184.2,146.2,184.2z"/>
	<path class="st3" d="M411.9,425.8c17.7,0,34.7,0,52.4,0c-4.2,9.6-8.2,18.8-12.2,28c-2.4,5.5-4.4,11.1-7.3,16.3c-1.2,2.1-4.2,4.2-6.4,4.3
		c-2.3,0.1-5.8-1.8-6.7-3.8C424.8,456,418.5,441.1,411.9,425.8z"/>
	<path class="st3" d="M201.5,352c-37.1,0-74.3,0-111.4,0c-12.4,0-20.2-10.6-16.1-21.5c2.4-6.3,7.9-10.1,15.1-10.3c4.8-0.1,9.7,0,14.5,0
		c69.5,0,138.9,0,208.4,0c10.3,0,17.2,6,17.5,15.2c0.4,9.6-6.4,16.6-16.5,16.6c-20.3,0.1-40.6,0-61,0C235.2,352,218.4,352,201.5,352
		z"/>
	<path class="st3" d="M201.3,268c-37,0-73.9,0-110.9,0C80,268,73,261.6,73,252.2c0-9.4,6.9-15.7,17.4-15.7c73.9,0,147.9,0,221.8,0
		c10.5,0,17.3,6.2,17.3,15.7c0,9.5-6.9,15.7-17.3,15.7C275.2,268,238.2,268,201.3,268z"/>
	<path class="st3" d="M146.2,184.2c-19.2,0-38.3,0.1-57.5,0c-7.5,0-13.1-4.5-15.1-11.5c-1.9-6.6,0.6-14,6.5-17.4c2.9-1.6,6.6-2.6,9.9-2.7
		c37.6-0.2,75.3-0.2,112.9-0.1c10,0,17,6.7,17,15.8c0,9.3-7.1,15.8-17.3,15.9C183.8,184.2,165,184.2,146.2,184.2z"/>
</g>
<path class="st1" d="z"/>
</svg>
