<?xml version="1.0" encoding="utf-8"?>
<!-- Generator: Adobe Illustrator 21.0.2, SVG Export Plug-In . SVG Version: 6.00 Build 0)  -->
<svg version="1.1" id="Слой_1" xmlns="http://www.w3.org/2000/svg" xmlns:xlink="http://www.w3.org/1999/xlink" x="0px" y="0px"
	 viewBox="0 0 512 512" style="enable-background:new 0 0 512 512;" xml:space="preserve">
<style type="text/css">
	.st0{fill:none;}
	.st1{fill:none;enable-background:new    ;}
	.st3 {fill:#8e5656;}
</style>
<g>
	<path class="st0" d="M481,82c0,138,0,276,0,414c-157,0-314,0-471,0c0-161.3,0-322.7,0-484c157,0,314,0,471,0c0,21,0,42,0,63
		c-0.3-1-0.8-2.1-1-3.1c-2.7-15.8-10.8-27.8-25.2-35c-18.8-9.5-42.7-6.5-59.8,14.8c-3.6,4.5-3.3,11.3,1,15.6
		c16.2,16.5,32.6,32.9,49.1,49.1c4.6,4.5,11.1,4.7,16,0.6c8.6-7.2,15.3-15.8,17.9-26.9C479.7,87.4,480.3,84.7,481,82z M378,228.7
		c-1.9,1.8-3.1,2.8-4.2,3.9c-8.1,8.1-16.2,16.4-24.5,24.3c-2.7,2.5-3.5,5.2-3.5,8.7c0.2,58.7,0.3,117.3,0.4,176
		c0,13.5-7.8,21.8-21.2,21.8c-87,0.1-174,0.1-261,0c-13.4,0-21.5-8.1-21.5-21.6c0-125.3,0-250.7,0-376c0-13.4,8.2-21.4,21.5-21.4
		c58.2-0.1,116.3-0.2,174.5-0.3c1.7,0,3.5,0,5.5,0c0,22.8-0.2,44.8,0.1,66.8c0.1,15,7.2,25.9,20.6,32.8c4.6,2.4,8.1,2.6,12.1-1.9
		c6.4-7.3,13.5-13.8,20.4-20.6c11.2-11.2,22.4-22.3,34.8-34.7c-1.9-1.2-3.6-2-4.9-3.2c-22.4-22.2-44.7-44.4-66.9-66.7
		c-2.7-2.7-5.3-3.9-9.1-3.8c-62.3,0.1-124.7,0.1-187,0.1c-30.9,0-53.1,21.8-53.1,52.7c-0.1,125.7-0.1,251.3,0,377
		c0,30.4,21.9,52.5,52.3,52.6c87.5,0.2,175,0.2,262.5,0C356.1,495,378,472.5,378,442c0-69.2,0-138.3,0-207.5
		C378,232.9,378,231.3,378,228.7z M433.9,140c-2-3.2-3.3-6.9-5.9-9.4c-15.1-15.5-30.5-30.7-45.9-46c-6.8-6.8-13.5-6.8-20.3,0.1
		C283.4,163,205,241.3,126.8,319.8c-2.5,2.5-4.5,5.9-5.5,9.2c-6.4,21.2-12.4,42.5-18.6,63.7c-1.6,5.3-1.8,10.2,2.3,14.5
		c4.3,4.4,9.4,4.2,14.8,2.6c20.7-6.1,41.6-11.9,62.2-18.3c4.2-1.3,8.6-3.8,11.7-6.9c77.6-77.3,154.9-154.7,232.4-232.2
		c1.3-1.3,2.8-2.5,3.7-4C431.3,145.9,432.3,143.3,433.9,140z"/>
	<path class="st3" d="M481,82c-0.7,2.7-1.3,5.4-2,8c-2.7,11.2-9.3,19.8-17.9,26.9c-4.9,4-11.3,3.9-16-0.6c-16.5-16.2-32.9-32.6-49.1-49.1
		c-4.3-4.3-4.6-11.1-1-15.6c17-21.3,40.9-24.3,59.8-14.8c14.4,7.3,22.6,19.2,25.2,35c0.2,1.1,0.6,2.1,1,3.1
		C481,77.3,481,79.7,481,82z M453.2,88.7c5.1-9.6,3.1-20.1-5-27.1c-7-6-18.1-6.9-24.3-2.2C433.6,69.1,443.3,78.8,453.2,88.7z"/>
	<path class="st3" d="M378,228.7c0,2.6,0,4.2,0,5.8c0,69.2,0,138.3,0,207.5c0,30.5-21.8,53.1-52.3,53.1c-87.5,0.2-175,0.2-262.5,0
		c-30.4-0.1-52.3-22.2-52.3-52.6c-0.1-125.7-0.1-251.3,0-377c0-30.9,22.2-52.7,53.1-52.7c62.3,0,124.7,0,187-0.1
		c3.8,0,6.4,1.2,9.1,3.8c22.2,22.3,44.5,44.5,66.9,66.7c1.3,1.3,3.1,2,4.9,3.2c-12.4,12.3-23.6,23.5-34.8,34.7
		c-6.8,6.8-14,13.4-20.4,20.6c-3.9,4.5-7.5,4.3-12.1,1.9c-13.4-6.9-20.5-17.8-20.6-32.8c-0.2-22-0.1-44-0.1-66.8c-2,0-3.7,0-5.5,0
		c-58.2,0.1-116.3,0.2-174.5,0.3c-13.4,0-21.5,8-21.5,21.4c0,125.3,0,250.7,0,376c0,13.4,8.1,21.5,21.5,21.6c87,0.1,174,0.1,261,0
		c13.3,0,21.2-8.2,21.2-21.8c-0.1-58.7-0.2-117.3-0.4-176c0-3.6,0.9-6.2,3.5-8.7c8.3-8,16.3-16.2,24.5-24.3
		C374.9,231.5,376.1,230.5,378,228.7z"/>
	<path class="st3" d="M433.9,140c-1.6,3.3-2.6,5.9-4,8.3c-0.9,1.5-2.4,2.7-3.7,4c-77.4,77.4-154.8,154.9-232.4,232.2c-3.1,3.1-7.5,5.6-11.7,6.9
		c-20.7,6.4-41.5,12.2-62.2,18.3c-5.5,1.6-10.6,1.8-14.8-2.6c-4.1-4.2-3.8-9.2-2.3-14.5c6.2-21.2,12.2-42.5,18.6-63.7
		c1-3.3,3-6.7,5.5-9.2C205,241.3,283.4,163,361.8,84.6c6.9-6.9,13.5-6.9,20.3-0.1c15.3,15.3,30.7,30.6,45.9,46
		C430.5,133.1,431.9,136.8,433.9,140z M372.7,110.5c-70.2,70.2-140.2,140.2-209.9,209.9c4.3,4.5,9.1,9.4,13.6,14.1
		c70.1-70.1,140.1-140.1,210.1-210.1C382,119.8,377.1,114.8,372.7,110.5z M144.1,338.9c-7.5,18.3-7.5,18.3,6.8,32.4
		c0.6,0.6,1.1,1.3,1.8,1.7c0.8,0.4,1.9,0.9,2.7,0.7c6.2-1.7,12.3-3.6,18.2-5.3C163.7,358.4,153.9,348.7,144.1,338.9z"/>
	<path class="st0" d="M453.2,88.7c-9.9-9.9-19.6-19.6-29.3-29.3c6.2-4.6,17.3-3.8,24.3,2.2C456.3,68.6,458.3,79.1,453.2,88.7z"/>
	<path class="st0" d="M372.7,110.5c4.3,4.3,9.2,9.3,13.8,13.9c-70,70-140,140-210.1,210.1c-4.5-4.6-9.3-9.6-13.6-14.1
		C232.5,250.7,302.5,180.7,372.7,110.5z"/>
	<path class="st0" d="M144.1,338.9c9.8,9.8,19.6,19.5,29.5,29.5c-5.9,1.7-12,3.6-18.2,5.3c-0.8,0.2-1.9-0.3-2.7-0.7
		c-0.7-0.4-1.2-1.1-1.8-1.7C136.6,357.2,136.6,357.2,144.1,338.9z"/>
</g>
<path class="st1" d="z"/>
</svg>
