<?xml version="1.0" encoding="utf-8"?>
<!-- Generator: Adobe Illustrator 21.0.2, SVG Export Plug-In . SVG Version: 6.00 Build 0)  -->
<svg version="1.1" id="Слой_1" xmlns="http://www.w3.org/2000/svg" xmlns:xlink="http://www.w3.org/1999/xlink" x="0px" y="0px"
	 viewBox="0 0 512 512" style="enable-background:new 0 0 512 512;" xml:space="preserve">
<style type="text/css">
	.st0{fill:none;}
	.st1{fill:none;enable-background:new    ;}
	.st3 {fill:#8e5656;}
</style>
<g>
	<path class="st0" d="M52,128c0-36,0-72,0-108c137,0,274,0,411,0c0,14.7,0,29.3,0,44c-0.3-0.9-0.7-1.8-0.8-2.7
		c-2.3-23.2-20.5-40.3-43.8-40.4c-80.3-0.1-160.6-0.1-240.9-0.1c-10,0-19,3.1-26.8,9.3c-7.4,5.9-12.7,13.2-15.3,23
		c10,0,19.3,0,28.6-0.1c1.1,0,2.1-0.8,3.2-1.1c4.5-1.3,9.1-3.7,13.6-3.7c78-0.2,155.9-0.2,233.9-0.2c14,0,20.4,6.4,20.4,20.5
		c0,107,0,213.9,0,320.9c0,1.5,0.1,3,0,4.5c-0.7,8.5-7.5,15.3-15.9,15.9c-1.6,0.1-3.2,0.2-5,0.3c0,9.1,0,17.9,0,26.8
		c0.8,0.2,1.4,0.4,2.1,0.4c20.6,1.1,39.8-13.2,44.8-33.3c0.8-3.3,1.4-6.7,2-10.1c0,36,0,72,0,108c-39.7,0-79.3,0-119,0
		c0.4-0.3,0.8-0.6,1.3-0.7c23.9-6.1,36.6-22.2,36.6-46.8c0-107.5,0-214.9,0-322.4c0-27.2-18.7-46.7-45.8-46.8
		c-79.3-0.2-158.6-0.2-237.9,0c-22.5,0.1-39.7,14.1-44.5,35.1C53,122.9,52.5,125.5,52,128z"/>
	<path class="st3" d="M52,128c0.5-2.5,1-5.1,1.6-7.6c4.8-21.1,22-35.1,44.5-35.1c79.3-0.2,158.6-0.2,237.9,0c27.1,0.1,45.8,19.6,45.8,46.8
		c0,107.5,0,214.9,0,322.4c0,24.6-12.7,40.8-36.6,46.8c-0.5,0.1-0.8,0.5-1.3,0.7c-84.7,0-169.3,0-254,0c-1.1-0.4-2.1-0.8-3.2-1.1
		c-17.9-5-29.2-16.5-33.4-34.7c-0.6-2.4-0.9-4.8-1.4-7.2C52,348.7,52,238.3,52,128z M354.2,293.9c0-53.8,0-107.6,0-161.5
		c0-13.2-6.3-19.6-19.6-19.6c-78.3,0-156.6,0-235,0c-13.1,0-19.6,6.5-19.7,19.6c0,107.5,0,215,0,322.4c0,13.1,6.6,19.6,19.7,19.6
		c78.3,0,156.6,0,235,0c13.2,0,19.6-6.4,19.6-19.6C354.2,401.2,354.2,347.6,354.2,293.9z"/>
	<path class="st3" d="M463,394c-0.7,3.4-1.2,6.8-2,10.1c-5,20.1-24.3,34.4-44.8,33.3c-0.6,0-1.3-0.3-2.1-0.4c0-8.9,0-17.7,0-26.8
		c1.8-0.1,3.4-0.1,5-0.3c8.4-0.6,15.2-7.4,15.9-15.9c0.1-1.5,0-3,0-4.5c0-107,0-213.9,0-320.9c0-14.1-6.4-20.5-20.4-20.5
		c-78,0-155.9-0.1-233.9,0.2c-4.5,0-9.1,2.4-13.6,3.7c-1.1,0.3-2.1,1.1-3.2,1.1c-9.3,0.1-18.6,0.1-28.6,0.1
		c2.6-9.8,7.9-17.2,15.3-23c7.8-6.2,16.8-9.3,26.8-9.3c80.3,0,160.6-0.1,240.9,0.1c23.2,0,41.4,17.2,43.8,40.4
		c0.1,0.9,0.5,1.8,0.8,2.7C463,174,463,284,463,394z"/>
	<path class="st0" d="M52,459c0.5,2.4,0.9,4.8,1.4,7.2c4.2,18.2,15.5,29.7,33.4,34.7c1.1,0.3,2.1,0.7,3.2,1.1c-12.7,0-25.3,0-38,0
		C52,487.7,52,473.3,52,459z"/>
	<path class="st0" d="M354.2,293.9c0,53.7,0,107.3,0,161c0,13.2-6.4,19.6-19.6,19.6c-78.3,0-156.6,0-235,0
		c-13.1,0-19.7-6.6-19.7-19.6c0-107.5,0-215,0-322.4c0-13.1,6.5-19.6,19.7-19.6c78.3,0,156.6,0,235,0c13.2,0,19.6,6.4,19.6,19.6
		C354.2,186.3,354.2,240.1,354.2,293.9z M230.3,413c17,0,34,0.1,51,0c7.3,0,12.6-5.2,12.7-12c0.1-6.9-4.9-12-12.3-12.4
		c-2.7-0.1-5.3,0-8,0c-30.8,0-61.6,0-92.4,0c-4.9,0-9.4,0.7-12.3,5.1c-2.8,4-3.2,8.4-1,12.7c2.3,4.6,6.3,6.7,11.4,6.7
		C196.3,413,213.3,413,230.3,413z M230.5,335c-16.7,0-33.3,0-50,0c-8.6,0-14,4.7-14,12.2c0,7.1,5.4,12.3,13.5,12.3
		c33.5,0.1,67,0.1,100.4,0c8.2,0,13.5-5.1,13.5-12.3c0-7.3-5.6-12.2-14-12.2C263.5,335,247,335,230.5,335z M230.2,281.5
		c-16.5,0-33,0-49.5,0c-8.6,0-14.1,4.7-14.1,12c-0.1,7.3,5.5,12.4,13.8,12.4c33.3,0.1,66.6,0.1,99.9,0c8,0,13.5-5.1,13.7-12.2
		c0.1-7.3-5.4-12.3-13.9-12.3C263.5,281.5,246.8,281.5,230.2,281.5z M230,174.5c-16.6,0-33.3-0.1-49.9,0.1c-2.8,0-6,0.8-8.4,2.3
		c-4.6,2.9-6.1,8.6-4.4,13.7c1.7,5,6.3,8.2,12.4,8.2c33.5,0,66.9,0,100.4,0c8.4,0,14-5,14-12.3c0-7.3-5.5-12-14.1-12.1
		C263.3,174.5,246.6,174.5,230,174.5z M230,252.2c16.8,0,33.6,0,50.5,0c8.1,0,13.5-4.8,13.5-12c0-7.1-5.5-12.1-13.5-12.1
		c-33.5,0-66.9,0-100.4,0c-8.1,0-13.5,4.9-13.5,12.1c0,7.2,5.4,12,13.5,12C196.7,252.2,213.4,252.2,230,252.2z M138.7,361
		c7.9,0,14.1-6,14.1-13.7c0.1-7.6-6.3-14.1-13.9-14.1c-7.7-0.1-13.9,6.1-13.9,13.9C124.9,355,130.8,361,138.7,361z M138.9,386.9
		c-7.9,0-13.9,5.9-13.9,13.8c0,7.8,6.1,14.1,13.7,14.1c7.5,0,14-6.4,14.1-14C152.8,393.1,146.6,386.9,138.9,386.9z M138.8,254
		c7.7,0,14-6.2,14-13.8c0-7.6-6.3-13.9-14-14c-7.7,0-13.8,6.1-13.8,13.9C125,248.1,130.8,254,138.8,254z M125,186.6
		c0,8,5.9,13.9,13.8,13.9c7.7,0,14-6.1,14.1-13.8c0.1-7.6-6.2-13.8-14-13.8C130.8,172.8,125,178.6,125,186.6z M125,293.6
		c0,7.9,5.9,13.9,13.8,13.9c7.8,0,14.1-6.2,14.1-13.8c0-7.7-6.3-13.9-14-13.8C130.9,279.9,125,285.7,125,293.6z"/>
	<path class="st3" d="M230.3,413c-17,0-34,0-51,0c-5.1,0-9.1-2.1-11.4-6.7c-2.2-4.4-1.8-8.7,1-12.7c3-4.3,7.5-5.1,12.3-5.1
		c30.8,0.1,61.6,0,92.4,0c2.7,0,5.3-0.1,8,0c7.4,0.4,12.5,5.5,12.3,12.4c-0.1,6.8-5.4,12-12.7,12C264.3,413.1,247.3,413,230.3,413z"
		/>
	<path class="st3" d="M230.5,335c16.5,0,33,0,49.5,0c8.4,0,14,4.9,14,12.2c0,7.2-5.3,12.2-13.5,12.3c-33.5,0.1-67,0.1-100.4,0
		c-8.1,0-13.5-5.2-13.5-12.3c0-7.4,5.4-12.2,14-12.2C197.2,335,213.9,335,230.5,335z"/>
	<path class="st3" d="M230.2,281.5c16.7,0,33.3,0,50,0c8.5,0,14,4.9,13.9,12.3c-0.1,7.1-5.6,12.1-13.7,12.2c-33.3,0.1-66.6,0.1-99.9,0
		c-8.4,0-13.9-5.1-13.8-12.4c0.1-7.4,5.5-12,14.1-12C197.2,281.5,213.7,281.5,230.2,281.5z"/>
	<path class="st3" d="M230,174.5c16.6,0,33.3,0,49.9,0c8.6,0,14,4.7,14.1,12.1c0,7.3-5.6,12.3-14,12.3c-33.5,0-66.9,0-100.4,0
		c-6.1,0-10.8-3.2-12.4-8.2c-1.7-5.1-0.2-10.8,4.4-13.7c2.4-1.5,5.6-2.3,8.4-2.3C196.7,174.4,213.3,174.5,230,174.5z"/>
	<path class="st3" d="M230,252.2c-16.7,0-33.3,0-50,0c-8.1,0-13.5-4.8-13.5-12c0-7.2,5.4-12.1,13.5-12.1c33.5,0,66.9,0,100.4,0
		c8,0,13.5,5,13.5,12.1c0,7.2-5.4,12-13.5,12C263.7,252.2,246.8,252.2,230,252.2z"/>
	<path class="st3" d="M138.7,361c-7.9,0-13.8-6-13.7-13.9c0.1-7.8,6.2-13.9,13.9-13.9c7.6,0.1,13.9,6.5,13.9,14.1C152.7,355,146.6,361,138.7,361
		z"/>
	<path class="st3" d="M138.9,386.9c7.7,0,13.9,6.2,13.9,14c0,7.5-6.5,14-14.1,14c-7.6,0-13.8-6.4-13.7-14.1C125,392.8,131,386.8,138.9,386.9z"/>
	<path class="st3" d="M138.8,254c-8,0-13.8-5.9-13.8-13.9c0-7.9,6.1-14,13.8-13.9c7.7,0,14,6.4,14,14C152.8,247.8,146.5,254,138.8,254z"/>
	<path class="st3" d="M125,186.6c0-8,5.8-13.7,13.8-13.7c7.8,0,14,6.2,14,13.8c-0.1,7.7-6.3,13.8-14.1,13.8C130.9,200.5,125,194.5,125,186.6z"/>
	<path class="st3" d="M125,293.6c0-8,5.9-13.8,13.8-13.8c7.7,0,14,6.2,14,13.8c0,7.6-6.3,13.8-14.1,13.8C130.9,307.5,125,301.6,125,293.6z"/>
</g>
<path class="st1" d="z"/>
</svg>
