<?xml version="1.0" encoding="utf-8"?>
<!-- Generator: Adobe Illustrator 21.0.2, SVG Export Plug-In . SVG Version: 6.00 Build 0)  -->
<svg version="1.1" id="Слой_1" xmlns="http://www.w3.org/2000/svg" xmlns:xlink="http://www.w3.org/1999/xlink" x="0px" y="0px"
	 viewBox="0 0 512 512" style="enable-background:new 0 0 512 512;" xml:space="preserve">
<style type="text/css">
	.st0{fill:none;}
	.st1{fill:none;enable-background:new    ;}
	.st3 {fill:#8e5656;}
</style>
<g>
	<path class="st3" d="M255,493c-3.3,0-6.7,0-10,0c-19.1-7.8-23.5-14.5-23.5-35.6c0-6.3,0-12.6,0-19.2c-4.7-0.4-9-0.8-13.3-1.2
		c-18.6-1.7-36.9-5.2-54.7-11c-18.6-6.2-28.2-26-22-44.7c6-18,24.8-27.3,43.5-21c18.3,6.1,37,9.8,56.2,10.5
		c14.9,0.6,29.6-0.8,43.2-7.9c12.9-6.7,19.3-18.8,17.4-32.5c-1.6-11-8.1-18.8-16.8-25c-12.5-8.9-26.6-14.4-40.9-19.3
		c-22.9-7.8-45.1-16.8-65.4-30.3c-55.3-37-49.6-103.4-20.3-138.2c17.7-20.9,40.7-32.7,66.8-39.4c9.3-2.4,9.3-2.3,9.3-12.1
		c0-3.3,0-6.7,0-10c0-20.7,4.6-27.5,23.5-35c3.3,0,6.7,0,10,0c0.4,0.3,0.8,0.7,1.2,0.8c14.9,4.5,21.9,13.9,22,29.3
		c0,6.8,0,13.6,0,20.6c2.1,0.2,3.7,0.2,5.3,0.5c16.1,2.5,32.4,4.2,48.2,7.9c16,3.7,26.1,20.3,23.8,35.8
		c-3.3,22.1-21.9,34.2-43.4,28.1c-18.1-5.2-36.5-7.5-55.3-6.9c-10,0.4-19.9,2-28.9,6.9c-11.6,6.4-17.3,17.8-14.9,30
		c1.8,9,7.7,15.4,15.2,19.5c14.3,7.7,29,14.7,43.8,21.4c17.5,8,35.9,14.3,52.8,23.4c29.5,15.8,49,39.5,52.6,74.1
		c3.4,32.9-4.8,62.1-28.6,86c-19.1,19.2-42.8,29.5-69,34.7c-3.4,0.7-4.7,1.9-4.6,5.5c0.3,8.5,0.1,17,0.1,25.5
		c-0.1,10.6-4.5,19-13.5,24.7C261.9,490.6,258.3,491.6,255,493z"/>
	<path class="st0" d="M255,493c3.3-1.4,6.9-2.4,10-4.3c9-5.6,13.4-14,13.5-24.7c0.1-8.5,0.2-17-0.1-25.5c-0.1-3.6,1.2-4.8,4.6-5.5
		c26.2-5.2,49.9-15.5,69-34.7c23.8-23.9,32-53,28.6-86c-3.6-34.6-23.2-58.3-52.6-74.1c-16.9-9.1-35.3-15.4-52.8-23.4
		c-14.8-6.7-29.5-13.7-43.8-21.4c-7.5-4.1-13.5-10.5-15.2-19.5c-2.4-12.3,3.3-23.6,14.9-30c9-5,18.8-6.6,28.9-6.9
		c18.8-0.7,37.2,1.7,55.3,6.9c21.5,6.1,40.1-6,43.4-28.1c2.3-15.5-7.8-32.1-23.8-35.8c-15.8-3.7-32.1-5.4-48.2-7.9
		c-1.6-0.3-3.2-0.3-5.3-0.5c0-7,0-13.8,0-20.6c0-15.4-7.1-24.8-22-29.3c-0.4-0.1-0.8-0.5-1.2-0.8c41.3,0,82.6,0,124,0
		c0,157.3,0,314.7,0,472C339.6,493,297.3,493,255,493z"/>
	<path class="st0" d="M248,21c-18.9,7.4-23.5,14.3-23.5,35c0,3.3,0,6.7,0,10c0,9.8,0,9.7-9.3,12.1c-26,6.7-49.1,18.5-66.8,39.4
		c-29.3,34.8-35,101.2,20.3,138.2c20.3,13.5,42.5,22.5,65.4,30.3c14.3,4.9,28.5,10.4,40.9,19.3c8.7,6.2,15.2,14,16.8,25
		c2,13.7-4.5,25.8-17.4,32.5c-13.6,7.1-28.3,8.5-43.2,7.9c-19.2-0.7-37.9-4.4-56.2-10.5c-18.7-6.2-37.5,3-43.5,21
		c-6.2,18.7,3.4,38.5,22,44.7c17.8,5.9,36.1,9.3,54.7,11c4.3,0.4,8.5,0.8,13.3,1.2c0,6.6,0,12.9,0,19.2c0,21.1,4.4,27.7,23.5,35.6
		c-39.7,0-79.3,0-119,0c0-157.3,0-314.7,0-472C166.7,21,207.3,21,248,21z"/>
</g>
<path class="st1" d="z"/>
</svg>
