<?xml version="1.0" encoding="utf-8"?>
<!-- Generator: Adobe Illustrator 21.0.2, SVG Export Plug-In . SVG Version: 6.00 Build 0)  -->
<svg version="1.1" id="Слой_1" xmlns="http://www.w3.org/2000/svg" xmlns:xlink="http://www.w3.org/1999/xlink" x="0px" y="0px"
	 viewBox="0 0 512 512" style="enable-background:new 0 0 512 512;" xml:space="preserve">
<style type="text/css">
	.st0{fill:none;}
	.st1{fill:none;enable-background:new    ;}
	.st3 {fill:#8e5656;}
</style>
<g>
	<path class="st3" d="M349,502c-23.7,0-47.3,0-71,0c0-21.3,0.4-42.6-0.1-63.9c-0.5-21.6-19.2-38.9-40.9-38.9c-21.7,0-40.4,17.3-40.9,38.9
		c-0.5,21.3-0.1,42.6,0,63.9c-23.7,0-47.3,0-71,0c-7.8-3.3-11.2-9.1-12.2-17.6c-4.1-33.7-8.9-67.3-13.4-101
		c-3.1-23.3-6.2-46.5-9.4-69.8c-1.1-7.9,1.4-13.6,8-18.4c44.3-32.7,88.5-65.7,132.7-98.6c6.3-4.7,6.3-4.6,12.5,0
		c42.1,31.3,84.1,62.7,126.2,93.9c16.1,12,16,11.9,13.4,31.5c-7.3,53.8-14.6,107.5-21.5,161.3C360.2,492.1,357.3,498.6,349,502z
		 M282.2,317.2c-0.1-25.1-20.5-45.2-45.8-45c-24.7,0.1-44.7,20.6-44.6,45.7c0.1,24.8,20.7,45.1,45.4,44.8
		C262.1,362.4,282.3,342,282.2,317.2z"/>
	<path class="st0" d="M349,502c8.3-3.4,11.2-9.9,12.3-18.6c6.9-53.8,14.2-107.6,21.5-161.3c2.7-19.6,2.7-19.5-13.4-31.5
		c-42.1-31.3-84.1-62.6-126.2-93.9c-6.2-4.6-6.2-4.7-12.5,0c-44.2,32.9-88.4,65.9-132.7,98.6c-6.6,4.8-9.1,10.6-8,18.4
		c3.2,23.2,6.2,46.5,9.4,69.8c4.5,33.6,9.2,67.3,13.4,101c1,8.5,4.4,14.3,12.2,17.6c-28.3,0-56.7,0-85,0c0-76,0-152,0-228
		c2.4,4.1,4,9,7.2,12.2c7.7,7.4,17.7,6.3,27.9-1.8C128,242.2,180.8,200,233.6,157.8c2.6-2.1,4.2-2,6.7,0.1
		c36.6,29.4,73.4,58.7,110.1,87.9c17.1,13.6,34,27.3,51.2,40.7c11.8,9.2,27.2,3.9,31.3-10.4c0.2-0.7,0.6-1.4,1-2.1c0,76,0,152,0,228
		C405.7,502,377.3,502,349,502z"/>
	<path class="st0" d="M247,12c62.3,0,124.7,0,187,0c0,85.7,0,171.3,0,257c-2-7.7-7.4-12.5-13.4-17.2
		c-54.4-42.9-108.7-85.9-163.1-128.8c-3.2-2.5-4.7-5-4.5-9.1c0.4-7.5,0.1-15,0.1-22.5c0-5.3,0-10.5,0-15.5c1-0.4,1.3-0.6,1.6-0.6
		c4.3-0.1,8.7,0,13-0.1c5.8-0.1,8.5-2.7,8.7-8.6c0.1-4.7,0.1-9.3,0-14c-0.1-7.1-2.6-9.6-9.6-9.7c-4.4,0-8.9,0-13.7,0
		c0-7.2-0.2-13.7,0.1-20.1C253.5,17.6,251.7,14.1,247,12z"/>
	<path class="st0" d="M40,269c0-85.7,0-171.3,0-257c62.3,0,124.7,0,187,0c-4.7,2-6.5,5.5-6.2,10.7c0.3,6.6,0.1,13.2,0.1,20.2
		c-5.6,0-10.4-0.1-15.2,0c-5.2,0.2-8,2.9-8.1,8.1c-0.1,5.2-0.1,10.3,0,15.5c0.1,6.1,2.8,8.6,9,8.7c4.6,0.1,9.2,0,14.3,0
		c0,13.5-0.2,26.3,0.1,39.1c0.1,3.7-1.1,6-4,8.3C162.2,165.7,107.7,208.9,53,252C47.1,256.7,41.9,261.5,40,269z"/>
	<path class="st3" d="M40,269c1.9-7.5,7.1-12.3,13-17c54.7-43.1,109.2-86.4,163.9-129.5c2.9-2.3,4.1-4.6,4-8.3c-0.3-12.8-0.1-25.6-0.1-39.1
		c-5.1,0-9.7,0-14.3,0c-6.3-0.1-8.9-2.6-9-8.7c-0.1-5.2-0.1-10.3,0-15.5c0.1-5.2,2.9-7.9,8.1-8.1c4.8-0.2,9.6,0,15.2,0
		c0-7,0.3-13.6-0.1-20.2c-0.3-5.2,1.5-8.6,6.2-10.7c6.7,0,13.3,0,20,0c4.7,2.1,6.5,5.6,6.2,10.7c-0.3,6.4-0.1,12.9-0.1,20.1
		c4.9,0,9.3,0,13.7,0c7,0.1,9.5,2.6,9.6,9.7c0.1,4.7,0.1,9.3,0,14c-0.2,5.9-2.9,8.5-8.7,8.6c-4.3,0.1-8.7,0.1-13,0.1
		c-0.3,0-0.6,0.2-1.6,0.6c0,5,0,10.2,0,15.5c0,7.5,0.3,15-0.1,22.5c-0.2,4.2,1.3,6.6,4.5,9.1c54.4,42.9,108.7,85.9,163.1,128.8
		c6,4.7,11.4,9.6,13.4,17.2c0,1.7,0,3.3,0,5c-0.3,0.7-0.8,1.4-1,2.1c-4.2,14.3-19.6,19.6-31.3,10.4c-17.2-13.4-34.2-27.1-51.2-40.7
		c-36.7-29.3-73.4-58.6-110.1-87.9c-2.5-2-4.1-2.2-6.7-0.1C180.8,200,128,242.2,75.1,284.4c-10.2,8.1-20.2,9.1-27.9,1.8
		c-3.3-3.1-4.9-8-7.2-12.2C40,272.3,40,270.7,40,269z"/>
	<path class="st0" d="M196,502c0-21.3-0.5-42.6,0-63.9c0.5-21.6,19.2-38.9,40.9-38.9c21.7,0,40.4,17.3,40.9,38.9
		c0.5,21.3,0.1,42.6,0.1,63.9C250.7,502,223.3,502,196,502z"/>
	<path class="st0" d="M282.2,317.2c0.1,24.8-20.1,45.2-44.9,45.5c-24.7,0.2-45.3-20.1-45.4-44.8c-0.1-25.1,19.9-45.5,44.6-45.7
		C261.6,272,282.1,292.1,282.2,317.2z M236.9,349.4c17.7,0,32.1-14.3,32.1-32c0-17.6-14.4-32.2-32-32.2c-17.5-0.1-32,14.4-32,32.1
		C205,335.1,219.2,349.4,236.9,349.4z"/>
	<path class="st3" d="M236.9,349.4c-17.7,0-31.9-14.4-31.9-32.1c0-17.6,14.5-32.1,32-32.1c17.6,0.1,32,14.6,32,32.2
		C269,335.1,254.6,349.5,236.9,349.4z"/>
</g>
<path class="st1" d="z"/>
</svg>
