<?xml version="1.0" encoding="utf-8"?>
<!-- Generator: Adobe Illustrator 21.0.2, SVG Export Plug-In . SVG Version: 6.00 Build 0)  -->
<svg version="1.1" id="Слой_1" xmlns="http://www.w3.org/2000/svg" xmlns:xlink="http://www.w3.org/1999/xlink" x="0px" y="0px"
	 viewBox="0 0 512 512" style="enable-background:new 0 0 512 512;" xml:space="preserve">
<style type="text/css">
	.st0{fill:none;}
	.st1{fill:none;enable-background:new    ;}
	.st3 {fill:#8e5656;}
</style>
<g>
	<path class="st0" d="M147,484c-19.3,0-38.7,0-58,0c0-158.3,0-316.7,0-475c115.7,0,231.3,0,347,0c0,135.7,0,271.3,0,407
		c-0.9-3.8-1.5-7.7-2.6-11.5c-9.9-32.6-19.6-65.3-30.1-97.8c-6-18.5-18.8-31.3-37.2-37.8c-6.5-2.3-13.6-3.4-20.4-3.9
		c-8.3-0.7-16.8-0.2-25.2-0.2c0,18.2,0,35.5,0,52.8c0,8.8-5,15.9-12.9,18.1c-3,0.8-6.2,0.8-9.5,1.2c-11.7,30.3-23.4,60.9-35.5,92.3
		c-12.2-31.7-24-62.3-35.7-92.9c-12.4,1.3-21.1-5.7-22.1-17.4c-0.3-3.8-0.3-7.7-0.3-11.5c0-14.1,0-28.2,0-42.5
		c-8.8,0-17.4-0.3-26.1,0c-26.3,1-48.7,17.2-56.8,42.3c-10.4,32.4-20.5,65-29.9,97.8c-8.3,28.9,6.8,60.4,34.4,72.6
		C132.7,480.6,140,481.9,147,484z M262.9,10.1c-4.2,0-8.3-0.1-12.5,0c-2.8,0.1-5.6,0.5-8.4,0.9c-31.8,4.5-55.5,20-67.4,50.6
		c-3.5,8.9-5.5,18.5-7.5,27.9c-1.1,5.3-1.7,10.3-7.5,12.9c-1.7,0.8-3,2.6-4.3,4.1c-19,22.7-11.4,62.2,14.6,76.4
		c2.4,1.3,4.7,3.6,5.9,6.1c13.2,27,31.6,49.3,58.6,63.4c17.8,9.3,36,10,54.2,1c28-13.8,46.8-36.2,60.2-63.7c1.5-3.1,3.2-5.3,6.4-7
		c26.3-14.1,33.7-54.4,14.2-76.6c-10.3-5.3-11.3-15.3-12.6-25.1c-0.2-1.3-0.6-2.6-0.9-3.9c-7.3-29.6-23.4-51.6-53.2-61.6
		C289.8,11.2,276.5,9.5,262.9,10.1z M307,293.7c0-7.7,0-15.3,0-23c0-6.8-3.2-8.7-9.2-5.4c-6.8,3.6-13.5,7.2-20.2,10.9
		c-9.8,5.4-19.6,5.6-29.5,0.2c-6.9-3.7-13.7-7.5-20.6-11.1c-6-3.2-9.2-1.2-9.2,5.6c0,15,0,30,0,45c0,7.1,3.1,8.9,9.5,5.5
		c7.2-3.8,14.3-7.8,21.5-11.5c9.1-4.7,18.2-4.6,27.2,0.3c7.3,3.9,14.6,8,22,11.8c5.2,2.7,8.5,0.8,8.5-5.1
		C307.1,309,307,301.4,307,293.7z"/>
	<path class="st3" d="M147,484c-7-2.1-14.3-3.4-20.8-6.3c-27.6-12.2-42.7-43.7-34.4-72.6c9.4-32.8,19.4-65.4,29.9-97.8
		c8.1-25,30.5-41.3,56.8-42.3c8.6-0.3,17.3,0,26.1,0c0,14.3,0,28.4,0,42.5c0,3.8,0,7.7,0.3,11.5c1,11.8,9.7,18.7,22.1,17.4
		c11.7,30.5,23.5,61.2,35.7,92.9c12.1-31.4,23.8-61.9,35.5-92.3c3.3-0.4,6.5-0.4,9.5-1.2c8-2.3,12.9-9.3,12.9-18.1
		c0.1-17.3,0-34.6,0-52.8c8.4,0,16.9-0.5,25.2,0.2c6.9,0.5,14,1.6,20.4,3.9c18.4,6.5,31.2,19.3,37.2,37.8
		c10.5,32.4,20.2,65.1,30.1,97.8c1.1,3.7,1.8,7.6,2.6,11.5c0,3,0,6,0,9c-0.3,0.9-0.8,1.8-0.9,2.7c-3,23-14.9,39.9-35.9,49.8
		c-6.6,3.1-14.1,4.3-21.2,6.4C301,484,224,484,147,484z M275.1,460.8c34.2,0,67.3,0.7,100.5-0.2c24.8-0.7,42.7-25.9,35.8-49.6
		c-9.3-32.3-19.4-64.3-29.5-96.4c-4.8-15.3-19.4-26-34.6-26.9c-4.2-0.2-6.3,0.9-8,5.1c-19,50.1-38.3,100-57.4,150.1
		C279.7,448.6,277.5,454.4,275.1,460.8z M249.9,460.8c-0.4-1.3-0.5-2.1-0.8-2.9c-21.4-55.7-42.7-111.4-64-167.1
		c-1-2.5-2.4-3-4.8-3.1c-16-0.2-31.7,10.6-36.8,26.6c-10.2,32.1-20.3,64.4-29.5,96.8c-6.9,24,11.5,49,36.4,49.5
		C183.2,461.3,216.2,460.8,249.9,460.8z"/>
	<path class="st0" d="M378,484c7.1-2.1,14.6-3.3,21.2-6.4c21-9.9,32.8-26.8,35.9-49.8c0.1-0.9,0.6-1.8,0.9-2.7c0,19.7,0,39.3,0,59
		C416.7,484,397.3,484,378,484z"/>
	<path class="st3" d="M262.9,10.1c13.6-0.6,26.9,1.1,39.8,5.4c29.9,10,45.9,32,53.2,61.6c0.3,1.3,0.7,2.6,0.9,3.9c1.3,9.8,2.3,19.8,12.6,25.1
		c19.5,22.2,12.1,62.6-14.2,76.6c-3.2,1.7-4.9,4-6.4,7c-13.4,27.5-32.3,49.9-60.2,63.7c-18.2,9-36.4,8.3-54.2-1
		c-27-14.2-45.4-36.4-58.6-63.4c-1.2-2.4-3.5-4.8-5.9-6.1c-26-14.2-33.6-53.8-14.6-76.4c1.3-1.5,2.6-3.4,4.3-4.1
		c5.8-2.6,6.3-7.6,7.5-12.9c2-9.4,4-19,7.5-27.9C186.5,31,210.2,15.5,242,11c2.8-0.4,5.6-0.8,8.4-0.9
		C254.5,10,258.7,10.1,262.9,10.1z M230.4,67.3c-10.7,12.2-23,22.3-36.8,30.6c-3.6,2.1-5.8,4.3-5.9,8.8c-0.1,4.8-2.3,9.1-7.2,10.4
		c-9.4,2.5-12.1,9.5-12.9,18c-1.2,12.4,6,25.8,15.8,28.5c5.8,1.6,8.8,4.9,11,10.3c9.1,22.5,23.4,40.8,43.7,54.5
		c16.8,11.3,33.1,10.8,49.7-0.5c18.1-12.3,31.6-28.6,40.5-48.4c3.5-7.8,6.4-15.2,16.1-17.1c2.7-0.5,5.2-3.6,7-6.1
		c5.8-7.9,7.7-16.9,5.3-26.5c-1.2-4.8-3.2-9.7-8.2-11.2c-6.2-1.8-10.2-5.1-11.2-11.4C297.1,105.8,259.7,98,230.4,67.3z"/>
	<path class="st3" d="M307,293.7c0,7.7,0.1,15.3,0,23c-0.1,5.9-3.3,7.8-8.5,5.1c-7.4-3.8-14.6-7.9-22-11.8c-9-4.8-18.1-5-27.2-0.3
		c-7.2,3.8-14.3,7.7-21.5,11.5c-6.5,3.4-9.5,1.7-9.5-5.5c0-15,0-30,0-45c0-6.8,3.2-8.7,9.2-5.6c6.9,3.6,13.8,7.4,20.6,11.1
		c9.9,5.4,19.7,5.2,29.5-0.2c6.7-3.7,13.4-7.4,20.2-10.9c6.1-3.2,9.2-1.4,9.2,5.4C307,278.4,307,286,307,293.7z"/>
	<path class="st0" d="M275.1,460.8c2.4-6.4,4.6-12.2,6.8-17.9c19.2-50,38.4-100,57.4-150.1c1.6-4.3,3.7-5.4,8-5.1
		c15.2,0.9,29.8,11.5,34.6,26.9c10.1,32,20.2,64.1,29.5,96.4c6.8,23.7-11.1,48.9-35.8,49.6C342.4,461.5,309.3,460.8,275.1,460.8z"/>
	<path class="st0" d="M249.9,460.8c-33.7,0-66.7,0.5-99.6-0.2c-24.9-0.5-43.3-25.5-36.4-49.5c9.3-32.4,19.3-64.6,29.5-96.8
		c5.1-16,20.8-26.8,36.8-26.6c2.5,0,3.9,0.6,4.8,3.1c21.3,55.7,42.7,111.4,64,167.1C249.3,458.7,249.5,459.5,249.9,460.8z"/>
	<path class="st0" d="M230.4,67.3c29.3,30.7,66.6,38.5,106.9,39.9c1,6.3,5,9.6,11.2,11.4c5,1.5,7,6.4,8.2,11.2
		c2.4,9.6,0.5,18.6-5.3,26.5c-1.8,2.5-4.4,5.5-7,6.1c-9.7,2-12.6,9.3-16.1,17.1c-8.9,19.9-22.4,36.1-40.5,48.4
		c-16.6,11.3-32.9,11.8-49.7,0.5c-20.3-13.6-34.6-32-43.7-54.5c-2.2-5.4-5.2-8.7-11-10.3c-9.8-2.7-16.9-16.1-15.8-28.5
		c0.8-8.5,3.5-15.4,12.9-18c4.9-1.3,7.1-5.7,7.2-10.4c0.1-4.5,2.3-6.7,5.9-8.8C207.4,89.6,219.7,79.5,230.4,67.3z"/>
</g>
<path class="st1" d="z"/>
</svg>
