<?xml version="1.0" encoding="utf-8"?>
<!-- Generator: Adobe Illustrator 21.0.2, SVG Export Plug-In . SVG Version: 6.00 Build 0)  -->
<svg version="1.1" id="Слой_1" xmlns="http://www.w3.org/2000/svg" xmlns:xlink="http://www.w3.org/1999/xlink" x="0px" y="0px"
	 viewBox="0 0 512 512" style="enable-background:new 0 0 512 512;" xml:space="preserve">
<style type="text/css">
	.st0{fill:none;}
	.st1{fill:none;enable-background:new    ;}
	.st3 {fill:#8e5656;}
</style>
<g>
	<path class="st3" d="M239,20c9.3,0,18.7,0,28,0c1.4,0.4,2.7,0.8,4.2,1c19.8,2.6,37.8,8.9,52.2,23.5c14.6,14.7,21.2,33.1,24.5,53
		c1.1,6.5,1.5,12.8,8.6,16c1.5,0.7,2.6,2.5,3.8,3.9c18.7,23.1,10.6,62.1-15.8,76.1c-1.8,0.9-3.6,2.5-4.4,4.2
		c-9.4,20.5-22.7,37.9-40.1,52.3c-1.1,0.9-1.7,2.5-2.1,3.2c3.6,1.3,6.7,1.7,9.1,3.3c8.8,5.8,17.4,12.1,26.1,18.1
		c0.7,0.5,1.9,0.5,2.8,0.6c29.8,2.1,50.6,18.4,59.1,46.8c10.5,35,20.7,70,31,105c0,2.7,0,5.3,0,8c-0.3,0.9-0.8,1.8-0.9,2.7
		c-2.6,21.4-13.1,37.8-31.9,48.2c-6.8,3.8-14.8,5.5-22.2,8.1c-79,0-158,0-237,0c-0.6-0.3-1.1-0.7-1.7-0.9
		c-39.8-8.1-61.2-44.1-49.3-82.9c9.2-30,18.4-60.1,27.7-90.1c8.2-26.5,30.4-43.7,57.9-45c1.1-0.1,2.5,0.1,3.4-0.4
		c8.6-5.9,16.9-12.1,25.6-17.8c2.6-1.7,6-2.3,10.1-3.8c-1-1.1-2.1-2.7-3.5-3.9C188.4,236,176,220.1,167,201.6c-1.9-4-4-7.2-8.2-9.3
		c-3.9-2-7.3-5.2-10.4-8.4c-17.5-18.3-19-51.8-1.4-68.1c7.4-6.8,10-13.9,11.2-22.7c0.2-1.5,0.6-2.9,1-4.4
		c8.1-33.7,27.1-56.9,61.9-65.2C226.9,22,233,21.1,239,20z M175.5,298.4c-19.5-2.2-36.8,9.1-42.7,27.9c-9.5,30.3-18.7,60.7-28,91.1
		c-8.8,28.6,9.8,53.8,39.6,53.8c28.3,0,56.7,0,85,0c1.6,0,3.2,0,5.3,0c-3.5-21.7-6.6-42.7-10.4-63.7c-1.3-7.4-1.3-14.2,2.1-21.2
		c3.4-7.2,5.7-14.9,9-22.2c1.4-3.1,0.7-4.8-1.6-6.8c-3.1-2.7-6-5.7-9.4-8.9c9.4-9,18.6-17.8,28.1-26.9c9.5,9.1,18.7,17.9,27.9,26.7
		c-3.5,3.5-6.4,6.8-9.7,9.6c-2.2,1.9-2.2,3.5-1.2,6c3.9,9.5,7.7,19.1,11.3,28.8c0.8,2.2,1.2,4.9,0.9,7.2c-2,13.3-4.2,26.6-6.4,39.9
		c-1.7,10.3-3.3,20.6-5,31.5c5.9,0,11.2,0,16.5,0c25.2,0,50.3,0.2,75.5-0.1c27.6-0.3,46.2-25.7,38.4-52.1
		c-2.8-9.6-5.9-19.1-8.8-28.6c-6.7-21.6-13.1-43.3-20-64.8c-5.9-18.4-24.5-30-42.2-27c-0.2,0.9-0.5,1.9-0.7,2.8
		c-2,16.5-3.9,33.1-6.2,49.6c-0.4,2.6-2,6.6-3.9,7.1c-2.3,0.6-6-1-8.1-2.8c-7-5.9-13.6-12.3-20.4-18.4
		c-12.6-11.6-25.3-23.1-38.1-34.8c-19.5,17.9-38.8,35.6-58.2,53c-2.1,1.9-5.5,3.4-8.1,3.1c-3.7-0.4-3.9-4.2-4.3-7.5
		C179.9,333.4,177.7,316,175.5,298.4z M257.9,136.9c0.1-1.5,0.1-2.4,0.1-3.4c0.2-14.1,6.4-20.3,20.5-20.3c10.2,0,20.3-0.2,30.5,0.1
		c3.5,0.1,7,1.7,10.5,2.5c1.5,0.3,3.8,0.9,4.6,0.1c1.4-1.2,2.8-3.6,2.5-5.2c-1.9-9.8-3.6-19.7-6.8-29.1
		c-6.2-18.3-18.9-30.4-37.7-35.3c-19.3-5-38.9-5.1-58.3-0.1c-15.4,4-27.1,13.1-34.7,27.3c-6.4,11.9-9.2,24.9-10.7,38.2
		c-0.2,1.4,1.5,3.4,2.9,4.5c0.7,0.6,2.6,0.1,3.8-0.3c2.8-0.8,5.6-2.6,8.4-2.7c12.3-0.3,24.6-0.3,37-0.1c9.3,0.2,16.1,7.5,16.5,16.8
		c0.1,2.3,0,4.5,0,6.8C251.1,136.9,254.2,136.9,257.9,136.9z M247.5,153.5c-0.1,1.6-0.3,2.9-0.3,4.1c-0.2,12.8-6.8,19.4-19.5,19.4
		c-10.5,0-21,0-31.5,0c-11.8-0.1-18.9-7.1-19-19c-0.1-5.2-0.5-10.4,0.1-15.5c0.8-7-1.9-11.5-8.1-14.2c-7.6,3.5-12.1,11.8-11.6,21.2
		c0.7,11.6,7.2,22.1,15.9,24.4c5.6,1.5,8.6,4.7,10.7,10c8.8,22,22.5,40.4,42.3,53.7c18.9,12.8,33.3,12.8,52.2-0.1
		c19.7-13.4,33.4-31.8,42.2-53.8c1.8-4.4,4.1-7.8,8.9-9.3c16.8-5.1,23.5-29.2,11.7-42.3c-1.6-1.8-5.4-4.1-6.3-3.5
		c-3.1,2.2-7.8,3.5-7.6,8.8c0.2,7.3,0.1,14.7,0,22c-0.1,9.8-7.2,17.2-17,17.4c-12,0.2-24,0.2-36,0c-9.8-0.2-16.7-7.6-16.8-17.4
		c0-1.9,0-3.9,0-6C254.2,153.5,251,153.5,247.5,153.5z M313.5,162.9c0-12,0-23.4,0-35c-13.2,0-26,0-39,0c0,11.9,0,23.4,0,35
		C287.7,162.9,300.5,162.9,313.5,162.9z M193.2,162.8c13.3,0,26.2,0,39,0c0-11.8,0-23.2,0-34.9c-13.1,0-26,0-39,0
		C193.2,139.6,193.2,151,193.2,162.8z M276.2,264.8c-15.8,7.1-31.7,6.9-48.8-0.6c0.5,4-0.2,7.6,1.2,8.9c7.6,7.1,15.8,13.7,24,20.6
		c7.1-6,13.7-12,20.8-17.4C277.4,273.2,279.2,270.2,276.2,264.8z"/>
	<path class="st0" d="M239,20c-6,1.1-12.1,2-18,3.5c-34.8,8.3-53.8,31.6-61.9,65.2c-0.3,1.5-0.8,2.9-1,4.4
		c-1.2,8.8-3.8,15.9-11.2,22.7c-17.6,16.2-16.1,49.8,1.4,68.1c3.1,3.2,6.5,6.4,10.4,8.4c4.3,2.1,6.3,5.3,8.2,9.3
		c9,18.5,21.4,34.4,37.2,47.7c1.4,1.2,2.5,2.8,3.5,3.9c-4.1,1.5-7.5,2.1-10.1,3.8c-8.7,5.7-17,11.9-25.6,17.8
		c-0.8,0.6-2.2,0.4-3.4,0.4c-27.5,1.3-49.7,18.6-57.9,45c-9.3,30-18.5,60.1-27.7,90.1c-11.9,38.8,9.4,74.8,49.3,82.9
		c0.6,0.1,1.1,0.6,1.7,0.9c-18.3,0-36.7,0-55,0c0-158,0-316,0-474C132.3,20,185.7,20,239,20z"/>
	<path class="st0" d="M426,427c-10.3-35-20.6-70.1-31-105c-8.5-28.4-29.3-44.8-59.1-46.8c-1-0.1-2.1-0.1-2.8-0.6
		c-8.7-6-17.3-12.2-26.1-18.1c-2.4-1.6-5.5-2-9.1-3.3c0.4-0.6,1-2.2,2.1-3.2c17.3-14.4,30.6-31.8,40.1-52.3c0.8-1.7,2.7-3.3,4.4-4.2
		c26.4-14,34.5-53,15.8-76.1c-1.1-1.4-2.2-3.2-3.8-3.9c-7.1-3.2-7.5-9.5-8.6-16c-3.3-19.9-10-38.3-24.5-53
		C309,30,290.9,23.6,271.2,21c-1.4-0.2-2.8-0.7-4.2-1c53,0,105.9,0,159,0C426,155.7,426,291.3,426,427z"/>
	<path class="st0" d="M371,494c7.4-2.7,15.4-4.4,22.2-8.1c18.8-10.4,29.4-26.7,31.9-48.2c0.1-0.9,0.6-1.8,0.9-2.7
		c0,19.7,0,39.3,0,59C407.7,494,389.3,494,371,494z"/>
	<path class="st0" d="M175.5,298.4c2.2,17.6,4.4,34.9,6.4,52.3c0.4,3.3,0.5,7.1,4.3,7.5c2.6,0.3,6.1-1.3,8.1-3.1
		c19.4-17.5,38.7-35.2,58.2-53c12.8,11.7,25.4,23.2,38.1,34.8c6.8,6.2,13.4,12.6,20.4,18.4c2.1,1.8,5.8,3.4,8.1,2.8
		c1.8-0.5,3.5-4.5,3.9-7.1c2.3-16.5,4.2-33,6.2-49.6c0.1-1,0.4-1.9,0.7-2.8c17.7-3.1,36.3,8.6,42.2,27c6.9,21.5,13.4,43.2,20,64.8
		c2.9,9.5,6,19,8.8,28.6c7.8,26.5-10.7,51.9-38.4,52.1c-25.2,0.2-50.3,0.1-75.5,0.1c-5.3,0-10.6,0-16.5,0c1.7-10.9,3.3-21.2,5-31.5
		c2.1-13.3,4.4-26.6,6.4-39.9c0.3-2.3-0.1-5-0.9-7.2c-3.6-9.7-7.4-19.2-11.3-28.8c-1-2.5-1-4.1,1.2-6c3.3-2.8,6.2-6.1,9.7-9.6
		c-9.2-8.8-18.4-17.6-27.9-26.7c-9.5,9.1-18.7,17.9-28.1,26.9c3.4,3.2,6.3,6.2,9.4,8.9c2.3,2,2.9,3.8,1.6,6.8
		c-3.2,7.3-5.5,15-9,22.2c-3.4,7-3.4,13.8-2.1,21.2c3.7,21,6.9,42,10.4,63.7c-2,0-3.6,0-5.3,0c-28.3,0-56.7,0-85,0
		c-29.9,0-48.4-25.2-39.6-53.8c9.3-30.4,18.5-60.8,28-91.1C138.7,307.5,156,296.2,175.5,298.4z"/>
	<path class="st0" d="M257.9,136.9c-3.6,0-6.8,0-10.7,0c0-2.3,0.1-4.6,0-6.8c-0.4-9.3-7.2-16.5-16.5-16.8c-12.3-0.3-24.6-0.2-37,0.1
		c-2.8,0.1-5.6,1.9-8.4,2.7c-1.2,0.4-3.1,0.9-3.8,0.3c-1.3-1.1-3-3.1-2.9-4.5c1.5-13.3,4.3-26.3,10.7-38.2
		c7.6-14.1,19.3-23.3,34.7-27.3c19.4-5,38.9-4.9,58.3,0.1c18.8,4.9,31.5,17,37.7,35.3c3.2,9.4,4.8,19.3,6.8,29.1
		c0.3,1.6-1.1,4-2.5,5.2c-0.8,0.8-3.1,0.2-4.6-0.1c-3.5-0.7-7-2.3-10.5-2.5c-10.1-0.3-20.3-0.1-30.5-0.1c-14.1,0-20.4,6.1-20.5,20.3
		C258,134.4,257.9,135.4,257.9,136.9z"/>
	<path class="st0" d="M247.5,153.5c3.5,0,6.7,0,10.5,0c0,2.1,0,4.1,0,6c0.1,9.8,7.1,17.2,16.8,17.4c12,0.2,24,0.2,36,0
		c9.7-0.2,16.8-7.6,17-17.4c0.1-7.3,0.2-14.7,0-22c-0.2-5.4,4.5-6.7,7.6-8.8c0.9-0.6,4.7,1.8,6.3,3.5c11.7,13,5,37.1-11.7,42.3
		c-4.9,1.5-7.2,4.9-8.9,9.3c-8.8,22-22.5,40.3-42.2,53.8c-18.9,12.9-33.3,12.9-52.2,0.1c-19.8-13.4-33.5-31.7-42.3-53.7
		c-2.1-5.3-5.2-8.5-10.7-10c-8.7-2.4-15.2-12.8-15.9-24.4c-0.6-9.4,4-17.7,11.6-21.2c6.3,2.8,9,7.2,8.1,14.2
		c-0.6,5.1-0.2,10.3-0.1,15.5c0.1,11.9,7.2,18.9,19,19c10.5,0,21,0,31.5,0c12.7,0,19.2-6.5,19.5-19.4
		C247.2,156.3,247.3,155,247.5,153.5z"/>
	<path class="st0" d="M313.5,162.9c-13.1,0-25.8,0-39,0c0-11.6,0-23.1,0-35c13,0,25.8,0,39,0C313.5,139.5,313.5,150.9,313.5,162.9z"
		/>
	<path class="st0" d="M193.2,162.8c0-11.7,0-23.1,0-34.9c13,0,25.8,0,39,0c0,11.7,0,23.1,0,34.9
		C219.3,162.8,206.5,162.8,193.2,162.8z"/>
	<path class="st0" d="M276.2,264.8c3,5.4,1.2,8.4-2.8,11.5c-7.1,5.4-13.7,11.5-20.8,17.4c-8.2-6.9-16.3-13.5-24-20.6
		c-1.4-1.3-0.8-5-1.2-8.9C244.5,271.7,260.4,271.9,276.2,264.8z"/>
</g>
<path class="st1" d="z"/>
</svg>
