<?xml version="1.0" encoding="utf-8"?>
<!-- Generator: Adobe Illustrator 21.0.2, SVG Export Plug-In . SVG Version: 6.00 Build 0)  -->
<svg version="1.1" id="Слой_1" xmlns="http://www.w3.org/2000/svg" xmlns:xlink="http://www.w3.org/1999/xlink" x="0px" y="0px"
	 viewBox="0 0 512 512" style="enable-background:new 0 0 512 512;" xml:space="preserve">
<style type="text/css">
	.st0{fill:none;}
	.st1{fill:none;enable-background:new    ;}
	.st3 {fill:#8e5656;}
</style>
<g>
	<path class="st0" d="M46,504c-10,0-20,0-30,0c0-161.6,0-323.2,0-484.9c161.7,0,323.3,0,485,0c0,36.6,0,73.2,0,109.9
		c-0.8-4-1.5-8-2.3-12C484.6,50.7,422.8,9.6,356.1,22c-53.8,10-95.9,58.7-97,113.2c-0.7,36.6-0.3,73.3-0.2,109.9
		c0,10.3,6.7,16.7,17.1,16.7c34.8,0,69.6,0,104.4,0c56.3,0,105.7-39.8,117.6-94.8c1.1-5,2-10,2.9-15c0,117.3,0,234.7,0,352
		c-85.7,0-171.3,0-257,0c0.4-0.3,0.7-0.7,1.1-0.8c20.5-5.3,30.5-21.2,26.3-41.7c-3.6-17.6-7.1-35.2-10.5-52.9
		c-4.4-22.6-16.8-38.6-38.5-46.4c-7.1-2.6-14.9-3.6-22.4-5.1c-10.3-2.1-16.9-8.1-19.2-18.5c-0.9-4.1-1.8-8.1-2.6-12.2
		c-1.2-5.9,0.1-10.7,4.9-14.7c14.7-12.4,25.2-27.7,32.6-45.4c0.6-1.4,1.7-3.1,3-3.5c13.7-5,19.7-15.7,21.8-29.2
		c2.1-14-4.2-28.7-15.9-32.4c-1.2-0.4-2.1-2.6-2.4-4.2c-1.2-6.4-1.8-12.9-3.3-19.2c-4.9-20.5-14.8-37.4-34.8-46.6
		c-16.7-7.7-34.5-8.4-52.4-6.8c-24.2,2.3-43.6,12.6-54.7,35.4c-5.8,11.8-8.3,24.5-10,37.4c-0.2,1.4-1,3.4-2,3.9
		c-11.7,4.6-15.8,14.1-16.5,25.7c-0.9,16.6,6.7,28.6,22.2,36c1.2,0.6,2.2,1.9,2.7,3.1c7.4,18.1,18.4,33.5,33.2,46.2
		c4.1,3.5,5.9,7.9,4.5,13.4c-1.2,4.8-1.9,9.8-3.1,14.6c-2.1,8.2-7.4,13.7-15.6,16c-4.6,1.3-9.4,2.1-14.1,3
		c-25.3,4.8-42.4,19-48.6,44.3c-5,20.5-8.8,41.3-12.5,62.1C15.2,477,18.8,487.6,28,495C33.1,499.1,39.9,501.1,46,504z"/>
	<path class="st3" d="M46,504c-6.1-2.9-12.9-4.9-18-9c-9.2-7.4-12.8-18-10.7-29.6c3.7-20.8,7.5-41.6,12.5-62.1c6.2-25.3,23.3-39.5,48.6-44.3
		c4.7-0.9,9.5-1.7,14.1-3c8.2-2.3,13.4-7.8,15.6-16c1.3-4.8,2-9.8,3.1-14.6c1.3-5.5-0.4-9.8-4.5-13.4
		c-14.8-12.7-25.8-28.1-33.2-46.2c-0.5-1.2-1.6-2.6-2.7-3.1c-15.5-7.4-23-19.4-22.2-36c0.6-11.5,4.7-21,16.5-25.7
		c1-0.4,1.8-2.5,2-3.9c1.7-12.9,4.2-25.6,10-37.4c11.1-22.8,30.5-33.1,54.7-35.4c17.9-1.7,35.6-0.9,52.4,6.8
		c20,9.2,29.9,26.2,34.8,46.6c1.5,6.3,2.1,12.8,3.3,19.2c0.3,1.5,1.2,3.8,2.4,4.2c11.7,3.7,18,18.5,15.9,32.4
		c-2.1,13.5-8.1,24.2-21.8,29.2c-1.3,0.5-2.4,2.1-3,3.5c-7.4,17.6-18,33-32.6,45.4c-4.8,4-6.1,8.9-4.9,14.7
		c0.9,4.1,1.7,8.1,2.6,12.2c2.4,10.4,8.9,16.4,19.2,18.5c7.5,1.5,15.2,2.5,22.4,5.1c21.8,7.8,34.2,23.9,38.5,46.4
		c3.4,17.6,6.9,35.3,10.5,52.9c4.2,20.6-5.8,36.5-26.3,41.7c-0.4,0.1-0.7,0.6-1.1,0.8C178,504,112,504,46,504z"/>
	<path class="st3" d="M501,152c-1,5-1.9,10-2.9,15c-12,55-61.3,94.8-117.6,94.8c-34.8,0-69.6,0-104.4,0c-10.4,0-17.1-6.4-17.1-16.7
		c0-36.6-0.5-73.3,0.2-109.9c1.1-54.4,43.2-103.1,97-113.2C422.8,9.6,484.6,50.7,498.7,117c0.8,4,1.6,8,2.3,12
		C501,136.7,501,144.3,501,152z M309.4,128.1c-9.5,0.8-17.6,5.4-21.7,15.3c-4.2,10.1-2.2,19.4,5.4,27.1
		c14.6,14.9,29.4,29.5,44.1,44.2c5.2,5.1,10.1,4.9,15-0.5c6.7-7.6,13.4-15.3,20-22.9c25-28.6,49.9-57.2,74.9-85.8
		c3.2-3.7,5.3-7.7,4.4-12.7c-2.2-12.3-15.9-15.7-25.1-7.9c-25.3,21.6-51.2,42.6-76.8,63.9c-3.3,2.8-5.7,3.3-8.8-0.2
		c-4-4.5-8.4-8.6-12.7-12.8C323.2,130.9,317.3,128.4,309.4,128.1z"/>
	<path class="st0" d="M309.4,128.1c7.9,0.3,13.9,2.8,18.8,7.7c4.3,4.2,8.7,8.3,12.7,12.8c3.1,3.5,5.5,3,8.8,0.2
		c25.6-21.3,51.4-42.3,76.8-63.9c9.2-7.8,22.9-4.4,25.1,7.9c0.9,5-1.2,9-4.4,12.7c-25,28.6-49.9,57.2-74.9,85.8
		c-6.7,7.6-13.3,15.3-20,22.9c-4.8,5.5-9.8,5.7-15,0.5c-14.8-14.7-29.6-29.3-44.1-44.2c-7.6-7.7-9.6-17-5.4-27.1
		C291.8,133.5,299.8,128.9,309.4,128.1z"/>
</g>
<path class="st1" d="z"/>
</svg>
