<svg id="Layer_1" data-name="Layer 1" xmlns="http://www.w3.org/2000/svg" viewBox="0 0 853.55 490.11"><defs><style>.cls-1{fill:#194071;}</style></defs><title>Лого_англ_blue</title><polygon class="cls-1" points="29.36 490.11 0 490.11 0 321.25 29.36 291.25 29.36 490.11"/><path class="cls-1" d="M732.78,911.25h-31.3l-37.56,198.86h28.25l7.29-37.48h35.34l7.29,37.48h28.25ZM704.45,1047l12.68-65.21L729.8,1047H704.45Z" transform="translate(-25.64 -620)"/><polygon class="cls-1" points="281.86 489.86 238.15 387.85 277.19 291 244.99 291 212.36 375 212.36 291 183 291 183 489.86 212.36 489.86 212.36 401.92 249.36 489.86 281.86 489.86"/><path class="cls-1" d="M401,911.25H331.82a14.68,14.68,0,0,0-14.68,14.68v169.5a14.68,14.68,0,0,0,14.68,14.68H401a14.68,14.68,0,0,0,14.68-14.68V925.93A14.68,14.68,0,0,0,401,911.25ZM346.5,1084.44V936.92h39.78v147.53H346.5Z" transform="translate(-25.64 -620)"/><path class="cls-1" d="M652.5,964.5V925.93a14.68,14.68,0,0,0-14.68-14.68H553.21v198.86h84.61a14.68,14.68,0,0,0,14.68-14.68v-91.6H599.93v25.67h23.21v54.94H582.57V936.92h40.58V964.5H652.5Z" transform="translate(-25.64 -620)"/><path class="cls-1" d="M520.21,1072.5a14.68,14.68,0,0,0,14.68-14.68V925.93a14.68,14.68,0,0,0-14.68-14.68H440.28v198.86h29.36v-36.88l32.75,36.88h32.73L502.2,1072.5h18Zm-14.68-25.67H469.64V936.92h35.89v109.92Z" transform="translate(-25.64 -620)"/><polygon class="cls-1" points="129.33 291.25 129.33 409.32 102.99 291.25 60 291.25 60 490.11 89.36 490.11 89.36 352.9 122.03 490.11 129.33 490.11 147.36 490.11 158.69 490.11 158.69 291.25 129.33 291.25"/><path class="cls-1" d="M879.19,970.25V925.93a14.68,14.68,0,0,0-14.68-14.68H795.37a14.68,14.68,0,0,0-14.68,14.68v69.19h0l69.1,45.85v43.46H810.05v-32.19H780.69v43.18a14.68,14.68,0,0,0,14.68,14.68h69.14a14.68,14.68,0,0,0,14.68-14.68v-65.72h0l0-.05-69.14-45.88V936.92h39.78v33.33h29.36Z" transform="translate(-25.64 -620)"/><path class="cls-1" d="M717.13,620s-66.42,96.92-66.42,156.24,29.74,102.68,66.42,102.68,66.42-43.37,66.42-102.68S717.13,620,717.13,620Z" transform="translate(-25.64 -620)"/></svg>