<svg id="Layer_1" data-name="Layer 1" xmlns="http://www.w3.org/2000/svg" viewBox="0 0 853.55 490.11"><defs><style>.cls-1{fill:#fff;}</style></defs><title>Лого_англ_Инкоргаз</title><polygon class="cls-1" points="29.36 490.11 0 490.11 0 321.25 29.36 291.25 29.36 490.11"/><path class="cls-1" d="M732.78,303.25h-31.3L663.92,502.11h28.25l7.29-37.48h35.34l7.29,37.48h28.25ZM704.45,439l12.68-65.21L729.8,439H704.45Z" transform="translate(-25.64 -12)"/><polygon class="cls-1" points="281.86 489.86 238.15 387.85 277.19 291 244.99 291 212.36 375 212.36 291 183 291 183 489.86 212.36 489.86 212.36 401.92 249.36 489.86 281.86 489.86"/><path class="cls-1" d="M401,303.25H331.82a14.68,14.68,0,0,0-14.68,14.68v169.5a14.68,14.68,0,0,0,14.68,14.68H401a14.68,14.68,0,0,0,14.68-14.68V317.93A14.68,14.68,0,0,0,401,303.25ZM346.5,476.44V328.92h39.78V476.44H346.5Z" transform="translate(-25.64 -12)"/><path class="cls-1" d="M652.5,356.5V317.93a14.68,14.68,0,0,0-14.68-14.68H553.21V502.11h84.61a14.68,14.68,0,0,0,14.68-14.68v-91.6H599.93V421.5h23.21v54.94H582.57V328.92h40.58V356.5H652.5Z" transform="translate(-25.64 -12)"/><path class="cls-1" d="M520.21,464.5a14.68,14.68,0,0,0,14.68-14.68V317.93a14.68,14.68,0,0,0-14.68-14.68H440.28V502.11h29.36V465.23l32.75,36.88h32.73L502.2,464.5h18Zm-14.68-25.67H469.64V328.92h35.89V438.83Z" transform="translate(-25.64 -12)"/><polygon class="cls-1" points="129.33 291.25 129.33 409.32 102.99 291.25 60 291.25 60 490.11 89.36 490.11 89.36 352.9 122.03 490.11 129.33 490.11 147.36 490.11 158.69 490.11 158.69 291.25 129.33 291.25"/><path class="cls-1" d="M879.19,362.25V317.93a14.68,14.68,0,0,0-14.68-14.68H795.37a14.68,14.68,0,0,0-14.68,14.68v69.19h0L849.83,433v43.46H810.05V444.25H780.69v43.18a14.68,14.68,0,0,0,14.68,14.68h69.14a14.68,14.68,0,0,0,14.68-14.68V421.71h0l0-.05-69.14-45.88V328.92h39.78v33.33h29.36Z" transform="translate(-25.64 -12)"/><path class="cls-1" d="M717.13,12s-66.42,96.93-66.42,156.24,29.74,102.68,66.42,102.68,66.42-43.37,66.42-102.68S717.13,12,717.13,12Z" transform="translate(-25.64 -12)"/></svg>