<?xml version="1.0" encoding="utf-8"?>
<!-- Generator: Adobe Illustrator 21.0.2, SVG Export Plug-In . SVG Version: 6.00 Build 0)  -->
<svg version="1.1" id="Layer_1" xmlns="http://www.w3.org/2000/svg" xmlns:xlink="http://www.w3.org/1999/xlink" x="0px" y="0px"
	 viewBox="0 0 620.5 402.4" style="enable-background:new 0 0 620.5 402.4;" xml:space="preserve">
<style type="text/css">
	.st0{fill:#FFFFFF;}
	.st1{clip-path:url(#SVGID_2_);}
	.st2{fill:#D6ECFF;stroke:#FFFFFF;}
	.st3{fill:#99CFFF;stroke:#FFFFFF;}
	.st4{fill:none;}
	.st5{fill:#FFFFFF;stroke:#0086FF;}
	.st6{fill:#0086FF;}
	.st7{enable-background:new    ;}
	.st8{fill:none;stroke:#0086FF;}
	.st9{fill:none;stroke:#0086FF;stroke-dasharray:2.02,2.02;}
	.st10{fill:none;stroke:#0086FF;stroke-dasharray:1,1;}
	.st11{fill:none;stroke:#0086FF;stroke-dasharray:2,2;}
	.st12{fill:url(#SVGID_3_);}
	.st13{fill:url(#SVGID_4_);}
	.st14{fill:#003F6F;}
	.st15{fill:#FFFFFF;stroke:#003F6F;}
	.st16{fill:none;stroke:#003F6F;}
	.st17{fill:none;stroke:#003F6F;stroke-dasharray:2.02,2.02;}
	.st18{fill:none;stroke:#003F6F;stroke-dasharray:1,1;}
	.st19{fill:none;stroke:#003F6F;stroke-dasharray:2,2;}
	.st20{font-family:'MyriadPro-Regular';}
	.st21{font-size:12px;}
</style>
<g>
	<rect x="0" y="1.7" class="st0" width="620" height="400"/>
	<g>
		<g>
			<defs>
				<rect id="SVGID_1_" x="0" y="1.7" width="620" height="400"/>
			</defs>
			<clipPath id="SVGID_2_">
				<use xlink:href="#SVGID_1_"  style="overflow:visible;"/>
			</clipPath>
			<g class="st1">
				<path id="AL" class="st2" d="M322,314.1l-1,4.3l1.3,5.2l3.9,2.9l-0.3,3.3l-2.9,1.6l-0.7,3.9l-4.3,5.9l-1.6-0.7l-0.3-2.6
					l-5.2-3.9l-0.7-5.9l0.7-8.2l1.3-3.9l-1.6-2l-0.7-3.9l3.9-6.2l0.7,2.3l2.6-1l2,3.3l2.3,1.3L322,314.1z"/>
				<path id="AT" class="st3" d="M288.9,232.9l-0.7,5.6H283l1.6,2.9l-2.9,8.5l-1.6,2.3l-8.2,0.3l-4.6,2.9l-7.5-1l-13.1-3.6l-2-4.6
					l-9.2,2.3l-1,2.6l-5.6-2l-4.6-0.3l-4.3-2.3l1.3-3.3l-0.3-2.3l2.9-0.7l4.6,3.6l1.3-3.6l8.2,0.7l6.6-2.3l4.3,0.3l2.9,2.6l1-2.3
					l-1.3-8.8l3.3-1.6l3.3-6.2l6.9,4.6l5.2-5.6l3.3-1l7.2,4.3l4.3-0.7l4.3,2.6l-0.7,1.6L288.9,232.9z"/>
				<path id="BA" class="st2" d="M307.2,276.1h3.3l-2.3,5.6l4.6,4.9l-1.3,5.9l-2.3,0.7l-1.6,1.3l-2.9,2.9l-1.3,6.9l-8.2-4.6
					l-3.6-5.2l-3.6-2.6l-4.3-4.9l-2-3.9l-4.6-5.9l2-5.2l3.3,2.9l2-2.6l4.3-0.3l7.9,2.3l6.2-0.3L307.2,276.1z"/>
				<path id="BE" class="st2" d="M163.1,187.1l6.9,1.3l8.5-2.9l5.9,6.6l4.9,3.3l-1,9.8l-2.3,0.7l-1,7.9l-8.2-6.6l-4.6,1l-6.6-6.9
					l-4.3-5.9l-4.3-0.3l-1.3-5.2L163.1,187.1z"/>
				<path id="BG" class="st2" d="M341,284.3l2.6,5.2l3.6-1l7.2,2l13.4,0.7l4.6-3.3l10.8-2.9l6.6,4.6l5.6,1.3l-4.9,5.2l-3.3,8.8
					l2.9,7.2l-7.9-1.6l-9.5,3.9v6.2l-8.2,1.3l-6.6-4.3l-7.2,3.3l-6.9-0.3l-0.7-8.2l-4.6-3.9l1.6-1.6l-1-1.3l1.6-3.9l3.6-3.9
					l-4.3-5.6l-0.7-4.6L341,284.3z"/>
				<path id="BY" class="st2" d="M348.5,148.4h8.8l9.8-5.9l2.3-8.8l7.5-5.2l-1-7.2l5.6-2.6l9.8-6.2l9.8,4.3l1.3,3.9l4.9-2l8.8,3.9
					l1,7.5l-2,4.3l5.9,10.2l3.6,2.9l-0.7,2.9l6.2,2.6l2.6,3.9l-3.6,3.3l-7.5-0.7l-1.6,1.6l2.3,4.9l2.3,9.5l-7.9,1l-2.9,3.3l-0.7,7.5
					l-3.6-1.3l-8.2,0.7l-2.3-3.3l-3.3,2.6l-3.3-2l-7.2-0.3l-9.8-3.5l-9.2-1.3l-7.2,0.3l-4.9,3.9l-4.3,0.7v-6.6l-2.9-6.9l5.6-2.9
					v-6.2l-2.6-5.9L348.5,148.4z"/>
				<path id="CH" class="st3" d="M220.8,240.8l0.3,2.3l-1.3,3.3l4.3,2.3l4.6,0.3l-0.7,5.6l-3.9,2.3l-6.9-1.6l-2,5.2l-4.3,0.3l-1.6-2
					l-5.2,4.6l-4.6,0.7l-3.9-2.9l-3.3-5.9l-4.3,2v-5.9l6.9-7.5l-0.3-3.6l4.3,1.3l2.6-2.3h7.9l2-2.9L220.8,240.8z"/>
				<path id="CY" class="st2" d="M444.2,391.4l6.2-4.9l-8.2,3.3l-6.6-0.3l-1.3,2.6h-0.7l-4.3,0.3l2,4.6l4.6,1.3l9.5-4.6l-0.3-1
					L444.2,391.4z"/>
				<path id="CZ" class="st2" d="M288.6,226.4l-4.3-2.6l-4.3,0.7l-7.2-4.3l-3.3,1l-5.2,5.6l-6.9-4.6l-5.2-5.9l-4.6-3.3l-1-5.9
					l-1.6-4.3l6.6-2.9l3.3-3.6l6.6-2.9l2.3-2.6l2.3,1.6l3.9-1.6l4.3,4.6l6.9,1.3l-0.7,3.9l4.9,2.9l1.3-3.6l6.2,1.6l1,4.6l6.9,1
					l4.3,6.9h-2.6l-1.3,2.6l-2,0.7l-0.7,3.3l-1.6,0.7l-0.3,1.3l-3.3,1.3l-3.9-0.3L288.6,226.4z"/>
				<path id="DE" class="st3" d="M224.1,131.4v6.2l9.2,3.6v5.6l9.5-2.9l5.2-4.3l10.5,6.2l4.3,4.9l2.3,7.9l-2.6,3.9l3.3,5.2l2.3,7.9
					l-0.7,5.2l3.6,9.5l-3.9,1.6l-2.3-1.6l-2.3,2.6l-6.6,2.9l-3.3,3.6l-6.6,2.9l1.6,4.3l1,5.9l4.6,3.3l5.2,5.9l-3.3,6.2l-3.3,1.6
					l1.3,8.8l-1,2.3l-2.9-2.6l-4.3-0.3l-6.6,2.3l-8.2-0.7l-1.3,3.6l-4.6-3.6l-2.9,0.7l-9.8-4.3l-2,2.9h-7.9l1.3-9.8l4.6-9.5
					l-13.1-2.6l-4.3-3.6l0.7-6.2l-2-3.3l1-9.8l-1.6-15.4h5.6l2.3-5.6l2.3-13.8l-1.6-5.2l2-3.3l7.5-1l1.6,3.3l6.2-7.5l-2-5.9
					l-0.3-9.2l6.9,2L224.1,131.4z"/>
				<path id="DK" class="st2" d="M249.3,121.2l-5.6,13.1l-9.5-9.2l-1.3-6.6l13.4-5.6L249.3,121.2z M233.3,107.4l-2.3,6.2l-2.6-1.6
					l-6.6,11.8l2.6,7.9l-5.9,2.3l-6.9-2l-3.6-8.8l-0.3-16.7l1.6-4.6l2.6-4.9l8.2-1l3.3-4.6l7.5-4.9l-0.3,8.8l-2.6,5.6l1,4.6
					L233.3,107.4z"/>
				<path id="EE" class="st2" d="M356.1,84.9l1-10.2l-3.3,2.3l-5.9-6.2l-0.7-10.2l11.5-4.9l11.5-2.6L380,56l9.5-0.7l1.3,3.3
					l-6.6,10.2l2.6,16.4l-3.9,5.6h-7.5l-7.9-6.2l-3.9-2L356.1,84.9z"/>
				<path id="ES" class="st2" d="M49.8,313.8l0.3-8.8l-3.6-5.6l13.1-9.2l11.1,2.3h12.5l9.8,2.3l7.5-0.7l14.7,0.3l3.6,4.9l17,5.6
					l3.3-2.6l10.5,5.6l10.5-1.6l0.3,7.2l-8.8,8.2l-11.8,2.6l-0.7,3.9l-5.6,6.6l-3.6,9.8l3.6,6.9l-5.2,5.2l-2,7.5l-6.9,2.3l-6.6,8.8
					l-11.8,0.3l-8.8-0.3l-5.9,3.9l-3.6,4.3l-4.6-1l-3.1-3.8l-2.6-6.6l-8.5-1.6l-0.7-3.9l3.3-4.3l1.3-3.3l-3.3-3.6l2.6-7.9l-3.6-7.2
					l3.9-1l0.3-5.6l1.6-1.6v-9.5l4.3-3.3l-2.5-6.1l-5.2-0.3l-1.6,1.6H59l-2.3-5.9l-3.6,1.6L49.8,313.8z"/>
				<polygon class="st2" points="418.3,1.7 410.1,12.5 390.4,36.7 373.7,38 357.7,44.9 342.6,48.8 337.4,38.7 328.5,32.5 
					330.5,13.8 327.4,1.7 				"/>
				<path id="FR" class="st2" d="M220.8,310.2l-2.9,9.5l-4.3-2.6l-2-8.2l2-4.6l5.9-4.9L220.8,310.2z M165.8,201.1l6.6,6.9l4.6-1
					l8.2,6.6l2,1.3l2.6-0.3l4.3,3.6l13.1,2.6l-4.6,9.5l-1.3,9.8l-2.6,2.3l-4.3-1.3l0.3,3.3l-6.6,7.5v5.9l4.3-2l3.3,5.9l-0.3,3.6
					l2.6,4.9l-3.3,3.9l2.3,9.8l4.9,1.6l-1,5.6l-8.2,7.2l-18-3.3l-13.4,3.9l-1,7.5l-10.6,1.8l-10.2-5.6l-3.3,2.6l-17-5.6l-3.6-4.9
					l4.9-7.5l1.6-25.9l-9.5-14.1l-6.9-6.9l-14-5.1l-1-10.2l11.8-2.9l15.4,3.6L115,210l8.5,6.2l21.3-11.1l2.6-11.8l8.2-2.9l1.3,5.2
					l4.3,0.3L165.8,201.1z"/>
				<path id="GB" class="st3" d="M80.9,138.3L76,149.1l-6.9-3.3l-5.6,0.3l2-8.5l-2-8.5l7.9-0.7L80.9,138.3z M105.1,70.2l-9.8,18.6
					l9.5-2.3H115l-2.3,13.8l-8.2,14.7l9.5,1l0.7,1.6l8.2,19l6.2,2.6l5.6,17.7l2.6,5.9l11.1,2.9l-1,9.5l-4.6,4.3l3.6,7.5l-8.2,7.5
					h-12.4l-15.7,3.9l-4.3-2.9l-6.2,6.9l-8.5-1.6l-6.6,5.6l-4.9-2.9L93,188.4l8.2-3.3l0,0l-14.4-2.6l-2.6-5.9l9.5-4.6l-4.9-8.2
					l1.6-10.2l13.8,1.3l0,0l1.3-8.8l-6.2-9.8V136l-11.1-2.9l-2.3-4.3l3.3-7.2l-2.9-4.6l-4.9,7.5l-0.7-15.7l-4.7-8.5l3.3-17.7
					l7.2-14.1l7.2,1.3L105.1,70.2z"/>
				<path id="GE" class="st2" d="M514.6,318.1l1.3-5.2l-2.3-8.5l-5.2-4.6l-4.9-1.3l-3.3-3.9l1-1.6l7.9,2.3l13.4,2l12.4,5.9l1.6,2.3
					l5.6-2l8.5,2.6l2.6,4.9l5.9,2.9l-2.3,1.6l4.6,6.6l-1.3,1.3l-4.9-0.7l-6.9-3.6l-2.3,2l-12.8,2l-8.8-5.9L514.6,318.1z"/>
				<path id="GR" class="st2" d="M350.5,386.2l4.9,3.9l7.2-0.7l6.9,0.7l-0.3,2l4.9-1.3l-1,3.3l-13.1,1v-2l-11.1-2.3L350.5,386.2z
					 M377,317.7l-2.9,7.5l-2.3,1.3l-5.6-0.3l-4.9-1.3l-11.1,3.3l6.2,6.9l-4.6,2h-5.2l-4.9-6.2l-1.6,2.6l2,7.2l4.6,5.6l-3.6,2.6
					l5.2,5.2l4.6,3.3v6.6l-4.6-3.6l-3.3,0.7l2.6,5.9l-2.6,0.7l-3.3-2.3l3.9,13.1h-2l-1.6-3.9h-2l-1,4.3l-1.6-1l0.3-2.3l-2-3.3h-2
					l0.3,2.6l-0.7,1l-2-1.6L330,371l1.6-2l-1.3-2.3l-1.3-1.3l-0.7-1l-1.6-2.9l2-1.6l1.3-1.6l2,0.3l0.7-1.3l2-0.7l2.3,1.6l1.6,0.7
					l1.3-2l-2.9-0.3l-2-0.7l-3.9,1h-3.9l-3.6-5.2l-0.7-0.7l0.7-2l-4.6-3.6l-0.7-3.3l4.3-5.9l0.7-3.9l2.9-1.6l0.3-3.3l5.9-1l3.6-2.6
					l4.9,0.3l1.6-2l1.6-0.3l6.9,0.3l7.2-3.3l6.6,4.3l8.2-1.3v-6.2L377,317.7z"/>
				<path id="HR" class="st2" d="M305.6,262.4l2.3,5.2l2.9,3.6l-3.6,4.9l-4.2-2.9l-6.2,0.3l-7.9-2.3l-4.3,0.3l-2,2.6l-3.3-2.9
					l-2,5.2l4.6,5.9l2,3.9l4.3,4.9l3.6,2.6l3.6,5.2l8.2,4.6l-1,2l-8.5-4.6l-5.2-4.6l-8.5-3.6l-7.9-9.5l2-1l-4.3-5.2l-0.3-4.3l-5.9-2
					l-2.9,5.6l-2.6-4.3l0.3-4.6l0.3-0.3l6.2,0.3l1.6-2.3l3.3,2l3.6,0.3v-3.6l3.3-1.3l1-5.2l7.2-3.6l2.9,1.6l6.9,5.6l7.5,2.6
					L305.6,262.4z"/>
				<path id="HU" class="st3" d="M281.7,249.9l2.9-8.5l-1.6-2.9h5.2l0.7-5.6l4.6,3.6l3.3,1.6l7.9-1.6l0.7-2.6l3.6-0.3l4.6-2l1,1
					l4.3-1.6l2.3-3.3l2.9-0.7l9.8,4.3l2-1.3l4.9,3.6l0.7,3.6l-5.6,2.9l-4.3,9.2l-5.6,9.2l-7.2,1l-5.9-0.7l-7.2,3.3l-3.3,2l-7.5-2.6
					l-6.9-5.6l-3-1.7l-1.6-4.6L281.7,249.9z"/>
				<path id="IE" class="st2" d="M76,149.1l1.7,11.1l-6.9,13.4l-16.4,8.8l-13.1-2.2l7.5-15.7l-4.9-15.7l12.4-12.4l6.9-7.5l2,8.5
					l-2,8.5l5.6-0.3L76,149.1z"/>
				<path id="IT" class="st2" d="M275.5,357.4l-3.3,9.2l1.3,3.6l-2,5.9l-6.9-4.3l-4.6-1.3l-12.8-5.9l1.3-5.9l10.8,1l9.5-1.3
					L275.5,357.4z M217.5,322l5.6,8.5l-1.3,15.7l-4.3-0.7l-3.6,3.9l-3.6-3.3l-0.3-14.4l-2-6.9l4.9,0.7L217.5,322z M246.6,251.3
					l13.1,3.3l-1,6.6l2.3,5.6l-7.2-2l-7.5,4.6l0.7,6.6l-1,3.6l2.9,6.6l8.5,6.6l4.6,10.5l10.2,9.8h7.2l2.3,2.6l-2.6,2.3l8.2,4.6
					l6.9,3.6l7.9,6.2l1,2.3l-1.6,4.3l-5.2-5.6l-7.9-2l-3.9,7.9l6.6,4.3l-1,6.2l-3.9,0.7l-5.2,9.8l-3.9,1v-3.6l2-6.2l2-2.6l-3.6-6.9
					l-2.9-5.9l-3.9-1.6l-2.6-5.2l-5.9-2.3l-3.9-4.9l-6.9-0.7l-7.2-5.6l-8.5-8.2l-6.2-7.2l-2.9-12.4l-4.6-1.6l-7.5-4.3l-4.3,1.6
					l-5.2,5.9l-3.9,1l1-5.6l-4.9-1.6l-2.3-9.8l3.3-3.9l-2.6-4.9l0.3-3.6l3.9,2.9l4.6-0.7l5.2-4.6l1.6,2l4.3-0.3l2-5.2l6.9,1.6
					l3.9-2.3l0.7-5.6l5.6,2l1-2.6l9.2-2.3L246.6,251.3z"/>
				<path id="XK" class="st2" d="M323.6,311.5l-0.3,2.6H322l-0.7-4.6l-2.3-1.3l-2-3.3l1.6-2.9l2.3-1l1.3-4.3l1.6-0.7l1.3,1.6
					l1.6,0.7l1.3,2l1.6,0.7l1.6,2.3h1.3l-1,2.9l-1,1.6l0.3,1l-2,0.3L323.6,311.5z"/>
				<path id="LT" class="st2" d="M341.6,141.9l-0.7-3.9l1-4.3l-3.9-2.6l-9.5-2.9l-2-13.8l10.5-4.9l15.4,1l9.2-1.6l1.3,3.3l4.9,1
					l8.8,7.9l1,7.2l-7.5,5.2l-2.3,8.8l-9.8,5.9h-8.8l-2.3-4.9L341.6,141.9z"/>
				<path id="LU" class="st2" d="M188.4,204.7l2,3.3l-0.7,6.2l-2.6,0.3l-2-1.3l1-7.9L188.4,204.7z"/>
				<path id="LV" class="st2" d="M326.2,114.7l0.3-12.4l4.6-10.5l8.5-5.9l7.2,12.8l7.2-0.3l1.7-13.2l7.9-2.9l3.9,2l7.9,6.2h7.5
					l4.3,3.9l0.7,8.2l2.9,9.8l-9.8,6.2l-5.6,2.6l-8.8-7.9l-4.9-1l-1.3-3.3l-9.2,1.6l-15.4-1L326.2,114.7z"/>
				<path id="MD" class="st2" d="M377.3,231.6l2.3-2l6.2-1.3l6.9,4.3l3.9,0.7l4.3,3.6l-0.7,4.6l3.3,2.3l1.3,5.6l3.3,3.3l-0.7,2
					l1.6,1.3l-2.3,1l-6.2-0.7l-1-2l-2,1l0.7,2.3l-2.6,4.3l-1.6,4.6l-2.3,1.3l-1.6-5.9l1-5.6l-0.3-5.9l-5.2-7.9l-2.9-5.9l-2.9-3.9
					L377.3,231.6z"/>
				<path id="ME" class="st2" d="M314.8,305.9l-0.7-2.3l-3.9,6.2l0.7,3.9l-2-1l-2.6-3.9l-3.9-2.6l1-2l1.3-6.9l2.9-2.9l1.6-1.3
					l2.3,2.3l1.3,1.6l2.9,1.3l3.6,2.6l-0.7,1l-1.6,2.9L314.8,305.9z"/>
				<path id="MK" class="st2" d="M322,314.1h1.3l0.3-2.6l5.6-2l2-0.3l3.3-0.7l4.3-0.3l4.6,3.9l0.7,8.2l-1.6,0.3l-1.6,2l-4.9-0.3
					l-3.6,2.6l-5.9,1l-3.9-2.9l-1.3-5.2L322,314.1z"/>
				<path id="NL" class="st2" d="M188.7,154.6l7.5,0.3l1.6,5.2l-2.3,13.8l-2.3,5.6h-5.6l1.6,15.4l-4.9-3.3l-5.9-6.6l-8.5,2.9
					l-6.9-1.3l4.6-3.9l8.2-21.9L188.7,154.6z"/>
				<polyline class="st2" points="243.1,1.7 243.4,11.8 249.3,21.7 246.3,43.6 238.8,56.1 234.9,66.2 234.4,65.4 228.6,55.1 
					210.6,75.7 198.5,79.6 185.7,70.8 182.5,51.5 179.5,7.9 183.7,1.7 242.5,1.7 				"/>
				<path id="PL" class="st3" d="M270.9,190.7l-3.6-9.5l0.7-5.2l-2.3-7.9l-3.3-5.2l2.6-3.9l-2.3-7.9l6.2-4.6l14.4-7.2l11.5-5.2
					l9.2,2.6l0.7,3.9l8.8,0.3l11.5,2l17-0.3l4.6,1.6l2.3,4.9l0.3,6.9l2.6,5.9v6.2l-5.6,2.9l2.9,6.9v6.6l4.6,12.8l-1,3.9l-4.6,1.6
					l-8.1,11.8l2.3,6.2l-2-0.7l-8.8-5.2l-6.6,2l-4.3-1.3l-5.6,2.9l-4.6-4.9l-3.9,2l-0.7-1l-4.3-6.9l-6.9-1l-1-4.6l-6.2-1.6l-1.3,3.6
					l-4.9-2.9l0.7-3.9L275,196L270.9,190.7z"/>
				<path id="PT" class="st2" d="M49.8,313.8l3.3-3.3l3.6-1.6l2.3,5.9h5.2l1.6-1.6l5.2,0.3l2.6,6.2l-4.3,3.3v9.5l-1.6,1.6l-0.3,5.6
					l-3.9,1l3.6,7.2l-2.6,7.9l3.3,3.6l-1.3,3.3l-3.3,4.3l0.7,3.9l-3.6,2.9l-4.9-1.6l-4.9,1.3l1.3-8.8l-1-7.2l-4.3-1l-2.3-4.6
					l0.7-7.9l3.6-4.3l0.7-4.9l2-7.2l-0.3-5.2l-2-4.3L49.8,313.8z"/>
				<path id="RO" class="st2" d="M341.3,236.2l3.9-2.9l5.6,1.6h5.9l4.3,3.3l3.3-2l6.9-1.3l2.3-3.3h3.9l2.6,1.3l2.9,3.9l2.9,5.9
					l5.2,7.9l0.3,5.9l-1,5.6l1.6,5.9l4.1,2.2l4.3-2l4.3,2.3l0.3,3.3l-4.6,2.6l-2.9-1.3l-2.6,15.4l-5.6-1.3l-6.6-4.6l-10.8,2.9
					l-4.6,3.3l-13.4-0.7l-7.2-2l-3.6,1l-2.6-5.2l-1.6-2.3l2-2.3l-2.3-1.6l-2.9,2.9l-5.2-3.6l-0.7-5.2l-5.6-2.9l-1-4.3l-4.3-5.2
					l7.2-2.6l5.6-9.2l4.3-9.2L341.3,236.2z"/>
				<path id="RS" class="st2" d="M324.6,268.9l5.6,2.9l0.7,5.2l5.2,3.6l2.9-2.9l2.3,1.6l-2,2.3l1.6,2.3l-2.3,2.9l0.7,4.6l4.6,5.6
					l-3.6,3.9l-1.6,3.9l1,1.3l-1.6,1.6l-4.3,0.3l-3.3,0.7l-0.3-1l1-1.6l1-2.9h-1.3l-1.6-2.3l-1.6-0.7l-1.3-2l-1.6-0.7l-1.3-1.6
					l-1.6,0.7l-1.3,4.3l-1.6,1l0.7-1l-3.6-2.6l-2.9-1.3l-1.3-1.6l-2.3-2.3l2.3-0.7l1.3-5.9l-4.6-4.9l2.3-5.6h-3.3l3.6-4.9l-2.9-3.6
					l-2.3-5.2l7.2-3.3l5.9,0.7l4.9,5.2L324.6,268.9z"/>
				<polygon class="st2" points="620.2,1.7 620.2,180.2 598.7,180.5 579.8,196.6 578.8,207 569.3,198.9 562.1,214.6 564.7,217.5 
					559.4,228 567.3,237.2 574.2,236.8 580.1,246 579.1,252.9 583.7,255.2 579.4,263 570.6,265.3 561.4,278.8 569.6,290.9 
					568.6,299.4 578.8,314.1 573.2,319.1 571.6,322.3 567.6,321.7 561.4,314.1 558.8,313.8 552.9,310.9 549.9,306 541.4,303.3 
					535.9,305.3 534.2,303 521.8,297.1 508.4,295.1 500.5,292.8 499.5,294.5 487.7,283.7 477.2,278.8 469.4,271.2 475.9,269.3 
					483.5,258.1 478.2,252.9 491.6,247.3 491.3,244.4 483.1,246.7 483.5,240.8 488.4,236.8 497.2,235.9 498.5,231.3 496.6,223.7 
					500.2,216.5 500.2,212.3 486.7,207.7 481.5,207.7 475.9,201.1 468.7,203.4 456.9,198.5 457.3,195.6 454,189.4 446.8,188.7 
					446.1,184.1 448.4,181.2 442.5,172.6 433,174 430.4,173.3 428.1,176.6 424.8,175.9 422.5,166.4 420.2,161.2 421.9,159.9 
					429.4,160.5 433,157.3 430.4,153.3 424.2,150.7 424.8,147.8 421.2,144.8 415.3,134.6 417.3,130.4 416.3,122.9 407.5,118.9 
					402.6,120.9 401.3,117 391.4,112.7 388.5,102.9 387.8,94.7 383.6,90.8 387.5,85.2 384.9,68.8 391.4,58.7 390.1,55.4 400.6,45.2 
					391.1,36.4 410.8,12.2 418.8,1.7 				"/>
				<line class="st4" x1="243.1" y1="1.7" x2="242.5" y2="1.7"/>
				<polygon class="st2" points="337.7,131.1 328.2,128.1 315.4,133.3 313.5,140.2 324.9,141.9 342,141.5 341.3,137.6 342.3,133.3 
									"/>
				<polyline class="st2" points="243.1,1.7 294.7,1.7 290.2,20.3 296.8,33.8 305.6,43.9 297.1,64.2 287.6,68.5 284,97.3 278.8,113 
					267.6,111.4 262.4,124.2 251.9,124.8 248.9,109.4 241.1,90.4 234.2,65.9 234.4,65.4 238.1,55.7 245.7,43.3 248.6,21.3 
					242.7,11.5 242.5,1.7 				"/>
				<path id="SI" class="st2" d="M259.8,254.5l7.5,1l4.6-2.9l8.2-0.3l1.6-2.3l1.6,0.3l1.6,4.6l-7.2,3.6l-1,5.2l-3.3,1.3v3.6
					l-3.6-0.3l-3.3-2l-1.6,2.3l-6.2-0.3l2-1.3l-2.3-5.6L259.8,254.5z"/>
				<path id="SK" class="st2" d="M305.9,213.6l0.7,1l3.9-2l4.6,4.9l5.6-2.9l4.3,1.3l6.6-2l8.8,5.2l-2.6,3.6l-1.6,5.6l-2,1.3
					l-9.8-4.3l-2.9,0.7l-2.3,3.3l-4.3,1.6l-1-1l-4.6,2l-3.6,0.3l-0.7,2.6l-7.9,1.6l-3.3-1.6l-4.6-3.6l-1-4.9l0.7-1.6l1.3-2.9
					l3.9,0.3l3.3-1.3l0.3-1.3l1.6-0.7l0.7-3.3l2-0.7l1.3-2.6L305.9,213.6z"/>
				<path id="TR" class="st2" d="M472,320.4l13.1,4.6l10.8-2l7.9,1l10.8-6.2l9.8-0.7l8.8,5.9l1.6,4.3l-1,5.9l6.9,2.9l3.6,3.6
					l-6.2,3.3l2.9,13.4l-1.6,3.6l4.9,9.2l-4.3,2l-3.3-2.9l-10.7-1.8l-3.9,1.6l-10.5,1.6l-4.9-0.3l-10.5,4.3h-7.5l-4.9-2.3l-10.2,3.3
					l-2.9-2.3l-0.7,6.2l-2.6,2.6l-2.6,2.6l-3.3-5.2l3.6-4.3l-5.6,1l-7.5-2.6l-6.2,6.6l-14.1,1.3l-7.5-6.2l-9.8-0.3l-2.3,4.6
					l-6.2,1.3l-8.8-6.2l-10.2,0.3l-5.6-11.5l-6.6-6.6l4.6-9.2l-5.9-5.6l10.2-11.5l14.1-0.3l3.9-9.2l17.4,1.6l11.1-7.9l10.8-3.6
					L456,310L472,320.4z M382.6,328.2l-7.5,6.6l-2.9-5.6v-2.6l2.3-1.3l2.9-7.5l-4.6-3.3l9.5-3.9l7.9,1.6l1,4.6l8.2,3.9l-1.6,2.9
					l-10.8,0.7L382.6,328.2z"/>
				<path id="UA" class="st5" d="M424.8,175.9l3.3,0.7l2.3-3.3l2.6,0.7l9.5-1.3l5.9,8.5l-2.3,2.9l0.7,4.6l7.2,0.7l3.3,6.2l-0.3,2.9
					l11.8,4.9l6.9-2.3l5.6,6.6h5.2l13.4,4.6v4.3l-3.6,7.2l2,7.5l-1.3,4.6l-8.8,1l-4.6,3.9l-0.3,5.9l-7.2,1l-6.2,4.3l-8.5,0.7
					l-7.9,4.9l-4.3,3.3l4.9,4.9l4.6,3.3l9.5-0.7l-1.6,4.6l-10.3,2.2l-12.4,7.5l-4.9-2.6l2-5.9l-10.3-4l1.6-2.6l10.5-5.2l-1.3-2.6
					l-1.6,1.3l-1.3-0.7l-14.4-3.3l-0.7-4.9l-8.5,1.6l-3.3,7.2l-7.2,9.8l-4.3-2.3l-4.3,2l-3.9-2.3l2.3-1.3l1.6-4.6l2.6-4.3l-0.7-2.3
					l2-1l1,2l5.6,0.3l2.3-1l-1.6-1.3l0.7-2l-3.3-3.3l-1.3-5.6l-3.3-2.3l0.7-4.6l-4.3-3.6l-3.9-0.7l-6.9-4.3l-6.2,1.3l-2.3,2h-3.9
					l-2.3,3.3l-6.9,1.3l-3.3,2l-4.3-3.3h-5.9l-5.6-1.6l-3.9,2.9l-0.7-3.6l-4.9-3.6l1.6-5.6l2.6-3.6l2,0.7l-2.3-6.2l8.2-11.8l4.6-1.6
					l1-3.9l-4.6-12.8l4.3-0.7l4.9-3.9l7.2-0.3l9.2,1.3l10.2,3.6l7.2,0.3l3.3,2l3.3-2.6l2.3,3.3l8.2-0.7l3.6,1.3l0.7-7.5l2.9-3.3
					L424.8,175.9z"/>
				<circle class="st6" cx="186.1" cy="254.5" r="3.3"/>
				<circle class="st6" cx="209" cy="238.2" r="3.3"/>
				<circle class="st6" cx="207.4" cy="249.6" r="1.6"/>
				<circle class="st6" cx="213.9" cy="262.7" r="1.6"/>
				<circle class="st6" cx="251.6" cy="166.1" r="3.3"/>
				<circle class="st6" cx="133.7" cy="179.2" r="3.3"/>
				<circle class="st6" cx="326.9" cy="175.9" r="3.3"/>
				<circle class="st6" cx="412.1" cy="202.1" r="4.9"/>
				<g class="st7">
					<path class="st6" d="M422,195.7h1v4.8h0.7l2.2-4.8h1l-2.3,5.1l2.6,5.5h-1l-2.5-5.2H423v5.2h-1V195.7z"/>
				</g>
				<g class="st7">
					<path class="st6" d="M428.4,198.7h0.8v5.8l2.5-5.8h0.8v7.5h-0.8v-5.8l-2.5,5.8h-0.8V198.7z"/>
				</g>
				<g class="st7">
					<path class="st6" d="M434.7,206c-0.3-0.2-0.5-0.5-0.7-0.9s-0.2-1-0.2-1.7v-1.9c0-0.7,0.1-1.3,0.2-1.7s0.4-0.7,0.7-0.9
						c0.3-0.2,0.7-0.3,1.2-0.3s0.9,0.1,1.2,0.3c0.3,0.2,0.5,0.6,0.6,1s0.2,1,0.2,1.8v0.7h-3v1.1c0,0.5,0,0.9,0.1,1.2
						s0.2,0.5,0.3,0.7s0.4,0.2,0.7,0.2c0.3,0,0.6-0.1,0.8-0.3s0.3-0.6,0.3-1.1v-0.5h0.9v0.4c0,0.7-0.2,1.3-0.5,1.7s-0.8,0.6-1.5,0.6
						C435.4,206.3,435,206.2,434.7,206z M436.9,201.8v-0.6c0-0.5,0-0.8-0.1-1.1c0-0.3-0.1-0.5-0.3-0.6c-0.1-0.1-0.4-0.2-0.7-0.2
						c-0.3,0-0.5,0.1-0.6,0.2c-0.2,0.1-0.3,0.3-0.3,0.6c-0.1,0.3-0.1,0.7-0.1,1.2v0.5L436.9,201.8L436.9,201.8z"/>
				</g>
				<g class="st7">
					<path class="st6" d="M439.2,198.7h1.8c0.7,0,1.2,0.2,1.5,0.5s0.5,0.8,0.5,1.3c0,0.4-0.1,0.7-0.2,1s-0.4,0.5-0.7,0.6
						c0.4,0.1,0.7,0.3,0.9,0.7s0.3,0.8,0.3,1.2c0,0.7-0.1,1.2-0.4,1.6c-0.3,0.4-0.8,0.6-1.6,0.6h-1.9v-7.5H439.2z M441.1,201.9
						c0.3,0,0.5-0.1,0.7-0.3s0.3-0.5,0.3-0.9c0-0.8-0.4-1.2-1.2-1.2h-0.8v2.4H441.1z M441,205.5c0.4,0,0.7-0.1,0.9-0.4
						c0.2-0.2,0.3-0.6,0.3-1.1c0-0.6-0.1-0.9-0.3-1.1c-0.2-0.2-0.5-0.3-0.9-0.3h-0.9v2.9L441,205.5L441,205.5z"/>
				</g>
				<circle class="st6" cx="307.2" cy="248" r="3.3"/>
				<circle class="st6" cx="281" cy="231.6" r="3.3"/>
				<path class="st8" d="M186.1,254.5l0.8-0.6"/>
				<path class="st9" d="M188.4,252.6c53.4-44,146.5-59.1,221.7-50.7"/>
				<path class="st8" d="M411.1,202h1"/>
				<path class="st10" d="M207.4,249.6c0-6.3,0.7-11.5,1.6-11.5"/>
				<path class="st10" d="M213.9,262.7c-3.6,0-6.6-5.9-6.6-13.1"/>
				<path class="st11" d="M249.9,166.9c54-21.7,114.2-17,162.1,35.2"/>
				<path class="st11" d="M326.9,175.9c40.1-4.6,65.8,8.2,85.2,26.2"/>
				<path class="st11" d="M133.7,179.2c52.4,26.5,143.3-6.6,278.4,22.9"/>
				<path class="st11" d="M281,231.6c19-16,58.6-29.5,131-29.5"/>
				<path class="st11" d="M307.2,248c24.2-33.1,76.3-45.9,104.8-45.9"/>
			</g>
		</g>
	</g>
	
		<linearGradient id="SVGID_3_" gradientUnits="userSpaceOnUse" x1="55.5" y1="104.7475" x2="565.5" y2="-405.2525" gradientTransform="matrix(1 0 0 1 0 352.69)">
		<stop  offset="0" style="stop-color:#FFFFFF;stop-opacity:0"/>
		<stop  offset="0.16" style="stop-color:#FFFFFF;stop-opacity:1.000000e-02"/>
		<stop  offset="0.29" style="stop-color:#FFFFFF;stop-opacity:5.000000e-02"/>
		<stop  offset="0.41" style="stop-color:#FFFFFF;stop-opacity:0.12"/>
		<stop  offset="0.52" style="stop-color:#FFFFFF;stop-opacity:0.21"/>
		<stop  offset="0.63" style="stop-color:#FFFFFF;stop-opacity:0.33"/>
		<stop  offset="0.74" style="stop-color:#FFFFFF;stop-opacity:0.48"/>
		<stop  offset="0.84" style="stop-color:#FFFFFF;stop-opacity:0.66"/>
		<stop  offset="0.94" style="stop-color:#FFFFFF;stop-opacity:0.86"/>
		<stop  offset="1" style="stop-color:#FFFFFF"/>
	</linearGradient>
	<rect x="0.5" y="2.4" class="st12" width="620" height="400"/>
	
		<linearGradient id="SVGID_4_" gradientUnits="userSpaceOnUse" x1="310" y1="47.31" x2="310" y2="-352.69" gradientTransform="matrix(1 0 0 1 0 352.69)">
		<stop  offset="0" style="stop-color:#FFFFFF;stop-opacity:0"/>
		<stop  offset="0.12" style="stop-color:#FFFFFF;stop-opacity:2.000000e-02"/>
		<stop  offset="0.25" style="stop-color:#FFFFFF;stop-opacity:7.000000e-02"/>
		<stop  offset="0.37" style="stop-color:#FFFFFF;stop-opacity:0.15"/>
		<stop  offset="0.5" style="stop-color:#FFFFFF;stop-opacity:0.26"/>
		<stop  offset="0.63" style="stop-color:#FFFFFF;stop-opacity:0.41"/>
		<stop  offset="0.76" style="stop-color:#FFFFFF;stop-opacity:0.59"/>
		<stop  offset="0.89" style="stop-color:#FFFFFF;stop-opacity:0.8"/>
		<stop  offset="1" style="stop-color:#FFFFFF"/>
	</linearGradient>
	<rect class="st13" width="620" height="400"/>
	<circle class="st14" cx="326.9" cy="175.9" r="3.3"/>
	<path id="UA-2" class="st15" d="M424.8,175.9l3.3,0.7l2.3-3.3l2.6,0.7l9.5-1.3l5.9,8.5l-2.3,2.9l0.7,4.6l7.2,0.7l3.3,6.2l-0.3,2.9
		l11.8,4.9l6.9-2.3l5.6,6.6h5.2l13.4,4.6v4.3l-3.6,7.2l2,7.5l-1.3,4.6l-8.8,1l-4.6,3.9l-0.3,5.9l-7.2,1l-6.2,4.3l-8.5,0.7l-7.9,4.9
		l-4.3,3.3l4.9,4.9l4.6,3.3l9.5-0.7l-1.6,4.6l-10.3,2.2l-12.4,7.5l-4.9-2.6l2-5.9l-10.3-4l1.6-2.6l10.5-5.2l-1.3-2.6l-1.6,1.3
		l-1.3-0.7l-14.4-3.3l-0.7-4.9l-8.5,1.6l-3.3,7.2l-7.2,9.8l-4.3-2.3l-4.3,2l-3.9-2.3l2.3-1.3l1.6-4.6l2.6-4.3l-0.7-2.3l2-1l1,2
		l5.6,0.3l2.3-1l-1.6-1.3l0.7-2l-3.3-3.3l-1.3-5.6l-3.3-2.3l0.7-4.6l-4.3-3.6l-3.9-0.7l-6.9-4.3l-6.2,1.3l-2.3,2h-3.9l-2.3,3.3
		l-6.9,1.3l-3.3,2l-4.3-3.3h-5.9l-5.6-1.6l-3.9,2.9l-0.7-3.6l-4.9-3.6l1.6-5.6l2.6-3.6l2,0.7l-2.3-6.2l8.2-11.8l4.6-1.6l1-3.9
		l-4.6-12.8l4.3-0.7l4.9-3.9l7.2-0.3l9.2,1.3l10.2,3.6l7.2,0.3l3.3,2l3.3-2.6l2.3,3.3l8.2-0.7l3.6,1.3l0.7-7.5l2.9-3.3L424.8,175.9z
		"/>
	<circle class="st14" cx="412.1" cy="202.1" r="4.9"/>
	<path class="st16" d="M186.1,254.5l0.8-0.6"/>
	<path class="st17" d="M188.4,252.6c53.4-44,146.5-59.1,221.7-50.7"/>
	<path class="st8" d="M411.1,202h1"/>
	<path class="st18" d="M207.4,249.6c0-6.3,0.7-11.5,1.6-11.5"/>
	<path class="st18" d="M213.9,262.7c-3.6,0-6.6-5.9-6.6-13.1"/>
	<path class="st19" d="M249.9,166.9c54-21.7,114.2-17,162.1,35.2"/>
	<path class="st19" d="M326.9,175.9c40.1-4.6,65.8,8.2,85.2,26.2"/>
	<path class="st19" d="M133.7,179.2c52.4,26.5,143.3-6.6,278.4,22.9"/>
	<path class="st19" d="M281,231.6c19-16,58.6-29.5,131-29.5"/>
	<circle class="st14" cx="186.1" cy="254.5" r="3.3"/>
	<circle class="st14" cx="209" cy="238.2" r="3.3"/>
	<circle class="st14" cx="207.4" cy="249.6" r="1.6"/>
	<circle class="st14" cx="213.9" cy="262.7" r="1.6"/>
	<circle class="st14" cx="251.6" cy="166.1" r="3.3"/>
	<circle class="st14" cx="133.7" cy="179.2" r="3.3"/>
	<circle class="st14" cx="326.9" cy="175.9" r="3.3"/>
	<circle class="st14" cx="307.2" cy="248" r="3.3"/>
	<circle class="st14" cx="281" cy="231.6" r="3.3"/>
</g>
<circle class="st14" cx="434.7" cy="215.3" r="3.3"/>
<circle class="st14" cx="354.9" cy="210.2" r="3.3"/>
<circle class="st14" cx="364.1" cy="222.8" r="3.3"/>
<circle class="st14" cx="440.5" cy="228.6" r="3.3"/>
<circle class="st14" cx="458.8" cy="208" r="3.3"/>
<path class="st19" d="M354.9,210.4c1,0,21.4-3.5,51.3-6.6"/>
<path class="st19" d="M364.1,222.8c20.1-0.9,46-17.7,48-20.8"/>
<path class="st19" d="M412.1,202c16.3,19.7,23.4,24.1,28.1,26.6"/>
<path class="st19" d="M412.1,202c10.9,7.4,17.7,10.8,22.4,13.3"/>
<path class="st19" d="M412.1,202c23.3-27,42,3.6,46.7,6.1"/>
<text transform="matrix(1 0 0 1 218.1835 169.5205)" class="st20 st21">Berlin</text>
<text transform="matrix(1 0 0 1 89.5165 182.1875)" class="st20 st21">London</text>
<text transform="matrix(1 0 0 1 283.183 178.8545)" class="st20 st21">Warsaw</text>
<text transform="matrix(1 0 0 1 172.5165 238.5205)" class="st20 st21">Zurich</text>
<text transform="matrix(1 0 0 1 143.5165 258.5205)" class="st20 st21">Geneva</text>
<text transform="matrix(1 0 0 1 197.85 273.8545)" class="st20 st21">Lugano</text>
<text transform="matrix(1 0 0 1 209.5165 253.8545)" class="st20 st21">Zug</text>
<text transform="matrix(1 0 0 1 240.85 235.1875)" class="st20 st21">Vienna</text>
<text transform="matrix(1 0 0 1 313.1832 252.5875)" class="st20 st21">Budapest</text>
</svg>
