<?xml version="1.0" encoding="utf-8"?>
<!-- Generator: Adobe Illustrator 21.0.2, SVG Export Plug-In . SVG Version: 6.00 Build 0)  -->
<svg version="1.1" id="Layer_1" xmlns="http://www.w3.org/2000/svg" xmlns:xlink="http://www.w3.org/1999/xlink" x="0px" y="0px"
	 viewBox="0 0 621.8 402.4" style="enable-background:new 0 0 621.8 402.4;" xml:space="preserve">
<style type="text/css">
	.st0{clip-path:url(#SVGID_2_);}
	.st1{fill:#FFFFFF;}
	.st2{clip-path:url(#SVGID_4_);}
	.st3{fill:#D6ECFF;stroke:#FFFFFF;}
	.st4{fill:#99CFFF;stroke:#FFFFFF;}
	.st5{fill:none;}
	.st6{fill:#FFFFFF;stroke:#0086FF;}
	.st7{fill:#0086FF;}
	.st8{enable-background:new    ;}
	.st9{fill:none;stroke:#0086FF;}
	.st10{fill:none;stroke:#0086FF;stroke-dasharray:2.02,2.02;}
	.st11{fill:none;stroke:#0086FF;stroke-dasharray:1,1;}
	.st12{fill:none;stroke:#0086FF;stroke-dasharray:2,2;}
	.st13{fill:url(#SVGID_5_);}
	.st14{fill:url(#SVGID_6_);}
	.st15{fill:#003F6F;}
	.st16{fill:#FFFFFF;stroke:#003F6F;}
	.st17{fill:none;stroke:#003F6F;}
	.st18{fill:none;stroke:#003F6F;stroke-dasharray:2.02,2.02;}
	.st19{fill:none;stroke:#003F6F;stroke-dasharray:1,1;}
	.st20{fill:none;stroke:#003F6F;stroke-dasharray:2,2;}
	.st21{clip-path:url(#SVGID_2_);fill:#003F6F;}
	.st22{clip-path:url(#SVGID_2_);fill:none;stroke:#003F6F;stroke-dasharray:2,2;}
	.st23{clip-path:url(#SVGID_2_);enable-background:new    ;}
	.st24{font-family:'MyriadPro-Regular';}
	.st25{font-size:12px;}
</style>
<defs>
	<rect id="SVGID_1_" y="72.7" width="621.3" height="329.7"/>
</defs>
<clipPath id="SVGID_2_">
	<use xlink:href="#SVGID_1_"  style="overflow:visible;"/>
</clipPath>
<g class="st0">
	<rect x="1.1" y="1.7" class="st1" width="620" height="400"/>
	<g>
		<g>
			<g>
				<defs>
					<rect id="SVGID_3_" x="1.1" y="1.7" width="620" height="400"/>
				</defs>
				<clipPath id="SVGID_4_">
					<use xlink:href="#SVGID_3_"  style="overflow:visible;"/>
				</clipPath>
				<g class="st2">
					<path id="AL" class="st3" d="M323.1,314.1l-1,4.3l1.3,5.2l3.9,2.9l-0.3,3.3l-2.9,1.6l-0.7,3.9l-4.3,5.9l-1.6-0.7l-0.3-2.6
						L312,334l-0.7-5.9l0.7-8.2l1.3-3.9l-1.6-2l-0.7-3.9l3.9-6.2l0.7,2.3l2.6-1l2,3.3l2.3,1.3L323.1,314.1z"/>
					<path id="AT" class="st4" d="M290,232.9l-0.7,5.6h-5.2l1.6,2.9l-2.9,8.5l-1.6,2.3l-8.2,0.3l-4.6,2.9l-7.5-1l-13.1-3.6l-2-4.6
						l-9.2,2.3l-1,2.6l-5.6-2l-4.6-0.3l-4.3-2.3l1.3-3.3l-0.3-2.3l2.9-0.7l4.6,3.6l1.3-3.6l8.2,0.7l6.6-2.3l4.3,0.3l2.9,2.6l1-2.3
						l-1.3-8.8l3.3-1.6l3.3-6.2l6.9,4.6l5.2-5.6l3.3-1l7.2,4.3l4.3-0.7l4.3,2.6l-0.7,1.6L290,232.9z"/>
					<path id="BA" class="st3" d="M308.3,276.1h3.3l-2.3,5.6l4.6,4.9l-1.3,5.9l-2.3,0.7l-1.6,1.3l-2.9,2.9l-1.3,6.9l-8.2-4.6
						l-3.6-5.2l-3.6-2.6l-4.3-4.9l-2-3.9l-4.6-5.9l2-5.2l3.3,2.9l2-2.6l4.3-0.3l7.9,2.3l6.2-0.3L308.3,276.1z"/>
					<path id="BE" class="st3" d="M164.2,187.1l6.9,1.3l8.5-2.9l5.9,6.6l4.9,3.3l-1,9.8l-2.3,0.7l-1,7.9l-8.2-6.6l-4.6,1l-6.6-6.9
						l-4.3-5.9l-4.3-0.3l-1.3-5.2L164.2,187.1z"/>
					<path id="BG" class="st3" d="M342.1,284.3l2.6,5.2l3.6-1l7.2,2l13.4,0.7l4.6-3.3l10.8-2.9l6.6,4.6l5.6,1.3l-4.9,5.2l-3.3,8.8
						l2.9,7.2l-7.9-1.6l-9.5,3.9v6.2l-8.2,1.3l-6.6-4.3l-7.2,3.3l-6.9-0.3l-0.7-8.2l-4.6-3.9l1.6-1.6l-1-1.3l1.6-3.9l3.6-3.9
						l-4.3-5.6l-0.7-4.6L342.1,284.3z"/>
					<path id="BY" class="st3" d="M349.6,148.4h8.8l9.8-5.9l2.3-8.8l7.5-5.2l-1-7.2l5.6-2.6l9.8-6.2l9.8,4.3l1.3,3.9l4.9-2l8.8,3.9
						l1,7.5l-2,4.3l5.9,10.2l3.6,2.9l-0.7,2.9l6.2,2.6l2.6,3.9l-3.6,3.3l-7.5-0.7l-1.6,1.6l2.3,4.9l2.3,9.5l-7.9,1l-2.9,3.3
						l-0.7,7.5l-3.6-1.3l-8.2,0.7l-2.3-3.3l-3.3,2.6l-3.3-2l-7.2-0.3l-9.8-3.5l-9.2-1.3l-7.2,0.3l-4.9,3.9l-4.3,0.7v-6.6l-2.9-6.9
						l5.6-2.9v-6.2l-2.6-5.9L349.6,148.4z"/>
					<path id="CH" class="st4" d="M221.9,240.8l0.3,2.3l-1.3,3.3l4.3,2.3l4.6,0.3l-0.7,5.6l-3.9,2.3l-6.9-1.6l-2,5.2l-4.3,0.3
						l-1.6-2l-5.2,4.6l-4.6,0.7l-3.9-2.9l-3.3-5.9l-4.3,2v-5.9l6.9-7.5l-0.3-3.6l4.3,1.3l2.6-2.3h7.9l2-2.9L221.9,240.8z"/>
					<path id="CY" class="st3" d="M445.3,391.4l6.2-4.9l-8.2,3.3l-6.6-0.3l-1.3,2.6h-0.7l-4.3,0.3l2,4.6l4.6,1.3l9.5-4.6l-0.3-1
						L445.3,391.4z"/>
					<path id="CZ" class="st3" d="M289.7,226.4l-4.3-2.6l-4.3,0.7l-7.2-4.3l-3.3,1l-5.2,5.6l-6.9-4.6l-5.2-5.9l-4.6-3.3l-1-5.9
						l-1.6-4.3l6.6-2.9l3.3-3.6l6.6-2.9l2.3-2.6l2.3,1.6l3.9-1.6l4.3,4.6l6.9,1.3l-0.7,3.9l4.9,2.9l1.3-3.6l6.2,1.6l1,4.6l6.9,1
						l4.3,6.9h-2.6l-1.3,2.6l-2,0.7l-0.7,3.3l-1.6,0.7l-0.3,1.3l-3.3,1.3l-3.9-0.3L289.7,226.4z"/>
					<path id="DE" class="st4" d="M225.2,131.4v6.2l9.2,3.6v5.6l9.5-2.9l5.2-4.3l10.5,6.2l4.3,4.9l2.3,7.9l-2.6,3.9l3.3,5.2l2.3,7.9
						l-0.7,5.2l3.6,9.5l-3.9,1.6l-2.3-1.6l-2.3,2.6l-6.6,2.9l-3.3,3.6l-6.6,2.9l1.6,4.3l1,5.9l4.6,3.3l5.2,5.9l-3.3,6.2l-3.3,1.6
						l1.3,8.8l-1,2.3l-2.9-2.6l-4.3-0.3l-6.6,2.3l-8.2-0.7l-1.3,3.6l-4.6-3.6l-2.9,0.7l-9.8-4.3l-2,2.9h-7.9l1.3-9.8l4.6-9.5
						l-13.1-2.6l-4.3-3.6l0.7-6.2l-2-3.3l1-9.8l-1.6-15.4h5.6l2.3-5.6l2.3-13.8l-1.6-5.2l2-3.3l7.5-1l1.6,3.3l6.2-7.5l-2-5.9
						l-0.3-9.2l6.9,2L225.2,131.4z"/>
					<path id="DK" class="st3" d="M250.4,121.2l-5.6,13.1l-9.5-9.2l-1.3-6.6l13.4-5.6L250.4,121.2z M234.4,107.4l-2.3,6.2l-2.6-1.6
						l-6.6,11.8l2.6,7.9l-5.9,2.3l-6.9-2l-3.6-8.8l-0.3-16.7l1.6-4.6L213,97l8.2-1l3.3-4.6l7.5-4.9l-0.3,8.8l-2.6,5.6l1,4.6
						L234.4,107.4z"/>
					<path id="EE" class="st3" d="M357.2,84.9l1-10.2l-3.3,2.3l-5.9-6.2l-0.7-10.2l11.5-4.9l11.5-2.6l9.8,2.9l9.5-0.7l1.3,3.3
						l-6.6,10.2l2.6,16.4l-3.9,5.6h-7.5l-7.9-6.2l-3.9-2L357.2,84.9z"/>
					<path id="ES" class="st3" d="M50.9,313.8l0.3-8.8l-3.6-5.6l13.1-9.2l11.1,2.3h12.5l9.8,2.3l7.5-0.7l14.7,0.3l3.6,4.9l17,5.6
						l3.3-2.6l10.5,5.6l10.5-1.6l0.3,7.2l-8.8,8.2l-11.8,2.6l-0.7,3.9l-5.6,6.6l-3.6,9.8l3.6,6.9l-5.2,5.2l-2,7.5l-6.9,2.3l-6.6,8.8
						l-11.8,0.3l-8.8-0.3l-5.9,3.9l-3.6,4.3l-4.6-1l-3.1-3.8l-2.6-6.6l-8.5-1.6l-0.7-3.9l3.3-4.3l1.3-3.3l-3.3-3.6l2.6-7.9l-3.6-7.2
						l3.9-1l0.3-5.6l1.6-1.6v-9.5l4.3-3.3l-2.5-6.1l-5.2-0.3l-1.6,1.6h-5.3l-2.3-5.9l-3.6,1.6L50.9,313.8z"/>
					<polygon class="st3" points="419.4,1.7 411.2,12.5 391.5,36.7 374.8,38 358.8,44.9 343.7,48.8 338.5,38.7 329.6,32.5 
						331.6,13.8 328.5,1.7 					"/>
					<path id="FR" class="st3" d="M221.9,310.2l-2.9,9.5l-4.3-2.6l-2-8.2l2-4.6l5.9-4.9L221.9,310.2z M166.9,201.1l6.6,6.9l4.6-1
						l8.2,6.6l2,1.3l2.6-0.3l4.3,3.6l13.1,2.6l-4.6,9.5l-1.3,9.8l-2.6,2.3l-4.3-1.3l0.3,3.3l-6.6,7.5v5.9l4.3-2l3.3,5.9l-0.3,3.6
						l2.6,4.9l-3.3,3.9l2.3,9.8l4.9,1.6l-1,5.6l-8.2,7.2l-18-3.3l-13.4,3.9l-1,7.5l-10.6,1.8l-10.2-5.6l-3.3,2.6l-17-5.6l-3.6-4.9
						l4.9-7.5l1.6-25.9l-9.5-14.1l-6.9-6.9l-14-5.1l-1-10.2l11.8-2.9l15.4,3.6l-2.9-15.7l8.5,6.2l21.3-11.1l2.6-11.8l8.2-2.9
						l1.3,5.2l4.3,0.3L166.9,201.1z"/>
					<path id="GB" class="st4" d="M82,138.3l-4.9,10.8l-6.9-3.3l-5.6,0.3l2-8.5l-2-8.5l7.9-0.7L82,138.3z M106.2,70.2l-9.8,18.6
						l9.5-2.3h10.2l-2.3,13.8l-8.2,14.7l9.5,1l0.7,1.6l8.2,19l6.2,2.6l5.6,17.7l2.6,5.9l11.1,2.9l-1,9.5l-4.6,4.3l3.6,7.5l-8.2,7.5
						h-12.4l-15.7,3.9l-4.3-2.9l-6.2,6.9l-8.5-1.6l-6.6,5.6l-4.9-2.9l13.4-15.1l8.2-3.3l0,0l-14.4-2.6l-2.6-5.9l9.5-4.6l-4.9-8.2
						l1.6-10.2l13.8,1.3l0,0l1.3-8.8l-6.2-9.8V136l-11.1-2.9l-2.3-4.3l3.3-7.2l-2.9-4.6l-4.9,7.5l-0.7-15.7l-4.7-8.5l3.3-17.7
						l7.2-14.1l7.2,1.3L106.2,70.2z"/>
					<path id="GE" class="st3" d="M515.7,318.1l1.3-5.2l-2.3-8.5l-5.2-4.6l-4.9-1.3l-3.3-3.9l1-1.6l7.9,2.3l13.4,2l12.4,5.9l1.6,2.3
						l5.6-2l8.5,2.6l2.6,4.9l5.9,2.9l-2.3,1.6l4.6,6.6l-1.3,1.3l-4.9-0.7l-6.9-3.6l-2.3,2l-12.8,2l-8.8-5.9L515.7,318.1z"/>
					<path id="GR" class="st3" d="M351.6,386.2l4.9,3.9l7.2-0.7l6.9,0.7l-0.3,2l4.9-1.3l-1,3.3l-13.1,1v-2l-11.1-2.3L351.6,386.2z
						 M378.1,317.7l-2.9,7.5l-2.3,1.3l-5.6-0.3l-4.9-1.3l-11.1,3.3l6.2,6.9l-4.6,2h-5.2l-4.9-6.2l-1.6,2.6l2,7.2l4.6,5.6l-3.6,2.6
						l5.2,5.2l4.6,3.3v6.6l-4.6-3.6l-3.3,0.7l2.6,5.9l-2.6,0.7l-3.3-2.3l3.9,13.1h-2l-1.6-3.9h-2l-1,4.3l-1.6-1l0.3-2.3l-2-3.3h-2
						l0.3,2.6l-0.7,1l-2-1.6l-1.3-3.3l1.6-2l-1.3-2.3l-1.3-1.3l-0.7-1l-1.6-2.9l2-1.6l1.3-1.6l2,0.3l0.7-1.3l2-0.7l2.3,1.6l1.6,0.7
						l1.3-2l-2.9-0.3l-2-0.7l-3.9,1h-3.9l-3.6-5.2L324,351l0.7-2l-4.6-3.6l-0.7-3.3l4.3-5.9l0.7-3.9l2.9-1.6l0.3-3.3l5.9-1l3.6-2.6
						l4.9,0.3l1.6-2l1.6-0.3l6.9,0.3l7.2-3.3l6.6,4.3l8.2-1.3v-6.2L378.1,317.7z"/>
					<path id="HR" class="st3" d="M306.7,262.4l2.3,5.2l2.9,3.6l-3.6,4.9l-4.2-2.9l-6.2,0.3l-7.9-2.3l-4.3,0.3l-2,2.6l-3.3-2.9
						l-2,5.2l4.6,5.9l2,3.9l4.3,4.9l3.6,2.6l3.6,5.2l8.2,4.6l-1,2l-8.5-4.6l-5.2-4.6l-8.5-3.6l-7.9-9.5l2-1l-4.3-5.2l-0.3-4.3
						l-5.9-2l-2.9,5.6l-2.6-4.3l0.3-4.6l0.3-0.3l6.2,0.3l1.6-2.3l3.3,2l3.6,0.3v-3.6l3.3-1.3l1-5.2l7.2-3.6l2.9,1.6l6.9,5.6l7.5,2.6
						L306.7,262.4z"/>
					<path id="HU" class="st4" d="M282.8,249.9l2.9-8.5l-1.6-2.9h5.2l0.7-5.6l4.6,3.6l3.3,1.6l7.9-1.6l0.7-2.6l3.6-0.3l4.6-2l1,1
						l4.3-1.6l2.3-3.3l2.9-0.7l9.8,4.3l2-1.3l4.9,3.6l0.7,3.6l-5.6,2.9l-4.3,9.2l-5.6,9.2l-7.2,1l-5.9-0.7l-7.2,3.3l-3.3,2l-7.5-2.6
						l-6.9-5.6l-3-1.7l-1.6-4.6L282.8,249.9z"/>
					<path id="IE" class="st3" d="M77.1,149.1l1.7,11.1l-6.9,13.4l-16.4,8.8l-13.1-2.2l7.5-15.7L45,148.8l12.4-12.4l6.9-7.5l2,8.5
						l-2,8.5l5.6-0.3L77.1,149.1z"/>
					<path id="IT" class="st3" d="M276.6,357.4l-3.3,9.2l1.3,3.6l-2,5.9l-6.9-4.3l-4.6-1.3l-12.8-5.9l1.3-5.9l10.8,1l9.5-1.3
						L276.6,357.4z M218.6,322l5.6,8.5l-1.3,15.7l-4.3-0.7l-3.6,3.9l-3.6-3.3l-0.3-14.4l-2-6.9l4.9,0.7L218.6,322z M247.7,251.3
						l13.1,3.3l-1,6.6l2.3,5.6l-7.2-2l-7.5,4.6l0.7,6.6l-1,3.6l2.9,6.6l8.5,6.6l4.6,10.5l10.2,9.8h7.2l2.3,2.6l-2.6,2.3l8.2,4.6
						l6.9,3.6l7.9,6.2l1,2.3l-1.6,4.3l-5.2-5.6l-7.9-2l-3.9,7.9l6.6,4.3l-1,6.2l-3.9,0.7l-5.2,9.8l-3.9,1v-3.6l2-6.2l2-2.6l-3.6-6.9
						l-2.9-5.9l-3.9-1.6l-2.6-5.2l-5.9-2.3l-3.9-4.9l-6.9-0.7l-7.2-5.6l-8.5-8.2l-6.2-7.2l-2.9-12.4l-4.6-1.6l-7.5-4.3l-4.3,1.6
						l-5.2,5.9l-3.9,1l1-5.6l-4.9-1.6l-2.3-9.8l3.3-3.9l-2.6-4.9l0.3-3.6l3.9,2.9l4.6-0.7l5.2-4.6l1.6,2l4.3-0.3l2-5.2l6.9,1.6
						l3.9-2.3l0.7-5.6l5.6,2l1-2.6l9.2-2.3L247.7,251.3z"/>
					<path id="XK" class="st3" d="M324.7,311.5l-0.3,2.6h-1.3l-0.7-4.6l-2.3-1.3l-2-3.3l1.6-2.9l2.3-1l1.3-4.3l1.6-0.7l1.3,1.6
						l1.6,0.7l1.3,2l1.6,0.7l1.6,2.3h1.3l-1,2.9l-1,1.6l0.3,1l-2,0.3L324.7,311.5z"/>
					<path id="LT" class="st3" d="M342.7,141.9L342,138l1-4.3l-3.9-2.6l-9.5-2.9l-2-13.8l10.5-4.9l15.4,1l9.2-1.6l1.3,3.3l4.9,1
						l8.8,7.9l1,7.2l-7.5,5.2l-2.3,8.8l-9.8,5.9h-8.8l-2.3-4.9L342.7,141.9z"/>
					<path id="LU" class="st3" d="M189.5,204.7l2,3.3l-0.7,6.2l-2.6,0.3l-2-1.3l1-7.9L189.5,204.7z"/>
					<path id="LV" class="st3" d="M327.3,114.7l0.3-12.4l4.6-10.5l8.5-5.9l7.2,12.8l7.2-0.3l1.7-13.2l7.9-2.9l3.9,2l7.9,6.2h7.5
						l4.3,3.9l0.7,8.2l2.9,9.8l-9.8,6.2l-5.6,2.6l-8.8-7.9l-4.9-1l-1.3-3.3l-9.2,1.6l-15.4-1L327.3,114.7z"/>
					<path id="MD" class="st3" d="M378.4,231.6l2.3-2l6.2-1.3l6.9,4.3l3.9,0.7l4.3,3.6l-0.7,4.6l3.3,2.3l1.3,5.6l3.3,3.3l-0.7,2
						l1.6,1.3l-2.3,1l-6.2-0.7l-1-2l-2,1l0.7,2.3l-2.6,4.3l-1.6,4.6l-2.3,1.3l-1.6-5.9l1-5.6l-0.3-5.9l-5.2-7.9l-2.9-5.9l-2.9-3.9
						L378.4,231.6z"/>
					<path id="ME" class="st3" d="M315.9,305.9l-0.7-2.3l-3.9,6.2l0.7,3.9l-2-1l-2.6-3.9l-3.9-2.6l1-2l1.3-6.9l2.9-2.9l1.6-1.3
						l2.3,2.3l1.3,1.6l2.9,1.3l3.6,2.6l-0.7,1l-1.6,2.9L315.9,305.9z"/>
					<path id="MK" class="st3" d="M323.1,314.1h1.3l0.3-2.6l5.6-2l2-0.3l3.3-0.7l4.3-0.3l4.6,3.9l0.7,8.2l-1.6,0.3l-1.6,2l-4.9-0.3
						l-3.6,2.6l-5.9,1l-3.9-2.9l-1.3-5.2L323.1,314.1z"/>
					<path id="NL" class="st3" d="M189.8,154.6l7.5,0.3l1.6,5.2l-2.3,13.8l-2.3,5.6h-5.6l1.6,15.4l-4.9-3.3l-5.9-6.6l-8.5,2.9
						l-6.9-1.3l4.6-3.9l8.2-21.9L189.8,154.6z"/>
					<polyline class="st3" points="244.2,1.7 244.5,11.8 250.4,21.7 247.4,43.6 239.9,56.1 236,66.2 235.5,65.4 229.7,55.1 
						211.7,75.7 199.6,79.6 186.8,70.8 183.6,51.5 180.6,7.9 184.8,1.7 243.6,1.7 					"/>
					<path id="PL" class="st4" d="M272,190.7l-3.6-9.5l0.7-5.2l-2.3-7.9l-3.3-5.2l2.6-3.9l-2.3-7.9l6.2-4.6l14.4-7.2l11.5-5.2
						l9.2,2.6l0.7,3.9l8.8,0.3l11.5,2l17-0.3l4.6,1.6l2.3,4.9l0.3,6.9l2.6,5.9v6.2l-5.6,2.9l2.9,6.9v6.6l4.6,12.8l-1,3.9l-4.6,1.6
						l-8.1,11.8l2.3,6.2l-2-0.7l-8.8-5.2l-6.6,2l-4.3-1.3l-5.6,2.9l-4.6-4.9l-3.9,2l-0.7-1l-4.3-6.9l-6.9-1l-1-4.6l-6.2-1.6
						l-1.3,3.6l-4.9-2.9l0.7-3.9l-6.9-1.3L272,190.7z"/>
					<path id="PT" class="st3" d="M50.9,313.8l3.3-3.3l3.6-1.6l2.3,5.9h5.2l1.6-1.6l5.2,0.3l2.6,6.2l-4.3,3.3v9.5l-1.6,1.6l-0.3,5.6
						l-3.9,1l3.6,7.2l-2.6,7.9l3.3,3.6l-1.3,3.3l-3.3,4.3l0.7,3.9l-3.6,2.9l-4.9-1.6l-4.9,1.3l1.3-8.8l-1-7.2l-4.3-1l-2.3-4.6
						L46,344l3.6-4.3l0.7-4.9l2-7.2l-0.3-5.2l-2-4.3L50.9,313.8z"/>
					<path id="RO" class="st3" d="M342.4,236.2l3.9-2.9l5.6,1.6h5.9l4.3,3.3l3.3-2l6.9-1.3l2.3-3.3h3.9l2.6,1.3l2.9,3.9l2.9,5.9
						l5.2,7.9l0.3,5.9l-1,5.6l1.6,5.9l4.1,2.2l4.3-2l4.3,2.3l0.3,3.3l-4.6,2.6l-2.9-1.3l-2.6,15.4l-5.6-1.3l-6.6-4.6l-10.8,2.9
						l-4.6,3.3l-13.4-0.7l-7.2-2l-3.6,1l-2.6-5.2l-1.6-2.3l2-2.3l-2.3-1.6l-2.9,2.9l-5.2-3.6l-0.7-5.2l-5.6-2.9l-1-4.3l-4.3-5.2
						l7.2-2.6l5.6-9.2l4.3-9.2L342.4,236.2z"/>
					<path id="RS" class="st3" d="M325.7,268.9l5.6,2.9l0.7,5.2l5.2,3.6l2.9-2.9l2.3,1.6l-2,2.3l1.6,2.3l-2.3,2.9l0.7,4.6l4.6,5.6
						l-3.6,3.9l-1.6,3.9l1,1.3l-1.6,1.6l-4.3,0.3l-3.3,0.7l-0.3-1l1-1.6l1-2.9H332l-1.6-2.3l-1.6-0.7l-1.3-2l-1.6-0.7l-1.3-1.6
						l-1.6,0.7l-1.3,4.3l-1.6,1l0.7-1l-3.6-2.6l-2.9-1.3l-1.3-1.6l-2.3-2.3l2.3-0.7l1.3-5.9l-4.6-4.9l2.3-5.6h-3.3l3.6-4.9l-2.9-3.6
						l-2.3-5.2l7.2-3.3l5.9,0.7l4.9,5.2L325.7,268.9z"/>
					<polygon class="st3" points="621.3,1.7 621.3,180.2 599.8,180.5 580.9,196.6 579.9,207 570.4,198.9 563.2,214.6 565.8,217.5 
						560.5,228 568.4,237.2 575.3,236.8 581.2,246 580.2,252.9 584.8,255.2 580.5,263 571.7,265.3 562.5,278.8 570.7,290.9 
						569.7,299.4 579.9,314.1 574.3,319.1 572.7,322.3 568.7,321.7 562.5,314.1 559.9,313.8 554,310.9 551,306 542.5,303.3 
						537,305.3 535.3,303 522.9,297.1 509.5,295.1 501.6,292.8 500.6,294.5 488.8,283.7 478.3,278.8 470.5,271.2 477,269.3 
						484.6,258.1 479.3,252.9 492.7,247.3 492.4,244.4 484.2,246.7 484.6,240.8 489.5,236.8 498.3,235.9 499.6,231.3 497.7,223.7 
						501.3,216.5 501.3,212.3 487.8,207.7 482.6,207.7 477,201.1 469.8,203.4 458,198.5 458.4,195.6 455.1,189.4 447.9,188.7 
						447.2,184.1 449.5,181.2 443.6,172.6 434.1,174 431.5,173.3 429.2,176.6 425.9,175.9 423.6,166.4 421.3,161.2 423,159.9 
						430.5,160.5 434.1,157.3 431.5,153.3 425.3,150.7 425.9,147.8 422.3,144.8 416.4,134.6 418.4,130.4 417.4,122.9 408.6,118.9 
						403.7,120.9 402.4,117 392.5,112.7 389.6,102.9 388.9,94.7 384.7,90.8 388.6,85.2 386,68.8 392.5,58.7 391.2,55.4 401.7,45.2 
						392.2,36.4 411.9,12.2 419.9,1.7 					"/>
					<line class="st5" x1="244.2" y1="1.7" x2="243.6" y2="1.7"/>
					<polygon class="st3" points="338.8,131.1 329.3,128.1 316.5,133.3 314.6,140.2 326,141.9 343.1,141.5 342.4,137.6 343.4,133.3 
											"/>
					<polyline class="st3" points="244.2,1.7 295.8,1.7 291.3,20.3 297.9,33.8 306.7,43.9 298.2,64.2 288.7,68.5 285.1,97.3 
						279.9,113 268.7,111.4 263.5,124.2 253,124.8 250,109.4 242.2,90.4 235.3,65.9 235.5,65.4 239.2,55.7 246.8,43.3 249.7,21.3 
						243.8,11.5 243.6,1.7 					"/>
					<path id="SI" class="st3" d="M260.9,254.5l7.5,1l4.6-2.9l8.2-0.3l1.6-2.3l1.6,0.3l1.6,4.6l-7.2,3.6l-1,5.2l-3.3,1.3v3.6
						l-3.6-0.3l-3.3-2l-1.6,2.3l-6.2-0.3l2-1.3l-2.3-5.6L260.9,254.5z"/>
					<path id="SK" class="st3" d="M307,213.6l0.7,1l3.9-2l4.6,4.9l5.6-2.9l4.3,1.3l6.6-2l8.8,5.2l-2.6,3.6l-1.6,5.6l-2,1.3l-9.8-4.3
						l-2.9,0.7l-2.3,3.3l-4.3,1.6l-1-1l-4.6,2l-3.6,0.3l-0.7,2.6l-7.9,1.6l-3.3-1.6l-4.6-3.6l-1-4.9l0.7-1.6l1.3-2.9l3.9,0.3
						l3.3-1.3l0.3-1.3l1.6-0.7l0.7-3.3l2-0.7l1.3-2.6L307,213.6z"/>
					<path id="TR" class="st3" d="M473.1,320.4l13.1,4.6l10.8-2l7.9,1l10.8-6.2l9.8-0.7l8.8,5.9l1.6,4.3l-1,5.9l6.9,2.9l3.6,3.6
						l-6.2,3.3l2.9,13.4l-1.6,3.6l4.9,9.2l-4.3,2l-3.3-2.9l-10.7-1.8l-3.9,1.6l-10.5,1.6l-4.9-0.3l-10.5,4.3h-7.5l-4.9-2.3
						l-10.2,3.3l-2.9-2.3l-0.7,6.2l-2.6,2.6l-2.6,2.6l-3.3-5.2l3.6-4.3l-5.6,1l-7.5-2.6l-6.2,6.6l-14.1,1.3l-7.5-6.2l-9.8-0.3
						l-2.3,4.6L407,380l-8.8-6.2l-10.2,0.3l-5.6-11.5l-6.6-6.6l4.6-9.2l-5.9-5.6l10.2-11.5l14.1-0.3l3.9-9.2l17.4,1.6l11.1-7.9
						l10.8-3.6l15.1-0.3L473.1,320.4z M383.7,328.2l-7.5,6.6l-2.9-5.6v-2.6l2.3-1.3l2.9-7.5l-4.6-3.3l9.5-3.9l7.9,1.6l1,4.6l8.2,3.9
						l-1.6,2.9l-10.8,0.7L383.7,328.2z"/>
					<path id="UA" class="st6" d="M425.9,175.9l3.3,0.7l2.3-3.3l2.6,0.7l9.5-1.3l5.9,8.5l-2.3,2.9l0.7,4.6l7.2,0.7l3.3,6.2l-0.3,2.9
						l11.8,4.9l6.9-2.3l5.6,6.6h5.2l13.4,4.6v4.3l-3.6,7.2l2,7.5l-1.3,4.6l-8.8,1l-4.6,3.9l-0.3,5.9l-7.2,1L471,252l-8.5,0.7
						l-7.9,4.9l-4.3,3.3l4.9,4.9l4.6,3.3l9.5-0.7l-1.6,4.6l-10.3,2.2l-12.4,7.5l-4.9-2.6l2-5.9l-10.3-4l1.6-2.6l10.5-5.2l-1.3-2.6
						l-1.6,1.3l-1.3-0.7l-14.4-3.3l-0.7-4.9l-8.5,1.6l-3.3,7.2l-7.2,9.8l-4.3-2.3l-4.3,2l-3.9-2.3l2.3-1.3l1.6-4.6l2.6-4.3l-0.7-2.3
						l2-1l1,2l5.6,0.3l2.3-1l-1.6-1.3l0.7-2l-3.3-3.3l-1.3-5.6l-3.3-2.3l0.7-4.6l-4.3-3.6l-3.9-0.7l-6.9-4.3l-6.2,1.3l-2.3,2h-3.9
						l-2.3,3.3l-6.9,1.3l-3.3,2l-4.3-3.3h-5.9l-5.6-1.6l-3.9,2.9l-0.7-3.6l-4.9-3.6l1.6-5.6l2.6-3.6l2,0.7l-2.3-6.2l8.2-11.8
						l4.6-1.6l1-3.9l-4.6-12.8l4.3-0.7l4.9-3.9l7.2-0.3l9.2,1.3l10.2,3.6l7.2,0.3l3.3,2l3.3-2.6l2.3,3.3l8.2-0.7l3.6,1.3l0.7-7.5
						l2.9-3.3L425.9,175.9z"/>
					<circle class="st7" cx="187.2" cy="254.5" r="3.3"/>
					<circle class="st7" cx="210.1" cy="238.2" r="3.3"/>
					<circle class="st7" cx="208.5" cy="249.6" r="1.6"/>
					<circle class="st7" cx="215" cy="262.7" r="1.6"/>
					<circle class="st7" cx="252.7" cy="166.1" r="3.3"/>
					<circle class="st7" cx="134.8" cy="179.2" r="3.3"/>
					<circle class="st7" cx="328" cy="175.9" r="3.3"/>
					<circle class="st7" cx="413.2" cy="202.1" r="4.9"/>
					<g class="st8">
						<path class="st7" d="M423.1,195.7h1v4.8h0.7l2.2-4.8h1l-2.3,5.1l2.6,5.5h-1l-2.5-5.2h-0.7v5.2h-1V195.7z"/>
					</g>
					<g class="st8">
						<path class="st7" d="M429.5,198.7h0.8v5.8l2.5-5.8h0.8v7.5h-0.8v-5.8l-2.5,5.8h-0.8V198.7z"/>
					</g>
					<g class="st8">
						<path class="st7" d="M435.8,206c-0.3-0.2-0.5-0.5-0.7-0.9s-0.2-1-0.2-1.7v-1.9c0-0.7,0.1-1.3,0.2-1.7s0.4-0.7,0.7-0.9
							c0.3-0.2,0.7-0.3,1.2-0.3s0.9,0.1,1.2,0.3c0.3,0.2,0.5,0.6,0.6,1s0.2,1,0.2,1.8v0.7h-3v1.1c0,0.5,0,0.9,0.1,1.2
							s0.2,0.5,0.3,0.7s0.4,0.2,0.7,0.2c0.3,0,0.6-0.1,0.8-0.3s0.3-0.6,0.3-1.1v-0.5h0.9v0.4c0,0.7-0.2,1.3-0.5,1.7
							s-0.8,0.6-1.5,0.6C436.5,206.3,436.1,206.2,435.8,206z M438,201.8v-0.6c0-0.5,0-0.8-0.1-1.1c0-0.3-0.1-0.5-0.3-0.6
							c-0.1-0.1-0.4-0.2-0.7-0.2c-0.3,0-0.5,0.1-0.6,0.2c-0.2,0.1-0.3,0.3-0.3,0.6c-0.1,0.3-0.1,0.7-0.1,1.2v0.5L438,201.8
							L438,201.8z"/>
					</g>
					<g class="st8">
						<path class="st7" d="M440.3,198.7h1.8c0.7,0,1.2,0.2,1.5,0.5s0.5,0.8,0.5,1.3c0,0.4-0.1,0.7-0.2,1s-0.4,0.5-0.7,0.6
							c0.4,0.1,0.7,0.3,0.9,0.7s0.3,0.8,0.3,1.2c0,0.7-0.1,1.2-0.4,1.6c-0.3,0.4-0.8,0.6-1.6,0.6h-1.9v-7.5L440.3,198.7L440.3,198.7
							z M442.2,201.9c0.3,0,0.5-0.1,0.7-0.3s0.3-0.5,0.3-0.9c0-0.8-0.4-1.2-1.2-1.2h-0.8v2.4H442.2z M442.1,205.5
							c0.4,0,0.7-0.1,0.9-0.4c0.2-0.2,0.3-0.6,0.3-1.1c0-0.6-0.1-0.9-0.3-1.1c-0.2-0.2-0.5-0.3-0.9-0.3h-0.9v2.9L442.1,205.5
							L442.1,205.5z"/>
					</g>
					<circle class="st7" cx="308.3" cy="248" r="3.3"/>
					<circle class="st7" cx="282.1" cy="231.6" r="3.3"/>
					<path class="st9" d="M187.2,254.5l0.8-0.6"/>
					<path class="st10" d="M189.5,252.6c53.4-44,146.5-59.1,221.7-50.7"/>
					<path class="st9" d="M412.2,202h1"/>
					<path class="st11" d="M208.5,249.6c0-6.3,0.7-11.5,1.6-11.5"/>
					<path class="st11" d="M215,262.7c-3.6,0-6.6-5.9-6.6-13.1"/>
					<path class="st12" d="M251,166.9c54-21.7,114.2-17,162.1,35.2"/>
					<path class="st12" d="M328,175.9c40.1-4.6,65.8,8.2,85.2,26.2"/>
					<path class="st12" d="M134.8,179.2c52.4,26.5,143.3-6.6,278.4,22.9"/>
					<path class="st12" d="M282.1,231.6c19-16,58.6-29.5,131-29.5"/>
					<path class="st12" d="M308.3,248c24.2-33.1,76.3-45.9,104.8-45.9"/>
				</g>
			</g>
		</g>
	</g>
	
		<linearGradient id="SVGID_5_" gradientUnits="userSpaceOnUse" x1="56.5667" y1="299.29" x2="566.5667" y2="809.29" gradientTransform="matrix(1 0 0 -1 0 756.69)">
		<stop  offset="0" style="stop-color:#FFFFFF;stop-opacity:0"/>
		<stop  offset="0.16" style="stop-color:#FFFFFF;stop-opacity:1.000000e-02"/>
		<stop  offset="0.29" style="stop-color:#FFFFFF;stop-opacity:5.000000e-02"/>
		<stop  offset="0.41" style="stop-color:#FFFFFF;stop-opacity:0.12"/>
		<stop  offset="0.52" style="stop-color:#FFFFFF;stop-opacity:0.21"/>
		<stop  offset="0.63" style="stop-color:#FFFFFF;stop-opacity:0.33"/>
		<stop  offset="0.74" style="stop-color:#FFFFFF;stop-opacity:0.48"/>
		<stop  offset="0.84" style="stop-color:#FFFFFF;stop-opacity:0.66"/>
		<stop  offset="0.94" style="stop-color:#FFFFFF;stop-opacity:0.86"/>
		<stop  offset="1" style="stop-color:#FFFFFF"/>
	</linearGradient>
	<rect x="1.6" y="2.4" class="st13" width="620" height="400"/>
	
		<linearGradient id="SVGID_6_" gradientUnits="userSpaceOnUse" x1="311.0667" y1="356.69" x2="311.0667" y2="756.69" gradientTransform="matrix(1 0 0 -1 0 756.69)">
		<stop  offset="0" style="stop-color:#FFFFFF;stop-opacity:0"/>
		<stop  offset="0.12" style="stop-color:#FFFFFF;stop-opacity:2.000000e-02"/>
		<stop  offset="0.25" style="stop-color:#FFFFFF;stop-opacity:7.000000e-02"/>
		<stop  offset="0.37" style="stop-color:#FFFFFF;stop-opacity:0.15"/>
		<stop  offset="0.5" style="stop-color:#FFFFFF;stop-opacity:0.26"/>
		<stop  offset="0.63" style="stop-color:#FFFFFF;stop-opacity:0.41"/>
		<stop  offset="0.76" style="stop-color:#FFFFFF;stop-opacity:0.59"/>
		<stop  offset="0.89" style="stop-color:#FFFFFF;stop-opacity:0.8"/>
		<stop  offset="1" style="stop-color:#FFFFFF"/>
	</linearGradient>
	<rect x="1.1" class="st14" width="620" height="400"/>
	<circle class="st15" cx="328" cy="175.9" r="3.3"/>
	<path id="UA-2" class="st16" d="M425.9,175.9l3.3,0.7l2.3-3.3l2.6,0.7l9.5-1.3l5.9,8.5l-2.3,2.9l0.7,4.6l7.2,0.7l3.3,6.2l-0.3,2.9
		l11.8,4.9l6.9-2.3l5.6,6.6h5.2l13.4,4.6v4.3l-3.6,7.2l2,7.5l-1.3,4.6l-8.8,1l-4.6,3.9l-0.3,5.9l-7.2,1L471,252l-8.5,0.7l-7.9,4.9
		l-4.3,3.3l4.9,4.9l4.6,3.3l9.5-0.7l-1.6,4.6l-10.3,2.2l-12.4,7.5l-4.9-2.6l2-5.9l-10.3-4l1.6-2.6l10.5-5.2l-1.3-2.6l-1.6,1.3
		l-1.3-0.7l-14.4-3.3l-0.7-4.9l-8.5,1.6l-3.3,7.2l-7.2,9.8l-4.3-2.3l-4.3,2l-3.9-2.3l2.3-1.3l1.6-4.6l2.6-4.3l-0.7-2.3l2-1l1,2
		l5.6,0.3l2.3-1l-1.6-1.3l0.7-2l-3.3-3.3l-1.3-5.6l-3.3-2.3l0.7-4.6l-4.3-3.6l-3.9-0.7l-6.9-4.3l-6.2,1.3l-2.3,2h-3.9l-2.3,3.3
		l-6.9,1.3l-3.3,2l-4.3-3.3h-5.9l-5.6-1.6l-3.9,2.9l-0.7-3.6l-4.9-3.6l1.6-5.6l2.6-3.6l2,0.7l-2.3-6.2l8.2-11.8l4.6-1.6l1-3.9
		l-4.6-12.8l4.3-0.7l4.9-3.9l7.2-0.3l9.2,1.3l10.2,3.6l7.2,0.3l3.3,2l3.3-2.6l2.3,3.3l8.2-0.7l3.6,1.3l0.7-7.5l2.9-3.3L425.9,175.9z
		"/>
	<circle class="st15" cx="413.2" cy="202.1" r="4.9"/>
	<path class="st17" d="M187.2,254.5l0.8-0.6"/>
	<path class="st18" d="M189.5,252.6c53.4-44,146.5-59.1,221.7-50.7"/>
	<path class="st9" d="M412.2,202h1"/>
	<path class="st19" d="M208.5,249.6c0-6.3,0.7-11.5,1.6-11.5"/>
	<path class="st19" d="M215,262.7c-3.6,0-6.6-5.9-6.6-13.1"/>
	<path class="st20" d="M251,166.9c54-21.7,114.2-17,162.1,35.2"/>
	<path class="st20" d="M328,175.9c40.1-4.6,65.8,8.2,85.2,26.2"/>
	<path class="st20" d="M134.8,179.2c52.4,26.5,143.3-6.6,278.4,22.9"/>
	<path class="st20" d="M282.1,231.6c19-16,58.6-29.5,131-29.5"/>
	<circle class="st15" cx="187.2" cy="254.5" r="3.3"/>
	<circle class="st15" cx="210.1" cy="238.2" r="3.3"/>
	<circle class="st15" cx="208.5" cy="249.6" r="1.6"/>
	<circle class="st15" cx="215" cy="262.7" r="1.6"/>
	<circle class="st15" cx="252.7" cy="166.1" r="3.3"/>
	<circle class="st15" cx="134.8" cy="179.2" r="3.3"/>
	<circle class="st15" cx="328" cy="175.9" r="3.3"/>
	<circle class="st15" cx="308.3" cy="248" r="3.3"/>
	<circle class="st15" cx="282.1" cy="231.6" r="3.3"/>
</g>
<circle class="st21" cx="435.8" cy="215.3" r="3.3"/>
<circle class="st21" cx="356" cy="210.2" r="3.3"/>
<circle class="st21" cx="365.2" cy="222.8" r="3.3"/>
<circle class="st21" cx="441.6" cy="228.6" r="3.3"/>
<circle class="st21" cx="459.9" cy="208" r="3.3"/>
<path class="st22" d="M356,210.4c1,0,21.4-3.5,51.3-6.6"/>
<path class="st22" d="M365.2,222.8c20.1-0.9,46-17.7,48-20.8"/>
<path class="st22" d="M413.2,202c16.3,19.7,23.4,24.1,28.1,26.6"/>
<path class="st22" d="M413.2,202c10.9,7.4,17.7,10.8,22.4,13.3"/>
<path class="st22" d="M413.2,202c23.3-27,42,3.6,46.7,6.1"/>
<g class="st23">
	<text transform="matrix(1 0 0 1 219.2501 169.5205)" class="st24 st25">Berlin</text>
</g>
<g class="st23">
	<text transform="matrix(1 0 0 1 90.5832 182.1875)" class="st24 st25">London</text>
</g>
<g class="st23">
	<text transform="matrix(1 0 0 1 284.2496 178.8545)" class="st24 st25">Warsaw</text>
</g>
<g class="st23">
	<text transform="matrix(1 0 0 1 173.5831 238.5205)" class="st24 st25">Zurich</text>
</g>
<g class="st23">
	<text transform="matrix(1 0 0 1 144.5831 258.5205)" class="st24 st25">Geneva</text>
</g>
<g class="st23">
	<text transform="matrix(1 0 0 1 198.9166 273.8545)" class="st24 st25">Lugano</text>
</g>
<g class="st23">
	<text transform="matrix(1 0 0 1 210.5831 253.8545)" class="st24 st25">Zug</text>
</g>
<g class="st23">
	<text transform="matrix(1 0 0 1 241.9166 235.1875)" class="st24 st25">Vienna</text>
</g>
<g class="st23">
	<text transform="matrix(1 0 0 1 314.2499 252.5875)" class="st24 st25">Budapest</text>
</g>
</svg>
