<?xml version="1.0" encoding="utf-8"?>
<!-- Generator: Adobe Illustrator 21.0.2, SVG Export Plug-In . SVG Version: 6.00 Build 0)  -->
<svg version="1.1" id="Isolation_Mode" xmlns="http://www.w3.org/2000/svg" xmlns:xlink="http://www.w3.org/1999/xlink" x="0px"
	 y="0px" viewBox="0 0 107.8 177" style="enable-background:new 0 0 107.8 177;" xml:space="preserve">
<style type="text/css">
	.st0{fill-rule:evenodd;clip-rule:evenodd;fill:#6D6E71;}
</style>
<path class="st0" d="M28.4,1.7c0,2.2,0.8,4.6,0.3,7.1c-0.2,1-1.1,1.3-1.4,2.1c-0.6,2,0,5.8,0.1,8.6c0.2,6,0,11.3,0,17.3
	c0,2.9-0.5,6.2,0,8.6c0.4,2.2,3.5,4.7,5.2,6.5c1.9,2.1,4,4.4,5.2,6.5c0.7,1.1,1.6,2.8,1.8,4.2c0.4,2.1,0,4.6,0,7
	c0,32.1,0.1,63.6,0.1,95.9c0,2.4,0.3,5-0.1,6.7c-1.5,5.5-11.6,4.7-19.4,4.7c-3.7,0-7.7-0.3-11.5-0.6c-3.9-0.3-7.7-0.9-8.6-3.3
	c-0.5-1.4-0.2-4.4-0.2-7c0-30.2,0.2-60.3,0.2-90.9c0-4.8-0.7-10,0-13.9c0.3-1.7,1.4-3.1,2.3-4.4c1.2-1.8,3.2-3.6,4.9-5.3
	c1.4-1.4,4.2-3.9,4.6-5.4c0.6-2.4,0-6,0-8.9c0-6.1,0.1-11.3,0.1-17.6c0-2.8,0.6-6.8,0-8.8c-0.3-1.1-1.1-0.6-1.4-1.8
	c-0.6-2.2,0.6-4.9,0.3-7.1C14.9-0.7,24.4-0.5,28.4,1.7z M16.4,2.2c-1.3,0.1-2.9,0-3.5,1.1c1.4,0.4,4.9-1.5,5.8,0.3
	c-1.3,1.2-5.2-0.1-5.8,1.8c0.6,0.4,2.7-1.1,2.9,0.3c-0.4,1-1.9,0.7-2.9,1.1c0,0.5,0,0.9,0,1.4c3.8-1,10.2-1.5,14.1-0.1
	c0.1-1.7-0.1-3.2-0.2-4.7C24.2,2.2,19.9,1.8,16.4,2.2z M15.9,9.3c-0.7,0.1-2.1,0.1-1.8,1.2c0.3,0.2,2.4-0.4,2.3,0.6
	c-0.3,0.8-1.5,0.5-2.3,0.8c0,0.4-0.1,1,0.1,1.2c0.9,0.1,2-0.6,2,0.6c-0.3,0.6-1.4,0.4-2,0.8c0,0.4,0,0.8,0,1.2c1,0,1.6-0.3,1.8,0.6
	c-0.2,0.6-1.2,0.5-1.8,0.8c0,0.4,0,0.7,0,1.1c0.8-0.1,1.6-0.4,1.7,0.6c-0.2,0.5-0.9,0.6-1.7,0.6c0,0.4,0,0.8,0,1.2
	c0.7-0.1,1.8-0.5,1.7,0.6c-0.3,0.5-0.9,0.6-1.7,0.6c0,0.5,0,1,0,1.5c0.3,0.2,1.4-0.3,1.4,0.6c0.1,1-1.7,0.2-1.2,1.5
	c0.4,0.3,1.5-0.1,1.4,0.8c-0.2,0.5-0.6,0.7-1.4,0.6c0,0.6,0,1.1,0,1.7c0.7-0.1,1.5-0.3,1.7,0.5c0,1-1.9,0.1-1.7,1.4
	c0.4,0.5,1.6-0.5,1.8,0.3c0.2,1.2-1.2,0.9-1.8,1.2c0,0.5,0,0.9,0,1.4c3.3-0.5,7.6-1,10.9-0.1c-0.1-7.9,0.2-15.4,0.3-23.2
	C23.2,9.1,18.8,8.9,15.9,9.3z M16.4,34.6c-0.6,0.1-1.8,0.1-2,0.8c0.5,0.3,1.8-0.4,1.8,0.6c-0.3,0.6-1,0.7-1.8,0.8c0,0.4,0,0.7,0,1.1
	c0.7-0.1,1.6-0.4,1.7,0.5c0,0.8-1,0.6-1.7,0.8c0,0.5,0,0.9,0,1.4c0.6-0.1,1.4-0.6,1.5,0.3c-0.1,0.7-0.8,0.8-1.5,0.9
	c0,0.5,0,0.9,0,1.4c0.3,0,1-0.4,1.2,0c0,0.2,0.2,0.2,0.2,0.5C15.7,44,15,44,14.4,44.1c0.1,0.4-0.2,1.1,0.2,1.2c3-0.8,7.1-1,10.6-0.6
	c0.1-3.1-0.2-6.7,0.2-9.5C23.1,34.3,19.2,34.2,16.4,34.6z M37.3,72.3c0-3.1,0.4-6.3,0-9.1C36.6,58.4,31.7,54,29,51
	c-0.6-0.7-2.4-3.6-3.1-3.9c-0.7-0.4-2.3-0.4-3.5-0.5c-3.7-0.2-6.2,0.1-8.9,0.9c-1.6,1.6-2.8,3.5-4.4,5.3c-1.5,1.6-3.5,3-4.7,5
	c-0.6,0.9-1.5,2.3-1.7,3.5c-0.5,2.9,0,6.7,0,9.8c0,10,0,19.9,0,29.7c11.6-0.4,23.8-0.1,34.6-1.2C37.3,90.5,37.3,81.2,37.3,72.3z
	 M35.3,101.7c-5.9,9.3-12.5,18.9-18.5,28c-0.3,0.5-0.9,1.2-0.8,1.8c1.8,0,2.4-2,3.2-3.2c5.5-8.3,11.2-16.8,16.7-25
	c0.4-0.5,1-1.1,0.9-1.8C36.2,101.4,36,101.8,35.3,101.7z M31.5,102c-5.7,8.5-11.6,17.4-17.3,25.7c-0.8,1.2-1.8,2.4-2.1,3.8
	c0.5,0,1,0,1.5,0c6.3-9.1,13-18.8,19.1-27.9c0.3-0.5,0.9-1.2,0.8-1.8C33,102.1,32.2,102,31.5,102z M25.7,105.8
	c-5.7,8.5-12.1,17.8-17.3,25.6c1.9,0.4,2.6-1.7,3.4-2.9c5.5-8.2,11.4-16.6,17-24.5c0.3-0.5,1-1.1,0.8-1.8
	C27.7,102.1,26.6,104.3,25.7,105.8z M24.9,102.4c-6.1,8.8-12.7,18.2-18.8,27c-0.3,0.5-1,1.2-0.8,1.8c1.7,0,2.5-2,3.2-3
	c6-8.6,12-17.2,17.9-25.7c0.1,0,0.2-0.1,0-0.2C26.2,102.6,25.4,102.4,24.9,102.4z M21.4,102.6c-5.7,8.1-11.4,16.3-17.1,24.2
	c-0.8,1.1-2.2,2.4-1.5,4.1c1.2-0.8,1.9-2.2,2.7-3.3c6-8.3,11.9-16.7,17.7-25c0.1,0,0.2-0.1,0-0.2C22.9,102.8,22,102.5,21.4,102.6z
	 M18.2,102.9c-4.2,5.6-8,11.5-11.9,17.1c-1.3,1.9-3.2,3.6-3.7,6.1c5.8-7.1,11.5-15.5,17.1-23.3C19.1,102.7,18.7,102.9,18.2,102.9z
	 M2.7,103.1c0.1,1.3-0.2,3,0.2,4.1c0.8-1.5,2-2.8,2.9-4.2C4.6,102.8,3.9,103.2,2.7,103.1z M7.3,102.9c-1.6,2.1-3,4.4-4.6,6.5
	c0.1,0.8-0.2,2,0.2,2.6c2.2-3.1,4.4-6,6.6-9.1C8.8,102.9,8,102.9,7.3,102.9z M11,102.9c-1.2,1.6-2.6,3.8-4.3,6.1
	c-2,2.7-4.6,4.7-3.8,8.6c3.4-5,7.1-9.7,10.5-14.7C12.6,102.9,11.8,102.9,11,102.9z M15.1,102.9c-4.3,5.6-8.1,11.6-12.4,17.3
	c0.1,1.1-0.3,1.6,0,2.1c4.5-6.5,9.3-12.8,13.8-19.4C16,102.9,15.6,102.9,15.1,102.9z M28,117.7c-2.3,3.5-4.4,7.1-6.6,10.5
	c-0.7,1.1-2,2.2-1.8,3.3c1.8,0.3,2.1-1.6,2.7-2.6c4.3-6.6,8.5-12.8,12.8-19.5c1.3-1.9,2.8-3,2-5.8C34.3,108.4,31,113,28,117.7z
	 M23.4,130.2c-0.2,0.4-0.6,0.9-0.5,1.4c1.4,0.4,1.9-1.1,2.4-2c4-6.4,8-12.7,11.9-18.9c-0.1-0.6,0.2-1.6-0.2-2
	C32.9,115.8,27.6,123.2,23.4,130.2z M26,131.5c0.5,0,1,0,1.5,0c2.5-3.6,4.9-7.8,7.3-11.7c1.3-2.1,3.2-3.6,2.3-6.8
	C33.5,119.3,29.6,125.3,26,131.5z M29.3,131.5c1.6,0.5,2.1-1.1,2.6-2c1.8-2.9,3.6-5.9,5.4-8.6c-0.1-0.8,0.2-1.9-0.2-2.4
	C34.7,123,31.8,127.1,29.3,131.5z M32.6,131.4c0.5,0,0.9,0,1.4,0c0.9-2.7,4-4.1,3.2-8C35.7,126.2,33.9,128.5,32.6,131.4z
	 M35.5,131.4c0.8,0.1,1.1-0.3,1.8-0.2c-0.1-1,0.2-2.3-0.2-3C36.7,129.4,35.9,130.2,35.5,131.4z M2.6,133.3
	c0.1,13.1-0.1,25.8-0.1,38.8c3.8,2.6,10.9,2.3,17.3,2.6c6.5,0.3,13.8,0.8,17.7-2c-0.1-12.3,0-25.3-0.2-37.6c0-0.6,0.4-1.8-0.5-2.1
	C26.1,133.7,13.5,134.2,2.6,133.3z"/>
<path class="st0" d="M102.7,170.9c-2.2,3.1-6.1,4-9.3,4.7c-3.2,0.7-6.6,0.8-9.8,0.9c-4.5,0.2-9.8,0.9-14.8-0.7
	c-1.6-0.5-4.3-1.5-4-2.9c0.3-1.5,4.1-2.7,5.6-3.3c3-1.1,8-2.9,10-7.4c0.5-1.2,0-3.6,0-5.4c-0.5-10.6-0.6-21.6-1.1-32.1
	c-0.1-1.8,0.2-3.7-0.1-5.3c-0.2-0.8-0.5-2.4-1-3c-1.1-1.2-3.3-1.7-4.9-2.6c-1.7-0.9-3.5-1.9-4.8-2.9c-8.1-6.2-11.8-14.3-12.6-21.8
	c-0.7-7.5,0.1-14.6,3.7-22.6c9.3-1.1,19.5-0.8,29.2-1.2c3.2-0.1,6.8-0.8,9.7-0.2c1.6,0.3,3.2,3.7,3.8,5.3c1.9,5,2.1,11,1.8,15.7
	c-0.5,6.8-3,15.2-7.9,21.4c-2.5,3.1-5,5.1-7.6,6.8c-0.9,0.6-2,1-2.6,1.6c-0.6,0.6-0.9,2.4-1.1,3.2c-0.6,3,0.3,7.6,0.6,10.9
	c0.7,7.4,0.6,14.2,1,21.8c0.1,1.6,0.2,3.4,0.2,5.4c0.1,2-0.1,4.4,0.4,5.4c1.6,3,5.3,4.3,7.8,5.1C97.7,168.6,100.6,168.5,102.7,170.9
	z M69.6,68.2c-3.1,0.1-6.3,0-9.4,0.5C57.7,75.1,57.5,82.1,58,89c0.5,6.7,3.7,14.1,10.9,19.7c3.4,2.7,6.6,3.7,10.2,5.9
	c1.8-0.3,3.6,0.3,5.2-0.2c2.7-1,7.1-4.7,9.3-7.3c5.2-6.1,7.4-13.3,8.1-20.4c0.6-6.3,0.6-14.3-3.7-20.1C88.6,67,79,67.7,69.6,68.2z
	 M80.9,124.6c0.5,10.8,1.1,21.5,1.5,32.3c0.1,1.9,0.3,4.1-0.1,5.4c-1.9,6.1-10,8.4-14.5,10.7c0.1-0.1,0.1-0.1,0.2,0
	c5.2,2.1,10.8,1.5,16,1.4c5.2-0.1,10.8-0.8,15.8-3c-3.9-1.5-8.8-2.2-12.5-5.6c-3.3-3-2.7-5.4-2.8-8.9c-0.5-11-1.1-21.7-1.3-32.5
	c0-2.9-0.6-5.4,0.7-8.1c-1.4-0.3-3.2-0.3-4.2,0.1C81.1,119.3,80.8,121.8,80.9,124.6z"/>
<path class="st0" d="M98.7,70.5c0.1,1-1.2,1.9-2,2.8c-0.9,0.9-1.7,1.9-2.5,2.7c-1.1,1.1-2.5,2.6-3.6,1.7c0.1-0.9,1.3-1.1,2-1.7
	c1.8-1.6,3.6-3.9,5.5-5.8c0.2,0.1,0.4,0.1,0.6,0C98.7,70.3,98.7,70.4,98.7,70.5z"/>
<path class="st0" d="M92.5,79.5c-0.4-0.9,0.7-1.1,1.3-1.6c1.6-1.5,3.4-4,5-5.3c0.4,0.1,0.5,0.1,0.7,0.5c-0.3,0.7-0.9,1.1-1.5,1.8
	C96.3,76.9,94.4,79.8,92.5,79.5z"/>
<path class="st0" d="M99.7,75.9c0.4,0.6-0.5,1.5-1.2,2.3c-1.1,1.3-2.7,3.5-3.9,3c-0.4-0.8,0.6-1.1,1.2-1.7c1.1-1.1,2.1-2.6,3.1-3.6
	c0.2-0.1,0.3,0,0.5-0.1C99.5,75.8,99.6,75.8,99.7,75.9z"/>
<path class="st0" d="M99.9,79.6c-0.8,0.9-2.2,3.6-3.4,2.5C96.9,81.6,99.2,78.1,99.9,79.6z"/>
</svg>
