<?xml version="1.0" encoding="utf-8"?>
<!-- Generator: Adobe Illustrator 21.0.2, SVG Export Plug-In . SVG Version: 6.00 Build 0)  -->
<svg version="1.1" id="_x33_" xmlns="http://www.w3.org/2000/svg" xmlns:xlink="http://www.w3.org/1999/xlink" x="0px" y="0px"
	 viewBox="0 0 40 40" style="enable-background:new 0 0 40 40;" xml:space="preserve">
<style type="text/css">
	.st0{fill-rule:evenodd;clip-rule:evenodd;fill:#323232;}
	.st1{fill-rule:evenodd;clip-rule:evenodd;fill:#FEFEFE;}
</style>
<g>
	<path class="st0" d="M8.8,0h22.4C36,0,40,4,40,8.8v22.4c0,4.9-4,8.8-8.8,8.8H8.8C3.9,40,0,36,0,31.2V8.8C0,4,3.9,0,8.8,0L8.8,0z"/>
	<path class="st1" d="M21.9,15.5v-1.9c0-0.9,0.6-1.1,1.1-1.1c0.4,0,2.7,0,2.7,0V8.3H22c-4.1,0-5.1,3.1-5.1,5v2.2h-2.4v2.9v1.9h2.4
		c0,5.5,0,12,0,12h4.8c0,0,0-6.6,0-12h3.6l0.2-1.9l0.3-2.9H21.9z"/>
</g>
</svg>
