<?xml version="1.0" encoding="utf-8"?>
<!-- Generator: Adobe Illustrator 21.0.2, SVG Export Plug-In . SVG Version: 6.00 Build 0)  -->
<svg version="1.1" id="Isolation_Mode" xmlns="http://www.w3.org/2000/svg" xmlns:xlink="http://www.w3.org/1999/xlink" x="0px"
	 y="0px" viewBox="0 0 430 60" style="enable-background:new 0 0 430 60;" xml:space="preserve">
<style type="text/css">
	.st0{fill:#E3000F;}
	.st1{fill:#FFFFFF;}
</style>
<path class="st0" d="M297.1,1.2v57.6H284l0-38.9l-5.2,38.9h-9.1l-5.5-38l0,38H251V1.2h19.3c0.5,3.5,1.1,7.6,1.8,12.3l2.1,14.6
	l3.4-26.9H297.1z M0,1.2h25.3v11.5H15v11h9.1v10.9H15v24.2H0V1.2z"/>
<path class="st1" d="M428.8,18.6h-13.9v-4.3c0-2-0.2-3.3-0.5-3.8c-0.4-0.5-0.9-0.8-1.8-0.8c-0.9,0-1.6,0.4-2,1.1
	c-0.5,0.7-0.7,1.8-0.7,3.3c0,1.9,0.3,3.4,0.8,4.3c0.5,1,1.9,2.1,4.2,3.5c6.6,4,10.8,7.2,12.5,9.8c1.7,2.5,2.6,6.6,2.6,12.3
	c0,4.1-0.5,7.1-1.4,9.1c-1,1.9-2.8,3.6-5.5,4.9c-2.7,1.3-5.9,2-9.6,2c-4,0-7.4-0.8-10.2-2.3c-2.8-1.5-4.7-3.4-5.5-5.8
	c-0.9-2.4-1.3-5.7-1.3-10v-3.8h13.9v7c0,2.2,0.2,3.5,0.6,4.2c0.4,0.6,1.1,0.9,2.1,0.9c1,0,1.7-0.4,2.2-1.2c0.5-0.8,0.7-1.9,0.7-3.5
	c0-3.4-0.5-5.6-1.4-6.6c-1-1-3.3-2.8-7-5.2c-3.7-2.5-6.1-4.3-7.4-5.4c-1.2-1.1-2.2-2.7-3-4.6s-1.2-4.5-1.2-7.5
	c0-4.4,0.6-7.6,1.7-9.7c1.1-2,2.9-3.6,5.4-4.8c2.5-1.2,5.5-1.7,9.1-1.7c3.9,0,7.2,0.6,9.9,1.9c2.7,1.3,4.5,2.8,5.4,4.8
	c0.9,1.9,1.3,5.1,1.3,9.7V18.6z M385,1.2v46.1h9v11.5h-24V1.2H385z M351.1,38.2c-0.7-6.5-1.5-14.6-2.3-24.3
	c-1.5,11.1-2.4,19.2-2.8,24.3H351.1z M359,1.2l8.5,57.6h-15.3l-0.8-10.3h-5.4l-0.8,10.3h-15.4l7.6-57.6H359z M303.1,1.2H328v11.5
	H318v11h9.3v10.9H318v12.7h11v11.5h-25.9V1.2z M248.5,1.2l-10.9,36.7v20.8h-13.8V37.9L213.3,1.2H227c2.1,11.3,3.3,18.8,3.6,22.7
	c0.9-6.1,2.2-13.7,4.2-22.7H248.5z M192.6,11v12.8c1.7,0,2.8-0.2,3.5-0.7c0.7-0.5,1-2,1-4.5v-3.2c0-1.8-0.3-3-1-3.6
	C195.4,11.3,194.3,11,192.6,11z M177.6,1.2h10.6c7,0,11.8,0.3,14.3,0.8c2.5,0.5,4.5,1.9,6.1,4.2c1.6,2.2,2.4,5.8,2.4,10.7
	c0,4.5-0.6,7.5-1.7,9c-1.1,1.5-3.3,2.5-6.6,2.8c3,0.7,4.9,1.7,6,3c1,1.2,1.6,2.4,1.9,3.4c0.3,1,0.4,3.9,0.4,8.5v15.2h-13.9V39.6
	c0-3.1-0.2-5-0.7-5.7c-0.5-0.7-1.7-1.1-3.8-1.1v26h-15V1.2z M157,16c0-2.7-0.1-4.4-0.4-5.1c-0.3-0.7-0.9-1.1-1.8-1.1
	c-0.8,0-1.3,0.3-1.8,0.9c-0.4,0.6-0.6,2.4-0.6,5.3v26.9c0,3.3,0.1,5.4,0.4,6.2c0.3,0.8,0.9,1.2,1.9,1.2c1,0,1.6-0.4,1.9-1.3
	c0.3-0.9,0.4-3,0.4-6.4V16z M172,34.9c0,5.8-0.1,9.9-0.4,12.3c-0.3,2.4-1.1,4.6-2.5,6.6c-1.4,2-3.4,3.5-5.8,4.6
	c-2.4,1.1-5.3,1.6-8.5,1.6c-3.1,0-5.8-0.5-8.3-1.5c-2.4-1-4.4-2.5-5.9-4.5c-1.5-2-2.4-4.2-2.7-6.6c-0.3-2.4-0.4-6.5-0.4-12.5v-9.9
	c0-5.8,0.1-9.9,0.4-12.3c0.3-2.4,1.1-4.6,2.5-6.6c1.4-2,3.4-3.5,5.8-4.6c2.4-1.1,5.3-1.6,8.5-1.6c3.1,0,5.8,0.5,8.3,1.5
	c2.4,1,4.4,2.5,5.9,4.5c1.5,2,2.4,4.2,2.7,6.6c0.3,2.4,0.4,6.5,0.4,12.5V34.9z M134.5,1.2v11.5h-8.8v46.1h-15V12.7h-8.9V1.2H134.5z
	 M99.1,26.3h-15v-10c0-2.9-0.2-4.7-0.5-5.4c-0.3-0.7-1-1.1-2.1-1.1c-1.2,0-2,0.4-2.3,1.3c-0.3,0.9-0.5,2.8-0.5,5.7v26.7
	c0,2.8,0.2,4.6,0.5,5.5c0.3,0.9,1.1,1.3,2.2,1.3c1.1,0,1.8-0.4,2.2-1.3c0.3-0.8,0.5-2.9,0.5-6v-7.2h15v2.2c0,6-0.4,10.2-1.3,12.7
	c-0.8,2.5-2.7,4.7-5.6,6.6c-2.9,1.9-6.4,2.8-10.6,2.8c-4.4,0-8-0.8-10.8-2.4C68,56,66.2,53.8,65.2,51c-0.9-2.8-1.4-7-1.4-12.7V21.5
	c0-4.2,0.1-7.3,0.4-9.3c0.3-2.1,1.1-4.1,2.5-6c1.4-1.9,3.3-3.4,5.8-4.5C75.2,0.5,78,0,81.3,0c4.4,0,8,0.8,10.9,2.6
	c2.9,1.7,4.7,3.8,5.6,6.4c0.9,2.5,1.3,6.5,1.3,11.9V26.3z M45.3,38.2C44.6,31.7,43.8,23.6,43,14c-1.5,11.1-2.4,19.2-2.8,24.3H45.3z
	 M53.2,1.2l8.5,57.6H46.5l-0.8-10.3h-5.4l-0.8,10.3H24l7.6-57.6H53.2z"/>
</svg>
