<?xml version="1.0" encoding="utf-8"?>
<!-- Generator: Adobe Illustrator 21.0.2, SVG Export Plug-In . SVG Version: 6.00 Build 0)  -->
<svg version="1.1" id="Isolation_Mode" xmlns="http://www.w3.org/2000/svg" xmlns:xlink="http://www.w3.org/1999/xlink" x="0px"
	 y="0px" viewBox="0 0 394 60.2" style="enable-background:new 0 0 394 60.2;" xml:space="preserve">
<style type="text/css">
	.st0{fill:#E3000F;fill-opacity:0;}
	.st1{fill:#FFFFFF;fill-opacity:0;}
</style>
<path class="st0" d="M297.1,1.3v57.6H284V20l-5.2,38.9h-9.1l-5.5-38v38H251V1.3h19.3c0.5,3.5,1.1,7.6,1.8,12.3l2.1,14.6l3.4-26.9
	C277.6,1.3,297.1,1.3,297.1,1.3z M0,1.3h25.3v11.5H15v11h9.1v10.9H15v24.2H0V1.3z">
	<animate attributeName="fill-opacity" from="0" to="1" dur="1s" begin="1s" fill="freeze"/>
	</path>
<path class="st1" d="M385,1.3v46.1h9v11.5h-24V1.3H385z M351.1,38.3c-0.7-6.5-1.5-14.6-2.3-24.3c-1.5,11.1-2.4,19.2-2.8,24.3H351.1z
	 M359,1.3l8.5,57.6h-15.3l-0.8-10.3H346l-0.8,10.3h-15.4l7.6-57.6C337.4,1.3,359,1.3,359,1.3z M303.1,1.3H328v11.5h-10v11h9.3v10.9
	H318v12.7h11v11.5h-25.9V1.3z M248.5,1.3L237.6,38v20.8h-13.8V38L213.3,1.3H227c2.1,11.3,3.3,18.8,3.6,22.7
	c0.9-6.1,2.2-13.7,4.2-22.7C234.8,1.3,248.5,1.3,248.5,1.3z M192.6,11.1v12.8c1.7,0,2.8-0.2,3.5-0.7s1-2,1-4.5v-3.2
	c0-1.8-0.3-3-1-3.6C195.4,11.4,194.3,11.1,192.6,11.1z M177.6,1.3h10.6c7,0,11.8,0.3,14.3,0.8s4.5,1.9,6.1,4.2
	c1.6,2.2,2.4,5.8,2.4,10.7c0,4.5-0.6,7.5-1.7,9c-1.1,1.5-3.3,2.5-6.6,2.8c3,0.7,4.9,1.7,6,3c1,1.2,1.6,2.4,1.9,3.4
	c0.3,1,0.4,3.9,0.4,8.5v15.2h-13.9V39.7c0-3.1-0.2-5-0.7-5.7s-1.7-1.1-3.8-1.1v26h-15V1.3z M157,16.1c0-2.7-0.1-4.4-0.4-5.1
	c-0.3-0.7-0.9-1.1-1.8-1.1c-0.8,0-1.3,0.3-1.8,0.9c-0.4,0.6-0.6,2.4-0.6,5.3V43c0,3.3,0.1,5.4,0.4,6.2c0.3,0.8,0.9,1.2,1.9,1.2
	s1.6-0.4,1.9-1.3c0.3-0.9,0.4-3,0.4-6.4L157,16.1L157,16.1z M172,35c0,5.8-0.1,9.9-0.4,12.3c-0.3,2.4-1.1,4.6-2.5,6.6
	s-3.4,3.5-5.8,4.6c-2.4,1.1-5.3,1.6-8.5,1.6c-3.1,0-5.8-0.5-8.3-1.5c-2.4-1-4.4-2.5-5.9-4.5s-2.4-4.2-2.7-6.6
	c-0.3-2.4-0.4-6.5-0.4-12.5v-9.9c0-5.8,0.1-9.9,0.4-12.3c0.3-2.4,1.1-4.6,2.5-6.6s3.4-3.5,5.8-4.6c2.4-1.1,5.3-1.6,8.5-1.6
	c3.1,0,5.8,0.5,8.3,1.5c2.4,1,4.4,2.5,5.9,4.5s2.4,4.2,2.7,6.6s0.4,6.5,0.4,12.5V35z M134.5,1.3v11.5h-8.8v46.1h-15V12.8h-8.9V1.3
	H134.5z M99.1,26.4h-15v-10c0-2.9-0.2-4.7-0.5-5.4s-1-1.1-2.1-1.1c-1.2,0-2,0.4-2.3,1.3c-0.3,0.9-0.5,2.8-0.5,5.7v26.7
	c0,2.8,0.2,4.6,0.5,5.5s1.1,1.3,2.2,1.3s1.8-0.4,2.2-1.3c0.3-0.8,0.5-2.9,0.5-6v-7.2h15v2.2c0,6-0.4,10.2-1.3,12.7
	c-0.8,2.5-2.7,4.7-5.6,6.6c-2.9,1.9-6.4,2.8-10.6,2.8c-4.4,0-8-0.8-10.8-2.4c-2.8-1.7-4.6-3.9-5.6-6.7c-0.9-2.8-1.4-7-1.4-12.7V21.6
	c0-4.2,0.1-7.3,0.4-9.3c0.3-2.1,1.1-4.1,2.5-6s3.3-3.4,5.8-4.5c2.7-1.2,5.5-1.7,8.8-1.7c4.4,0,8,0.8,10.9,2.6
	c2.9,1.7,4.7,3.8,5.6,6.4c0.9,2.5,1.3,6.5,1.3,11.9C99.1,21,99.1,26.4,99.1,26.4z M45.3,38.3c-0.7-6.5-1.5-14.6-2.3-24.2
	c-1.5,11.1-2.4,19.2-2.8,24.3L45.3,38.3L45.3,38.3z M53.2,1.3l8.5,57.6H46.5l-0.8-10.3h-5.4l-0.8,10.3H24l7.6-57.6
	C31.6,1.3,53.2,1.3,53.2,1.3z">
	<animate attributeName="fill-opacity" from="0" to="1" dur="1s" begin="2s" fill="freeze"/>
	 </path>
</svg>
