<?xml version="1.0" encoding="utf-8"?>
<!-- Generator: Adobe Illustrator 21.0.2, SVG Export Plug-In . SVG Version: 6.00 Build 0)  -->
<svg version="1.1" id="_x33_" xmlns="http://www.w3.org/2000/svg" xmlns:xlink="http://www.w3.org/1999/xlink" x="0px" y="0px"
	 viewBox="0 0 40 40" style="enable-background:new 0 0 40 40;" xml:space="preserve">
<style type="text/css">
	.st0{fill-rule:evenodd;clip-rule:evenodd;fill:#323232;}
	.st1{fill:#FFFFFF;}
</style>
<g>
	<path class="st0" d="M8.8,0h22.4C36,0,40,4,40,8.8v22.4c0,4.9-4,8.8-8.8,8.8H8.8C4,40,0,36,0,31.2V8.8C0,4,4,0,8.8,0L8.8,0z"/>
	<g>
		<g>
			<path class="st1" d="M25.9,33.6H14.1c-4.3,0-7.7-3.5-7.7-7.7V14.1c0-4.3,3.5-7.7,7.7-7.7h11.7c4.3,0,7.7,3.5,7.7,7.7v11.7
				C33.6,30.1,30.1,33.6,25.9,33.6z M14.1,8.7c-3,0-5.4,2.4-5.4,5.4v11.7c0,3,2.4,5.4,5.4,5.4h11.7c3,0,5.4-2.4,5.4-5.4V14.1
				c0-3-2.4-5.4-5.4-5.4H14.1z"/>
		</g>
		<g>
			<path class="st1" d="M20,27c-3.8,0-7-3.1-7-7c0-3.8,3.1-7,7-7c3.8,0,7,3.1,7,7C27,23.8,23.8,27,20,27z M20,15.4
				c-2.6,0-4.6,2.1-4.6,4.6s2.1,4.6,4.6,4.6c2.6,0,4.6-2.1,4.6-4.6S22.6,15.4,20,15.4z"/>
		</g>
		<g>
			<circle class="st1" cx="27.3" cy="12.6" r="1.7"/>
		</g>
	</g>
</g>
</svg>
