<?xml version="1.0" encoding="utf-8"?>
<!-- Generator: Adobe Illustrator 21.0.2, SVG Export Plug-In . SVG Version: 6.00 Build 0)  -->
<svg version="1.1" id="Layer_1" xmlns="http://www.w3.org/2000/svg" xmlns:xlink="http://www.w3.org/1999/xlink" x="0px" y="0px"
	 viewBox="0 0 229.1 32.4" style="enable-background:new 0 0 229.1 32.4;" xml:space="preserve">
<style type="text/css">
	.st0{fill:#E3000F;}
</style>
<g>
	<path class="st0" d="M20.6,15.2c0.5-0.6,1-1.1,1.5-1.7c0.1-0.1,0.2-0.2,0.3-0.3c0.1-0.1,0.2-0.2,0.3-0.3c0.8-0.9,1.7-1.8,2.6-2.8
		c1-1,2.2-2.1,3.7-3.5c3-2.7,5-4.3,6-4.8C35.9,1.3,36.5,1,36.6,1c0,0,0.1,0,0.2,0c0.1,0,0.1,0,0.2,0.1c0.3,0.1,0.6,0.4,0.8,0.8
		c0.3,0.4,0.4,0.8,0.4,1.2c0,0.1,0,0.2,0,0.3c0,0.1,0,0.2-0.1,0.3c-0.5,0.6-1,1.2-1.4,1.7c-0.4,0.5-0.8,1-1.2,1.5
		c0,0-0.1,0.1-0.1,0.1c0,0-0.1,0.1-0.1,0.1c-0.3,0.3-0.5,0.7-0.8,1c-0.3,0.3-0.6,0.7-0.9,1c-0.3,0.4-0.7,0.8-1.1,1.3
		c-0.4,0.5-0.8,1-1.2,1.6c-0.4,0.5-0.7,1.1-1.1,1.7c-0.3,0.6-0.7,1.2-1,1.8c-0.4,0.8-0.8,1.6-1,2.4c-0.3,0.8-0.4,1.5-0.4,2.2
		c0,1,0.2,1.7,0.5,2.1c0.3,0.4,0.7,0.6,1.1,0.6c0.2,0,0.6-0.1,1-0.3c0.4-0.2,0.8-0.4,1.3-0.7c0.1-0.1,0.2-0.1,0.4-0.2
		c0.1-0.1,0.3-0.2,0.4-0.3c0.4-0.2,0.7-0.5,1-0.7c0.3-0.2,0.5-0.4,0.7-0.6c0,0,0.1-0.1,0.2-0.1c0.1,0,0.1-0.1,0.2-0.1
		c0,0,0.1-0.1,0.1-0.1c0,0,0.1-0.1,0.1-0.1c0.1-0.1,0.3-0.2,0.4-0.3c0.1-0.1,0.3-0.1,0.4-0.1c0,0,0,0,0.1,0c0.1,0,0.1,0.1,0.2,0.1
		c0.1,0,0.1,0.1,0.1,0.1c0,0,0,0,0,0.1c0,0.1-0.1,0.3-0.3,0.5c-0.2,0.2-0.4,0.5-0.6,0.8c0,0-0.1,0.1-0.1,0.1c0,0-0.1,0.1-0.1,0.1
		c-0.2,0.2-0.4,0.4-0.6,0.6c-0.2,0.2-0.3,0.3-0.4,0.4c-0.4,0.4-0.9,0.8-1.4,1.2c-0.5,0.4-0.9,0.7-1.4,1c-0.9,0.6-1.7,1.1-2.6,1.4
		c-0.8,0.4-1.6,0.5-2.3,0.5c-0.1,0-0.3,0-0.5-0.1c-0.2-0.1-0.4-0.2-0.7-0.3c-0.4-0.2-0.7-0.6-1-1.1c-0.3-0.5-0.5-1.2-0.5-2.1
		c0-1.2,0.2-2.5,0.7-3.7s1-2.2,1.6-3.1c0.2-0.4,0.5-0.7,0.7-1.1c0.2-0.3,0.5-0.6,0.6-0.9c1.4-1.8,2.3-3,2.6-3.5
		c0.3-0.5,0.5-0.8,0.5-1c0-0.1,0-0.1-0.1-0.2c-0.1-0.1-0.2-0.1-0.3-0.1c-0.2,0-0.6,0.2-1.3,0.7c-0.7,0.5-2,1.7-4,3.7
		c-0.6,0.6-1.5,1.6-2.6,2.9c-1.1,1.3-2.3,2.7-3.5,4.3c-0.2,0.3-0.5,0.6-0.7,1c-0.2,0.3-0.5,0.7-0.7,1c-0.6,0.8-0.9,1.3-1.2,1.6
		c-0.2,0.3-0.4,0.5-0.5,0.5c0,0,0,0-0.1,0c0,0-0.1,0-0.1,0c0,0-0.1,0-0.1,0c-0.3,0-0.5-0.2-0.7-0.4c-0.2-0.2-0.3-0.6-0.3-1.1
		c0-0.5,0.3-1.5,0.8-3.1c0.5-1.6,1.7-4,3.4-7.2c1.6-2.8,2.6-4.5,3.1-5.3s0.8-1.3,0.8-1.5c0-0.1-0.1-0.2-0.2-0.3
		c-0.1-0.1-0.3-0.1-0.4-0.1c-0.3,0-0.8,0.2-1.4,0.6c-0.6,0.4-1.2,0.8-1.9,1.4c-0.1,0.1-0.3,0.2-0.4,0.3c-0.1,0.1-0.3,0.2-0.4,0.3
		c-0.6,0.5-1.1,0.9-1.5,1.3s-0.8,0.8-1.1,1c-1.2,1.2-2.7,2.8-4.4,4.7c-1.7,1.9-3.5,4.2-5.6,6.9c-0.5,0.6-0.8,1.1-1.1,1.3
		c-0.3,0.3-0.5,0.4-0.7,0.5c-0.1,0-0.2,0-0.2,0.1c-0.1,0-0.2,0-0.3,0c0,0-0.1,0-0.2,0c-0.1,0-0.1,0-0.2,0c-0.1,0-0.1,0-0.2,0
		s-0.2,0-0.3,0c0,0-0.1,0-0.2,0c-0.1,0-0.1,0-0.2,0c-0.4,0-0.7-0.1-0.8-0.3C0.1,23.7,0,23,0,21.9c0-1.5,0.2-2.9,0.6-4
		C1,16.7,1.4,15.8,1.9,15c0.3-0.4,0.5-0.7,0.8-1c0.2-0.3,0.5-0.5,0.6-0.6c0.1-0.1,0.2-0.1,0.4-0.2c0.2-0.1,0.4-0.2,0.6-0.2
		c0.2-0.1,0.3-0.1,0.5-0.2c0.2-0.1,0.4-0.1,0.5-0.2c0.5-0.1,1-0.3,1.4-0.4c0.4-0.1,0.7-0.1,0.8-0.1c0,0,0,0,0.1,0c0,0,0,0,0.1,0
		c0,0,0,0,0,0.1s0,0.1,0,0.1s0,0.1,0,0.1c-0.1,0.2-0.3,0.4-0.7,0.7c-0.3,0.3-0.7,0.7-1.1,1.2c-0.3,0.5-0.7,1.1-1,1.9
		C4.7,17,4.5,18,4.3,19.3c0.4-0.5,1.1-1.3,2.1-2.4s2-2.3,3.2-3.5c0.1-0.1,0.1-0.1,0.2-0.2c0.1-0.1,0.1-0.1,0.2-0.2c1-1,1.9-2,2.8-3
		c0.9-0.9,1.6-1.7,2.2-2.2c0.4-0.4,1-0.9,1.7-1.6c0.8-0.7,1.6-1.4,2.5-2.1c0.1-0.1,0.3-0.2,0.4-0.4c0.1-0.1,0.3-0.2,0.4-0.3
		c1.1-0.9,2.2-1.7,3.2-2.4c1-0.7,1.7-1.1,2.1-1.1c0.1,0,0.1,0,0.2,0.1c0.1,0,0.2,0.1,0.3,0.2C26,0.4,26.2,0.7,26.3,1
		c0.2,0.3,0.3,0.7,0.4,1c0,0.2,0.1,0.4,0.1,0.5s0.1,0.3,0.1,0.5c0,0.4-0.2,0.9-0.6,1.5c-0.4,0.6-1.1,1.7-2.1,3.1
		c-0.3,0.5-0.6,0.9-0.9,1.3c-0.3,0.4-0.6,0.9-0.8,1.3c-0.6,1.1-1.3,2.1-1.9,3.2c-0.6,1.1-1.1,2.2-1.7,3.5
		C19.5,16.4,20.1,15.7,20.6,15.2z"/>
	<path class="st0" d="M50,13.2c0.1,0.2,0.2,0.5,0.3,0.7c0,0.1,0,0.2,0.1,0.2c0,0.1,0,0.2,0,0.2c0,0.1-0.1,0.4-0.3,0.7
		c-0.2,0.3-0.5,0.9-1,1.7c-0.4,0.6-0.7,1.1-1,1.6c-0.3,0.5-0.4,0.9-0.5,1.3c0,0,0,0.1,0,0.1c0,0,0,0.1,0,0.1c0,0.4,0.1,0.7,0.3,0.9
		c0.2,0.2,0.4,0.3,0.6,0.4c0.1,0,0.1,0,0.2,0.1c0.1,0,0.1,0,0.2,0c0.3,0,0.6-0.1,0.9-0.2c0.3-0.1,0.6-0.3,0.9-0.5
		c0,0,0.1-0.1,0.2-0.1c0.1,0,0.1-0.1,0.2-0.1c0.1,0,0.2-0.1,0.3-0.2c0.1-0.1,0.2-0.1,0.3-0.2c0.4-0.2,0.6-0.4,0.8-0.5
		c0.2-0.1,0.3-0.2,0.4-0.3c0,0,0,0,0.1,0c0,0,0,0,0.1,0c0,0,0.1,0,0.1,0.1c0,0,0.1,0.1,0.1,0.1c0,0.1-0.2,0.4-0.5,0.7
		c-0.3,0.3-0.9,0.9-1.7,1.7c-0.1,0.1-0.3,0.3-0.5,0.5c-0.2,0.2-0.4,0.4-0.6,0.5c-0.4,0.4-0.8,0.7-1.3,1s-0.9,0.5-1.4,0.7
		c-0.1,0-0.2,0.1-0.4,0.1c-0.1,0-0.2,0-0.4,0c0,0-0.1,0-0.2,0c-0.1,0-0.1,0-0.2,0c-0.4,0-0.8-0.2-1.1-0.5s-0.5-0.7-0.5-1.3
		c0-0.4,0-0.8,0.1-1.2s0.2-0.7,0.3-1c0.1-0.2,0.2-0.4,0.2-0.6s0.1-0.3,0.2-0.4c0,0,0-0.1,0.1-0.1c0,0,0-0.1,0-0.1c0,0,0,0,0.1-0.1
		c0,0,0,0,0-0.1c0.1-0.1,0.1-0.3,0.2-0.4c0.1-0.2,0.2-0.4,0.3-0.6c-2.3,2.4-4,4-5.1,4.7c-1.1,0.7-1.8,1.1-2.2,1.1
		c-0.5,0-0.8-0.3-1.2-0.8c-0.3-0.6-0.6-1.2-0.7-1.8c-0.1-0.3-0.1-0.6-0.2-0.9c0-0.3-0.1-0.6-0.1-0.8c0-0.9,0.3-1.8,0.8-2.6
		c0.6-0.8,1.2-1.6,1.8-2.2c0.5-0.4,0.9-0.8,1.3-1.1c0.4-0.3,0.8-0.6,1-0.7c0.2-0.2,0.5-0.4,0.9-0.6c0.3-0.2,0.7-0.4,1.1-0.6
		c0.3-0.2,0.6-0.3,1-0.5c0.3-0.2,0.7-0.3,1-0.5c0.7-0.3,1.3-0.6,1.9-0.8c0.6-0.2,1.2-0.3,1.6-0.3c0.4,0,0.8,0.1,1.1,0.3
		c0.3,0.2,0.5,0.4,0.6,0.7c0,0,0,0.1,0.1,0.1c0,0,0,0.1,0,0.1c0,0.1,0,0.3-0.1,0.4c-0.1,0.1-0.2,0.2-0.3,0.3c0,0-0.1,0.1-0.1,0.1
		c0,0-0.1,0.1-0.1,0.1c0,0,0,0-0.1,0.1c0,0,0,0-0.1,0l0,0c0,0-0.1,0.1-0.1,0.1c0,0-0.1,0.1-0.1,0.2C49.8,12.7,49.9,13,50,13.2z
		 M38.4,20.2c0,0,0,0.1,0,0.1c0,0.2,0.1,0.3,0.2,0.5c0.1,0.2,0.2,0.3,0.3,0.3c0,0,0.1,0,0.1,0c0,0,0.1,0,0.1,0c0,0,0.1,0,0.1,0
		s0.1,0,0.1,0c0.3-0.1,0.7-0.3,1.4-0.6c0.6-0.3,1.5-0.9,2.5-1.8c0.1-0.1,0.4-0.3,0.7-0.6c0.3-0.3,0.7-0.6,1-1
		c0.1-0.1,0.2-0.2,0.3-0.3c0.1-0.1,0.2-0.2,0.3-0.3c0.3-0.4,0.6-0.8,0.9-1.1c0.3-0.4,0.4-0.6,0.4-0.9c0-0.1,0-0.2-0.1-0.3
		c-0.1-0.1-0.2-0.1-0.3-0.1c-0.1,0-0.1,0-0.2,0s-0.1,0-0.1,0c-0.3,0-0.6,0-1,0.1c-0.3,0.1-0.7,0.2-1,0.3c-1.1,0.3-2.1,0.9-3,1.6
		c-1,0.7-1.7,1.5-2.2,2.3c-0.2,0.3-0.3,0.6-0.4,0.9c-0.1,0.3-0.1,0.6-0.1,0.9C38.4,20.1,38.4,20.1,38.4,20.2z"/>
	<path class="st0" d="M53.4,18c0.2-0.6,0.6-1.2,1-1.8c0.7-1.1,1.7-2.2,2.9-3.2c1.2-1,2.4-1.7,3.7-2.1c0.3-0.1,0.6-0.2,1-0.2
		c0.3-0.1,0.7-0.1,1-0.1c0.1,0,0.1,0,0.2,0c0.1,0,0.2,0,0.2,0c0.2,0,0.5,0.2,0.7,0.3c0.2,0.2,0.3,0.4,0.3,0.7c0,0.3-0.1,0.6-0.3,1
		c-0.2,0.4-0.4,0.8-0.6,1.2c-0.1,0.2-0.3,0.5-0.5,0.7c-0.2,0.2-0.3,0.5-0.5,0.7c-0.3,0.4-0.7,0.8-1,1c-0.3,0.3-0.5,0.4-0.7,0.4
		c-0.1,0-0.2,0-0.2-0.1c-0.1-0.1-0.1-0.2-0.2-0.3c0,0,0-0.1-0.1-0.1c0,0,0-0.1-0.1-0.1c0,0,0-0.1,0-0.1c0-0.1,0-0.1-0.1-0.2
		c0-0.1-0.1-0.1-0.2-0.2c-0.1-0.1-0.1-0.1-0.2-0.1c0,0-0.1,0-0.1,0c0,0,0,0-0.1,0c0,0,0,0-0.1,0c0,0,0,0-0.1,0c0,0,0,0-0.1,0
		c0,0,0,0-0.1,0s0,0-0.1,0c-0.2,0-0.5,0.2-0.8,0.4c-0.3,0.2-0.7,0.4-1,0.7c-0.3,0.3-0.7,0.6-1,1c-0.3,0.3-0.6,0.7-0.8,1.1
		c-0.2,0.3-0.3,0.5-0.4,0.8c-0.1,0.3-0.1,0.5-0.1,0.8c0,0,0,0.1,0,0.2c0,0.1,0,0.1,0,0.2c0.1,0.5,0.3,0.9,0.8,1.3
		c0.5,0.4,1.2,0.6,2.2,0.6c0.6,0,1.2-0.1,1.7-0.3s1-0.4,1.4-0.6c0.2-0.1,0.3-0.2,0.5-0.3c0.2-0.1,0.3-0.2,0.4-0.3
		c0.9-0.6,1.5-1,1.8-1.3c0.3-0.3,0.5-0.4,0.7-0.5c0,0,0,0,0.1,0c0,0,0,0,0.1,0c0,0,0,0,0.1,0c0,0,0,0,0.1,0c0,0,0.1,0.1,0.1,0.1
		c0,0,0.1,0.1,0.1,0.2c0,0.1-0.2,0.4-0.5,0.8c-0.3,0.4-1.2,1.3-2.7,2.6c-0.1,0.1-0.2,0.2-0.4,0.3c-0.1,0.1-0.3,0.2-0.4,0.3
		c-0.6,0.5-1.3,0.9-2,1.3c-0.7,0.4-1.5,0.6-2.2,0.6c-1,0-1.7-0.3-2.3-1c-0.6-0.6-1-1.3-1.3-2.1c-0.2-0.5-0.3-1-0.4-1.5
		c-0.1-0.5-0.1-0.8-0.1-1.1C53,19.2,53.1,18.6,53.4,18z"/>
	<path class="st0" d="M71,17.4c0.9-0.7,1.6-1.4,2.3-2c1.9-1.6,3.2-2.5,3.9-2.9c0.7-0.4,1.2-0.6,1.5-0.6c0.4,0,0.7,0.1,0.8,0.3
		s0.2,0.3,0.3,0.5c0,0.1,0,0.2,0,0.2c0,0.1,0,0.2,0,0.2c0,0,0,0,0,0.1s0,0,0,0.1c0,0.2,0,0.4-0.1,0.5c0,0.2-0.1,0.3-0.2,0.5
		c0,0.1-0.1,0.1-0.1,0.2c0,0.1-0.1,0.2-0.1,0.3c-0.7,1.2-1.2,2.1-1.7,2.5c-0.4,0.5-0.7,0.8-0.8,1.1c0,0,0,0,0,0.1c0,0,0,0,0,0.1
		c0,0.1,0,0.1,0.1,0.2c0,0.1,0.1,0.1,0.1,0.1c0,0,0,0,0.1,0c0,0,0,0,0.1,0c0.2,0,0.5-0.3,0.9-0.7c0.4-0.4,1.4-1.3,3-2.6
		c1-0.8,1.8-1.4,2.6-1.8c0.8-0.4,1.3-0.7,1.5-0.9c0,0,0,0,0.1,0c0,0,0,0,0.1-0.1c0.1,0,0.2-0.1,0.3-0.1s0.2-0.1,0.4-0.1
		c0.2,0,0.4,0.1,0.5,0.3c0.2,0.2,0.3,0.5,0.4,0.8c0.1,0.2,0.1,0.4,0.2,0.6c0,0.2,0.1,0.3,0.1,0.4c0,0.1,0,0.3-0.1,0.4
		s-0.2,0.2-0.3,0.4c0,0,0,0-0.1,0c0,0,0,0-0.1,0.1c-1.2,1.1-2.1,2.1-2.5,2.9c-0.4,0.8-0.7,1.4-0.7,1.9c0,0.4,0.1,0.6,0.3,0.8
		c0.2,0.2,0.5,0.3,0.8,0.3c0.2,0,0.6-0.1,1.1-0.3c0.5-0.2,1.2-0.7,2.1-1.5c0,0,0,0,0.1-0.1c0,0,0,0,0.1,0c0.1-0.1,0.2-0.1,0.2-0.2
		c0.1,0,0.2-0.1,0.3-0.1c0,0,0.1,0,0.1,0c0,0,0.1,0.1,0.1,0.1c0,0,0,0.1,0,0.2c0,0.1,0,0.1,0,0.2c-0.1,0.3-0.3,0.6-0.7,1.1
		c-0.4,0.4-0.9,0.9-1.4,1.3c-0.2,0.2-0.5,0.4-0.8,0.6c-0.3,0.2-0.5,0.4-0.8,0.6c-0.7,0.5-1.4,0.9-2,1.2c-0.6,0.3-1.1,0.5-1.4,0.5
		c-0.1,0-0.1,0-0.2,0c-0.1,0-0.1,0-0.2,0c-0.3-0.1-0.6-0.2-0.9-0.5c-0.3-0.2-0.4-0.5-0.4-1c0-0.3,0-0.7,0.1-1.2
		c0.1-0.5,0.3-1.2,0.8-2c0.2-0.3,0.3-0.6,0.4-0.8c0.1-0.2,0.2-0.4,0.3-0.6l0-0.1c0,0,0,0,0.1-0.1c0,0,0,0,0-0.1
		c0.2-0.3,0.3-0.5,0.4-0.7C82,18,82,17.9,82,17.8c0-0.1,0-0.1-0.1-0.1c0,0-0.1,0-0.2-0.1c0,0,0,0-0.1,0c-0.1,0-0.4,0.1-0.7,0.4
		c-0.4,0.3-0.7,0.5-1.2,0.9c0,0-0.1,0.1-0.1,0.1c0,0-0.1,0.1-0.1,0.1c-0.4,0.3-0.7,0.6-1,0.9c-0.3,0.3-0.5,0.4-0.6,0.5
		c-1.2,1.1-2.1,2-2.8,2.7c-0.7,0.7-1.3,1-1.9,1c0,0-0.1,0-0.1,0c0,0-0.1,0-0.2-0.1c-0.1-0.1-0.2-0.2-0.4-0.4
		c-0.1-0.2-0.2-0.4-0.2-0.7c0-0.1,0-0.3,0.1-0.5s0.1-0.3,0.1-0.5c0-0.1,0.1-0.2,0.2-0.4c0.1-0.1,0.1-0.2,0.2-0.3
		c0.1-0.2,0.2-0.4,0.3-0.5c0.1-0.2,0.1-0.3,0.2-0.3c0.5-0.8,0.9-1.4,1.2-1.8c0.3-0.4,0.4-0.7,0.4-0.9c0,0,0-0.1,0-0.1
		c0,0,0-0.1-0.1-0.1c0-0.1-0.1-0.1-0.2-0.2c-0.1-0.1-0.3-0.1-0.5-0.1c-0.6,0-1.2,0.3-1.9,0.8c-0.7,0.6-1.5,1.3-2.4,2.3
		c-0.1,0.1-0.1,0.1-0.2,0.2c0,0.1-0.1,0.1-0.2,0.2c-0.7,0.8-1.2,1.5-1.6,2.2c-0.4,0.7-0.8,1.1-1.1,1.3c0,0-0.1,0-0.2,0.1
		c-0.1,0-0.1,0-0.2,0c-0.1,0-0.2,0-0.3,0c-0.1,0-0.2-0.1-0.3-0.2c-0.2-0.2-0.4-0.5-0.6-1c-0.2-0.5-0.3-1.2-0.3-2.2
		c0-0.7,0-1.2,0.1-1.7s0.2-0.9,0.4-1.3c0.2-0.3,0.4-0.6,0.6-1c0.3-0.4,0.6-0.8,1-1.3c0.2-0.3,0.4-0.5,0.6-0.8
		c0.2-0.2,0.4-0.5,0.6-0.6c0.4-0.4,0.8-0.8,1.2-1c0.4-0.2,0.9-0.4,1.5-0.4c0.2,0,0.4,0,0.5,0.1c0.1,0.1,0.2,0.2,0.3,0.4
		c0,0,0,0.1,0,0.1c0,0,0,0.1,0,0.1c0,0,0,0.1,0,0.2c0,0.1,0,0.1-0.1,0.2c0,0.1-0.1,0.2-0.1,0.2c-0.1,0.1-0.1,0.2-0.2,0.2
		c0,0.1-0.1,0.1-0.1,0.2c0,0-0.1,0.1-0.1,0.1c-0.1,0.1-0.3,0.3-0.7,0.7c-0.3,0.4-0.7,0.8-1.1,1.2c0,0.1-0.1,0.1-0.1,0.2
		c0,0.1-0.1,0.1-0.2,0.2c-0.4,0.5-0.7,0.9-1,1.3c-0.3,0.4-0.5,0.7-0.5,0.9c0,0,0,0.1,0,0.2c0,0.1,0,0.2,0.1,0.3c0,0,0,0.1,0.1,0.1
		c0,0,0,0.1,0,0.1c0,0.1,0,0.2,0.1,0.2c0,0.1,0,0.1,0.1,0.1C69.1,19,70.1,18.1,71,17.4z M75,10.8c0-0.2-0.1-0.5-0.1-0.9
		c0-0.8,0.6-1.6,1.7-2.3c1.2-0.7,2.4-1.3,3.8-1.7c1-0.3,2-0.6,2.9-0.8c0.9-0.2,1.6-0.3,2.1-0.3c0.6,0,1.1,0.1,1.4,0.3
		c0.3,0.2,0.5,0.4,0.6,0.6c0,0.1,0.1,0.1,0.1,0.2c0,0.1,0,0.1,0,0.2c0,0,0,0.1,0,0.1c0,0,0,0.1-0.1,0.1l-1,1.7c0,0-0.1,0-0.1-0.1
		c0,0-0.1,0-0.1,0c-0.4-0.2-0.8-0.3-1.3-0.3c-0.4,0-0.9-0.1-1.5-0.1c-0.5,0-1.1,0.1-1.7,0.2c-0.7,0.1-1.3,0.3-2,0.6
		c-0.9,0.3-1.7,0.8-2.5,1.2c-0.8,0.5-1.4,1.1-1.9,1.7C75.1,11.2,75,11,75,10.8z"/>
	<path class="st0" d="M91.8,19.3c0,0.1,0,0.1,0,0.2c0,0.1,0,0.3,0,0.4c0,0.2,0,0.3,0.1,0.5c0.1,0.4,0.3,0.8,0.6,1.1
		c0.3,0.3,0.8,0.5,1.4,0.5c0.2,0,0.4,0,0.6-0.1c0.2-0.1,0.5-0.1,0.7-0.2c0.2-0.1,0.4-0.1,0.6-0.2c0.2-0.1,0.4-0.2,0.5-0.2
		c0.3-0.1,0.5-0.3,0.7-0.4c0.2-0.1,0.4-0.2,0.5-0.3c0.9-0.6,1.4-0.9,1.7-1.2c0.2-0.2,0.4-0.3,0.5-0.4c0,0,0,0,0.1,0c0,0,0,0,0.1,0
		c0.1,0,0.1,0,0.2,0.1c0,0.1,0.1,0.2,0.1,0.4c0,0.1-0.1,0.2-0.2,0.4c-0.1,0.2-0.5,0.6-1,1.1c-0.2,0.2-0.5,0.5-0.8,0.8
		c-0.4,0.3-0.8,0.7-1.2,1.1c-0.5,0.4-0.9,0.7-1.5,1.1c-0.5,0.3-1.1,0.6-1.6,0.8c-0.3,0.1-0.5,0.2-0.8,0.3c-0.3,0.1-0.6,0.1-0.8,0.1
		c-0.9,0-1.7-0.3-2.4-1c-0.7-0.7-1.1-1.7-1.1-3.1c0-0.5,0.1-1.1,0.2-1.7c0.1-0.6,0.3-1.2,0.6-1.8c0.7-1.5,1.7-2.9,3-4.3
		c1.3-1.3,2.7-2.2,4.1-2.6c0.2,0,0.4-0.1,0.7-0.1c0.2,0,0.5-0.1,0.7-0.1c0.6,0,1.1,0.1,1.4,0.3s0.5,0.5,0.6,0.8
		c0,0.1,0.1,0.2,0.1,0.3c0,0.1,0,0.2,0,0.3c0,0.4-0.1,0.8-0.3,1.2c-0.2,0.4-0.5,0.9-0.9,1.3c-0.6,0.8-1.4,1.5-2.4,2.3
		c-1,0.7-2,1.3-3.1,1.6c-0.2,0.1-0.5,0.2-0.7,0.2c-0.3,0.1-0.5,0.1-0.7,0.2C91.8,19.2,91.8,19.3,91.8,19.3z M92.8,17.5
		c0.3-0.2,0.7-0.3,1-0.5c0.4-0.3,0.9-0.6,1.3-0.9c0.4-0.3,0.8-0.6,1.1-1c0.3-0.3,0.5-0.6,0.6-0.9s0.3-0.6,0.3-0.8
		c0-0.3,0-0.5-0.1-0.7c-0.1-0.2-0.3-0.3-0.6-0.3c-0.2,0-0.3,0-0.5,0.1c-0.2,0.1-0.3,0.1-0.5,0.2c-0.5,0.3-1,0.7-1.5,1.3
		c-0.5,0.6-0.9,1.2-1.2,1.9c-0.2,0.3-0.3,0.6-0.5,0.9c-0.1,0.3-0.2,0.6-0.3,0.9C92.1,17.7,92.4,17.6,92.8,17.5z"/>
	<path class="st0" d="M100.7,19.1c-0.2,0.2-0.4,0.4-0.5,0.4c-0.1,0-0.2,0.1-0.2,0.1c0,0,0,0-0.1,0c0,0-0.1,0-0.1-0.1
		c0,0-0.1,0-0.1-0.1c0,0,0-0.1,0-0.1c0,0,0-0.1,0-0.1c0-0.1,0.3-0.4,0.8-1c0.5-0.5,2-2,4.4-4.4c1.7-1.6,2.8-2.9,3.5-4
		c0.7-1,1.2-1.8,1.7-2.3c0.2-0.3,0.5-0.5,0.8-0.6c0.3-0.1,0.6-0.2,1-0.2c0.1,0,0.1,0,0.2,0c0.1,0,0.1,0,0.2,0.1
		c0.2,0,0.3,0.1,0.5,0.2c0.2,0.1,0.2,0.2,0.2,0.3c0,0,0,0,0,0.1c0,0,0,0-0.1,0.1c-1.8,2.4-3.1,4.1-3.8,5.2c-0.7,1.1-1.1,1.7-1.2,1.9
		c0,0-0.1,0.1-0.1,0.2s-0.1,0.1-0.1,0.2c-0.1,0.2-0.2,0.4-0.3,0.6c-0.1,0.2-0.3,0.5-0.6,0.9c0.2-0.2,0.6-0.5,1-0.9
		c0.4-0.3,0.8-0.7,1.3-1.1c0.2-0.2,0.4-0.3,0.6-0.5c0.2-0.2,0.4-0.3,0.6-0.5c0.6-0.5,1.3-0.8,1.9-1.1c0.6-0.3,1.1-0.5,1.5-0.5
		c0,0,0.1,0,0.1,0c0,0,0.1,0,0.1,0c0.4,0.1,0.7,0.3,1,0.5c0.3,0.3,0.5,0.8,0.5,1.4c0,0.3-0.1,0.7-0.2,1c-0.1,0.3-0.2,0.7-0.4,1.1
		c-0.4,0.7-0.8,1.3-1.4,2c-0.6,0.6-1.1,1.2-1.7,1.8c-0.4,0.4-0.8,0.7-1.2,1c-0.4,0.3-0.8,0.6-1.1,0.8c0.4,0.2,0.7,0.3,1.1,0.3
		c0.4,0.1,0.8,0.1,1.2,0.1c0.7,0,1.3-0.1,1.8-0.4c0.6-0.2,1-0.5,1.4-0.8c0.3-0.2,0.5-0.4,0.7-0.6c0.2-0.2,0.3-0.3,0.4-0.4
		c0,0,0,0,0.1-0.1c0,0,0,0,0.1-0.1c0,0,0.1-0.1,0.1-0.1c0,0,0.1-0.1,0.2-0.1c0,0,0,0,0.1,0c0.1,0,0.1,0,0.2,0.1c0,0,0.1,0.1,0.1,0.1
		c0,0.1-0.1,0.2-0.2,0.5c-0.1,0.3-0.6,0.8-1.3,1.5c-0.6,0.6-1.3,1.1-2,1.5c-0.7,0.4-1.5,0.8-2.3,1c-0.7,0.3-1.5,0.5-2.2,0.6
		c-0.7,0.1-1.4,0.2-2,0.2c-0.4,0-0.8-0.1-1.2-0.2c-0.4-0.1-0.9-0.3-1.3-0.4c-0.2-0.1-0.5-0.2-0.7-0.3c-0.2-0.1-0.4-0.2-0.6-0.4
		c-1.3,2.7-2.1,4.7-2.6,5.9c-0.5,1.2-0.9,2-1.2,2.4c-0.1,0.1-0.2,0.2-0.3,0.3c-0.1,0-0.3,0.1-0.4,0.1c-0.3,0-0.5-0.1-0.6-0.4
		c-0.1-0.3-0.2-0.6-0.3-1c0,0,0-0.1,0-0.1s0-0.1,0-0.1c0-0.1,0.1-0.4,0.2-0.8c0.1-0.5,0.2-1,0.3-1.5c0,0,0-0.1,0-0.1
		c0,0,0-0.1,0-0.1c0.1-0.5,0.2-0.9,0.3-1.3c0.1-0.4,0.2-0.7,0.2-0.8c0.4-0.7,0.9-1.5,1.4-2.2s1.2-1.4,1.9-2l4.2-7.8L100.7,19.1z
		 M105.3,20.7c0.3,0,0.5-0.1,0.8-0.1c0.3,0,0.5,0,0.7,0.1c0.2,0.1,0.4,0.1,0.6,0.2c0.1,0,0.2,0.1,0.3,0.1c0.1,0,0.1,0.1,0.2,0.1
		c0.4-0.3,0.8-0.6,1.1-0.9c0.3-0.3,0.7-0.7,1-1c0.5-0.5,0.9-1,1.2-1.5c0.3-0.5,0.5-0.9,0.6-1.2c0,0,0-0.1,0-0.2c0-0.1,0-0.1,0-0.2
		c0,0,0-0.1,0-0.1c0,0,0-0.1,0-0.1c0-0.1-0.2-0.3-0.3-0.4c-0.2-0.1-0.4-0.2-0.6-0.2c-0.5,0-1,0.2-1.7,0.7c-0.7,0.5-1.3,1.1-2.1,1.8
		c-0.3,0.3-0.7,0.7-1,1.1c-0.3,0.4-0.6,0.7-1,1.1c-0.1,0.1-0.2,0.3-0.4,0.4s-0.2,0.3-0.3,0.4C104.8,20.8,105.1,20.7,105.3,20.7z"/>
	<path class="st0" d="M122,18.7c-0.2,0-0.4-0.1-0.5-0.2c-0.1-0.1-0.1-0.3,0-0.5l0.9-1.5c0-0.1,0.1-0.1,0.2-0.2
		c0.1,0,0.2-0.1,0.3-0.1c0,0,0.1,0,0.2,0s0.1,0,0.2,0c0,0,0,0,0.1,0h9.2c0.2,0,0.3,0,0.4,0.1c0.1,0.1,0.1,0.2,0.1,0.3
		c0,0,0,0.1,0,0.1c0,0,0,0.1-0.1,0.1l-1,1.5c-0.1,0.1-0.2,0.2-0.3,0.2s-0.3,0.1-0.5,0.1H122z"/>
	<path class="st0" d="M139.3,23.9c0,0-0.1,0.1-0.1,0.1l0,0c0,0,0,0-0.1,0.1c0,0,0,0-0.1,0c0,0-0.1,0-0.2-0.1
		c-0.1-0.1-0.1-0.1-0.2-0.3c-0.1-0.3-0.2-0.7-0.3-1.2c-0.1-0.5-0.2-1.3-0.2-2.2c0-0.1,0-0.2,0-0.3s0-0.2,0-0.3c0-0.1,0-0.2,0-0.3
		c0-0.1,0-0.2,0.1-0.3c0.1-0.5,0.2-1.1,0.5-1.7c0.3-0.6,0.6-1.3,1-2c0.2-0.4,0.4-0.8,0.7-1.2c0.2-0.4,0.5-0.8,0.7-1.2
		c0.6-0.8,1.1-1.5,1.6-2c0.5-0.5,0.9-0.8,1.1-0.8c0.2,0,0.4,0.2,0.5,0.6c0.2,0.4,0.3,0.8,0.3,1.3c0,0.1,0,0.2,0,0.3
		c0,0.1,0,0.2,0,0.3c0,0.2,0,0.3,0,0.4c0,0.1-0.1,0.2-0.1,0.3c-0.1,0.1-0.2,0.3-0.3,0.5c-0.1,0.2-0.3,0.4-0.6,0.6
		c-0.2,0.1-0.3,0.3-0.5,0.5c-0.2,0.2-0.4,0.4-0.5,0.6c-0.3,0.4-0.7,0.8-1,1.2c-0.3,0.4-0.5,0.9-0.7,1.3c-0.1,0.3-0.2,0.5-0.3,0.8
		c-0.1,0.2-0.1,0.5-0.1,0.7c0,0.1,0,0.2,0,0.3c0,0.1,0,0.2,0.1,0.2c0.5-0.7,1.1-1.3,1.6-1.9c0.6-0.6,1.1-1.2,1.7-1.8
		c1.7-1.6,3.2-2.9,4.7-3.9c1.5-0.9,2.5-1.4,3.2-1.4c0.1,0,0.2,0,0.2,0s0.2,0.1,0.2,0.1c0.2,0.1,0.4,0.3,0.5,0.6
		c0.2,0.3,0.2,0.6,0.2,1.1c0,0.3,0,0.6,0,0.9c0,0.3-0.1,0.7-0.1,1c-0.1,0.5-0.3,1-0.5,1.4c-0.2,0.5-0.5,0.9-1,1.2c0,0,0,0-0.1,0
		c0,0,0,0-0.1,0c-0.1,0-0.2,0-0.4,0c-0.1,0-0.2,0-0.4-0.1c-0.4-0.1-0.7-0.2-1-0.4c-0.3-0.2-0.4-0.4-0.4-0.6c0-0.1,0-0.1,0.1-0.2
		c0-0.1,0.1-0.1,0.2-0.2c0,0,0,0,0.1-0.1c0,0,0,0,0.1-0.1c0.1,0,0.2-0.1,0.3-0.2c0.1-0.1,0.2-0.3,0.2-0.5c0,0,0-0.1,0-0.1
		s0-0.1,0-0.1c0,0,0,0,0-0.1c0,0,0,0,0-0.1c0-0.1-0.1-0.2-0.2-0.2c-0.1-0.1-0.2-0.1-0.4-0.1c-0.3,0-0.7,0.1-1.1,0.4
		c-0.4,0.2-0.8,0.5-1.3,0.9c-0.2,0.2-0.4,0.3-0.6,0.5c-0.2,0.2-0.4,0.3-0.6,0.5c-0.3,0.3-0.6,0.7-0.9,1c-0.3,0.3-0.5,0.6-0.7,0.8
		c0.6,0.2,1.1,0.5,1.5,0.9c0.4,0.4,0.8,0.8,1.1,1.2c0.2,0.2,0.3,0.4,0.5,0.6c0.2,0.2,0.3,0.4,0.5,0.5c0.2,0.2,0.3,0.3,0.5,0.4
		c0.2,0.1,0.3,0.1,0.5,0.1c0.2,0,0.5-0.1,0.8-0.2c0.3-0.2,0.7-0.4,1-0.6c0.1,0,0.2-0.1,0.3-0.2c0.1-0.1,0.2-0.1,0.3-0.2
		c0.3-0.2,0.5-0.3,0.8-0.5c0.2-0.2,0.4-0.3,0.6-0.4c0.3-0.3,0.6-0.4,0.7-0.5c0.1-0.1,0.2-0.1,0.3-0.1c0,0,0.1,0,0.1,0.1
		c0,0,0.1,0.1,0.1,0.2c0,0,0,0,0,0.1c0,0,0,0,0,0.1c0,0.1-0.1,0.4-0.4,0.7c-0.2,0.3-0.5,0.7-0.9,1c-0.1,0.1-0.1,0.1-0.2,0.2
		c0,0.1-0.1,0.1-0.2,0.2c-0.3,0.3-0.6,0.6-0.8,0.8s-0.5,0.4-0.6,0.6c-0.1,0.1-0.3,0.2-0.5,0.3c-0.2,0.2-0.5,0.3-0.8,0.5
		c-0.2,0.1-0.5,0.2-0.7,0.3c-0.2,0.1-0.5,0.2-0.7,0.3c-0.2,0.1-0.4,0.1-0.6,0.2c-0.2,0-0.4,0.1-0.6,0.1c-0.7,0-1.3-0.2-1.7-0.6
		c-0.4-0.4-0.8-0.8-1.1-1.3c-0.1-0.1-0.2-0.3-0.3-0.5c-0.1-0.2-0.1-0.3-0.2-0.5c-0.1-0.2-0.2-0.4-0.3-0.6c-0.1-0.2-0.2-0.3-0.3-0.5
		c-0.1-0.2-0.3-0.3-0.4-0.5s-0.3-0.2-0.6-0.3L139.3,23.9z"/>
	<path class="st0" d="M163.9,16.8c-0.6,0.3-1.4,0.7-2.3,1.4s-2.2,2-4,3.9c0,0-0.1,0.1-0.1,0.1s-0.1,0.1-0.1,0.1
		c-0.4,0.5-0.8,0.9-1.2,1.2s-0.7,0.5-1,0.5c0,0,0,0-0.1,0c0,0,0,0-0.1,0c-0.3,0-0.6-0.3-0.8-0.7c-0.3-0.4-0.4-0.9-0.4-1.4
		c0-0.3,0-0.6,0.1-0.9c0.1-0.3,0.2-0.7,0.3-1c0.2-0.5,0.4-0.9,0.6-1.4c0.3-0.4,0.5-0.8,0.8-1.1c0.1-0.2,0.3-0.3,0.4-0.4
		c0.1-0.1,0.3-0.1,0.4-0.1c0.1,0,0.2,0,0.3,0.1c0.1,0,0.1,0.1,0.1,0.1c0,0,0,0.1-0.1,0.2c0,0.1-0.1,0.2-0.1,0.3
		c-0.2,0.4-0.3,0.7-0.3,1.1c0,0.3-0.1,0.6-0.1,0.9c0,0.1,0,0.1,0,0.2s0,0.1,0,0.2c0,0,0,0.1,0,0.1c0,0,0,0.1,0,0.1c0,0,0,0.1,0,0.1
		c0,0,0,0.1,0,0.1c0,0.1,0.1,0.3,0.1,0.4s0.1,0.2,0.2,0.2c0.3,0,0.8-0.6,1.7-1.7c0.9-1.1,2.1-2.4,3.6-3.7c0.2-0.2,0.5-0.4,0.8-0.7
		c0.3-0.3,0.7-0.6,1.1-0.9c0.1-0.1,0.2-0.1,0.3-0.2c0.1-0.1,0.2-0.2,0.3-0.2c0.6-0.4,1.1-0.8,1.6-1.1s0.9-0.5,1.1-0.5
		c0.2,0,0.3,0.1,0.5,0.3c0.1,0.2,0.3,0.5,0.3,0.7c0.1,0.2,0.1,0.3,0.1,0.5c0,0.2,0,0.3,0,0.4c0,0.1-0.1,0.3-0.2,0.5
		c-0.1,0.2-0.3,0.4-0.4,0.6c0,0-0.1,0.1-0.1,0.1c0,0-0.1,0.1-0.1,0.1c-0.2,0.2-0.3,0.3-0.5,0.5c-0.1,0.2-0.3,0.3-0.3,0.4
		c-0.1,0.1-0.2,0.3-0.3,0.4c-0.1,0.1-0.2,0.3-0.3,0.4c-0.1,0.2-0.3,0.4-0.4,0.6c-0.1,0.2-0.3,0.4-0.4,0.6c-0.1,0.3-0.3,0.5-0.4,0.8
		c-0.1,0.3-0.1,0.5-0.1,0.8c0,0,0,0.1,0,0.1s0,0.1,0,0.1c0,0.2,0.1,0.3,0.3,0.5c0.2,0.1,0.4,0.2,0.8,0.2c0.2,0,0.4,0,0.6-0.1
		c0.2-0.1,0.4-0.2,0.7-0.4c0.2-0.1,0.3-0.2,0.5-0.3c0.2-0.1,0.3-0.3,0.5-0.4c0.1-0.1,0.3-0.2,0.4-0.4c0.1-0.1,0.2-0.2,0.3-0.3
		c0.1-0.1,0.2-0.2,0.3-0.3c0.1-0.1,0.2-0.1,0.3-0.1c0.1,0,0.1,0,0.2,0.1c0.1,0.1,0.1,0.2,0.1,0.3c0,0.2-0.1,0.4-0.4,0.7
		c-0.3,0.3-0.7,0.8-1.2,1.4c-0.1,0.2-0.4,0.4-0.7,0.7c-0.3,0.3-0.7,0.6-1.1,1c-0.2,0.1-0.3,0.3-0.5,0.4c-0.2,0.1-0.3,0.3-0.5,0.4
		c-0.4,0.3-0.8,0.5-1.2,0.7c-0.4,0.2-0.7,0.3-1,0.3c0,0,0,0-0.1,0c0,0,0,0-0.1,0c-0.5,0-0.9-0.3-1.2-0.7c-0.4-0.4-0.6-1.1-0.6-2.1
		c0-0.5,0.1-1,0.3-1.4c0.2-0.4,0.4-0.8,0.6-1.1c0.1-0.1,0.1-0.2,0.2-0.3c0.1-0.1,0.1-0.2,0.2-0.3c0.1-0.1,0.1-0.2,0.2-0.3
		c0.1-0.1,0.1-0.2,0.2-0.3c0,0,0-0.1,0.1-0.1c0.1-0.2,0.3-0.4,0.4-0.6C163.5,17.4,163.7,17.1,163.9,16.8
		C164,16.8,163.9,16.8,163.9,16.8z"/>
	<path class="st0" d="M183.3,13.2c0.1,0.2,0.2,0.5,0.3,0.7c0,0.1,0,0.2,0.1,0.2c0,0.1,0,0.2,0,0.2c0,0.1-0.1,0.4-0.3,0.7
		c-0.2,0.3-0.5,0.9-1,1.7c-0.4,0.6-0.7,1.1-1,1.6c-0.3,0.5-0.4,0.9-0.5,1.3c0,0,0,0.1,0,0.1c0,0,0,0.1,0,0.1c0,0.4,0.1,0.7,0.3,0.9
		c0.2,0.2,0.4,0.3,0.6,0.4c0.1,0,0.1,0,0.2,0.1c0.1,0,0.1,0,0.2,0c0.3,0,0.6-0.1,0.9-0.2c0.3-0.1,0.6-0.3,0.9-0.5
		c0,0,0.1-0.1,0.2-0.1c0.1,0,0.1-0.1,0.2-0.1c0.1,0,0.2-0.1,0.3-0.2c0.1-0.1,0.2-0.1,0.3-0.2c0.4-0.2,0.6-0.4,0.8-0.5
		c0.2-0.1,0.3-0.2,0.4-0.3c0,0,0,0,0.1,0c0,0,0,0,0.1,0c0,0,0.1,0,0.1,0.1c0,0,0.1,0.1,0.1,0.1c0,0.1-0.2,0.4-0.5,0.7
		c-0.3,0.3-0.9,0.9-1.7,1.7c-0.1,0.1-0.3,0.3-0.5,0.5c-0.2,0.2-0.4,0.4-0.6,0.5c-0.4,0.4-0.8,0.7-1.3,1s-0.9,0.5-1.4,0.7
		c-0.1,0-0.2,0.1-0.4,0.1c-0.1,0-0.2,0-0.4,0c0,0-0.1,0-0.2,0c-0.1,0-0.1,0-0.2,0c-0.4,0-0.8-0.2-1.1-0.5s-0.5-0.7-0.5-1.3
		c0-0.4,0-0.8,0.1-1.2s0.2-0.7,0.3-1c0.1-0.2,0.2-0.4,0.2-0.6s0.1-0.3,0.2-0.4c0,0,0-0.1,0.1-0.1c0,0,0-0.1,0-0.1c0,0,0,0,0.1-0.1
		c0,0,0,0,0-0.1c0.1-0.1,0.1-0.3,0.2-0.4c0.1-0.2,0.2-0.4,0.3-0.6c-2.3,2.4-4,4-5.1,4.7c-1.1,0.7-1.8,1.1-2.2,1.1
		c-0.5,0-0.8-0.3-1.2-0.8c-0.3-0.6-0.6-1.2-0.7-1.8c-0.1-0.3-0.1-0.6-0.2-0.9c0-0.3-0.1-0.6-0.1-0.8c0-0.9,0.3-1.8,0.8-2.6
		c0.6-0.8,1.2-1.6,1.8-2.2c0.5-0.4,0.9-0.8,1.3-1.1c0.4-0.3,0.8-0.6,1-0.7c0.2-0.2,0.5-0.4,0.9-0.6c0.3-0.2,0.7-0.4,1.1-0.6
		c0.3-0.2,0.6-0.3,1-0.5c0.3-0.2,0.7-0.3,1-0.5c0.7-0.3,1.3-0.6,1.9-0.8c0.6-0.2,1.2-0.3,1.6-0.3c0.4,0,0.8,0.1,1.1,0.3
		c0.3,0.2,0.5,0.4,0.6,0.7c0,0,0,0.1,0.1,0.1c0,0,0,0.1,0,0.1c0,0.1,0,0.3-0.1,0.4c-0.1,0.1-0.2,0.2-0.3,0.3c0,0-0.1,0.1-0.1,0.1
		c0,0-0.1,0.1-0.1,0.1c0,0,0,0-0.1,0.1c0,0,0,0-0.1,0l0,0c0,0-0.1,0.1-0.1,0.1c0,0-0.1,0.1-0.1,0.2C183,12.7,183.2,13,183.3,13.2z
		 M171.7,20.2c0,0,0,0.1,0,0.1c0,0.2,0.1,0.3,0.2,0.5c0.1,0.2,0.2,0.3,0.3,0.3c0,0,0.1,0,0.1,0c0,0,0.1,0,0.1,0c0,0,0.1,0,0.1,0
		s0.1,0,0.1,0c0.3-0.1,0.7-0.3,1.4-0.6c0.6-0.3,1.5-0.9,2.5-1.8c0.1-0.1,0.4-0.3,0.7-0.6c0.3-0.3,0.7-0.6,1-1
		c0.1-0.1,0.2-0.2,0.3-0.3c0.1-0.1,0.2-0.2,0.3-0.3c0.3-0.4,0.6-0.8,0.9-1.1c0.3-0.4,0.4-0.6,0.4-0.9c0-0.1,0-0.2-0.1-0.3
		c-0.1-0.1-0.2-0.1-0.3-0.1c-0.1,0-0.1,0-0.2,0s-0.1,0-0.1,0c-0.3,0-0.6,0-1,0.1c-0.3,0.1-0.7,0.2-1,0.3c-1.1,0.3-2.1,0.9-3,1.6
		c-1,0.7-1.7,1.5-2.2,2.3c-0.2,0.3-0.3,0.6-0.4,0.9c-0.1,0.3-0.1,0.6-0.1,0.9C171.7,20.1,171.7,20.1,171.7,20.2z"/>
	<path class="st0" d="M186.7,18c0.2-0.6,0.6-1.2,1-1.8c0.7-1.1,1.7-2.2,2.9-3.2c1.2-1,2.4-1.7,3.7-2.1c0.3-0.1,0.6-0.2,1-0.2
		c0.3-0.1,0.7-0.1,1-0.1c0.1,0,0.1,0,0.2,0c0.1,0,0.2,0,0.2,0c0.2,0,0.5,0.2,0.7,0.3c0.2,0.2,0.3,0.4,0.3,0.7c0,0.3-0.1,0.6-0.3,1
		c-0.2,0.4-0.4,0.8-0.6,1.2c-0.1,0.2-0.3,0.5-0.5,0.7c-0.2,0.2-0.3,0.5-0.5,0.7c-0.3,0.4-0.7,0.8-1,1c-0.3,0.3-0.5,0.4-0.7,0.4
		c-0.1,0-0.2,0-0.2-0.1c-0.1-0.1-0.1-0.2-0.2-0.3c0,0,0-0.1-0.1-0.1c0,0,0-0.1-0.1-0.1c0,0,0-0.1,0-0.1c0-0.1,0-0.1-0.1-0.2
		c0-0.1-0.1-0.1-0.2-0.2c-0.1-0.1-0.1-0.1-0.2-0.1c0,0-0.1,0-0.1,0c0,0,0,0-0.1,0c0,0,0,0-0.1,0c0,0,0,0-0.1,0c0,0,0,0-0.1,0
		c0,0,0,0-0.1,0s0,0-0.1,0c-0.2,0-0.5,0.2-0.8,0.4c-0.3,0.2-0.7,0.4-1,0.7c-0.3,0.3-0.7,0.6-1,1c-0.3,0.3-0.6,0.7-0.8,1.1
		c-0.2,0.3-0.3,0.5-0.4,0.8c-0.1,0.3-0.1,0.5-0.1,0.8c0,0,0,0.1,0,0.2c0,0.1,0,0.1,0,0.2c0.1,0.5,0.3,0.9,0.8,1.3
		c0.5,0.4,1.2,0.6,2.2,0.6c0.6,0,1.2-0.1,1.7-0.3s1-0.4,1.4-0.6c0.2-0.1,0.3-0.2,0.5-0.3c0.2-0.1,0.3-0.2,0.4-0.3
		c0.9-0.6,1.5-1,1.8-1.3c0.3-0.3,0.5-0.4,0.7-0.5c0,0,0,0,0.1,0c0,0,0,0,0.1,0c0,0,0,0,0.1,0c0,0,0,0,0.1,0c0,0,0.1,0.1,0.1,0.1
		c0,0,0.1,0.1,0.1,0.2c0,0.1-0.2,0.4-0.5,0.8c-0.3,0.4-1.2,1.3-2.7,2.6c-0.1,0.1-0.2,0.2-0.4,0.3c-0.1,0.1-0.3,0.2-0.4,0.3
		c-0.6,0.5-1.3,0.9-2,1.3c-0.7,0.4-1.5,0.6-2.2,0.6c-1,0-1.7-0.3-2.3-1c-0.6-0.6-1-1.3-1.3-2.1c-0.2-0.5-0.3-1-0.4-1.5
		c-0.1-0.5-0.1-0.8-0.1-1.1C186.3,19.2,186.4,18.6,186.7,18z"/>
	<path class="st0" d="M198.9,18c0.2-0.6,0.6-1.2,1-1.8c0.7-1.1,1.7-2.2,2.9-3.2c1.2-1,2.4-1.7,3.7-2.1c0.3-0.1,0.6-0.2,1-0.2
		c0.3-0.1,0.7-0.1,1-0.1c0.1,0,0.1,0,0.2,0c0.1,0,0.2,0,0.2,0c0.2,0,0.5,0.2,0.7,0.3c0.2,0.2,0.3,0.4,0.3,0.7c0,0.3-0.1,0.6-0.3,1
		c-0.2,0.4-0.4,0.8-0.6,1.2c-0.1,0.2-0.3,0.5-0.5,0.7c-0.2,0.2-0.3,0.5-0.5,0.7c-0.3,0.4-0.7,0.8-1,1c-0.3,0.3-0.5,0.4-0.7,0.4
		c-0.1,0-0.2,0-0.2-0.1c-0.1-0.1-0.1-0.2-0.2-0.3c0,0,0-0.1-0.1-0.1c0,0,0-0.1-0.1-0.1c0,0,0-0.1,0-0.1c0-0.1,0-0.1-0.1-0.2
		c0-0.1-0.1-0.1-0.2-0.2c-0.1-0.1-0.1-0.1-0.2-0.1c0,0-0.1,0-0.1,0c0,0,0,0-0.1,0c0,0,0,0-0.1,0c0,0,0,0-0.1,0c0,0,0,0-0.1,0
		c0,0,0,0-0.1,0s0,0-0.1,0c-0.2,0-0.5,0.2-0.8,0.4c-0.3,0.2-0.7,0.4-1,0.7c-0.3,0.3-0.7,0.6-1,1c-0.3,0.3-0.6,0.7-0.8,1.1
		c-0.2,0.3-0.3,0.5-0.4,0.8c-0.1,0.3-0.1,0.5-0.1,0.8c0,0,0,0.1,0,0.2c0,0.1,0,0.1,0,0.2c0.1,0.5,0.3,0.9,0.8,1.3
		c0.5,0.4,1.2,0.6,2.2,0.6c0.6,0,1.2-0.1,1.7-0.3s1-0.4,1.4-0.6c0.2-0.1,0.3-0.2,0.5-0.3c0.2-0.1,0.3-0.2,0.4-0.3
		c0.9-0.6,1.5-1,1.8-1.3c0.3-0.3,0.5-0.4,0.7-0.5c0,0,0,0,0.1,0c0,0,0,0,0.1,0c0,0,0,0,0.1,0c0,0,0,0,0.1,0c0,0,0.1,0.1,0.1,0.1
		c0,0,0.1,0.1,0.1,0.2c0,0.1-0.2,0.4-0.5,0.8c-0.3,0.4-1.2,1.3-2.7,2.6c-0.1,0.1-0.2,0.2-0.4,0.3c-0.1,0.1-0.3,0.2-0.4,0.3
		c-0.6,0.5-1.3,0.9-2,1.3c-0.7,0.4-1.5,0.6-2.2,0.6c-1,0-1.7-0.3-2.3-1c-0.6-0.6-1-1.3-1.3-2.1c-0.2-0.5-0.3-1-0.4-1.5
		c-0.1-0.5-0.1-0.8-0.1-1.1C198.5,19.2,198.6,18.6,198.9,18z"/>
	<path class="st0" d="M213.5,16.1c-0.1,0-0.2,0-0.3,0.1c-0.1,0-0.2,0-0.4,0.1s-0.2,0-0.4,0c-0.3,0-0.5,0.1-0.8,0.1
		c-0.2,0-0.4,0-0.6,0c0,0-0.1,0-0.1,0s-0.1,0-0.1,0c0,0-0.1-0.1-0.2-0.2c-0.1-0.1-0.1-0.2-0.1-0.4c0-0.1,0-0.2,0.1-0.2
		c0.1-0.1,0.2-0.1,0.3-0.2c0.2-0.1,0.5-0.2,1-0.3c0.4-0.1,0.9-0.4,1.5-0.8c0.1-0.1,0.3-0.2,0.7-0.5c0.3-0.2,0.7-0.5,1-0.7
		c0,0,0,0,0,0c0,0,0,0,0,0c0.4-0.3,0.7-0.5,1-0.7c0.3-0.2,0.5-0.4,0.7-0.5c0,0,0,0,0.1-0.1c0,0,0,0,0.1-0.1c0.6-0.5,1.1-0.9,1.4-1.2
		s0.7-0.6,0.9-0.6c0.1,0,0.2,0,0.3,0s0.2,0.1,0.3,0.1c0.2,0.1,0.4,0.3,0.6,0.7c0.2,0.3,0.4,0.8,0.5,1.3c-1.1,0.7-1.9,1.2-2.4,1.6
		c-0.6,0.4-1,0.7-1.3,1.1c-0.1,0.1-0.2,0.2-0.3,0.3c-0.1,0.1-0.2,0.2-0.3,0.4c-0.1,0.1-0.2,0.3-0.3,0.4c-0.1,0.2-0.2,0.3-0.3,0.5
		c-0.1,0.1-0.2,0.2-0.3,0.4c-0.1,0.1-0.2,0.3-0.3,0.4c-0.2,0.4-0.5,0.8-0.6,1.3c-0.2,0.5-0.3,1.1-0.3,1.7c0,0.5,0.1,0.9,0.2,1.2
		c0.1,0.3,0.2,0.4,0.4,0.5c0,0,0.1,0,0.1,0.1c0,0,0.1,0,0.1,0c0,0,0.1,0,0.1,0c0,0,0.1,0,0.2-0.1c0.1,0,0.1-0.1,0.2-0.1
		c0.1-0.1,0.1-0.1,0.2-0.2c0,0,0.1-0.1,0.1-0.1c0,0,0.1-0.1,0.1-0.1c0-1.4,0.2-2.4,0.7-3.2c0.5-0.8,1-1.4,1.6-1.7
		c0.3-0.2,0.5-0.3,0.8-0.4c0.2-0.1,0.5-0.1,0.7-0.1c0,0,0.1,0,0.2,0c0.1,0,0.2,0.1,0.2,0.1c0.1,0.1,0.3,0.3,0.4,0.5
		c0.1,0.2,0.2,0.5,0.2,0.9c0,0.1,0,0.2,0,0.4c0,0.1,0,0.3-0.1,0.5c0.2-0.1,0.7-0.6,1.6-1.3c0.9-0.8,2.1-2.3,3.7-4.7
		c0,0,0-0.1,0.1-0.1c0,0,0.1-0.1,0.1-0.1c0.1-0.1,0.2-0.2,0.3-0.4c0.1-0.1,0.3-0.2,0.4-0.2c0,0,0,0,0.1,0c0,0,0.1,0,0.1,0
		c0.1,0.1,0.2,0.2,0.4,0.4c0.1,0.2,0.2,0.4,0.3,0.7c0,0.1,0.1,0.3,0.1,0.4c0,0.1,0,0.3,0,0.4c0,0.1,0,0.2,0,0.3
		c0,0.1-0.1,0.2-0.1,0.3c-0.1,0.2-0.2,0.4-0.5,0.6c-0.2,0.2-0.5,0.5-0.7,0.7c-0.1,0.2-0.3,0.4-0.5,0.6c-0.2,0.2-0.4,0.4-0.6,0.7
		c-0.4,0.5-0.7,1-1.1,1.6c-0.3,0.6-0.5,1.2-0.5,1.8c0,0.5,0.1,0.8,0.2,1.1s0.4,0.4,0.8,0.4c0.4,0,0.9-0.1,1.3-0.3
		c0.4-0.2,0.8-0.4,1.1-0.7c0.1-0.1,0.1-0.1,0.2-0.2c0.1-0.1,0.1-0.1,0.2-0.2c0.1-0.1,0.2-0.2,0.3-0.3c0.1-0.1,0.2-0.1,0.3-0.1
		c0,0,0,0,0.1,0c0,0,0,0,0.1,0c0.1,0,0.1,0.1,0.2,0.1c0.1,0,0.1,0.1,0.1,0.2c0,0.1-0.1,0.3-0.2,0.5c-0.1,0.2-0.3,0.4-0.4,0.6
		c-0.1,0.1-0.1,0.1-0.2,0.2c-0.1,0.1-0.1,0.2-0.2,0.2c-0.1,0.1-0.3,0.3-0.4,0.4c-0.1,0.1-0.2,0.2-0.3,0.3c-0.1,0.1-0.3,0.3-0.5,0.4
		c-0.2,0.2-0.3,0.3-0.5,0.5c-0.3,0.3-0.6,0.6-1,0.8c-0.3,0.3-0.7,0.5-1,0.7c-0.2,0.1-0.5,0.3-0.7,0.3c-0.2,0.1-0.5,0.1-0.7,0.1
		c-0.6,0-1-0.2-1.3-0.5c-0.3-0.3-0.5-0.8-0.5-1.4c0-0.2,0-0.3,0-0.5s0-0.3,0.1-0.5c0.1-0.5,0.2-1,0.3-1.4c0.1-0.5,0.3-0.9,0.5-1.2
		c-0.1,0.1-0.3,0.3-0.4,0.3c-0.1,0.1-0.2,0.1-0.4,0.2c0,0,0,0-0.1,0.1c0,0-0.1,0-0.1,0c0,0,0,0-0.1,0c-0.1,0-0.2,0.1-0.2,0.1
		c-0.1,0-0.1,0-0.2,0c0,0,0,0,0,0c0,0.1-0.1,0.1-0.1,0.2c0,0.1-0.1,0.1-0.1,0.2c-0.3,0.4-0.7,0.8-1.1,1.2c-0.4,0.4-0.8,0.8-1.2,1.1
		c-0.5,0.4-1,0.7-1.4,0.9c-0.5,0.2-0.8,0.4-1.2,0.4c-0.1,0-0.2,0-0.4-0.1c-0.1,0-0.3-0.1-0.4-0.3c-0.4-0.3-0.8-0.9-1.2-1.7
		s-0.6-1.7-0.6-2.6c0-0.4,0.1-0.9,0.2-1.4s0.4-1.2,0.8-2C213.7,16.1,213.6,16.1,213.5,16.1z"/>
</g>
</svg>
