<?xml version="1.0" encoding="utf-8"?>
<!-- Generator: Adobe Illustrator 21.0.2, SVG Export Plug-In . SVG Version: 6.00 Build 0)  -->
<svg version="1.1" id="Layer_1" xmlns="http://www.w3.org/2000/svg" xmlns:xlink="http://www.w3.org/1999/xlink" x="0px" y="0px"
	 viewBox="0 0 60 40" style="enable-background:new 0 0 60 40;" xml:space="preserve">
<style type="text/css">
	.st0{fill:#FFFFFF;}
</style>
<g>
	<g>
		<path class="st0" d="M57.6,17.7H2.4c-1.3,0-2.4,1-2.4,2.3s1.1,2.3,2.4,2.3h55.2c1.3,0,2.4-1,2.4-2.3C60,18.7,58.9,17.7,57.6,17.7z
			"/>
	</g>
</g>
<g>
	<g>
		<path class="st0" d="M57.6,0H2.4C1.1,0,0,1,0,2.3s1.1,2.3,2.4,2.3h55.2c1.3,0,2.4-1,2.4-2.3S58.9,0,57.6,0z"/>
	</g>
</g>
<g>
	<g>
		<path class="st0" d="M57.6,35.3H2.4c-1.3,0-2.4,1-2.4,2.3C0,39,1.1,40,2.4,40h55.2c1.3,0,2.4-1,2.4-2.3
			C60,36.4,58.9,35.3,57.6,35.3z"/>
	</g>
</g>
</svg>
