<?xml version="1.0" encoding="utf-8"?>
<!-- Generator: Adobe Illustrator 21.0.2, SVG Export Plug-In . SVG Version: 6.00 Build 0)  -->
<svg version="1.1" id="Isolation_Mode" xmlns="http://www.w3.org/2000/svg" xmlns:xlink="http://www.w3.org/1999/xlink" x="0px"
	 y="0px" viewBox="0 0 230 200" style="enable-background:new 0 0 230 200;" xml:space="preserve">
<style type="text/css">
	.st0{fill:#5B544A;}
</style>
<g>
	<g>
		<path class="st0" d="M77.8,148.6c-1.2-2.4-2.4-3-4.9-2.5c-1.2,0.3-2.2,0.9-3.4,1.4c-0.2,0.1-0.3,0.3-0.4,0.3
			c-2.7-0.6-4.2,1.6-6.2,2.7c-1.6,0.9-2.9,1-4.4-0.1c-1.4-1-3.1-1.9-4.7-2.5c-4-1.6-7.5,0.1-10.9,1.8c-1.8,0.9-3.5,1.8-5.2,2.9
			c-1.6,1-3.1,2.1-4.5,3.3c-1.7,1.3-3.3,2.7-5,4.1c-0.1-0.1-0.3-0.3-0.4-0.4c0.8-1,1.6-1.9,2.4-2.9c-1.6-0.9-2.5-0.8-4.9-1.1
			c-1.5-0.2-3.1-1.4-4.3-2.5c-1.5-1.3-2.8-3.1-4.2-4.6c-1.8-1.9-3.3-3.8-4-6.4c-0.2-0.9-0.6-2-1.7-1.4c-1.1-1.5-1.9-3-3.1-4.3
			c-2.4-2.4-3.8-5.3-4.7-8.5c-1.7-6.1-2.8-12.3-2.9-18.8c0-2.7-0.4-5.3-0.5-8c-0.2-8.2,2.5-15.3,7.2-21.7c1.9-2.5,3.6-5.2,5.3-7.9
			c2.3-3.5,5.6-5.8,9.1-7.9c1.5-0.9,3.3-1.4,4.8-2.4c5.8-3.9,12.4-5.4,19-6.6c3.4-0.6,6.9-0.3,10.3-0.4c0.7,0,1.4,0,2.4,0
			c-1.2-1.8-2-3.3-3.1-4.6c-3.3-4-4.3-8.8-4.4-13.8c0-0.7,0.3-1.3,0.5-2.2c0.8,0.3,1.3,0.5,1.7,0.8c1.3,0.9,2.7,1.1,4.3,1
			c6.6-0.2,12.9-1.7,19.2-3.2c2.3-0.5,4.5-1.2,6.7-1.7c3.3-0.8,6.4-0.4,9.3,1.4c0.6,0.4,1.2,0.7,1.9,1.2c0.3-0.7,0.6-1.2,0.8-1.8
			c2.1-7.1,5.8-13.4,10-19.3c2.7-3.9,5.4-7.7,8.2-11.6c0.1-0.1,0.3-0.2,0.6-0.3c0.4,0.7,0.9,1.4,1,2.2c0.5,3,2.3,5,4.7,6.4
			c4.3,2.6,8.2,5.8,11.8,9.2c3.8,3.5,7.7,7.4,9.4,13.3c3.3-2.9,5.7-7,10.9-7.7c3.9,1.4,8.5,2.7,13.3,3.1c0.4,0,0.7,0.1,1.1,0.1
			c5.4-0.6,10.3,1.4,15.2,3.3c4.2,1.6,8.3,3.3,12.4,5.1c1.4,0.6,2.6,1.6,3.8,2.5c2.9,2.3,5.7,4.7,8.6,7c3,2.4,4.9,5.4,6.6,8.9
			c3.7,8.1,6.6,16.5,9.6,24.8c1.2,3.4,0.6,6.7,0.4,10.1c-0.1,2.6-0.4,5.1-0.5,7.7c0,0.7,0.2,1.5,0.5,2c0.9,1.4,1.9,2.6,2.9,4
			c1.4,1.9,2.9,3.8,4.3,5.7c-1.5,2.6-1.7,5.5-1.5,8.5c0.2,1.8,0.3,3.7,0.7,5.5c1.1,5.1,0.3,9.9-2.1,14.4c-2,3.7-4,7.4-6,11
			c-1.2,2.2-2.6,4.4-3.7,6.7c-2.6,5.6-6.9,9.5-11.9,12.7c-6.6,4.3-13.4,8-20.7,10.7c-0.3,0.1-0.6,0.3-1,0.4
			c-3.8,1.4-6.6,3.7-7.5,8.1c-0.3,1.5-1,2.9-1.7,4.3c-0.4,0.9-1,1.9-1.8,2.2c-2.9,1.2-6,1.6-9.1,1c-3.3-0.7-6.5-1.5-9.7-2.3
			c-1.2-0.3-2.3-0.2-3.1,1c-2.2,3.3-5.5,4.6-9,5.3c-3.1,0.7-6.3,1.3-9.5,1.6c-2,0.2-4.1-0.1-6.1-0.5c-3.1-0.6-6.3-1.2-8.9-3.3
			c-0.4-0.3-1.2-0.4-1.8-0.3c-3.4,0.3-7,0.3-10.3,1c-3.5,0.7-6.8,2.1-10.1,3.3c-2.7,1-5.4,0.8-8.2,0.8c-0.7,0-1.5-0.6-2.1-1.1
			c-3.7-3.2-3.7-3.2-2.8-8.1c0.3-1.4,0.7-2.8,1.2-4.5c-2.6,0.3-5.2,0.6-7.7,0.8c-0.7,0.1-1.6,0.1-1.9-0.3c-1.3-1.7-3.1-1.9-5-1.9
			c-4.3,0-8.5,0.1-12.8,0.1c-5.1,0-10.1,0.3-15.1-1c-1.6-0.4-3.4-0.3-5-0.5c-4.5-0.7-8.9-1.7-12.3-5.3c-2.3-2.5-2.4-5.8-0.3-8.4
			c1.8-2.3,3.7-4.4,4.3-7.5c0.1-0.5,0.7-0.9,1.3-1.7c0.8,3-1,4.8-1.7,6.9c2.6-1.9,5.1-3.7,7.6-5.5c0.4-0.3,0.9-0.7,1.4-0.8
			c3.3-0.9,4.5-3.8,5.7-6.7c0.4-0.9,0.8-1.9,1.2-2.8c0.2,0.1,0.4,0.2,0.6,0.3c-0.4,1.7-0.8,3.4-1.3,5.5c2.8-1.3,4.5-3.5,6.8-5.1
			c-0.8,1.2-1.6,2.4-2.6,4c1.3-0.3,2.3-0.7,3.3-0.8c2.5-0.4,5.1-0.6,7.6-1.2c1.7-0.5,3.4,0.1,5-0.2c1.7-0.4,3.5-0.7,5.2-1.3
			c1.6-0.6,3.1-1.4,4.6-2.1c0.8-0.4,1.7-0.9,2.7-1c-1.3,1.1-2.6,2.2-3.9,3.3c-2.7,0.9-5.5,1.8-8.5,2.8c2.9,1.7,5.5,3.5,8.8,4
			c-1.1-0.9-2.2-1.7-3.3-2.6c1.4,0,2.6,0.5,3.7,1c1.3,0.5,2.5,1.4,3.9-0.3c-1.9-0.8-3.6-1.5-5.3-2.2c0.1-0.2,0.2-0.5,0.2-0.7
			c2.9,0.7,5.8,1.5,8.7,2.2c-2.1-1.3-4.4-2.1-6.6-3c-0.6-0.2-1.1-0.8-1.6-1.2c2.7,0.7,5.3,1.4,8,2c0.9,0.2,1.8,0.4,2.9,0.2
			c-1.2-0.8-2.4-1.7-3.6-2.5c0.1-0.1,0.1-0.3,0.2-0.4c1.8,0.6,3.6,1.2,5.4,1.7c0.6,0.4,1.2,0.6,1.6-0.4c-0.5,0.1-1.1,0.3-1.6,0.4
			c0.1-1.5-1.2-1.6-2.1-2.1C80.3,150.6,78.6,150.2,77.8,148.6c2.1,0.6,4.1,1.3,6.7,2.1C82.5,148.4,80.5,147.9,77.8,148.6z
			 M81.5,126.4c0,1.2-0.1,2.4,1.4,3.2C83,128.1,82.7,127.1,81.5,126.4c0.6-1.6-0.6-2.5-1.2-3.6C80,124.3,79.8,125.8,81.5,126.4z
			 M193.8,117.4c0.9-0.3,1.8-0.6,2.8-0.9c-0.2-0.8-0.4-1.6-0.6-2.4C193.9,114.3,194.4,116.2,193.8,117.4c-0.5-0.4-1-0.8-1.5-1.1
			c-1,0.5-1.8,0.9-2.7,1.3c0,0.1,0.1,0.2,0.1,0.3C191.1,117.7,192.5,117.5,193.8,117.4z M204.4,117.1c2.5-0.4,4.8-1.3,6.8-2.9
			c-2,0.5-4,1.3-6,2C204.9,116.4,204.7,116.8,204.4,117.1c-0.4-0.3-0.9-0.6-1.4-0.9c-0.6,0.8-1.2,1.6-2,2.7
			C202.4,118.2,203.4,117.6,204.4,117.1z M82.9,125.5c0.6-0.5,1.2-1,1.7-1.5c-0.4-1-0.6-1.6-0.9-2.4c-0.8,0.5-1.5,0.9-2.3,1.4
			C82,124,82.5,124.7,82.9,125.5c0.4,1,0.8,2,1.2,3.1c2-1.3,2-1.3,0.8-3.5C84.2,125.2,83.5,125.4,82.9,125.5z M36.1,141.9
			c2.7,1.6,3.2,4.9,5.3,7.2c0.5-0.4,0.9-0.7,1.4-1c-0.8-1.7-1.5-3.4-2.4-5C39.3,141.1,38.4,140.9,36.1,141.9c-1.1-0.8-2.4-0.7-4-0.3
			c1.4,1.4,2.8,2.4,3.9,3.7c1.2,1.3,2.1,2.9,3.1,4.4c0-1.1-0.4-2-0.8-2.9C37.6,145.1,36.9,143.5,36.1,141.9z M108.4,11.5
			c-1.8,0.1-1.7,1.8-2.3,2.9c-1.1,1.2-2.4,2.3-2.4,4.1c-1.5,0.7-1.7,2.1-2.2,3.5c1.7,1.2,3.6,1.9,4.7,4c-2.1-0.5-3.5-2.3-5.8-1.9
			c-0.7,1.4-1.5,2.9-2.2,4.4c1.4,1.4,2.6,2.7,3.9,4c-0.1,0.1-0.2,0.3-0.4,0.4c-1.3-0.9-2.6-1.7-4-2.6c-1.5,3.5-1.6,7-1.5,10.4
			c1.2,1.1,2.3,2,3.4,3c-0.1,0.1-0.2,0.2-0.2,0.4c-0.8-0.3-1.7-0.7-2.8-1.1c0.3,2.6,0.5,4.9,0.8,7.1c1.1,0.6,2.2,1,3.2,1.7
			c0.9,0.6,2,0.9,2.6,2.1c-2.1-0.1-3.6-1.9-5.8-1.6c0.1,1,0,1.7,0.2,2.4c0.8,2.5,1.7,5,5,5.3c1.4,0.1,2.7,0.7,4.1,1.3
			c2.8,1.1,5.3,2.6,6.4,5.8c0.2,0.6,0.7,1.1,1.2,1.8c0.7-2.5,0.3-4.1-1.8-5.1c-0.7-0.3-1.4-0.9-2-1.4c-2.4-1.9-4.9-3.7-7.3-5.6
			c0.1-0.2,0.2-0.4,0.3-0.6c0.8,0.4,1.7,0.8,2.5,1.3c2.1,1.4,4.2,2.9,6.3,4.2c0.8,0.5,1.5,1.2,2.7,0.9c-0.7-2.5-2.1-4.4-4-5.8
			c-3-2.2-6.1-4.5-9-6.9c-1.2-1-2.3-2.1-3.5-3.1c0.2-0.2,0.3-0.4,0.5-0.6c5.4,3.9,10.8,7.8,16.1,11.6c0.2-1.3-0.7-2.4-1.6-3.4
			c-2.5-2.6-5-5.2-7.6-7.8c-1.6-1.6-3.2-3-4.8-4.6c0.2-0.2,0.3-0.4,0.5-0.6c4.8,3.3,9,7.4,13.4,11.9c0.1-2.7-0.2-4.7-1.9-6.4
			c-2.5-2.5-5-4.9-7.6-7.4c-2.2-2.1-4.5-4.3-6.7-6.4c5.5,2.9,9.7,7.6,14.7,11.7c-0.6-3.5-2-6.2-3.8-8.5c-1.8-2.4-3.9-4.5-5.8-6.8
			c3.8,1.6,6.1,4.9,8.8,7.8c-0.2-1.4-0.9-2.6-1-3.8c-0.1-1.9-0.8-3.6-1.7-5.2c-1.3-2.2-2.8-4.3-4.1-6.5c-0.5-0.8-0.8-1.8-1.3-2.6
			c1.5,1.7,3.1,3.4,4.6,5.2c0.9,1.1,1.6,2.4,2.4,3.6c0.3-0.7,0.3-1.3,0.1-1.7c-1.4-3-2.9-6.1-4.3-9.1c-0.5-1-0.8-2-1.3-3
			c1.9,2.6,3.9,5.3,5.9,8c0.1-1.9-0.1-3.6-1-5.2C110.1,15.3,109.3,13.3,108.4,11.5c1.1,1.1,2.2,2.3,3.5,3.7c0-3.2,0.3-6.3-0.1-9.9
			C110.3,7.6,108.6,9.1,108.4,11.5z M106.9,158.6c-0.3-0.4-0.7-0.8-1-1.3c-1.6-2.5-3.1-4.9-4.7-7.4c0.2-0.1,0.3-0.3,0.5-0.4
			c2,2.2,3.9,4.5,5.9,6.7c0.3-1.1,0.3-2.1,0-2.8c-0.8-1.5-1.7-3-2.8-4.3c-2.2-2.7-4.6-5.3-6.9-8c-0.8-0.9-1.5-2-2.6-3.4
			c1.5,6.9,3.7,12.9,8.3,17.5c0.2,0.2,0.3,0.6,0.5,1c-1.1-0.8-2.2-1.6-3.3-2.4c0.8,3.9,4.4,9.1,6.7,9.6
			C107.5,161.8,107.6,160.2,106.9,158.6z M57.1,156c0.7,0.4,1.4,0.7,2.1,1.2c2.7,1.7,5.4,3.5,8.2,5.1c1.3,0.8,2.8,1.2,4.2,0
			c-3.5-2.1-6.8-4.3-10.3-6.4C60,155.2,58.5,154.8,57.1,156c-1.4-0.9-2.9-0.7-4.4-0.1c-4.1,0.4-7.8,1.8-11.3,3.8
			c-0.8,0.4-1.5,1.1-2.4,1.3c-3.4,0.9-6.1,3-8.7,5.1c-2.5,2.1-4.7,4.5-4.6,8.2c2.4,1.6,4.7,3.8,8.3,3.1c-0.7-1.1-1.2-1.9-1.8-2.7
			c2.3,0.6,3.5,4.2,6.5,1.9c-0.2-0.6-0.5-1.2-0.7-1.9c0.6,0.1,1.1,0.4,1.4,0.8c0.6,0.9,1.4,1,2.3,0.7c1.5-0.5,3.1-0.8,4.6-1.4
			c2.6-1,5.1-1.5,7.8-0.9c1,0.3,2.1,0.2,3.2,0.1c2.3-0.1,4.6-0.2,6.6-1.5c3.8,0.2,6.9-1.6,9.8-3.7c2.6-1.9,5-4.1,7.5-6.1
			c0.7-0.6,1.5-1.2,2.2-1.7c0.1,0.2,0.2,0.3,0.4,0.5c-1.5,2.6-4.5,3.6-6.2,6.3c6.2,0.8,12,0.5,17.8-3.3c-2.3-0.3-4-0.5-5.8-0.7
			c0-0.2,0-0.4,0.1-0.7c3-0.6,5.9-0.3,9.2,1.3c-1-1.6-1.7-2.7-2.5-4c0.7-0.3,1.1-0.4,1.7-0.6c-0.7-4-4.8-3.8-6.8-6.5
			c-1.2,0.9-2.3,1.5-3.2,2.4c-1.5,1.3-2.8,2.8-4.2,4.2c-0.9,0.9-2.1,1.5-3.4,1.1c-2.5-0.9-4.1,0.1-5.3,2.3c-0.2,0.4-0.5,0.7-0.7,1.1
			c-0.7,1.5-2,2.3-3.5,2.8c-2.4,0.7-4.7,1.1-7.3,1c-4.4-0.1-8.9,0.3-13.3,0.4c-2.4,0-4.8,0.2-7.1,1c-3.1,1.1-6.2,1.9-9.4,2.9
			c-0.2-0.4-0.5-1-0.9-1.7c3-0.7,5.9-1.4,8.8-2.1c1-0.2,2-0.4,2.8-1.4c-1.4-0.8-2.7-1.5-3.9-2.2c0.1-0.2,0.2-0.3,0.2-0.5
			c3,0.3,5.6,2.4,9,2.3c-1.7-1.5-3.6-2.1-5-4.3c4,1.6,6.9,4.2,11.4,4.1c-2.6-1.8-4.8-3.3-7.1-4.8c0.1-0.2,0.2-0.4,0.3-0.5
			c3.7,1.8,7.3,3.5,11,5.3c0.1-0.2,0.2-0.3,0.3-0.5c-3.2-2.1-6.7-3.8-9.2-6.8c2.3,1.2,4.6,2.5,6.8,3.7c2.2,1.2,4.3,2.9,7,2.9
			c-1.1-0.9-2.3-1.6-3.5-2.4c-3.4-2.3-6.9-4.4-9.4-7.9c0.6,0.3,1.2,0.6,1.8,1c3.7,2.4,7.3,4.8,11,7.2c0.7,0.4,1.5,0.6,2.3,0.8
			c-1.8-1.7-3.8-2.7-5.6-4.1C60.3,159.4,58.7,157.6,57.1,156z M75.6,54c-0.1,0.7,0.2,0.9,0.8,1c4.5,0.7,7.8-1.7,11.2-4.2
			c-1-0.1-2-0.1-2.8,0.1c-2.1,0.7-4.1,1.6-6.2,2.3C77.6,53.6,76.5,53.8,75.6,54c1.5-0.9,3-2,4.6-2.8c1.3-0.7,2.8-1.2,4.2-1.8
			c-0.8-0.5-1.5-0.7-2.1-0.5c-2.1,0.5-4.1,1.1-6.1,1.7c-2.2,0.6-4.4,1.3-6.6,2c2.3-1.2,4.5-2.4,6.8-3.7c0.5-0.2,0.9-0.6,1.3-0.8
			c-2.5,0.2-4.7,0.7-7,1.4c-2.3,0.7-4.5,1.4-6.7,2.1c1.6-2.6,4.6-2.4,7-4.1c-1.5-0.6-2.5-0.6-3.8,0c-1.9,0.9-3.7,2.2-6.1,1.6
			c1.7-0.7,3.3-1.5,5-2.3c-1.9-0.7-3.7-1.5-5.5-1.9c-1.8-0.4-3.7-0.3-5.6-0.5c0.3,2.1,1.4,2.7,3,2.7c1.3-0.1,2.6,0,3.9,0
			c0,0.1,0,0.3,0.1,0.4c-1.5,0.4-2.9,0.8-4.5,1.2c1.3,3,3.5,4.3,6.3,4.5c0.1,0.6,0.2,1.1,0.3,1.6c2-0.8,3.8-1.5,5.6-2.2
			c-0.3,1.4,0.4,2.1,1.6,2.1C72.7,54.5,74.1,54.2,75.6,54z M166.7,71.3c-0.1,1.4-0.4,2.9,0.9,4.2C167.2,74.1,166.9,72.8,166.7,71.3
			c-0.1-0.7-0.1-1.5-0.3-2.1c-0.2-0.6-0.6-1.3-1-1.5c-2.7-0.7-4.4-2.7-6.1-5c-0.5,1.6-0.1,2.7,0.9,3.7c2,1.9,2.7,4.4,2.7,7.2
			c0,0.4,0,0.7,0.1,1.1c0.1,1.4,0.8,1.7,2.1,1.3c0.2-1.9,0.4-3.9,0.7-6C166.1,70.7,166.4,71,166.7,71.3z M120.6,73.5
			c0.3,0.8-1.1,2.4,1,2.5c0-0.7,0.1-1.4-0.1-2.1C121.5,73.8,120.9,73.7,120.6,73.5c0.5-2.9,1.1-5.8,1.7-8.8c0.2-0.9,0.3-1.8,0.4-2.8
			c0.1,0,0.3,0,0.4,0.1c0.1,1,0.1,2,0.2,3.4c1.4-2.5,2.5-4.6,2.9-7.1c0.2-1.1,0.7-2.2,1.2-3.2c1.1-2,1.5-4.2,1.3-6.7
			c-0.4,0.3-0.7,0.4-0.8,0.6c-1.7,2.9-3.3,5.9-5.1,8.7c-1.5,2.4-2.7,4.9-2.7,7.8c-0.1,2.3-0.3,4.6-0.5,6.9
			C119.6,73.3,120,73.5,120.6,73.5z M216.5,149.5c-0.1,0.9-0.3,1.9-0.5,3.2C217,151.5,217.1,150.5,216.5,149.5c0.6-1,1.2-2,1.8-3
			c0.3-0.4,0.7-1.3,0.8-1.3c1.6,0.4,1.7-1,2.3-1.8c2.1-2.8,3.6-6,4.7-9.4c-3,4-7.4,6.5-9.7,11.1c-1.9-0.1-2.7,1.6-3.9,2.5
			c-1.8,1.3-3.5,2.7-4.8,4.6c-1.2,1.8-0.8,4.3-2.5,5.9c-0.1,0.1,0,0.5-0.1,0.8c-0.2,0.8-0.3,1.6-0.6,2.3c-0.4,1.1-1,2.1-1.5,3.1
			c0.9-0.5,1.5-1.3,1.9-2.2c0.7-1.2,1.3-2.4,2-3.6c1.5-2.3,2.9-4.6,4.5-6.8c1.4-2,3-3.8,4.5-5.7c-0.1,0.3-0.2,0.7-0.4,1
			c-3.2,3.9-4.5,8.8-6.8,13.3c-0.3,0.6-0.4,1.2-0.7,2.2c1.9-1.3,2.8-2.7,3.6-4.5C213.1,155.2,214.9,152.4,216.5,149.5z M58.6,38.4
			c1,0.6,2,1.2,2.9,1.9c1.2,1,2.2,2.2,3.5,3c1.4,0.9,2.8,2.1,5.1,1.7c-2.1-2.3-4.1-4.3-6-6.4c1.2,0.3,2.1,0.9,3,1.6
			c1.8,1.5,3.7,2.9,5.5,4.4c1.3,1.1,2.6,1,4.4,0.8c-1.7-2.2-4.1-3.1-5.7-5.6c1.2,0.6,1.9,0.9,2.6,1.3c-0.7-1.6-1.7-2.7-2.6-3.9
			c-1.6-1.9-1.6-1.9-4.4-0.6c1.4,1.7,2.7,3.3,4,4.9c-0.1,0.1-0.3,0.2-0.4,0.4c-1.9-1.8-3.7-3.6-5.6-5.4c-1,0.1-2,0.3-2.9,0.4
			c-1,0.1-2,0.1-2.9,0.2c-0.4,0.1-0.7,0.5-1,0.7c-0.7-0.3-1.4-0.8-2,0.4c1.3,1,2.7,2.1,4,3.1c0.3,0.2,0.7,0.4,1.5,0.7
			C60.2,40.5,59.4,39.5,58.6,38.4z M167.5,186c1.6,0.5,0.2,2.3,1.2,3c1.7-1.8,2.6-4.7,1.8-6.6c-0.5-1.1-1.2-2-2-2.9
			c-2.6-3.1-4.9-6.5-7-9.9c-0.3-0.4-0.8-0.7-1.4-1.3c0.4,1.3,0.7,2.2,1,3c-0.1,0.1-0.3,0.2-0.4,0.4c-1.5-2.8-3.3-5.1-6.7-4.9
			c0,1.9,0,3.9,0,5.8c0.2,0,0.4,0.1,0.6,0.1c0.4-1.1,0.8-2.2,1.3-3.5c1.7,1.5-0.5,3.6,0.7,5c0.3-0.3,0.5-0.7,1.2-1.5
			c-0.1,1.3-0.1,1.9-0.2,2.7c0.6-0.5,1-0.9,1.6-1.5c0.1,1.6,0.2,2.9,0.3,4.2c0,0,0.1,0,0.1,0c0.1-1,0.2-2,0.3-3.4
			c1.2,1.9-0.2,3.9,1.6,5.3c0.2-0.5,0.3-0.9,0.4-1.2c0.1-0.3,0.3-0.5,0.6-1c0.9,3-0.1,5.9,1.4,8.5c0.3-1.8,0.5-3.6,0.8-5.4
			c0.1,0,0.3,0,0.4,0.1c0.1,1.5,0.3,3,0.5,4.7c1.4-0.5,2.7-0.9,3.9-1.3c0,0.1,0.1,0.3,0.1,0.4C169,185,168.3,185.5,167.5,186
			c-0.6,0.4-1.8,0.8-1.8,1.2c-0.1,1.5,0.3,2.9,0.5,4.4c0.2,0,0.4,0,0.6,0C167.1,189.7,167.3,187.8,167.5,186z M64.7,175.2
			c1.3,1.8,2.7,3.6,4,5.4c0.5,0.7,1,1.6,2.4,0.9c0-3-0.1-6.1-0.1-9.4c-2.2,0.7-4.6,1.4-6.9,2.2c-0.3,0-0.5,0-0.8,0.1
			c-3.5,1.1-6.9,1.3-10.5,0.7c-2.8-0.5-5.3,0.6-7.9,2.1c2.1,2.7,4.1,5.1,7.9,5.8c-0.9-1.4-1.6-2.4-2.2-3.4c0.1-0.2,0.3-0.3,0.4-0.5
			c2.4,2.5,5,4.7,8.9,3.5c-1-1.4-1.9-2.7-2.8-3.9c0.1-0.1,0.3-0.3,0.4-0.4c0.9,0.9,1.8,1.8,2.8,2.6c1,0.8,1.9,2,3.5,1
			c-1.3-1.8-2.5-3.5-3.8-5.2c1.9,1.3,3.5,2.9,5.1,4.4c0.7,0.7,1.4,1.3,2.5,0.5c-0.7-1.1-1.3-2.1-1.8-3.2
			C65.6,177.4,65.2,176.3,64.7,175.2z M167.9,171.1c0.9-0.3,1.3-1,0.8-1.9c-0.8-1.3-1.7-2.5-2.5-3.7c-0.1,0.1-0.3,0.1-0.4,0.2
			c0,0.5,0,1.1,0,1.6c-2,3.1-2.1,3.2-0.1,6c1.6,2.2,3.2,4.4,4.8,6.5c2,2.6,2.3,5.5,1,8.5c-0.3,0.8-0.6,1.6-0.9,2.5
			c2,0.4,2.3-0.9,2.7-1.9c1.2-3,2.5-6.1,3.6-9.2c0.4-1.2,0.7-2.4,1.1-3.6c-0.5,0.1-0.7,0.4-0.9,0.6c-0.2,0.3-0.5,0.5-0.8,0.8
			c0.1-1.2,0.4-2.3,1-3.1c1.1-1.3,0.8-2.6-0.1-4c-1,2.4-2,4.9-3,7.3c-0.2-0.1-0.5-0.2-0.7-0.3c1.7-2.7,0.7-6.6,4-8.9
			c-0.3-0.8-0.7-1.7-1.3-3.1c-1.3,3.1-2.4,5.7-3.6,8.4c-0.2,0-0.3,0-0.5,0c-0.2-0.8-0.4-1.5-0.6-2.3c0.8,0.5,1.1-0.1,1.3-0.8
			c0.6-2.1,1.3-4.2,2-6.4c-0.5-0.4-1-0.9-1.8-1.6c-0.7,1.5-1.3,2.8-1.9,4.1c-0.6,1.4-0.6,2.8,0.3,4.1c-1.7-0.2-2.4,1.1-3.2,2.9
			C168.1,172.4,168,171.7,167.9,171.1z M133.4,52.8c-0.8-1.3-1.6-2.7-2.4-3.9c-2.3,4.6-1.7,9.3,0.8,14.1c-2.8-0.9-2.2-3.5-3.5-5.3
			c-0.5,1.8-1.1,3.1-1.3,4.6c-0.1,0.7,0,1.7,0.4,2.3c1.3,1.8,2.8,3.5,4.3,5.4c0.2-2.5,0.3-5,0.5-7.4
			C132.6,59.2,132.3,55.9,133.4,52.8c-0.4,1.5-0.4,2.9,0.3,4.7c1.7-2.3,3.3-4.5,5.1-6.9c0.2,0.7,0.3,1,0.5,1.3
			c-1.3,1.8-2.5,3.6-3.8,5.4c-1.8,2.7-1.5,5.7-1.3,8.7c0.1,0.6,0.6,1.2,1.1,2.1c1.7-1.7,3.3-3.1,4.9-4.7c0,0.6,0.1,1.1,0.1,1.6
			c-1.1,1.1-2.7,2.1-2.6,3.9c0.1,3.4,0.5,6.7,0.7,10.1c1.9,0,1.9-1.2,1.9-2.5c0-3.8-0.1-7.7-0.1-11.5c0.2,0.6,0.6,1.1,0.7,1.7
			c0.3,2.7,0.4,5.5,0.7,8.2c0.1,0.7,0.3,1.3,0.4,2c2.8-1.5,3-1.6,3-4.3c0-3.2-0.4-6.4-0.4-9.6c0-3.5-0.5-6.8-3.2-9.3
			c-0.4-0.4-0.5-1.1-0.7-1.7c0.1-0.1,0.3-0.1,0.4-0.2c1.2,1.3,2.4,2.6,3.9,4.1c0.7-1.7,1-3.1,1-4.6c0-0.9-0.1-1.9,0.3-2.7
			c1-2.5,0.7-4.9-0.1-7.3c-0.2-0.5-0.1-1.1-0.2-1.7c0.1,0,0.2-0.1,0.3-0.1c0.5,0.9,1,1.7,1.8,2.9c0.7-2,1.2-3.6,1.8-5.2
			c-0.8,4.6-1.9,9.2-2.4,14c1.9-2.3,4.3-3.2,7-3.3c-0.8,0.7-1.7,1.2-2.6,1.6c-2.4,1.2-4.4,3.2-5,5.8c-0.7,2.7-1,5.5-0.2,8.4
			c2.5-3.5,6.4-6.3,9.1-6.1c-1.2,0.9-2.1,1.6-3,2.2c-2.6,1.9-5,4.2-5.6,7.4c-0.6,2.8-0.5,5.8-0.6,8.7c0,0.6,0.2,1.2,0.3,2.1
			c0.9-0.1,1.6-0.2,2.7-0.4c0-2.5-0.1-4.7-0.1-7c0-2.2,0-4.4,0-6.6c0.2,0,0.4,0,0.5,0c0.3,2.8,0.6,5.7,0.9,8.7
			c2.8-2.8,1.1-6.2,2-9.3c0.3,1.2,0.6,2.2,0.9,3.5c1.6-2,1.3-4.6,3.1-6.3c0.3,0.7,0.5,1.3,0.7,1.8c0.7-2.6-0.8-4.9-0.4-7.5
			c0.4-2.4-0.5-4.9-0.6-7.4c-0.1-2.5,1-5,0.2-7.7c-0.7,1.1-1.2,1.9-1.8,2.8c1.3-4,1.1-7.8-0.2-11.7c-0.5-1.3-0.7-2.8-0.5-4.3
			c0.5,0.4,0.9,0.8,1,1.3c0.5,2.6,2.1,4.4,3.9,6.1c0.9,0.9,1.9,1.7,2.7,2.6c1.1,1.1,2.1,2.3,3.1,3.5c-0.2,0.2-0.3,0.4-0.5,0.5
			c-2.5-1.7-4.3-4.4-6.9-6c0.2,3,0.6,5.9,0.6,8.7c0,1.4,0.2,2.5,1.1,3.5c1.7,1.9,3.3,3.8,5.2,6c-3.3-0.2-4.1-3.7-6.9-5.3
			c0.3,2.9,0.7,5.4,0.9,7.8c0.2,3.6,2.1,6.4,4.3,8.9c0.7,0.8,1.8,1.2,2.8,1.9c0.3-0.8,0.4-1.3,0.5-1.7c0.9,3,1.8,6,2.8,8.9
			c0.8,2.2,1.2,2.3,3.5,1.8c0-3.1-0.1-6.2-0.1-9.3c0.4,0.3,0.6,0.6,0.6,0.9c0.3,2.4,0.6,4.7,0.9,7.1c0.2,1.5,0.9,1.9,2.2,1.1
			c0-0.5,0-1,0.1-1.4c0.6-2.4,0.2-4.4-1.4-6.4c-1-1.2-1.6-2.9-1.9-4.5c-1.2-5.1-3.1-9.6-7.1-12.9c-0.4-0.3-0.6-0.8-0.8-1.2
			c0.1-0.1,0.2-0.2,0.3-0.3c0.5,0.5,1,0.9,1.5,1.4c3.1,2.2,5.4,5,6.2,8.9c0.3,1.3,0.7,2.6,1.2,3.9c0.4,1.2,0.7,2.9,1.6,3.4
			c1.3,0.7,1.3,2.1,2.3,2.7c0.1,0.1,0.3,0,0.6,0c0.3-1.1,0.6-2.3,0.9-3.4c0.9-4.1,1.3-8-2.3-11.1c-0.4-0.3-0.6-0.9-1-1.6
			c-0.6,1.5-1.1,2.8-1.6,4.1c-0.3-0.6-0.3-1.2-0.2-1.7c0.9-3.2,0.2-6.1-1.5-8.9c-0.9-1.5-1.5-3.2-2.3-4.8c-0.2,0.9-0.3,1.9-0.7,2.7
			c-1,2-1.2,4.4-3.2,5.8c0.2-0.4,0.3-0.9,0.5-1.3c1.2-3.1,2.4-6.2,2.5-9.5c0.2-4.9-0.5-5.4-3.9-7.2c-0.7-0.4-1.5-0.6-2.2-0.9
			c-2.7-1.3-5.7-2-8-4.3c-0.7-0.7-1.9-0.7-3.1-1.1c-0.5,4.7-3.4,7.5-6.3,10c-2.6,2.2-3.8,4.9-4.4,8.1c-0.8,4.9-1.8,9.7-2.7,14.6
			c-0.1,0.5-0.4,0.9-0.9,1.9c0.4-3.3,0.6-5.9,0.9-8.5c0.3-1.6,0.8-3.2,0.9-4.8c0.3-5,1.4-9.6,5.4-13c0.6-0.5,1.2-1.1,0.4-2.5
			c-3,2-4,5.7-6.9,7.7c0.9-2,1.8-4,2.7-5.9c-3.7,2.1-6.3,5.2-8.5,8.6c-0.4,0.6-0.8,1.4-0.7,2c0.4,2.7-0.3,5.6,1.1,8.1
			C133.7,52.2,133.4,52.5,133.4,52.8z M63.8,134.9c-0.8-1-1.9-0.9-2.9-0.8c-4.3,0.2-8.3-0.4-11.9-3.2c-0.2-0.1-0.5-0.2-0.8-0.2
			c0.9,3.1,1.7,6.2,2.5,9.1c2.8,0.4,4.7-0.5,6.3-2.5c0.5-0.6,0.9-1.4,2.2-1.6c-0.5,1-0.7,1.6-1.1,2.2c-0.7,1-1.5,2-2.2,3.1
			c3.6,5.6,4.4,6.4,6.2,6.2c-0.9-2.1-2.4-3.9-2.6-6.2c1.4,1.7,2.9,3.5,4.4,5.3c0.7-0.5,1.1-0.8,1.6-1.2c-0.7-2.2-2.7-3.5-2.9-5.8
			c1.4,1.3,2.6,2.8,3.7,4.3c0.7,1,1.4,0.9,2.3,0c-0.7-1.2-1.4-2.3-2.1-3.5c-0.8-1.5-1.5-3.1-2.3-4.6c0.8,0.8,1.6,1.6,2.4,2.5
			c1,1.3,2,2.6,3,3.9c0.5,0.7,1.1,1.2,2.2,0.4c-1.4-2.4-2.7-4.8-4.2-7.1C66.9,133.9,65.5,134,63.8,134.9z M31.4,149.6
			c0,0.9,0.5,1.3,1.4,1.4C32.3,150.5,31.8,150.1,31.4,149.6c-0.9-1.9-1.8-3.8-2.6-5.8c0.1-0.1,0.2-0.2,0.4-0.3
			c1.3,1.8,2.6,3.5,3.9,5.3c-0.7-2.3-1.6-4.4-2.6-6.4c-0.3-0.7-0.8-1.1-1.7-1.4c-1.4-0.4-2.8-1.2-3.8-2.3c-1.8-2.1-3.3-4.5-5-6.8
			c-0.5-0.7-0.9-1.6-1.5-2.2c-1.3-1.2-1.5-2.6-1.3-4.2c0.2-1.3,0.6-2.5,0.8-3.8c0.1-0.7,0.2-1.4,0.3-2.2c-1.7,1.6-1.9,3.6-2.1,5.6
			c-0.2,1.8-0.5,3.6-0.6,5.4c-0.2,3.7-0.4,7.4,2.5,10.3c2.4,2.4,3.5,6.2,6.9,7.7c1,2,3,2.4,4.9,2.8c0.3,0.1,0.6,0.4,0.9,0.6
			c-0.4,0.2-0.7,0.3-1.3,0.6c0.8,1,1.5,1.8,2.2,2.7c0.5-0.4,0.9-0.6,1.5-1.1c-0.9-0.8-1.7-1.5-2.5-2.2c-0.7-1.3-1.3-2.5-2-3.8
			c-0.8-1.3-1.9-2.5-2.2-4.1C28.1,145.8,29.7,147.7,31.4,149.6z M63.8,62.5c-3.1,0.2-5.7,1.5-7,4.7c1-0.4,1.8-0.9,2.7-1.4
			c0.9-0.5,1.8-1.1,2.6-1.6c0,0.4,0,0.8,0,1.1c4-1.1,7.8-2.1,11.6-3.1c2.3-0.6,4.7-1,7-1.5c3.6,1.1,8,0.4,9.8-1.7
			c-1.7,0-3.2-0.3-4.8,0.4c-1.6,0.7-3.4,1-5.1,1.4c1.1-0.7,2.1-1.5,3.4-2.3c-3.3-1.1-6.1,0.3-9.2,0.8c0.6-0.4,1.2-0.8,1.9-1.3
			c-3.9-1.1-7.2,0.3-10.6,1.4c0-0.2-0.1-0.3-0.1-0.5c0.9-0.5,1.8-1,2.7-1.5c-2.3-1.5-2.3-1.5-4.4-1.5c-1.2,0-2.3,0.1-3.5-0.1
			c-1.4-0.2-2.6,0.1-3.7,1c-2.5,2-5.2,3.7-7.6,5.8c-1.3,1.1-2.2,2.7-3.4,4.2c2,0.3,3.3-1.4,5.3-0.6c-2.6,1.4-5,2.4-7.2,3.7
			c-2.9,1.7-3.5,3.7-2.5,7.4c0.9-0.7,1.8-1.3,2.6-2c1.1-0.8,2-1.9,3.2-2.5c1.4-0.8,2.4-1.8,3.1-3.2c1.7-3.3,3.9-6.1,6.6-8.6
			c1-0.9,2.2-1.7,3.3-2.5c0.1,0.1,0.2,0.2,0.3,0.4c-0.6,1-1.3,2-1.9,3c2.5-0.6,5-1.2,7.4-1.8c0.1,0.2,0.1,0.3,0.2,0.5
			C65.7,61.3,64.8,61.9,63.8,62.5z M122.3,13.2c-0.6-0.7-1.1-1.5-1.9-1.9c-2.5-1.5-4.9-3.1-6.9-6.2c0.1,4.6-0.7,8.5,0.5,12.7
			c1.4-2.4,2.6-4.6,3.8-6.7c-1,4.1-3.1,7.7-3.2,12c0.9-1.1,1.5-2.3,2.2-3.3C118.5,17.4,119.7,14.7,122.3,13.2
			c-0.8,1.3-1.7,2.7-2.6,4c-2.1,3.3-4.2,6.6-4.9,10.6c-0.2,1.2,0,2.4,0,3.6c1.4-1.9,2.2-3.8,3.1-5.6c1-2.1,2.4-3.9,3.9-5
			c-3.1,5.6-5.9,10.8-6.1,17.7c1.4-2.1,2.4-3.8,3.6-5.4c1.2-1.7,2.4-3.4,3.7-5.1c1.1-1.5,2.3-3,4-3.9c-2,3-4.1,5.7-6,8.7
			c-1.4,2.1-2.4,4.5-3.4,6.8c-0.4,0.9-0.2,2.1-0.4,3.5c3.9-5,7.4-9.6,10.9-14.2c0.4-0.6,0.8-1.2,1.1-1.9c0.9-2,1.7-4,2.7-6.3
			c-0.9-0.8-1.9-1.7-3.3-2.9c-1.3,2.1-2.5,4-3.7,5.9c-0.2-0.1-0.3-0.2-0.5-0.3c0.9-2.1,1.9-4.3,2.9-6.8
			C125.7,15.6,124,14.4,122.3,13.2z M26.2,65.3c-1.5,3.7-2.7,7.3-1.9,11.5c0.4,2.1,0,4.4,0.4,6.6c0.6,3.4,1.2,6.9,1,10.4
			c0,0.1,0.2,0.2,0.4,0.4c2.1-2.5,4.1-5,6.1-7.6c0.7-0.9,1.2-2.1,0.4-3.3c-1.5-2.4-2.6-4.8-2.7-7.8c-0.1-2.3-0.5-4.5-0.7-6.8
			c0-0.4,0.3-0.9,0.5-1.8c0.8,2.4,0.2,4.7,1.3,6.9c0.8-2.5,1.6-4.6,2.2-6.8c0.4-1.5,1.1-3.2-0.4-4.6c0,0,0.2-0.4,0.4-0.9
			c0.8,0.5,1.4,1,2.2,1.6c1.1-1.5,2.2-3,3.2-4.4c-1,0.1-2,0.2-3,0.4c-3.5,0.4-6.6,1.5-8.7,4.6c-2.2,0.2-3.3,1.5-3.8,3.6
			c-0.4,1.6-0.6,3.3-0.9,4.9c-0.2,1.3-0.5,2.5-0.8,3.7c-0.2,0-0.5-0.1-0.7-0.1c0.3-3.3,0.6-6.7,1-10.1c-0.4,0.1-0.6,0-0.8,0.1
			c-0.2,0.1-0.5,0.3-0.7,0.4c-2.9,2.5-4.8,5.5-5.9,9.3c-2,7.3-0.7,14.6-0.5,22.2c1-0.3,1.8-0.5,2.2-0.7c-0.4-3.4-0.7-6.5-1-9.5
			c0-0.4,0-1,0.3-1.3c1.5-2,1.3-4.3,1.3-6.6c0-1.5-0.2-3,0.8-4.8c0.2,2.7,0.4,5.1,0.6,7.4c0,0.6,0.1,1.3-0.1,1.9
			c-0.2,1-0.6,1.9-0.9,2.8c-0.8,2-0.9,3.9-0.2,6.2c1.5-2.1,2.2-4.5,4.3-5.8c-0.4,1.5-1,2.8-1.7,4.2c-1.4,2.7-2,5.3,0.5,7.8
			c0.3,0.3,0.5,0.7,0.8,1.2c1.4-1.8,2.6-3.5,2.7-5.5c0.2-3.2,0.3-6.4,0.1-9.6c-0.2-3.7-1-7.5-1-11.2C22.6,70.9,23.5,67.6,26.2,65.3z
			 M186.4,68.6c-0.4,0.7-0.9,1.5-1.3,2.2c-0.2-1.2,0-2.3,0.3-3.2c1.4-3.8,1.3-7.6,0.2-11.6c-0.7-2.5-0.9-5.2-1.1-7.9
			c-0.2-2.3-0.1-4.7-0.1-7c-1,0.9-1.5,1.9-2.1,2.9c-0.6,1-1.3,2-2.9,2.7c0.9-1.6,1.6-2.7,2.1-3.8c0.5-1.2,0.9-2.4,1.3-3.6
			c0.8-2.8-0.4-5.7-3-7.4c0.2,1,0.4,1.9,0.6,3.2c-1.5-1.3-2.8-2.4-4.1-3.5c-1.8-1.7-4-2.4-6.3-2.9c-0.4-0.1-0.8,0.2-1.4,0.5
			c1.1,0.6,1.9,1.1,2.8,1.6c0,0.1-0.1,0.3-0.1,0.4c-1.5-0.3-3-0.6-4.4-1c0.2,0.6,0.6,0.9,0.9,1.1c2.9,1.6,4.1,4.2,4.4,7.4
			c0,0.5,0,0.9,0.1,1.4c0.3,1.8,0.9,3.3,2.4,4.6c1.9,1.6,3.8,2.8,5.9,4.1c-1.5-0.2-3-0.3-4.6-0.5c1.5,5.4,5.5,8.9,7.5,13.6
			c-0.6-0.5-1.2-1-1.8-1.6c-0.8,3.1-1.6,6.1-2.4,9.1c-0.3,1.2,0.2,1.8,1.5,2.1c0-0.7,0-1.3,0-1.8c0-0.5,0.2-0.9,0.3-1.3
			c0.8,2.7,0.7,6,5,5.9C186.2,72.4,186.3,70.5,186.4,68.6c0.3,0.3,0.8,0.6,0.8,0.9c0.2,1.7,0.1,3.5,0.3,5.2c0.1,2,0.5,2.2,2.9,2.3
			c0.1-1.9,0.3-3.7,0.4-5.6c0.2,0,0.3,0,0.5,0c0.3,2.1,0.7,4.1,1,6.3c0.7,0.2,1.6,0.5,2.4,0.7c1.3-3.3,0-6-1.2-8.4
			c0.4-1,0.8-1.6,1.1-2.4c0.3-1,0.4-2.2,0.8-3.2c2-4.9,0.9-9.7-0.2-14.6c-0.2-0.8-0.7-1.6-1.1-2.6c-0.6,1.2-1.1,2.1-1.6,3.1
			c-0.2-2.9,0.8-5.7-1.2-8.3c-1.7-2.3-2.9-5-6-6c-0.1,0.5-0.2,0.8-0.2,1.2c0.2,2.9,0.4,5.8,0.6,8.8c0.1,0.6,0.1,1.4,0.4,1.8
			c1.9,2.7,3,6.1,6.5,7.4c-0.4,0.3-0.8,0.5-1.2,0.4c-2.7-0.4-3.4-3.3-5.5-5c0.5,4.5,1.8,8.3,4.1,12.3c-1-0.4-1.5-0.6-1.8-0.8
			C187.5,64.4,187,66.5,186.4,68.6z M210,72.2c-2.9,1.7-5.4,0.2-8-1.1c-1.5,3.4-0.7,6.9-0.2,10.3c0,0.3,0.6,0.5,1.1,0.8
			c0.9-2.1,0-4.2,1.1-6.6c0.1,2,0.3,3.5,0.3,5c-0.1,2,0.8,3.1,2.9,3.5c0.2-3.2-0.5-6.4,0-9.5c0.6,1.8,0.9,3.7,1.2,5.6
			c0.3,1.8-0.6,3.8,1.1,5.9c0-3,0-5.5-0.1-8.3c1.4,0.6,2.5,1,3.7,1.6C213.8,76,212,74,210,72.2c-1.5-5.7-2.8-11.6-7.5-15.7
			c4.5,2.1,6.1,6.5,7.7,10.8c1.5-1.4,0.9-4,3.6-4.7c-0.4,1-0.6,1.4-0.8,1.9c-1.2,3.2-1.7,6.3,0.5,9.4c0.8,1.1,1.1,2.6,1.6,3.9
			c0.8-1.6,1.5-3.2,2.3-4.8c0.2,0.1,0.4,0.2,0.6,0.2c-0.4,1.3-0.6,2.6-1.1,3.8c-1.1,3-1.7,5.9-1.1,9.1c0.5,2.9,1.9,5.2,3.5,7.3
			c0.2,0.3,0.8,0.3,1.5,0.5c0.4-4.4,1.3-8.5,0.8-12.8c0-0.3-0.2-0.5-0.2-0.8c-3.1-9.6-6.6-19-10.9-28.2c-0.9-2-2.1-3.6-3.7-4.9
			c-3.2-2.6-6.6-5-9.6-7.8c-3.2-3.1-7.2-4.1-11.1-5.8c0,0.3,0,0.5,0,0.5c3.6,1.7,4.8,5.8,7.7,8.1c0.2,2.1,2,2.8,3.4,3.9
			c1.7,1.2,3.4,2.4,4.9,3.7c1.8,1.5,3.4,3.3,5.1,4.9c-4-2.1-7.2-5.4-11.7-7.8c1.6,6.3,3,12,4.6,17.7c0.5,1.8,1.5,3.5,2.6,5
			C204.6,72,207.4,72.1,210,72.2z M101.4,74.9c-3.9-0.6-7.3-2.2-9.7-5.6c-1.5-2.2-3.4-3.2-6.1-3.1c-2.1,0-4.2-0.5-6.3-1.1
			c-2.8-0.8-5.6-0.7-8.5,0.4c1.6,0.7,3.4,1,4.5,2.1c2.3,2.2,5.1,2.9,7.9,3.7c2.1,0.6,3.8,0.3,5.5-1c0.4-0.3,1-0.5,1.9-1
			c-2.9,4.6-6.7,3.8-10.9,2.7c2,2.6,3.9,4.2,6.9,3.6c1.6-0.3,3.3-0.5,5.5-0.9c-1.1,0.8-1.8,1.4-2.6,1.7c-0.7,0.3-1.6,0.4-2.7,0.7
			c3.2,2.3,6.5,1.7,9.3,2c-8.3,2-14.7-2.1-20.2-8.5c-1.3,1.2-2.4,2.4-3.6,3.2c-1.3,0.8-2.8,1.2-4.4,1.9c1.4,1.9,3.1,3.1,5,4.2
			c0.4,0.2,1.2,0.1,1.7-0.1c1.4-0.5,2.7-1.1,4.1-1.7c0.1,0.2,0.2,0.3,0.3,0.5c-0.8,0.7-1.6,1.3-2.6,2.2c1.7,0.5,3.1,0.8,4.5,1.2
			c0,0.2-0.1,0.3-0.1,0.5c-1.4-0.1-2.8-0.3-4.1-0.4c-0.5,2.5-0.9,4.8-1.4,7c-0.9,0-1.8,0.2-2.6-0.1c-2.7-0.9-5.4-1.9-8.1-2.9
			c-1.6-0.6-3.1-1.2-5-0.5c0.6,1.1,1.1,2.2,1.7,3.2c-0.2,0.1-0.4,0.2-0.5,0.4c-0.7-0.8-1.3-1.7-2-2.4c-0.6-0.6-1.4-1.5-2.1-1.5
			c-2,0.1-4.2-0.1-6.3,1.2c1.2,1.1,2.3,2,3.8,3.3c-2.8,0-4.1-1.9-5.5-2.5c-5.7,0.6-9.9,3.6-14.1,6.5c-4.8,3.2-8.8,8.9-8.8,12.2
			c2.6-1.7,5.1-3.2,7.5-4.8c1.8-1.2,3.5-2.6,5.3-3.7c1.7-1,3.5-1.9,5.3-2.5c1.7-0.6,3.6-0.9,5.4-1.3c1.5-0.3,2.9-0.4,4.4-0.6
			c-3.5,1.4-7,2.3-10.5,3.3c-2.5,0.7-7.3,4.2-8.7,6.2c5.6-1.6,11.3-3.3,16.9-4.9c0.3-0.1,0.7-0.1,1.1-0.2c0.1,0,0.2,0.1,0.2,0.1
			c0,0.1,0,0.2,0,0.4c-0.4,0.2-0.9,0.5-1.4,0.6c-3.7,1.1-7.4,2-11,3.2c-4,1.4-8.2,2.4-11.8,5c-1,0.8-2.4,1.1-3.7,1.5
			c-1.9,0.6-2.7,1.7-2.6,3.7c3.1-0.4,5.9,0.7,8.8,1.5c3.5,0.9,5.3-0.4,5.5-4.1c0.1-1.7,0.2-3.4,1.3-4.9c0.2,3,0.4,6.1-0.6,9.3
			c1.2-0.8,2.3-1.3,3-2.1c4.1-4.6,9.2-7.7,14.4-10.8c1.7-1,3.4-2.1,5.5-1.7c-0.5,0.4-1,0.8-1.5,1.1c-2.9,2-5.9,4-8.8,6.1
			c-1,0.8-1.9,1.9-2.8,2.8c1.6-0.1,3.1-0.4,4.4-1c2.6-1.1,5.1-2.3,7.6-3.7c1.5-0.8,2.1-3.1,1.5-5.1c0-0.1-0.3-0.1-0.5-0.2
			c2.3-1.6,2.4-1.6,2.6-4.7c0.1-1.6,0-3.2,0-5c1.7,0.9,1.6,2.5,1.7,3.7c0.4,4-0.3,7.7-3.1,11.4c1-0.3,1.6-0.3,2-0.5
			c2.7-1.4,5.4-2.8,7.9-4.3c2.9-1.7,5.5-3.8,6.3-7.4c0-0.1-0.1-0.3-0.1-0.5c-0.6,0.2-1.2,0.4-1.8,0.6c-0.1-0.1-0.1-0.2-0.2-0.4
			c0.5-0.7,1.1-1.4,1.6-2c-0.6-0.3-1.1-0.6-1.6-0.9c1,0,2.1,0,3.2,0c0.4-1.4,0.7-2.8,1-4.1c0.2,0,0.4,0.1,0.6,0.1
			c-0.5,2.1,0.1,4.2-0.9,6.3c-1,2-1.5,4.2-2.4,6.6c2.5-1.2,4.7-2.4,7-3.4c3.3-1.4,4.4-4.4,6-7.8C88.6,86.8,88,87,87.4,87
			c-0.6,0.1-1.2,0-2.2,0c0.6-0.5,0.8-0.8,1-0.8c3.2-0.2,4.6-2.3,5.3-5.1c0.1-0.3,0.3-0.6,0.3-0.7c3-0.3,5.7-0.5,8.4-0.8
			c4.6-0.5,9.4,0.4,13.9-1.5c0.8-0.3,1.6,0,1.6,1.4c-1.2,0.2-2.5,0.4-3.7,0.6c1.8,1.4,3.1-0.1,4.7-0.3c-0.3-0.6-0.4-1.1-0.6-1.4
			c-0.5-0.7-1-1.3-1.5-1.9c-1.1-3.1-2.8-3.6-6.9-1.7c0.8,0.6,1.5,1.2,2.2,1.7c-0.5,0-1.1,0.1-1.5-0.1c-1.7-1.1-3.5-1.2-5.5-1
			C102.5,75.4,101.9,75,101.4,74.9c1-0.2,2-0.4,3.5-0.8c-1-0.8-1.6-1.3-2.1-1.8c-0.6-0.5-1.2-1-1.8-1.6c-1.1-1-2.3-1.7-3.8-0.7
			c-0.2,0.1-0.4,0.1-0.8,0.1c0.4-0.6,0.7-1,1-1.4c-0.5-1.4-1.9-0.9-2.7-1.4c-0.9-0.6-1.7-1-2.8-0.5c2,3.8,5,5.2,8,6.7
			C100.4,73.9,100.9,74.4,101.4,74.9z M207.7,88c-0.5-2.4-1.5-3.7-3.9-3.1c-0.2,0-0.5-0.3-0.8-0.5c-0.4-0.4-0.8-1-1.3-1.3
			c-2.8-1.2-5.5-2.7-8.4-3.4c-4.2-1.1-8.6-1.8-12.9-2.2c-5.6-0.6-11.3,0.3-16.9,0.4c-7.4,0.1-14.9,0.6-21.9,3.7
			c-0.2,0.1-0.3,0.1-0.5,0.1c-3.3-0.5-6.2,0.8-9.3,1.7c-6.7,1.8-12.8,4.9-18.8,8.5c-1.4,0.8-2.8,1.7-4.2,2.4c-1.4,0.7-2.3,2-3.4,3
			c-1.2,1-2.5,2-3.5,3.2c-2.3,2.9-4.6,5.9-6.7,8.9c-3.2,4.4-4,9.4-2.5,14.7c0.4,1.4,0.8,2.9,2,3.1c0.2,1.2,0.1,2.3,0.6,2.9
			c2.1,2.9,4.6,5.3,7.9,6.8c4,1.8,7.9,3.6,11.9,5.5c3.6,1.6,7.1,3.4,10.7,4.9c7.2,2.9,14.7,4.1,22.2,5.6c6.6,1.4,13.1,1.6,19.8,0.4
			c8.5-1.5,16.8-3.9,25.1-6.3c4-1.1,7.9-2.7,12-3.8c5.4-1.5,10.6-3.5,15.3-6.6c0.8-0.5,1.5-1.3,2.2-1.9c-0.1-0.1-0.2-0.2-0.3-0.4
			c-0.6,0.1-1.3,0.2-2.1,0.3c1.2-1,2.4-1.7,2.9-2.7c0.5-1.1,1.1-1.6,2.2-1.6c1.3,0,1.8-0.9,2-1.9c0.3-1.7,0.7-3.3,0.4-5.1
			c-0.7-4.1-1.9-8.3-0.9-12.6c0-0.1-0.2-0.2-0.4-0.5c-1.8,0.8-3.6,1.8-5.5,2.6c-1.4,0.6-2.3,1.7-2.8,3.1c-0.3,0.8-0.6,1.7-0.9,2.6
			c-0.9,2-2.1,3.9-4.2,4.3c-3.9,0.8-6.3,3.2-7.7,6.9c-0.1,0.2-0.3,0.4-0.4,0.7c-0.9,2.2-2.5,2.8-4.8,2.3c-2.6-0.6-4.9,0.1-6.9,2
			c-2.2,2-4.8,3-7.7,3.2c-0.9,0.1-1.8,0.2-2.7,0.3c-3,0.4-6,0.8-9,1.1c-2,0.2-4.1,0.3-6.1,0.4c-9.7,0.4-19.4,1.2-28.9-1.3
			c-3.6-1-7.3-1.7-10.7-3.5c-2-1.1-4.2-2.1-6.3-2.9c-2.8-1.1-5.5-2.4-7.9-4.4c-1.3-1.1-2.9-1.7-4.4-2.5c-0.7-0.4-1.4-0.6-1.9-0.8
			c0.1-1.7,0.1-3,0.3-4.3c0.1-0.6,0.3-1.3,0.6-1.8c0.8-1.2,1.6-2.4,2.6-3.5c3.1-3.4,6.3-6.8,9.3-10.2c4.5-5.2,10.1-8.6,16.6-10.5
			c4.2-1.2,8.4-2.5,12.6-3.5c3.5-0.8,7-1.4,10.5-1.7c2.2-0.2,4.5-0.3,6.4,1.2c1.4,1,2.8,2.1,3.9,3.3c3.3,3.7,7.1,5.2,12,3.7
			c4.9-1.5,9.5-1.3,13.5,2.5c0.7,0.7,1.6,1.1,2.5,1.5c2.8,1.2,5.8,2.1,8.8,1.7c4-0.5,8.1-1.4,12.1-2.2c0.6-0.1,1.2-0.5,2.2-0.9
			c-1.7-1.6-3-2.8-4.3-4.1c-0.9-0.8-1.9-1.4-3.1-1c-0.1,0-0.2,0-0.2-0.1c-1.1-0.7-2.3-0.9-3.5-0.7c-0.4,0.1-0.9,0-1.3,0
			c-1.2,0-2.4-0.2-3.5,0.2c-2.5,0.7-4.9,0.4-7.2-0.7c-0.8-0.4-1.6-0.7-2.5-1c-0.7-0.3-1.5-0.5-2.2-0.8c0.1-0.3,0.1-0.5,0.2-0.8
			c6.1,2.1,12.3,2.5,18.7,1C211.4,89.3,210,88.1,207.7,88z M150.1,120.9c0-0.2-0.1-0.3-0.1-0.5c1-0.4,2.1-1,3.1-1.2
			c1.8-0.4,3.7-0.8,5.5-0.9c5.2-0.5,9.9-2.1,13.8-5.8c2-2,4.3-3.9,3.2-7.4c0-0.2,0-0.4,0-0.5c0.3-1.6-0.4-2.6-1.6-3.5
			c-0.7-0.5-1.8-1.2-1.8-1.9c-0.2-2.3-1.9-2.7-3.4-3.3c-1.1-0.4-2.2-0.7-3.4-0.8c-4.7-0.5-9.2,0.8-13.7,1.5
			c-0.5,0.1-1.1,0.3-1.4,0.7c-1.7,1.7-3.5,1.4-5.4,0.7c-2.9-1-5.6-0.3-8,1.5c-2,1.5-3.9,3.1-6,4.6c-1.4,1-2.8,2.1-4.4,2.6
			c-4.2,1.2-6.6,4-8.4,7.9c-1.1,2.5-0.8,4.8,0.4,7c1.2,0,2.4-0.2,3.5,0c1.8,0.3,3.5-0.1,5.1-0.9c1.7-0.8,3.5-1.7,5.9-1.1
			c-3.6,1.8-6.9,3.4-10.1,5c0,1.3,0,2.2,0,3.2c1.5,1,2.9,2.5,4.5,3.1c2.6,1,5.4,1.4,8.1,2c0-0.4,0.1-0.9,0.1-1.4
			c1.1,0.7,2,1.8,3.1,2c2.2,0.5,4.6,0.8,6.9,0.7c4.3-0.2,8.5-0.1,12.7,1.2c1.4,0.4,2.5,0.3,3.8-0.4c1.9-1.1,6-2.1,7.8-1.9
			c-2.5,1.1-4.6,2.1-6.7,3.1c0,0.2,0.1,0.5,0.1,0.7c2.3-0.2,4.6,0.9,7,0.1c1-0.3,2.1-0.6,3.1-0.6c3.4,0.1,6.7-0.9,10-1.6
			c1.4-0.3,2.1-1,2.4-2.5c0.4-2,1-4,1.6-6.4c-0.4-0.5-1.4-1.2-1.6-2.1c-0.4-1.4-1.2-2.1-2.2-2.5c-2.7-1.3-5.4-2.9-8.6-1.9
			c-0.3,0.1-0.6-0.3-0.9-0.3c-4.2-0.7-8.2-0.7-11.5,2.7c-1.8,1.8-5.4,2.3-6.8,0.6c-1.4-1.7-2.8-2.1-4.6-1.3
			C150.8,121,150.4,120.9,150.1,120.9z M141.2,166.8c-1.1,2.4-2.7,4.3-5.2,5.7c-2.8,1.6-5.6,2.2-8.6,1.8c-1.9-0.3-3.8-0.9-5.7-1.2
			c-0.7-0.1-1.7-0.2-2.3,0.1c-3.3,1.8-5.9,4.4-8.3,7.2c-0.9,1-1.4,2.4-1.6,3.7c-0.4,2.1,0,4.4,1.7,5.7c1.8,1.4,4,2.3,6,3.5
			c4,2.5,8.4,3.3,12.9,4.2c0.9,0.2,1.8,0.4,2.6,0.2c4.1-0.8,8.2-1.6,12.2-2.7c1.5-0.4,2.9-1.5,3.9-2.7c0.8-0.9,1.2-2.4,1.5-3.7
			c0.5-1.8,0.8-3.6,1.1-5.4c0.2-1,0.4-2,0.4-3c0.1-2.1,0.2-4.2,0.2-6.3c-0.1-1.2-0.3-2.6-0.9-3.6c-0.5-1.1-1.4-2.3-3-1.6
			c-0.2,0.1-0.5-0.1-0.6-0.3c-1.2-1.8-2.8-1.5-4.5-1.3C142.5,167.1,141.9,166.9,141.2,166.8z M45.9,124c0.1,0.1,0.1,0.2,0.2,0.4
			c-0.5,0.5-1,1-1.6,1.4c0.7,1.1,1.4,1.6,2.7,1.1c1.4-0.5,2.9-0.9,4.4-1.2c2-0.4,3.3-1.6,4.4-3.3c0.5-0.7,0.9-1.5,1.4-2.2
			c-0.1,3.7-1.8,6.2-6.4,7.5c0.1,0.1,0.3,0.3,0.4,0.3c0.3,0.1,0.7,0.2,1,0.2c2.9,0.2,5.4-0.8,7.8-2.3c2.1-1.3,4.1-2.9,6.3-4.2
			c1.5-0.9,3-1.7,4.6-2.5c0.1,0.2,0.2,0.4,0.3,0.6c-5.9,3-10.4,8.3-17,10.4c1.5,1.7,3,1.7,4.5,0.9c2.4-1.3,4.8-2.8,7.3-4
			c4-1.9,8.1-3.7,12.4-5.6c-0.2-1.2-0.4-2.4-0.6-3.6c-0.9-4.9-3.6-8-8.4-9.1c-1.5-0.3-3-0.8-4.2-1.6c-2.2-1.4-4.2-1.1-6.2-0.2
			c1.4,0.9,3,1.7,4.1,2.9c1.1,1.2,3.3,1.4,3.5,4.1c-1.9-1.4-3.5-2.5-5-3.7c-1.5-1.2-3.1-1.6-4.9-1.8c-1.8-0.3-3.2,0.7-4.8,1
			c-2.1,0.4-3.7,1.4-5.2,2.8c2.2,0.8,4.3,1.4,6.3,2.4c3.7,1.8,7.4,3,11.6,2.3c3.1-0.5,6.2-0.7,9.4-1.1c-1.6,0.6-3.2,1.1-4.9,1.4
			c-5.8,1-11.5,1.5-16.9-1.6c-3.4-2-7-1.7-10.6-0.8c-2.9,0.7-5.8,0.9-8.7,1.3c-0.5,0.1-1.2,0-1.6-0.2c-2.1-1.4-4.4-0.9-6.8-0.9
			c0.4,1.7,0.7,3.2,1.1,4.7c0.4,2.1,1.7,3.5,3.5,4.5c2.6,1.4,5.3,1.2,8.1,1.3c2.5,0,4.6-1.1,6.3-3.1c1.5-1.8,3.1-3.5,4.7-5.2
			c-0.4,3.6-3.2,5.6-5.6,8.5C44.1,124.9,45,124.4,45.9,124z M49.2,139.7c-0.3-2.8-1.9-7.9-3.2-9.7c-0.5-0.6-1.1-1.2-1.8-1.5
			c-1.6-0.6-3.2-1.1-4.8-1.5c-1.1-0.3-2.2-0.5-3.5-0.7c3.6,6.8,4.5,9.5,3.4,11.4c-1.1-2.7-2.2-5.4-3.3-8.1c-0.7-1.5-1.8-2.5-3.6-3
			c-4.5-1.3-8.1-3.8-8.8-9.2c-0.1-0.9-0.4-1.8-0.8-2.6c-0.2-0.5-1-1.2-1.2-1.1c-0.5,0.2-0.9,0.9-1.3,1.4c-0.1,0.1-0.1,0.4-0.1,0.5
			c-0.5,2.9-1,5.8-1.3,8.7c-0.1,1-0.5,2.1,0.4,3.3c0.9-2,1.6-3.7,2.6-6c0.6,3.3-2.1,5.7-0.7,9.1c0.6-1.3,0.9-2,1.3-2.8
			c0.4-0.7,0.4-1.8,1.8-2.1c-0.7,1.9-1.1,3.6-1.9,5.1c-0.8,1.5-0.3,2.3,0.9,3.3c0.6-1.4,1-2.5,1.7-4c0.9,2.3-1.5,4.2,0.2,6.3
			c0.7-1.1,1.2-2.1,1.8-3.1c0.2,0.1,0.4,0.2,0.5,0.2c-0.4,1.3-0.9,2.7-1.3,4c1.6,1.5,3.5,1.7,5.1,2c1.9-1.3,1.1-4,3.7-5.3
			c-0.5,2.1-0.9,3.7-1.3,5.6c2.3,0.1,4.4,0.3,6.6,0.3c1.6,0,2.7-0.9,3.2-2.5c0.3-1.1,0.4-2.2,0.7-3.2c0.1-0.5,0.4-1,0.7-1.5
			c0.2,0.1,0.4,0.1,0.6,0.2c-0.2,2.5-0.5,5-0.8,7.4c0,0.2-0.5,0.4-0.9,0.6c1,1.7,1.9,3.2,2.9,4.8c0.4-0.2,0.8-0.3,1.1-0.5
			c0.2-0.1,0.3-0.4,0.5-0.5c-1.4-2.4-1.4-2.4-1-4.3c0.7,1.3,1.4,2.2,1.8,3.3c0.5,1.3,1.2,1,2,0.7c-0.8-3.9-0.9-3.9-4.1-4.2
			c-0.2,0-0.3-0.2-0.7-0.4C47.4,140.1,48.3,139.9,49.2,139.7z M217.3,141.3c-0.1-0.2-0.2-0.3-0.3-0.5c-0.8,0.3-1.6,0.6-2.4,1
			c-1.9,1.1-3.8,2.4-5.8,3.5c-3.2,1.7-6.1,3.8-9.8,4.3c-2.1,0.3-4.2,0.9-6.2,1.4c-1.6,0.3-2.8,1.2-3.7,2.5c-1.4,1.9-2.6,3.9-3.9,5.9
			c-0.5,0.8-1,1.5-1.5,2.3c-0.5,0.8-0.9,1.6-1.3,2.4c0.6-4.8,3.8-8.1,5.9-12.2c-2.7,0.1-4.4,1.4-5.5,3.6c-1.3,2.5-2.5,5.1-3.6,7.7
			c-0.4,0.9-0.4,2-0.3,2.9c0.2,1.7,0.6,3.4,1,5.1c0.2,0.7,0.5,1.4,0.9,2.5c1.6-2.2,3-4.1,4.3-5.9c0.1,0.1,0.2,0.1,0.3,0.2
			c-0.4,1-0.7,1.9-1.1,2.9c0.1,0.1,0.2,0.1,0.3,0.2c1.3-1.6,2.6-3.3,3.9-4.9c0.2,0.1,0.3,0.3,0.5,0.4c-1.4,2.4-2.9,4.9-4.3,7.3
			c0.2,0.1,0.3,0.3,0.5,0.4c2.5-3.3,5-6.5,7.4-9.8c0.2,0.1,0.4,0.3,0.6,0.4c-1.3,2.1-2.6,4.3-3.9,6.4c2.9-2.7,5.4-5.6,8-8.5
			c1.4-1.6,3-5.3,3.1-7.7c-3.5,1.3-5.9,4-8.7,6.4c-0.1-0.1-0.2-0.3-0.4-0.4c1.4-1.5,2.8-3.1,4.7-5c-2.9,1.1-5.3,2-7.7,2.8
			c-0.1-0.2-0.2-0.5-0.2-0.7c3.5-1.5,6.9-3.4,10.6-4.4c5.8-1.6,10.5-4.9,15-8.7C214.9,143.9,216,142.6,217.3,141.3z M67.6,104.5
			c3.1,2,6.5,2.4,9.9,2c2.5-0.2,4.9-0.6,7.4-0.8c1.1-0.1,2.3-0.2,3.4-0.3c0,0.3,0.1,0.6,0.1,0.8c-5.1,0.2-10,2.3-15.2,1.8
			c1.8,0.7,3.7,1.2,5.5,1.8c3.7,1.2,7.4,1.5,11.2,1.6c1.9,0.1,2.2-0.3,2.9-2.8c-0.9,0.2-1.8,0.5-3.2,0.8c2.4-2.7,5.7-3.3,7-6.4
			c-1.9,1-3.9,2.1-5.8,3.1c-0.1-0.2-0.2-0.4-0.3-0.6c3.5-2.3,7-4.7,10.5-7c-0.1-0.1-0.1-0.3-0.2-0.4c-1.7,0.5-3.5,1.1-5.2,1.6
			c-0.1-0.2-0.1-0.3-0.2-0.5c2.2-1,4.4-2,6.8-3.2c-0.5-0.2-0.7-0.4-0.9-0.4c-0.5,0-1.1-0.1-1.6,0c-5.7,0.9-11.4,1.7-16.9,3.9
			c-1.1,0.4-2.2,0.9-3.8,0.5c1-0.4,1.7-0.6,2.3-0.9c7.1-3,14.4-4.6,22.1-4.6c1.5,0,2.5-0.3,3.5-1.9c-2.1-0.4-3.9-0.9-5.7-1.1
			c-1.7-0.2-3.6-0.3-5.3,0c-2.2,0.4-4.3,1.1-6.4,1.8c-1.3,0.5-2.5,1.2-3.8,1.9c-1.7,0.9-3.4,1.9-5.3,2.5c-3.3,1.2-6.4,2.6-9.9,4.6
			c4.2,0.1,7.9-1.2,11.7-0.3C77.3,103.1,72.4,103.8,67.6,104.5z M11.7,100.2c0.8-1.7,1.6-2.5,1.4-4c-0.6-4-0.8-8-1.1-12.1
			c-0.1-2.3-0.1-4.5-0.1-6.9c-2.1,1.1-2.8,2.8-2.4,5c0.2,1.5,0.5,3.1,0.4,4.6c-0.3,3.7-0.8,7.5-1.1,11.2c-0.2,2.5-0.3,5.1-0.4,7.6
			c-0.3-0.4-0.5-0.7-0.4-1.1C8.2,99,8.4,93.4,8.7,87.8c0.1-2.1-0.2-4.1-0.9-6.1c-1.3,2.6-2.9,5.1-2.9,8.1c0,6.4,1,12.8,0.1,19.3
			c0,0.2,0,0.4,0,0.5c0.6,1.9,0.4,4.1,2.2,5.7c1.4-2.4,1.8-5.3,3.7-7.7c0,0.7,0.1,1,0,1.2c-0.5,1.7-1.1,3.3-1.7,4.9
			c-0.9,2.6-0.3,3.9,2.4,4.8c0-0.3,0.1-0.5,0.1-0.8c0.3-4.5,1.4-8.5,5.8-10.6c0.3-0.1,0.5-0.5,0.7-0.8c1.2-2,2.3-4,0-6
			c-0.1-0.1-0.1-0.2-0.1-0.2c-0.9-1.6-1.8-1.9-3.5-1.3C13.7,99.2,13,99.6,11.7,100.2z M120.6,129.5c-1.9-2.7-3.7-5.6-4.6-8.9
			c-0.3-1.3-0.9-2.8-0.6-4c0.6-2.2,1.7-4.2,2.7-6.2c1.3-2.5,3.4-3.9,6-4.6c1.5-0.4,3-1.2,4.3-2.1c2.2-1.5,4.2-3.4,6.4-5
			c2.6-2,5.5-3.5,8.9-2.8c2.4,0.5,4.7,0.6,6.9-0.9c0.6-0.4,1.5-0.6,2.3-0.7c4.1-0.4,8.1-0.7,12.2-0.9c1-0.1,1.9,0,3.1,0
			c-1.6-1.6-3.1-3.3-5.2-3.3c-5,0.1-9.9,0.7-14.7,2c-3,0.8-6,1.8-9,2.5c-6.6,1.6-12.3,4.8-17.1,9.7c-3.6,3.7-6.8,7.7-10.3,11.5
			c-1.9,2-2.6,4.1-1.8,6.4C113.7,124.8,117.1,127.1,120.6,129.5z M85.6,32.1c1.3,3.1,3.6,5.6,4.1,9.1c-0.8-0.8-1.4-1.8-2-2.8
			c-0.8-1.3-1.6-2.7-2.5-3.9c-1.9-2.4-2.6-2.4-5.6-0.7c1,1.7,2.1,3.5,3.1,5.2c-0.1,0.1-0.2,0.2-0.3,0.3c-1.6-1.8-3.2-3.5-4.9-5.5
			c-1.8,0.4-3.8,0.9-5.9,1.4c2.1,3,3.8,5.8,5.8,8.4c1.4,1.8,4.1,2.7,6.3,2.4c-1.6-1.9-3.1-3.7-4.7-5.6c2,1.1,3.6,2.5,5.2,4
			c1.6,1.5,3.1,3.2,5.6,3.2c-1.2-2.2-2.3-4.2-3.4-6.2c0.1-0.1,0.3-0.2,0.4-0.3c0.5,0.7,1,1.4,1.6,2c1.7,1.8,3.5,3.7,5.2,5.5
			c0.4,0.4,1,0.5,1.6,0.8c0.2-5.8-2.5-12.8-6.2-16.5C87.9,31.9,86.9,31.5,85.6,32.1z M91.8,177.2c1.8-2.1,1.9-2.3,1.5-3.6
			c-0.5-1.7-1.1-3.5-1.8-5.5c-3.3,2-6.8,1.9-10.2,1.4c-3.7-0.5-6.4,0.9-9.2,3.5c0.2,2.4,0.4,4.9,0.7,7.5c0.1,0.6,0.7,1.4,1.2,1.6
			c1.3,0.4,2.7,0.6,4.5,0.9c-1.5-3.3-3.2-6.2-2.7-9.6c0.6,1,0.9,2,1.3,3c0.9,1.9,1.8,3.8,2.8,5.6c0.6,1.2,1.6,1.7,3,1.2
			c-0.8-2.7-3-4.9-2.7-8c1.5,2.4,3,4.7,4.5,7.2c0.8-0.5,1.4-0.8,1.9-1.2c-1-2.9-2.8-5.3-2.9-8.4c1.4,2.4,2.9,4.7,4.4,7.2
			c0.8-0.5,1.4-0.9,2.2-1.4c-1.1-2-2.2-3.9-2.3-6.5C89.7,173.7,89.9,176.2,91.8,177.2z M121.9,167.9c0.1,0.2,0.2,0.3,0.4,0.5
			c-1.1,0.9-2.4,1.2-3.7,1.6c-1.7,0.4-3.5,0.8-5.1,1.4c-1.7,0.7-3.1,1.9-3.9,3.8c1.6-0.1,3.1,0.1,4.3-0.4c1.5-0.6,2.8-1.6,4-2.7
			c1.4-1.3,2.8-1.3,4.4-0.7c2,0.6,4.1,1.1,6.2,1.5c1.8,0.3,3.5-0.1,5-1.3c-1.9,0.3-3.4,0-4.5-1.8c-0.2-0.4-0.7-0.8-1-0.8
			c-1.6-0.2-2.3-1.3-2.8-2.7c-0.2-0.5-0.6-0.9-1-1.2c-1.9-1-3.7-2.2-5.7-3c-1.8-0.7-2.8,0-3.5,1.9c-0.2,0.7-0.5,1.5-0.8,2.6
			c-0.4-1.1-0.7-1.8-0.9-2.5c-1,0.3-1.8,0.7-2.7,0.9c-2,0.4-4,0.6-6,0.9c-1.4,0.2-2.5,0.9-2.7,2.6c2,1.9,4.1,3.5,6.8,4.1
			c1.3-2.1,2.5-4.2,3.7-6.2c0.2,0.1,0.3,0.2,0.5,0.2c-0.4,1.1-0.8,2.3-1.2,3.5C115.2,169.3,118.6,168.6,121.9,167.9z M143.1,164.9
			c0.1-0.1,0.2-0.1,0.4-0.2c-0.1-1.3-0.2-2.5-0.4-4.1c1.8,1.6,1.1,4.4,3.5,5.3c0.7-2.8-0.3-4.7-2.5-6.7c3.1,1.4,5.6,2.5,8.1,3.6
			c0.5,0.2,1.1,0.4,1.3,0.9c1.6,2.2,3.6,2.2,5.5,1.3c1.5,1.2,2.8,2.2,4.3,3.4c0.3-0.9,0.9-2,0.7-2.2c-1.7-1.5-0.1-2.9-0.1-4.4
			c0.1-1,0-1.9,0-3.3c-1.7,0.9-3,1.6-4.3,2.4c-3.5,2-4.5,1.9-7.2-1.1c-2.2-2.4-5.2-3.5-8-4.9c-0.7-0.3-1.6-0.2-2.4-0.2
			c-2.6,0.1-4.6,1.7-6.5,3.2c-1,0.8-1.3,2.4-2.1,3.9c2.9,1.1,4.3,3.4,5.2,6.1c0.7-1.6,1.3-3.2,2.1-5.1c-0.2-0.9-0.5-2.1-0.8-3.3
			c0.2-0.1,0.3-0.1,0.5-0.2C141.4,161.2,142.2,163.1,143.1,164.9z M118.6,52.3c0.2-0.5,0.5-1,0.7-1.5c1-2.9,2.7-5.1,5.2-6.8
			c1.7-1.2,3.3-2.5,4.9-3.8c2.4-2,4.8-4.1,7.3-6c2.7-2,2.8-2.2,1.2-5.3c-0.3-0.6-0.7-1.2-1.2-1.9c-0.7,0.5-1.3,0.9-1.9,1.2
			c-0.5,0.3-1.1,0.6-1.6,1c-0.1-0.2-0.2-0.4-0.4-0.5c1-1,2-1.9,3.1-3c-1.2-1.2-2.2-2.3-3.5-3.7c-0.8,1.6-1.9,2.9-1.8,4.2
			c0.1,1.3-0.4,1.8-1,2.5c-4.1,4.8-7.8,9.8-10.8,15.4c-1.1,2-1.2,2.3-1.1,4.3c2.9-5,6.8-8.9,11.1-12.4
			C125.1,41.1,119.9,45.4,118.6,52.3z M83.8,190.5c-0.6,2.1-1.4,4.3,0.9,6.3c1.6,1.4,2.7,1.6,4.2,0.1c0.7-0.7,1.2-1.6,1.6-2.5
			c0.9-1.9,1.7-3.8,2.4-5.6c-1.4-0.8-2.6-1.4-3.9-2.1c0.1-0.2,0.1-0.3,0.2-0.5c1,0.2,2,0.6,3,0.7c0.8,0.1,1.8,0.2,2.3-0.2
			c2-1.6,3.9-3.4,5.6-4.9c-2.1-1.6-4-3-5.8-4.4c-1,0.8-2,1.7-3.1,2.4c-3.2,2.2-5.9,4.7-6.7,8.6c0.9,2.8,3.7,2.7,5.5,4.1
			c-0.1,0.2-0.2,0.3-0.2,0.5C87.9,192.2,86,191.4,83.8,190.5z M149.2,154.6c0,0.1-0.1,0.3-0.1,0.4c2,1.6,3.9,3.3,6,4.8
			c0.9,0.7,1.9,0.8,3,0.1c1-0.6,2.1-1.1,3-1.8c2.6-2.1,5.3-1.6,8.1-0.3c1,0.5,1.8,1.1,2.7,1.8c1.9,1.4,3.7,2.8,5.8,4.3
			c1.2-3.2,2.3-6.2,3.6-9.7c-1.6,0.7-2.7,1.2-3.8,1.8c-0.1-0.2-0.1-0.3-0.2-0.5c2.4-1.4,4.7-2.8,7.1-4.2c-6.8,1.3-13.5,2.6-20.2,4
			c-2.9,0.6-5.8,0.6-8.8,0.1C153.2,155.1,151.2,154.9,149.2,154.6z M59.1,133c5.2,0.2,9.9,0.4,14.8,0.5c-0.3-1.1-0.6-2-0.9-3.1
			c1.8,1,1.7,4,4.5,3.6c-0.7-1.8-1.3-3.5-1.9-5.1c2.2,1.6,2,4.8,4.7,5.8c-1-2.3-2.1-4.7-3.1-7c0.2-0.1,0.3-0.2,0.5-0.3
			c0.3,0.5,0.6,1,0.9,1.5c0.9,1.8,1.8,3.6,2.7,5.4c0.5,1,1.2,1.6,2.3,1.7c0.1,0,0.3-0.2,0.7-0.6c-0.7-0.4-1.3-0.8-1.7-1
			c0.1-0.6,0.4-1.4,0.1-1.7c-1.5-1.6-1.1-3.9-2.2-5.5c-0.9-1.4-1.8-2.7-1.7-4.6C71.5,125,65.5,128.9,59.1,133z M181.5,98.7
			c0.2,2.4,0.6,4.5,0.6,6.6c0.1,3.3,1.5,6.2,2.2,9.3c0.2,1,0.8,1.5,1.7,1.3c1.1-0.2,0.9-1.1,0.8-2c-0.1-0.9-0.2-1.8-0.2-2.8
			c0.2,0,0.3,0,0.5-0.1c0.5,1.5,1,2.9,1.6,4.7c1.6-2.2-0.1-4.4,1.1-6.8c0.6,2.1,1,3.7,1.5,5.5c1.8-2,1.1-11.2-1-16.7
			c-0.8-0.1-1.6-0.2-2.5-0.3c0.4,3.6,0.7,6.8,1.1,10.1c-0.2,0-0.4,0.1-0.7,0.1c-0.7-3.3-1.3-6.6-2-9.9c-0.3,0-0.6,0-0.8,0.1
			c-0.2,0.1-0.4,0.4-0.4,0.6c0,0.5,0.2,1.1,0.3,1.6c0.2,2.5,0.6,5-0.1,7.4c-0.5-3.1-1-6.1-1.6-9.3C182.9,98.5,182.3,98.6,181.5,98.7
			z M74.2,88.4c0.6-2.3,1.2-4.4,0.6-6.7c-2-0.9-3.9-1.7-5.9-2.6c-0.7,1.4-1.4,2.6-2,3.9c-0.3-0.3-0.6-0.4-0.6-0.5c0-0.4,0-0.7,0.2-1
			c2-4.1,1.1-4.3-2.1-6.2c-0.5-0.3-1.1-0.7-1.6-0.9c-0.5-0.2-1.1-0.1-1.8-0.1c-0.3,2.7,0.1,5.4-2,7.6C64.1,84.4,68.8,86.9,74.2,88.4
			z M98.6,137.6c-0.2,0.2-0.4,0.5-0.6,0.7c1,0.9,1.9,1.8,2.9,2.7c2.3,2.1,4.8,4,6.8,6.3c2.2,2.4,4.5,4.1,7.7,4.3
			c1.7,0.1,3.4-0.1,5.1-0.1c0.4,0,0.8,0.2,1.2,0.3c0,0.2,0,0.4,0,0.6c-2.4,0.3-4.8,0.5-7.3,0.8c2.8,3.6,4.2,4,9.4,2.9
			c-0.6-0.8-1.1-1.6-1.8-2.5c2,0.8,3.9,1.6,5.8,2.4c1.8,0.7,3.4,2,5.5,1.5c-0.3-0.5-0.7-0.7-1.1-1c-1.8-1-3.8-1.7-5.4-2.9
			c-2.9-2.3-6.2-3.5-9.5-4.6c-5.2-1.7-10.1-3.9-14.3-7.6C101.6,140.1,100.1,138.9,98.6,137.6z M118.6,85.7c-0.1-0.2-0.2-0.5-0.3-0.7
			c-1.8-0.6-3.3,0.7-5,1.1c-1.7,0.4-3.3,1-5,1.5c-0.1-0.2-0.1-0.4-0.2-0.5c2.2-1,4.5-1.9,6.9-2.9c-3.7-2.3-10.8-3.8-14.5-3.1
			c-0.1,1.5-0.3,3.1-0.4,4.8c0.9,0.8,1.7,1.6,2.7,2.6c0.9-1.5,1.8-2.8,2.8-4.5c0.5,2.3-1.1,3.6-1.3,4.9c1.7,0.5,3.4,0.7,4.9,1.4
			c1.8,0.8,2.6,0.8,3.8-0.8c0.4-0.5,0.9-1,1.5-1.3C115.9,87.2,117.3,86.4,118.6,85.7z M53.4,57c-0.1-0.2-0.1-0.3-0.2-0.5
			c-2.1,0.4-4.3,0.7-6.4,1.1c-0.9,0.1-1.8,0.6-2.6,0.3c-1.6-0.5-2.8,0.1-3.9,1.1c-2,1.9-3.6,4.2-5,7c2.5-1,4.8-1.8,7.3-2.8
			c-0.3,0.6-0.3,1.1-0.6,1.3c-2.7,2.1-3.7,5.2-3.7,8.4c-0.1,2.6-0.1,5.1-0.8,7.6c0,0.1,0.2,0.2,0.4,0.5c0.3-0.4,0.6-0.8,0.7-1.2
			c0.3-1.8,0.6-3.6,0.6-5.4c0-2.9,0.7-5.4,3.1-7.2c0.7-0.5,1.3-1.2,1.9-1.9c1.2-1.3,1.8-2.7,1.3-4.5c-0.1-0.4,0.1-0.9,0.1-1.4
			c0.2,0,0.4-0.1,0.6-0.1c0.4,1,0.8,1.9,1.2,2.9C49.5,60.5,51.5,58.8,53.4,57z M75.1,69.8c-3.4-4.4-12.5-4.2-19.5,2.7
			c1.5,0,2.6-0.1,3.7,0c1.3,0.1,2.8,0.1,3.9,0.6c3.4,1.8,6.3,0.8,9.2-1.3C73.2,71.2,74.1,70.5,75.1,69.8z M102.7,138.4
			c0.3,0.8,0.3,1.1,0.4,1.3c2.7,2.4,5.6,4.6,8.9,5.8c1.9,0.7,3.9,1.3,5.8,2.1c5.1,2.2,10.2,4.3,15.2,6.6c2.7,1.3,4.8,0.6,7.2-1.2
			c-2.3-0.6-4.2-1.1-6.2-1.6c-7-2-14-4.1-20.4-7.9C110.3,141.5,106.6,140.2,102.7,138.4z M27.2,97.8c2.6-2.3,5-4.2,7.1-6.3
			c1.2-1.2,2.5-1.9,4-2.6c2.8-1.3,5.7-2.5,8.1-4.6c1.7-1.6,3.1-4.8,2.9-7.4c-2.8,1-5.4,2.3-7.5,4.4c-1.6,1.6-3,3.5-4.8,4.7
			c-1.8,1.2-3.2,2.5-4,4.5c-0.1,0.4-0.6,0.7-0.9,0.9C29.8,92.8,28.6,95.1,27.2,97.8z M107.9,173.5c-3.1-1.1-6.1-2.3-8.1-5.4
			c-1.6,2.3-3.1,4.4-4.5,6.3c1.2,3.3,3.3,5.1,6.5,5.8C103.9,178,106.5,176.5,107.9,173.5z M7.9,118.6c-3.3,3.1-3.6,4.9-1.3,8.2
			c0.8,1.2,1.9,2.2,2.9,3.1c0.9,0.7,1.6,1.3,0.9,2.8c-2.3-1-3.2-3.2-4.9-5.4c0.6,3.6,2.8,5.3,4.7,7.8c0.5-1,0.9-1.7,1.1-2.5
			c1-2.8,0.4-5.6,0.6-8.5c0.1-1.9-0.8-3.1-2.1-4.2C9.1,119.5,8.6,119.1,7.9,118.6z M51.4,76.4c-0.8,2.9-1.4,5.2-2.1,7.7
			c1.2-0.4,2.3-1,3.4-1c2.7,0,4.3-1.6,6-3.6c-0.6-0.9-1.1-1.7-1.9-2.9c1.2,0.4,1.9,0.6,2.7,0.8c0.2-1.1,0.3-2.1,0.5-3.1
			C56.4,73.6,53.6,74.5,51.4,76.4z M117.3,65.1c0.2,0.1,0.4,0.2,0.5,0.3c2.9-5.5,5.7-11,8.6-16.5c0.7-1.3,1.3-2.8,2.4-3.6
			c2.5-1.8,3.4-4.7,5.4-6.9c-1.3,0.7-2.5,1.5-3.4,2.5c-2.5,2.6-5,5.3-7.4,7.9c-1.2,1.3-2.1,2.7-2.3,4.5c-0.2,1.4-0.7,2.8-1.1,4.2
			C119,60.2,118.1,62.6,117.3,65.1z M34.8,83.2c0.2,0,0.4,0,0.6-0.1c0.4-2.8,0.7-5.5,1.2-8.3c0.5-2.7,1.1-5.4,1.6-8.3
			c-3.4,0.8-4.6,3.8-5.8,6.6C30.7,77,32.9,80.1,34.8,83.2z M192.7,98.8c-0.2,0.1-0.5,0.1-0.7,0.2c0.7,4.7,1.3,9.4,2,14.2
			c1.8,0.1,2.3-0.7,2.4-2.1c0-1.3-0.3-2.7,0.8-3.8c0.8,1.5-0.2,3.3,1.2,5.1c0.7-3.6,0-6.6-1-9.5c-0.3-0.9-1.3-1.5-2.2-2.5
			c0,1.6,0,2.5,0,3.8C193.9,102.2,194.3,100,192.7,98.8z M77.3,111.3c1.8,3.5,1.8,7.6,4.4,10.9c0.5-0.7,0.8-1.4,1.3-1.8
			c0.7-0.5,1.6-0.7,2.5-1c-0.1-0.9-0.2-1.7-0.2-2.5c-0.7,0.1-1.2,0.2-2.2,0.3c0.9-0.8,1.4-1.3,1.8-1.7
			C84.2,111.4,81.9,111.6,77.3,111.3z M197.5,61c-0.9,3.7-1.8,6.9-2.6,10.3c1.6,1.9,3.2,3.9,4.8,5.8C200.7,71.7,200.6,66.4,197.5,61
			z M88.7,92.2c1.8-0.5,3.8-0.4,4.9-1.5c1.4-1.3,2.7-1.2,4.1-0.9c3,0.6,5.8,1.5,8.8,2.2c0.6,0.2,1.2,0.3,1.8,0.4
			c-1.7-1.1-3.4-1.9-5.2-2.8c-1.5-0.8-2.6-2.7-4.7-2c-0.1,0-0.3-0.3-0.6-0.5c-2-1.2-4.1-1.1-6.3-0.7c-0.2,0-0.5,0.3-0.6,0.5
			C90.3,88.6,89.6,90.2,88.7,92.2z M106.4,187.4c0-0.1,0-0.3,0-0.4c-1.6,0.2-3.2,0.9-4.7,0.6c-2.1-0.4-3.8,0.3-5.7,1
			c-2.9,1.1-3.2,3.6-4,6.3c1.4,0,2.5,0.3,3.7-0.4c-0.7-0.4-1.2-0.7-1.6-0.9c2-0.5,4-1,5.9-1.5c1.9-0.6,3.8-1.2,5.7-1.9
			c-0.1-0.2-0.1-0.4-0.2-0.6c-2.7,0.4-5.3,0.8-8,1.2c0-0.2-0.1-0.4-0.2-0.6C100.4,189.3,103.4,188.4,106.4,187.4z M4,95.2
			c-0.2,0-0.4-0.1-0.6-0.1c-1,2.5-1.5,5-1.2,7.7c0.5,3.5,0.8,7.1,1.2,10.6c0.3,2.5,0.7,4.9,1.2,7.7c0.9-1.4,1.5-2.5,2.3-3.7
			c-2.4-2-2.7-4.7-2.7-7.5c0-1.6,0.1-3.1,0.1-4.7C4.2,101.9,4.1,98.5,4,95.2z M108.6,149.8c0.2,1.3,0.4,2.3,0.5,3.3
			c0.3,2.8,2,5.1,3.2,7.5c0.6,1.1,1.8,1.1,2.4,0.1c0.8-1.4,0.4-4.9-0.8-6.1C112.3,153.1,110.5,151.6,108.6,149.8z M120.2,158.2
			c2.8,3.2,5.8,6.1,9.2,8.4c-1.3-1.5-2.6-3-3.9-4.4c0.1-0.1,0.2-0.2,0.3-0.3c2,1.3,4,2.6,6,3.9c0.1-0.7,0-1.1-0.2-1.3
			c-2.1-2.1-4.3-4.1-6.5-6.1c-0.4-0.4-1.1-0.5-1.7-0.5C122.3,157.8,121.3,158,120.2,158.2z M179.5,99.2c-0.2,0-0.4,0.1-0.6,0.1
			c-0.1,0.3-0.3,0.6-0.3,1c-0.2,2.3-0.4,4.5-0.5,6.8c0,1-0.2,2.1,1.3,2.4c0.3,0.1,0.6,0.9,0.7,1.4c0.4,1,0.8,2.1,1.1,3.1
			c0.3,1,0.9,1.2,1.9,0.8c-0.2-0.9-0.1-2-0.5-2.4c-1.4-1.2-1.1-2.8-1.3-4.3c-0.5-2.5-0.8-5.1-1.2-7.6
			C180,100.1,179.7,99.7,179.5,99.2z M129.1,81.8c0-4.6,0-8.5-0.1-12.5c-0.1-1.6-1-2.7-2.3-3.9c-0.3,2.4,0.4,13.5,1,14.8
			C127.9,80.6,128.4,81,129.1,81.8z M156.8,76.3c0-4.1-0.1-8.1-0.1-12.7c-0.6,1.7-0.8,2.8-1.4,3.7c-1.8,2.8-1.7,5.7-0.9,8.7
			c0.1,0.3,0.2,0.5,0.4,0.8C155.4,76.6,156.1,76.5,156.8,76.3z M99.1,81c-1.3,0-2.5,0-3.7,0c-3,0.2-3.1,0.4-3.6,4.1
			c2.3,0,4.6,0,7-0.1C98.8,83.7,98.9,82.5,99.1,81z M211.9,109c2.5-0.1,3.4-1.8,4-3.6c0.2-0.7-0.2-1.8-0.6-2.5
			c-0.2-0.3-1.2-0.1-1.8-0.2c-0.1,1.6-0.2,2.9-0.2,4.2c-0.1,0-0.2,0-0.3,0c-0.5-1.2-0.9-2.5-1.5-3.9c-0.9,0.4-1.5,0.6-2.1,0.9
			c0.1,2.2,0.2,4.2,0.3,6.2c0.6-0.6,0.8-1.3,1-2.1c0.3-0.7,0.2-1.8,1.5-1.9C212.2,107.1,212,108,211.9,109z M37.1,181.3
			c-0.8-1.8-1.7-2.4-3.4-2.5c-1.5,0-3-0.4-4.3-1c-1.8-0.8-3.5-2-5.2-3.1c-0.2-1.3,1.7-2.4,0.3-3.8c-1.3,2-1.3,3.9,0,5.2
			c1.3,1.2,2.4,3.1,4.7,2.5c0.5-0.1,1.2,0.4,1.7,0.8C32.6,180.9,34.7,181.1,37.1,181.3z M158.9,67.9c-0.5,2.9-1.2,5.6-0.1,8.5
			c0.8-0.1,1.5-0.2,2.1-0.2C162.2,70.8,161.8,69.2,158.9,67.9z M210.3,79.5c0.3,3.4-0.9,7.4,2.8,9.9
			C213.3,85.6,213.9,81.9,210.3,79.5z M201.8,104.1c0.7,3.2,0.8,6.3-0.1,9.5c1-0.5,2-0.9,2.3-1.7c1-2.1,1.2-4.3,0.3-6.7
			C203.8,104,203.2,103.8,201.8,104.1z M125,65.4c-1.1,1.7-1.9,3.2-1.4,5.2c0.3,1.3,0.2,2.7,0.3,4.1c0.1,1.3,0.2,2.6,0.4,3.8
			c0.1,0.8,0.6,1.2,1.4,1.1C125.6,74.9,125.3,70.3,125,65.4z M206.4,144.3c-5.5,1.8-11.1,3.5-16.6,5.3c1.2,0.1,2.3,0,3.5-0.2
			c2.3-0.5,4.5-0.9,6.8-1.4C202.4,147.3,204.6,146.2,206.4,144.3z M68.4,134.6c1.3,1.9,2.5,3.6,3.6,5.3c0.2,0.3,0.4,0.6,0.6,0.9
			c0.7,0.8,1.4,0.9,2.4,0.1c-0.8-1.6-1.7-3-2.5-4.6C71.8,134.6,70.6,133.9,68.4,134.6z M136.1,80.7c1.1-2.3,1.2-8,0.3-12
			c-0.6,1.1-1.3,1.8-1.4,2.5C135,74.2,135.2,77.2,136.1,80.7z M111,72.3c-0.7-1.8-0.7-1.8-1.5-2.2c-2.1-0.8-3.9,0.2-5.7,1
			C105.8,75.1,108.6,72.7,111,72.3z M205.8,104.7c0.1,1.1,0.2,2.3,0.2,3.4c0,1.2-0.2,2.4-0.3,3.9c0.8-0.3,1.3-0.3,1.5-0.6
			c1.3-1.3,1.7-4.8,0.9-6.4C207.6,103.9,206.9,104.1,205.8,104.7z M200.1,161.1c3.2-1.9,5.3-4.1,5.2-8.2
			C202.4,155.1,200.8,157.6,200.1,161.1z M96.3,57.3c-0.7-1.5-1.4-3-2.1-4.6c-1.6,1-2.9,1.8-4.6,2.8c2.3,0.8,4.1,1.4,6,2.1
			C95.7,57.5,95.9,57.4,96.3,57.3z M106.1,183.2c-5.2-0.5-5.3-0.5-8.8,2.8c2.6-0.2,5.2-0.4,7.8-0.6c0-0.2,0-0.4,0-0.6
			c-1.2,0-2.4,0-3.6,0c0-0.1,0-0.2,0-0.2C102.9,184.2,104.5,183.7,106.1,183.2z M41.3,178.1c1.5,1.6,2.9,3.2,4.4,4.8
			c0.6-0.1,1.4-0.1,2.4-0.2c-1.2-1.6-2.3-2.9-3.3-4.2C43.6,177,43.6,177,41.3,178.1z M199.5,111.8c2.2-2.5,2.4-2.6,1.9-4.2
			c-0.4-1.5-0.1-3.5-2.5-4.5C199.1,106.1,199.3,108.7,199.5,111.8z M37.3,178.9c1.6,2,3.8,3.2,6.2,3.3c-0.7-0.8-1.3-1.5-1.9-2.3
			C39.9,177.8,39.9,177.8,37.3,178.9z M83.7,54.7c4.1,0.7,6.5-0.4,8.9-3.8C89.6,52.2,86.9,53.3,83.7,54.7z M225.3,105.7
			c0.1-0.2,0.3-0.5,0.4-0.7c-1-0.9-2-1.9-3.1-2.8c-0.2-0.2-0.6-0.1-1.2-0.3c0.7,1.7-0.1,2.8-1.1,3.9
			C222.3,106.9,223.7,105.3,225.3,105.7z M169.6,160.5c-0.7,1.9-1.3,3.6-2,5.4c1,0.1,1.6,0.2,2.3,0.3c0.6-1.6,1.1-3.1,1.6-4.6
			C170.9,161.3,170.4,161,169.6,160.5z M59.5,42.6c-2-1.5-4.3-1.3-6.4-1.8c0.4,0.8,0.8,1.6,1.1,2.3C58.1,43.4,58.1,43.4,59.5,42.6z
			 M90.2,116.3c0.2-0.9,0.4-1.9,0.6-3.4c-1.4,1-2.2,1.7-3.2,2.3c-1.4,0.8-1.5,1.8-0.8,3.2C88.1,117.6,89.1,117,90.2,116.3z
			 M89.3,63.3c-3.1-1.4-6.1-0.9-9.1,0C83.2,63.8,86.3,64.3,89.3,63.3z M216.8,102.3c0.2,1.7,0.4,3,0.5,4.4c1.9-0.4,2.3-1.3,2.1-4.7
			C218.6,102.1,217.8,102.2,216.8,102.3z M96.4,170.4c-0.6-1.3-1.2-2.4-1.7-3.5c-1.3,0.1-2,0.6-1.7,1.8c0.4,1.3,1,2.4,1.6,4
			C95.4,171.7,95.8,171.1,96.4,170.4z M57.3,146.8c0.2-0.1,0.4-0.3,0.6-0.4c-0.9-1.5-1.9-3-2.7-4.5c-0.7-1.4-1.7-1.7-3.3-1
			C53.7,143,55.5,144.9,57.3,146.8z M126.9,157.3c1.3,1.9,2.7,3.7,5.1,5C131.9,158.4,128.6,158.7,126.9,157.3z M191,172.3
			c4.1-0.7,5-3.9,6.4-6.6C195.4,167.8,193.4,169.8,191,172.3z M204,159.4c-2.8,2.3-4.4,4.9-4.4,7.3
			C201.4,164.4,203.1,162.5,204,159.4z M73.1,134.9c1.6,1.8,2,4.6,4.5,5.7C76.1,138.7,76.3,135.4,73.1,134.9z M168.5,159.2
			c-1.2,0-1.9,0-2.8,0c0.3,1.8,0.6,3.5,0.9,5.1c0.2,0,0.4,0,0.6,0C167.6,162.8,168,161.2,168.5,159.2z M150.4,166.8
			c0-1.3,0-2.3,0-3.4c-0.9-0.3-1.6-0.5-2.4-0.7C148.2,166.2,148.2,166.2,150.4,166.8z M80.4,140.7c-2.1-5-2.1-5-3.8-5
			C77.8,137.5,78.4,139.7,80.4,140.7z M101.1,68.8c2.1,1.8,2.2,1.8,4.4,0.1C104.2,67.3,102.8,67.3,101.1,68.8z M89.8,64.6
			c4.1,0.6,4.5,0.5,5.7-1C93.6,63.2,91.8,63.1,89.8,64.6z M178.1,75.3c0.5,0.1,1,0.4,1.5,0.4c0.4-0.1,0.9-0.4,1.2-0.7
			c0.1-0.2-0.2-0.8-0.5-1.1c-0.7-0.7-1.5-1.2-2.3-1.9c-0.1,0.4-0.2,0.6-0.1,0.9C177.9,73.6,178,74.4,178.1,75.3z M199,123.2
			c-0.1-0.3-0.2-0.6-0.4-0.9c-2.5,1.1-5,2.2-7.6,3.4c0.1,0.2,0.2,0.4,0.2,0.6C193.9,125.2,196.5,124.2,199,123.2z M130.7,72.9
			c-0.2,0-0.4,0-0.6,0c0.3,2.7,0.6,5.5,0.9,8.2c0.5-0.3,0.6-0.5,0.6-0.7C132.3,77.7,130.3,75.5,130.7,72.9z M199.5,80.5
			c-1.1-1.9-1.9-3.3-3-5.2C196.5,79.8,196.5,79.8,199.5,80.5z M96.3,164.7c-0.7,1.8,0.3,2.5,1,3.5c0.8-0.6,1.4-1,2.3-1.7
			C98.4,165.9,97.6,165.4,96.3,164.7z M110.3,67c-1.5-1.4-2.9-1-4.5,0C107.4,67.6,108.6,68.5,110.3,67z M214.4,86.4
			c-0.2,0-0.4,0.1-0.6,0.1c0.7,2,0,4.5,2.2,6.4C215.4,90.6,214.9,88.5,214.4,86.4z M161.7,186.1c0.1-0.9,0.2-1.9,0.1-2.8
			c0-0.9,0.7-2.1-1-2.9C160.8,182.5,160.5,184.3,161.7,186.1z M94.9,60.2c-1.6-0.2-3.1-0.3-4.5,1C92.2,61.9,93.6,61.3,94.9,60.2z
			 M107.8,181.3c0-0.2,0-0.4,0-0.5c-3.7-0.8-3.7-0.8-4.5,0.8C104.9,181.5,106.4,181.4,107.8,181.3z M177.8,105.3
			c-0.3-1.7-0.6-3.5-0.8-5.2c-0.1-0.9-0.6-1.3-1.9-0.6C177.4,100.9,177,103.3,177.8,105.3z M87.9,123.1c0.5,0.8,0.9,1.4,1.3,2.1
			c1.4-1.2,1.5-2.6,0.4-3.2C89.1,122.3,88.6,122.6,87.9,123.1z M152.4,73.4c-1.3,1.1-1.5,2.3-0.8,3.8
			C152.6,76.1,152.6,76.1,152.4,73.4z M35,145.8c0.1,2.6,0.8,3.8,3,5.3C36.9,149.2,36,147.5,35,145.8z M197.6,113.5
			c0.3,1,0.6,1.8,1,3c1.1-1.4,1.2-2.5,1.3-3.9C199.1,112.9,198.6,113.1,197.6,113.5z M179.3,116c-0.5-1.2-1-2.5-1.5-3.7
			c0-0.1-0.1-0.1-0.2-0.1C176.9,113.7,176.9,113.7,179.3,116z M98.4,66.3c1.9,1.7,2.3,1.6,3.4-0.6C100.5,66,99.4,66.2,98.4,66.3z
			 M119.4,65.1c-1.8,1.7-1.9,3.1-0.7,4.9C118.9,68.3,119.1,66.9,119.4,65.1z M107.2,177.5c3.3,0.1,3.3,0.1,4.2-0.7
			C110.1,177,108.7,175.5,107.2,177.5z M87.5,121.6c1.2-0.9,2.4-1.3,2.2-3C87.3,119.5,87.1,119.7,87.5,121.6z M86.5,114.6
			c0.9-1,2-1.2,2.2-2.4c-1,0-1.9,0-2.9,0C86,112.9,86.2,113.5,86.5,114.6z M51.8,142.2c0.7,3.5,0.7,3.5,2.6,3.4
			C53.6,144.5,52.9,143.6,51.8,142.2z M87,126.5c1.1-0.9,1-1.8,0.2-2.6c-0.2-0.2-0.7-0.1-0.9,0c-0.9,0.7,0,1.4,0.2,2.1
			C86.5,126.2,86.7,126.3,87,126.5z M86.3,131.4c1.3-1,0.7-1.7,0-2.6c-0.6,0.4-1.1,0.7-1.7,1.1C85.3,130.5,85.8,130.9,86.3,131.4z
			 M107.1,150.7c-0.3-2.2-0.7-3.6-2.9-4.1C105.3,148,106,149.1,107.1,150.7z M92.5,34.2c-0.2,0.1-0.4,0.2-0.6,0.4
			c0.6,1.2,1.2,2.4,1.9,3.9C94.9,36.1,93,35.5,92.5,34.2z M103.8,63.3c0-0.2-0.1-0.5-0.1-0.7c-1.2,0.1-2.3,0.3-3.9,0.5
			C101.6,64.9,102.6,63.5,103.8,63.3z M99.4,61.4c-1.1,0.1-2.2,0.2-3.4,0.3C97.3,62.7,98.5,62.9,99.4,61.4z M95.2,65
			c1.9,1.5,2.6,0.6,3.4,0c0-0.2-0.1-0.4-0.1-0.6C97.6,64.6,96.6,64.7,95.2,65z M106.3,64.8c0-0.2,0-0.5-0.1-0.7c-1,0.3-2,0.5-3,0.8
			c0.1,0.3,0.1,0.5,0.2,0.8C104.4,65.4,105.4,65.1,106.3,64.8z M52.8,131.8c-0.3-2.2-1.5-2.2-3-2.1C50.8,130.4,51.6,131,52.8,131.8z
			 M85.2,139.5c0.2-0.2,0.4-0.3,0.6-0.5c-0.5-0.7-0.9-1.3-1.7-2.3C83.6,138.6,84.2,139.2,85.2,139.5z M123,72.6
			C123,72.6,122.9,72.6,123,72.6c0,1.4,0,2.7,0,4.1c0,0,0,0,0.1,0C123,75.3,123,74,123,72.6z M133.9,75.7c-0.1,0-0.2,0-0.3,0
			c0,1.5,0,3,0,4.5c0.1,0,0.2,0,0.3,0C134,78.7,133.9,77.2,133.9,75.7z M116.5,159.7c0.8,0.2,1.5,0.3,2.2,0.4
			c0.1-0.1,0.1-0.3,0.2-0.4c-0.6-0.6-1.3-1.2-2.2-2C116.6,158.7,116.5,159.2,116.5,159.7z M115.6,81.5c0.9,0.8,1.8,1.1,2.8,0
			C117.3,81.5,116.5,81.5,115.6,81.5z M53.3,37.8c-0.1,0.2-0.3,0.4-0.4,0.5c0.5,1.1,1.7,1.3,2.9,1.5C54.9,39.2,54.1,38.5,53.3,37.8z
			 M87.8,130.1c1.4-1,1.3-1.6,0.7-2.2c-0.1-0.1-0.5,0-0.7,0C87.8,128.5,87.8,129.1,87.8,130.1z M193,123.3c-0.1-0.1-0.2-0.3-0.2-0.4
			c-1.1,0.4-2.2,0.8-3.3,1.1c0,0.1,0.1,0.3,0.1,0.4C190.7,124.1,191.8,123.7,193,123.3z M152.4,164.5c-0.2,0-0.4,0.1-0.6,0.1
			c0.1,0.7,0.2,1.4,0.3,2.2c0.5-0.5,0.7-0.9,0.7-1.4C152.8,165.1,152.6,164.8,152.4,164.5z M21,149.9c0.2-0.2,0.3-0.4,0.5-0.6
			c-0.6-0.6-1.3-1.1-1.9-1.7c-0.2,0.2-0.3,0.4-0.5,0.6C19.7,148.7,20.3,149.3,21,149.9z M87.5,152.2c0.2-0.2,0.4-0.4,0.6-0.6
			c-0.4-0.4-0.8-0.9-1.2-1.3c-0.2,0.1-0.3,0.3-0.5,0.4C86.8,151.2,87.1,151.7,87.5,152.2z M108.7,161.6c-0.2,1.7,0.6,1.6,1.4,1.3
			c0.1,0,0.1-0.3,0.2-0.6C109.8,162.1,109.4,161.9,108.7,161.6z M198.4,167.3c-0.4,0.8-0.8,1.4-1.2,2
			C197.9,168.9,199.6,169,198.4,167.3z M156.9,185.6c0.2,0,0.5,0.1,0.7,0.1c0.1-0.8,0.2-1.6,0.2-2.5c-0.2,0-0.3,0-0.5-0.1
			C157.2,184,157.1,184.8,156.9,185.6z M83.8,132.6c0.2-0.1,0.4-0.2,0.6-0.3c0-0.9,0-1.7-1.7-2C83.2,131.3,83.5,131.9,83.8,132.6z
			 M87.9,132.3c-0.2-0.2-0.3-0.3-0.5-0.5c-0.3,0.3-0.6,0.6-0.9,1c0.2,0.2,0.5,0.4,0.7,0.6C87.5,133.1,87.7,132.7,87.9,132.3z
			 M82.3,138.5c-0.2,0.1-0.3,0.3-0.5,0.4c0.2,0.7,0.3,1.5,1.9,1.6C83,139.6,82.7,139,82.3,138.5z M81.3,137.8
			c0.1-0.1,0.3-0.3,0.4-0.4c-0.4-0.5-0.8-0.9-1.1-1.4c-0.1,0.1-0.3,0.3-0.4,0.4C80.6,136.9,80.9,137.3,81.3,137.8z M185.5,119
			c1.3,0.4,2,0.5,2.3-1C187,118.4,186.5,118.6,185.5,119z M90,131.2c-0.3-0.2-0.6-0.5-0.7-0.5c-0.2,0.2-0.5,0.5-0.6,0.8
			c0,0.1,0.4,0.4,0.6,0.6C89.6,131.8,89.8,131.6,90,131.2z M188.1,131.1c0.1,0.1,0.3,0.3,0.4,0.4c0.4-0.4,0.7-0.8,1.1-1.2
			c-0.1-0.1-0.3-0.3-0.4-0.4C188.8,130.3,188.4,130.7,188.1,131.1z M91.4,195.7c0,0.2,0,0.4,0.1,0.6c0.5-0.1,0.9-0.2,1.4-0.3
			c0-0.1,0-0.2-0.1-0.4C92.3,195.7,91.9,195.7,91.4,195.7z M90.2,126.1c-0.2,0.7-0.3,1-0.3,1.2c0.1,0.3,0.4,0.4,0.6,0.6
			c0.1-0.3,0.4-0.6,0.3-0.8C90.9,126.8,90.7,126.6,90.2,126.1z M91.5,129.8c-0.1,0.1-0.2,0.1-0.3,0.2c0.2,0.6,0.5,1.1,0.7,1.7
			c0.1-0.1,0.2-0.1,0.4-0.2C92,130.9,91.7,130.3,91.5,129.8z M189,134.5c0.1,0.1,0.1,0.3,0.2,0.4c0.5-0.2,0.9-0.4,1.4-0.6
			c-0.1-0.2-0.1-0.3-0.2-0.5C190,134,189.5,134.2,189,134.5z M110,159.2c0.1-0.1,0.3-0.2,0.4-0.2c-0.3-0.5-0.6-1-0.8-1.5
			c-0.1,0.1-0.3,0.2-0.4,0.2C109.4,158.2,109.7,158.7,110,159.2z M165.1,162.6c-0.1,0-0.2-0.1-0.3-0.1c-0.2,0.6-0.4,1.2-0.6,1.8
			c0.1,0,0.3,0.1,0.4,0.1C164.8,163.8,165,163.2,165.1,162.6z M159.4,183.5c-0.1,0-0.1-0.1-0.2-0.1c0,0.6,0,1.1,0,1.7
			c0.1,0,0.1,0,0.2,0C159.4,184.5,159.4,184,159.4,183.5z M164.1,187.5c-0.2,0-0.5,0-0.7,0.1c0.1,0.5,0.2,0.9,0.2,1.4
			c0.2,0,0.3,0,0.5-0.1C164.2,188.4,164.1,187.9,164.1,187.5z M91.8,197.8c0-0.1,0-0.3,0-0.4c-0.5,0-1.1,0.1-1.6,0.1
			c0,0.2,0,0.3,0,0.5C90.7,197.9,91.2,197.8,91.8,197.8z M85.2,122.7c0.1,0,0.3-0.1,0.4-0.1c-0.1-0.5-0.2-1-0.3-1.5
			c-0.2,0-0.3,0.1-0.5,0.1C84.9,121.7,85,122.2,85.2,122.7z M85.3,134.8c0.1-0.1,0.3-0.1,0.4-0.2c-0.2-0.4-0.4-0.8-0.6-1.2
			c-0.1,0.1-0.3,0.1-0.4,0.2C84.9,134,85.1,134.4,85.3,134.8z M164.1,190.1c-0.2,0-0.4,0-0.6,0.1c0.1,0.4,0.2,0.9,0.3,1.3
			c0.1,0,0.3-0.1,0.4-0.1C164.2,190.9,164.1,190.5,164.1,190.1z M143.9,78.5c0.1,0.1,0.1,0.2,0.2,0.3c0.3-0.2,0.6-0.3,0.9-0.5
			c-0.1-0.1-0.1-0.3-0.2-0.4C144.5,78.1,144.2,78.3,143.9,78.5z"/>
		<path class="st0" d="M106.9,158.6c-1.6,0.1-2.3-0.8-2.7-2.2c0.6,0.3,1.1,0.6,1.7,0.9C106.2,157.8,106.5,158.2,106.9,158.6z"/>
		<path class="st0" d="M139.9,148.5c0.8-1,2.1-0.7,2.8-0.3c3.2,1.9,6.9,1.5,10.4,2.1c4.4,0.7,8.8,0.6,13.3,0.6c1.8,0,3.6-0.7,5.4-1
			c1.4-0.2,2.7-0.4,4.1-0.3c-1.5,1.5-3.4,1.7-5.2,2.1c-6.7,1.4-13.4,1.1-20.1-0.1c-0.4-0.1-0.9-0.2-1.3-0.2
			c-3.3,0.4-6.2-1.3-9.2-2.3C140.1,149,140,148.8,139.9,148.5z"/>
		<path class="st0" d="M148.7,144.9c-0.8,0.1-1.5,0.4-2.3,0.4c-3.8,0-7.7,0.1-11.5,0c-2,0-3.8-0.6-5.5-1.8c-0.8-0.6-1.8-0.8-2.6-1.3
			c-0.9-0.6-1.8-1.3-2.7-1.9c0.1-0.2,0.2-0.4,0.3-0.6c0.4,0.1,0.9,0.1,1.3,0.2c1.9,0.9,3.8,2.1,5.8,2.8c1.7,0.6,3.6,0.8,5.5,0.9
			c3.9,0.3,7.8,0.4,11.7,0.6C148.7,144.5,148.7,144.7,148.7,144.9z"/>
		<path class="st0" d="M116.1,99c4.3-3.1,8.5-6.2,13.3-9.7c-0.3,0.8-0.3,1.2-0.5,1.4c-3.1,3-6.4,5.8-10.1,8
			C117.9,99.2,117,100.2,116.1,99z"/>
		<path class="st0" d="M98.4,108.8c-0.5-1.5,0-2.8,1-3.8c1.9-1.8,3.8-3.5,5.8-5.2c0.6-0.5,1.3-1.1,2.1-0.2
			C104.6,102.9,100.6,104.8,98.4,108.8z"/>
		<path class="st0" d="M103.8,132.8c0.6,0.6,1.2,1.2,1.8,1.8c2.1,2.1,4.9,2.5,7.5,3.2c1.4,0.4,2.8,0.7,4.2,1.1
			c0,0.2-0.1,0.4-0.1,0.6c-2.8-0.5-5.6-0.7-8.3-1.6c-1.8-0.6-3.4-2.2-5-3.4c-0.3-0.2-0.3-0.9-0.5-1.4
			C103.5,132.9,103.7,132.9,103.8,132.8z"/>
		<path class="st0" d="M176.9,88.5c1,0.1,2.1,0,2.8,0.5c3,1.9,6.4,2,9.7,2.5c0.6,0.1,1.1,0.3,1.9,0.5
			C188.1,93.5,181.5,91.7,176.9,88.5L176.9,88.5z"/>
		<path class="st0" d="M165,144c-3.9,2.1-9.1,1.4-11.8-1.6c1.9,0.5,3.7,1.2,5.6,1.4C160.8,144,162.7,143.9,165,144z"/>
		<path class="st0" d="M198.1,87.5c-2.9,0.1-5.7-0.4-8.5-1.1C192.5,86.2,195.4,85.4,198.1,87.5z"/>
		<path class="st0" d="M209.4,140.3c1.7-3.1,4.7-2.6,7.3-3.3c0.1,0.2,0.1,0.4,0.2,0.6C214.4,138.4,211.9,139.4,209.4,140.3z"/>
		<path class="st0" d="M201,143c-2.1,1.4-4.2,2.4-6.8,1.4C196.2,142.9,198.7,143.4,201,143z"/>
		<path class="st0" d="M163.2,84.1c1.4-0.4,2.8-0.8,4.2-1c0.4,0,1,0.8,1.4,1.3c-0.5,0.2-1,0.6-1.5,0.6c-1.4,0-2.7-0.2-4.1-0.4
			C163.2,84.5,163.2,84.3,163.2,84.1z"/>
		<path class="st0" d="M115.5,132.9c2.6-0.7,4,1.4,6.1,2.3C119.4,135.7,117.6,135,115.5,132.9z"/>
		<path class="st0" d="M96.4,125.7c-1-1.7-3-3.1-1.3-5.9c0.7,2.1,1.3,3.9,1.9,5.7C96.8,125.6,96.6,125.7,96.4,125.7z"/>
		<path class="st0" d="M190.3,146.9c-1.6,0.4-2.9,0.8-4.3,1.1C186.6,145.9,187.9,145.6,190.3,146.9z"/>
		<path class="st0" d="M183.4,147.9c-1.4,1.5-3,2-5.3,1.2C179.9,147.7,181.7,148.1,183.4,147.9z"/>
		<path class="st0" d="M152.1,81.5c0.7,2,0.2,2.7-2.8,4.1C150.4,84,151.2,82.9,152.1,81.5z"/>
		<path class="st0" d="M95.4,118.8c-0.4-2.9-0.2-3.1,2-3.8c-0.3,0.7-0.6,1.2-0.8,1.7C96.3,117.2,96,117.8,95.4,118.8z"/>
		<path class="st0" d="M154.7,84.1c1.3-0.9,2.1-1.6,3-2.2C158.4,83.8,157.8,84.3,154.7,84.1z"/>
		<path class="st0" d="M176.9,88.5c-2.5-0.3-2.5-0.3-3.2-3.2c0.6,0.3,1.3,0.6,1.3,0.7C174.7,87.7,176.1,87.8,176.9,88.5
			C176.9,88.5,176.9,88.5,176.9,88.5z"/>
		<path class="st0" d="M133.6,89.8c-0.4,0.2-0.9,0.4-1.4,0.6c-0.1,0-0.3-0.5-0.4-0.8c0.5-0.2,0.9-0.4,1.4-0.6
			C133.4,89.2,133.5,89.5,133.6,89.8z"/>
		<path class="st0" d="M139.1,87.3c0.2,1.5-0.3,1.8-1.7,1.2C138.1,87.9,138.6,87.6,139.1,87.3z"/>
		<path class="st0" d="M191.9,141.3c-0.2-0.4-0.5-0.7-0.5-0.8c0.2-0.2,0.5-0.4,0.7-0.5c0.1,0,0.4,0.4,0.4,0.5
			C192.4,140.7,192.2,141,191.9,141.3z"/>
		<path class="st0" d="M155.2,102.3c3.1-1.2,5.7-2.2,8.3-3.1c1.5-0.5,2.8,0.2,3.9,1.2c0.2,0.2,0.1,0.9,0.2,1.8
			C163.4,99.4,159.7,102.8,155.2,102.3z"/>
		<path class="st0" d="M129.4,126.2c4.1-0.7,7.7,0.3,11.5,0.6c-0.4,0.3-0.8,0.8-1.2,0.8c-3.2,0-6.3-0.2-9.5-0.3
			C130,127.3,129.9,126.9,129.4,126.2z"/>
		<path class="st0" d="M146.8,104.2c-0.6,1.5-2.3,2.5-4.4,2.8C143.1,105.5,144.6,104.5,146.8,104.2z"/>
		<path class="st0" d="M133.6,116.1c1.1-0.3,2.2-0.6,3.9-1.1C135.8,116.6,135.8,116.6,133.6,116.1z"/>
		<path class="st0" d="M145.4,174.4c0,2.1-0.4,4.1-1.6,5.9c-0.9,1.3-1.7,2.8-2.8,4c-0.7,0.7-1.8,1.7-2.6,1.5
			c-1.8-0.2-2.8,0.7-3.8,1.8c-1.8,1.8-4.8,2.3-8,1c1.5-0.4,2.4-0.8,3.4-0.8c1.9,0,3.1-0.9,4.4-2.2c2.3-2.4,4.8-4.6,7.6-6.2
			c0.6-0.3,0.9-1,1.3-1.7c0.6-1.2,1.1-2.4,1.7-3.6C145,174.3,145.2,174.3,145.4,174.4z"/>
		<path class="st0" d="M116.7,179.3c1.1,2.2-0.3,3.9-0.8,5.8c-0.2,0.7-0.6,1.2-1.5,0.4C115.3,183.6,115.2,181.2,116.7,179.3z"/>
		<path class="st0" d="M132,179.3c2.1-1.9,4.2-3.7,6.5-5.8c-0.1,0.7,0,1.5-0.4,1.8c-1.7,1.8-3.6,3.3-5.7,4.6
			C132.3,179.6,132.1,179.4,132,179.3z"/>
		<path class="st0" d="M118.6,185.2c1.7,1.2,1.7,1.2-0.3,5.5C118.2,188.5,118.3,187,118.6,185.2z"/>
		<path class="st0" d="M125.6,177.5c-0.8,0.1-1.5,0.2-2.4,0.3c0.3-0.8,0.4-1.4,0.7-1.6C124.8,175.6,125.3,176.2,125.6,177.5z"/>
		<path class="st0" d="M140.3,194.4c-0.2-1.4,0.7-1.6,1.4-2.2C141.9,193.6,141.1,193.8,140.3,194.4z"/>
		<path class="st0" d="M127.1,194.1c0.6,0,1.1-0.1,1.7-0.1c0,0.2,0.1,0.4,0.1,0.6c-0.6,0.1-1.1,0.2-1.7,0.3
			C127.2,194.6,127.2,194.3,127.1,194.1z"/>
		<path class="st0" d="M65.6,98.4c0.7-1.3,1.5-2.6,2.2-3.9c0.2,0.1,0.3,0.2,0.5,0.3c-0.2,1.6-1.2,2.8-2.2,4
			C66,98.6,65.8,98.5,65.6,98.4z"/>
		<path class="st0" d="M38.2,123.4c1-0.4,2.1-0.8,3.1-1.2c0.1,0.2,0.2,0.5,0.3,0.7c-1,0.4-2.1,0.8-3.1,1.2
			C38.4,123.9,38.3,123.7,38.2,123.4z"/>
		<path class="st0" d="M31.8,121.6c-0.5,0.6-1.1,1.1-1.6,1.7c-0.2-0.2-0.3-0.3-0.5-0.5c0.5-0.6,1-1.1,1.6-1.7
			C31.4,121.3,31.6,121.4,31.8,121.6z"/>
		<path class="st0" d="M37.2,166.7c1.8,0.2,3.6,0.4,5.5,0.7C41,168.8,39.5,168.7,37.2,166.7z"/>
		<path class="st0" d="M109.9,76.4c0.9-0.1,1.7-0.3,2.6-0.4c0.7,0,1.5,0.2,2.2,0.3c-0.2,0.4-0.3,1-0.6,1c-3.2,0.5-6.4,0.9-9.7,1
			C106.3,77.7,108.1,77.1,109.9,76.4z"/>
		<path class="st0" d="M218.7,85.1c0.6,2.3,1.1,4.5,1.7,6.8C218.9,90.6,218.5,89.2,218.7,85.1z"/>
		<path class="st0" d="M122.8,18.5c0.4-0.4,0.7-0.7,1.1-1.1c0.1,0.1,0.2,0.2,0.2,0.2c-0.3,0.4-0.7,0.8-1,1.2
			C123,18.7,122.9,18.6,122.8,18.5z"/>
		<path class="st0" d="M62.2,64.2c0.5-0.6,1.1-1.1,1.6-1.7c0.2,0,0.5,0,0.8,0.1C63.7,63.7,63.7,63.7,62.2,64.2z"/>
		<path class="st0" d="M63.4,57.2c-0.4,0.3-0.8,0.5-1.3,0.8c-0.1-0.1-0.2-0.3-0.2-0.4c0.4-0.3,0.8-0.6,1.2-0.8
			C63.2,56.9,63.3,57.1,63.4,57.2z"/>
		<path class="st0" d="M135.6,33.6c0.5-2.2,0.5-2.2,2.3-2.8c-0.1,0.3-0.1,0.6-0.2,0.8C137,32.3,136.3,32.9,135.6,33.6z"/>
		<path class="st0" d="M88.7,195.1c-3.6,0.8-4.7,0.3-4.9-1.7C85.3,194,86.8,194.5,88.7,195.1z"/>
		<path class="st0" d="M165.7,167.2c0.7,1.3,1.5,2.6,2.2,3.9C167.2,169.8,166.5,168.5,165.7,167.2z"/>
		<path class="st0" d="M62.3,77.8c0.9,0.4,1.9,0.8,2.8,1.1c-0.1,0.2-0.2,0.5-0.3,0.7c-1-0.3-1.9-0.6-2.9-1
			C62.1,78.4,62.2,78.1,62.3,77.8z"/>
	</g>
</g>
</svg>
