<?xml version="1.0" encoding="utf-8"?>
<!-- Generator: Adobe Illustrator 21.0.2, SVG Export Plug-In . SVG Version: 6.00 Build 0)  -->
<svg version="1.1" id="Layer_1" xmlns="http://www.w3.org/2000/svg" xmlns:xlink="http://www.w3.org/1999/xlink" x="0px" y="0px"
	 viewBox="0 0 266.5 42.6" style="enable-background:new 0 0 266.5 42.6;" xml:space="preserve">
<style type="text/css">
	.st0{fill:#E3000F;}
</style>
<g>
	<path class="st0" d="M6.3,15.2c-0.2,0.1-0.3,0.1-0.5,0.2c-0.2,0-0.3,0.1-0.5,0c-0.2,0-0.3,0-0.4-0.1c-0.1-0.1-0.2-0.2-0.2-0.4
		c0-0.5,0.1-1.1,0.3-1.7c0.2-0.6,0.6-1.2,1.1-1.9C7.2,9.9,9,8.6,11.5,7.5c2.5-1.2,5.9-1.7,10.2-1.7c3.1,0,5.2,0.4,6.3,1.3
		c1.1,0.9,1.6,1.8,1.7,2.8c0,0.1,0,0.1,0,0.2c0,0.1,0,0.1,0,0.2c0,1.7-1,3.1-2.9,4.2c-1.9,1.2-4,2.1-6.4,2.8
		c-1.2,0.3-2.3,0.6-3.4,0.9c-1.1,0.3-2.1,0.5-2.9,0.6v0.1c4.6,0.4,7.4,0.9,8.4,1.6c1,0.7,1.5,2,1.5,3.7c0,1.8-1,3.4-3.1,4.8
		c-2.1,1.4-4.3,2.5-6.8,3.1c-0.7,0.2-1.5,0.3-2.3,0.5c-0.8,0.1-1.5,0.2-2.2,0.2c-1.8,0-3.1-0.3-4-0.9c-0.9-0.6-1.5-1.2-1.8-1.9
		c-0.3-0.6-0.4-1.1-0.5-1.6c0-0.5-0.1-0.9-0.1-1.1c0-0.5,0.2-0.9,0.5-1.4c0.3-0.4,0.7-0.9,1.1-1.2c0.2-0.2,0.4-0.3,0.6-0.5
		c0.2-0.1,0.3-0.3,0.5-0.4c0.3-0.3,0.5-0.5,0.7-0.6C6.9,23.1,7,23,7.1,23c0,0,0,0,0.1,0c0,0,0,0,0.1,0c0,0,0,0,0,0
		c0,0,0.1,0,0.1,0.1c0,0,0.1,0.1,0.1,0.2c0,0,0,0,0,0.1s0,0,0,0.1c0,0.1-0.1,0.2-0.3,0.3S7,24,6.8,24.3c-0.2,0.2-0.4,0.5-0.5,0.9
		c-0.1,0.3-0.2,0.7-0.2,1.2c0,0.9,0.5,1.4,1.4,1.7s1.9,0.4,3,0.4c0.1,0,0.1,0,0.2,0c0.1,0,0.2,0,0.2,0c0.5,0,1.1,0,1.7-0.1
		c0.6-0.1,1.2-0.2,1.8-0.4c1.2-0.4,2.4-0.8,3.5-1.4c1.1-0.6,1.9-1.2,2.5-1.9c0.2-0.2,0.3-0.4,0.5-0.7c0.1-0.2,0.2-0.5,0.2-0.7
		c0-0.6-0.3-1.1-1-1.5c-0.6-0.3-1.4-0.6-2.2-0.8c-0.3-0.1-0.6-0.1-0.9-0.2c-0.3,0-0.6-0.1-0.9-0.1c-1.3-0.2-2.4-0.3-3.3-0.4
		c-0.9-0.1-1.6-0.2-2.2-0.3c-0.5,0-0.9-0.1-1.2-0.2c-0.2-0.1-0.4-0.2-0.4-0.4c0-0.1,0-0.2,0.1-0.3c0-0.2,0.1-0.3,0.3-0.5
		c0.2-0.2,0.4-0.4,0.8-0.6c0.4-0.2,0.9-0.3,1.5-0.3c0.8,0,1.8-0.1,3-0.4c1.3-0.2,2.6-0.5,3.9-0.9c2.1-0.6,4-1.3,5.7-2.1
		c1.7-0.8,2.6-1.7,2.6-2.6c0,0,0-0.1,0-0.1c0,0,0-0.1,0-0.1c-0.1-0.5-0.5-0.9-1.2-1.3c-0.7-0.4-2.1-0.6-4-0.6c-0.5,0-1.1,0-1.8,0.1
		c-0.7,0.1-1.4,0.2-2.1,0.3c-1.4,0.3-2.8,0.7-4,1.2C12.6,11.6,12,12.3,12,13c0,0,0,0,0,0.1c0,0,0,0,0,0.1L6.3,15.2z"/>
	<path class="st0" d="M41,19.6c0.1,0.2,0.2,0.5,0.3,0.7c0,0.1,0,0.2,0.1,0.2c0,0.1,0,0.2,0,0.2c0,0.1-0.1,0.4-0.3,0.7
		c-0.2,0.3-0.5,0.9-1,1.7c-0.4,0.6-0.7,1.1-1,1.6c-0.3,0.5-0.4,0.9-0.5,1.3c0,0,0,0.1,0,0.1c0,0,0,0.1,0,0.1c0,0.4,0.1,0.7,0.3,0.9
		c0.2,0.2,0.4,0.3,0.6,0.4c0.1,0,0.1,0,0.2,0.1c0.1,0,0.1,0,0.2,0c0.3,0,0.6-0.1,0.9-0.2c0.3-0.1,0.6-0.3,0.9-0.5
		c0,0,0.1-0.1,0.2-0.1c0.1,0,0.1-0.1,0.2-0.1c0.1,0,0.2-0.1,0.3-0.2c0.1-0.1,0.2-0.1,0.3-0.2c0.4-0.2,0.6-0.4,0.8-0.5
		c0.2-0.1,0.3-0.2,0.4-0.3c0,0,0,0,0.1,0c0,0,0,0,0.1,0c0,0,0.1,0,0.1,0.1c0,0,0.1,0.1,0.1,0.1c0,0.1-0.2,0.4-0.5,0.7
		c-0.3,0.3-0.9,0.9-1.7,1.7c-0.1,0.1-0.3,0.3-0.5,0.5c-0.2,0.2-0.4,0.4-0.6,0.5c-0.4,0.4-0.8,0.7-1.3,1c-0.5,0.3-0.9,0.5-1.4,0.7
		c-0.1,0-0.2,0.1-0.4,0.1c-0.1,0-0.2,0-0.4,0c0,0-0.1,0-0.2,0c-0.1,0-0.1,0-0.2,0c-0.4,0-0.8-0.2-1.1-0.5c-0.3-0.3-0.5-0.7-0.5-1.3
		c0-0.4,0-0.8,0.1-1.2c0.1-0.4,0.2-0.7,0.3-1c0.1-0.2,0.1-0.4,0.2-0.6c0.1-0.2,0.1-0.3,0.2-0.4c0,0,0-0.1,0.1-0.1c0,0,0-0.1,0-0.1
		c0,0,0,0,0.1-0.1c0,0,0,0,0-0.1c0.1-0.1,0.1-0.3,0.2-0.4c0.1-0.2,0.2-0.4,0.3-0.6c-2.3,2.4-4,4-5.1,4.7c-1.1,0.7-1.8,1.1-2.2,1.1
		c-0.5,0-0.8-0.3-1.2-0.8c-0.3-0.6-0.6-1.2-0.7-1.8c-0.1-0.3-0.1-0.6-0.2-0.9c0-0.3-0.1-0.6-0.1-0.8c0-0.9,0.3-1.8,0.8-2.6
		c0.6-0.8,1.2-1.6,1.8-2.2c0.5-0.4,0.9-0.8,1.3-1.1c0.4-0.3,0.8-0.6,1-0.7c0.2-0.2,0.5-0.4,0.9-0.6c0.3-0.2,0.7-0.4,1.1-0.6
		c0.3-0.2,0.6-0.3,1-0.5c0.3-0.2,0.7-0.3,1-0.5c0.7-0.3,1.3-0.6,1.9-0.8c0.6-0.2,1.2-0.3,1.6-0.3c0.4,0,0.8,0.1,1.1,0.3
		c0.3,0.2,0.5,0.4,0.6,0.7c0,0,0,0.1,0.1,0.1c0,0,0,0.1,0,0.1c0,0.1,0,0.3-0.1,0.4c-0.1,0.1-0.2,0.2-0.3,0.3c0,0-0.1,0.1-0.1,0.1
		c0,0-0.1,0.1-0.1,0.1s0,0-0.1,0.1c0,0,0,0-0.1,0l0,0c0,0-0.1,0.1-0.1,0.1c0,0-0.1,0.1-0.1,0.2C40.8,19.2,40.9,19.4,41,19.6z
		 M29.5,26.6c0,0,0,0.1,0,0.1c0,0.2,0.1,0.3,0.2,0.5c0.1,0.2,0.2,0.3,0.3,0.3c0,0,0.1,0,0.1,0s0.1,0,0.1,0c0,0,0.1,0,0.1,0
		c0,0,0.1,0,0.1,0c0.3-0.1,0.8-0.3,1.4-0.6c0.6-0.3,1.5-0.9,2.5-1.8c0.1-0.1,0.4-0.3,0.7-0.6c0.3-0.3,0.7-0.6,1-1
		c0.1-0.1,0.2-0.2,0.3-0.3c0.1-0.1,0.2-0.2,0.3-0.3c0.3-0.4,0.6-0.8,0.9-1.1c0.3-0.4,0.4-0.6,0.4-0.9c0-0.1,0-0.2-0.1-0.3
		c-0.1-0.1-0.2-0.1-0.3-0.1c-0.1,0-0.1,0-0.2,0c0,0-0.1,0-0.1,0c-0.3,0-0.6,0-1,0.1c-0.3,0.1-0.7,0.2-1,0.3c-1.1,0.3-2.1,0.9-3,1.6
		c-1,0.7-1.7,1.5-2.2,2.3c-0.2,0.3-0.3,0.6-0.4,0.9c-0.1,0.3-0.1,0.6-0.1,0.9C29.5,26.5,29.5,26.5,29.5,26.6z"/>
	<path class="st0" d="M45.2,30.3c0,0-0.1,0.1-0.1,0.1l0,0c0,0,0,0-0.1,0.1c0,0,0,0-0.1,0c0,0-0.1,0-0.2-0.1
		c-0.1-0.1-0.1-0.1-0.2-0.3c-0.1-0.3-0.2-0.7-0.3-1.2s-0.2-1.3-0.2-2.2c0-0.1,0-0.2,0-0.3s0-0.2,0-0.3c0-0.1,0-0.2,0-0.3
		c0-0.1,0-0.2,0.1-0.3c0.1-0.5,0.2-1.1,0.5-1.7c0.3-0.6,0.6-1.3,1-2c0.2-0.4,0.4-0.8,0.7-1.2c0.2-0.4,0.5-0.8,0.7-1.2
		c0.6-0.8,1.1-1.5,1.6-2c0.5-0.5,0.9-0.8,1.1-0.8c0.2,0,0.4,0.2,0.5,0.6c0.2,0.4,0.3,0.8,0.3,1.3c0,0.1,0,0.2,0,0.3
		c0,0.1,0,0.2,0,0.3c0,0.2,0,0.3,0,0.4s-0.1,0.2-0.1,0.3c-0.1,0.1-0.2,0.3-0.3,0.5c-0.1,0.2-0.3,0.4-0.6,0.6
		c-0.2,0.1-0.3,0.3-0.5,0.5c-0.2,0.2-0.4,0.4-0.5,0.6c-0.3,0.4-0.7,0.8-1,1.2c-0.3,0.4-0.5,0.9-0.7,1.3c-0.1,0.3-0.2,0.5-0.3,0.8
		c-0.1,0.2-0.1,0.5-0.1,0.7c0,0.1,0,0.2,0,0.3c0,0.1,0,0.2,0.1,0.2c0.5-0.7,1.1-1.3,1.6-1.9c0.6-0.6,1.1-1.2,1.7-1.8
		c1.7-1.6,3.2-2.9,4.7-3.9c1.5-0.9,2.5-1.4,3.2-1.4c0.1,0,0.1,0,0.2,0c0.1,0,0.2,0.1,0.2,0.1c0.2,0.1,0.4,0.3,0.5,0.6
		c0.2,0.3,0.2,0.6,0.2,1.1c0,0.3,0,0.6,0,0.9c0,0.3-0.1,0.7-0.1,1c-0.1,0.5-0.3,1-0.5,1.4c-0.2,0.5-0.5,0.9-1,1.2c0,0,0,0-0.1,0
		c0,0,0,0-0.1,0c-0.1,0-0.2,0-0.4,0c-0.1,0-0.2,0-0.4-0.1c-0.4-0.1-0.7-0.2-1-0.4c-0.3-0.2-0.4-0.4-0.4-0.6c0-0.1,0-0.1,0.1-0.2
		c0-0.1,0.1-0.1,0.2-0.2c0,0,0,0,0.1-0.1c0,0,0,0,0.1-0.1c0.1,0,0.2-0.1,0.3-0.2c0.1-0.1,0.2-0.3,0.2-0.5c0,0,0-0.1,0-0.1
		s0-0.1,0-0.1c0,0,0,0,0-0.1c0,0,0,0,0-0.1c0-0.1-0.1-0.2-0.2-0.2c-0.1-0.1-0.2-0.1-0.4-0.1c-0.3,0-0.7,0.1-1.1,0.4
		c-0.4,0.2-0.8,0.5-1.3,0.9c-0.2,0.2-0.4,0.3-0.6,0.5c-0.2,0.2-0.4,0.3-0.6,0.5c-0.3,0.3-0.6,0.7-0.9,1c-0.3,0.3-0.5,0.6-0.7,0.8
		c0.6,0.2,1.1,0.5,1.5,0.9c0.4,0.4,0.8,0.8,1.1,1.2c0.2,0.2,0.3,0.4,0.5,0.6c0.2,0.2,0.3,0.4,0.5,0.5c0.2,0.2,0.3,0.3,0.5,0.4
		c0.2,0.1,0.3,0.1,0.5,0.1c0.2,0,0.5-0.1,0.8-0.2c0.3-0.2,0.7-0.4,1-0.6c0.1,0,0.2-0.1,0.3-0.2c0.1-0.1,0.2-0.1,0.3-0.2
		c0.3-0.2,0.5-0.3,0.8-0.5c0.2-0.2,0.4-0.3,0.6-0.4c0.3-0.3,0.6-0.4,0.7-0.5c0.1-0.1,0.2-0.1,0.3-0.1c0,0,0.1,0,0.1,0.1
		c0,0,0.1,0.1,0.1,0.2c0,0,0,0,0,0.1c0,0,0,0,0,0.1c0,0.1-0.1,0.4-0.4,0.7c-0.2,0.3-0.5,0.7-0.9,1c-0.1,0.1-0.1,0.1-0.2,0.2
		c0,0.1-0.1,0.1-0.2,0.2c-0.3,0.3-0.6,0.6-0.8,0.8s-0.5,0.4-0.6,0.6c-0.1,0.1-0.3,0.2-0.5,0.3c-0.2,0.2-0.5,0.3-0.8,0.5
		c-0.2,0.1-0.5,0.2-0.7,0.3c-0.2,0.1-0.5,0.2-0.7,0.3c-0.2,0.1-0.4,0.1-0.6,0.2c-0.2,0-0.4,0.1-0.6,0.1c-0.7,0-1.3-0.2-1.7-0.6
		c-0.4-0.4-0.8-0.8-1.1-1.3c-0.1-0.1-0.2-0.3-0.3-0.5c-0.1-0.2-0.1-0.3-0.2-0.5c-0.1-0.2-0.2-0.4-0.3-0.6c-0.1-0.2-0.2-0.3-0.3-0.5
		c-0.1-0.2-0.3-0.3-0.4-0.5c-0.2-0.1-0.3-0.2-0.6-0.3L45.2,30.3z"/>
	<path class="st0" d="M73.5,19.6c0.1,0.2,0.2,0.5,0.3,0.7c0,0.1,0,0.2,0.1,0.2c0,0.1,0,0.2,0,0.2c0,0.1-0.1,0.4-0.3,0.7
		c-0.2,0.3-0.5,0.9-1,1.7c-0.4,0.6-0.7,1.1-1,1.6c-0.3,0.5-0.4,0.9-0.5,1.3c0,0,0,0.1,0,0.1c0,0,0,0.1,0,0.1c0,0.4,0.1,0.7,0.3,0.9
		c0.2,0.2,0.4,0.3,0.6,0.4c0.1,0,0.1,0,0.2,0.1c0.1,0,0.1,0,0.2,0c0.3,0,0.6-0.1,0.9-0.2c0.3-0.1,0.6-0.3,0.9-0.5
		c0,0,0.1-0.1,0.2-0.1c0.1,0,0.1-0.1,0.2-0.1c0.1,0,0.2-0.1,0.3-0.2c0.1-0.1,0.2-0.1,0.3-0.2c0.4-0.2,0.6-0.4,0.8-0.5
		c0.2-0.1,0.3-0.2,0.4-0.3c0,0,0,0,0.1,0c0,0,0,0,0.1,0c0,0,0.1,0,0.1,0.1c0,0,0.1,0.1,0.1,0.1c0,0.1-0.2,0.4-0.5,0.7
		c-0.3,0.3-0.9,0.9-1.7,1.7c-0.1,0.1-0.3,0.3-0.5,0.5c-0.2,0.2-0.4,0.4-0.6,0.5c-0.4,0.4-0.8,0.7-1.3,1c-0.5,0.3-0.9,0.5-1.4,0.7
		c-0.1,0-0.2,0.1-0.4,0.1c-0.1,0-0.2,0-0.4,0c0,0-0.1,0-0.2,0c-0.1,0-0.1,0-0.2,0c-0.4,0-0.8-0.2-1.1-0.5c-0.3-0.3-0.5-0.7-0.5-1.3
		c0-0.4,0-0.8,0.1-1.2c0.1-0.4,0.2-0.7,0.3-1c0.1-0.2,0.1-0.4,0.2-0.6c0.1-0.2,0.1-0.3,0.2-0.4c0,0,0-0.1,0.1-0.1c0,0,0-0.1,0-0.1
		c0,0,0,0,0.1-0.1c0,0,0,0,0-0.1c0.1-0.1,0.1-0.3,0.2-0.4c0.1-0.2,0.2-0.4,0.3-0.6c-2.3,2.4-4,4-5.1,4.7c-1.1,0.7-1.8,1.1-2.2,1.1
		c-0.5,0-0.8-0.3-1.2-0.8c-0.3-0.6-0.6-1.2-0.7-1.8C60,27.6,60,27.3,59.9,27c0-0.3-0.1-0.6-0.1-0.8c0-0.9,0.3-1.8,0.8-2.6
		c0.6-0.8,1.2-1.6,1.8-2.2c0.5-0.4,0.9-0.8,1.3-1.1c0.4-0.3,0.8-0.6,1-0.7c0.2-0.2,0.5-0.4,0.9-0.6c0.3-0.2,0.7-0.4,1.1-0.6
		c0.3-0.2,0.6-0.3,1-0.5c0.3-0.2,0.7-0.3,1-0.5c0.7-0.3,1.3-0.6,1.9-0.8c0.6-0.2,1.2-0.3,1.6-0.3c0.4,0,0.8,0.1,1.1,0.3
		c0.3,0.2,0.5,0.4,0.6,0.7c0,0,0,0.1,0.1,0.1c0,0,0,0.1,0,0.1c0,0.1,0,0.3-0.1,0.4c-0.1,0.1-0.2,0.2-0.3,0.3c0,0-0.1,0.1-0.1,0.1
		c0,0-0.1,0.1-0.1,0.1s0,0-0.1,0.1c0,0,0,0-0.1,0l0,0c0,0-0.1,0.1-0.1,0.1c0,0-0.1,0.1-0.1,0.2C73.2,19.2,73.4,19.4,73.5,19.6z
		 M61.9,26.6c0,0,0,0.1,0,0.1c0,0.2,0.1,0.3,0.2,0.5c0.1,0.2,0.2,0.3,0.3,0.3c0,0,0.1,0,0.1,0s0.1,0,0.1,0c0,0,0.1,0,0.1,0
		c0,0,0.1,0,0.1,0c0.3-0.1,0.8-0.3,1.4-0.6c0.6-0.3,1.5-0.9,2.5-1.8c0.1-0.1,0.4-0.3,0.7-0.6c0.3-0.3,0.7-0.6,1-1
		c0.1-0.1,0.2-0.2,0.3-0.3c0.1-0.1,0.2-0.2,0.3-0.3c0.3-0.4,0.6-0.8,0.9-1.1c0.3-0.4,0.4-0.6,0.4-0.9c0-0.1,0-0.2-0.1-0.3
		c-0.1-0.1-0.2-0.1-0.3-0.1c-0.1,0-0.1,0-0.2,0c0,0-0.1,0-0.1,0c-0.3,0-0.6,0-1,0.1c-0.3,0.1-0.7,0.2-1,0.3c-1.1,0.3-2.1,0.9-3,1.6
		c-1,0.7-1.7,1.5-2.2,2.3c-0.2,0.3-0.3,0.6-0.4,0.9c-0.1,0.3-0.1,0.6-0.1,0.9C61.9,26.5,61.9,26.5,61.9,26.6z"/>
	<path class="st0" d="M79.2,25.2c0.4-0.1,0.9-0.3,1.4-0.6c0.6-0.3,1.1-0.5,1.7-0.8c0.5-0.3,0.9-0.5,1.4-0.8c0.5-0.3,0.9-0.6,1.3-0.9
		c0.4-0.3,0.7-0.6,1-1c0.3-0.3,0.4-0.6,0.4-0.9c0-0.2-0.1-0.3-0.2-0.4c-0.1-0.1-0.3-0.1-0.6-0.1c-0.2,0-0.4,0-0.5,0
		c-0.1,0-0.3,0-0.5,0.1c-0.1,0-0.2,0.1-0.4,0.1c-0.1,0-0.3,0.1-0.4,0.1c-0.3,0.1-0.6,0.2-0.9,0.3c-0.3,0.1-0.6,0.2-0.8,0.3
		c-1.7,0.6-2.8,1.2-3.3,1.7c-0.5,0.5-1,0.8-1.3,0.9c0,0-0.1,0-0.1,0c0,0-0.1,0-0.1,0c-0.1,0-0.1-0.1-0.2-0.3c0-0.2-0.1-0.4-0.1-0.6
		c0-0.2,0-0.3,0-0.5s0-0.3,0-0.4c0-0.2,0-0.4,0.1-0.6c0-0.2,0.1-0.4,0.2-0.6c0.2-0.3,0.5-0.6,0.9-0.9c0.4-0.3,1-0.6,1.9-1
		c0.1,0,0.3-0.1,0.4-0.2c0.1-0.1,0.3-0.1,0.5-0.2c0.3-0.1,0.7-0.2,1-0.4c0.4-0.1,0.7-0.2,1.1-0.3c0.5-0.1,0.9-0.2,1.4-0.3
		c0.5-0.1,0.9-0.1,1.3-0.1c0.6,0,1.1,0.2,1.5,0.6c0.3,0.4,0.6,0.9,0.8,1.4c0.1,0.3,0.2,0.6,0.2,0.9c0,0.3,0.1,0.5,0.1,0.7
		c0,0.4-0.2,0.9-0.6,1.4c-0.4,0.6-0.9,1.1-1.6,1.7c-0.6,0.5-1.2,1-1.9,1.4c-0.7,0.5-1.4,0.9-2.1,1.3c0.5,0.4,0.8,0.8,1,1.3
		c0.2,0.5,0.4,1.1,0.4,1.6c0,0,0,0.1,0,0.1s0,0.1,0,0.1c0,0,0,0,0,0.1s0,0,0,0.1c1.4-0.8,2.4-1.3,3-1.7c0.6-0.4,1-0.6,1.1-0.7
		c0.2-0.1,0.4-0.2,0.6-0.3c0.2-0.1,0.4-0.1,0.5-0.1c0.1,0,0.2,0,0.2,0.1c0,0.1,0.1,0.2,0.1,0.3c0,0,0,0.1,0,0.1c0,0,0,0.1,0,0.1
		c0,0.2-0.5,0.7-1.4,1.3c-0.9,0.6-2.3,1.5-4.2,2.6c-0.1,0.5-0.3,1-0.6,1.6c-0.3,0.6-0.5,1.1-0.8,1.7c-0.5,0.8-1.1,1.7-1.7,2.5
		c-0.6,0.8-1.3,1.6-2,2.2c-0.7,0.7-1.5,1.3-2.1,1.8c-0.7,0.5-1.3,0.7-1.8,0.7c-0.3,0-0.6-0.2-0.7-0.5c-0.2-0.3-0.2-0.8-0.2-1.2
		c0-0.1,0-0.2,0-0.3c0-0.1,0-0.2,0-0.3c0.1-0.9,0.5-1.9,1.2-3c0.7-1,2.2-2.3,4.3-3.9c0.1-0.1,0.2-0.1,0.3-0.2
		c0.1-0.1,0.2-0.1,0.3-0.2c0,0,0,0,0,0c0,0,0,0,0,0c0.2-0.1,0.3-0.3,0.5-0.4s0.4-0.3,0.7-0.5c0-0.1,0-0.2,0.1-0.3c0-0.1,0-0.2,0-0.3
		c0-0.7-0.2-1.3-0.6-1.9c-0.4-0.6-1-1-1.7-1.1L79.2,25.2z M80.5,33c-0.2,0.1-0.4,0.3-0.6,0.5c-0.2,0.2-0.4,0.3-0.6,0.5
		c-1,0.8-1.9,1.6-2.7,2.4c-0.8,0.9-1.2,1.7-1.2,2.6c0,0,0,0.1,0,0.1c0,0,0,0.1,0,0.1c0,0.1,0,0.2,0.1,0.2c0,0.1,0.1,0.1,0.1,0.1
		c0.2,0,0.6-0.2,1-0.6c0.4-0.4,0.9-0.9,1.4-1.5c0.4-0.5,0.7-0.9,1.1-1.5c0.3-0.5,0.7-1.1,0.9-1.6c0.1-0.2,0.2-0.4,0.3-0.7
		C80.3,33.4,80.4,33.2,80.5,33L80.5,33z"/>
	<path class="st0" d="M102.7,19.6c0.1,0.2,0.2,0.5,0.3,0.7c0,0.1,0,0.2,0.1,0.2c0,0.1,0,0.2,0,0.2c0,0.1-0.1,0.4-0.3,0.7
		c-0.2,0.3-0.5,0.9-1,1.7c-0.4,0.6-0.7,1.1-1,1.6c-0.3,0.5-0.4,0.9-0.5,1.3c0,0,0,0.1,0,0.1c0,0,0,0.1,0,0.1c0,0.4,0.1,0.7,0.3,0.9
		c0.2,0.2,0.4,0.3,0.6,0.4c0.1,0,0.1,0,0.2,0.1c0.1,0,0.1,0,0.2,0c0.3,0,0.6-0.1,0.9-0.2c0.3-0.1,0.6-0.3,0.9-0.5
		c0,0,0.1-0.1,0.2-0.1c0.1,0,0.1-0.1,0.2-0.1c0.1,0,0.2-0.1,0.3-0.2c0.1-0.1,0.2-0.1,0.3-0.2c0.4-0.2,0.6-0.4,0.8-0.5
		c0.2-0.1,0.3-0.2,0.4-0.3c0,0,0,0,0.1,0c0,0,0,0,0.1,0c0,0,0.1,0,0.1,0.1c0,0,0.1,0.1,0.1,0.1c0,0.1-0.2,0.4-0.5,0.7
		c-0.3,0.3-0.9,0.9-1.7,1.7c-0.1,0.1-0.3,0.3-0.5,0.5c-0.2,0.2-0.4,0.4-0.6,0.5c-0.4,0.4-0.8,0.7-1.3,1c-0.5,0.3-0.9,0.5-1.4,0.7
		c-0.1,0-0.2,0.1-0.4,0.1c-0.1,0-0.2,0-0.4,0c0,0-0.1,0-0.2,0c-0.1,0-0.1,0-0.2,0c-0.4,0-0.8-0.2-1.1-0.5c-0.3-0.3-0.5-0.7-0.5-1.3
		c0-0.4,0-0.8,0.1-1.2c0.1-0.4,0.2-0.7,0.3-1c0.1-0.2,0.1-0.4,0.2-0.6c0.1-0.2,0.1-0.3,0.2-0.4c0,0,0-0.1,0.1-0.1c0,0,0-0.1,0-0.1
		c0,0,0,0,0.1-0.1c0,0,0,0,0-0.1c0.1-0.1,0.1-0.3,0.2-0.4c0.1-0.2,0.2-0.4,0.3-0.6c-2.3,2.4-4,4-5.1,4.7c-1.1,0.7-1.8,1.1-2.2,1.1
		c-0.5,0-0.8-0.3-1.2-0.8c-0.3-0.6-0.6-1.2-0.7-1.8c-0.1-0.3-0.1-0.6-0.2-0.9c0-0.3-0.1-0.6-0.1-0.8c0-0.9,0.3-1.8,0.8-2.6
		c0.6-0.8,1.2-1.6,1.8-2.2c0.5-0.4,0.9-0.8,1.3-1.1c0.4-0.3,0.8-0.6,1-0.7c0.2-0.2,0.5-0.4,0.9-0.6c0.3-0.2,0.7-0.4,1.1-0.6
		c0.3-0.2,0.6-0.3,1-0.5c0.3-0.2,0.7-0.3,1-0.5c0.7-0.3,1.3-0.6,1.9-0.8c0.6-0.2,1.2-0.3,1.6-0.3c0.4,0,0.8,0.1,1.1,0.3
		c0.3,0.2,0.5,0.4,0.6,0.7c0,0,0,0.1,0.1,0.1c0,0,0,0.1,0,0.1c0,0.1,0,0.3-0.1,0.4c-0.1,0.1-0.2,0.2-0.3,0.3c0,0-0.1,0.1-0.1,0.1
		c0,0-0.1,0.1-0.1,0.1s0,0-0.1,0.1c0,0,0,0-0.1,0l0,0c0,0-0.1,0.1-0.1,0.1c0,0-0.1,0.1-0.1,0.2C102.5,19.2,102.6,19.4,102.7,19.6z
		 M91.2,26.6c0,0,0,0.1,0,0.1c0,0.2,0.1,0.3,0.2,0.5c0.1,0.2,0.2,0.3,0.3,0.3c0,0,0.1,0,0.1,0s0.1,0,0.1,0c0,0,0.1,0,0.1,0
		c0,0,0.1,0,0.1,0c0.3-0.1,0.8-0.3,1.4-0.6c0.6-0.3,1.5-0.9,2.5-1.8c0.1-0.1,0.4-0.3,0.7-0.6c0.3-0.3,0.7-0.6,1-1
		c0.1-0.1,0.2-0.2,0.3-0.3c0.1-0.1,0.2-0.2,0.3-0.3c0.3-0.4,0.6-0.8,0.9-1.1c0.3-0.4,0.4-0.6,0.4-0.9c0-0.1,0-0.2-0.1-0.3
		c-0.1-0.1-0.2-0.1-0.3-0.1c-0.1,0-0.1,0-0.2,0c0,0-0.1,0-0.1,0c-0.3,0-0.6,0-1,0.1c-0.3,0.1-0.7,0.2-1,0.3c-1.1,0.3-2.1,0.9-3,1.6
		c-1,0.7-1.7,1.5-2.2,2.3c-0.2,0.3-0.3,0.6-0.4,0.9c-0.1,0.3-0.1,0.6-0.1,0.9C91.2,26.5,91.2,26.5,91.2,26.6z"/>
	<path class="st0" d="M111.5,23.8c0.9-0.7,1.6-1.4,2.3-2c1.9-1.6,3.2-2.5,3.9-2.9c0.7-0.4,1.2-0.6,1.5-0.6c0.4,0,0.7,0.1,0.8,0.3
		s0.2,0.3,0.3,0.5c0,0.1,0,0.2,0,0.2c0,0.1,0,0.2,0,0.2c0,0,0,0,0,0.1s0,0,0,0.1c0,0.2,0,0.4-0.1,0.5c0,0.2-0.1,0.3-0.2,0.5
		c0,0.1-0.1,0.1-0.1,0.2c0,0.1-0.1,0.2-0.1,0.3c-0.7,1.2-1.2,2.1-1.7,2.5c-0.4,0.5-0.7,0.8-0.8,1.1c0,0,0,0,0,0.1c0,0,0,0,0,0.1
		c0,0.1,0,0.1,0.1,0.2c0,0.1,0.1,0.1,0.1,0.1c0,0,0,0,0.1,0c0,0,0,0,0.1,0c0.2,0,0.5-0.3,0.9-0.7c0.4-0.4,1.4-1.3,3-2.6
		c1-0.8,1.8-1.4,2.6-1.8c0.8-0.4,1.3-0.7,1.5-0.9c0,0,0,0,0.1,0c0,0,0,0,0.1-0.1c0.1,0,0.2-0.1,0.3-0.1c0.1,0,0.2-0.1,0.4-0.1
		c0.2,0,0.4,0.1,0.5,0.3c0.2,0.2,0.3,0.5,0.4,0.8c0.1,0.2,0.1,0.4,0.2,0.6c0,0.2,0.1,0.3,0.1,0.4c0,0.1,0,0.3-0.1,0.4
		c-0.1,0.1-0.2,0.2-0.3,0.4c0,0,0,0-0.1,0c0,0,0,0-0.1,0.1c-1.2,1.1-2.1,2.1-2.5,2.9c-0.4,0.8-0.7,1.4-0.7,1.9
		c0,0.4,0.1,0.6,0.3,0.8c0.2,0.2,0.4,0.3,0.8,0.3c0.2,0,0.6-0.1,1.1-0.3c0.5-0.2,1.2-0.7,2.1-1.5c0,0,0,0,0.1-0.1s0,0,0.1,0
		c0.1-0.1,0.1-0.1,0.2-0.2c0.1,0,0.2-0.1,0.3-0.1c0,0,0.1,0,0.1,0c0,0,0.1,0.1,0.1,0.1c0,0,0,0.1,0,0.2c0,0.1,0,0.1,0,0.2
		c-0.1,0.3-0.3,0.6-0.7,1.1c-0.4,0.4-0.9,0.9-1.4,1.3c-0.2,0.2-0.5,0.4-0.8,0.6c-0.3,0.2-0.5,0.4-0.8,0.6c-0.7,0.5-1.4,0.9-2,1.2
		c-0.6,0.3-1.1,0.5-1.4,0.5c-0.1,0-0.1,0-0.2,0c-0.1,0-0.1,0-0.2,0c-0.3-0.1-0.6-0.2-0.9-0.4c-0.3-0.2-0.4-0.5-0.4-1
		c0-0.3,0-0.7,0.1-1.2c0.1-0.5,0.3-1.2,0.8-2c0.2-0.3,0.3-0.6,0.4-0.8c0.1-0.2,0.2-0.4,0.3-0.6l0-0.1c0,0,0,0,0.1-0.1c0,0,0,0,0-0.1
		c0.2-0.3,0.3-0.5,0.4-0.7c0.1-0.2,0.1-0.3,0.1-0.4c0-0.1,0-0.1-0.1-0.1c0,0-0.1,0-0.2-0.1c0,0,0,0-0.1,0c-0.1,0-0.4,0.1-0.7,0.4
		s-0.7,0.5-1.2,0.9c0,0-0.1,0.1-0.1,0.1c0,0-0.1,0.1-0.1,0.1c-0.4,0.3-0.7,0.6-1,0.9c-0.3,0.3-0.5,0.4-0.6,0.5
		c-1.2,1.1-2.1,2-2.8,2.7c-0.7,0.7-1.3,1-1.9,1c0,0-0.1,0-0.1,0c0,0-0.1,0-0.2-0.1c-0.1-0.1-0.2-0.2-0.4-0.4
		c-0.1-0.2-0.2-0.4-0.2-0.7c0-0.1,0-0.3,0.1-0.5c0-0.2,0.1-0.3,0.1-0.5c0-0.1,0.1-0.2,0.2-0.4c0.1-0.1,0.1-0.2,0.2-0.3
		c0.1-0.2,0.2-0.4,0.3-0.5c0.1-0.2,0.1-0.3,0.2-0.3c0.5-0.8,0.9-1.4,1.2-1.8c0.3-0.4,0.4-0.7,0.4-0.9c0,0,0-0.1,0-0.1
		c0,0,0-0.1-0.1-0.1c0-0.1-0.1-0.1-0.2-0.2c-0.1-0.1-0.3-0.1-0.5-0.1c-0.6,0-1.2,0.3-1.9,0.8c-0.7,0.6-1.5,1.3-2.4,2.3
		c-0.1,0.1-0.1,0.1-0.2,0.2c0,0.1-0.1,0.1-0.2,0.2c-0.7,0.8-1.2,1.5-1.6,2.2c-0.4,0.7-0.8,1.1-1.1,1.3c0,0-0.1,0-0.2,0.1
		c-0.1,0-0.1,0-0.2,0c-0.1,0-0.2,0-0.3,0c-0.1,0-0.2-0.1-0.3-0.2c-0.2-0.2-0.4-0.5-0.6-1c-0.2-0.5-0.3-1.2-0.3-2.2
		c0-0.7,0-1.2,0.1-1.7c0.1-0.4,0.2-0.9,0.4-1.3c0.2-0.3,0.4-0.6,0.6-1c0.3-0.4,0.6-0.8,1-1.3c0.2-0.3,0.4-0.5,0.6-0.8
		c0.2-0.2,0.4-0.5,0.6-0.6c0.4-0.4,0.8-0.8,1.2-1c0.4-0.2,0.9-0.4,1.5-0.4c0.2,0,0.4,0,0.5,0.1c0.1,0.1,0.2,0.2,0.3,0.4
		c0,0,0,0.1,0,0.1c0,0,0,0.1,0,0.1c0,0,0,0.1,0,0.2s0,0.1-0.1,0.2c0,0.1-0.1,0.2-0.1,0.2c-0.1,0.1-0.1,0.2-0.2,0.2
		c0,0.1-0.1,0.1-0.1,0.2c0,0-0.1,0.1-0.1,0.1c-0.1,0.1-0.3,0.3-0.7,0.7c-0.3,0.4-0.7,0.8-1.1,1.2c0,0.1-0.1,0.1-0.1,0.2
		c0,0.1-0.1,0.1-0.2,0.2c-0.4,0.5-0.7,0.9-1,1.3c-0.3,0.4-0.4,0.7-0.4,0.9c0,0,0,0.1,0,0.2c0,0.1,0,0.2,0.1,0.3c0,0,0,0.1,0.1,0.1
		c0,0,0,0.1,0,0.1c0,0.1,0,0.2,0.1,0.2c0,0.1,0,0.1,0.1,0.1C109.6,25.4,110.6,24.5,111.5,23.8z M115.5,17.2c0-0.2-0.1-0.5-0.1-0.9
		c0-0.8,0.6-1.6,1.7-2.3c1.2-0.7,2.4-1.3,3.8-1.7c1-0.3,2-0.6,2.9-0.8c0.9-0.2,1.6-0.3,2.1-0.3c0.6,0,1.1,0.1,1.4,0.3
		c0.3,0.2,0.5,0.4,0.6,0.6c0,0.1,0.1,0.1,0.1,0.2c0,0.1,0,0.1,0,0.2c0,0,0,0.1,0,0.1c0,0,0,0.1-0.1,0.1l-1,1.7c0,0-0.1,0-0.1-0.1
		c0,0-0.1,0-0.1,0c-0.4-0.2-0.8-0.3-1.3-0.3c-0.4,0-0.9-0.1-1.5-0.1c-0.5,0-1.1,0.1-1.7,0.2c-0.7,0.1-1.3,0.3-2,0.6
		c-0.9,0.3-1.7,0.8-2.5,1.2c-0.8,0.5-1.4,1.1-1.9,1.7C115.6,17.6,115.5,17.5,115.5,17.2z"/>
	<path class="st0" d="M131.9,22.5c-0.1,0-0.2,0-0.3,0.1c-0.1,0-0.2,0-0.4,0.1c-0.1,0-0.3,0-0.4,0.1c-0.3,0-0.5,0-0.7,0.1
		c-0.2,0-0.4,0-0.6,0c0,0,0,0-0.1,0c0,0-0.1,0-0.1,0c-0.1,0-0.1-0.1-0.2-0.2c-0.1-0.1-0.1-0.2-0.1-0.4c0-0.1,0-0.2,0.1-0.3
		c0.1-0.1,0.2-0.1,0.4-0.2c0.2-0.1,0.5-0.2,1-0.3s0.9-0.3,1.5-0.7c0.2-0.1,0.4-0.3,0.7-0.5c0.3-0.2,0.6-0.4,0.9-0.6
		c0,0,0.1-0.1,0.1-0.1c0,0,0.1-0.1,0.1-0.1c0.3-0.2,0.6-0.5,0.9-0.7s0.5-0.4,0.7-0.5c0.7-0.5,1.2-1,1.6-1.4s0.7-0.6,0.9-0.6
		c0.1,0,0.2,0,0.3,0c0.1,0,0.2,0.1,0.3,0.1c0.2,0.1,0.4,0.3,0.6,0.7c0.2,0.3,0.4,0.8,0.5,1.3c-0.2,0.1-0.5,0.3-0.7,0.4
		c-0.2,0.1-0.4,0.3-0.6,0.4c-0.4,0.2-0.8,0.5-1.2,0.8c-0.4,0.3-0.8,0.6-1.1,1c-0.1,0.1-0.2,0.2-0.3,0.3c-0.1,0.1-0.2,0.2-0.3,0.4
		c0,0-0.1,0.1-0.1,0.2c0,0.1-0.1,0.1-0.1,0.2c-0.5,0.6-0.9,1.2-1.3,2c-0.4,0.8-0.6,1.6-0.6,2.5c0,0.6,0.1,1,0.2,1.3
		c0.1,0.3,0.3,0.4,0.5,0.5c0,0,0,0,0.1,0c0,0,0,0,0.1,0c0.1,0,0.1,0,0.2-0.1c0.1,0,0.2-0.1,0.3-0.1c0.1-0.1,0.2-0.1,0.3-0.2
		c0.1-0.1,0.2-0.2,0.3-0.3c0,0,0.1-0.1,0.1-0.2c0-0.1,0.1-0.1,0.1-0.2c0-0.2,0-0.3-0.1-0.5c0-0.2,0-0.3,0-0.5c0-0.9,0.3-1.8,0.8-2.6
		s1.2-1.3,1.9-1.5c0.1,0,0.2,0,0.3-0.1c0.1,0,0.2,0,0.3,0c0.1,0,0.1,0,0.2,0c0.1,0,0.1,0,0.2,0.1c0.2,0.1,0.4,0.3,0.5,0.5
		c0.2,0.2,0.3,0.6,0.3,1.1c0,0.2,0,0.5-0.1,0.7c0,0.3-0.1,0.5-0.2,0.8c-0.1,0.3-0.2,0.7-0.4,1s-0.4,0.6-0.6,0.9
		c0.2,0.1,0.3,0.2,0.5,0.2s0.3,0.1,0.4,0.1c0.2,0,0.4,0,0.6-0.1c0.2-0.1,0.3-0.2,0.5-0.3c0.1,0,0.1-0.1,0.2-0.2
		c0.1-0.1,0.1-0.1,0.1-0.2c0,0,0,0,0.1-0.1c0,0,0,0,0.1-0.1c0-0.1,0.1-0.1,0.2-0.2c0.1,0,0.2-0.1,0.3-0.1c0,0,0.1,0,0.1,0
		s0.1,0,0.1,0.1c0,0,0,0,0,0.1s0,0.1,0,0.1s0,0.1,0,0.1c0,0,0,0.1,0,0.1c0,0.1,0,0.1,0,0.2c0,0.1-0.1,0.3-0.2,0.4
		c-0.1,0.2-0.1,0.3-0.2,0.4c-0.2,0.4-0.5,0.7-0.9,1c-0.4,0.3-0.8,0.5-1.3,0.5c-0.4,0-0.8,0-1-0.1c-0.3-0.1-0.5-0.2-0.7-0.3
		c0,0-0.1-0.1-0.1-0.1c0,0-0.1-0.1-0.1-0.1c0,0-0.2,0.2-0.4,0.3c-0.2,0.2-0.4,0.3-0.6,0.5c-0.1,0.1-0.3,0.2-0.4,0.3
		c-0.1,0.1-0.3,0.2-0.4,0.3c-0.2,0.1-0.4,0.1-0.6,0.2c-0.2,0.1-0.3,0.1-0.5,0.1c-0.1,0-0.2,0-0.3,0c-0.1,0-0.2-0.1-0.3-0.1
		c-0.5-0.3-1-0.8-1.4-1.6c-0.4-0.8-0.6-1.7-0.6-2.8c0-0.6,0-1,0.1-1.5c0.1-0.4,0.2-0.9,0.4-1.3c0-0.1,0.1-0.2,0.2-0.4
		c0.1-0.1,0.1-0.3,0.2-0.4C132.1,22.5,132,22.5,131.9,22.5z"/>
	<path class="st0" d="M154.5,24.4c0.2-0.6,0.6-1.2,1-1.8c0.7-1.1,1.7-2.2,2.9-3.2c1.2-1,2.4-1.7,3.7-2.1c0.3-0.1,0.6-0.2,1-0.2
		c0.3-0.1,0.7-0.1,1-0.1c0.1,0,0.1,0,0.2,0c0.1,0,0.2,0,0.2,0c0.2,0,0.5,0.2,0.7,0.3c0.2,0.2,0.3,0.4,0.3,0.7c0,0.3-0.1,0.6-0.3,1
		c-0.2,0.4-0.4,0.8-0.6,1.2c-0.1,0.2-0.3,0.5-0.5,0.7c-0.2,0.2-0.3,0.5-0.5,0.7c-0.3,0.4-0.7,0.8-1,1c-0.3,0.3-0.5,0.4-0.7,0.4
		c-0.1,0-0.2,0-0.2-0.1c-0.1-0.1-0.1-0.2-0.2-0.3c0,0,0-0.1-0.1-0.1c0,0,0-0.1-0.1-0.1c0,0,0-0.1,0-0.1s0-0.1-0.1-0.2
		c0-0.1-0.1-0.1-0.2-0.2c-0.1-0.1-0.1-0.1-0.2-0.1c0,0-0.1,0-0.1,0c0,0,0,0-0.1,0c0,0,0,0-0.1,0s0,0-0.1,0c0,0,0,0-0.1,0
		c0,0,0,0-0.1,0c0,0,0,0-0.1,0c-0.2,0-0.5,0.2-0.8,0.4c-0.3,0.2-0.7,0.4-1,0.7c-0.3,0.3-0.7,0.6-1,1c-0.3,0.3-0.6,0.7-0.8,1.1
		c-0.2,0.3-0.3,0.5-0.4,0.8c-0.1,0.3-0.1,0.5-0.1,0.8c0,0,0,0.1,0,0.2c0,0.1,0,0.1,0,0.2c0.1,0.5,0.3,0.9,0.8,1.3
		c0.5,0.4,1.2,0.6,2.2,0.6c0.6,0,1.2-0.1,1.7-0.3s1-0.4,1.4-0.6c0.2-0.1,0.3-0.2,0.5-0.3c0.2-0.1,0.3-0.2,0.4-0.3
		c0.9-0.6,1.5-1,1.8-1.3c0.3-0.3,0.5-0.4,0.7-0.5c0,0,0,0,0.1,0c0,0,0,0,0.1,0s0,0,0.1,0c0,0,0,0,0.1,0c0,0,0.1,0.1,0.1,0.1
		c0,0,0.1,0.1,0.1,0.2c0,0.1-0.2,0.4-0.5,0.8c-0.3,0.4-1.2,1.3-2.7,2.6c-0.1,0.1-0.2,0.2-0.4,0.3s-0.3,0.2-0.4,0.3
		c-0.6,0.5-1.3,0.9-2,1.3c-0.7,0.4-1.5,0.6-2.2,0.6c-1,0-1.7-0.3-2.3-1c-0.6-0.6-1-1.3-1.3-2.1c-0.2-0.5-0.3-1-0.4-1.5
		c-0.1-0.5-0.1-0.8-0.1-1.1C154.2,25.6,154.3,25,154.5,24.4z"/>
	<path class="st0" d="M172.1,23.8c0.9-0.7,1.6-1.4,2.3-2c1.9-1.6,3.2-2.5,3.9-2.9c0.7-0.4,1.2-0.6,1.5-0.6c0.4,0,0.7,0.1,0.8,0.3
		s0.2,0.3,0.3,0.5c0,0.1,0,0.2,0,0.2c0,0.1,0,0.2,0,0.2c0,0,0,0,0,0.1s0,0,0,0.1c0,0.2,0,0.4-0.1,0.5c0,0.2-0.1,0.3-0.2,0.5
		c0,0.1-0.1,0.1-0.1,0.2c0,0.1-0.1,0.2-0.1,0.3c-0.7,1.2-1.2,2.1-1.7,2.5c-0.4,0.5-0.7,0.8-0.8,1.1c0,0,0,0,0,0.1c0,0,0,0,0,0.1
		c0,0.1,0,0.1,0.1,0.2c0,0.1,0.1,0.1,0.1,0.1c0,0,0,0,0.1,0c0,0,0,0,0.1,0c0.2,0,0.5-0.3,0.9-0.7c0.4-0.4,1.4-1.3,3-2.6
		c1-0.8,1.8-1.4,2.6-1.8c0.8-0.4,1.3-0.7,1.5-0.9c0,0,0,0,0.1,0c0,0,0,0,0.1-0.1c0.1,0,0.2-0.1,0.3-0.1c0.1,0,0.2-0.1,0.4-0.1
		c0.2,0,0.4,0.1,0.5,0.3c0.2,0.2,0.3,0.5,0.4,0.8c0.1,0.2,0.1,0.4,0.2,0.6c0,0.2,0.1,0.3,0.1,0.4c0,0.1,0,0.3-0.1,0.4
		c-0.1,0.1-0.2,0.2-0.3,0.4c0,0,0,0-0.1,0c0,0,0,0-0.1,0.1c-1.2,1.1-2.1,2.1-2.5,2.9c-0.4,0.8-0.7,1.4-0.7,1.9
		c0,0.4,0.1,0.6,0.3,0.8c0.2,0.2,0.4,0.3,0.8,0.3c0.2,0,0.6-0.1,1.1-0.3c0.5-0.2,1.2-0.7,2.1-1.5c0,0,0,0,0.1-0.1s0,0,0.1,0
		c0.1-0.1,0.1-0.1,0.2-0.2c0.1,0,0.2-0.1,0.3-0.1c0,0,0.1,0,0.1,0c0,0,0.1,0.1,0.1,0.1c0,0,0,0.1,0,0.2c0,0.1,0,0.1,0,0.2
		c-0.1,0.3-0.3,0.6-0.7,1.1c-0.4,0.4-0.9,0.9-1.4,1.3c-0.2,0.2-0.5,0.4-0.8,0.6c-0.3,0.2-0.5,0.4-0.8,0.6c-0.7,0.5-1.4,0.9-2,1.2
		c-0.6,0.3-1.1,0.5-1.4,0.5c-0.1,0-0.1,0-0.2,0c-0.1,0-0.1,0-0.2,0c-0.3-0.1-0.6-0.2-0.9-0.4c-0.3-0.2-0.4-0.5-0.4-1
		c0-0.3,0-0.7,0.1-1.2c0.1-0.5,0.3-1.2,0.8-2c0.2-0.3,0.3-0.6,0.4-0.8c0.1-0.2,0.2-0.4,0.3-0.6l0-0.1c0,0,0,0,0.1-0.1c0,0,0,0,0-0.1
		c0.2-0.3,0.3-0.5,0.4-0.7c0.1-0.2,0.1-0.3,0.1-0.4c0-0.1,0-0.1-0.1-0.1c0,0-0.1,0-0.2-0.1c0,0,0,0-0.1,0c-0.1,0-0.4,0.1-0.7,0.4
		s-0.7,0.5-1.2,0.9c0,0-0.1,0.1-0.1,0.1c0,0-0.1,0.1-0.1,0.1c-0.4,0.3-0.7,0.6-1,0.9c-0.3,0.3-0.5,0.4-0.6,0.5
		c-1.2,1.1-2.1,2-2.8,2.7c-0.7,0.7-1.3,1-1.9,1c0,0-0.1,0-0.1,0c0,0-0.1,0-0.2-0.1c-0.1-0.1-0.2-0.2-0.4-0.4
		c-0.1-0.2-0.2-0.4-0.2-0.7c0-0.1,0-0.3,0.1-0.5c0-0.2,0.1-0.3,0.1-0.5c0-0.1,0.1-0.2,0.2-0.4c0.1-0.1,0.1-0.2,0.2-0.3
		c0.1-0.2,0.2-0.4,0.3-0.5c0.1-0.2,0.1-0.3,0.2-0.3c0.5-0.8,0.9-1.4,1.2-1.8c0.3-0.4,0.4-0.7,0.4-0.9c0,0,0-0.1,0-0.1
		c0,0,0-0.1-0.1-0.1c0-0.1-0.1-0.1-0.2-0.2c-0.1-0.1-0.3-0.1-0.5-0.1c-0.6,0-1.2,0.3-1.9,0.8c-0.7,0.6-1.5,1.3-2.4,2.3
		c-0.1,0.1-0.1,0.1-0.2,0.2c0,0.1-0.1,0.1-0.2,0.2c-0.7,0.8-1.2,1.5-1.6,2.2c-0.4,0.7-0.8,1.1-1.1,1.3c0,0-0.1,0-0.2,0.1
		c-0.1,0-0.1,0-0.2,0c-0.1,0-0.2,0-0.3,0c-0.1,0-0.2-0.1-0.3-0.2c-0.2-0.2-0.4-0.5-0.6-1c-0.2-0.5-0.3-1.2-0.3-2.2
		c0-0.7,0-1.2,0.1-1.7c0.1-0.4,0.2-0.9,0.4-1.3c0.2-0.3,0.4-0.6,0.6-1c0.3-0.4,0.6-0.8,1-1.3c0.2-0.3,0.4-0.5,0.6-0.8
		c0.2-0.2,0.4-0.5,0.6-0.6c0.4-0.4,0.8-0.8,1.2-1c0.4-0.2,0.9-0.4,1.5-0.4c0.2,0,0.4,0,0.5,0.1c0.1,0.1,0.2,0.2,0.3,0.4
		c0,0,0,0.1,0,0.1c0,0,0,0.1,0,0.1c0,0,0,0.1,0,0.2s0,0.1-0.1,0.2c0,0.1-0.1,0.2-0.1,0.2c-0.1,0.1-0.1,0.2-0.2,0.2
		c0,0.1-0.1,0.1-0.1,0.2c0,0-0.1,0.1-0.1,0.1c-0.1,0.1-0.3,0.3-0.7,0.7c-0.3,0.4-0.7,0.8-1.1,1.2c0,0.1-0.1,0.1-0.1,0.2
		c0,0.1-0.1,0.1-0.2,0.2c-0.4,0.5-0.7,0.9-1,1.3c-0.3,0.4-0.4,0.7-0.4,0.9c0,0,0,0.1,0,0.2c0,0.1,0,0.2,0.1,0.3c0,0,0,0.1,0.1,0.1
		c0,0,0,0.1,0,0.1c0,0.1,0,0.2,0.1,0.2c0,0.1,0,0.1,0.1,0.1C170.3,25.4,171.3,24.5,172.1,23.8z M176.1,17.2c0-0.2-0.1-0.5-0.1-0.9
		c0-0.8,0.6-1.6,1.7-2.3c1.2-0.7,2.4-1.3,3.8-1.7c1-0.3,2-0.6,2.9-0.8c0.9-0.2,1.6-0.3,2.1-0.3c0.6,0,1.1,0.1,1.4,0.3
		c0.3,0.2,0.5,0.4,0.6,0.6c0,0.1,0.1,0.1,0.1,0.2c0,0.1,0,0.1,0,0.2c0,0,0,0.1,0,0.1c0,0,0,0.1-0.1,0.1l-1,1.7c0,0-0.1,0-0.1-0.1
		c0,0-0.1,0-0.1,0c-0.4-0.2-0.8-0.3-1.3-0.3c-0.4,0-0.9-0.1-1.5-0.1c-0.5,0-1.1,0.1-1.7,0.2c-0.7,0.1-1.3,0.3-2,0.6
		c-0.9,0.3-1.7,0.8-2.5,1.2c-0.8,0.5-1.4,1.1-1.9,1.7C176.3,17.6,176.2,17.5,176.1,17.2z"/>
	<path class="st0" d="M201.3,19.8c0.2,0.2,0.3,0.5,0.3,0.7c0,0.1,0,0.3,0.1,0.4c0,0.1,0,0.2,0,0.4c0,0.2,0,0.4-0.1,0.6
		s-0.1,0.4-0.1,0.6c-0.1,0.5-0.3,1-0.5,1.5c-0.2,0.5-0.4,0.9-0.7,1.3c0,0-0.1,0.1-0.1,0.2c0,0.1-0.1,0.1-0.1,0.2c0,0,0,0.1-0.1,0.1
		c0,0,0,0.1,0,0.1c0,0.2,0.1,0.3,0.3,0.4c0.2,0.1,0.3,0.2,0.5,0.2s0.4,0,0.5-0.1c0.2-0.1,0.3-0.1,0.4-0.2c0.1-0.1,0.3-0.1,0.4-0.2
		c0.1-0.1,0.2-0.1,0.3-0.1c0.1,0,0.2,0,0.3,0.1c0.1,0,0.1,0.1,0.1,0.2c0,0.1-0.1,0.2-0.2,0.4c-0.1,0.2-0.3,0.4-0.6,0.6
		c-0.4,0.3-0.9,0.6-1.4,0.8c-0.6,0.2-1.2,0.4-1.8,0.4c0,0-0.1,0-0.2,0s-0.1,0-0.2,0c-0.8,1-1.6,1.7-2.4,2c-0.8,0.4-1.6,0.6-2.3,0.6
		c-1,0-1.8-0.4-2.4-1.1c-0.6-0.7-1-1.5-1.3-2.4c-0.1-0.3-0.1-0.6-0.2-0.8c0-0.3-0.1-0.5-0.1-0.8c0-0.1,0-0.2,0-0.4
		c0-0.1,0-0.3,0.1-0.4c0.2-1.2,0.8-2.4,1.8-3.5c1-1.1,2.1-2,3.2-2.8c0.7-0.4,1.4-0.8,2.1-1c0.7-0.3,1.2-0.4,1.7-0.4c0,0,0,0,0.1,0
		s0,0,0.1,0c0.3,0,0.7,0.1,1,0.2c0.3,0.1,0.5,0.3,0.7,0.4c0.1,0,0.1,0.1,0.2,0.2c0,0.1,0.1,0.1,0.1,0.2c0,0,0,0.1,0,0.1s0,0.1,0,0.1
		c0,0.1,0,0.1,0,0.2c0,0.1,0,0.1,0,0.2c0,0,0,0,0,0.1c0,0,0,0,0,0.1c0,0,0,0,0,0.1c0,0,0,0,0,0.1c0,0,0,0,0,0.1
		C200.8,19.4,201.1,19.6,201.3,19.8z M196.9,26.4c-0.1-0.3-0.1-0.5-0.1-0.8c0-0.3,0-0.7,0.1-1c0.1-0.3,0.2-0.6,0.3-0.9
		c0.4-1,0.7-1.7,0.8-2c0.2-0.3,0.3-0.6,0.3-0.7c0-0.1,0-0.1-0.1-0.2c-0.1-0.1-0.2-0.1-0.3-0.1c0,0-0.1,0-0.1,0s-0.1,0-0.1,0
		c-0.2,0-0.4,0.1-0.7,0.2c-0.3,0.2-0.6,0.4-1,0.6c-0.1,0.1-0.2,0.2-0.3,0.2c-0.1,0.1-0.2,0.2-0.3,0.2c-0.2,0.2-0.4,0.3-0.6,0.5
		c-0.2,0.2-0.3,0.3-0.4,0.4c-0.1,0.1-0.2,0.2-0.3,0.3c-0.1,0.1-0.2,0.2-0.3,0.3c-0.5,0.5-0.9,1.1-1.2,1.7c-0.3,0.6-0.5,1.3-0.5,2.1
		c0,0.5,0.1,0.9,0.3,1.1c0.2,0.2,0.4,0.3,0.7,0.4c0.1,0,0.3,0,0.4,0.1c0.1,0,0.3,0,0.4,0c0.6,0,1.1-0.1,1.6-0.4
		c0.5-0.3,0.9-0.6,1.3-0.9c0,0,0.1-0.1,0.1-0.1c0,0,0.1-0.1,0.1-0.1C197.1,27,197,26.7,196.9,26.4z"/>
	<path class="st0" d="M212.8,23.3c-0.6,0.3-1.4,0.7-2.3,1.4c-0.9,0.7-2.2,2-4,3.9c0,0-0.1,0.1-0.1,0.1c0,0-0.1,0.1-0.1,0.1
		c-0.4,0.5-0.8,0.9-1.2,1.2c-0.4,0.4-0.7,0.5-1,0.5c0,0,0,0-0.1,0s0,0-0.1,0c-0.3,0-0.6-0.3-0.8-0.7c-0.3-0.4-0.4-0.9-0.4-1.4
		c0-0.3,0-0.6,0.1-0.9c0.1-0.3,0.2-0.7,0.3-1c0.2-0.5,0.4-0.9,0.6-1.4c0.3-0.4,0.5-0.8,0.8-1.1c0.1-0.2,0.3-0.3,0.4-0.4
		c0.1-0.1,0.3-0.1,0.4-0.1s0.2,0,0.3,0.1c0.1,0,0.1,0.1,0.1,0.1c0,0,0,0.1-0.1,0.2c0,0.1-0.1,0.2-0.1,0.3c-0.2,0.4-0.3,0.7-0.3,1.1
		c0,0.3-0.1,0.6-0.1,0.9c0,0.1,0,0.1,0,0.2s0,0.1,0,0.2c0,0,0,0.1,0,0.1c0,0,0,0.1,0,0.1c0,0,0,0.1,0,0.1c0,0,0,0.1,0,0.1
		c0,0.1,0.1,0.3,0.1,0.4c0,0.1,0.1,0.2,0.2,0.2c0.3,0,0.8-0.6,1.7-1.7c0.9-1.1,2.1-2.4,3.6-3.7c0.2-0.2,0.5-0.4,0.8-0.7
		c0.3-0.3,0.7-0.6,1.1-0.9c0.1-0.1,0.2-0.1,0.3-0.2c0.1-0.1,0.2-0.2,0.3-0.2c0.6-0.4,1.1-0.8,1.6-1.1c0.5-0.3,0.9-0.5,1.1-0.5
		c0.2,0,0.3,0.1,0.5,0.3c0.1,0.2,0.3,0.5,0.3,0.7c0.1,0.2,0.1,0.3,0.1,0.5c0,0.2,0,0.3,0,0.4c0,0.1-0.1,0.3-0.2,0.5
		c-0.1,0.2-0.3,0.4-0.4,0.6c0,0-0.1,0.1-0.1,0.1c0,0-0.1,0.1-0.1,0.1c-0.2,0.2-0.3,0.3-0.5,0.5s-0.3,0.3-0.3,0.4
		c-0.1,0.1-0.2,0.3-0.3,0.4c-0.1,0.1-0.2,0.3-0.3,0.4c-0.1,0.2-0.3,0.4-0.4,0.6c-0.1,0.2-0.3,0.4-0.4,0.6c-0.1,0.3-0.3,0.5-0.4,0.8
		c-0.1,0.3-0.1,0.5-0.1,0.8c0,0,0,0.1,0,0.1s0,0.1,0,0.1c0,0.2,0.1,0.3,0.3,0.5c0.2,0.1,0.4,0.2,0.8,0.2c0.2,0,0.4,0,0.6-0.1
		c0.2-0.1,0.4-0.2,0.7-0.4c0.2-0.1,0.3-0.2,0.5-0.3c0.2-0.1,0.3-0.3,0.5-0.4c0.1-0.1,0.3-0.2,0.4-0.4c0.1-0.1,0.2-0.2,0.3-0.3
		c0.1-0.1,0.2-0.2,0.3-0.3c0.1-0.1,0.2-0.1,0.3-0.1c0.1,0,0.1,0,0.2,0.1c0.1,0.1,0.1,0.2,0.1,0.3c0,0.2-0.1,0.4-0.4,0.7
		c-0.3,0.3-0.7,0.8-1.2,1.4c-0.1,0.2-0.4,0.4-0.7,0.7c-0.3,0.3-0.7,0.6-1.1,1c-0.2,0.1-0.3,0.3-0.5,0.4c-0.2,0.1-0.3,0.3-0.5,0.4
		c-0.4,0.3-0.8,0.5-1.2,0.7c-0.4,0.2-0.7,0.3-1,0.3c0,0,0,0-0.1,0s0,0-0.1,0c-0.5,0-0.9-0.3-1.2-0.7c-0.4-0.4-0.6-1.1-0.6-2.1
		c0-0.5,0.1-1,0.3-1.4c0.2-0.4,0.4-0.8,0.6-1.1c0.1-0.1,0.1-0.2,0.2-0.3c0.1-0.1,0.1-0.2,0.2-0.3c0.1-0.1,0.1-0.2,0.2-0.3
		c0.1-0.1,0.1-0.2,0.2-0.3c0,0,0-0.1,0.1-0.1c0.1-0.2,0.3-0.4,0.4-0.6C212.4,23.8,212.6,23.5,212.8,23.3
		C212.8,23.2,212.8,23.3,212.8,23.3z"/>
	<path class="st0" d="M225.7,26.7c-0.3,0.3-0.5,0.6-0.8,0.9c-0.3,0.3-0.5,0.6-0.8,0.8c-0.3,0.3-0.5,0.5-0.8,0.8
		c-0.5,0.4-0.9,0.7-1.4,1c-0.5,0.3-0.9,0.4-1.2,0.4c-0.6,0-1.1-0.5-1.6-1.5c-0.4-1-0.6-2.1-0.6-3.4c0-0.4,0.1-0.9,0.3-1.5
		c0.2-0.6,0.5-1.2,0.9-1.8c0.4-0.7,0.8-1.3,1.3-1.9c0.5-0.6,1-1.1,1.5-1.6c0.4-0.4,0.8-0.6,1.1-0.8c0.4-0.2,0.7-0.3,1.1-0.3
		c0.4,0,0.8,0.1,1.1,0.3c0.3,0.2,0.4,0.3,0.4,0.5c0,0.2-0.1,0.6-0.4,1c-0.3,0.4-0.6,0.8-1,1.3c-0.2,0.2-0.5,0.5-0.7,0.7
		s-0.5,0.5-0.7,0.7c-0.2,0.2-0.5,0.4-0.7,0.5c-0.2,0.2-0.4,0.3-0.6,0.4c-0.1,0-0.1,0.1-0.2,0.1c0,0-0.1,0.1-0.1,0.1h0
		c-0.1,0-0.1,0.1-0.2,0.1c-0.1,0-0.2,0.1-0.3,0.2c-0.1,0.2-0.1,0.4-0.2,0.6c0,0.2-0.1,0.4-0.1,0.6c0,0.5,0.1,0.9,0.3,1.3
		c0.2,0.4,0.5,0.5,0.8,0.5c0.2,0,0.4-0.1,0.6-0.2c0.2-0.1,0.5-0.3,0.9-0.5c0.3-0.2,0.6-0.4,0.9-0.6c0.3-0.2,0.8-0.6,1.3-1.2l6.4-6.3
		c0,0,0,0,0.1-0.1c0,0,0,0,0.1-0.1c0-0.1,0.1-0.1,0.2-0.2c0.1,0,0.2-0.1,0.3-0.1c0,0,0.1,0,0.2,0c0.1,0,0.1,0.1,0.2,0.1
		c0.1,0.1,0.2,0.3,0.3,0.6c0.1,0.3,0.2,0.7,0.2,1.2c0,0,0,0.1,0,0.2c0,0.1,0,0.1,0,0.2c0,0.1,0,0.1,0,0.2c0,0,0,0.1-0.1,0.1
		c0,0,0,0.1-0.1,0.1l-3.2,3.5c-0.1,0.1-0.1,0.1-0.2,0.2c-0.1,0.1-0.1,0.2-0.2,0.3c-0.2,0.3-0.4,0.6-0.5,1c-0.2,0.4-0.3,0.8-0.3,1.3
		c0,0.4,0.1,0.7,0.2,1c0.1,0.3,0.4,0.4,0.7,0.4c0.2,0,0.4,0,0.6-0.1c0.3-0.1,0.5-0.2,0.7-0.3c0.1-0.1,0.3-0.1,0.4-0.2
		c0.1-0.1,0.3-0.1,0.4-0.2c0.1,0,0.2-0.1,0.3-0.2c0.1-0.1,0.2-0.1,0.2-0.2c0,0,0.1,0,0.2-0.1c0.1-0.1,0.2-0.1,0.3-0.2
		c0.1-0.1,0.3-0.2,0.5-0.3c0,0,0,0,0.1,0c0,0,0,0,0.1,0c0,0,0.1,0.1,0.1,0.1s0.1,0.1,0.1,0.2c0,0.1-0.2,0.4-0.7,0.9
		c-0.5,0.5-1,1-1.7,1.6c-0.2,0.2-0.4,0.4-0.7,0.6c-0.2,0.2-0.5,0.4-0.7,0.5c-0.6,0.4-1.1,0.8-1.6,1s-1,0.4-1.3,0.4c0,0,0,0-0.1,0
		c0,0,0,0-0.1,0c-0.3,0-0.6-0.2-0.9-0.5s-0.4-0.8-0.4-1.5c0-0.2,0-0.5,0.1-0.9c0-0.3,0.1-0.7,0.2-1c0-0.2,0.1-0.4,0.1-0.6
		c0-0.2,0.1-0.4,0.1-0.6c0-0.1,0-0.1,0-0.2c0-0.1,0-0.1,0.1-0.2C226.2,26.1,226,26.4,225.7,26.7z"/>
	<path class="st0" d="M235.2,30.3c0,0-0.1,0.1-0.1,0.1l0,0c0,0,0,0-0.1,0.1c0,0,0,0-0.1,0c0,0-0.1,0-0.2-0.1
		c-0.1-0.1-0.1-0.1-0.2-0.3c-0.1-0.3-0.2-0.7-0.3-1.2s-0.2-1.3-0.2-2.2c0-0.1,0-0.2,0-0.3s0-0.2,0-0.3c0-0.1,0-0.2,0-0.3
		c0-0.1,0-0.2,0.1-0.3c0.1-0.5,0.2-1.1,0.5-1.7c0.3-0.6,0.6-1.3,1-2c0.2-0.4,0.4-0.8,0.7-1.2c0.2-0.4,0.5-0.8,0.7-1.2
		c0.6-0.8,1.1-1.5,1.6-2c0.5-0.5,0.9-0.8,1.1-0.8c0.2,0,0.4,0.2,0.5,0.6c0.2,0.4,0.3,0.8,0.3,1.3c0,0.1,0,0.2,0,0.3
		c0,0.1,0,0.2,0,0.3c0,0.2,0,0.3,0,0.4c0,0.1-0.1,0.2-0.1,0.3c-0.1,0.1-0.2,0.3-0.3,0.5c-0.1,0.2-0.3,0.4-0.6,0.6
		c-0.2,0.1-0.3,0.3-0.5,0.5c-0.2,0.2-0.4,0.4-0.5,0.6c-0.3,0.4-0.7,0.8-1,1.2c-0.3,0.4-0.5,0.9-0.7,1.3c-0.1,0.3-0.2,0.5-0.3,0.8
		c-0.1,0.2-0.1,0.5-0.1,0.7c0,0.1,0,0.2,0,0.3c0,0.1,0,0.2,0.1,0.2c0.5-0.7,1.1-1.3,1.6-1.9c0.6-0.6,1.1-1.2,1.7-1.8
		c1.7-1.6,3.2-2.9,4.7-3.9c1.5-0.9,2.5-1.4,3.2-1.4c0.1,0,0.2,0,0.2,0s0.2,0.1,0.2,0.1c0.2,0.1,0.4,0.3,0.5,0.6
		c0.2,0.3,0.2,0.6,0.2,1.1c0,0.3,0,0.6,0,0.9c0,0.3-0.1,0.7-0.1,1c-0.1,0.5-0.3,1-0.5,1.4c-0.2,0.5-0.5,0.9-1,1.2c0,0,0,0-0.1,0
		c0,0,0,0-0.1,0c-0.1,0-0.2,0-0.4,0c-0.1,0-0.2,0-0.4-0.1c-0.4-0.1-0.7-0.2-1-0.4c-0.3-0.2-0.4-0.4-0.4-0.6c0-0.1,0-0.1,0.1-0.2
		c0-0.1,0.1-0.1,0.2-0.2c0,0,0,0,0.1-0.1c0,0,0,0,0.1-0.1c0.1,0,0.2-0.1,0.3-0.2c0.1-0.1,0.2-0.3,0.2-0.5c0,0,0-0.1,0-0.1
		s0-0.1,0-0.1c0,0,0,0,0-0.1c0,0,0,0,0-0.1c0-0.1-0.1-0.2-0.2-0.2c-0.1-0.1-0.2-0.1-0.4-0.1c-0.3,0-0.7,0.1-1.1,0.4
		c-0.4,0.2-0.8,0.5-1.3,0.9c-0.2,0.2-0.4,0.3-0.6,0.5c-0.2,0.2-0.4,0.3-0.6,0.5c-0.3,0.3-0.6,0.7-0.9,1c-0.3,0.3-0.5,0.6-0.7,0.8
		c0.6,0.2,1.1,0.5,1.5,0.9c0.4,0.4,0.8,0.8,1.1,1.2c0.2,0.2,0.3,0.4,0.5,0.6c0.2,0.2,0.3,0.4,0.5,0.5c0.2,0.2,0.3,0.3,0.5,0.4
		c0.2,0.1,0.3,0.1,0.5,0.1c0.2,0,0.5-0.1,0.8-0.2c0.3-0.2,0.7-0.4,1-0.6c0.1,0,0.2-0.1,0.3-0.2c0.1-0.1,0.2-0.1,0.3-0.2
		c0.3-0.2,0.5-0.3,0.8-0.5c0.2-0.2,0.4-0.3,0.6-0.4c0.3-0.3,0.6-0.4,0.7-0.5c0.1-0.1,0.2-0.1,0.3-0.1c0,0,0.1,0,0.1,0.1
		c0,0,0.1,0.1,0.1,0.2c0,0,0,0,0,0.1c0,0,0,0,0,0.1c0,0.1-0.1,0.4-0.4,0.7c-0.2,0.3-0.5,0.7-0.9,1c-0.1,0.1-0.1,0.1-0.2,0.2
		c0,0.1-0.1,0.1-0.2,0.2c-0.3,0.3-0.6,0.6-0.8,0.8s-0.5,0.4-0.6,0.6c-0.1,0.1-0.3,0.2-0.5,0.3c-0.2,0.2-0.5,0.3-0.8,0.5
		c-0.2,0.1-0.5,0.2-0.7,0.3c-0.2,0.1-0.5,0.2-0.7,0.3c-0.2,0.1-0.4,0.1-0.6,0.2c-0.2,0-0.4,0.1-0.6,0.1c-0.7,0-1.3-0.2-1.7-0.6
		c-0.4-0.4-0.8-0.8-1.1-1.3c-0.1-0.1-0.2-0.3-0.3-0.5c-0.1-0.2-0.1-0.3-0.2-0.5c-0.1-0.2-0.2-0.4-0.3-0.6c-0.1-0.2-0.2-0.3-0.3-0.5
		c-0.1-0.2-0.3-0.3-0.4-0.5s-0.3-0.2-0.6-0.3L235.2,30.3z"/>
</g>
</svg>
