<?xml version="1.0" encoding="utf-8"?>
<!-- Generator: Adobe Illustrator 21.0.2, SVG Export Plug-In . SVG Version: 6.00 Build 0)  -->
<svg version="1.1" id="Isolation_Mode" xmlns="http://www.w3.org/2000/svg" xmlns:xlink="http://www.w3.org/1999/xlink" x="0px"
	 y="0px" viewBox="0 0 106.4 36.4" style="enable-background:new 0 0 106.4 36.4;" xml:space="preserve">
<style type="text/css">
	.st0{fill:#E3000F;}
</style>
<g>
	<path class="st0" d="M17.4,4.6c0,0,0.1,0,0.1,0c0,0,0.1,0,0.1,0c0,0,0.1,0,0.1,0c1,0,1.8,0.3,2.5,1c0.7,0.7,1.1,1.7,1.1,3
		c0,0.9-0.2,1.9-0.5,3c-0.3,1.1-0.8,2.2-1.4,3.3c-1.3,2.5-3.2,4.8-5.7,6.9c-2.5,2.1-5.1,3.1-8,3.1c-0.3,0-0.6,0-0.8,0
		c-0.3,0-0.5-0.1-0.8-0.2c-0.2,0-0.4-0.1-0.6-0.2c-0.2-0.1-0.4-0.2-0.6-0.4c-0.8-0.7-1.4-1.4-1.8-2.1c-0.4-0.7-0.8-1.5-1-2.2
		c-0.1-0.4-0.2-0.7-0.2-1.1C0,18.4,0,18,0,17.7c0-3,0.9-5.6,2.8-7.9c1.9-2.3,3.9-4.3,6.1-5.8c1.7-1.2,3.2-2.1,4.7-2.7
		C15.2,0.5,16.3,0.1,17,0c0.1,0,0.2,0,0.3,0c0.1,0,0.2,0,0.2,0c0,0,0.1,0,0.2,0c0.1,0,0.1,0,0.2,0c0.4,0.1,0.8,0.4,1.2,0.8
		c0.4,0.4,0.7,0.9,1,1.4c0.1,0.2,0.3,0.5,0.4,0.7c0.1,0.2,0.2,0.5,0.3,0.6c-0.7,0.1-1.3,0.2-1.8,0.4c-0.5,0.2-0.9,0.4-1.3,0.6
		C17.5,4.5,17.5,4.5,17.4,4.6c0,0-0.1,0-0.1,0C17.4,4.6,17.4,4.6,17.4,4.6z M6.6,12.2C6.6,12.2,6.5,12.3,6.6,12.2
		c-0.1,0.1-0.2,0.2-0.2,0.2c-0.5,0.5-0.9,1.2-1.4,2c-0.5,0.8-0.8,1.6-1.1,2.5c-0.2,0.6-0.4,1.2-0.5,1.7c-0.1,0.6-0.2,1.1-0.2,1.6
		c0,0.7,0.1,1.2,0.4,1.7s0.6,0.7,1,0.9c0.1,0.1,0.2,0.1,0.4,0.1c0.1,0,0.2,0,0.3,0C6,23,6.9,22.7,8,22.1c1.1-0.6,2.3-1.4,3.5-2.4
		c1.2-1,2.3-2.1,3.4-3.3c1.1-1.2,2-2.5,2.7-3.8c0.4-0.7,0.7-1.4,0.9-2.1c0.2-0.7,0.3-1.4,0.3-2c0-0.7-0.1-1.2-0.4-1.6
		s-0.7-0.6-1.4-0.6c-0.6,0-1.1,0.1-1.8,0.3c-0.6,0.2-1.2,0.5-1.9,0.9c-0.7,0.4-1.4,0.9-2.1,1.4c-0.7,0.5-1.3,1.1-1.9,1.7
		c-0.4,0.3-0.7,0.7-1,1c-0.3,0.3-0.6,0.7-0.9,1L6.6,12.2z"/>
	<path class="st0" d="M25.8,18.3c0.9-0.7,1.6-1.4,2.3-2c1.9-1.6,3.2-2.5,3.9-2.9c0.7-0.4,1.2-0.6,1.5-0.6c0.4,0,0.7,0.1,0.8,0.3
		s0.2,0.3,0.3,0.5c0,0.1,0,0.2,0,0.2c0,0.1,0,0.2,0,0.2c0,0,0,0,0,0.1s0,0,0,0.1c0,0.2,0,0.4-0.1,0.5c0,0.2-0.1,0.3-0.2,0.5
		c0,0.1-0.1,0.1-0.1,0.2c0,0.1-0.1,0.2-0.1,0.3c-0.7,1.2-1.2,2.1-1.7,2.5c-0.4,0.5-0.7,0.8-0.8,1.1c0,0,0,0,0,0.1c0,0,0,0,0,0.1
		c0,0.1,0,0.1,0.1,0.2c0,0.1,0.1,0.1,0.1,0.1c0,0,0,0,0.1,0c0,0,0,0,0.1,0c0.2,0,0.5-0.3,0.9-0.7c0.4-0.4,1.4-1.3,3-2.6
		c1-0.8,1.8-1.4,2.6-1.8c0.8-0.4,1.3-0.7,1.5-0.9c0,0,0,0,0.1,0c0,0,0,0,0.1-0.1c0.1,0,0.2-0.1,0.3-0.1c0.1,0,0.2-0.1,0.4-0.1
		c0.2,0,0.4,0.1,0.5,0.3c0.2,0.2,0.3,0.5,0.4,0.8c0.1,0.2,0.1,0.4,0.2,0.6c0,0.2,0.1,0.3,0.1,0.4c0,0.1,0,0.3-0.1,0.4
		c-0.1,0.1-0.2,0.2-0.3,0.4c0,0,0,0-0.1,0c0,0,0,0-0.1,0.1c-1.2,1.1-2.1,2.1-2.5,2.9c-0.4,0.8-0.7,1.4-0.7,1.9
		c0,0.4,0.1,0.6,0.3,0.8c0.2,0.2,0.4,0.3,0.8,0.3c0.2,0,0.6-0.1,1.1-0.3c0.5-0.2,1.2-0.7,2.1-1.5c0,0,0,0,0.1-0.1s0,0,0.1,0
		c0.1-0.1,0.1-0.1,0.2-0.2c0.1,0,0.2-0.1,0.3-0.1c0,0,0.1,0,0.1,0c0,0,0.1,0.1,0.1,0.1c0,0,0,0.1,0,0.2c0,0.1,0,0.1,0,0.2
		c-0.1,0.3-0.3,0.6-0.7,1.1c-0.4,0.4-0.9,0.9-1.4,1.3c-0.2,0.2-0.5,0.4-0.8,0.6c-0.3,0.2-0.5,0.4-0.8,0.6c-0.7,0.5-1.4,0.9-2,1.2
		c-0.6,0.3-1.1,0.5-1.4,0.5c-0.1,0-0.1,0-0.2,0c-0.1,0-0.1,0-0.2,0c-0.3-0.1-0.6-0.2-0.9-0.4c-0.3-0.2-0.4-0.5-0.4-1
		c0-0.3,0-0.7,0.1-1.2c0.1-0.5,0.3-1.2,0.8-2c0.2-0.3,0.3-0.6,0.4-0.8c0.1-0.2,0.2-0.4,0.3-0.6l0-0.1c0,0,0,0,0.1-0.1c0,0,0,0,0-0.1
		c0.2-0.3,0.3-0.5,0.4-0.7c0.1-0.2,0.1-0.3,0.1-0.4c0-0.1,0-0.1-0.1-0.1c0,0-0.1,0-0.2-0.1c0,0,0,0-0.1,0c-0.1,0-0.4,0.1-0.7,0.4
		s-0.7,0.5-1.2,0.9c0,0-0.1,0.1-0.1,0.1c0,0-0.1,0.1-0.1,0.1c-0.4,0.3-0.7,0.6-1,0.9c-0.3,0.3-0.5,0.4-0.6,0.5
		c-1.2,1.1-2.1,2-2.8,2.7c-0.7,0.7-1.3,1-1.9,1c0,0-0.1,0-0.1,0c0,0-0.1,0-0.2-0.1c-0.1-0.1-0.2-0.2-0.4-0.4
		c-0.1-0.2-0.2-0.4-0.2-0.7c0-0.1,0-0.3,0.1-0.5c0-0.2,0.1-0.3,0.1-0.5c0-0.1,0.1-0.2,0.2-0.4c0.1-0.1,0.1-0.2,0.2-0.3
		c0.1-0.2,0.2-0.4,0.3-0.5c0.1-0.2,0.1-0.3,0.2-0.3c0.5-0.8,0.9-1.4,1.2-1.8c0.3-0.4,0.4-0.7,0.4-0.9c0,0,0-0.1,0-0.1
		c0,0,0-0.1-0.1-0.1c0-0.1-0.1-0.1-0.2-0.2C29.6,18,29.4,18,29.2,18c-0.6,0-1.2,0.3-1.9,0.8c-0.7,0.6-1.5,1.3-2.4,2.3
		c-0.1,0.1-0.1,0.1-0.2,0.2c0,0.1-0.1,0.1-0.2,0.2c-0.7,0.8-1.2,1.5-1.6,2.2c-0.4,0.7-0.8,1.1-1.1,1.3c0,0-0.1,0-0.2,0.1
		c-0.1,0-0.1,0-0.2,0c-0.1,0-0.2,0-0.3,0c-0.1,0-0.2-0.1-0.3-0.2c-0.2-0.2-0.4-0.5-0.6-1c-0.2-0.5-0.3-1.2-0.3-2.2
		c0-0.7,0-1.2,0.1-1.7c0.1-0.4,0.2-0.9,0.4-1.3c0.2-0.3,0.4-0.6,0.6-1c0.3-0.4,0.6-0.8,1-1.3c0.2-0.3,0.4-0.5,0.6-0.8
		c0.2-0.2,0.4-0.5,0.6-0.6c0.4-0.4,0.8-0.8,1.2-1c0.4-0.2,0.9-0.4,1.5-0.4c0.2,0,0.4,0,0.5,0.1c0.1,0.1,0.2,0.2,0.3,0.4
		c0,0,0,0.1,0,0.1c0,0,0,0.1,0,0.1c0,0,0,0.1,0,0.2s0,0.1-0.1,0.2c0,0.1-0.1,0.2-0.1,0.2c-0.1,0.1-0.1,0.2-0.2,0.2
		c0,0.1-0.1,0.1-0.1,0.2c0,0-0.1,0.1-0.1,0.1c-0.1,0.1-0.3,0.3-0.7,0.7c-0.3,0.4-0.7,0.8-1.1,1.2c0,0.1-0.1,0.1-0.1,0.2
		c0,0.1-0.1,0.1-0.2,0.2c-0.4,0.5-0.7,0.9-1,1.3c-0.3,0.4-0.4,0.7-0.4,0.9c0,0,0,0.1,0,0.2c0,0.1,0,0.2,0.1,0.3c0,0,0,0.1,0.1,0.1
		c0,0,0,0.1,0,0.1c0,0.1,0,0.2,0.1,0.2c0,0.1,0,0.1,0.1,0.1C24,20,25,19,25.8,18.3z M29.8,11.8c0-0.2-0.1-0.5-0.1-0.9
		c0-0.8,0.6-1.6,1.7-2.3c1.2-0.7,2.4-1.3,3.8-1.7c1-0.3,2-0.6,2.9-0.8c0.9-0.2,1.6-0.3,2.1-0.3c0.6,0,1.1,0.1,1.4,0.3
		c0.3,0.2,0.5,0.4,0.6,0.6c0,0.1,0.1,0.1,0.1,0.2c0,0.1,0,0.1,0,0.2c0,0,0,0.1,0,0.1c0,0,0,0.1-0.1,0.1l-1,1.7c0,0-0.1,0-0.1-0.1
		c0,0-0.1,0-0.1,0c-0.4-0.2-0.8-0.3-1.3-0.3c-0.4,0-0.9-0.1-1.5-0.1c-0.5,0-1.1,0.1-1.7,0.2c-0.7,0.1-1.3,0.3-2,0.6
		c-0.9,0.3-1.7,0.8-2.5,1.2c-0.8,0.5-1.4,1.1-1.9,1.7C30,12.2,29.9,12,29.8,11.8z"/>
	<path class="st0" d="M46.2,19.7c0.4-0.1,0.9-0.3,1.4-0.6c0.6-0.3,1.1-0.5,1.7-0.8c0.5-0.3,0.9-0.5,1.4-0.8c0.5-0.3,0.9-0.6,1.3-0.9
		c0.4-0.3,0.7-0.6,1-1c0.3-0.3,0.4-0.6,0.4-0.9c0-0.2-0.1-0.3-0.2-0.4c-0.1-0.1-0.3-0.1-0.6-0.1c-0.2,0-0.4,0-0.5,0
		c-0.1,0-0.3,0-0.5,0.1c-0.1,0-0.2,0.1-0.4,0.1c-0.1,0-0.3,0.1-0.4,0.1c-0.3,0.1-0.6,0.2-0.9,0.3c-0.3,0.1-0.6,0.2-0.8,0.3
		c-1.7,0.6-2.8,1.2-3.3,1.7c-0.5,0.5-1,0.8-1.3,0.9c0,0-0.1,0-0.1,0c0,0-0.1,0-0.1,0c-0.1,0-0.1-0.1-0.2-0.3c0-0.2-0.1-0.4-0.1-0.6
		c0-0.2,0-0.3,0-0.5s0-0.3,0-0.4c0-0.2,0-0.4,0.1-0.6c0-0.2,0.1-0.4,0.2-0.6c0.2-0.3,0.5-0.6,0.9-0.9c0.4-0.3,1-0.6,1.9-1
		c0.1,0,0.3-0.1,0.4-0.2c0.1-0.1,0.3-0.1,0.5-0.2c0.3-0.1,0.7-0.2,1-0.4c0.4-0.1,0.7-0.2,1.1-0.3c0.5-0.1,0.9-0.2,1.4-0.3
		c0.5-0.1,0.9-0.1,1.3-0.1c0.6,0,1.1,0.2,1.5,0.6c0.3,0.4,0.6,0.9,0.8,1.4c0.1,0.3,0.2,0.6,0.2,0.9c0,0.3,0.1,0.5,0.1,0.7
		c0,0.4-0.2,0.9-0.6,1.4c-0.4,0.6-0.9,1.1-1.6,1.7c-0.6,0.5-1.2,1-1.9,1.4c-0.7,0.5-1.4,0.9-2.1,1.3c0.5,0.4,0.8,0.8,1,1.3
		c0.2,0.5,0.4,1.1,0.4,1.6c0,0,0,0.1,0,0.1s0,0.1,0,0.1c0,0,0,0,0,0.1s0,0,0,0.1c1.4-0.8,2.4-1.3,3-1.7c0.6-0.4,1-0.6,1.1-0.7
		c0.2-0.1,0.4-0.2,0.6-0.3c0.2-0.1,0.4-0.1,0.5-0.1c0.1,0,0.2,0,0.2,0.1c0,0.1,0.1,0.2,0.1,0.3c0,0,0,0.1,0,0.1c0,0,0,0.1,0,0.1
		c0,0.2-0.5,0.7-1.4,1.3c-0.9,0.6-2.3,1.5-4.2,2.6c-0.1,0.5-0.3,1-0.6,1.6c-0.3,0.6-0.5,1.1-0.8,1.7c-0.5,0.8-1.1,1.7-1.7,2.5
		c-0.6,0.8-1.3,1.6-2,2.2c-0.7,0.7-1.5,1.3-2.1,1.8c-0.7,0.5-1.3,0.7-1.8,0.7c-0.3,0-0.6-0.2-0.7-0.5c-0.2-0.3-0.2-0.8-0.2-1.2
		c0-0.1,0-0.2,0-0.3c0-0.1,0-0.2,0-0.3c0.1-0.9,0.5-1.9,1.2-3c0.7-1,2.2-2.3,4.3-3.9c0.1-0.1,0.2-0.1,0.3-0.2
		c0.1-0.1,0.2-0.1,0.3-0.2c0,0,0,0,0,0c0,0,0,0,0,0c0.2-0.1,0.3-0.3,0.5-0.4s0.4-0.3,0.7-0.5c0-0.1,0-0.2,0.1-0.3c0-0.1,0-0.2,0-0.3
		c0-0.7-0.2-1.3-0.6-1.9c-0.4-0.6-1-1-1.7-1.1L46.2,19.7z M47.5,27.5c-0.2,0.1-0.4,0.3-0.6,0.5c-0.2,0.2-0.4,0.3-0.6,0.5
		c-1,0.8-1.9,1.6-2.7,2.4c-0.8,0.9-1.2,1.7-1.2,2.6c0,0,0,0.1,0,0.1c0,0,0,0.1,0,0.1c0,0.1,0,0.2,0.1,0.2c0,0.1,0.1,0.1,0.1,0.1
		c0.2,0,0.6-0.2,1-0.6c0.4-0.4,0.9-0.9,1.4-1.5c0.4-0.5,0.7-0.9,1.1-1.5c0.3-0.5,0.7-1.1,0.9-1.6c0.1-0.2,0.2-0.4,0.3-0.7
		C47.3,27.9,47.4,27.7,47.5,27.5L47.5,27.5z"/>
	<path class="st0" d="M58.9,17c-0.1,0-0.2,0-0.3,0.1c-0.1,0-0.2,0-0.4,0.1c-0.1,0-0.2,0-0.4,0c-0.3,0-0.5,0.1-0.8,0.1
		c-0.2,0-0.4,0-0.6,0c0,0-0.1,0-0.1,0s-0.1,0-0.1,0c0,0-0.1-0.1-0.2-0.2c-0.1-0.1-0.1-0.2-0.1-0.4c0-0.1,0-0.2,0.1-0.2
		c0.1-0.1,0.2-0.1,0.3-0.2c0.2-0.1,0.5-0.2,1-0.3c0.4-0.1,0.9-0.4,1.5-0.8c0.1-0.1,0.3-0.2,0.7-0.5c0.3-0.2,0.7-0.5,1-0.7
		c0,0,0,0,0,0c0,0,0,0,0,0c0.4-0.3,0.7-0.5,1-0.7c0.3-0.2,0.5-0.4,0.7-0.5c0,0,0,0,0.1-0.1c0,0,0,0,0.1-0.1c0.6-0.5,1.1-0.9,1.4-1.2
		s0.7-0.6,0.9-0.6c0.1,0,0.2,0,0.3,0c0.1,0,0.2,0.1,0.3,0.1c0.2,0.1,0.4,0.3,0.6,0.7c0.2,0.3,0.4,0.8,0.5,1.3
		c-1.1,0.7-1.9,1.2-2.4,1.6c-0.6,0.4-1,0.7-1.3,1.1c-0.1,0.1-0.2,0.2-0.3,0.3c-0.1,0.1-0.2,0.2-0.3,0.4c-0.1,0.1-0.2,0.3-0.3,0.4
		c-0.1,0.2-0.2,0.3-0.3,0.5c-0.1,0.1-0.2,0.2-0.3,0.4c-0.1,0.1-0.2,0.3-0.3,0.4c-0.2,0.4-0.5,0.8-0.6,1.3c-0.2,0.5-0.3,1.1-0.3,1.7
		c0,0.5,0.1,0.9,0.2,1.2c0.1,0.3,0.2,0.4,0.4,0.5c0,0,0.1,0,0.1,0.1c0,0,0.1,0,0.1,0c0,0,0.1,0,0.1,0c0,0,0.1,0,0.2-0.1
		c0.1,0,0.1-0.1,0.2-0.1c0.1-0.1,0.1-0.1,0.2-0.2c0,0,0.1-0.1,0.1-0.1c0,0,0.1-0.1,0.1-0.1c0-1.4,0.2-2.4,0.7-3.2
		c0.5-0.8,1-1.4,1.6-1.7c0.3-0.2,0.5-0.3,0.8-0.4c0.2-0.1,0.5-0.1,0.7-0.1c0,0,0.1,0,0.2,0c0.1,0,0.2,0.1,0.2,0.1
		c0.1,0.1,0.3,0.3,0.4,0.5c0.1,0.2,0.2,0.5,0.2,0.9c0,0.1,0,0.2,0,0.4c0,0.1,0,0.3-0.1,0.5c0.2-0.1,0.7-0.6,1.6-1.3
		c0.9-0.8,2.1-2.3,3.7-4.7c0,0,0-0.1,0.1-0.1c0,0,0.1-0.1,0.1-0.1c0.1-0.1,0.2-0.2,0.3-0.4c0.1-0.1,0.3-0.2,0.4-0.2c0,0,0,0,0.1,0
		c0,0,0.1,0,0.1,0c0.1,0.1,0.2,0.2,0.4,0.4c0.1,0.2,0.2,0.4,0.3,0.7c0,0.1,0.1,0.3,0.1,0.4c0,0.1,0,0.3,0,0.4c0,0.1,0,0.2,0,0.3
		c0,0.1-0.1,0.2-0.1,0.3c-0.1,0.2-0.2,0.4-0.5,0.6c-0.2,0.2-0.5,0.5-0.7,0.7c-0.1,0.2-0.3,0.4-0.5,0.6c-0.2,0.2-0.4,0.4-0.6,0.7
		c-0.4,0.5-0.7,1-1.1,1.6c-0.3,0.6-0.5,1.2-0.5,1.8c0,0.5,0.1,0.8,0.2,1.1c0.1,0.3,0.4,0.4,0.8,0.4c0.4,0,0.9-0.1,1.3-0.3
		c0.4-0.2,0.8-0.4,1.1-0.7c0.1-0.1,0.1-0.1,0.2-0.2c0.1-0.1,0.1-0.1,0.2-0.2c0.1-0.1,0.2-0.2,0.3-0.3c0.1-0.1,0.2-0.1,0.3-0.1
		c0,0,0,0,0.1,0c0,0,0,0,0.1,0c0.1,0,0.1,0.1,0.2,0.1c0.1,0,0.1,0.1,0.1,0.2c0,0.1-0.1,0.3-0.2,0.5c-0.1,0.2-0.3,0.4-0.4,0.6
		c-0.1,0.1-0.1,0.1-0.2,0.2c-0.1,0.1-0.1,0.2-0.2,0.2c-0.1,0.1-0.3,0.3-0.4,0.4c-0.1,0.1-0.2,0.2-0.3,0.3c-0.1,0.1-0.3,0.3-0.5,0.4
		c-0.2,0.2-0.3,0.3-0.5,0.5c-0.3,0.3-0.6,0.6-1,0.8c-0.3,0.3-0.7,0.5-1,0.7c-0.2,0.1-0.5,0.3-0.7,0.3c-0.2,0.1-0.5,0.1-0.7,0.1
		c-0.6,0-1-0.2-1.4-0.5c-0.3-0.3-0.5-0.8-0.5-1.4c0-0.2,0-0.3,0-0.5c0-0.2,0-0.3,0.1-0.5c0.1-0.5,0.2-1,0.3-1.4
		c0.1-0.5,0.3-0.9,0.5-1.2c-0.1,0.1-0.3,0.3-0.4,0.3c-0.1,0.1-0.2,0.1-0.4,0.2c0,0,0,0-0.1,0.1c0,0-0.1,0-0.1,0c0,0,0,0-0.1,0
		c-0.1,0-0.2,0.1-0.2,0.1c-0.1,0-0.1,0-0.2,0c0,0,0,0,0,0c0,0.1-0.1,0.1-0.1,0.2c0,0.1-0.1,0.1-0.1,0.2c-0.3,0.4-0.7,0.8-1.1,1.2
		s-0.8,0.8-1.2,1.1c-0.5,0.4-1,0.7-1.4,0.9c-0.5,0.2-0.8,0.4-1.2,0.4c-0.1,0-0.2,0-0.4-0.1c-0.1,0-0.3-0.1-0.4-0.3
		c-0.4-0.3-0.8-0.9-1.2-1.7c-0.4-0.8-0.6-1.7-0.6-2.6c0-0.4,0.1-0.9,0.2-1.4c0.1-0.5,0.4-1.2,0.8-2C59.1,17,59,17,58.9,17z"/>
	<path class="st0" d="M88.7,21.1c-0.3,0.2-0.7,0.4-1,0.6C87.3,21.8,87,22,86.5,22c-0.1,0-0.2,0-0.3,0c-0.1,0-0.2,0-0.3,0
		c0,0-0.1,0-0.1,0c0,0-0.1,0-0.1,0c-0.3,0-0.6-0.1-0.9-0.2c-0.3-0.1-0.5-0.2-0.8-0.3c-0.2,0.3-0.5,0.6-0.8,0.9c-0.3,0.3-0.6,0.7-1,1
		c-0.6,0.6-1.2,1.2-1.9,1.7c-0.7,0.5-1.4,0.8-2.1,0.9c-0.1,0-0.2,0-0.3,0.1c-0.1,0-0.2,0-0.3,0c-0.1,0-0.2,0-0.3,0
		c-0.1,0-0.2,0-0.3-0.1c-0.6-0.1-1.1-0.6-1.6-1.2c-0.5-0.7-0.7-1.8-0.7-3.3c0-2.3,0.4-4.4,1.3-6.3c0.9-1.9,1.8-3.6,2.8-5
		c0.4-0.5,0.8-1,1.2-1.5c0.4-0.5,0.8-0.9,1.1-1.3c0.3-0.3,0.7-0.8,1.4-1.4c0.6-0.6,1.3-1.3,2-2c0.2-0.1,0.3-0.3,0.5-0.5
		c0.2-0.2,0.4-0.3,0.5-0.5c0.9-0.8,1.7-1.4,2.5-2c0.8-0.6,1.4-0.8,1.8-0.8c0.2,0,0.4,0.1,0.6,0.3C90.9,0.9,91,1.1,91,1.4
		c0,0,0,0.1,0,0.1c0,0,0,0.1,0,0.1c0,0.8-0.6,2.2-1.9,4.1c-1.2,1.9-2.7,4-4.5,6.1c-0.6,0.8-1.3,1.5-2,2.3c-0.7,0.8-1.4,1.5-2,2.2
		c0,0-0.1,0.1-0.1,0.1s-0.1,0.1-0.1,0.1c-0.2,0.3-0.5,0.5-0.6,0.7c-0.2,0.2-0.4,0.4-0.6,0.5C79.1,17.9,79,18,78.9,18
		c-0.1,0.1-0.2,0.2-0.3,0.3c-0.1,0-0.1,0.1-0.2,0.2c-0.1,0.1-0.2,0.1-0.3,0.2c0,0.2,0,0.5-0.1,0.8c0,0.3,0,0.7,0,1
		c0,0.2,0,0.4,0,0.6c0,0.2,0,0.4,0,0.6c0,0.1,0,0.2,0,0.3c0,0.1,0,0.2,0.1,0.4c0.1,0.2,0.2,0.5,0.4,0.6c0.2,0.2,0.4,0.3,0.8,0.3
		c0.1,0,0.2,0,0.3,0s0.2-0.1,0.3-0.1c0.4-0.2,0.8-0.5,1.2-0.9c0.4-0.4,0.7-0.9,0.8-1.4c-0.2-0.2-0.3-0.4-0.4-0.6
		c-0.1-0.2-0.1-0.5-0.1-0.8c0-0.3,0-0.5,0.1-0.8c0.1-0.3,0.2-0.6,0.4-0.8c0.3-0.5,0.6-1,1-1.5c0.4-0.5,0.9-0.9,1.3-1.2
		c0.4-0.3,0.8-0.6,1.2-0.8c0.4-0.2,0.7-0.3,1-0.3c0.2,0,0.4,0.1,0.5,0.4c0.1,0.3,0.1,0.7,0.1,1.3c0,0.2,0,0.5-0.1,0.7
		c-0.1,0.2-0.2,0.4-0.3,0.7c0,0.1-0.1,0.2-0.2,0.3c-0.1,0.1-0.1,0.2-0.2,0.3c0,0.1-0.1,0.1-0.1,0.2c0,0.1-0.1,0.2-0.1,0.3
		c-0.1,0.1-0.1,0.3-0.2,0.4c-0.1,0.1-0.1,0.2-0.2,0.4c0,0.1-0.1,0.1-0.1,0.2c0,0-0.1,0.1-0.1,0.2c-0.1,0.1-0.1,0.2-0.2,0.4
		c-0.1,0.1-0.2,0.3-0.3,0.4c0.2,0.1,0.4,0.2,0.7,0.2c0.2,0.1,0.5,0.1,0.7,0.1c0.2,0,0.4,0,0.6-0.1c0.2,0,0.4-0.1,0.5-0.1
		c0.2-0.1,0.4-0.2,0.6-0.3c0.2-0.1,0.4-0.2,0.7-0.4V21.1z M81.1,13.8c1.1-1.1,2.4-2.8,4-4.9c0.1-0.2,0.3-0.5,0.6-0.8
		c0.3-0.4,0.5-0.8,0.8-1.2c0.1-0.1,0.1-0.1,0.2-0.2c0-0.1,0.1-0.2,0.2-0.2c0.3-0.5,0.6-1,0.9-1.5c0.3-0.5,0.4-0.8,0.4-1.1
		c0,0,0,0,0-0.1c0-0.1-0.1-0.1-0.1-0.2c-0.1-0.1-0.1-0.1-0.2-0.1c-0.2,0-0.4,0.1-0.6,0.2c-0.2,0.1-0.4,0.3-0.7,0.5
		c-0.1,0.1-0.2,0.2-0.2,0.3c-0.1,0.1-0.2,0.2-0.3,0.3C86,4.8,85.9,4.9,85.8,5c-0.1,0.1-0.2,0.2-0.3,0.3c-0.3,0.3-0.8,0.8-1.4,1.5
		c-0.6,0.7-1.3,1.6-2.1,2.6c-0.7,0.9-1.3,2-1.9,3.1c-0.6,1.1-1.1,2.3-1.4,3.6C79.2,15.7,80,14.9,81.1,13.8z"/>
	<path class="st0" d="M90.9,17c-0.1,0-0.2,0-0.3,0.1c-0.1,0-0.2,0-0.4,0.1c-0.1,0-0.2,0-0.4,0c-0.3,0-0.5,0.1-0.8,0.1
		c-0.2,0-0.4,0-0.6,0c0,0-0.1,0-0.1,0s-0.1,0-0.1,0c0,0-0.1-0.1-0.2-0.2C88,17.1,88,16.9,88,16.8c0-0.1,0-0.2,0.1-0.2
		c0.1-0.1,0.2-0.1,0.3-0.2c0.2-0.1,0.5-0.2,1-0.3c0.4-0.1,0.9-0.4,1.5-0.8c0.1-0.1,0.3-0.2,0.7-0.5c0.3-0.2,0.7-0.5,1-0.7
		c0,0,0,0,0,0c0,0,0,0,0,0c0.4-0.3,0.7-0.5,1-0.7c0.3-0.2,0.5-0.4,0.7-0.5c0,0,0,0,0.1-0.1c0,0,0,0,0.1-0.1c0.6-0.5,1.1-0.9,1.4-1.2
		s0.7-0.6,0.9-0.6c0.1,0,0.2,0,0.3,0s0.2,0.1,0.3,0.1c0.2,0.1,0.4,0.3,0.6,0.7c0.2,0.3,0.4,0.8,0.5,1.3c-1.1,0.7-1.9,1.2-2.4,1.6
		c-0.6,0.4-1,0.7-1.3,1.1c-0.1,0.1-0.2,0.2-0.3,0.3c-0.1,0.1-0.2,0.2-0.3,0.4c-0.1,0.1-0.2,0.3-0.3,0.4c-0.1,0.2-0.2,0.3-0.3,0.5
		c-0.1,0.1-0.2,0.2-0.3,0.4c-0.1,0.1-0.2,0.3-0.3,0.4c-0.2,0.4-0.5,0.8-0.6,1.3c-0.2,0.5-0.3,1.1-0.3,1.7c0,0.5,0.1,0.9,0.2,1.2
		c0.1,0.3,0.2,0.4,0.4,0.5c0,0,0.1,0,0.1,0.1c0,0,0.1,0,0.1,0c0,0,0.1,0,0.1,0c0,0,0.1,0,0.2-0.1c0.1,0,0.1-0.1,0.2-0.1
		c0.1-0.1,0.1-0.1,0.2-0.2c0,0,0.1-0.1,0.1-0.1c0,0,0.1-0.1,0.1-0.1c0-1.4,0.2-2.4,0.7-3.2c0.5-0.8,1-1.4,1.6-1.7
		c0.3-0.2,0.5-0.3,0.8-0.4c0.2-0.1,0.5-0.1,0.7-0.1c0,0,0.1,0,0.2,0c0.1,0,0.2,0.1,0.2,0.1c0.1,0.1,0.3,0.3,0.4,0.5
		c0.1,0.2,0.2,0.5,0.2,0.9c0,0.1,0,0.2,0,0.4c0,0.1,0,0.3-0.1,0.5c0.2-0.1,0.7-0.6,1.6-1.3c0.9-0.8,2.1-2.3,3.7-4.7
		c0,0,0-0.1,0.1-0.1c0,0,0.1-0.1,0.1-0.1c0.1-0.1,0.2-0.2,0.3-0.4c0.1-0.1,0.3-0.2,0.4-0.2c0,0,0,0,0.1,0c0,0,0.1,0,0.1,0
		c0.1,0.1,0.2,0.2,0.4,0.4c0.1,0.2,0.2,0.4,0.3,0.7c0,0.1,0.1,0.3,0.1,0.4c0,0.1,0,0.3,0,0.4c0,0.1,0,0.2,0,0.3
		c0,0.1-0.1,0.2-0.1,0.3c-0.1,0.2-0.2,0.4-0.5,0.6c-0.2,0.2-0.5,0.5-0.7,0.7c-0.1,0.2-0.3,0.4-0.5,0.6c-0.2,0.2-0.4,0.4-0.6,0.7
		c-0.4,0.5-0.7,1-1.1,1.6c-0.3,0.6-0.5,1.2-0.5,1.8c0,0.5,0.1,0.8,0.2,1.1s0.4,0.4,0.8,0.4c0.4,0,0.9-0.1,1.3-0.3
		c0.4-0.2,0.8-0.4,1.1-0.7c0.1-0.1,0.1-0.1,0.2-0.2c0.1-0.1,0.1-0.1,0.2-0.2c0.1-0.1,0.2-0.2,0.3-0.3c0.1-0.1,0.2-0.1,0.3-0.1
		c0,0,0,0,0.1,0c0,0,0,0,0.1,0c0.1,0,0.1,0.1,0.2,0.1c0.1,0,0.1,0.1,0.1,0.2c0,0.1-0.1,0.3-0.2,0.5c-0.1,0.2-0.3,0.4-0.4,0.6
		c-0.1,0.1-0.1,0.1-0.2,0.2c-0.1,0.1-0.1,0.2-0.2,0.2c-0.1,0.1-0.3,0.3-0.4,0.4c-0.1,0.1-0.2,0.2-0.3,0.3c-0.1,0.1-0.3,0.3-0.5,0.4
		c-0.2,0.2-0.3,0.3-0.5,0.5c-0.3,0.3-0.6,0.6-1,0.8c-0.3,0.3-0.7,0.5-1,0.7c-0.2,0.1-0.5,0.3-0.7,0.3c-0.2,0.1-0.5,0.1-0.7,0.1
		c-0.6,0-1-0.2-1.3-0.5c-0.3-0.3-0.5-0.8-0.5-1.4c0-0.2,0-0.3,0-0.5s0-0.3,0.1-0.5c0.1-0.5,0.2-1,0.3-1.4c0.1-0.5,0.3-0.9,0.5-1.2
		c-0.1,0.1-0.3,0.3-0.4,0.3c-0.1,0.1-0.2,0.1-0.4,0.2c0,0,0,0-0.1,0.1c0,0-0.1,0-0.1,0c0,0,0,0-0.1,0c-0.1,0-0.2,0.1-0.2,0.1
		c-0.1,0-0.1,0-0.2,0c0,0,0,0,0,0c0,0.1-0.1,0.1-0.1,0.2c0,0.1-0.1,0.1-0.1,0.2c-0.3,0.4-0.7,0.8-1.1,1.2c-0.4,0.4-0.8,0.8-1.2,1.1
		c-0.5,0.4-1,0.7-1.4,0.9c-0.5,0.2-0.8,0.4-1.2,0.4c-0.1,0-0.2,0-0.4-0.1c-0.1,0-0.3-0.1-0.4-0.3c-0.4-0.3-0.8-0.9-1.2-1.7
		c-0.4-0.8-0.6-1.7-0.6-2.6c0-0.4,0.1-0.9,0.2-1.4c0.1-0.5,0.4-1.2,0.8-2C91,17,91,17,90.9,17z"/>
</g>
</svg>
