<?xml version="1.0" encoding="utf-8"?>
<!-- Generator: Adobe Illustrator 21.0.2, SVG Export Plug-In . SVG Version: 6.00 Build 0)  -->
<svg version="1.1" id="Isolation_Mode" xmlns="http://www.w3.org/2000/svg" xmlns:xlink="http://www.w3.org/1999/xlink" x="0px"
	 y="0px" viewBox="0 0 91.1 34.8" style="enable-background:new 0 0 91.1 34.8;" xml:space="preserve">
<style type="text/css">
	.st0{fill:#E3000F;}
</style>
<g>
	<path class="st0" d="M13.6,13.4c0.7-0.8,1.5-1.7,2.5-2.6c1-1,2-2,3.1-3c0.5-0.5,1-0.9,1.5-1.4c0.5-0.5,1.1-0.9,1.6-1.3
		c1.3-1.1,2.6-2.1,3.9-3c1.2-0.9,2.4-1.6,3.3-2.1c0.4,0.2,0.7,0.5,0.8,0.8c0.1,0.3,0.2,0.6,0.2,1c0,0.3,0,0.5,0,0.6s0,0.3-0.1,0.4
		c0,0,0,0.1-0.1,0.1c0,0,0,0.1-0.1,0.1l-4.8,9.4l2.2-0.3c0.1,0,0.2,0,0.3,0c0.1,0,0.1,0,0.2,0c0.1,0,0.2,0,0.3,0.1
		c0.1,0.1,0.1,0.2,0.1,0.4c0,0,0,0.1,0,0.2c0,0.1,0,0.1,0,0.2c0,0.2-0.1,0.5-0.3,0.8c-0.1,0.3-0.3,0.8-0.5,1.5
		c-0.3,1-0.8,1.6-1.2,1.8c-0.5,0.2-1.3,0.3-2.5,0.3c-0.1,0-0.2,0-0.3,0c-0.1,0-0.2,0-0.3,0c-0.6,1.2-1.1,2.1-1.2,2.5
		s-0.3,0.7-0.4,0.8l0,0v0c0,0,0,0-0.1,0.1c0,0,0,0,0,0.1c-0.1,0.1-0.1,0.2-0.2,0.4s-0.1,0.2-0.2,0.4c0,0.1-0.1,0.3-0.1,0.4
		c0,0.1,0,0.2,0,0.4c0,0,0,0.1,0,0.1c0,0,0,0.1,0,0.1c0,0.1,0.1,0.2,0.2,0.3c0.1,0.1,0.2,0.1,0.4,0.1c0.3,0,0.7-0.1,1-0.3
		c0.3-0.2,0.6-0.4,0.9-0.7c0,0,0.1-0.1,0.2-0.2c0.1-0.1,0.3-0.3,0.5-0.4c0,0,0,0,0.1-0.1c0.2-0.1,0.3-0.3,0.5-0.4
		c0.1-0.1,0.2-0.2,0.3-0.2c0.1,0,0.2,0,0.3,0.1c0.1,0,0.1,0.1,0.1,0.1c0,0.1-0.1,0.3-0.3,0.6c-0.2,0.3-0.5,0.6-0.8,1
		c0,0,0,0.1-0.1,0.1c0,0,0,0.1-0.1,0.1c-0.2,0.3-0.5,0.6-0.7,0.8c-0.2,0.2-0.4,0.4-0.5,0.5c-0.1,0.1-0.2,0.2-0.3,0.3
		c-0.1,0.1-0.2,0.2-0.3,0.3c-0.5,0.5-1.1,1-1.7,1.4c-0.6,0.4-1.2,0.6-1.9,0.6c-0.1,0-0.1,0-0.2,0c-0.1,0-0.1,0-0.2,0
		c-0.4,0-0.7-0.1-1-0.3c-0.3-0.2-0.6-0.5-0.7-0.9c0-0.1,0-0.2-0.1-0.4c0-0.1,0-0.2,0-0.4c0-0.1,0-0.1,0-0.2c0-0.1,0-0.2,0-0.3
		c0-0.1,0-0.1,0-0.2c0-0.1,0-0.1,0.1-0.2c0.1-0.4,0.2-0.7,0.3-1c0.1-0.3,0.2-0.6,0.3-0.8c0.1-0.2,0.2-0.4,0.3-0.6
		c0.1-0.2,0.2-0.4,0.3-0.6l1.8-3.2l-7.5,0.1l-8,8.5C4.2,26,4,26.2,3.7,26.4c-0.3,0.2-0.6,0.4-0.9,0.6c-0.1,0-0.2,0.1-0.3,0.2
		c-0.1,0.1-0.2,0.1-0.3,0.2c-0.3,0.2-0.7,0.4-1,0.6c-0.3,0.2-0.6,0.3-0.8,0.3c0,0-0.1,0-0.1,0c0,0-0.1,0-0.1,0c0,0,0,0-0.1,0
		c0,0,0,0-0.1,0c0,0-0.1-0.1-0.1-0.1c0,0,0-0.1,0-0.1c0-0.2,0.1-0.5,0.2-0.8c0.2-0.3,0.4-0.7,0.6-1.1C0.9,26,1,25.9,1.1,25.7
		c0.1-0.1,0.2-0.3,0.3-0.4c0.1-0.2,0.3-0.5,0.5-0.6c0.2-0.2,0.3-0.4,0.4-0.5c0.1-0.1,0.2-0.2,0.3-0.3c0.1-0.1,0.2-0.2,0.2-0.3
		c0,0,0-0.1,0.1-0.1c0,0,0.1-0.1,0.1-0.1C3,23.2,3.2,23,3.3,22.9c0.2-0.2,0.4-0.3,0.6-0.5h1.5l4.5-4.8L7,17.9c0,0-0.1,0-0.1,0
		s-0.1,0-0.1,0c0,0,0,0-0.1,0c0,0,0,0-0.1,0c-0.1,0-0.2,0-0.4,0.1c-0.1,0-0.3,0-0.6,0c0,0-0.1,0-0.2,0c-0.1,0-0.1,0-0.2,0
		c-0.1,0-0.2-0.1-0.3-0.2c-0.1-0.1-0.2-0.2-0.2-0.4c0-0.1,0.1-0.4,0.3-0.7C5.5,16.3,5.7,16,6,15.6c0,0,0.1-0.1,0.1-0.2
		c0-0.1,0.1-0.1,0.1-0.2c0.3-0.4,0.5-0.7,0.8-1c0.3-0.3,0.4-0.5,0.5-0.5c0.2-0.2,0.5-0.3,0.9-0.4C8.8,13.1,9.2,13,9.5,13
		c0.4-0.1,0.8-0.2,1.2-0.2c0.4,0,0.7-0.1,0.9-0.1l0.1,0.9L13.6,13.4z M26.5,3.7c-0.7,0.5-1.5,1.1-2.3,1.7c-0.8,0.6-1.6,1.3-2.5,2
		c-1,0.9-2,1.8-3,2.8c-1,1-1.9,2-2.7,3l5.8-0.5L26.5,3.7z"/>
	<path class="st0" d="M29.3,26.2c0,0-0.1,0.1-0.1,0.1l0,0c0,0,0,0-0.1,0.1c0,0,0,0-0.1,0c0,0-0.1,0-0.2-0.1
		c-0.1-0.1-0.1-0.1-0.2-0.3c-0.1-0.3-0.2-0.7-0.3-1.2s-0.2-1.3-0.2-2.2c0-0.1,0-0.2,0-0.3s0-0.2,0-0.3c0-0.1,0-0.2,0-0.3
		c0-0.1,0-0.2,0.1-0.3c0.1-0.5,0.2-1.1,0.5-1.7c0.3-0.6,0.6-1.3,1-2c0.2-0.4,0.4-0.8,0.7-1.2c0.2-0.4,0.5-0.8,0.7-1.2
		c0.6-0.8,1.1-1.5,1.6-2c0.5-0.5,0.9-0.8,1.1-0.8c0.2,0,0.4,0.2,0.5,0.6c0.2,0.4,0.3,0.8,0.3,1.3c0,0.1,0,0.2,0,0.3
		c0,0.1,0,0.2,0,0.3c0,0.2,0,0.3,0,0.4s-0.1,0.2-0.1,0.3c-0.1,0.1-0.2,0.3-0.3,0.5c-0.1,0.2-0.3,0.4-0.6,0.6
		c-0.2,0.1-0.3,0.3-0.5,0.5c-0.2,0.2-0.4,0.4-0.5,0.6c-0.3,0.4-0.7,0.8-1,1.2c-0.3,0.4-0.5,0.9-0.7,1.3c-0.1,0.3-0.2,0.5-0.3,0.8
		c-0.1,0.2-0.1,0.5-0.1,0.7c0,0.1,0,0.2,0,0.3c0,0.1,0,0.2,0.1,0.2c0.5-0.7,1.1-1.3,1.6-1.9c0.6-0.6,1.1-1.2,1.7-1.8
		c1.7-1.6,3.2-2.9,4.7-3.9c1.5-0.9,2.5-1.4,3.2-1.4c0.1,0,0.1,0,0.2,0c0.1,0,0.2,0.1,0.2,0.1c0.2,0.1,0.4,0.3,0.5,0.6
		c0.2,0.3,0.2,0.6,0.2,1.1c0,0.3,0,0.6,0,0.9c0,0.3-0.1,0.7-0.1,1c-0.1,0.5-0.3,1-0.5,1.4c-0.2,0.5-0.5,0.9-1,1.2c0,0,0,0-0.1,0
		c0,0,0,0-0.1,0c-0.1,0-0.2,0-0.4,0c-0.1,0-0.2,0-0.4-0.1c-0.4-0.1-0.7-0.2-1-0.4c-0.3-0.2-0.4-0.4-0.4-0.6c0-0.1,0-0.1,0.1-0.2
		c0-0.1,0.1-0.1,0.2-0.2c0,0,0,0,0.1-0.1c0,0,0,0,0.1-0.1c0.1,0,0.2-0.1,0.3-0.2c0.1-0.1,0.2-0.3,0.2-0.5c0,0,0-0.1,0-0.1
		s0-0.1,0-0.1c0,0,0,0,0-0.1c0,0,0,0,0-0.1c0-0.1-0.1-0.2-0.2-0.2c-0.1-0.1-0.2-0.1-0.4-0.1c-0.3,0-0.7,0.1-1.1,0.4
		c-0.4,0.2-0.8,0.5-1.3,0.9c-0.2,0.2-0.4,0.3-0.6,0.5c-0.2,0.2-0.4,0.3-0.6,0.5c-0.3,0.3-0.6,0.7-0.9,1c-0.3,0.3-0.5,0.6-0.7,0.8
		c0.6,0.2,1.1,0.5,1.5,0.9c0.4,0.4,0.8,0.8,1.1,1.2c0.2,0.2,0.3,0.4,0.5,0.6c0.2,0.2,0.3,0.4,0.5,0.5c0.2,0.2,0.3,0.3,0.5,0.4
		c0.2,0.1,0.3,0.1,0.5,0.1c0.2,0,0.5-0.1,0.8-0.2c0.3-0.2,0.7-0.4,1-0.6c0.1,0,0.2-0.1,0.3-0.2c0.1-0.1,0.2-0.1,0.3-0.2
		c0.3-0.2,0.5-0.3,0.8-0.5c0.2-0.2,0.4-0.3,0.6-0.4c0.3-0.3,0.6-0.4,0.7-0.5c0.1-0.1,0.2-0.1,0.3-0.1c0,0,0.1,0,0.1,0.1
		c0,0,0.1,0.1,0.1,0.2c0,0,0,0,0,0.1c0,0,0,0,0,0.1c0,0.1-0.1,0.4-0.4,0.7c-0.2,0.3-0.5,0.7-0.9,1c-0.1,0.1-0.1,0.1-0.2,0.2
		c0,0.1-0.1,0.1-0.2,0.2c-0.3,0.3-0.6,0.6-0.8,0.8s-0.5,0.4-0.6,0.6c-0.1,0.1-0.3,0.2-0.5,0.3c-0.2,0.2-0.5,0.3-0.8,0.5
		c-0.2,0.1-0.5,0.2-0.7,0.3c-0.2,0.1-0.5,0.2-0.7,0.3c-0.2,0.1-0.4,0.1-0.6,0.2c-0.2,0-0.4,0.1-0.6,0.1c-0.7,0-1.3-0.2-1.7-0.6
		c-0.4-0.4-0.8-0.8-1.1-1.3c-0.1-0.1-0.2-0.3-0.3-0.5c-0.1-0.2-0.1-0.3-0.2-0.5c-0.1-0.2-0.2-0.4-0.3-0.6c-0.1-0.2-0.2-0.3-0.3-0.5
		c-0.1-0.2-0.3-0.3-0.4-0.5c-0.2-0.1-0.3-0.2-0.6-0.3L29.3,26.2z"/>
	<path class="st0" d="M52.7,32.2c0.8-0.7,1.5-1.7,2.1-2.8c0.6-1.1,0.9-2.3,1.2-3.5c0,0,0-0.1,0-0.1c0,0,0-0.1,0-0.1
		c-0.1,0.1-0.2,0.2-0.4,0.3c-0.2,0.1-0.3,0.2-0.5,0.3c-0.1,0.1-0.3,0.2-0.4,0.2c-0.1,0.1-0.3,0.1-0.4,0.2c-0.3,0.1-0.5,0.3-0.8,0.4
		c-0.3,0.1-0.5,0.1-0.7,0.1c-0.4,0-0.7-0.1-0.9-0.4c-0.2-0.2-0.4-0.5-0.5-0.7c0-0.2-0.1-0.3-0.1-0.5c0-0.2,0-0.3,0-0.4
		c0-0.3,0-0.6,0.1-0.9c0-0.3,0.1-0.6,0.2-0.9c0-0.3,0.1-0.6,0.2-0.9c0.1-0.3,0.2-0.6,0.3-0.8c-0.1,0.2-0.3,0.3-0.4,0.5
		s-0.3,0.3-0.4,0.5c-0.9,1-1.8,1.9-2.7,2.6c-0.9,0.7-1.6,1.1-2.3,1.1c-0.1,0-0.2,0-0.3,0c-0.1,0-0.2-0.1-0.4-0.2
		c-0.4-0.2-0.7-0.7-1-1.3c-0.3-0.6-0.5-1.5-0.5-2.6c0-0.5,0.1-1,0.2-1.6c0.2-0.6,0.4-1.2,0.6-1.8c0.4-0.9,1-1.8,1.6-2.7
		c0.6-0.9,1.2-1.5,1.9-2c0.3-0.2,0.6-0.4,0.9-0.5c0.3-0.1,0.6-0.2,0.9-0.2c0.4,0,0.8,0.1,1.1,0.2c0.3,0.1,0.5,0.3,0.5,0.6
		c0,0.2-0.1,0.6-0.4,1c-0.3,0.4-0.6,0.9-1,1.3c-0.3,0.3-0.6,0.6-0.9,0.9c-0.3,0.3-0.7,0.6-1,0.8c-0.1,0.1-0.3,0.2-0.5,0.3
		c-0.2,0.1-0.3,0.2-0.4,0.3c-0.1,0-0.2,0.1-0.2,0.1s-0.1,0.1-0.2,0.1c0,0,0,0,0,0c0,0-0.1,0-0.1,0.1c0,0-0.1,0.1-0.2,0.1
		c-0.1,0.2-0.1,0.5-0.2,0.7c0,0.2-0.1,0.4-0.1,0.6c0,0.5,0.1,0.9,0.3,1.2c0.2,0.3,0.3,0.5,0.5,0.5c0.2,0,0.5-0.1,0.8-0.2
		c0.3-0.2,0.7-0.3,1-0.6c0.1-0.1,0.2-0.1,0.3-0.2c0.1-0.1,0.2-0.2,0.3-0.3c0.4-0.3,0.7-0.5,1-0.7c0.3-0.2,0.5-0.4,0.5-0.5l6.3-6.3
		c0,0,0.1-0.1,0.1-0.1c0,0,0.1-0.1,0.1-0.1c0,0,0.1-0.1,0.2-0.1c0.1,0,0.1-0.1,0.2-0.1c0,0,0,0,0.1,0c0,0,0,0,0.1,0
		c0,0,0.1,0,0.2,0.1c0.1,0,0.2,0.1,0.3,0.2c0.1,0.1,0.1,0.3,0.2,0.6c0.1,0.3,0.1,0.6,0.2,1.1c0,0,0,0.1,0,0.2c0,0.1,0,0.1,0,0.2
		c0,0,0,0.1,0,0.1c0,0,0,0.1,0,0.1c0,0,0,0.1-0.1,0.1s0,0.1-0.1,0.1l-3.2,3.5c-0.4,0.5-0.7,0.9-0.9,1.4c-0.2,0.5-0.3,0.9-0.3,1.3
		c0,0.1,0,0.2,0,0.3c0,0.1,0,0.2,0.1,0.3c0,0.2,0.1,0.5,0.3,0.6c0.2,0.2,0.4,0.3,0.7,0.3c0.4,0,0.7-0.1,1.1-0.2
		c0.3-0.2,0.6-0.3,0.9-0.5c0.1-0.1,0.1-0.1,0.2-0.2c0.1-0.1,0.2-0.1,0.2-0.2c0,0,0.1,0,0.2-0.1c0.1-0.1,0.2-0.2,0.3-0.2l0,0
		c0.1-0.1,0.3-0.2,0.4-0.3c0.1-0.1,0.2-0.1,0.2-0.1c0,0,0,0,0.1,0c0.1,0,0.1,0.1,0.2,0.1c0,0.1,0.1,0.2,0.1,0.4
		c0,0.8-0.2,1.7-0.5,2.9c-0.3,1.2-0.9,2.4-1.6,3.7c-0.5,1-1.2,1.9-1.9,2.8s-1.6,1.8-2.6,2.5c-0.2,0.2-0.5,0.3-0.8,0.4
		c-0.3,0.1-0.5,0.1-0.8,0.1c-0.2,0-0.3,0-0.5-0.1c-0.2,0-0.4-0.1-0.6-0.2c-0.2-0.5-0.4-0.9-0.6-1.4c-0.1-0.5-0.2-1-0.2-1.5
		c0,0,0-0.1,0-0.1c0,0,0-0.1,0-0.1c0,0,0-0.1,0-0.1c0,0,0-0.1,0-0.1c0.1-0.6,0.5-1.2,1.1-1.5c0.6-0.4,1.4-0.5,2.1-0.5
		c0,0,0.1,0,0.1,0c0,0,0.1,0,0.1,0c0,0,0.1,0,0.1,0c0,0,0.1,0,0.1,0c-0.2,0.3-0.3,0.6-0.5,0.9c-0.1,0.3-0.1,0.6-0.1,1
		c0,0.1,0,0.2,0,0.3c0,0.1,0,0.2,0,0.3c0,0.1,0,0.1,0,0.2C52.6,32,52.6,32.1,52.7,32.2L52.7,32.2z"/>
	<path class="st0" d="M67.2,22.6c-0.3,0.3-0.5,0.6-0.8,0.9c-0.3,0.3-0.5,0.6-0.8,0.8c-0.3,0.3-0.5,0.5-0.8,0.8
		c-0.5,0.4-0.9,0.7-1.4,1c-0.5,0.3-0.9,0.4-1.2,0.4c-0.6,0-1.1-0.5-1.6-1.5c-0.4-1-0.6-2.1-0.6-3.4c0-0.4,0.1-0.9,0.3-1.5
		c0.2-0.6,0.5-1.2,0.9-1.8c0.4-0.7,0.8-1.3,1.3-1.9c0.5-0.6,1-1.1,1.5-1.6c0.4-0.4,0.8-0.6,1.1-0.8c0.4-0.2,0.7-0.3,1.1-0.3
		c0.4,0,0.8,0.1,1.1,0.3c0.3,0.2,0.4,0.3,0.4,0.5c0,0.2-0.1,0.6-0.4,1c-0.3,0.4-0.6,0.8-1,1.3c-0.2,0.2-0.5,0.5-0.7,0.7
		S65,17.8,64.8,18c-0.2,0.2-0.5,0.4-0.7,0.5c-0.2,0.2-0.4,0.3-0.6,0.4c-0.1,0-0.1,0.1-0.2,0.1c0,0-0.1,0.1-0.1,0.1h0
		c-0.1,0-0.1,0.1-0.2,0.1c-0.1,0-0.2,0.1-0.3,0.2c-0.1,0.2-0.1,0.4-0.2,0.6c0,0.2-0.1,0.4-0.1,0.6c0,0.5,0.1,0.9,0.3,1.3
		c0.2,0.4,0.5,0.5,0.8,0.5c0.2,0,0.4-0.1,0.6-0.2c0.2-0.1,0.5-0.3,0.9-0.5c0.3-0.2,0.6-0.4,0.9-0.6c0.3-0.2,0.8-0.6,1.3-1.2l6.4-6.3
		c0,0,0,0,0.1-0.1c0,0,0,0,0.1-0.1c0-0.1,0.1-0.1,0.2-0.2c0.1,0,0.2-0.1,0.3-0.1c0,0,0.1,0,0.2,0c0.1,0,0.1,0.1,0.2,0.1
		c0.1,0.1,0.2,0.3,0.3,0.6c0.1,0.3,0.2,0.7,0.2,1.2c0,0,0,0.1,0,0.2c0,0.1,0,0.1,0,0.2c0,0.1,0,0.1,0,0.2c0,0,0,0.1-0.1,0.1
		c0,0,0,0.1-0.1,0.1l-3.2,3.5c-0.1,0.1-0.1,0.1-0.2,0.2c-0.1,0.1-0.1,0.2-0.2,0.3c-0.2,0.3-0.4,0.6-0.5,1c-0.2,0.4-0.3,0.8-0.3,1.3
		c0,0.4,0.1,0.7,0.2,1c0.1,0.3,0.4,0.4,0.7,0.4c0.2,0,0.4,0,0.6-0.1c0.3-0.1,0.5-0.2,0.7-0.3c0.1-0.1,0.3-0.1,0.4-0.2
		c0.1-0.1,0.3-0.1,0.4-0.2c0.1,0,0.2-0.1,0.3-0.2c0.1-0.1,0.2-0.1,0.2-0.2c0,0,0.1,0,0.2-0.1c0.1-0.1,0.2-0.1,0.3-0.2
		c0.1-0.1,0.3-0.2,0.5-0.3c0,0,0,0,0.1,0c0,0,0,0,0.1,0c0,0,0.1,0.1,0.1,0.1s0.1,0.1,0.1,0.2c0,0.1-0.2,0.4-0.7,0.9
		c-0.5,0.5-1,1-1.7,1.6c-0.2,0.2-0.4,0.4-0.7,0.6c-0.2,0.2-0.5,0.4-0.7,0.5c-0.6,0.4-1.1,0.8-1.6,1s-1,0.4-1.3,0.4c0,0,0,0-0.1,0
		c0,0,0,0-0.1,0c-0.3,0-0.6-0.2-0.9-0.5s-0.4-0.8-0.4-1.5c0-0.2,0-0.5,0.1-0.9c0-0.3,0.1-0.7,0.2-1c0-0.2,0.1-0.4,0.1-0.6
		c0-0.2,0.1-0.4,0.1-0.6c0-0.1,0-0.1,0-0.2c0-0.1,0-0.1,0.1-0.2C67.7,22,67.5,22.3,67.2,22.6z"/>
	<path class="st0" d="M82.8,22.6c-0.3,0.3-0.5,0.6-0.8,0.9c-0.3,0.3-0.5,0.6-0.8,0.8c-0.3,0.3-0.5,0.5-0.8,0.8
		c-0.5,0.4-0.9,0.7-1.4,1c-0.5,0.3-0.9,0.4-1.2,0.4c-0.6,0-1.1-0.5-1.6-1.5c-0.4-1-0.6-2.1-0.6-3.4c0-0.4,0.1-0.9,0.3-1.5
		c0.2-0.6,0.5-1.2,0.9-1.8c0.4-0.7,0.8-1.3,1.3-1.9c0.5-0.6,1-1.1,1.5-1.6c0.4-0.4,0.8-0.6,1.1-0.8c0.4-0.2,0.7-0.3,1.1-0.3
		c0.4,0,0.8,0.1,1.1,0.3c0.3,0.2,0.4,0.3,0.4,0.5c0,0.2-0.1,0.6-0.4,1c-0.3,0.4-0.6,0.8-1,1.3c-0.2,0.2-0.5,0.5-0.7,0.7
		s-0.5,0.5-0.7,0.7c-0.2,0.2-0.5,0.4-0.7,0.5c-0.2,0.2-0.4,0.3-0.6,0.4c-0.1,0-0.1,0.1-0.2,0.1c0,0-0.1,0.1-0.1,0.1h0
		c-0.1,0-0.1,0.1-0.2,0.1c-0.1,0-0.2,0.1-0.3,0.2c-0.1,0.2-0.1,0.4-0.2,0.6c0,0.2-0.1,0.4-0.1,0.6c0,0.5,0.1,0.9,0.3,1.3
		c0.2,0.4,0.5,0.5,0.8,0.5c0.2,0,0.4-0.1,0.6-0.2c0.2-0.1,0.5-0.3,0.9-0.5c0.3-0.2,0.6-0.4,0.9-0.6c0.3-0.2,0.8-0.6,1.3-1.2l6.4-6.3
		c0,0,0,0,0.1-0.1c0,0,0,0,0.1-0.1c0-0.1,0.1-0.1,0.2-0.2c0.1,0,0.2-0.1,0.3-0.1c0,0,0.1,0,0.2,0c0.1,0,0.1,0.1,0.2,0.1
		c0.1,0.1,0.2,0.3,0.3,0.6c0.1,0.3,0.2,0.7,0.2,1.2c0,0,0,0.1,0,0.2c0,0.1,0,0.1,0,0.2c0,0.1,0,0.1,0,0.2c0,0,0,0.1-0.1,0.1
		c0,0,0,0.1-0.1,0.1l-3.2,3.5c-0.1,0.1-0.1,0.1-0.2,0.2c-0.1,0.1-0.1,0.2-0.2,0.3c-0.2,0.3-0.4,0.6-0.5,1c-0.2,0.4-0.3,0.8-0.3,1.3
		c0,0.4,0.1,0.7,0.2,1c0.1,0.3,0.4,0.4,0.7,0.4c0.2,0,0.4,0,0.6-0.1c0.3-0.1,0.5-0.2,0.7-0.3c0.1-0.1,0.3-0.1,0.4-0.2
		c0.1-0.1,0.3-0.1,0.4-0.2c0.1,0,0.2-0.1,0.3-0.2c0.1-0.1,0.2-0.1,0.2-0.2c0,0,0.1,0,0.2-0.1c0.1-0.1,0.2-0.1,0.3-0.2
		c0.1-0.1,0.3-0.2,0.5-0.3c0,0,0,0,0.1,0c0,0,0,0,0.1,0c0,0,0.1,0.1,0.1,0.1s0.1,0.1,0.1,0.2c0,0.1-0.2,0.4-0.7,0.9
		c-0.5,0.5-1,1-1.7,1.6c-0.2,0.2-0.4,0.4-0.7,0.6c-0.2,0.2-0.5,0.4-0.7,0.5c-0.6,0.4-1.1,0.8-1.6,1s-1,0.4-1.3,0.4c0,0,0,0-0.1,0
		c0,0,0,0-0.1,0c-0.3,0-0.6-0.2-0.9-0.5s-0.4-0.8-0.4-1.5c0-0.2,0-0.5,0.1-0.9c0-0.3,0.1-0.7,0.2-1c0-0.2,0.1-0.4,0.1-0.6
		c0-0.2,0.1-0.4,0.1-0.6c0-0.1,0-0.1,0-0.2c0-0.1,0-0.1,0.1-0.2C83.3,22,83,22.3,82.8,22.6z"/>
</g>
</svg>
