<?xml version="1.0" encoding="utf-8"?>
<!-- Generator: Adobe Illustrator 21.0.2, SVG Export Plug-In . SVG Version: 6.00 Build 0)  -->
<svg version="1.1" id="Isolation_Mode" xmlns="http://www.w3.org/2000/svg" xmlns:xlink="http://www.w3.org/1999/xlink" x="0px"
	 y="0px" viewBox="0 0 180 143.9" style="enable-background:new 0 0 180 143.9;" xml:space="preserve">
<style type="text/css">
	.st0{fill-rule:evenodd;clip-rule:evenodd;fill:#6D6E71;}
</style>
<path class="st0" d="M95.1,66.8c-0.1,1.2,0.3,2.1,0.2,3.4c18.3,0.9,32.4,7.2,43.2,15.9c10.7,8.6,20,19.8,21.4,37.5
	c2.4,0.2,5.7-0.6,7.1,0.7c-1,3.5-3.9,5-5.5,7.8c3.7-0.1,8.5,0,12.2,0.2c1.6,0.1,6.4-0.7,6.4,1c0,1.7-3,0.7-4.1,1
	c-1.6,0.4-3.1,2.7-4.8,4.4c-1.6,1.6-3.2,3.3-4.5,4.6c-12.7-0.1-25.5,0.2-38.6,0.2c-31.9,0-63.8,0.2-96.5,0.2c-3,0-6.3,0.2-9.6,0
	c-3.2-0.1-7.1,0.4-9.5-0.2c-1.4-0.3-3-2.7-4-3.9c-1.3-1.7-2.1-3.2-2.9-5c-2.2-0.1-5.8,0.7-5.5-1.5c0.2-1.8,5.3-1.2,8.1-1.2
	c3.8,0,6.8,0,9.1,0c0.1-1.7-5-5.5-4.3-7.7c0.6-2,4.1-0.9,6.9-1.2C25.6,90.5,48.5,74.7,83,70.6c0.4-0.9,0.1-2.4,0.2-3.6
	c-2.3,0-3-1.2-4.5-2.7c-0.9-0.9-1.9-1.8-2.1-2.6c-0.3-1.8,1.4-4.4,2.6-5.5c4.1-4,13.5-4.5,19.3-1c1.7,1,4.3,3.5,4,5.6
	c-0.3,2.2-4.2,3.9-5.2,5.8C96.9,67,95.8,66.8,95.1,66.8z M78.7,61.2c1.4,0.8,1.9,3.1,3.8,3.6c1.1,0.3,2.9-0.1,4.6-0.2
	c3.3-0.1,6.3,0.1,9.1-0.2c0.6-0.8,2.3-1.4,2.2-2.4c-1.7,0.3-4.3,0.2-6.5,0.3c-0.9,0-3.4,0.7-3.1-1.2c0.3-1.9,8-0.7,10.5-1.2
	C96.5,54.1,80.4,53.1,78.7,61.2z M85.3,67.3c0,1,0,2,0,3.1c1.6,0.1,3.8-0.5,4,1c-0.5,1.7-3.2,0.9-5,1c-4.8,0.4-9.5,1.5-13.9,2.7
	c-9.8,2.7-18.1,6.1-25.3,11.1c-11.4,7.9-19.9,20.7-22.2,36.9c44.4,0.6,90.4-0.3,134.5,0.5c-3.3-25.3-19.9-38.5-40.3-46.6
	c-3.5-1.4-7.2-2.7-11-3.4c-4-0.8-8.4-0.6-12.6-2c-0.3-1.5-0.2-3.2-0.3-4.8c-2.5,0-5.1,0-7.6,0C85.2,66.9,85.3,67.1,85.3,67.3z
	 M16,125.9c1.1,1,2.7,5.6,4.5,6.1c1.8,0.6,5.8,0,8.6,0c42.9,0,87.4,0,129.2,0c1.4-1.4,3-3.3,4.3-4.8c0.4-0.5,1.2-1,0.9-1.5
	C114.9,126.4,65.3,125.6,16,125.9z M7.9,134.8c1.1,1.6,3.3,6.2,5.7,6.8c2.3,0.5,6-0.1,9.3-0.2c9.6-0.1,19.1-0.2,28.3-0.2
	c34.6,0,69.5-0.3,104-0.3c3.3,0,7.2,0.6,9.6,0c1.9-0.4,4.4-3.7,5.7-5c0.5-0.5,1.6-0.8,1.4-1.5C117.9,135.2,62.5,134.6,7.9,134.8z"/>
<path class="st0" d="M60.5,83.7c-1.2,1.5-3.1,2.5-4.8,3.6c-3.3,2.2-6.7,4.4-10.2,6.7c-1.5,1-3.2,3-5.3,2.4c-0.3-1.3,1.3-1.6,2.1-2
	c5.3-3.1,11.5-7.8,16.9-10.8C59.4,83.4,60.1,82.8,60.5,83.7z"/>
<path class="st0" d="M64.1,84.9c-1.1,1.9-3.2,2.8-5,3.9c-5.2,3.4-11.1,6.8-16.2,10.4c-1,0.7-1.7,2.1-3.3,1.7c-0.1-2.4,3.2-3.4,5-4.6
	c6-3.8,12.6-8,18.6-11.8C63.8,84.4,63.8,84.8,64.1,84.9z"/>
<path class="st0" d="M63.7,89.4c0,1.2-1.5,1.6-2.2,2c-4.1,2.6-8.4,5.6-12.6,8.4c-1.6,1-3.4,2.5-5.3,2.6c-0.6-1.2,0.8-1.8,1.6-2.2
	c5.3-3.3,11.7-8.1,17.4-10.8c0.2-0.1,0.3-0.3,0.5-0.3C63.5,88.9,63.4,89.4,63.7,89.4z"/>
<path class="st0" d="M62.5,94.5c-0.2,1.5-1.9,1.9-2.9,2.6c-2.2,1.4-4.4,2.8-6.7,4.3c-1,0.6-1.9,1.9-3.3,1.7c-0.7-1.3,1-2.1,2.1-2.7
	c3-1.8,6.8-4.3,9.7-6C61.5,94.2,62.1,94.2,62.5,94.5z"/>
<path class="st0" d="M63.4,98.1c-0.2,1.7-2.5,2.3-4,3.2c-1.6,1-3,2.4-4.6,2.6c-0.5-1.8,1.9-2.5,3.3-3.2c1.6-0.9,3.2-1.9,4.5-2.9
	C63,97.7,63.3,97.8,63.4,98.1z"/>
<path class="st0" d="M61,62.8c0.9,3.8-0.1,9.8-2.4,11.7c-0.3,0.3-0.7,0.2-1,0.4c-0.3,0.2-0.5,0.6-0.8,0.9c-0.4,0.3-0.8,0.3-1.1,0.6
	c-0.6,0.4-0.9,1.3-1.5,1.8c-0.2,0.2-0.6,0.2-0.8,0.3C52.5,79,52,80,51.5,80.3c-0.6,0.3-1.3,0.1-1.7,0.7c0.1,6.1,2,10.1,3.3,14.8
	c-1.5,3.8-3.7-1.8-4.3-3.7c-0.8-2.7-1.2-5.1-1.5-7.2c-1.2,2.4-4.7,6.3-8,5.2c-3.9,3.9-11.1,0.8-11-5.7c-5.9,1.4-9.4-2.7-10.9-7.7
	c-0.8,2.2,1.6,11.4-1.1,11.5c-0.7,0-0.7-0.5-1.2-0.8c-0.6-4.9-0.9-10.8-0.5-16.4c0.1-1.7,0.6-3.5,0.6-5c0-1.1-0.3-2.2,0.3-3.2
	c-1.5-0.4-4.8-0.5-3.4-2.9c-1.7-0.1-4.4-1.6-2.5-3.2c-1.3-0.4-3.4-0.3-3.4-1.9c0-1.9,3.3-1.4,5.3-1.4c2.5,0,4.6,0.1,6.3,0.1
	c0.5-0.4,0.6-1.1,1.2-1.4c1.6-1,4.3,0.1,5.7,0.7c0.7-3.9,4.6-2.3,5.1,0.6c0.6-2,2-2.7,3.5-4.2c1.8-1.9,3.5-5.7,6.5-4
	c0.8,0.5,1.3,1.4,1.9,2.4c0.7-0.5,2.1-0.6,3.1-0.3c0.6-0.5,2.9-0.7,3.7,0.1c1.1-0.7,2.5,0.1,3.4,0.6c3.9-2.2,8-3.4,12.1-4.7
	c4-1.2,7.2-4.1,10.3-6.7c6.3-5.2,13.1-9.4,20.1-13.9c6.8-4.4,13.8-8.6,21.3-12.5c3.6-1.8,7.4-3.7,11.2-5.6c3.9-1.9,8.2-4.1,12.5-4.5
	c2.9-0.3,5.7,1.8,4.4,5.7c-1.4,4-6,6-9.8,7.8c-4,1.9-8.3,3.3-12.3,4.8c-12.5,4.5-24.8,9.2-35.9,15.6c-3.8,2.2-7.5,4.3-10.3,7.1
	c-3.2,3.1-4.3,7.5-6.2,12.1C67.5,57.2,64.8,60.3,61,62.8z M58.2,56.6c0.3,0.6,0.6,1.6,0.8,2.3c0.2,0.7,0.5,2.1,0.8,2.3
	c0.6,0.3,1.8-0.9,2.5-1.4c0.9-0.7,1.7-1.5,2.2-2.1c4.2-4.7,4.9-12.8,9.3-17.2c5.6-5.8,13.6-9.7,20.8-13c7.8-3.6,15.4-6.7,23.5-9.7
	c3.8-1.4,8-2.8,12.1-4.5c3.9-1.6,8.3-3.1,10.8-6.1c0.8-1,1.9-2.7,1.4-4.1c-0.3-1-1.6-1.4-3.4-1.2c-4.3,0.5-8.3,2.7-12.1,4.6
	c-3.7,1.8-7.4,3.6-11,5.5c-7.3,3.7-14.3,8-21,12.2C88,28.4,81.3,32.6,75,37.6c-3.2,2.5-6.1,5.4-9.9,6.8c-3.9,1.4-7.9,2.2-11.9,4.5
	C54.1,51.3,57,53.8,58.2,56.6z M30.8,54.8c0.4,2,2.5,0.9,4,0.8c0.6-0.1,1.4-0.1,2,0c1.3,0.1,2.5,1,3.3,1c4.6,0,0.8-7.5-0.2-9
	c-1.4-2.1-3.1-0.9-4.4,0.8c0.7-0.2,2.2,4,0.7,3.8c-0.8-0.1-0.5-2.7-1.6-2.9C34,51,30.1,51.7,30.8,54.8z M53.3,74.8
	c0.2,0.1,0.2-0.3,0.3-0.4c0.7-2,1.2-5.1,1.2-7.6c0-3.8-0.8-8.3-2.1-11.6c-1.4-3.5-3.1-6.4-6.2-7.2C52.3,51.9,56.2,63.8,53.3,74.8z
	 M51.2,61.7c0.9,5.7,0.5,12.3-1.5,17c0,0.1-0.1,0.2,0,0.2c2.3-2.6,3.2-7.3,3.2-12c0-6.5-2-12.1-4.9-15.6c-1.3-1.5-3-3.2-5.2-2.9
	C46.7,51.1,50.2,55.5,51.2,61.7z M51.4,50c3.4,4.9,6.5,15.2,3.9,23.7c0.3,0.2,0.4-0.8,0.6-1.2c2.5-8-0.4-17.9-3.6-22.6
	c-0.8-0.2-1-1.1-1.8-1.3C50.4,49,51,49.5,51.4,50z M43.8,54.5c3.3,3.5,5.6,8.1,6.4,14.5c0.3-9.5-2.7-15.2-7.3-18.9
	C43.4,51.4,43.9,52.6,43.8,54.5z M33,84.6c2.9-0.5,2.9-6.6,2.4-10.7c-0.7-6-3.4-10.9-5.2-15.6c-0.8-2.1-1.9-6.8-3.6-6.7
	c-0.7,0-1,1.2-1.2,1.6c2.5,1.5,3.8,3.8,5.2,7c1,2.2,2.3,4.5,2.9,6.7c1.7,6.1,1.3,13.9-2.7,16.4C31.4,84.3,31.8,84.8,33,84.6z
	 M28.3,61.1c0.6,1.2,1.5,2.1,2,3.1c2.3,4.9,3.7,17-2.7,17.5c-5.9,0.5-9.2-5.6-9.8-12c0.1,4.5,1.2,8.8,3.5,11.2
	c2.8,2.9,8.1,2.6,10.4-0.9c3.4-5.2,0.4-13-1.5-17.1c-1.4-3.2-2.7-6.5-5-7.9C26.7,56.5,27.3,59,28.3,61.1z M12.9,55.5
	c0.3,0.1,0.5,0.5,0.8,0.6c1.7,0.4,3.7,0,5.6,0.1c1.8,0.1,3.6,0.4,5.3,0.4c0-0.6-0.9-1.2-1.4-1.7c-4.1,0.2-9-0.2-13.3,0.1
	C10.8,55.5,12,55.2,12.9,55.5z M48.8,70c-0.3-6.2-2.5-10.6-5-13.9c-0.1,0-0.1-0.1-0.2-0.1c-0.3,0.4-0.5,0.9-0.8,1.2
	c2.7,2.9,5,7.8,5,14.1c0,3.7-0.4,7.1-1.2,9.9c-0.6,2.2-1.6,3.9-2.4,5.5C46.9,83.1,49.1,76.9,48.8,70z M58.3,60.9
	c-0.3-0.6-0.3-1.6-0.7-2.1c-0.1-0.6-0.5-2-0.7-1.8c1.5,3.7,1.6,10.7,0.7,15C58.5,69.2,58.7,64.6,58.3,60.9z M33.9,57.6
	c2.5,5.9,6.3,13.5,4.7,22.3c1-2.1,1.8-4.8,1.8-7.8c0-6.1-2.5-11.1-4.3-14.8C35.3,57.2,34.5,57.2,33.9,57.6z M38.7,82.5
	c-0.6,0.8-1.8,1.8-2.7,2.3c-0.2,0.1-0.6,0.1-0.9,0.2c-0.6,0.3-0.9,0.9-1.5,1.1c-0.8,0.3-1.7,0.2-2.4-0.1c-0.7-0.3-1.1-1.2-1.5-1.1
	c0.8,3.2,2.5,5.7,6,5.1c2.4-0.4,4.5-3.2,5.9-6.1c2.6-5.5,3-13.1,0.8-19.4c-0.8-2.3-1.9-5.5-3.5-6.6c-0.4-0.3-0.9-0.4-1.4-0.3
	C41.5,63.6,44.1,76.2,38.7,82.5z M11.6,58.1c4.2,1.4,9.6,1.5,14.7,2c-0.3-0.8-0.4-1.6-0.9-2.1C20.8,58,15.9,57.2,11.6,58.1z
	 M37.1,79.7c1.9-8.4-2.2-15.9-4.3-22c-0.4,0-0.9,0-1.3,0C34.1,64,37.5,70,37.1,79.7z M45.2,71.2c0.6,6-1,11-3,14.8
	c0,0.1-0.1,0.3,0,0.1c2.9-2.7,4-8.9,4-15c0-4.6-1.2-8.7-3-11.4c-0.6-0.9-1.4-2.2-2.4-1.7C42.7,61.3,44.7,65.9,45.2,71.2z M25.7,61.4
	c-2.2,0-5.6-0.8-7.5-0.1c2.9,0.1,6.3,0.7,8.8,0.2C26.7,61.1,26.2,61.4,25.7,61.4z M16.5,63.1c0.3-0.1,0.9,0.2,0.9-0.2
	C17.1,63,16.5,62.7,16.5,63.1z M59.8,69c0.3-1.6,0.6-4.1,0.1-5.8C60,65.2,59.8,67.5,59.8,69z M28,63.5c-0.3,0.1-0.8-0.1-0.9,0.1
	C27.3,63.5,27.8,63.7,28,63.5z M26.4,65.2c-3.1-0.2-7.1-0.8-9.8-0.2c4.1,0.6,8.7,0.7,13,1.1C29.1,64.9,27.5,65.3,26.4,65.2z
	 M15.9,80.8c0,0.1,0.1,0.1,0.1-0.1c0-3.8,0-8.1,0.3-11.5c0.1-0.8,0.5-1.9,0-2.6C15.6,70.8,15.6,76.2,15.9,80.8z M19.3,67
	c-0.3,7.4,2.2,12,7.1,12.8c-3.4-2.6-5.7-6.4-5.9-12.7C20.1,67.1,19.8,66.9,19.3,67z M21.7,67.1C22,73,24.9,78.4,29.6,79
	c1.9-2.4,1.3-8.2,0.5-11.6C27.2,67.4,24.4,67.3,21.7,67.1z M51,93.8c-1-3.7-2.1-7.2-2.3-11.9c-0.1,0-0.2,0-0.3,0
	C48.2,86.3,49.6,90.6,51,93.8z"/>
</svg>
