<?xml version="1.0" encoding="utf-8"?>
<!-- Generator: Adobe Illustrator 21.0.2, SVG Export Plug-In . SVG Version: 6.00 Build 0)  -->
<svg version="1.1" id="Isolation_Mode" xmlns="http://www.w3.org/2000/svg" xmlns:xlink="http://www.w3.org/1999/xlink" x="0px"
	 y="0px" viewBox="0 0 164.1 168.3" style="enable-background:new 0 0 164.1 168.3;" xml:space="preserve">
<style type="text/css">
	.st0{fill-rule:evenodd;clip-rule:evenodd;fill:#6D6E71;}
</style>
<path class="st0" d="M75.3,5.6c8.5,0.1,18.1,1,27.4,2.5c8.9,1.4,18.2,2.2,24,5.7c1.3,0.8,3.1,2.2,3.9,3.4c1.6,2.7,1.2,5.8,0,9.3
	c12.3-1,24.4,2.2,23.2,16.4c-0.6,6.4-5,11-9.1,14.6c-12.3,10.7-30.9,18.4-46.3,24.1c3.1,2.2,6.7,5.3,4.5,11
	c-1.3,3.5-6.2,6.4-9.7,8.2c-8,3.9-19.1,5.3-30.5,3.6c-5.2-0.8-10.6-1.6-14.1-3.6c-3.2-1.8-7.2-6.2-5.8-11.3c0.2-0.9,0.7-1.6,1.1-2.5
	c1.3-2.3,4.5-4.9,4.7-7.5c0.2-3-3.3-6.1-5.2-7.9c-2.5-2.3-4.8-4.2-7-6.1c-4.7-4.1-8.8-8.7-12.3-13.7c-3.6-5.1-6.7-10.7-9.9-16.2
	c-3.1-5.3-6.4-11.5-10.5-15.4c-1.3-1.2-3.5-2.1-3.7-3.3c-0.4-2.1,3.6-5.1,4.7-6.1c5.8-5,13.7-8.2,22.4-9.7c6.3-1,13.6-1.3,19.5-0.2
	c4,0.8,8.6,2,13,3.1c1.4,0.4,3.5,1.2,4.2,1c0.7-0.2,1.6-1.7,2.6-2.6c1-1,2.2-2.3,3.4-2.5C73.4-0.5,74.3,3.2,75.3,5.6z M68.5,3.7
	c0.4,0.5,0.1,1.6,0.7,2c0.1-1,1-2.1,0.6-3.1C69.6,3,68.7,3.1,68.5,3.7z M37.5,2.7C24.2,2.7,12,7.1,5.4,14
	c12.2-3.3,27.1-0.2,36.7,3.6c1.8-1,4.1-1.5,6.2-2.3c-7.7,0.4-14.7-2.5-22.2-2.8c-2.3-0.1-5.5,0.5-5.5-1.6c0-2.2,7.2-4.7,8.8-5.2
	c10.5-3.3,23.9-1.1,32.1,2.6c0.7,0.3,1.3,1,2.1,0.8c0-0.7,0-1.4,0-2.1C55.2,5.8,47.1,2.7,37.5,2.7z M70.5,5.6c0.8-0.3,1.2-1,1.6-1.6
	c-0.4-0.2-0.3-0.9-0.8-1C71.1,3.9,70.8,4.8,70.5,5.6z M68,9.1c0.3-1.5-0.2-3.3-0.8-4.4C65.6,5.8,67.4,7.7,68,9.1z M69.5,9.5
	c0.9-1.2,4-1.9,2.9-3.9C71.6,7,69.4,7.8,69.5,9.5z M44.3,8.1c-1.6-0.7-3.5-2-5.8-1.5C40.4,7,41.8,8.8,44.3,8.1z M49.4,8.4
	c-1.4-0.7-2.9-2.1-4.9-1.6C45.9,7.4,47.3,9,49.4,8.4z M33,7.4c1.8,0.2,4,1.7,6,0.7C37.2,7.6,34.9,6.3,33,7.4z M66.1,11.3
	c0.5,0,0.8,0.2,1.1,0.3c0.2-1.6-1-3-1.6-4.3C65.1,8.8,65.8,10.2,66.1,11.3z M53.9,9.2c-0.7-0.8-2-1.9-3.4-1.5
	C51.4,8.4,52.6,9.6,53.9,9.2z M26.6,9.5c2-0.3,4.2-0.5,6.2-0.8C30.7,7.8,28.1,8.5,26.6,9.5z M73.6,11.5c2.2-0.7,4.1-1.2,6.8-1.1
	c9.5,0,21.1,3.2,23.4,10.3c2.1,0.2,3.9,1,5.8,1.5c1.8,0.5,3.8,1.5,5.7,1.6c2.4,0.1,4.9-1.2,7.1-2c2.4-0.8,4.8-1.3,6.8-2.5
	c-1.5-3.5-5.8-5.1-9.9-6.1c-4.4-1-9.5-1.5-14.1-2.3c-9.3-1.5-19.7-2.9-30-2.8C74.6,9.3,74.3,10.6,73.6,11.5z M61.5,11.2
	c-1.8-0.9-4.3-2-6.2-2.3C56.3,10.7,59.7,10.9,61.5,11.2z M69,12.3c1.2-0.4,2.3-1.9,2.6-2.8C70.9,10.5,68.6,10.7,69,12.3z M35.4,11.3
	c2.6,0.9,3.9-0.5,5.4-1.6C38.3,9.6,36.4,10,35.4,11.3z M40,12.2c3.3,1.3,4.6-1,6.7-2.3C43.1,9.4,41.6,10.4,40,12.2z M31,10.5
	c1.4,0.2,3.1,0.7,3.7-0.5C33.8,10.2,30.6,10.2,31,10.5z M44.8,12.8c3,0.8,4.6-1.1,6-2.5C47.8,9.6,46.8,11.7,44.8,12.8z M50,13
	c2.3,0.2,4.1-0.3,5-1.5C53,10.2,51.2,11.7,50,13z M60.7,13.1c-0.8-0.4-4.2-1.9-5-0.3C57.5,12.8,59.4,12.7,60.7,13.1z M73.2,14.3
	c2.1-0.7,5.4-0.1,6.5-1.8C77.2,12.6,74,12.9,73.2,14.3z M80.5,13.8c1.7,0.5,3.8,0.1,4.7-0.8C83.3,12.6,81.8,13.1,80.5,13.8z
	 M64.1,14.6c1-0.2,1.8-0.5,2.8-0.8C66.1,13.3,64,13.2,64.1,14.6z M86.4,14.3c2.3,0,4.3,1.5,6.2,0.5C90.6,14.5,88.4,13.1,86.4,14.3z
	 M69.2,15.6c0.3-0.5,1.3-0.3,1.5-1c-0.6-0.1-1.1-0.2-1.6-0.3C68.8,14.5,69,15.3,69.2,15.6z M3.6,17.2c12,11.5,18.3,30.2,30.2,42.2
	c4,4.1,8.7,7.2,12.8,11.5c1.5,1.6,3,3.4,3.9,5.2c3.1,6.6-4.7,9.4-5.2,14.2c-0.5,4.7,5,8.5,8.9,9.7c2.6,0.8,6.5,1.4,9.9,1.8
	c9.6,1.1,18.6,0.4,26-2.5c3.5-1.4,9.3-4.6,10.5-7.7c3-7.1-5.4-6.2-6.7-11.3c-0.5-2.2,1.5-5.4,2.8-7.2c1.5-2.1,3.1-4,4.4-5.6
	c9-11.3,17.8-22.3,24.8-34.9c-0.5-0.2-0.9,0.4-1.1,0.7c-9,10.2-18.6,19.3-26.1,31.1c-3.2,5-7.1,10.9-5,18.5
	c-2.2,1.9-5.9,2.4-9.4,3.1c-10.3,2-24.4,2.3-32.5-2.1c1.4-15.8-10.1-19.8-18-28.5C29,50.3,24.2,44.5,20,38.2c-1.1-1.6-3.6-5.2-3.4-7
	c0.2-2,3.2-4.1,4.9-5.1c5-2.9,11.3-4.7,16.4-7.4C28.9,15.6,13.4,13.2,3.6,17.2z M80.1,16.4c-0.8-1.5-4.2-1.7-6-0.8
	C76,15.8,78.3,16.5,80.1,16.4z M66.4,16.6c0.5-0.1,0.8-0.2,1.3-0.3c-0.1-0.3,0.2-1-0.2-1C67.2,15.7,66.5,15.9,66.4,16.6z M84.6,16.6
	c-0.8-0.7-2.2-1.7-3.7-1.1C81.9,15.9,83.1,17.1,84.6,16.6z M64,16.9c0.7-0.1,0.8-0.7,1.1-1.1C64.6,16,63.8,16,64,16.9z M88.7,16.7
	c-0.2,0-0.1-0.4-0.2-0.7c-0.9,0.1-2-0.6-2.8-0.2C86.6,16.2,87.4,17.4,88.7,16.7z M99.9,18.7c-1.7-1-3.1-3.1-5.8-2.5
	C96.1,16.8,98.2,18.3,99.9,18.7z M45.5,19c8.2,3.8,18,6.4,29.9,7.2c11.7,0.8,24.1,0.2,34.6-1.8c-2,0.2-3.7-1.5-5.7-1.3
	c-0.7,0.1-1.1,0.8-1.8,0.8c-1.1,0-3.8-2-5.4-2.8c-7-3.3-20.8-0.5-26.3-4.3c-2.2,1.4-5.4,2.5-8.8,2.1c-0.5-0.5-0.2-1.7-0.5-2.3
	C55.5,16.2,49.7,17.2,45.5,19z M120.3,28c-1.4-0.7-3.4-1.7-4.9-1.8c-1.2-0.1-2.8,0.6-4.4,0.8c-20,3.3-46,3-61.5-3.6
	c-2.4-1-5.7-3.1-7.6-3.1c-1.2,0-3.6,1-5.2,1.6c-5.7,2.1-12.5,4.8-16.4,7.5c-0.2,0-0.4,0.3-0.2,0.3c0-0.1,0-0.2,0.2-0.2
	c6.3-1.3,10.9,1.5,16.6,2.1c4.3,0.5,8.7,0.9,13.2,1.1c8.7,0.5,17,2.1,25,3.6c8.7,1.6,17.3,1.9,25.5-0.5c3.9-1.1,7.8-2,11.9-2.5
	c4-0.4,8.5,0,11.7-2.8C123,29.6,121.7,28.7,120.3,28z M120,25.3c2.7,1.3,5.8,2.2,6.7,5.4c1.5-2.5,2.7-6.1,3.1-9.2
	C126.5,22.8,123.1,23.8,120,25.3z M142.4,56.2c4.1-3.6,8.6-7.8,9.1-14.2c0.3-4.4-1.4-7.8-3.6-9.8c-3.3-3.1-12.5-4.4-18-3.3
	c-0.7,2.5-1.8,4.6-2.8,6.9c6.2-3.3,18.4-3.4,20.3,3.6c1.1,4-1.2,7.4-2.9,9.3c-2.6,3-6.6,5.7-10.2,8.2C123.7,64,109.4,71,98.1,76
	c-0.6,1.1-1.4,2.1-1.6,3.6C110.7,74.5,130.6,66.3,142.4,56.2z M97.1,39.5c-7.9,1.6-16.1,0.7-24.5-1c-7.7-1.5-15.8-2.7-24-3.1
	c-4.2-0.2-8.4-0.6-12.3-1.1c-5.5-0.8-11.5-4.5-17.4-2c5,8.1,10.5,15.1,17.5,22.3c7,7.2,19.8,13.3,17.2,28.1
	c10.5,4.1,27.6,2.6,37.3-1.1c-1-8,2.1-13,5.2-18c6.4-10.2,14.5-18,22.4-26c0.7-0.7,1.7-1.5,1.6-2.1C111.4,35.5,104.2,38,97.1,39.5z
	 M133.3,54.2c3.3-2.3,6.9-4.5,9.3-7.2c0.9-1,2.1-2.7,2.4-3.9c1.4-5.5-4.6-7.8-9.9-7.4c-3.8,0.3-6.7,1.8-9.6,2.8
	c-7,12.1-16,22.2-24.2,33.1C111.9,67.5,124,60.5,133.3,54.2z"/>
<path class="st0" d="M157.2,105.7c7.3,8.3-2.7,19.8-8.6,24.2c3.1,7.5-2.9,15.2-7.3,19.6c-8,8-18.3,14.1-31.8,17.3
	c-6.6,1.6-15.5,2.3-22.2,0.3c-0.9-0.3-2.4-1.3-3.4-1.3c-0.8-0.1-2.1,0.6-3.2,0.7c-7.9,1.2-18.1,1.6-24.6-1.3
	c-2.7-1.2-5.7-3.6-6.1-7.4c-5.3-1.8-12-4.3-16.1-7.7c-2.7-2.2-5-5.5-3.2-10.2c1.9-4.8,7.1-8,11.8-10.5c5.1-2.6,10.5-4.7,16.9-5.8
	c3.4-5.8,8.3-10.1,14.4-13.4c2-1.1,4.3-1.7,6.5-2.8c2-1.1,3.5-3.2,5.4-4.6c3.4-2.5,9.2-5.7,15.5-3.4c5.9-3.4,9.9-9.5,19.2-10.2
	c1.1-0.1,2.4,0.2,3.5,0c1.6-0.3,4.3-3.1,5.7-4.3c5.5-4.4,10.8-9.1,19.6-10.5c5.1-0.8,9.9,0.6,12,3
	C167.9,84.9,161.3,99.2,157.2,105.7z M161.8,85.5c-0.1-6-4.2-9.3-11-8.9c-8.2,0.6-16.5,7.2-21.6,11.2c-0.9,0.7-1.8,1.2-2.2,2.1
	c11.3,3,20.2,8.3,28.6,14C157.7,99,161.9,92.2,161.8,85.5z M119.8,91.8c3.8,0.9,7.4,2.3,10.4,3.8c0.9,0.5,2.4,1,2.5,2.2
	c-1.1,0.3-2.3-0.6-3.2-1c-3.2-1.6-6.7-3.2-10.9-3.8c-0.6-0.3-0.1-1.1-0.6-1.2c-5.7,1.9-10.1,5.1-14.4,8.4
	c15.1,8.5,26.9,20.1,42.5,28.2c6.2-4,16-14.9,8-22.4c-3.6-3.3-8.4-5.8-14-8.6c-6.8-3.3-12.2-6-20.6-5.9
	C119.5,91.7,119.5,91.9,119.8,91.8z M92.4,101.7c-3.1,1.2-8.3,4.8-8.8,6.8c-0.5,1.9,0.1,4.6,0.2,6.9c0.7,16-0.6,34.9,1.4,48.9
	c8.8,4,22.5,1.1,30.3-1.6c9.5-3.3,18.1-8.8,24.4-15.2c3.9-3.9,8.6-10.2,6.4-16.8c-8.8-3.8-15.8-9.4-23.2-14.5
	c-3.7-2.6-7.5-5.1-11.2-7.7c-3.7-2.6-7.1-5.8-11.8-7.1c-0.2,0.6,1.1,1.3,1.8,1.8c4,3.2,8,6.3,11.5,9.7c1.3,1.3,3.4,2.8,3,4.7
	c-1.7-0.7-1.8-1.9-2.9-2.9c-3.1-3.2-7.3-6.4-11-9.2c-1.3-1-3.2-2.1-3.8-3c-0.3-0.4,0-1.4-0.6-1.5C96,101,94.1,101.1,92.4,101.7z
	 M60.3,128.4c-2.5,6.4-3.8,15.2-5.7,22.4c-0.6,2.1-2.2,5.6-1.9,7.5c0.3,1.8,2.8,3.8,4.3,4.6c6.2,3,17.9,2.7,26.2,1.2
	c-2.7-16.5-1.1-36.3-2.2-54.3C71.9,112.9,64.2,118.4,60.3,128.4z M43.5,131.5c-3.8,2-9.1,5.3-10.5,9.2c-2.1,5.7,3.7,8.9,7.2,10.8
	c3.4,1.8,6.4,3.4,10.2,4.4c2.9-8,4.3-18.2,6.9-26.3c0.4-1.1,1-2.3,0.8-3.4C53.1,127.6,48.1,129.1,43.5,131.5z"/>
<path class="st0" d="M150.5,80.2c-0.2,1.8-2.6,0-4,0.1C146,78.4,149.8,79.6,150.5,80.2z"/>
<path class="st0" d="M147.9,83.1c-1.8,0.2-3.6-0.7-5.3-1c-0.1-0.5,0.2-0.5,0.2-0.9C145,81.4,147.4,81.4,147.9,83.1z"/>
<path class="st0" d="M145.2,85.8c-1.8,0.1-3.9-0.6-5.6-1c-0.1-0.3,0-0.6,0.2-0.7C141.1,83.8,145.3,84.3,145.2,85.8z"/>
<path class="st0" d="M143.4,88c0,0.2,0,0.4,0,0.6c-1.1,0.5-2.5-0.4-3.8-0.7c-1.4-0.4-3-0.3-4-1C136.4,84.9,141.8,87.4,143.4,88z"/>
<path class="st0" d="M144.7,93.3c-1.9,0.2-3.7-1.2-5.7-1.9c-2.1-0.7-4.4-0.9-6.2-1.9c0-0.3,0-0.6,0.2-0.7c0.1,0,0.2-0.1,0.3-0.1
	c3.1,0.6,6.7,1.7,9.4,2.9C143.4,91.9,144.7,92.3,144.7,93.3z"/>
<path class="st0" d="M124.3,97.7c-1.7,0-3.4-1.4-5.3-1.9c-0.7-0.2-1.7,0-2.1-0.7c0.1-0.3,0.3-0.5,0.5-0.7
	C119.5,94.8,124.2,95.8,124.3,97.7z"/>
<path class="st0" d="M121.1,98.8c-1.7,0.2-4.3-1.1-5.6-2.2c0-0.2,0.2-0.3,0.2-0.4c0.9-0.5,2.1,0.5,3.2,1
	C119.8,97.6,121.4,97.7,121.1,98.8z"/>
<path class="st0" d="M119.5,102.2c-1.4-0.2-2.6-0.9-3.7-1.5c-1.1-0.5-2.3-1-3-1.9c-0.1-0.4,0.3-0.3,0.3-0.6c0.1,0,0.2,0,0.3,0
	c1.1,0.4,2.5,1,3.7,1.6C118.1,100.3,119.8,100.9,119.5,102.2z"/>
<path class="st0" d="M120.4,107.8c-1.9-0.5-3.6-2-6.1-3.5c-0.8-0.5-1.8-1.2-3-1.9c-1.1-0.6-3.9-1.4-2.7-2.7c0.1,0,0.2,0,0.3,0
	c3.2,1.6,6.4,3.6,9.4,5.6C119.2,105.8,120.8,106.6,120.4,107.8z"/>
<path class="st0" d="M110.1,119.4c-1.2,0-1.4-1.3-1.9-1.9c-2.5-3.3-5.7-6.7-8.8-9.7c-1.2-1.2-3-2.1-3.2-3.8
	c-0.1-0.3,0.3-0.2,0.3-0.4c0.2,0,0.3,0,0.5,0c4.3,4.1,8.6,8.7,12.3,13.7C109.7,117.8,110.9,118.6,110.1,119.4z"/>
<path class="st0" d="M102.9,118.1c-1.3-0.4-1.7-1.9-2.4-2.8c-2.1-2.9-4.7-5.7-6.7-8.9c0.9-1.9,2.5,1.3,3.2,2.2
	c1.7,2.2,3.1,3.9,4.6,6.1C102.3,115.8,103.6,117,102.9,118.1z"/>
<path class="st0" d="M89.3,106.8c1,0.1,0.8,1.3,1,1.9c0.8,3.7,1.7,7.7,2.4,11.7c0.3,1.5,1,3.2,0,4.6c-1.2-0.1-0.7-1.4-0.8-2.1
	c-0.8-5-2.7-10.6-3.2-15.5C88.7,107,88.9,106.8,89.3,106.8z"/>
<path class="st0" d="M88.5,132.9c-1.2-0.2-0.9-1.7-1-2.5c-0.6-6.7-1.8-14.8-1.6-21.4c1.8-2,1.5,3.7,1.6,5.3c0.4,4.7,0.6,8.3,1,12.7
	C88.7,129.1,89.4,131.3,88.5,132.9z"/>
<path class="st0" d="M79.7,113.4c0.2,0.9-0.4,2.1-0.6,3.2c-0.2,1.1,0.1,2.7-1.1,3c-1.2-1.4,0.3-4.8,1-6.3
	C79.4,113.1,79.4,113.5,79.7,113.4z"/>
<path class="st0" d="M77,114.6c-0.2,1.1-0.7,2.4-1.1,3.5c-0.4,1.1-0.4,2.5-1.6,2.9c-0.8-1.4,0.7-4.9,1.6-6.3
	c0.1-0.2,0.1-0.3,0.3-0.4C76.6,114.3,76.7,114.5,77,114.6z"/>
<path class="st0" d="M73.7,116c-0.3,1.3-0.9,2.6-1.4,3.8c-0.5,1.2-0.7,2.6-1.6,3.5c-1.4-0.7-0.3-2.4,0.2-3.5
	c0.5-1.3,1.2-2.7,1.6-3.7c0.1-0.2,0.3-0.2,0.3-0.4C73.3,115.6,73.4,115.9,73.7,116z"/>
<path class="st0" d="M71.1,116.5c-1.7,3-3.3,6.3-4.6,9.7c-0.4,1.1-0.5,2.5-1.6,3.1c-1.2-0.7-0.2-2.4,0.2-3.4c1.1-2.8,3.4-8,5.3-9.7
	C70.8,116.1,70.8,116.4,71.1,116.5z"/>
<path class="st0" d="M55.1,128.9c-0.2,1.4-0.9,2.7-1.4,4c-0.5,1-1,2.8-2.6,2.8c-0.3-1.2,0.8-2.2,1.3-3.2c0.6-1.2,1.1-2.5,1.8-3.7
	C54.6,128.7,55,128.7,55.1,128.9z"/>
<path class="st0" d="M51.6,130.2c0,1.3-1.3,2.3-1.9,3.5c-0.6,1-0.7,3.1-2.4,2.8c0.3-2.4,2.1-4.5,3.4-6.5
	C51.1,130.1,51.5,130.1,51.6,130.2z"/>
<path class="st0" d="M47.7,131.7c0.3,1.3-1.1,2.4-1.8,3.5c-0.6,1-0.9,3-2.6,3c-0.3-1.1,0.8-2.2,1.4-3.2c0.8-1.2,1.3-2.7,2.4-3.4
	C47.4,131.5,47.4,131.7,47.7,131.7z"/>
<path class="st0" d="M44.9,132.6c0,1.1-1.1,1.3-1.8,1.9c-1.8,1.8-2.5,4.3-4.3,6c-1.5-1.1,0.5-2.8,1.3-4c1.2-1.7,2.2-3.4,4-4.3
	C44.6,132.2,44.6,132.5,44.9,132.6z"/>
</svg>
