<?xml version="1.0" encoding="utf-8"?>
<!-- Generator: Adobe Illustrator 21.0.2, SVG Export Plug-In . SVG Version: 6.00 Build 0)  -->
<svg version="1.1" id="_x33_" xmlns="http://www.w3.org/2000/svg" xmlns:xlink="http://www.w3.org/1999/xlink" x="0px" y="0px"
	 viewBox="0 0 40 40" style="enable-background:new 0 0 40 40;" xml:space="preserve">
<style type="text/css">
	.st0{fill-rule:evenodd;clip-rule:evenodd;fill:#323232;}
	.st1{fill-rule:evenodd;clip-rule:evenodd;fill:#FEFEFE;}
</style>
<g>
	<path class="st0" d="M8.8,0h22.4C36.1,0,40,4,40,8.8v22.4c0,4.9-3.9,8.8-8.8,8.8H8.8C3.9,40,0,36,0,31.2V8.8C0,4,3.9,0,8.8,0L8.8,0
		z"/>
	<path class="st1" d="M20.2,29c-2,0-3.9-0.6-5.5-1.6l-3.8,1.2l1.2-3.7c-1.2-1.6-1.9-3.6-1.9-5.8c0-0.3,0-0.6,0.1-0.9
		c0.5-5,4.7-8.9,9.9-8.9c5.2,0,9.5,4,9.9,9.1c0,0.3,0,0.5,0,0.8C30.1,24.5,25.7,29,20.2,29L20.2,29z M25.6,21.5
		c-0.3-0.1-1.7-0.8-2-0.9c-0.3-0.1-0.5-0.1-0.7,0.2c-0.2,0.3-0.7,0.9-0.9,1.1c-0.2,0.2-0.3,0.2-0.6,0.1c-0.3-0.1-1.2-0.4-2.3-1.4
		c-0.9-0.8-1.5-1.7-1.6-2c-0.2-0.3,0-0.4,0.1-0.6c0.1-0.1,0.3-0.3,0.4-0.5c0,0,0.1-0.1,0.1-0.1c0.1-0.1,0.1-0.2,0.2-0.3
		c0.1-0.2,0.1-0.4,0-0.5c-0.1-0.1-0.6-1.6-0.9-2.1c-0.2-0.6-0.5-0.5-0.6-0.5c-0.2,0-0.4,0-0.6,0c-0.2,0-0.5,0.1-0.8,0.4
		c-0.3,0.3-1,1-1,2.4c0,0.3,0.1,0.7,0.2,1c0.3,1,0.9,1.9,1,2c0.1,0.2,2,3.2,4.9,4.3c3,1.1,3,0.8,3.5,0.7c0.5,0,1.7-0.7,2-1.4
		c0.2-0.7,0.2-1.2,0.2-1.4C26.1,21.7,25.9,21.6,25.6,21.5L25.6,21.5z M32,18.8c-0.2-6.3-5.4-11.4-11.8-11.4c-6.3,0-11.5,5-11.8,11.2
		c0,0.2,0,0.3,0,0.5c0,2.2,0.6,4.3,1.7,6.1L8,31.4l6.5-2.1c1.7,0.9,3.6,1.5,5.7,1.5c6.5,0,11.8-5.2,11.8-11.7C32,19,32,18.9,32,18.8
		L32,18.8z"/>
</g>
</svg>
