<?xml version="1.0" encoding="utf-8"?>
<!-- Generator: Adobe Illustrator 21.0.2, SVG Export Plug-In . SVG Version: 6.00 Build 0)  -->
<svg version="1.1" id="Isolation_Mode" xmlns="http://www.w3.org/2000/svg" xmlns:xlink="http://www.w3.org/1999/xlink" x="0px"
	 y="0px" viewBox="0 0 84.2 26.3" style="enable-background:new 0 0 84.2 26.3;" xml:space="preserve">
<style type="text/css">
	.st0{fill:#E3000F;}
</style>
<g>
	<path class="st0" d="M20.6,15.2c0.5-0.6,1-1.1,1.5-1.7c0.1-0.1,0.2-0.2,0.3-0.3c0.1-0.1,0.2-0.2,0.3-0.3c0.8-0.9,1.7-1.8,2.6-2.8
		c1-1,2.2-2.1,3.7-3.5c3-2.7,5-4.3,6-4.8C35.9,1.3,36.5,1,36.6,1c0,0,0.1,0,0.2,0c0.1,0,0.1,0,0.2,0.1c0.3,0.1,0.6,0.4,0.8,0.8
		c0.3,0.4,0.4,0.8,0.4,1.2c0,0.1,0,0.2,0,0.3c0,0.1,0,0.2-0.1,0.3c-0.5,0.6-1,1.2-1.4,1.7c-0.4,0.5-0.8,1-1.2,1.5
		c0,0-0.1,0.1-0.1,0.1s-0.1,0.1-0.1,0.1c-0.3,0.3-0.5,0.7-0.8,1c-0.3,0.3-0.6,0.7-0.9,1c-0.3,0.4-0.7,0.8-1.1,1.3s-0.8,1-1.2,1.6
		c-0.4,0.5-0.7,1.1-1.1,1.7c-0.3,0.6-0.7,1.2-1,1.8c-0.4,0.8-0.8,1.6-1,2.4s-0.4,1.5-0.4,2.2c0,1,0.2,1.7,0.5,2.1
		c0.3,0.4,0.7,0.6,1.1,0.6c0.2,0,0.6-0.1,1-0.3c0.4-0.2,0.8-0.4,1.3-0.7c0.1-0.1,0.2-0.1,0.4-0.2c0.1-0.1,0.3-0.2,0.4-0.3
		c0.4-0.2,0.7-0.5,1-0.7c0.3-0.2,0.5-0.4,0.7-0.6c0,0,0.1-0.1,0.2-0.1c0.1,0,0.1-0.1,0.2-0.1c0,0,0.1-0.1,0.1-0.1
		c0,0,0.1-0.1,0.1-0.1c0.1-0.1,0.3-0.2,0.4-0.3c0.1-0.1,0.3-0.1,0.4-0.1c0,0,0,0,0.1,0c0.1,0,0.1,0.1,0.2,0.1c0.1,0,0.1,0.1,0.1,0.1
		c0,0,0,0,0,0.1c0,0.1-0.1,0.3-0.3,0.5c-0.2,0.2-0.4,0.5-0.6,0.8c0,0-0.1,0.1-0.1,0.1c0,0-0.1,0.1-0.1,0.1c-0.2,0.2-0.4,0.4-0.6,0.6
		c-0.2,0.2-0.3,0.3-0.5,0.4c-0.4,0.4-0.9,0.8-1.4,1.2c-0.5,0.4-0.9,0.7-1.4,1c-0.9,0.6-1.7,1.1-2.6,1.4c-0.8,0.4-1.6,0.5-2.3,0.5
		c-0.1,0-0.3,0-0.5-0.1c-0.2-0.1-0.4-0.2-0.7-0.3c-0.4-0.2-0.7-0.6-1-1.1c-0.3-0.5-0.5-1.2-0.5-2.1c0-1.2,0.2-2.5,0.7-3.7
		c0.5-1.2,1-2.2,1.6-3.1c0.2-0.4,0.5-0.7,0.7-1.1c0.2-0.3,0.5-0.6,0.6-0.9c1.4-1.8,2.3-3,2.6-3.5c0.3-0.5,0.5-0.8,0.5-1
		c0-0.1,0-0.1-0.1-0.2c-0.1-0.1-0.1-0.1-0.3-0.1c-0.2,0-0.6,0.2-1.3,0.7c-0.7,0.5-2,1.7-4,3.7c-0.6,0.6-1.5,1.6-2.6,2.9
		c-1.1,1.3-2.3,2.7-3.5,4.3c-0.2,0.3-0.5,0.6-0.7,1c-0.2,0.3-0.5,0.7-0.7,1c-0.6,0.8-0.9,1.3-1.2,1.6c-0.2,0.3-0.4,0.5-0.5,0.5
		c0,0,0,0-0.1,0c0,0-0.1,0-0.1,0s-0.1,0-0.1,0c-0.3,0-0.5-0.2-0.7-0.4c-0.2-0.2-0.3-0.6-0.3-1.1c0-0.5,0.3-1.5,0.8-3.1
		c0.5-1.6,1.7-4,3.4-7.2c1.6-2.8,2.6-4.5,3.1-5.3s0.8-1.3,0.8-1.5c0-0.1-0.1-0.2-0.2-0.3c-0.1-0.1-0.3-0.1-0.4-0.1
		c-0.3,0-0.8,0.2-1.4,0.6c-0.6,0.4-1.2,0.8-1.9,1.4c-0.1,0.1-0.3,0.2-0.4,0.3c-0.1,0.1-0.3,0.2-0.4,0.3c-0.6,0.5-1.1,0.9-1.5,1.3
		c-0.5,0.4-0.8,0.8-1.1,1c-1.2,1.2-2.7,2.8-4.4,4.7c-1.7,1.9-3.5,4.2-5.6,6.9c-0.5,0.6-0.8,1.1-1.1,1.3c-0.3,0.3-0.5,0.4-0.7,0.5
		c-0.1,0-0.2,0-0.2,0.1s-0.2,0-0.3,0c0,0-0.1,0-0.2,0c-0.1,0-0.1,0-0.2,0c-0.1,0-0.1,0-0.2,0c-0.1,0-0.2,0-0.3,0c0,0-0.1,0-0.2,0
		c-0.1,0-0.1,0-0.2,0c-0.4,0-0.7-0.1-0.8-0.3C0.1,23.7,0,23,0,21.9c0-1.5,0.2-2.9,0.6-4C1,16.7,1.4,15.8,1.9,15
		c0.3-0.4,0.5-0.7,0.8-1c0.2-0.3,0.5-0.5,0.6-0.6c0.1-0.1,0.2-0.1,0.4-0.2c0.2-0.1,0.4-0.2,0.6-0.2c0.2-0.1,0.3-0.1,0.5-0.2
		c0.2-0.1,0.4-0.1,0.5-0.2c0.5-0.1,1-0.3,1.4-0.4c0.4-0.1,0.7-0.1,0.8-0.1c0,0,0,0,0.1,0c0,0,0,0,0.1,0c0,0,0,0,0,0.1s0,0.1,0,0.1
		s0,0.1,0,0.1c-0.1,0.2-0.3,0.4-0.7,0.7c-0.3,0.3-0.7,0.7-1.1,1.2c-0.3,0.5-0.7,1.1-1,1.9C4.7,17,4.5,18,4.3,19.3
		c0.4-0.5,1.1-1.3,2.1-2.4c1-1.1,2-2.3,3.1-3.5c0.1-0.1,0.1-0.1,0.2-0.2c0.1-0.1,0.1-0.1,0.2-0.2c1-1,1.9-2,2.8-3
		c0.9-0.9,1.6-1.7,2.2-2.2c0.4-0.4,1-0.9,1.7-1.6c0.8-0.7,1.6-1.4,2.5-2.1c0.1-0.1,0.3-0.2,0.4-0.4c0.1-0.1,0.3-0.2,0.4-0.3
		c1.1-0.9,2.2-1.7,3.2-2.4c1-0.7,1.7-1.1,2.1-1.1c0.1,0,0.1,0,0.2,0.1c0.1,0,0.2,0.1,0.3,0.2C26,0.4,26.2,0.7,26.3,1
		c0.2,0.3,0.3,0.7,0.4,1c0,0.2,0.1,0.4,0.1,0.5s0.1,0.3,0.1,0.5c0,0.4-0.2,0.9-0.6,1.5c-0.4,0.6-1.1,1.7-2.1,3.1
		c-0.3,0.5-0.6,0.9-0.9,1.3c-0.3,0.4-0.6,0.9-0.8,1.3c-0.6,1.1-1.3,2.1-1.9,3.2c-0.6,1.1-1.1,2.2-1.7,3.5
		C19.5,16.4,20.1,15.7,20.6,15.2z"/>
	<path class="st0" d="M39.6,19.3c0,0.1,0,0.1,0,0.2c0,0.1,0,0.3,0,0.4c0,0.2,0,0.3,0.1,0.5c0.1,0.4,0.3,0.8,0.6,1.1
		c0.3,0.3,0.8,0.5,1.4,0.5c0.2,0,0.4,0,0.6-0.1c0.2-0.1,0.5-0.1,0.7-0.2c0.2-0.1,0.4-0.1,0.6-0.2c0.2-0.1,0.4-0.2,0.5-0.2
		c0.3-0.1,0.5-0.3,0.7-0.4c0.2-0.1,0.4-0.2,0.5-0.3c0.9-0.6,1.4-0.9,1.7-1.2c0.2-0.2,0.4-0.3,0.5-0.4c0,0,0,0,0.1,0s0,0,0.1,0
		c0.1,0,0.1,0,0.2,0.1c0,0.1,0.1,0.2,0.1,0.4c0,0.1-0.1,0.2-0.2,0.4c-0.1,0.2-0.5,0.6-1,1.1c-0.2,0.2-0.5,0.5-0.8,0.8
		c-0.4,0.3-0.8,0.7-1.2,1.1c-0.5,0.4-0.9,0.7-1.5,1.1c-0.5,0.3-1.1,0.6-1.6,0.8C41.2,25,41,25,40.7,25.1c-0.3,0.1-0.6,0.1-0.8,0.1
		c-0.9,0-1.7-0.3-2.4-1c-0.7-0.7-1.1-1.7-1.1-3.1c0-0.5,0.1-1.1,0.2-1.7c0.1-0.6,0.3-1.2,0.6-1.8c0.7-1.5,1.7-2.9,3-4.3
		c1.3-1.3,2.7-2.2,4.1-2.6c0.2,0,0.4-0.1,0.7-0.1c0.2,0,0.5-0.1,0.7-0.1c0.6,0,1.1,0.1,1.4,0.3c0.3,0.2,0.5,0.5,0.6,0.8
		c0,0.1,0.1,0.2,0.1,0.3c0,0.1,0,0.2,0,0.3c0,0.4-0.1,0.8-0.3,1.2c-0.2,0.4-0.5,0.9-0.9,1.3c-0.6,0.8-1.4,1.5-2.4,2.3
		c-1,0.7-2,1.3-3.1,1.6c-0.2,0.1-0.5,0.2-0.7,0.2c-0.3,0.1-0.5,0.1-0.7,0.2C39.6,19.2,39.6,19.3,39.6,19.3z M40.6,17.5
		c0.3-0.2,0.7-0.3,1-0.5c0.4-0.3,0.9-0.6,1.3-0.9c0.4-0.3,0.8-0.6,1.1-1c0.3-0.3,0.5-0.6,0.6-0.9s0.3-0.6,0.3-0.8
		c0-0.3,0-0.5-0.1-0.7c-0.1-0.2-0.3-0.3-0.6-0.3c-0.2,0-0.3,0-0.5,0.1c-0.2,0.1-0.3,0.1-0.5,0.2c-0.5,0.3-1,0.7-1.5,1.3
		c-0.5,0.6-0.9,1.2-1.2,1.9c-0.2,0.3-0.3,0.6-0.5,0.9c-0.1,0.3-0.2,0.6-0.3,0.9C39.9,17.7,40.2,17.6,40.6,17.5z"/>
	<path class="st0" d="M55.3,11.8c-0.2,0.2-0.5,0.4-0.7,0.6c-0.2,0.2-0.4,0.3-0.6,0.4c0,0,0,0-0.1,0c0,0-0.1,0-0.1,0.1
		c-0.1,0.1-0.2,0.1-0.3,0.2c-0.1,0.1-0.2,0.1-0.3,0.2c-0.1,0.1-0.3,0.2-0.6,0.4c-0.3,0.2-0.6,0.4-1,0.6c0,0-0.1,0-0.1,0.1
		c0,0-0.1,0-0.1,0.1c-0.4,0.2-0.7,0.4-1,0.6c-0.3,0.2-0.6,0.3-0.7,0.3c0,0,0,0-0.1,0c0,0,0,0-0.1,0s0,0-0.1,0l0,0c0,0,0,0-0.1-0.1
		s0,0,0-0.1c0,0,0,0,0-0.1c0,0,0,0,0-0.1c0.1-0.2,0.5-0.6,1.3-1c0.7-0.5,2.1-1.7,4-3.5c0.1-0.1,0.2-0.2,0.4-0.4
		c0.2-0.2,0.3-0.3,0.4-0.5C55.8,9.5,56,9.3,56.2,9c0.2-0.2,0.3-0.3,0.4-0.4c0.2-0.3,0.4-0.5,0.5-0.6c0.1-0.1,0.2-0.3,0.3-0.3
		c0.1-0.1,0.2-0.1,0.3-0.1c0.1,0,0.2,0,0.4,0c0.5,0,0.8,0,1,0.1c0.2,0.1,0.3,0.2,0.3,0.3c0,0,0,0.1,0,0.1c0,0,0,0.1,0,0.1v0
		c0,0.1,0,0.2,0,0.3c0,0.1,0,0.2-0.1,0.2c-0.1,0.3-0.5,0.8-1.1,1.6c-0.6,0.7-1.5,2.5-2.7,5.2c0.4-0.1,0.7-0.1,1-0.1
		c0.3,0,0.6,0,0.8,0c0.3,0,0.6,0,0.8,0c0.2,0,0.4,0,0.6,0.1c0.2-0.3,0.4-0.6,0.6-0.9c0.2-0.4,0.4-0.7,0.7-1.1
		c0.2-0.2,0.3-0.5,0.5-0.7c0.2-0.2,0.3-0.4,0.5-0.6c0.3-0.5,0.7-0.8,1-1.1c0.3-0.3,0.6-0.4,0.9-0.4c0.2,0,0.4,0.1,0.5,0.4
		c0.1,0.3,0.2,0.5,0.2,0.8c0,0.1,0,0.3,0,0.4c0,0.1,0,0.3,0,0.4c0,0.3,0,0.5-0.1,0.7c0,0.2-0.1,0.3-0.2,0.4c-0.1,0-0.1,0.1-0.2,0.2
		C63,14,63,14.1,62.9,14.1c-0.1,0.1-0.3,0.3-0.5,0.5c-0.2,0.2-0.3,0.3-0.5,0.5c-0.2,0.2-0.4,0.5-0.6,0.8c-0.2,0.3-0.4,0.5-0.6,0.8
		c-0.3,0.4-0.5,0.8-0.7,1.2c-0.2,0.4-0.3,0.7-0.3,1c0,0,0,0.1,0,0.2c0,0.1,0,0.1,0,0.2c0,0,0,0,0,0.1c0,0,0,0,0,0c0,0,0,0,0,0.1
		s0,0,0,0.1c0.1,0.3,0.2,0.6,0.4,0.7c0.2,0.1,0.4,0.2,0.7,0.2c0.1,0,0.2,0,0.3,0c0.1,0,0.2,0,0.3-0.1c0.3,0,0.5-0.1,0.8-0.3
		c0.3-0.1,0.5-0.3,0.7-0.4c0.1-0.1,0.2-0.1,0.3-0.2c0.1-0.1,0.2-0.1,0.3-0.2c0,0,0.1-0.1,0.2-0.2c0.1-0.1,0.2-0.2,0.4-0.3
		c0,0,0.1,0,0.1-0.1c0.1-0.1,0.3-0.2,0.4-0.3c0.1-0.1,0.2-0.1,0.3-0.1c0.1,0,0.1,0,0.2,0.1c0,0.1,0.1,0.1,0.1,0.2v0v0
		c0,0.2-0.3,0.5-0.7,1c-0.4,0.5-1,1-1.6,1.6c-0.3,0.2-0.5,0.5-0.8,0.7c-0.3,0.2-0.6,0.5-0.8,0.7c-0.6,0.4-1.1,0.8-1.7,1
		c-0.6,0.3-1,0.4-1.4,0.4c-0.5,0-0.9-0.1-1.2-0.3s-0.5-0.5-0.6-0.7c0-0.1,0-0.2-0.1-0.3c0-0.1,0-0.2,0-0.3c0-0.3,0.1-0.9,0.3-1.7
		c0.2-0.8,0.8-2.1,1.8-4c-0.1,0-0.2,0-0.3,0c-0.1,0-0.2,0-0.3,0c-0.2,0-0.4,0-0.7,0.1s-0.5,0.1-0.7,0.1c-0.4,0.1-0.7,0.2-1.1,0.4
		s-0.7,0.3-0.9,0.5c-0.1,0.1-0.1,0.3-0.2,0.4c-0.1,0.1-0.1,0.3-0.2,0.4c0,0,0,0,0,0c-0.1,0.2-0.2,0.4-0.4,0.6
		c-0.1,0.2-0.3,0.5-0.4,0.7c-0.9,1.7-1.7,3.1-2.4,4.1c-0.7,1.1-1.4,1.6-2,1.6c-0.2,0-0.4-0.1-0.5-0.2s-0.2-0.3-0.2-0.5
		c0-0.1,0-0.2,0-0.3c0-0.1,0-0.2,0-0.2c0-0.3,0-0.7,0.1-1.1c0.1-0.4,0.2-0.8,0.3-1.2c0.3-0.8,0.7-1.6,1.3-2.4c0.5-0.8,1.1-1.4,1.6-2
		c0.2-0.2,0.5-0.5,0.7-0.7c0.2-0.2,0.5-0.4,0.7-0.5L55.3,11.8z"/>
	<path class="st0" d="M70.8,19.3c-0.2,0.1-0.3,0.3-0.5,0.4c0,0,0,0-0.1,0c-0.1,0.1-0.3,0.3-0.5,0.4c-0.2,0.2-0.3,0.4-0.6,0.6
		c-0.1,0.1-0.2,0.3-0.3,0.4c-0.1,0.1-0.2,0.3-0.3,0.4c-0.4,0.6-0.8,1.1-1.1,1.6c-0.3,0.5-0.6,0.8-1,0.9c0,0-0.1,0-0.1,0
		c0,0-0.1,0-0.1,0c-0.1,0-0.2,0-0.3,0c-0.1,0-0.2-0.1-0.3-0.1c-0.2-0.1-0.5-0.5-0.6-0.9c-0.2-0.5-0.3-1.2-0.3-2.3
		c0-0.9,0.1-1.6,0.3-2.1s0.4-1,0.7-1.5c0.2-0.2,0.3-0.5,0.5-0.8c0.2-0.3,0.4-0.6,0.6-0.9c0.8-1.2,1.6-2,2.1-2.3
		c0.6-0.3,1-0.4,1.3-0.5c0.1,0,0.1,0,0.2,0c0.1,0,0.1,0,0.2,0c0.3,0,0.5,0.1,0.6,0.2c0.1,0.1,0.2,0.2,0.3,0.4c0,0,0,0,0,0.1
		c0,0,0,0,0,0.1c0,0.6-0.2,1-0.5,1.3c-0.3,0.3-0.7,0.5-1.2,0.7c-0.1,0-0.1,0.1-0.2,0.1c-0.1,0-0.1,0.1-0.2,0.1
		c-0.6,0.3-1,0.6-1.5,1.1c-0.4,0.4-0.7,1.2-0.7,2.2c0,0.1,0,0.2,0,0.3c0,0.1,0,0.2,0.1,0.3c0,0.1,0,0.2,0.1,0.4
		c0,0.1,0.1,0.2,0.1,0.3c0.5-0.5,1.1-1.1,1.8-1.8c0.7-0.7,1.7-1.6,3-2.7c0.2-0.2,0.4-0.4,0.6-0.7c0.2-0.2,0.5-0.5,0.7-0.7
		c0.4-0.4,0.9-0.8,1.4-1.2s1.1-0.8,1.6-1.1c0.6-0.3,1.1-0.6,1.6-0.8c0.5-0.2,1-0.3,1.5-0.3c0.4,0,0.7,0.1,1,0.2
		c0.3,0.1,0.5,0.3,0.7,0.4c0.1,0.1,0.2,0.2,0.2,0.3c0,0.1,0.1,0.1,0.1,0.2c0,0,0,0.1,0,0.1s0,0.1,0,0.1c0,0.1,0,0.1,0,0.2
		c0,0.1,0,0.1,0,0.2c0,0,0,0,0,0.1c0,0,0,0,0,0.1c0,0,0,0,0,0.1c0,0,0,0,0,0.1c0,0,0,0,0,0.1c0.4,0.1,0.6,0.3,0.8,0.5
		c0.2,0.2,0.3,0.5,0.3,0.7c0,0.1,0,0.3,0.1,0.4s0,0.2,0,0.4c0,0.2,0,0.4-0.1,0.6c0,0.2-0.1,0.4-0.1,0.6c-0.1,0.5-0.3,1-0.5,1.5
		c-0.2,0.5-0.4,0.9-0.7,1.3c0,0-0.1,0.1-0.1,0.2c0,0.1-0.1,0.1-0.1,0.2c0,0,0,0-0.1,0.1c0,0,0,0,0,0.1c0,0,0,0,0,0.1s0,0,0,0.1
		c0,0.2,0.1,0.3,0.2,0.4c0.1,0.1,0.3,0.2,0.6,0.2s0.4,0,0.6-0.1c0.1-0.1,0.3-0.1,0.4-0.2c0,0,0,0,0.1-0.1c0,0,0,0,0.1,0
		c0.1-0.1,0.1-0.1,0.2-0.2c0.1,0,0.2-0.1,0.3-0.1c0.1,0,0.2,0,0.3,0.1c0.1,0,0.1,0.1,0.1,0.2c0,0.1-0.1,0.2-0.2,0.4
		c-0.1,0.2-0.3,0.4-0.6,0.6c-0.4,0.3-0.9,0.6-1.4,0.8c-0.6,0.2-1.2,0.4-1.8,0.4c0,0-0.1,0-0.2,0c-0.1,0-0.1,0-0.2,0
		c-0.6,0.7-1.3,1.3-2,1.8c-0.8,0.5-1.7,0.8-2.7,0.8s-1.8-0.3-2.3-0.8s-0.9-1.2-1.1-1.9c-0.2-0.5-0.3-0.9-0.3-1.4
		c0-0.5-0.1-0.8-0.1-1v-0.7C71.2,18.9,71,19.1,70.8,19.3z M78.5,20.6c0-0.1-0.1-0.2-0.1-0.3c0-0.2-0.1-0.3-0.1-0.5
		c0-0.2-0.1-0.3-0.1-0.5c0-0.3,0.1-0.7,0.2-1.1c0.1-0.4,0.3-0.9,0.5-1.4c0.3-0.8,0.5-1.3,0.7-1.6c0.1-0.3,0.2-0.4,0.2-0.6
		c0,0,0,0,0-0.1c0,0,0,0,0-0.1c0-0.1,0-0.2-0.1-0.3c-0.1,0-0.1-0.1-0.2-0.1c0,0-0.1,0-0.1,0s0,0-0.1,0c-0.2,0-0.5,0.1-0.8,0.2
		c-0.3,0.2-0.6,0.4-1,0.6c-0.1,0.1-0.3,0.2-0.5,0.4s-0.3,0.2-0.4,0.4c-0.2,0.2-0.4,0.4-0.6,0.6c-0.2,0.2-0.4,0.4-0.5,0.5
		c-0.1,0.1-0.2,0.2-0.3,0.3c-0.1,0.1-0.3,0.3-0.4,0.5c-0.3,0.3-0.5,0.7-0.7,1c-0.2,0.4-0.3,0.8-0.3,1.2c0,0.9,0.1,1.5,0.4,1.8
		c0.2,0.3,0.5,0.5,0.8,0.6c0.1,0,0.2,0,0.3,0c0.1,0,0.2,0,0.3,0c0.3,0,0.8-0.1,1.3-0.3c0.5-0.2,1.1-0.6,1.8-1.2
		C78.6,20.7,78.6,20.7,78.5,20.6z"/>
</g>
</svg>
