<?xml version="1.0" encoding="utf-8"?>
<!-- Generator: Adobe Illustrator 21.0.2, SVG Export Plug-In . SVG Version: 6.00 Build 0)  -->
<svg version="1.1" id="Isolation_Mode" xmlns="http://www.w3.org/2000/svg" xmlns:xlink="http://www.w3.org/1999/xlink" x="0px"
	 y="0px" viewBox="0 0 328.1 28.8" style="enable-background:new 0 0 328.1 28.8;" xml:space="preserve">
<style type="text/css">
	.st0{fill:#FFFFFF;}
</style>
<g>
	<path class="st0" d="M11.2,4.3c-0.7,0-1.4,0-2.2,0.1C8.2,4.4,7.4,4.5,6.7,4.7C5.5,4.9,4.4,5.2,3.3,5.5C2.3,5.8,1.3,6.1,0.4,6.4
		c0.8-2.9,2.2-4.6,4.2-5.4C6.6,0.4,9.4,0,12.8,0c2.2,0,4.3,0.4,6.1,1.3s2.7,2.8,2.7,5.9c0,0.5-0.1,1.1-0.3,1.7
		c-0.2,0.6-0.5,1.2-0.9,1.9c-1,1.6-2.5,3.1-4.6,4.4c-2.1,1.4-4.5,2-7.2,2c-0.2,0-0.5,0-0.9,0c-0.4,0-0.7,0-1.1-0.1
		c-0.1,0-0.3,0-0.4,0c-0.1,0-0.3,0-0.4,0c-0.2,0-0.4,0-0.6-0.1c-0.2,0-0.4,0-0.5-0.1l-1,1.6c-0.1,0.1-0.1,0.2-0.1,0.3
		c0,0.1-0.1,0.3-0.1,0.4c0,0.1,0,0.2,0,0.3s0.1,0.2,0.2,0.4c-0.1,0.1-0.2,0.3-0.2,0.4c-0.1,0.1-0.1,0.2-0.2,0.3v0
		c-0.1,0.1-0.1,0.2-0.2,0.3C3,20.9,3,21.1,2.9,21.3c-0.6,0.9-1,1.6-1.3,1.8S1.1,23.6,1,23.6c0,0,0,0-0.1,0c0,0,0,0-0.1,0s0,0-0.1,0
		s0,0-0.1,0c0,0-0.1,0-0.1,0c-0.1,0-0.2-0.1-0.3-0.2c-0.1-0.1-0.2-0.2-0.2-0.4c0,0,0-0.1,0-0.1s0-0.1,0-0.1c0-0.1,0-0.1,0-0.2
		s0-0.1,0-0.1c0,0,0-0.1,0-0.1s0-0.1,0-0.1c0-0.1,0-0.1,0-0.2s0-0.1,0-0.1c0.1-0.2,0.2-0.6,0.5-1.1c0.3-0.5,0.6-1.1,0.9-1.6
		c0-0.1,0.1-0.1,0.1-0.2c0-0.1,0.1-0.1,0.1-0.2c0.3-0.5,0.7-1,1-1.5s0.5-0.8,0.6-0.9c-0.1,0-0.1,0-0.2-0.1c-0.1,0-0.1,0-0.2-0.1
		c-0.4-0.2-0.8-0.4-1.2-0.7c-0.4-0.3-0.5-0.7-0.5-1c0-0.2,0-0.4,0.1-0.6c0-0.2,0.1-0.4,0.3-0.6c0.3-0.4,0.8-0.7,1.5-1.1
		s1.8-0.6,3.2-0.9L11.2,4.3z M8.4,11.1c0,0,0.1,0,0.2,0c0.1,0,0.2,0,0.3,0c0.1,0,0.2,0,0.3,0c0.1,0,0.2,0,0.2,0c0,0,0.1,0,0.1,0
		c0,0,0.1,0,0.1,0c0.1,0,0.2,0,0.2,0s0.1,0,0.2,0h0c0,0,0.1,0,0.1,0c0,0,0.1,0,0.1,0c0.2,0,0.3,0,0.4,0.1c0.1,0,0.1,0.1,0.1,0.1
		c0,0,0,0.1,0,0.1c0,0,0,0,0,0.1v0c0,0.1-0.1,0.2-0.3,0.2c-0.2,0-0.4,0.1-0.7,0.1c-0.1,0-0.2,0-0.3,0s-0.2,0-0.3,0
		c-0.4,0-0.8,0.1-1.1,0.3c-0.3,0.1-0.5,0.4-0.5,0.8c0,0.2,0.1,0.3,0.3,0.4c0.2,0.1,0.4,0.2,0.7,0.3c0.1,0,0.3,0.1,0.4,0.1
		c0.1,0,0.2,0,0.3,0c0.1,0,0.2,0,0.3,0c0.1,0,0.2,0,0.3,0c2.4-0.1,4.6-0.8,6.6-2c2-1.2,3-2.7,3-4.4c0-1-0.4-1.7-1.2-2.1
		s-1.7-0.7-2.6-0.8c-0.3,0-0.6-0.1-1-0.1c-0.3,0-0.6,0-0.9,0c-0.1,0-0.2,0-0.2,0c-0.1,0-0.1,0-0.2,0c-0.1,0-0.1,0-0.2,0
		s-0.1,0-0.2,0L8.4,11.1z"/>
	<path class="st0" d="M22.8,17.6c0,0,0,0.1,0,0.1c0,0.1,0,0.2,0,0.3c0,0.1,0,0.3,0.1,0.4c0.1,0.3,0.2,0.7,0.5,0.9s0.6,0.4,1.2,0.4
		c0.2,0,0.3,0,0.5-0.1c0.2,0,0.4-0.1,0.6-0.2c0.2-0.1,0.3-0.1,0.5-0.2c0.1-0.1,0.3-0.1,0.4-0.2c0.2-0.1,0.4-0.2,0.6-0.3
		c0.2-0.1,0.3-0.2,0.4-0.3c0.7-0.5,1.2-0.8,1.4-1c0.2-0.2,0.3-0.3,0.4-0.3c0,0,0,0,0.1,0c0,0,0,0,0.1,0c0.1,0,0.1,0,0.1,0.1
		c0,0.1,0,0.2,0,0.3c0,0.1-0.1,0.2-0.2,0.4c-0.1,0.2-0.4,0.5-0.8,0.9c-0.2,0.2-0.4,0.4-0.7,0.7c-0.3,0.3-0.7,0.6-1,0.9
		c-0.4,0.3-0.8,0.6-1.2,0.9c-0.4,0.3-0.9,0.5-1.3,0.7c-0.2,0.1-0.4,0.2-0.7,0.2c-0.2,0-0.5,0.1-0.7,0.1c-0.7,0-1.4-0.3-2-0.9
		s-0.9-1.4-0.9-2.6c0-0.4,0.1-0.9,0.2-1.4c0.1-0.5,0.3-1,0.5-1.5c0.6-1.3,1.4-2.4,2.5-3.6c1.1-1.1,2.2-1.8,3.4-2.2
		c0.2,0,0.4-0.1,0.6-0.1c0.2,0,0.4,0,0.6,0c0.5,0,0.9,0.1,1.2,0.3c0.3,0.2,0.4,0.4,0.5,0.6c0,0.1,0.1,0.2,0.1,0.3c0,0.1,0,0.2,0,0.3
		c0,0.3-0.1,0.6-0.3,1c-0.2,0.4-0.4,0.7-0.7,1.1c-0.5,0.7-1.2,1.3-2,1.9s-1.7,1-2.6,1.4c-0.2,0.1-0.4,0.1-0.6,0.2
		c-0.2,0.1-0.4,0.1-0.6,0.1C22.8,17.5,22.8,17.5,22.8,17.6z M23.6,16c0.3-0.1,0.6-0.3,0.9-0.5c0.4-0.2,0.7-0.5,1.1-0.7
		c0.3-0.3,0.6-0.5,0.9-0.8c0.2-0.2,0.4-0.5,0.5-0.7c0.1-0.2,0.2-0.5,0.2-0.7c0-0.2,0-0.4-0.1-0.6c-0.1-0.1-0.2-0.2-0.5-0.2
		c-0.1,0-0.3,0-0.4,0.1c-0.1,0.1-0.3,0.1-0.4,0.2c-0.4,0.2-0.8,0.6-1.2,1.1s-0.7,1-1,1.6c-0.1,0.3-0.3,0.5-0.4,0.8s-0.2,0.5-0.3,0.7
		C23,16.3,23.3,16.2,23.6,16z"/>
	<path class="st0" d="M30,16.5c0.2-0.5,0.5-1,0.8-1.5c0.6-0.9,1.4-1.8,2.4-2.6c1-0.8,2-1.4,3-1.8c0.3-0.1,0.5-0.1,0.8-0.2
		c0.3,0,0.5-0.1,0.8-0.1c0.1,0,0.1,0,0.2,0s0.1,0,0.2,0c0.2,0,0.4,0.1,0.6,0.3c0.2,0.1,0.3,0.3,0.3,0.6c0,0.2-0.1,0.5-0.2,0.8
		c-0.1,0.3-0.3,0.7-0.5,1c-0.1,0.2-0.3,0.4-0.4,0.6c-0.1,0.2-0.3,0.4-0.4,0.6c-0.3,0.3-0.5,0.6-0.8,0.9c-0.3,0.2-0.4,0.3-0.6,0.3
		c-0.1,0-0.1,0-0.2-0.1c-0.1-0.1-0.1-0.1-0.1-0.2c0,0,0-0.1,0-0.1c0,0,0-0.1,0-0.1c0,0,0-0.1,0-0.1s0-0.1-0.1-0.2
		c0-0.1-0.1-0.1-0.1-0.2c-0.1,0-0.1-0.1-0.2-0.1c0,0-0.1,0-0.1,0c0,0,0,0-0.1,0c0,0,0,0-0.1,0c0,0,0,0,0,0c0,0,0,0,0,0c0,0,0,0,0,0
		c0,0,0,0,0,0c-0.2,0-0.4,0.1-0.7,0.3s-0.5,0.4-0.8,0.6s-0.6,0.5-0.8,0.8c-0.3,0.3-0.5,0.6-0.7,0.9c-0.1,0.2-0.3,0.4-0.3,0.7
		c-0.1,0.2-0.1,0.4-0.1,0.6c0,0,0,0.1,0,0.1c0,0.1,0,0.1,0,0.1c0.1,0.4,0.3,0.7,0.7,1c0.4,0.3,1,0.5,1.8,0.5c0.5,0,1-0.1,1.4-0.2
		c0.4-0.2,0.8-0.3,1.1-0.5c0.1-0.1,0.3-0.2,0.4-0.2c0.1-0.1,0.2-0.1,0.3-0.2c0.8-0.5,1.3-0.8,1.5-1.1c0.2-0.2,0.4-0.4,0.6-0.4
		c0,0,0,0,0.1,0s0,0,0.1,0s0,0,0.1,0c0,0,0,0,0.1,0c0,0,0.1,0,0.1,0.1s0,0.1,0,0.2c0,0.1-0.1,0.3-0.4,0.7c-0.3,0.4-1,1.1-2.2,2.1
		c-0.1,0.1-0.2,0.2-0.3,0.3c-0.1,0.1-0.2,0.2-0.3,0.3c-0.5,0.4-1,0.7-1.6,1.1s-1.2,0.5-1.8,0.5c-0.8,0-1.4-0.3-1.9-0.8
		c-0.5-0.5-0.8-1.1-1.1-1.8c-0.2-0.4-0.3-0.8-0.3-1.2c-0.1-0.4-0.1-0.7-0.1-0.9C29.7,17.4,29.8,17,30,16.5z"/>
	<path class="st0" d="M44.7,15.9c0.7-0.6,1.4-1.2,2-1.7c1.6-1.3,2.7-2.1,3.2-2.4c0.6-0.3,1-0.5,1.2-0.5c0.3,0,0.6,0.1,0.7,0.2
		c0.1,0.1,0.2,0.3,0.2,0.5c0,0.1,0,0.1,0,0.2s0,0.1,0,0.2c0,0,0,0,0,0c0,0,0,0,0,0c0,0.2,0,0.3,0,0.4s-0.1,0.3-0.1,0.4
		c0,0.1-0.1,0.1-0.1,0.2c0,0.1-0.1,0.1-0.1,0.2c-0.6,1-1,1.7-1.4,2.1c-0.4,0.4-0.6,0.7-0.6,0.9c0,0,0,0,0,0.1c0,0,0,0,0,0.1
		c0,0.1,0,0.1,0.1,0.2s0.1,0.1,0.1,0.1c0,0,0,0,0,0s0,0,0,0c0.1,0,0.4-0.2,0.7-0.6c0.3-0.4,1.2-1.1,2.5-2.1c0.8-0.6,1.5-1.1,2.2-1.5
		s1.1-0.6,1.3-0.7c0,0,0,0,0.1,0c0,0,0,0,0.1,0c0.1,0,0.2-0.1,0.3-0.1c0.1,0,0.2,0,0.3,0c0.2,0,0.3,0.1,0.4,0.3
		c0.1,0.2,0.2,0.4,0.3,0.6c0.1,0.2,0.1,0.3,0.1,0.5c0,0.2,0.1,0.3,0.1,0.3c0,0.1,0,0.2-0.1,0.3c-0.1,0.1-0.2,0.2-0.2,0.3
		c0,0,0,0-0.1,0c0,0,0,0-0.1,0.1c-1,0.9-1.7,1.8-2.1,2.4c-0.4,0.7-0.6,1.2-0.6,1.6c0,0.3,0.1,0.5,0.2,0.7c0.2,0.1,0.4,0.2,0.7,0.2
		c0.2,0,0.5-0.1,0.9-0.2c0.4-0.2,1-0.6,1.7-1.3c0,0,0,0,0,0c0,0,0,0,0,0c0.1-0.1,0.1-0.1,0.2-0.2c0.1,0,0.1-0.1,0.2-0.1
		c0,0,0.1,0,0.1,0c0,0,0.1,0,0.1,0.1c0,0,0,0.1,0,0.1s0,0.1,0,0.1c-0.1,0.2-0.3,0.5-0.6,0.9c-0.3,0.4-0.7,0.7-1.2,1.1
		c-0.2,0.2-0.4,0.3-0.6,0.5c-0.2,0.2-0.4,0.3-0.7,0.5c-0.6,0.4-1.2,0.7-1.7,1c-0.5,0.3-0.9,0.4-1.2,0.4c-0.1,0-0.1,0-0.2,0
		s-0.1,0-0.1,0c-0.3-0.1-0.5-0.2-0.8-0.4c-0.2-0.2-0.3-0.5-0.3-0.8c0-0.3,0-0.6,0.1-1c0.1-0.4,0.3-1,0.6-1.7
		c0.1-0.3,0.3-0.5,0.3-0.7c0.1-0.2,0.2-0.3,0.3-0.5l0-0.1c0,0,0,0,0,0c0,0,0,0,0,0c0.2-0.2,0.3-0.4,0.3-0.6c0-0.1,0.1-0.3,0.1-0.3
		c0-0.1,0-0.1-0.1-0.1c0,0-0.1,0-0.2-0.1c0,0,0,0-0.1,0c-0.1,0-0.3,0.1-0.6,0.3c-0.3,0.2-0.6,0.5-1,0.7c0,0-0.1,0-0.1,0.1
		c0,0-0.1,0.1-0.1,0.1c-0.3,0.3-0.6,0.5-0.8,0.7c-0.3,0.2-0.4,0.4-0.5,0.5c-1,0.9-1.7,1.6-2.3,2.2c-0.6,0.6-1.1,0.9-1.5,0.9
		c0,0-0.1,0-0.1,0c0,0-0.1,0-0.2-0.1c-0.1-0.1-0.2-0.2-0.3-0.3s-0.1-0.4-0.1-0.6c0-0.1,0-0.3,0.1-0.4c0-0.1,0.1-0.3,0.1-0.5
		c0-0.1,0.1-0.2,0.1-0.3c0-0.1,0.1-0.2,0.2-0.3c0.1-0.2,0.2-0.3,0.2-0.4c0.1-0.1,0.1-0.2,0.2-0.3c0.4-0.7,0.8-1.2,1-1.5
		c0.2-0.3,0.4-0.6,0.4-0.8c0,0,0,0,0-0.1c0,0,0-0.1,0-0.1c0-0.1-0.1-0.1-0.2-0.2c-0.1-0.1-0.2-0.1-0.4-0.1c-0.5,0-1,0.2-1.5,0.7
		c-0.6,0.5-1.2,1.1-2,1.9c-0.1,0.1-0.1,0.1-0.1,0.2c0,0-0.1,0.1-0.2,0.1c-0.6,0.6-1,1.2-1.3,1.8c-0.3,0.6-0.6,0.9-0.9,1.1
		c0,0-0.1,0-0.1,0.1c-0.1,0-0.1,0-0.2,0c-0.1,0-0.1,0-0.2,0c-0.1,0-0.2-0.1-0.3-0.1c-0.2-0.1-0.3-0.4-0.5-0.8
		c-0.1-0.4-0.2-1-0.2-1.8c0-0.6,0-1,0.1-1.4c0.1-0.4,0.2-0.7,0.3-1c0.1-0.3,0.3-0.5,0.5-0.8c0.2-0.3,0.5-0.7,0.8-1.1
		c0.2-0.2,0.3-0.4,0.5-0.6s0.3-0.4,0.5-0.5c0.3-0.4,0.6-0.6,1-0.8c0.3-0.2,0.8-0.3,1.2-0.3c0.2,0,0.3,0,0.5,0.1
		c0.1,0.1,0.2,0.2,0.2,0.3c0,0,0,0,0,0.1c0,0,0,0.1,0,0.1c0,0,0,0.1,0,0.1c0,0.1,0,0.1-0.1,0.2c0,0.1-0.1,0.1-0.1,0.2
		c-0.1,0.1-0.1,0.1-0.2,0.2c0,0.1-0.1,0.1-0.1,0.1c0,0-0.1,0.1-0.1,0.1c-0.1,0.1-0.3,0.3-0.6,0.6c-0.3,0.3-0.6,0.7-0.9,1
		c0,0.1-0.1,0.1-0.1,0.2s-0.1,0.1-0.1,0.1c-0.3,0.4-0.6,0.8-0.9,1.1C42.1,17,42,17.3,42,17.4c0,0,0,0.1,0,0.2c0,0.1,0,0.2,0,0.2
		c0,0,0,0,0,0.1c0,0,0,0.1,0,0.1c0,0.1,0,0.1,0,0.2c0,0.1,0,0.1,0,0.1C43.1,17.3,43.9,16.6,44.7,15.9z M48,10.5
		c0-0.2-0.1-0.4-0.1-0.8c0-0.7,0.5-1.3,1.4-1.9s2-1.1,3.2-1.4c0.8-0.3,1.6-0.5,2.4-0.6c0.8-0.1,1.4-0.2,1.8-0.2
		c0.5,0,0.9,0.1,1.2,0.2c0.3,0.2,0.4,0.3,0.5,0.5c0,0.1,0.1,0.1,0.1,0.2c0,0,0,0.1,0,0.2c0,0,0,0,0,0.1c0,0,0,0.1,0,0.1l-0.9,1.4
		c0,0,0,0-0.1,0s-0.1,0-0.1,0c-0.3-0.1-0.7-0.2-1-0.3c-0.4,0-0.8,0-1.3,0c-0.4,0-0.9,0.1-1.5,0.2c-0.6,0.1-1.1,0.3-1.7,0.5
		c-0.7,0.3-1.4,0.6-2.1,1c-0.7,0.4-1.2,0.9-1.6,1.5C48.1,10.8,48,10.7,48,10.5z"/>
	<path class="st0" d="M68.9,12.6c0.1,0.2,0.2,0.4,0.3,0.6c0,0.1,0,0.2,0,0.3c0,0.1,0,0.2,0,0.3c0,0.2,0,0.4,0,0.5
		c0,0.2-0.1,0.3-0.1,0.5c-0.1,0.4-0.2,0.9-0.4,1.3s-0.4,0.8-0.6,1.1c0,0,0,0.1-0.1,0.1c0,0.1-0.1,0.1-0.1,0.1s0,0.1-0.1,0.1
		c0,0,0,0.1,0,0.1c0,0.1,0.1,0.3,0.2,0.4c0.1,0.1,0.3,0.2,0.5,0.2c0.2,0,0.3,0,0.4-0.1c0.1-0.1,0.2-0.1,0.3-0.2
		c0.1-0.1,0.2-0.1,0.3-0.2c0.1-0.1,0.1-0.1,0.2-0.1c0.1,0,0.2,0,0.3,0.1s0.1,0.1,0.1,0.2c0,0.1-0.1,0.2-0.2,0.3
		c-0.1,0.1-0.3,0.3-0.5,0.5c-0.3,0.2-0.7,0.5-1.2,0.7c-0.5,0.2-1,0.3-1.5,0.3c0,0-0.1,0-0.1,0c-0.1,0-0.1,0-0.1,0
		c-0.7,0.8-1.4,1.4-2,1.7c-0.7,0.3-1.3,0.5-1.9,0.5c-0.9,0-1.5-0.3-2-0.9c-0.5-0.6-0.9-1.3-1-2c-0.1-0.2-0.1-0.5-0.1-0.7
		c0-0.2,0-0.5,0-0.7c0-0.1,0-0.2,0-0.3c0-0.1,0-0.2,0-0.3c0.2-1,0.7-2,1.5-2.9c0.8-0.9,1.7-1.7,2.7-2.3c0.6-0.4,1.2-0.6,1.7-0.9
		c0.6-0.2,1-0.3,1.4-0.3c0,0,0,0,0,0c0,0,0,0,0,0c0.3,0,0.5,0.1,0.8,0.2c0.3,0.1,0.4,0.2,0.6,0.4c0.1,0,0.1,0.1,0.1,0.2
		c0,0.1,0,0.1,0,0.1c0,0,0,0,0,0.1s0,0.1,0,0.1c0,0.1,0,0.1,0,0.2s0,0.1,0,0.1c0,0,0,0,0,0.1c0,0,0,0,0,0.1c0,0,0,0,0,0.1
		c0,0,0,0,0,0.1c0,0,0,0,0,0.1C68.6,12.3,68.8,12.4,68.9,12.6z M65.3,18.1c0-0.2-0.1-0.4-0.1-0.6c0-0.3,0-0.5,0.1-0.8
		c0.1-0.3,0.1-0.5,0.2-0.8c0.3-0.9,0.6-1.4,0.7-1.7c0.2-0.3,0.2-0.5,0.2-0.6c0-0.1,0-0.1-0.1-0.2s-0.1-0.1-0.2-0.1c0,0,0,0-0.1,0
		c0,0-0.1,0-0.1,0c-0.1,0-0.3,0.1-0.6,0.2c-0.3,0.1-0.5,0.3-0.8,0.5c-0.1,0.1-0.2,0.1-0.3,0.2c-0.1,0.1-0.2,0.1-0.3,0.2
		c-0.2,0.1-0.3,0.3-0.5,0.4c-0.1,0.1-0.3,0.2-0.4,0.3c-0.1,0.1-0.2,0.2-0.2,0.3c-0.1,0.1-0.2,0.2-0.2,0.3c-0.4,0.4-0.7,0.9-1,1.4
		c-0.3,0.5-0.4,1.1-0.4,1.7c0,0.4,0.1,0.7,0.3,0.9c0.2,0.2,0.4,0.3,0.6,0.3c0.1,0,0.2,0,0.4,0c0.1,0,0.2,0,0.3,0
		c0.5,0,0.9-0.1,1.3-0.3c0.4-0.2,0.8-0.5,1.1-0.8c0,0,0.1,0,0.1-0.1c0,0,0.1-0.1,0.1-0.1C65.4,18.6,65.3,18.4,65.3,18.1z"/>
	<path class="st0" d="M70.7,17.4c-0.2,0.2-0.3,0.3-0.4,0.4s-0.1,0.1-0.2,0.1c0,0,0,0-0.1,0c0,0-0.1,0-0.1,0c0,0-0.1,0-0.1-0.1
		s0-0.1,0-0.1c0,0,0-0.1,0-0.1c0-0.1,0.2-0.4,0.6-0.8c0.4-0.4,1.6-1.7,3.7-3.7c1.4-1.3,2.3-2.4,2.9-3.3c0.6-0.9,1-1.5,1.4-1.9
		c0.2-0.2,0.4-0.4,0.6-0.5c0.2-0.1,0.5-0.2,0.8-0.2c0.1,0,0.1,0,0.2,0c0.1,0,0.1,0,0.2,0c0.1,0,0.3,0.1,0.4,0.2
		c0.1,0.1,0.2,0.2,0.2,0.2c0,0,0,0,0,0c0,0,0,0-0.1,0c-1.5,2-2.6,3.4-3.2,4.3s-0.9,1.4-1,1.6c0,0,0,0.1-0.1,0.1
		c0,0.1-0.1,0.1-0.1,0.1c-0.1,0.1-0.2,0.3-0.3,0.5c-0.1,0.2-0.3,0.4-0.5,0.8c0.2-0.2,0.5-0.4,0.8-0.7c0.3-0.3,0.7-0.6,1.1-0.9
		c0.2-0.1,0.4-0.3,0.5-0.4c0.2-0.1,0.4-0.3,0.5-0.4c0.5-0.4,1.1-0.7,1.6-0.9s0.9-0.4,1.2-0.4c0,0,0.1,0,0.1,0s0.1,0,0.1,0
		c0.3,0.1,0.6,0.2,0.9,0.4c0.3,0.2,0.4,0.6,0.4,1.2c0,0.3,0,0.6-0.1,0.9s-0.2,0.6-0.3,0.9c-0.3,0.6-0.7,1.1-1.1,1.6
		c-0.5,0.5-0.9,1-1.4,1.5c-0.4,0.3-0.7,0.6-1,0.9s-0.6,0.5-0.9,0.7c0.3,0.1,0.6,0.2,0.9,0.3c0.3,0.1,0.7,0.1,1,0.1
		c0.6,0,1.1-0.1,1.5-0.3s0.8-0.4,1.2-0.7c0.2-0.2,0.4-0.3,0.6-0.5c0.2-0.2,0.3-0.3,0.3-0.4c0,0,0,0,0.1-0.1c0,0,0,0,0.1-0.1
		c0,0,0.1-0.1,0.1-0.1c0,0,0.1-0.1,0.2-0.1c0,0,0,0,0.1,0c0.1,0,0.1,0,0.2,0.1c0,0,0.1,0.1,0.1,0.1c0,0.1-0.1,0.2-0.2,0.4
		c-0.1,0.2-0.5,0.6-1.1,1.2c-0.5,0.5-1.1,0.9-1.7,1.2c-0.6,0.4-1.3,0.6-1.9,0.9c-0.6,0.2-1.2,0.4-1.8,0.5c-0.6,0.1-1.2,0.2-1.6,0.2
		c-0.3,0-0.7,0-1-0.1c-0.4-0.1-0.7-0.2-1.1-0.4c-0.2-0.1-0.4-0.2-0.6-0.3c-0.2-0.1-0.4-0.2-0.5-0.3c-1.1,2.3-1.8,3.9-2.2,4.9
		c-0.4,1-0.7,1.7-1,2c-0.1,0.1-0.2,0.2-0.3,0.2c-0.1,0-0.2,0.1-0.3,0.1c-0.2,0-0.4-0.1-0.5-0.4c-0.1-0.2-0.2-0.5-0.2-0.8
		c0,0,0,0,0-0.1c0,0,0-0.1,0-0.1c0-0.1,0-0.3,0.1-0.7s0.2-0.8,0.3-1.2c0,0,0-0.1,0-0.1c0,0,0,0,0-0.1c0.1-0.4,0.2-0.8,0.3-1.1
		s0.1-0.6,0.2-0.7c0.3-0.6,0.7-1.2,1.2-1.8c0.5-0.6,1-1.1,1.6-1.6l3.5-6.5L70.7,17.4z M74.5,18.7c0.2,0,0.4-0.1,0.6-0.1
		c0.2,0,0.4,0,0.6,0.1c0.2,0,0.4,0.1,0.5,0.2c0.1,0,0.2,0.1,0.3,0.1c0.1,0,0.1,0.1,0.2,0.1c0.3-0.2,0.6-0.5,0.9-0.7
		c0.3-0.3,0.6-0.5,0.8-0.8c0.4-0.4,0.7-0.9,1-1.3s0.4-0.7,0.5-1c0,0,0-0.1,0-0.1s0-0.1,0-0.1c0,0,0-0.1,0-0.1s0-0.1,0-0.1
		c0-0.1-0.1-0.2-0.3-0.3c-0.1-0.1-0.3-0.2-0.5-0.2c-0.4,0-0.8,0.2-1.4,0.6s-1.1,0.9-1.7,1.5c-0.3,0.3-0.6,0.6-0.8,0.9
		c-0.3,0.3-0.5,0.6-0.8,0.9c-0.1,0.1-0.2,0.2-0.3,0.4c-0.1,0.1-0.2,0.2-0.3,0.4C74.1,18.8,74.3,18.8,74.5,18.7z"/>
	<path class="st0" d="M95.5,12.5c0.1,0.2,0.2,0.4,0.2,0.6c0,0.1,0,0.1,0,0.2c0,0.1,0,0.1,0,0.2c0,0.1-0.1,0.3-0.2,0.6
		c-0.2,0.3-0.5,0.8-0.9,1.4c-0.3,0.5-0.6,0.9-0.8,1.3c-0.2,0.4-0.4,0.8-0.4,1.1c0,0,0,0,0,0.1s0,0.1,0,0.1c0,0.3,0.1,0.6,0.2,0.8
		c0.1,0.2,0.3,0.3,0.5,0.3c0.1,0,0.1,0,0.2,0c0.1,0,0.1,0,0.2,0c0.2,0,0.5-0.1,0.7-0.2c0.3-0.1,0.5-0.2,0.8-0.4c0,0,0.1-0.1,0.1-0.1
		c0,0,0.1-0.1,0.2-0.1c0.1,0,0.2-0.1,0.2-0.1c0.1,0,0.1-0.1,0.2-0.1c0.3-0.2,0.5-0.3,0.6-0.4c0.1-0.1,0.2-0.2,0.3-0.2c0,0,0,0,0,0
		c0,0,0,0,0,0c0,0,0.1,0,0.1,0.1c0,0,0,0.1,0,0.1c0,0.1-0.1,0.3-0.4,0.6c-0.3,0.3-0.8,0.8-1.5,1.5c-0.1,0.1-0.3,0.3-0.4,0.4
		c-0.1,0.1-0.3,0.3-0.5,0.4c-0.3,0.3-0.7,0.6-1.1,0.9c-0.4,0.3-0.8,0.5-1.2,0.6c-0.1,0-0.2,0.1-0.3,0.1c-0.1,0-0.2,0-0.3,0
		c0,0-0.1,0-0.1,0s-0.1,0-0.1,0c-0.3,0-0.7-0.2-0.9-0.4s-0.4-0.6-0.4-1.1c0-0.3,0-0.7,0.1-1c0.1-0.3,0.2-0.6,0.3-0.9
		c0.1-0.2,0.1-0.4,0.2-0.5c0.1-0.1,0.1-0.2,0.1-0.3c0,0,0-0.1,0.1-0.1c0,0,0,0,0-0.1c0,0,0,0,0,0c0,0,0,0,0,0
		c0.1-0.1,0.1-0.2,0.2-0.3c0.1-0.1,0.1-0.3,0.2-0.5c-1.9,2-3.4,3.3-4.2,3.9c-0.9,0.6-1.5,0.9-1.9,0.9c-0.4,0-0.7-0.2-1-0.7
		c-0.3-0.5-0.5-1-0.6-1.5c-0.1-0.3-0.1-0.5-0.1-0.8s0-0.5,0-0.7c0-0.8,0.2-1.5,0.7-2.2c0.5-0.7,1-1.3,1.5-1.8
		c0.4-0.4,0.7-0.7,1.1-0.9c0.3-0.3,0.6-0.5,0.8-0.6s0.4-0.3,0.7-0.5c0.3-0.2,0.6-0.3,0.9-0.5c0.3-0.1,0.5-0.3,0.8-0.4
		c0.3-0.1,0.6-0.3,0.8-0.4c0.6-0.3,1.1-0.5,1.6-0.6c0.5-0.2,1-0.2,1.3-0.2c0.3,0,0.6,0.1,0.9,0.3c0.3,0.2,0.4,0.4,0.5,0.6
		c0,0,0,0.1,0,0.1c0,0,0,0.1,0,0.1c0,0.1,0,0.2-0.1,0.3c-0.1,0.1-0.1,0.2-0.2,0.3c0,0-0.1,0.1-0.1,0.1c0,0-0.1,0.1-0.1,0.1
		c0,0,0,0,0,0s0,0,0,0l0,0c0,0-0.1,0-0.1,0.1c0,0-0.1,0.1-0.1,0.1C95.3,12.1,95.4,12.3,95.5,12.5z M85.9,18.3
		C85.9,18.3,85.9,18.3,85.9,18.3c0,0.2,0.1,0.4,0.2,0.5c0.1,0.1,0.1,0.2,0.2,0.3c0,0,0.1,0,0.1,0s0.1,0,0.1,0c0,0,0.1,0,0.1,0
		c0,0,0.1,0,0.1,0c0.2-0.1,0.6-0.2,1.2-0.5c0.5-0.3,1.2-0.8,2.1-1.5c0.1-0.1,0.3-0.3,0.6-0.5c0.3-0.2,0.6-0.5,0.9-0.9
		c0.1-0.1,0.2-0.2,0.3-0.3s0.2-0.2,0.3-0.3c0.3-0.3,0.5-0.6,0.7-0.9c0.2-0.3,0.3-0.5,0.3-0.7c0-0.1,0-0.2-0.1-0.3
		c-0.1,0-0.2-0.1-0.2-0.1c-0.1,0-0.1,0-0.2,0s-0.1,0-0.1,0c-0.3,0-0.5,0-0.8,0.1s-0.6,0.1-0.9,0.2c-0.9,0.3-1.7,0.7-2.5,1.4
		c-0.8,0.6-1.4,1.3-1.8,1.9c-0.2,0.3-0.3,0.5-0.4,0.8C85.9,17.7,85.9,17.9,85.9,18.3C85.9,18.2,85.9,18.2,85.9,18.3z"/>
	<path class="st0" d="M104.2,11.3c-0.2,0.2-0.4,0.3-0.6,0.5s-0.3,0.3-0.5,0.4c0,0,0,0-0.1,0c0,0,0,0-0.1,0.1
		c-0.1,0.1-0.2,0.1-0.2,0.2c-0.1,0.1-0.2,0.1-0.3,0.2c-0.1,0.1-0.2,0.2-0.5,0.3c-0.3,0.2-0.5,0.3-0.8,0.5c0,0,0,0-0.1,0
		c0,0-0.1,0-0.1,0c-0.3,0.2-0.6,0.4-0.9,0.5c-0.3,0.2-0.5,0.3-0.6,0.3c0,0,0,0-0.1,0s0,0-0.1,0c0,0,0,0-0.1,0l0,0c0,0,0,0,0,0
		c0,0,0,0,0,0c0,0,0,0,0-0.1c0,0,0,0,0-0.1c0.1-0.2,0.4-0.5,1-0.9c0.6-0.4,1.7-1.4,3.3-2.9c0.1-0.1,0.2-0.2,0.3-0.3
		c0.1-0.1,0.3-0.3,0.4-0.4c0.2-0.2,0.4-0.4,0.6-0.5c0.2-0.2,0.3-0.3,0.3-0.3c0.2-0.2,0.3-0.4,0.4-0.5c0.1-0.1,0.2-0.2,0.2-0.3
		c0.1-0.1,0.2-0.1,0.2-0.1c0.1,0,0.2,0,0.4,0c0.4,0,0.6,0,0.8,0.1c0.1,0.1,0.2,0.2,0.3,0.3c0,0,0,0.1,0,0.1s0,0.1,0,0.1v0
		c0,0.1,0,0.2,0,0.3c0,0.1,0,0.1-0.1,0.2c-0.1,0.3-0.4,0.7-0.9,1.3c-0.5,0.6-1.2,2-2.3,4.3c0.3-0.1,0.6-0.1,0.9-0.1
		c0.3,0,0.5,0,0.7,0c0.2,0,0.5,0,0.7,0c0.2,0,0.4,0,0.5,0.1c0.1-0.2,0.3-0.5,0.5-0.8c0.2-0.3,0.4-0.6,0.6-0.9
		c0.1-0.2,0.3-0.4,0.4-0.6c0.1-0.2,0.3-0.4,0.4-0.5c0.3-0.4,0.6-0.7,0.8-0.9c0.3-0.2,0.5-0.4,0.7-0.4c0.2,0,0.3,0.1,0.4,0.3
		s0.1,0.4,0.2,0.7c0,0.1,0,0.2,0,0.3c0,0.1,0,0.2,0,0.3c0,0.3,0,0.5,0,0.6c0,0.1-0.1,0.3-0.2,0.4c-0.1,0-0.1,0.1-0.2,0.1
		c-0.1,0.1-0.1,0.1-0.2,0.2c-0.1,0.1-0.3,0.3-0.4,0.4s-0.3,0.3-0.4,0.5c-0.2,0.2-0.4,0.4-0.5,0.6s-0.3,0.5-0.5,0.7
		c-0.2,0.3-0.4,0.6-0.6,1c-0.2,0.3-0.2,0.6-0.3,0.8c0,0,0,0.1,0,0.1s0,0.1,0,0.1c0,0,0,0,0,0.1c0,0,0,0,0,0c0,0,0,0,0,0.1s0,0,0,0.1
		c0.1,0.3,0.2,0.5,0.3,0.6c0.2,0.1,0.4,0.1,0.6,0.1c0.1,0,0.2,0,0.2,0c0.1,0,0.2,0,0.2,0c0.2,0,0.4-0.1,0.7-0.2
		c0.2-0.1,0.4-0.2,0.6-0.3c0.1-0.1,0.2-0.1,0.3-0.2c0.1-0.1,0.1-0.1,0.2-0.2c0,0,0.1-0.1,0.2-0.1c0.1-0.1,0.2-0.2,0.3-0.2
		c0,0,0,0,0.1-0.1c0.1-0.1,0.2-0.2,0.3-0.2c0.1-0.1,0.2-0.1,0.2-0.1c0.1,0,0.1,0,0.2,0.1c0,0.1,0.1,0.1,0.1,0.2v0v0
		c0,0.2-0.2,0.4-0.6,0.9c-0.4,0.4-0.8,0.9-1.4,1.4c-0.2,0.2-0.4,0.4-0.7,0.6c-0.2,0.2-0.5,0.4-0.7,0.6c-0.5,0.3-1,0.6-1.4,0.9
		s-0.8,0.3-1.2,0.3c-0.4,0-0.7-0.1-1-0.3c-0.2-0.2-0.4-0.4-0.5-0.6c0-0.1,0-0.2,0-0.2c0-0.1,0-0.2,0-0.2c0-0.3,0.1-0.7,0.2-1.4
		c0.2-0.6,0.7-1.8,1.5-3.3c-0.1,0-0.2,0-0.2,0s-0.2,0-0.3,0c-0.2,0-0.4,0-0.6,0c-0.2,0-0.4,0.1-0.6,0.1c-0.3,0.1-0.6,0.2-0.9,0.3
		s-0.6,0.3-0.8,0.4c-0.1,0.1-0.1,0.2-0.2,0.3c-0.1,0.1-0.1,0.2-0.2,0.3c0,0,0,0,0,0c-0.1,0.2-0.2,0.4-0.3,0.5
		c-0.1,0.2-0.2,0.4-0.3,0.6c-0.7,1.4-1.4,2.5-2,3.4c-0.6,0.9-1.2,1.4-1.6,1.4c-0.2,0-0.3-0.1-0.4-0.2c-0.1-0.1-0.2-0.3-0.2-0.4
		c0-0.1,0-0.2,0-0.2c0-0.1,0-0.1,0-0.2c0-0.3,0-0.6,0.1-0.9c0.1-0.3,0.2-0.7,0.3-1c0.3-0.7,0.6-1.3,1.1-2c0.4-0.6,0.9-1.2,1.3-1.7
		c0.2-0.2,0.4-0.4,0.6-0.6c0.2-0.2,0.4-0.3,0.6-0.5L104.2,11.3z"/>
	<path class="st0" d="M125.5,17.6c0,0,0,0.1,0,0.1c0,0.1,0,0.2,0,0.3c0,0.1,0,0.3,0.1,0.4c0.1,0.3,0.2,0.7,0.5,0.9s0.6,0.4,1.2,0.4
		c0.2,0,0.3,0,0.5-0.1c0.2,0,0.4-0.1,0.6-0.2c0.2-0.1,0.3-0.1,0.5-0.2c0.2-0.1,0.3-0.1,0.4-0.2c0.2-0.1,0.4-0.2,0.6-0.3
		c0.2-0.1,0.3-0.2,0.4-0.3c0.7-0.5,1.2-0.8,1.4-1c0.2-0.2,0.3-0.3,0.4-0.3c0,0,0,0,0.1,0c0,0,0,0,0.1,0c0.1,0,0.1,0,0.1,0.1
		c0,0.1,0,0.2,0,0.3c0,0.1-0.1,0.2-0.2,0.4s-0.4,0.5-0.8,0.9c-0.2,0.2-0.4,0.4-0.7,0.7c-0.3,0.3-0.7,0.6-1,0.9
		c-0.4,0.3-0.8,0.6-1.2,0.9c-0.4,0.3-0.9,0.5-1.3,0.7c-0.2,0.1-0.5,0.2-0.7,0.2c-0.2,0-0.5,0.1-0.7,0.1c-0.7,0-1.4-0.3-2-0.9
		s-0.9-1.4-0.9-2.6c0-0.4,0.1-0.9,0.2-1.4c0.1-0.5,0.3-1,0.5-1.5c0.6-1.3,1.4-2.4,2.5-3.6c1.1-1.1,2.2-1.8,3.4-2.2
		c0.2,0,0.4-0.1,0.6-0.1c0.2,0,0.4,0,0.6,0c0.5,0,0.9,0.1,1.2,0.3c0.3,0.2,0.4,0.4,0.5,0.6c0,0.1,0.1,0.2,0.1,0.3c0,0.1,0,0.2,0,0.3
		c0,0.3-0.1,0.6-0.3,1c-0.2,0.4-0.4,0.7-0.7,1.1c-0.5,0.7-1.2,1.3-2,1.9c-0.8,0.6-1.7,1-2.6,1.4c-0.2,0.1-0.4,0.1-0.6,0.2
		c-0.2,0.1-0.4,0.1-0.6,0.1C125.5,17.5,125.5,17.5,125.5,17.6z M126.3,16c0.3-0.1,0.6-0.3,0.9-0.5c0.4-0.2,0.7-0.5,1-0.7
		c0.3-0.3,0.6-0.5,0.9-0.8c0.2-0.2,0.4-0.5,0.5-0.7s0.2-0.5,0.2-0.7c0-0.2,0-0.4-0.1-0.6c-0.1-0.1-0.2-0.2-0.5-0.2
		c-0.1,0-0.3,0-0.4,0.1c-0.1,0.1-0.3,0.1-0.4,0.2c-0.4,0.2-0.8,0.6-1.2,1.1c-0.4,0.5-0.7,1-1,1.6c-0.1,0.3-0.3,0.5-0.4,0.8
		s-0.2,0.5-0.3,0.7C125.7,16.3,126,16.2,126.3,16z"/>
	<path class="st0" d="M144.3,18.3c-0.3,0.2-0.5,0.3-0.9,0.5c-0.3,0.2-0.6,0.3-1,0.3c-0.1,0-0.2,0-0.2,0s-0.2,0-0.2,0
		c0,0-0.1,0-0.1,0c0,0-0.1,0-0.1,0c-0.2,0-0.5-0.1-0.7-0.2c-0.2-0.1-0.4-0.2-0.6-0.3c-0.2,0.2-0.4,0.5-0.6,0.8
		c-0.3,0.3-0.5,0.6-0.8,0.9c-0.5,0.5-1,1-1.6,1.4c-0.6,0.4-1.1,0.7-1.7,0.8c-0.1,0-0.2,0-0.2,0s-0.2,0-0.2,0c-0.1,0-0.2,0-0.3,0
		c-0.1,0-0.2,0-0.3,0c-0.5-0.1-0.9-0.5-1.3-1s-0.6-1.5-0.6-2.8c0-1.9,0.4-3.6,1.1-5.2s1.5-3,2.4-4.2c0.3-0.4,0.7-0.9,1-1.2
		c0.3-0.4,0.6-0.7,0.9-1.1c0.2-0.3,0.6-0.7,1.1-1.2c0.5-0.5,1.1-1.1,1.7-1.6c0.1-0.1,0.3-0.2,0.4-0.4c0.2-0.1,0.3-0.3,0.4-0.4
		c0.7-0.6,1.4-1.2,2.1-1.7c0.7-0.5,1.2-0.7,1.5-0.7c0.2,0,0.3,0.1,0.5,0.3c0.1,0.2,0.2,0.4,0.3,0.6c0,0,0,0.1,0,0.1c0,0,0,0.1,0,0.1
		c0,0.7-0.5,1.8-1.5,3.4c-1,1.6-2.3,3.3-3.8,5.1c-0.5,0.6-1.1,1.3-1.6,1.9c-0.6,0.6-1.1,1.2-1.7,1.8c0,0-0.1,0-0.1,0.1
		c0,0-0.1,0.1-0.1,0.1c-0.2,0.2-0.4,0.4-0.5,0.6c-0.2,0.2-0.3,0.3-0.5,0.4c-0.1,0.1-0.2,0.1-0.2,0.2c-0.1,0.1-0.2,0.1-0.3,0.2
		c-0.1,0-0.1,0.1-0.2,0.1c-0.1,0-0.1,0.1-0.2,0.1c0,0.2,0,0.4-0.1,0.7c0,0.3,0,0.5,0,0.8c0,0.2,0,0.4,0,0.5c0,0.2,0,0.3,0,0.5
		c0,0.1,0,0.2,0,0.3c0,0.1,0,0.2,0.1,0.3c0.1,0.2,0.2,0.4,0.3,0.5c0.2,0.2,0.4,0.2,0.7,0.2c0.1,0,0.2,0,0.3,0c0.1,0,0.2,0,0.3-0.1
		c0.4-0.1,0.7-0.4,1-0.8c0.3-0.4,0.5-0.8,0.7-1.2c-0.1-0.2-0.2-0.3-0.3-0.5c-0.1-0.2-0.1-0.4-0.1-0.7c0-0.2,0-0.4,0.1-0.7
		c0.1-0.2,0.2-0.5,0.3-0.7c0.2-0.4,0.5-0.8,0.9-1.2c0.3-0.4,0.7-0.7,1.1-1c0.3-0.3,0.7-0.5,1-0.7s0.6-0.2,0.8-0.2
		c0.2,0,0.3,0.1,0.4,0.3c0.1,0.2,0.1,0.6,0.1,1c0,0.2,0,0.4-0.1,0.6c-0.1,0.2-0.1,0.4-0.2,0.6c0,0.1-0.1,0.2-0.1,0.3
		c0,0.1-0.1,0.2-0.1,0.3c0,0.1-0.1,0.1-0.1,0.2c0,0.1-0.1,0.1-0.1,0.2c-0.1,0.1-0.1,0.2-0.2,0.3c0,0.1-0.1,0.2-0.2,0.3
		c0,0.1,0,0.1-0.1,0.1c0,0-0.1,0.1-0.1,0.2c-0.1,0.1-0.1,0.2-0.2,0.3c-0.1,0.1-0.2,0.2-0.3,0.3c0.2,0.1,0.4,0.1,0.6,0.2
		s0.4,0.1,0.6,0.1c0.2,0,0.3,0,0.5,0c0.2,0,0.3-0.1,0.4-0.1c0.2-0.1,0.3-0.1,0.5-0.2c0.2-0.1,0.4-0.2,0.6-0.3V18.3z M137.9,12.2
		c0.9-0.9,2-2.3,3.4-4.1c0.1-0.2,0.3-0.4,0.5-0.7c0.2-0.3,0.5-0.6,0.7-1c0.1-0.1,0.1-0.1,0.1-0.2s0.1-0.1,0.2-0.2
		c0.3-0.4,0.5-0.9,0.8-1.2c0.2-0.4,0.3-0.7,0.3-0.9c0,0,0,0,0-0.1c0-0.1-0.1-0.1-0.1-0.2c-0.1-0.1-0.1-0.1-0.2-0.1
		c-0.1,0-0.3,0.1-0.5,0.2s-0.4,0.3-0.6,0.4c-0.1,0.1-0.1,0.2-0.2,0.2c-0.1,0.1-0.1,0.1-0.2,0.2c-0.1,0.1-0.2,0.2-0.3,0.3
		c-0.1,0.1-0.2,0.2-0.3,0.3c-0.2,0.2-0.6,0.7-1.2,1.3c-0.5,0.6-1.1,1.3-1.7,2.2c-0.6,0.8-1.1,1.6-1.6,2.6c-0.5,1-0.9,2-1.2,3
		C136.4,13.8,137,13.1,137.9,12.2z"/>
	<path class="st0" d="M144.2,17.4c-0.2,0.2-0.3,0.3-0.4,0.4s-0.1,0.1-0.2,0.1c0,0,0,0-0.1,0c0,0-0.1,0-0.1,0s-0.1,0-0.1-0.1
		c0,0,0-0.1,0-0.1c0,0,0-0.1,0-0.1c0-0.1,0.2-0.4,0.6-0.8c0.4-0.4,1.6-1.7,3.7-3.7c1.4-1.3,2.3-2.4,2.9-3.3c0.6-0.9,1-1.5,1.4-1.9
		c0.2-0.2,0.4-0.4,0.6-0.5c0.2-0.1,0.5-0.2,0.8-0.2c0.1,0,0.1,0,0.2,0c0.1,0,0.1,0,0.2,0c0.1,0,0.3,0.1,0.4,0.2s0.2,0.2,0.2,0.2
		c0,0,0,0,0,0c0,0,0,0-0.1,0c-1.5,2-2.6,3.4-3.1,4.3c-0.6,0.9-0.9,1.4-1,1.6c0,0,0,0.1-0.1,0.1c0,0.1-0.1,0.1-0.1,0.1
		c-0.1,0.1-0.2,0.3-0.3,0.5c-0.1,0.2-0.3,0.4-0.5,0.8c0.2-0.2,0.5-0.4,0.8-0.7c0.3-0.3,0.7-0.6,1.1-0.9c0.2-0.1,0.4-0.3,0.5-0.4
		c0.2-0.1,0.4-0.3,0.5-0.4c0.5-0.4,1.1-0.7,1.6-0.9s0.9-0.4,1.2-0.4c0,0,0.1,0,0.1,0c0,0,0.1,0,0.1,0c0.3,0.1,0.6,0.2,0.9,0.4
		c0.3,0.2,0.4,0.6,0.4,1.2c0,0.3,0,0.6-0.1,0.9s-0.2,0.6-0.3,0.9c-0.3,0.6-0.7,1.1-1.1,1.6c-0.5,0.5-0.9,1-1.4,1.5
		c-0.4,0.3-0.7,0.6-1,0.9s-0.6,0.5-0.9,0.7c0.3,0.1,0.6,0.2,0.9,0.3c0.3,0.1,0.7,0.1,1,0.1c0.6,0,1.1-0.1,1.5-0.3
		c0.5-0.2,0.8-0.4,1.2-0.7c0.2-0.2,0.4-0.3,0.6-0.5c0.2-0.2,0.3-0.3,0.3-0.4c0,0,0,0,0.1-0.1c0,0,0,0,0.1-0.1c0,0,0.1-0.1,0.1-0.1
		s0.1-0.1,0.2-0.1c0,0,0,0,0.1,0c0.1,0,0.1,0,0.2,0.1c0,0,0.1,0.1,0.1,0.1c0,0.1-0.1,0.2-0.2,0.4c-0.1,0.2-0.5,0.6-1.1,1.2
		c-0.5,0.5-1.1,0.9-1.7,1.2c-0.6,0.4-1.3,0.6-1.9,0.9c-0.6,0.2-1.2,0.4-1.8,0.5c-0.6,0.1-1.2,0.2-1.7,0.2c-0.3,0-0.7,0-1-0.1
		c-0.4-0.1-0.7-0.2-1.1-0.4c-0.2-0.1-0.4-0.2-0.6-0.3c-0.2-0.1-0.4-0.2-0.5-0.3c-1.1,2.3-1.8,3.9-2.2,4.9c-0.4,1-0.7,1.7-1,2
		c-0.1,0.1-0.2,0.2-0.3,0.2c-0.1,0-0.2,0.1-0.3,0.1c-0.2,0-0.4-0.1-0.5-0.4s-0.2-0.5-0.2-0.8c0,0,0,0,0-0.1c0,0,0-0.1,0-0.1
		c0-0.1,0-0.3,0.1-0.7c0.1-0.4,0.2-0.8,0.3-1.2c0,0,0-0.1,0-0.1c0,0,0,0,0-0.1c0.1-0.4,0.2-0.8,0.3-1.1s0.1-0.6,0.2-0.7
		c0.3-0.6,0.7-1.2,1.2-1.8s1-1.1,1.6-1.6l3.5-6.5L144.2,17.4z M148,18.7c0.2,0,0.4-0.1,0.6-0.1c0.2,0,0.4,0,0.6,0.1s0.4,0.1,0.5,0.2
		c0.1,0,0.2,0.1,0.3,0.1s0.1,0.1,0.2,0.1c0.3-0.2,0.6-0.5,0.9-0.7c0.3-0.3,0.6-0.5,0.8-0.8c0.4-0.4,0.7-0.9,1-1.3
		c0.3-0.4,0.4-0.7,0.5-1c0,0,0-0.1,0-0.1s0-0.1,0-0.1c0,0,0-0.1,0-0.1s0-0.1,0-0.1c0-0.1-0.1-0.2-0.3-0.3c-0.1-0.1-0.3-0.2-0.5-0.2
		c-0.4,0-0.8,0.2-1.4,0.6c-0.6,0.4-1.1,0.9-1.7,1.5c-0.3,0.3-0.6,0.6-0.8,0.9c-0.3,0.3-0.5,0.6-0.8,0.9c-0.1,0.1-0.2,0.2-0.3,0.4
		c-0.1,0.1-0.2,0.2-0.3,0.4C147.6,18.8,147.8,18.8,148,18.7z"/>
	<path class="st0" d="M167.2,12.6c0.1,0.2,0.2,0.4,0.3,0.6c0,0.1,0,0.2,0,0.3c0,0.1,0,0.2,0,0.3c0,0.2,0,0.4,0,0.5s-0.1,0.3-0.1,0.5
		c-0.1,0.4-0.2,0.9-0.4,1.3c-0.2,0.4-0.4,0.8-0.6,1.1c0,0,0,0.1-0.1,0.1c0,0.1-0.1,0.1-0.1,0.1c0,0,0,0.1-0.1,0.1c0,0,0,0.1,0,0.1
		c0,0.1,0.1,0.3,0.2,0.4c0.1,0.1,0.3,0.2,0.5,0.2s0.3,0,0.4-0.1c0.1-0.1,0.2-0.1,0.3-0.2c0.1-0.1,0.2-0.1,0.3-0.2
		c0.1-0.1,0.2-0.1,0.2-0.1c0.1,0,0.2,0,0.3,0.1s0.1,0.1,0.1,0.2c0,0.1-0.1,0.2-0.2,0.3c-0.1,0.1-0.3,0.3-0.5,0.5
		c-0.3,0.2-0.7,0.5-1.2,0.7c-0.5,0.2-1,0.3-1.5,0.3c0,0-0.1,0-0.1,0s-0.1,0-0.1,0c-0.7,0.8-1.4,1.4-2,1.7c-0.7,0.3-1.3,0.5-1.9,0.5
		c-0.9,0-1.5-0.3-2-0.9c-0.5-0.6-0.9-1.3-1.1-2c-0.1-0.2-0.1-0.5-0.1-0.7c0-0.2,0-0.5,0-0.7c0-0.1,0-0.2,0-0.3c0-0.1,0-0.2,0-0.3
		c0.2-1,0.7-2,1.5-2.9s1.7-1.7,2.7-2.3c0.6-0.4,1.2-0.6,1.7-0.9c0.6-0.2,1-0.3,1.4-0.3c0,0,0,0,0,0c0,0,0,0,0,0
		c0.3,0,0.5,0.1,0.8,0.2c0.3,0.1,0.4,0.2,0.6,0.4c0.1,0,0.1,0.1,0.1,0.2c0,0.1,0,0.1,0,0.1c0,0,0,0,0,0.1s0,0.1,0,0.1
		c0,0.1,0,0.1,0,0.2s0,0.1,0,0.1c0,0,0,0,0,0.1c0,0,0,0,0,0.1c0,0,0,0,0,0.1c0,0,0,0,0,0.1c0,0,0,0,0,0.1
		C166.9,12.3,167.1,12.4,167.2,12.6z M163.6,18.1c0-0.2-0.1-0.4-0.1-0.6c0-0.3,0-0.5,0.1-0.8c0.1-0.3,0.1-0.5,0.2-0.8
		c0.3-0.9,0.6-1.4,0.7-1.7c0.2-0.3,0.2-0.5,0.2-0.6c0-0.1,0-0.1-0.1-0.2c-0.1,0-0.1-0.1-0.2-0.1c0,0,0,0-0.1,0c0,0-0.1,0-0.1,0
		c-0.1,0-0.3,0.1-0.6,0.2c-0.3,0.1-0.5,0.3-0.8,0.5c-0.1,0.1-0.2,0.1-0.3,0.2c-0.1,0.1-0.2,0.1-0.3,0.2c-0.2,0.1-0.3,0.3-0.5,0.4
		c-0.2,0.1-0.3,0.2-0.4,0.3c-0.1,0.1-0.2,0.2-0.2,0.3c-0.1,0.1-0.2,0.2-0.2,0.3c-0.4,0.4-0.7,0.9-1,1.4c-0.3,0.5-0.4,1.1-0.4,1.7
		c0,0.4,0.1,0.7,0.3,0.9s0.4,0.3,0.6,0.3c0.1,0,0.2,0,0.4,0c0.1,0,0.2,0,0.3,0c0.5,0,0.9-0.1,1.3-0.3c0.4-0.2,0.8-0.5,1.1-0.8
		c0,0,0.1,0,0.1-0.1c0,0,0.1-0.1,0.1-0.1C163.7,18.6,163.7,18.4,163.6,18.1z"/>
	<path class="st0" d="M171.8,17.4c0.4-0.4,0.8-0.8,1.3-1.2c0,0,0.1-0.1,0.1-0.1s0.1-0.1,0.1-0.1c0.4-0.4,0.9-0.8,1.3-1.1
		c0.4-0.4,0.7-0.6,1-0.8c1.3-1,2.2-1.7,2.8-2s1.1-0.5,1.5-0.5c0.3,0,0.4,0.1,0.5,0.2c0.1,0.1,0.2,0.3,0.2,0.5c0,0.1,0,0.2,0,0.2
		s0,0.1,0,0.2v0c0,0.5-0.1,0.9-0.4,1.3s-0.6,0.8-0.9,1.2c-0.1,0.2-0.3,0.3-0.4,0.5c-0.1,0.2-0.3,0.3-0.4,0.5c-0.5,0.7-0.8,1.2-1,1.6
		c-0.1,0.4-0.2,0.7-0.2,0.8c0,0.3,0.1,0.5,0.2,0.7c0.2,0.1,0.4,0.2,0.7,0.2c0.4,0,0.8-0.1,1.2-0.4c0.4-0.2,0.7-0.5,1-0.8
		c0,0,0,0,0,0c0,0,0,0,0,0c0,0,0,0,0.1-0.1c0,0,0.1,0,0.1-0.1c0.1-0.1,0.2-0.2,0.4-0.3s0.2-0.1,0.3-0.1c0.1,0,0.1,0,0.2,0.1
		s0.1,0.2,0.1,0.3c0,0.1,0,0.1,0,0.2s0,0.1-0.1,0.1c-0.1,0.1-0.1,0.2-0.2,0.2s-0.2,0.2-0.3,0.3c-0.2,0.2-0.4,0.4-0.8,0.7
		c-0.3,0.3-0.7,0.6-1,0.9c-0.2,0.2-0.4,0.3-0.6,0.5s-0.4,0.3-0.6,0.5c-0.4,0.3-0.8,0.5-1.2,0.7c-0.4,0.2-0.8,0.3-1.1,0.3
		c-0.1,0-0.2,0-0.3,0s-0.2,0-0.3-0.1c-0.2-0.1-0.5-0.2-0.6-0.5c-0.2-0.2-0.3-0.6-0.3-1.1c0-0.2,0-0.4,0.1-0.8s0.3-0.9,0.6-1.4
		c0,0,0.1-0.1,0.1-0.2s0.4-0.5,0.8-1c0.2-0.3,0.4-0.5,0.5-0.7c0.1-0.2,0.2-0.3,0.2-0.4c0,0,0,0,0-0.1s0-0.1,0-0.1
		c0-0.1-0.1-0.1-0.2-0.2c-0.1-0.1-0.2-0.1-0.4-0.1c-0.5,0-1,0.2-1.6,0.7c-0.6,0.5-1.2,1.1-2,1.9c-0.1,0.1-0.1,0.1-0.2,0.2
		s-0.1,0.1-0.1,0.1c-0.6,0.6-1,1.2-1.3,1.8c-0.3,0.6-0.6,0.9-0.9,1.1c0,0-0.1,0-0.1,0.1c-0.1,0-0.1,0-0.2,0c-0.3,0-0.6-0.2-0.8-0.6
		c-0.2-0.4-0.3-0.8-0.4-1.2c0-0.2,0-0.4-0.1-0.6c0-0.2,0-0.4,0-0.5c0-0.1,0-0.2,0-0.2s0-0.1,0-0.2c0,0,0-0.1,0-0.1c0,0,0-0.1,0-0.1
		c0,0,0,0,0-0.1s0-0.1,0-0.1c0-0.4,0.1-0.8,0.3-1.2s0.4-0.7,0.6-1.1c0.1-0.2,0.3-0.4,0.4-0.6c0.1-0.2,0.3-0.4,0.4-0.6
		c0.4-0.5,0.7-0.9,0.9-1.2s0.5-0.6,0.7-0.8c0.2-0.1,0.4-0.2,0.6-0.3c0.2-0.1,0.4-0.1,0.6-0.1c0.4,0,0.6,0,0.8,0.1
		c0.2,0.1,0.2,0.2,0.3,0.3c0,0,0,0.1,0,0.1s0,0.1,0,0.1c0,0.2,0,0.3-0.1,0.4c-0.1,0.1-0.2,0.2-0.3,0.3c0,0,0,0.1-0.1,0.1
		c0,0-0.1,0-0.1,0.1c-0.1,0.1-0.3,0.3-0.6,0.6c-0.3,0.3-0.6,0.7-0.9,1.1c0,0-0.1,0.1-0.1,0.1c0,0-0.1,0.1-0.1,0.1
		c-0.3,0.4-0.7,0.8-0.9,1.2c-0.3,0.4-0.4,0.6-0.4,0.7c0,0.1,0,0.1,0,0.2c0,0.1,0,0.2,0,0.3c0,0.1,0,0.2,0.1,0.3c0,0.1,0,0.2,0.1,0.2
		C171.1,18.1,171.4,17.7,171.8,17.4z"/>
	<path class="st0" d="M184.5,17.6c0,0,0,0.1,0,0.1c0,0.1,0,0.2,0,0.3c0,0.1,0,0.3,0.1,0.4c0.1,0.3,0.2,0.7,0.5,0.9s0.6,0.4,1.2,0.4
		c0.2,0,0.3,0,0.5-0.1c0.2,0,0.4-0.1,0.6-0.2c0.2-0.1,0.3-0.1,0.5-0.2c0.2-0.1,0.3-0.1,0.4-0.2c0.2-0.1,0.4-0.2,0.6-0.3
		c0.2-0.1,0.3-0.2,0.4-0.3c0.7-0.5,1.2-0.8,1.4-1c0.2-0.2,0.3-0.3,0.4-0.3c0,0,0,0,0.1,0c0,0,0,0,0.1,0c0.1,0,0.1,0,0.1,0.1
		c0,0.1,0,0.2,0,0.3c0,0.1-0.1,0.2-0.2,0.4s-0.4,0.5-0.8,0.9c-0.2,0.2-0.4,0.4-0.7,0.7c-0.3,0.3-0.7,0.6-1,0.9
		c-0.4,0.3-0.8,0.6-1.2,0.9c-0.4,0.3-0.9,0.5-1.3,0.7c-0.2,0.1-0.5,0.2-0.7,0.2c-0.2,0-0.5,0.1-0.7,0.1c-0.7,0-1.4-0.3-2-0.9
		s-0.9-1.4-0.9-2.6c0-0.4,0.1-0.9,0.2-1.4c0.1-0.5,0.3-1,0.5-1.5c0.6-1.3,1.4-2.4,2.5-3.6c1.1-1.1,2.2-1.8,3.4-2.2
		c0.2,0,0.4-0.1,0.6-0.1c0.2,0,0.4,0,0.6,0c0.5,0,0.9,0.1,1.2,0.3c0.3,0.2,0.4,0.4,0.5,0.6c0,0.1,0.1,0.2,0.1,0.3c0,0.1,0,0.2,0,0.3
		c0,0.3-0.1,0.6-0.3,1c-0.2,0.4-0.4,0.7-0.7,1.1c-0.5,0.7-1.2,1.3-2,1.9c-0.8,0.6-1.7,1-2.6,1.4c-0.2,0.1-0.4,0.1-0.6,0.2
		c-0.2,0.1-0.4,0.1-0.6,0.1C184.5,17.5,184.5,17.5,184.5,17.6z M185.3,16c0.3-0.1,0.6-0.3,0.9-0.5c0.4-0.2,0.7-0.5,1-0.7
		c0.3-0.3,0.6-0.5,0.9-0.8c0.2-0.2,0.4-0.5,0.5-0.7s0.2-0.5,0.2-0.7c0-0.2,0-0.4-0.1-0.6c-0.1-0.1-0.2-0.2-0.5-0.2
		c-0.1,0-0.3,0-0.4,0.1c-0.1,0.1-0.3,0.1-0.4,0.2c-0.4,0.2-0.8,0.6-1.2,1.1c-0.4,0.5-0.7,1-1,1.6c-0.1,0.3-0.3,0.5-0.4,0.8
		s-0.2,0.5-0.3,0.7C184.7,16.3,185,16.2,185.3,16z"/>
	<path class="st0" d="M197.3,18.5c-0.3,0.3-0.5,0.6-0.8,0.9c-0.2,0.2-0.4,0.4-0.6,0.6c-0.2,0.2-0.4,0.4-0.6,0.5
		c-0.4,0.3-0.7,0.6-1.1,0.8s-0.7,0.3-1,0.3c-0.1,0-0.2,0-0.4-0.1s-0.3-0.1-0.5-0.3c-0.3-0.3-0.5-0.7-0.7-1.2
		c-0.2-0.6-0.3-1.4-0.3-2.4c0-0.5,0.1-1,0.2-1.4c0.1-0.4,0.3-0.7,0.5-1.1c0.1-0.2,0.2-0.4,0.4-0.6c0.1-0.2,0.3-0.4,0.4-0.6
		c0.1-0.1,0.1-0.2,0.2-0.3c0.1-0.1,0.1-0.2,0.2-0.3c0.5-0.7,1-1.3,1.5-1.8c0.5-0.5,1.1-0.8,1.7-0.8c0.3,0,0.6,0.1,0.9,0.2
		c0.3,0.1,0.4,0.3,0.4,0.5c0,0.2-0.1,0.5-0.3,0.8c-0.2,0.3-0.5,0.7-0.8,1.1c-0.2,0.2-0.4,0.4-0.6,0.6s-0.4,0.4-0.6,0.6
		s-0.4,0.3-0.6,0.4c-0.2,0.1-0.4,0.2-0.5,0.3c-0.1,0-0.1,0-0.1,0.1s-0.1,0.1-0.1,0.1h0c-0.1,0-0.1,0.1-0.2,0.1
		c-0.1,0-0.1,0.1-0.2,0.1c-0.1,0.2-0.1,0.3-0.1,0.5s0,0.3,0,0.5c0,0.4,0.1,0.8,0.3,1s0.4,0.5,0.6,0.5c0.2,0,0.4-0.1,0.6-0.2
		c0.2-0.1,0.5-0.3,0.7-0.4c0.1-0.1,0.2-0.2,0.3-0.2s0.2-0.2,0.3-0.2c0.2-0.2,0.5-0.4,0.7-0.6c0.2-0.2,0.4-0.3,0.4-0.4l5.3-5.3
		c0,0,0,0,0.1-0.1c0,0,0,0,0.1-0.1c0-0.1,0.1-0.1,0.2-0.2s0.1-0.1,0.2-0.1c0,0,0.1,0,0.1,0c0.1,0,0.1,0.1,0.2,0.1
		c0.1,0.1,0.2,0.2,0.3,0.5c0.1,0.2,0.1,0.6,0.1,1c0,0,0,0.1,0,0.1s0,0.1,0,0.1c0,0.1,0,0.1,0,0.1c0,0,0,0.1,0,0.1c0,0,0,0.1-0.1,0.1
		l-2.7,2.9c-0.1,0.1-0.1,0.1-0.2,0.2c-0.1,0.1-0.1,0.1-0.2,0.2c-0.2,0.2-0.3,0.5-0.5,0.8c-0.1,0.3-0.2,0.7-0.2,1.1
		c0,0.3,0.1,0.6,0.2,0.9s0.3,0.4,0.6,0.4c0.1,0,0.3,0,0.5-0.1s0.4-0.1,0.5-0.2c0.1,0,0.2-0.1,0.4-0.2c0.1-0.1,0.2-0.1,0.3-0.2
		c0.1-0.1,0.2-0.1,0.3-0.2s0.2-0.1,0.2-0.2c0,0,0.1,0,0.1-0.1c0.1-0.1,0.2-0.1,0.3-0.2c0.1-0.1,0.3-0.2,0.5-0.3c0,0,0,0,0,0
		c0,0,0,0,0,0c0,0,0.1,0,0.1,0.1c0,0,0,0.1,0,0.1c0,0,0,0,0,0.1c0,0.1-0.1,0.2-0.2,0.3c-0.1,0.1-0.3,0.3-0.5,0.5
		c-0.1,0.1-0.3,0.3-0.7,0.6c-0.4,0.3-0.7,0.6-1.2,1c-0.1,0.1-0.3,0.2-0.4,0.3c-0.1,0.1-0.3,0.2-0.4,0.3c-0.4,0.3-0.9,0.6-1.3,0.8
		s-0.7,0.3-1,0.3c0,0,0,0,0,0c0,0,0,0,0,0c-0.3,0-0.5-0.2-0.8-0.4c-0.2-0.2-0.4-0.7-0.4-1.2c0-0.2,0-0.4,0-0.7
		c0-0.3,0.1-0.6,0.1-0.8c0-0.2,0-0.4,0.1-0.5c0-0.2,0.1-0.3,0.1-0.5c0-0.1,0-0.1,0-0.2c0,0,0-0.1,0-0.1
		C197.7,17.9,197.5,18.2,197.3,18.5z M204.9,6.8c0,0,0,0.1,0,0.1c0,0,0,0,0,0c0,0,0,0,0,0c0,0.1-0.1,0.3-0.4,0.6
		c-0.3,0.3-0.6,0.6-1,0.9c-0.1,0.1-0.3,0.2-0.5,0.3c-0.2,0.1-0.3,0.2-0.5,0.3c-0.4,0.3-0.8,0.5-1.2,0.7c-0.4,0.2-0.7,0.3-0.9,0.3
		c-0.1,0-0.2,0-0.3,0s-0.3-0.1-0.4-0.2c-0.2-0.1-0.5-0.4-0.7-0.7c-0.2-0.3-0.3-0.8-0.3-1.5c0-0.3,0.1-0.5,0.3-0.8
		c0.2-0.3,0.5-0.5,0.8-0.7c0.2-0.1,0.4-0.2,0.5-0.3c0.2-0.1,0.3-0.1,0.4-0.1c0.1,0,0.2,0,0.3,0.1c0.1,0.1,0.1,0.1,0.1,0.2
		c0,0.1,0,0.2,0,0.2s0,0.1,0,0.2c0,0.1,0,0.2-0.1,0.2c0,0.1,0,0.2,0,0.2c0,0.2,0.1,0.4,0.3,0.5c0.2,0.1,0.4,0.2,0.6,0.2
		c0,0,0.1,0,0.1,0c0,0,0.1,0,0.1,0c0.2,0,0.3-0.1,0.5-0.2c0.2-0.1,0.4-0.2,0.8-0.4c0,0,0,0,0.1,0c0,0,0.1,0,0.1,0
		c0.2-0.1,0.4-0.2,0.5-0.3c0.1-0.1,0.3-0.2,0.4-0.2c0,0,0,0,0.1,0c0,0,0.1,0,0.1,0c0.1,0,0.1,0,0.2,0C204.7,6.6,204.8,6.7,204.9,6.8
		C204.8,6.7,204.8,6.8,204.9,6.8z"/>
	<path class="st0" d="M205.2,16.5c0.2-0.5,0.5-1,0.8-1.5c0.6-0.9,1.4-1.8,2.4-2.6c1-0.8,2-1.4,3-1.8c0.3-0.1,0.5-0.1,0.8-0.2
		c0.3,0,0.5-0.1,0.8-0.1c0.1,0,0.1,0,0.2,0s0.1,0,0.2,0c0.2,0,0.4,0.1,0.6,0.3c0.2,0.1,0.3,0.3,0.3,0.6c0,0.2-0.1,0.5-0.2,0.8
		c-0.1,0.3-0.3,0.7-0.5,1c-0.1,0.2-0.3,0.4-0.4,0.6c-0.1,0.2-0.3,0.4-0.4,0.6c-0.3,0.3-0.5,0.6-0.8,0.9c-0.3,0.2-0.4,0.3-0.6,0.3
		c-0.1,0-0.1,0-0.2-0.1c-0.1-0.1-0.1-0.1-0.1-0.2c0,0,0-0.1,0-0.1c0,0,0-0.1,0-0.1c0,0,0-0.1,0-0.1c0,0,0-0.1-0.1-0.2
		c0-0.1-0.1-0.1-0.1-0.2s-0.1-0.1-0.2-0.1c0,0,0,0-0.1,0c0,0,0,0-0.1,0c0,0,0,0-0.1,0c0,0,0,0,0,0c0,0,0,0,0,0c0,0,0,0,0,0
		c0,0,0,0,0,0c-0.2,0-0.4,0.1-0.7,0.3c-0.3,0.2-0.5,0.4-0.8,0.6c-0.3,0.2-0.6,0.5-0.8,0.8s-0.5,0.6-0.7,0.9
		c-0.1,0.2-0.3,0.4-0.3,0.7c-0.1,0.2-0.1,0.4-0.1,0.6c0,0,0,0.1,0,0.1c0,0.1,0,0.1,0,0.1c0.1,0.4,0.3,0.7,0.7,1
		c0.4,0.3,1,0.5,1.8,0.5c0.5,0,1-0.1,1.4-0.2c0.4-0.2,0.8-0.3,1.1-0.5c0.1-0.1,0.3-0.2,0.4-0.2c0.1-0.1,0.2-0.1,0.3-0.2
		c0.8-0.5,1.3-0.8,1.5-1.1c0.2-0.2,0.4-0.4,0.6-0.4c0,0,0,0,0.1,0s0,0,0.1,0c0,0,0,0,0.1,0c0,0,0,0,0.1,0c0,0,0.1,0,0.1,0.1
		s0,0.1,0,0.2c0,0.1-0.1,0.3-0.4,0.7c-0.3,0.4-1,1.1-2.2,2.1c-0.1,0.1-0.2,0.2-0.3,0.3c-0.1,0.1-0.2,0.2-0.3,0.3
		c-0.5,0.4-1.1,0.7-1.7,1.1s-1.2,0.5-1.8,0.5c-0.8,0-1.4-0.3-1.9-0.8c-0.5-0.5-0.8-1.1-1.1-1.8c-0.2-0.4-0.3-0.8-0.3-1.2
		c-0.1-0.4-0.1-0.7-0.1-0.9C204.9,17.4,205,17,205.2,16.5z"/>
	<path class="st0" d="M216,21.4C216,21.4,215.9,21.5,216,21.4l-0.1,0.1c0,0,0,0-0.1,0c0,0,0,0-0.1,0c0,0-0.1,0-0.1-0.1
		c0,0-0.1-0.1-0.2-0.2c-0.1-0.2-0.2-0.6-0.3-1c-0.1-0.5-0.1-1.1-0.1-1.8c0-0.1,0-0.2,0-0.3s0-0.2,0-0.3c0-0.1,0-0.2,0-0.3
		c0-0.1,0-0.2,0-0.3c0.1-0.4,0.2-0.9,0.4-1.4s0.5-1.1,0.8-1.7c0.2-0.3,0.4-0.7,0.6-1c0.2-0.3,0.4-0.7,0.6-1c0.5-0.7,0.9-1.2,1.3-1.7
		c0.4-0.4,0.7-0.7,0.9-0.7c0.2,0,0.3,0.2,0.4,0.5s0.2,0.7,0.3,1c0,0.1,0,0.2,0,0.3s0,0.2,0,0.3c0,0.1,0,0.3,0,0.3
		c0,0.1,0,0.2-0.1,0.3c-0.1,0.1-0.1,0.2-0.3,0.4c-0.1,0.1-0.3,0.3-0.5,0.5c-0.1,0.1-0.3,0.3-0.4,0.4c-0.1,0.2-0.3,0.3-0.4,0.5
		c-0.3,0.3-0.5,0.7-0.8,1c-0.3,0.4-0.4,0.7-0.6,1.1c-0.1,0.2-0.2,0.4-0.2,0.6c0,0.2-0.1,0.4-0.1,0.6c0,0.1,0,0.2,0,0.2
		c0,0.1,0,0.1,0,0.2c0.4-0.6,0.9-1.1,1.4-1.6c0.5-0.5,0.9-1,1.4-1.5c1.4-1.4,2.7-2.4,3.9-3.2c1.2-0.8,2.1-1.2,2.6-1.2
		c0.1,0,0.1,0,0.2,0c0.1,0,0.1,0,0.2,0.1c0.2,0.1,0.3,0.3,0.4,0.5c0.1,0.2,0.2,0.5,0.2,0.9c0,0.2,0,0.5,0,0.8c0,0.3-0.1,0.5-0.1,0.8
		c-0.1,0.4-0.2,0.8-0.4,1.2s-0.5,0.7-0.8,1c0,0,0,0,0,0c0,0,0,0,0,0c-0.1,0-0.2,0-0.3,0c-0.1,0-0.2,0-0.3-0.1
		c-0.3-0.1-0.6-0.2-0.8-0.3c-0.2-0.2-0.4-0.3-0.4-0.5c0-0.1,0-0.1,0.1-0.2s0.1-0.1,0.2-0.1c0,0,0,0,0,0s0,0,0,0
		c0.1,0,0.2-0.1,0.3-0.2c0.1-0.1,0.1-0.2,0.2-0.4c0,0,0-0.1,0-0.1c0,0,0-0.1,0-0.1c0,0,0,0,0-0.1c0,0,0,0,0-0.1
		c0-0.1-0.1-0.1-0.2-0.2c-0.1,0-0.2-0.1-0.3-0.1c-0.3,0-0.6,0.1-0.9,0.3c-0.4,0.2-0.7,0.5-1.1,0.8c-0.2,0.1-0.4,0.3-0.5,0.4
		c-0.2,0.1-0.3,0.3-0.5,0.4c-0.3,0.3-0.5,0.5-0.8,0.8c-0.2,0.3-0.4,0.5-0.6,0.6c0.5,0.2,0.9,0.4,1.3,0.8c0.3,0.3,0.6,0.7,0.9,1
		c0.1,0.2,0.3,0.4,0.4,0.5s0.3,0.3,0.4,0.4c0.1,0.1,0.3,0.2,0.4,0.3c0.1,0.1,0.3,0.1,0.4,0.1c0.2,0,0.4-0.1,0.7-0.2
		c0.3-0.1,0.6-0.3,0.9-0.5c0.1,0,0.2-0.1,0.2-0.1c0.1,0,0.1-0.1,0.2-0.1c0.2-0.1,0.4-0.3,0.6-0.4c0.2-0.1,0.4-0.3,0.5-0.4
		c0.3-0.2,0.5-0.4,0.6-0.4c0.1-0.1,0.2-0.1,0.3-0.1c0,0,0.1,0,0.1,0.1s0.1,0.1,0.1,0.2c0,0,0,0,0,0s0,0,0,0c0,0.1-0.1,0.3-0.3,0.6
		c-0.2,0.3-0.4,0.6-0.7,0.9c-0.1,0.1-0.1,0.1-0.2,0.2c0,0.1-0.1,0.1-0.2,0.2c-0.2,0.2-0.5,0.5-0.7,0.7s-0.4,0.4-0.5,0.5
		c-0.1,0.1-0.2,0.2-0.4,0.3c-0.2,0.1-0.4,0.3-0.6,0.4c-0.2,0.1-0.4,0.2-0.6,0.3c-0.2,0.1-0.4,0.2-0.6,0.3c-0.2,0.1-0.4,0.1-0.5,0.2
		c-0.2,0-0.3,0.1-0.5,0.1c-0.6,0-1.1-0.2-1.5-0.5s-0.7-0.7-0.9-1.1c-0.1-0.1-0.2-0.2-0.2-0.4c-0.1-0.1-0.1-0.3-0.2-0.4
		c-0.1-0.2-0.2-0.3-0.3-0.5s-0.1-0.3-0.2-0.4c-0.1-0.2-0.2-0.3-0.3-0.4c-0.1-0.1-0.3-0.2-0.5-0.3L216,21.4z"/>
	<path class="st0" d="M237.8,12.6c0.1,0.2,0.2,0.4,0.3,0.6c0,0.1,0,0.2,0,0.3c0,0.1,0,0.2,0,0.3c0,0.2,0,0.4,0,0.5s-0.1,0.3-0.1,0.5
		c-0.1,0.4-0.2,0.9-0.4,1.3c-0.2,0.4-0.4,0.8-0.6,1.1c0,0,0,0.1-0.1,0.1c0,0.1-0.1,0.1-0.1,0.1c0,0,0,0.1-0.1,0.1c0,0,0,0.1,0,0.1
		c0,0.1,0.1,0.3,0.2,0.4c0.1,0.1,0.3,0.2,0.5,0.2s0.3,0,0.4-0.1c0.1-0.1,0.2-0.1,0.3-0.2c0.1-0.1,0.2-0.1,0.3-0.2
		c0.1-0.1,0.2-0.1,0.2-0.1c0.1,0,0.2,0,0.3,0.1s0.1,0.1,0.1,0.2c0,0.1-0.1,0.2-0.2,0.3c-0.1,0.1-0.3,0.3-0.5,0.5
		c-0.3,0.2-0.7,0.5-1.2,0.7c-0.5,0.2-1,0.3-1.5,0.3c0,0-0.1,0-0.1,0s-0.1,0-0.1,0c-0.7,0.8-1.4,1.4-2,1.7c-0.7,0.3-1.3,0.5-1.9,0.5
		c-0.9,0-1.5-0.3-2-0.9c-0.5-0.6-0.9-1.3-1.1-2c-0.1-0.2-0.1-0.5-0.1-0.7c0-0.2,0-0.5,0-0.7c0-0.1,0-0.2,0-0.3c0-0.1,0-0.2,0-0.3
		c0.2-1,0.7-2,1.5-2.9s1.7-1.7,2.7-2.3c0.6-0.4,1.2-0.6,1.7-0.9c0.6-0.2,1-0.3,1.4-0.3c0,0,0,0,0,0c0,0,0,0,0,0
		c0.3,0,0.5,0.1,0.8,0.2c0.3,0.1,0.4,0.2,0.6,0.4c0.1,0,0.1,0.1,0.1,0.2c0,0.1,0,0.1,0,0.1c0,0,0,0,0,0.1s0,0.1,0,0.1
		c0,0.1,0,0.1,0,0.2s0,0.1,0,0.1c0,0,0,0,0,0.1c0,0,0,0,0,0.1c0,0,0,0,0,0.1c0,0,0,0,0,0.1c0,0,0,0,0,0.1
		C237.4,12.3,237.6,12.4,237.8,12.6z M234.1,18.1c0-0.2-0.1-0.4-0.1-0.6c0-0.3,0-0.5,0.1-0.8c0.1-0.3,0.1-0.5,0.2-0.8
		c0.3-0.9,0.6-1.4,0.7-1.7c0.2-0.3,0.2-0.5,0.2-0.6c0-0.1,0-0.1-0.1-0.2c-0.1,0-0.1-0.1-0.2-0.1c0,0,0,0-0.1,0c0,0-0.1,0-0.1,0
		c-0.1,0-0.3,0.1-0.6,0.2c-0.3,0.1-0.5,0.3-0.8,0.5c-0.1,0.1-0.2,0.1-0.3,0.2c-0.1,0.1-0.2,0.1-0.3,0.2c-0.2,0.1-0.3,0.3-0.5,0.4
		c-0.2,0.1-0.3,0.2-0.4,0.3c-0.1,0.1-0.2,0.2-0.2,0.3c-0.1,0.1-0.2,0.2-0.2,0.3c-0.4,0.4-0.7,0.9-1,1.4c-0.3,0.5-0.4,1.1-0.4,1.7
		c0,0.4,0.1,0.7,0.3,0.9s0.4,0.3,0.6,0.3c0.1,0,0.2,0,0.4,0c0.1,0,0.2,0,0.3,0c0.5,0,0.9-0.1,1.3-0.3c0.4-0.2,0.8-0.5,1.1-0.8
		c0,0,0.1,0,0.1-0.1c0,0,0.1-0.1,0.1-0.1C234.3,18.6,234.2,18.4,234.1,18.1z"/>
	<path class="st0" d="M245,18.5c-0.3,0.3-0.5,0.6-0.8,0.9c-0.2,0.2-0.4,0.4-0.6,0.6c-0.2,0.2-0.4,0.4-0.6,0.5
		c-0.4,0.3-0.7,0.6-1.1,0.8s-0.7,0.3-1,0.3c-0.1,0-0.2,0-0.4-0.1s-0.3-0.1-0.5-0.3c-0.3-0.3-0.5-0.7-0.7-1.2
		c-0.2-0.6-0.3-1.4-0.3-2.4c0-0.5,0.1-1,0.2-1.4c0.1-0.4,0.3-0.7,0.5-1.1c0.1-0.2,0.2-0.4,0.4-0.6c0.1-0.2,0.3-0.4,0.4-0.6
		c0.1-0.1,0.1-0.2,0.2-0.3c0.1-0.1,0.1-0.2,0.2-0.3c0.5-0.7,1-1.3,1.5-1.8c0.5-0.5,1.1-0.8,1.7-0.8c0.3,0,0.6,0.1,0.9,0.2
		c0.3,0.1,0.4,0.3,0.4,0.5c0,0.2-0.1,0.5-0.3,0.8c-0.2,0.3-0.5,0.7-0.8,1.1c-0.2,0.2-0.4,0.4-0.6,0.6s-0.4,0.4-0.6,0.6
		s-0.4,0.3-0.6,0.4c-0.2,0.1-0.4,0.2-0.5,0.3c-0.1,0-0.1,0-0.1,0.1s-0.1,0.1-0.1,0.1h0c-0.1,0-0.1,0.1-0.2,0.1
		c-0.1,0-0.1,0.1-0.2,0.1c-0.1,0.2-0.1,0.3-0.1,0.5s0,0.3,0,0.5c0,0.4,0.1,0.8,0.3,1s0.4,0.5,0.6,0.5c0.2,0,0.4-0.1,0.6-0.2
		c0.2-0.1,0.5-0.3,0.7-0.4c0.1-0.1,0.2-0.2,0.3-0.2s0.2-0.2,0.3-0.2c0.2-0.2,0.5-0.4,0.7-0.6c0.2-0.2,0.4-0.3,0.4-0.4l5.3-5.3
		c0,0,0,0,0.1-0.1c0,0,0,0,0.1-0.1c0-0.1,0.1-0.1,0.2-0.2s0.1-0.1,0.2-0.1c0,0,0.1,0,0.1,0c0.1,0,0.1,0.1,0.2,0.1
		c0.1,0.1,0.2,0.2,0.3,0.5c0.1,0.2,0.1,0.6,0.1,1c0,0,0,0.1,0,0.1s0,0.1,0,0.1c0,0.1,0,0.1,0,0.1c0,0,0,0.1,0,0.1c0,0,0,0.1-0.1,0.1
		l-2.7,2.9c-0.1,0.1-0.1,0.1-0.2,0.2c-0.1,0.1-0.1,0.1-0.2,0.2c-0.2,0.2-0.3,0.5-0.5,0.8c-0.1,0.3-0.2,0.7-0.2,1.1
		c0,0.3,0.1,0.6,0.2,0.9s0.3,0.4,0.6,0.4c0.1,0,0.3,0,0.5-0.1s0.4-0.1,0.5-0.2c0.1,0,0.2-0.1,0.4-0.2c0.1-0.1,0.2-0.1,0.3-0.2
		c0.1-0.1,0.2-0.1,0.3-0.2s0.2-0.1,0.2-0.2c0,0,0.1,0,0.1-0.1c0.1-0.1,0.2-0.1,0.3-0.2c0.1-0.1,0.3-0.2,0.5-0.3c0,0,0,0,0,0
		c0,0,0,0,0,0c0,0,0.1,0,0.1,0.1c0,0,0,0.1,0,0.1c0,0,0,0,0,0.1c0,0.1-0.1,0.2-0.2,0.3c-0.1,0.1-0.3,0.3-0.5,0.5
		c-0.1,0.1-0.3,0.3-0.7,0.6c-0.4,0.3-0.7,0.6-1.2,1c-0.1,0.1-0.3,0.2-0.4,0.3c-0.1,0.1-0.3,0.2-0.4,0.3c-0.4,0.3-0.9,0.6-1.3,0.8
		s-0.7,0.3-1,0.3c0,0,0,0,0,0c0,0,0,0,0,0c-0.3,0-0.5-0.2-0.8-0.4c-0.2-0.2-0.4-0.7-0.4-1.2c0-0.2,0-0.4,0-0.7
		c0-0.3,0.1-0.6,0.1-0.8c0-0.2,0-0.4,0.1-0.5c0-0.2,0.1-0.3,0.1-0.5c0-0.1,0-0.1,0-0.2c0,0,0-0.1,0-0.1
		C245.4,17.9,245.2,18.2,245,18.5z M252.5,6.8c0,0,0,0.1,0,0.1c0,0,0,0,0,0c0,0,0,0,0,0c0,0.1-0.1,0.3-0.4,0.6
		c-0.3,0.3-0.6,0.6-1,0.9c-0.1,0.1-0.3,0.2-0.5,0.3c-0.2,0.1-0.3,0.2-0.5,0.3c-0.4,0.3-0.8,0.5-1.2,0.7c-0.4,0.2-0.7,0.3-0.9,0.3
		c-0.1,0-0.2,0-0.3,0s-0.3-0.1-0.4-0.2c-0.2-0.1-0.5-0.4-0.7-0.7c-0.2-0.3-0.3-0.8-0.3-1.5c0-0.3,0.1-0.5,0.3-0.8
		c0.2-0.3,0.5-0.5,0.8-0.7c0.2-0.1,0.4-0.2,0.5-0.3c0.2-0.1,0.3-0.1,0.4-0.1c0.1,0,0.2,0,0.3,0.1c0.1,0.1,0.1,0.1,0.1,0.2
		c0,0.1,0,0.2,0,0.2s0,0.1,0,0.2c0,0.1,0,0.2-0.1,0.2c0,0.1,0,0.2,0,0.2c0,0.2,0.1,0.4,0.3,0.5c0.2,0.1,0.4,0.2,0.6,0.2
		c0,0,0.1,0,0.1,0c0,0,0.1,0,0.1,0c0.2,0,0.3-0.1,0.5-0.2c0.2-0.1,0.4-0.2,0.8-0.4c0,0,0,0,0.1,0c0,0,0.1,0,0.1,0
		c0.2-0.1,0.4-0.2,0.5-0.3c0.1-0.1,0.3-0.2,0.4-0.2c0,0,0,0,0.1,0c0,0,0.1,0,0.1,0c0.1,0,0.1,0,0.2,0C252.4,6.6,252.5,6.7,252.5,6.8
		C252.5,6.7,252.5,6.8,252.5,6.8z"/>
	<path class="st0" d="M264,21.4C264,21.4,264,21.5,264,21.4l-0.1,0.1c0,0,0,0-0.1,0c0,0,0,0-0.1,0c0,0-0.1,0-0.1-0.1
		c0,0-0.1-0.1-0.2-0.2c-0.1-0.2-0.2-0.6-0.3-1c-0.1-0.5-0.1-1.1-0.1-1.8c0-0.1,0-0.2,0-0.3s0-0.2,0-0.3c0-0.1,0-0.2,0-0.3
		c0-0.1,0-0.2,0-0.3c0.1-0.4,0.2-0.9,0.4-1.4s0.5-1.1,0.8-1.7c0.2-0.3,0.4-0.7,0.6-1c0.2-0.3,0.4-0.7,0.6-1c0.5-0.7,0.9-1.2,1.3-1.7
		c0.4-0.4,0.7-0.7,0.9-0.7c0.2,0,0.3,0.2,0.4,0.5s0.2,0.7,0.3,1c0,0.1,0,0.2,0,0.3s0,0.2,0,0.3c0,0.1,0,0.3,0,0.3
		c0,0.1,0,0.2-0.1,0.3c-0.1,0.1-0.1,0.2-0.3,0.4c-0.1,0.1-0.3,0.3-0.5,0.5c-0.1,0.1-0.3,0.3-0.4,0.4c-0.1,0.2-0.3,0.3-0.4,0.5
		c-0.3,0.3-0.5,0.7-0.8,1c-0.3,0.4-0.4,0.7-0.6,1.1c-0.1,0.2-0.2,0.4-0.2,0.6c0,0.2-0.1,0.4-0.1,0.6c0,0.1,0,0.2,0,0.2
		c0,0.1,0,0.1,0,0.2c0.4-0.6,0.9-1.1,1.4-1.6c0.5-0.5,0.9-1,1.4-1.5c1.4-1.4,2.7-2.4,3.9-3.2c1.2-0.8,2.1-1.2,2.6-1.2
		c0.1,0,0.1,0,0.2,0c0.1,0,0.1,0,0.2,0.1c0.2,0.1,0.3,0.3,0.4,0.5c0.1,0.2,0.2,0.5,0.2,0.9c0,0.2,0,0.5,0,0.8c0,0.3-0.1,0.5-0.1,0.8
		c-0.1,0.4-0.2,0.8-0.4,1.2s-0.5,0.7-0.8,1c0,0,0,0,0,0c0,0,0,0,0,0c-0.1,0-0.2,0-0.3,0c-0.1,0-0.2,0-0.3-0.1
		c-0.3-0.1-0.6-0.2-0.8-0.3c-0.2-0.2-0.4-0.3-0.4-0.5c0-0.1,0-0.1,0.1-0.2s0.1-0.1,0.2-0.1c0,0,0,0,0,0s0,0,0,0
		c0.1,0,0.2-0.1,0.3-0.2c0.1-0.1,0.1-0.2,0.2-0.4c0,0,0-0.1,0-0.1c0,0,0-0.1,0-0.1c0,0,0,0,0-0.1c0,0,0,0,0-0.1
		c0-0.1-0.1-0.1-0.2-0.2c-0.1,0-0.2-0.1-0.3-0.1c-0.3,0-0.6,0.1-0.9,0.3c-0.4,0.2-0.7,0.5-1.1,0.8c-0.2,0.1-0.4,0.3-0.5,0.4
		c-0.2,0.1-0.3,0.3-0.5,0.4c-0.3,0.3-0.5,0.5-0.8,0.8c-0.2,0.3-0.4,0.5-0.6,0.6c0.5,0.2,0.9,0.4,1.3,0.8c0.3,0.3,0.6,0.7,0.9,1
		c0.1,0.2,0.3,0.4,0.4,0.5s0.3,0.3,0.4,0.4c0.1,0.1,0.3,0.2,0.4,0.3c0.1,0.1,0.3,0.1,0.4,0.1c0.2,0,0.4-0.1,0.7-0.2
		c0.3-0.1,0.6-0.3,0.9-0.5c0.1,0,0.2-0.1,0.2-0.1c0.1,0,0.1-0.1,0.2-0.1c0.2-0.1,0.4-0.3,0.6-0.4c0.2-0.1,0.4-0.3,0.5-0.4
		c0.3-0.2,0.5-0.4,0.6-0.4c0.1-0.1,0.2-0.1,0.3-0.1c0,0,0.1,0,0.1,0.1s0.1,0.1,0.1,0.2c0,0,0,0,0,0s0,0,0,0c0,0.1-0.1,0.3-0.3,0.6
		c-0.2,0.3-0.4,0.6-0.7,0.9c-0.1,0.1-0.1,0.1-0.2,0.2c0,0.1-0.1,0.1-0.2,0.2c-0.2,0.2-0.5,0.5-0.7,0.7s-0.4,0.4-0.5,0.5
		c-0.1,0.1-0.2,0.2-0.4,0.3c-0.2,0.1-0.4,0.3-0.6,0.4c-0.2,0.1-0.4,0.2-0.6,0.3c-0.2,0.1-0.4,0.2-0.6,0.3c-0.2,0.1-0.4,0.1-0.5,0.2
		c-0.2,0-0.3,0.1-0.5,0.1c-0.6,0-1.1-0.2-1.5-0.5s-0.7-0.7-0.9-1.1c-0.1-0.1-0.2-0.2-0.2-0.4c-0.1-0.1-0.1-0.3-0.2-0.4
		c-0.1-0.2-0.2-0.3-0.3-0.5s-0.1-0.3-0.2-0.4c-0.1-0.2-0.2-0.3-0.3-0.4c-0.1-0.1-0.3-0.2-0.5-0.3L264,21.4z"/>
	<path class="st0" d="M278.6,16.8c-0.1,0.2-0.2,0.4-0.2,0.5c0,0.1,0,0.2,0,0.2c0,0.1,0,0.2,0,0.3c0,0.2,0,0.4,0.1,0.5
		c0.1,0.1,0.2,0.2,0.2,0.3c0,0,0,0,0.1,0c0,0,0,0,0.1,0c0.1,0,0.2-0.1,0.4-0.2c0.2-0.1,0.5-0.3,0.7-0.5c0,0,0.1-0.1,0.1-0.1
		c0.2-0.2,0.5-0.3,0.7-0.5c0.2-0.1,0.3-0.2,0.4-0.3c1.4-1.1,2.6-2.1,3.7-3.1c1-1,2-2,2.9-2.9c0.1-0.1,0.2-0.2,0.3-0.2
		s0.1-0.1,0.2-0.1c0.2,0,0.3,0.1,0.4,0.3c0.1,0.2,0.2,0.4,0.2,0.6c0,0.1,0,0.1,0,0.2c0,0,0,0.1,0,0.2c0,0.2,0,0.4-0.1,0.6
		s-0.1,0.4-0.2,0.5c0,0.1-0.1,0.2-0.1,0.2s-0.1,0.1-0.1,0.2l-4.3,6.9c-0.2,0.3-0.3,0.5-0.4,0.6c-0.1,0.1-0.1,0.2-0.1,0.3
		c0,0,0,0,0,0.1c0,0,0,0,0,0.1c0,0,0,0,0,0.1h0c0,0,0,0,0,0c0,0,0,0,0,0c0,0,0,0,0.1,0c0.1,0,0.1,0,0.2,0c0.1,0,0.2-0.1,0.3-0.3
		l4.1-3.5c0.1-0.1,0.2-0.1,0.2-0.2c0.1-0.1,0.1-0.1,0.2-0.1c0,0,0,0,0.1,0c0,0,0,0,0.1,0c0,0,0.1,0,0.1,0s0.1,0,0.1,0
		c0,0,0.1,0.1,0.1,0.1c0,0,0,0.1,0,0.1c0,0,0,0.1,0,0.1c0,0,0,0.1,0,0.1c0,0,0,0,0,0.1c0,0,0,0.1,0,0.1c0,0,0,0,0,0c0,0,0,0,0,0
		l-5.3,5.5c-0.1,0-0.1,0.1-0.2,0.2c-0.1,0.1-0.1,0.1-0.2,0.2c-1.1,1.2-2.1,2.4-2.9,3.4c-0.8,1-1.4,1.5-1.7,1.5
		c-0.1,0-0.2-0.1-0.3-0.3c-0.1-0.2-0.1-0.5-0.1-0.8c0-0.2,0-0.4,0-0.5s0-0.3,0-0.4c0,0,0,0,0-0.1c0,0,0-0.1,0-0.1
		c0-0.2,0.2-0.5,0.3-0.7c0.2-0.3,0.4-0.7,0.8-1.3l2.8-5.1c0.1-0.2,0.2-0.4,0.1-0.6c0-0.2-0.1-0.1-0.3,0c-0.1,0.1-0.3,0.3-0.6,0.5
		c-0.3,0.2-0.6,0.5-1,0.7c-0.1,0.1-0.2,0.1-0.2,0.2c-0.1,0-0.1,0.1-0.2,0.1c-0.4,0.3-0.8,0.5-1.2,0.7c-0.4,0.2-0.6,0.3-0.8,0.3
		c-0.1,0-0.2,0-0.3-0.1c-0.1-0.1-0.2-0.2-0.3-0.3c-0.1-0.2-0.3-0.4-0.4-0.6c-0.1-0.3-0.3-0.5-0.4-0.8c-0.1-0.3-0.3-0.6-0.3-0.9
		c-0.1-0.3-0.1-0.5-0.1-0.7c0-0.7,0.1-1.3,0.3-1.9c0.2-0.6,0.5-1.2,0.9-1.7c0.1-0.1,0.2-0.2,0.2-0.4c0.1-0.1,0.2-0.2,0.3-0.4
		c0.1-0.1,0.3-0.4,0.6-0.7c0.3-0.3,0.6-0.6,1-1c0.1-0.1,0.2-0.2,0.4-0.3c0.1-0.1,0.2-0.2,0.4-0.3c0.4-0.3,0.7-0.6,1.1-0.8
		c0.3-0.2,0.6-0.3,0.8-0.3s0.4,0.1,0.6,0.2c0.2,0.1,0.3,0.3,0.5,0.5c0,0.1,0.1,0.1,0.1,0.2c0,0.1,0,0.1,0,0.2c0,0.2-0.1,0.5-0.4,0.9
		c-0.3,0.4-0.6,0.9-1,1.4c-0.2,0.3-0.5,0.5-0.8,0.8c-0.3,0.3-0.5,0.5-0.8,0.7c-0.2,0.2-0.5,0.4-0.7,0.5c-0.2,0.2-0.5,0.3-0.7,0.3
		C278.8,16.4,278.7,16.6,278.6,16.8z"/>
	<path class="st0" d="M299.8,11.3c0,0,0.1,0,0.1-0.1c0,0,0.1-0.1,0.1-0.1c0.1,0,0.2-0.1,0.3-0.1c0.1,0,0.2-0.1,0.3-0.1
		c0.1,0,0.1,0,0.2,0.1s0.1,0.1,0.1,0.2c0,0,0,0.1,0,0.1c0,0,0,0.1,0,0.1c0,0.1-0.1,0.2-0.2,0.3c-0.1,0.1-0.1,0.2-0.2,0.3
		c-0.1,0.1-0.1,0.1-0.2,0.2c-0.1,0-0.1,0.1-0.2,0.1l-3.5,3.2l-0.2,3.1c0,0,0,0.1,0,0.1s0,0.1,0,0.1c0,0.2,0,0.4,0.1,0.6
		c0.1,0.1,0.2,0.2,0.4,0.2c0.1,0,0.2,0,0.3-0.1c0.1-0.1,0.3-0.1,0.4-0.2c0,0,0.1-0.1,0.1-0.1c0,0,0.1-0.1,0.1-0.1
		c0.1-0.1,0.3-0.2,0.4-0.3c0.1-0.1,0.2-0.1,0.2-0.2c0,0,0,0,0.1-0.1c0,0,0,0,0.1-0.1c0.1,0,0.1-0.1,0.2-0.1c0.1,0,0.1-0.1,0.2-0.1
		c0,0,0.1,0,0.1,0c0,0,0.1,0,0.1,0c0.1,0,0.1,0,0.2,0.1c0,0,0.1,0.1,0.1,0.1c0,0,0,0,0,0.1c0,0,0,0,0,0.1c0,0,0,0,0,0.1
		c0,0.1-0.1,0.2-0.3,0.4c-0.2,0.2-0.5,0.5-1,0.9c-1.6,1.4-2.6,2.2-3.1,2.5c-0.5,0.3-0.8,0.4-0.9,0.4c0,0-0.1,0-0.1,0
		c0,0-0.1,0-0.1-0.1c-0.1-0.1-0.2-0.2-0.3-0.3c-0.1-0.1-0.1-0.3-0.1-0.6c0-0.1,0-0.1,0-0.2c0-0.1,0-0.1,0-0.1c0-0.3,0.1-0.7,0.2-1.2
		c0.1-0.5,0.2-1.2,0.2-2.3c-0.6,0.9-1.2,1.5-1.7,1.8c-0.5,0.3-0.9,0.6-1.3,0.8c-0.1,0-0.1,0.1-0.2,0.1c-0.1,0-0.1,0.1-0.2,0.1
		c0,0-0.1,0-0.1,0.1c0,0-0.1,0.1-0.1,0.1c0,0-0.1,0.1-0.2,0.1s-0.2,0.1-0.3,0.2c0,0,0,0,0,0c0,0,0,0,0,0c-0.1,0.1-0.2,0.1-0.4,0.2
		c-0.1,0.1-0.2,0.1-0.2,0.1c-0.1,0-0.1,0-0.1-0.1c0-0.1-0.1-0.1-0.1-0.2c0,0,0,0,0-0.1c0,0,0-0.1,0-0.1s0-0.1,0-0.1
		c0-0.1,0-0.1,0.1-0.2c0-0.1,0-0.2,0.1-0.3c0-0.1,0-0.2,0.1-0.3c0-0.1,0.1-0.2,0.1-0.3c0.1-0.2,0.3-0.5,0.4-0.7s0.3-0.4,0.5-0.5
		c0.1-0.1,0.1-0.1,0.2-0.2c0.1,0,0.1-0.1,0.2-0.1l1.2-0.2l2-2c0-0.1,0-0.3,0-0.4c0-0.1,0-0.2,0-0.3c0-0.1,0-0.1,0-0.2s0-0.1,0-0.2
		c0-0.1,0-0.1,0-0.2c0-0.1,0-0.1,0-0.2c0,0,0,0,0-0.1s0-0.1,0-0.1c0,0,0,0,0-0.1c0,0,0-0.1,0-0.1c0-0.6-0.1-1-0.2-1.3
		c-0.1-0.2-0.3-0.3-0.4-0.4c0,0,0,0-0.1,0c0,0-0.1,0-0.1,0c-0.2,0-0.3,0-0.5,0.1c-0.1,0.1-0.3,0.2-0.5,0.3c0,0,0,0,0,0c0,0,0,0,0,0
		l-1.8,1.3c-0.2,0.1-0.3,0.2-0.4,0.2c-0.1,0-0.2-0.1-0.2-0.1c0,0,0,0,0,0c0,0,0,0,0-0.1s0,0,0-0.1c0,0,0-0.1,0-0.1s0-0.1,0-0.1
		c0,0,0,0,0-0.1c0,0,0,0,0-0.1c0.1-0.1,0.2-0.3,0.3-0.4s0.5-0.5,0.9-0.9c1.4-1.4,2.3-2.2,2.8-2.5c0.5-0.3,0.9-0.4,1.1-0.4
		c0.1,0,0.2,0,0.3,0c0.1,0,0.2,0.1,0.3,0.1c0.3,0.1,0.5,0.4,0.7,0.8c0.2,0.4,0.3,1,0.3,1.8c0,0.1,0,0.2,0,0.4s0,0.3,0,0.4
		L299.8,11.3z"/>
	<path class="st0" d="M307.1,11.3c-0.2,0.2-0.4,0.3-0.6,0.5s-0.3,0.3-0.5,0.4c0,0,0,0-0.1,0c0,0,0,0-0.1,0.1
		c-0.1,0.1-0.2,0.1-0.2,0.2c-0.1,0.1-0.2,0.1-0.3,0.2c-0.1,0.1-0.2,0.2-0.5,0.3c-0.3,0.2-0.5,0.3-0.8,0.5c0,0,0,0-0.1,0
		c0,0-0.1,0-0.1,0c-0.3,0.2-0.6,0.4-0.9,0.5c-0.3,0.2-0.5,0.3-0.6,0.3c0,0,0,0-0.1,0s0,0-0.1,0c0,0,0,0-0.1,0l0,0c0,0,0,0,0,0
		c0,0,0,0,0,0c0,0,0,0,0-0.1c0,0,0,0,0-0.1c0.1-0.2,0.4-0.5,1-0.9c0.6-0.4,1.7-1.4,3.3-2.9c0.1-0.1,0.2-0.2,0.3-0.3
		c0.1-0.1,0.3-0.3,0.4-0.4c0.2-0.2,0.4-0.4,0.6-0.5c0.2-0.2,0.3-0.3,0.3-0.3c0.2-0.2,0.3-0.4,0.4-0.5c0.1-0.1,0.2-0.2,0.2-0.3
		c0.1-0.1,0.2-0.1,0.2-0.1c0.1,0,0.2,0,0.4,0c0.4,0,0.6,0,0.8,0.1c0.1,0.1,0.2,0.2,0.3,0.3c0,0,0,0.1,0,0.1s0,0.1,0,0.1v0
		c0,0.1,0,0.2,0,0.3c0,0.1,0,0.1-0.1,0.2c-0.1,0.3-0.4,0.7-0.9,1.3c-0.5,0.6-1.2,2-2.3,4.3c0.3-0.1,0.6-0.1,0.9-0.1
		c0.3,0,0.5,0,0.7,0c0.2,0,0.5,0,0.7,0c0.2,0,0.4,0,0.5,0.1c0.1-0.2,0.3-0.5,0.5-0.8c0.2-0.3,0.4-0.6,0.6-0.9
		c0.1-0.2,0.3-0.4,0.4-0.6c0.1-0.2,0.3-0.4,0.4-0.5c0.3-0.4,0.6-0.7,0.8-0.9c0.3-0.2,0.5-0.4,0.7-0.4c0.2,0,0.3,0.1,0.4,0.3
		s0.1,0.4,0.2,0.7c0,0.1,0,0.2,0,0.3c0,0.1,0,0.2,0,0.3c0,0.3,0,0.5,0,0.6c0,0.1-0.1,0.3-0.2,0.4c-0.1,0-0.1,0.1-0.2,0.1
		c-0.1,0.1-0.1,0.1-0.2,0.2c-0.1,0.1-0.3,0.3-0.4,0.4s-0.3,0.3-0.4,0.5c-0.2,0.2-0.4,0.4-0.5,0.6s-0.3,0.5-0.5,0.7
		c-0.2,0.3-0.4,0.6-0.6,1c-0.2,0.3-0.2,0.6-0.3,0.8c0,0,0,0.1,0,0.1s0,0.1,0,0.1c0,0,0,0,0,0.1c0,0,0,0,0,0c0,0,0,0,0,0.1s0,0,0,0.1
		c0.1,0.3,0.2,0.5,0.3,0.6c0.2,0.1,0.4,0.1,0.6,0.1c0.1,0,0.2,0,0.2,0c0.1,0,0.2,0,0.2,0c0.2,0,0.4-0.1,0.7-0.2
		c0.2-0.1,0.4-0.2,0.6-0.3c0.1-0.1,0.2-0.1,0.3-0.2c0.1-0.1,0.1-0.1,0.2-0.2c0,0,0.1-0.1,0.2-0.1c0.1-0.1,0.2-0.2,0.3-0.2
		c0,0,0,0,0.1-0.1c0.1-0.1,0.2-0.2,0.3-0.2c0.1-0.1,0.2-0.1,0.2-0.1c0.1,0,0.1,0,0.2,0.1c0,0.1,0.1,0.1,0.1,0.2v0v0
		c0,0.2-0.2,0.4-0.6,0.9c-0.4,0.4-0.8,0.9-1.4,1.4c-0.2,0.2-0.4,0.4-0.7,0.6c-0.2,0.2-0.5,0.4-0.7,0.6c-0.5,0.3-1,0.6-1.4,0.9
		s-0.8,0.3-1.2,0.3c-0.4,0-0.7-0.1-1-0.3c-0.2-0.2-0.4-0.4-0.5-0.6c0-0.1,0-0.2,0-0.2c0-0.1,0-0.2,0-0.2c0-0.3,0.1-0.7,0.2-1.4
		c0.2-0.6,0.7-1.8,1.5-3.3c-0.1,0-0.2,0-0.2,0s-0.2,0-0.3,0c-0.2,0-0.4,0-0.6,0c-0.2,0-0.4,0.1-0.6,0.1c-0.3,0.1-0.6,0.2-0.9,0.3
		s-0.6,0.3-0.8,0.4c-0.1,0.1-0.1,0.2-0.2,0.3c-0.1,0.1-0.1,0.2-0.2,0.3c0,0,0,0,0,0c-0.1,0.2-0.2,0.4-0.3,0.5
		c-0.1,0.2-0.2,0.4-0.3,0.6c-0.7,1.4-1.4,2.5-2,3.4c-0.6,0.9-1.2,1.4-1.6,1.4c-0.2,0-0.3-0.1-0.4-0.2c-0.1-0.1-0.2-0.3-0.2-0.4
		c0-0.1,0-0.2,0-0.2c0-0.1,0-0.1,0-0.2c0-0.3,0-0.6,0.1-0.9c0.1-0.3,0.2-0.7,0.3-1c0.3-0.7,0.6-1.3,1.1-2c0.4-0.6,0.9-1.2,1.3-1.7
		c0.2-0.2,0.4-0.4,0.6-0.6c0.2-0.2,0.4-0.3,0.6-0.5L307.1,11.3z"/>
	<path class="st0" d="M321.2,18.4c-0.2,0.3-0.4,0.5-0.7,0.8c-0.2,0.2-0.4,0.5-0.7,0.7c-0.2,0.2-0.4,0.4-0.7,0.6
		c-0.4,0.3-0.8,0.6-1.1,0.8c-0.4,0.2-0.7,0.3-1,0.3c-0.5,0-1-0.4-1.3-1.2c-0.4-0.8-0.5-1.8-0.5-2.9c0-0.4,0.1-0.8,0.3-1.3
		c0.2-0.5,0.4-1,0.7-1.5c0.3-0.6,0.6-1.1,1-1.6c0.4-0.5,0.8-0.9,1.2-1.3c0.3-0.3,0.6-0.5,0.9-0.7c0.3-0.2,0.6-0.3,0.9-0.3
		c0.3,0,0.6,0.1,0.9,0.2c0.2,0.1,0.4,0.3,0.4,0.5c0,0.2-0.1,0.5-0.3,0.8c-0.2,0.3-0.5,0.7-0.8,1.1c-0.2,0.2-0.4,0.4-0.6,0.6
		c-0.2,0.2-0.4,0.4-0.6,0.6c-0.2,0.2-0.4,0.3-0.6,0.4s-0.4,0.2-0.5,0.3c-0.1,0-0.1,0-0.1,0.1c0,0-0.1,0.1-0.1,0.1h0
		c-0.1,0-0.1,0.1-0.2,0.1c-0.1,0-0.1,0.1-0.2,0.1c-0.1,0.2-0.1,0.3-0.1,0.5c0,0.2,0,0.3,0,0.5c0,0.4,0.1,0.8,0.3,1
		c0.2,0.3,0.4,0.5,0.7,0.5c0.2,0,0.3,0,0.5-0.2c0.2-0.1,0.4-0.2,0.7-0.4c0.2-0.2,0.5-0.3,0.8-0.5c0.3-0.2,0.6-0.5,1.1-1l5.3-5.3
		c0,0,0,0,0.1-0.1c0,0,0,0,0.1-0.1c0-0.1,0.1-0.1,0.2-0.2s0.1-0.1,0.2-0.1c0,0,0.1,0,0.2,0c0.1,0,0.1,0.1,0.2,0.1
		c0.1,0.1,0.2,0.2,0.3,0.5c0.1,0.2,0.1,0.6,0.1,1c0,0,0,0.1,0,0.1s0,0.1,0,0.1c0,0.1,0,0.1,0,0.1c0,0,0,0.1,0,0.1c0,0,0,0.1-0.1,0.1
		l-2.7,2.9c-0.1,0.1-0.1,0.1-0.2,0.2c0,0.1-0.1,0.1-0.2,0.2c-0.2,0.2-0.3,0.5-0.5,0.8c-0.1,0.3-0.2,0.7-0.2,1.1
		c0,0.3,0.1,0.6,0.2,0.9s0.3,0.4,0.6,0.4c0.1,0,0.3,0,0.5-0.1c0.2-0.1,0.4-0.2,0.6-0.3c0.1-0.1,0.2-0.1,0.3-0.2
		c0.1-0.1,0.2-0.1,0.3-0.2c0.1,0,0.2-0.1,0.2-0.1c0.1,0,0.1-0.1,0.2-0.1c0,0,0.1,0,0.2-0.1c0.1-0.1,0.2-0.1,0.3-0.2
		c0.1-0.1,0.3-0.2,0.5-0.3c0,0,0,0,0,0s0,0,0,0c0,0,0.1,0,0.1,0.1c0,0,0,0.1,0,0.1c0,0.1-0.2,0.4-0.6,0.8s-0.9,0.9-1.4,1.3
		c-0.2,0.2-0.4,0.3-0.6,0.5c-0.2,0.2-0.4,0.3-0.6,0.4c-0.5,0.4-0.9,0.7-1.3,0.9c-0.4,0.2-0.8,0.3-1.1,0.3c0,0,0,0,0,0s0,0,0,0
		c-0.3,0-0.5-0.2-0.8-0.4c-0.2-0.2-0.4-0.7-0.4-1.2c0-0.2,0-0.4,0-0.7c0-0.3,0.1-0.6,0.1-0.8c0-0.2,0-0.4,0.1-0.5
		c0-0.2,0.1-0.3,0.1-0.5c0-0.1,0-0.1,0-0.2c0,0,0-0.1,0-0.1C321.6,17.9,321.4,18.1,321.2,18.4z"/>
</g>
</svg>
