<?xml version="1.0" encoding="utf-8"?>
<!-- Generator: Adobe Illustrator 21.0.2, SVG Export Plug-In . SVG Version: 6.00 Build 0)  -->
<svg version="1.1" id="Layer_1" xmlns="http://www.w3.org/2000/svg" xmlns:xlink="http://www.w3.org/1999/xlink" x="0px" y="0px"
	 viewBox="0 0 93.5 35.7" style="enable-background:new 0 0 93.5 35.7;" xml:space="preserve">
<style type="text/css">
	.st0{fill:#E3000F;}
</style>
<g>
	<path class="st0" d="M0,11.2c0-0.2,0-0.4,0-0.6c0-0.8,0.1-1.5,0.3-2c0.2-0.6,0.4-1,0.6-1.4C1,6.9,1.2,6.6,1.3,6.5
		c0.2-0.2,0.3-0.2,0.3-0.3C2,5.9,2.6,5.5,3.5,5c0.9-0.6,2-1.1,3.2-1.7C7.3,3,7.9,2.7,8.4,2.4C9,2.2,9.6,1.9,10.2,1.7
		c1.2-0.5,2.3-0.9,3.4-1.2C14.7,0.2,15.7,0,16.5,0c0.6,0,0.9,0.1,1.2,0.3C17.9,0.6,18,1,18,1.5c0,0.1,0,0.2,0,0.4
		C18,2,18,2.1,18,2.2c-0.1,0.5-0.2,0.9-0.5,1.4c-0.2,0.5-0.5,1-0.9,1.6c-2.1,3.5-3.8,6.1-5.2,7.7c-1.4,1.6-2.3,3-2.9,4.2
		c0,0.1-0.1,0.2-0.1,0.4c0,0.1-0.1,0.2-0.1,0.4c0,0,0,0.1-0.1,0.2c0,0.1,0,0.1-0.1,0.2c0,0.1,0,0.1,0,0.2c0,0.1,0,0.1,0,0.2
		c0,0.1,0,0.1,0,0.2c0,0.1,0.1,0.1,0.1,0.2c0.1,0.1,0.2,0.1,0.3,0.1c0.1,0,0.3,0,0.4,0c0.3,0,1.2-0.4,2.6-1.3c1.4-0.9,4.1-3.3,8-7.4
		c0.1-0.1,0.2-0.2,0.3-0.3c0.1-0.1,0.2-0.2,0.2-0.3c0,0,0.1-0.1,0.1-0.1c0,0,0.1,0,0.1-0.1c0.5-0.5,1-1,1.5-1.6
		c0.6-0.6,1.4-1.4,2.4-2.4c0.1,0,0.2,0.1,0.3,0.1c0.1,0,0.2,0.1,0.3,0.2c0.2,0.1,0.4,0.3,0.5,0.5c0.2,0.2,0.3,0.4,0.4,0.6
		c0,0.1,0,0.2,0.1,0.2c0,0.1,0,0.2,0,0.2c0,0,0,0.1,0,0.1s0,0.1,0,0.1c0,0.1,0,0.1-0.1,0.2s-0.1,0.1-0.2,0.2c-1.2,1.6-2.2,3-3.1,4.4
		c-0.9,1.3-1.7,2.6-2.5,3.8c-0.6,1-1.2,2-1.7,3.1s-1.1,2.1-1.6,3.3c-0.3,0.7-0.6,1.4-0.9,2.1c-0.3,0.7-0.6,1.5-0.9,2.3
		c0.2-0.2,0.5-0.4,0.7-0.6c0.3-0.2,0.5-0.4,0.8-0.6c0.3-0.2,0.7-0.5,1-0.7c0.4-0.3,0.7-0.5,1.1-0.7c0.6-0.3,1.1-0.6,1.7-0.9
		c0.5-0.3,1-0.4,1.5-0.5c0,0,0.1,0,0.1,0c0,0,0.1,0,0.1,0c0,0,0,0,0.1,0c0.1,0,0.2,0,0.3-0.1c0.1,0,0.2,0,0.3,0c0.1,0,0.1,0,0.2,0
		c0,0,0.1,0,0.1,0.1c0,0.2-0.3,0.5-1,1c-0.6,0.5-2,1.6-4,3.4c-3,2.6-4.9,4.6-5.8,6c-0.9,1.4-1.5,2.1-1.9,2.1c-0.1,0-0.3,0-0.5-0.1
		c-0.2-0.1-0.3-0.2-0.5-0.3C9,35.1,8.8,35,8.7,34.7c-0.2-0.2-0.3-0.5-0.4-0.8c0.2-1.2,0.7-2.6,1.4-4.4s2.2-4.4,4.4-8
		c1.6-2.6,2.5-4.3,2.8-5c0.3-0.7,0.5-1,0.5-1.1c0-0.1-0.6,0.4-1.7,1.5c-1.2,1.2-2.5,2.5-4.1,4c-0.4,0.3-0.8,0.7-1.2,1
		c-0.4,0.3-0.8,0.7-1.2,1c-0.4,0.4-0.9,0.7-1.3,1c-0.4,0.3-0.9,0.6-1.3,0.9c-0.1,0.1-0.2,0.2-0.4,0.3c-0.1,0.1-0.3,0.1-0.4,0.2
		c-0.1,0-0.3,0.1-0.4,0.1c-0.1,0-0.3,0-0.4,0c-0.5,0-0.9-0.1-1.3-0.4S3.1,24.7,3,24.4c-0.1-0.1-0.1-0.2-0.1-0.3c0-0.1,0-0.2,0-0.3
		c0-0.6,0.3-1.5,0.9-2.8c0.6-1.2,1.4-2.5,2.2-3.8c0.2-0.3,0.4-0.5,0.6-0.8c0.2-0.3,0.4-0.6,0.5-0.8c0.6-0.9,1.2-1.8,1.8-2.6
		c0.6-0.8,1.1-1.5,1.5-2c0.2-0.2,0.4-0.5,0.6-0.8c0.2-0.3,0.5-0.7,0.7-1c0.1-0.1,0.1-0.3,0.2-0.4c0.1-0.1,0.2-0.3,0.3-0.4
		c0.4-0.6,0.7-1.1,0.9-1.7c0.3-0.5,0.4-0.9,0.4-1.2c0-0.1,0-0.2-0.1-0.2S13.2,5.1,13,5.1c-0.5,0-1.3,0.3-2.5,0.9
		C9.3,6.6,8,7.3,6.7,8C6.5,8.1,6.3,8.2,6.2,8.3C6,8.4,5.9,8.5,5.7,8.5C4.4,9.3,3.2,10,2.1,10.6c-1.1,0.6-1.8,1.1-2.1,1.2
		C0,11.6,0,11.4,0,11.2z"/>
	<path class="st0" d="M23.8,19.5c0.2-0.6,0.6-1.2,1-1.8c0.7-1.1,1.7-2.2,2.9-3.2c1.2-1,2.4-1.7,3.7-2.1c0.3-0.1,0.6-0.2,1-0.2
		c0.3-0.1,0.7-0.1,1-0.1c0.1,0,0.1,0,0.2,0c0.1,0,0.2,0,0.2,0c0.2,0,0.5,0.2,0.7,0.3c0.2,0.2,0.3,0.4,0.3,0.7c0,0.3-0.1,0.6-0.3,1
		c-0.2,0.4-0.4,0.8-0.6,1.2c-0.1,0.2-0.3,0.5-0.5,0.7c-0.2,0.2-0.3,0.5-0.5,0.7c-0.3,0.4-0.7,0.8-1,1c-0.3,0.3-0.5,0.4-0.7,0.4
		c-0.1,0-0.2,0-0.2-0.1c-0.1-0.1-0.1-0.2-0.2-0.3c0,0,0-0.1-0.1-0.1c0,0,0-0.1-0.1-0.1c0,0,0-0.1,0-0.1s0-0.1-0.1-0.2
		c0-0.1-0.1-0.1-0.2-0.2c-0.1-0.1-0.1-0.1-0.2-0.1c0,0-0.1,0-0.1,0c0,0,0,0-0.1,0c0,0,0,0-0.1,0s0,0-0.1,0c0,0,0,0-0.1,0
		c0,0,0,0-0.1,0c0,0,0,0-0.1,0c-0.2,0-0.5,0.2-0.8,0.4c-0.3,0.2-0.7,0.4-1,0.7c-0.3,0.3-0.7,0.6-1,1c-0.3,0.3-0.6,0.7-0.8,1.1
		c-0.2,0.3-0.3,0.5-0.4,0.8c-0.1,0.3-0.1,0.5-0.1,0.8c0,0,0,0.1,0,0.2c0,0.1,0,0.1,0,0.2c0.1,0.5,0.3,0.9,0.8,1.3
		c0.5,0.4,1.2,0.6,2.2,0.6c0.6,0,1.2-0.1,1.7-0.3s1-0.4,1.4-0.6c0.2-0.1,0.3-0.2,0.5-0.3c0.2-0.1,0.3-0.2,0.4-0.3
		c0.9-0.6,1.5-1,1.8-1.3c0.3-0.3,0.5-0.4,0.7-0.5c0,0,0,0,0.1,0c0,0,0,0,0.1,0s0,0,0.1,0c0,0,0,0,0.1,0c0,0,0.1,0.1,0.1,0.1
		c0,0,0.1,0.1,0.1,0.2c0,0.1-0.2,0.4-0.5,0.8c-0.3,0.4-1.2,1.3-2.7,2.6c-0.1,0.1-0.2,0.2-0.4,0.3s-0.3,0.2-0.4,0.3
		c-0.6,0.5-1.3,0.9-2,1.3c-0.7,0.4-1.5,0.6-2.2,0.6c-1,0-1.7-0.3-2.3-1c-0.6-0.6-1-1.3-1.3-2.1c-0.2-0.5-0.3-1-0.4-1.5
		c-0.1-0.5-0.1-0.8-0.1-1.1C23.4,20.6,23.6,20.1,23.8,19.5z"/>
	<path class="st0" d="M45.6,18.3c-0.6,0.3-1.4,0.7-2.3,1.4c-0.9,0.7-2.2,2-4,3.9c0,0-0.1,0.1-0.1,0.1c0,0-0.1,0.1-0.1,0.1
		c-0.4,0.5-0.8,0.9-1.2,1.2c-0.4,0.4-0.7,0.5-1,0.5c0,0,0,0-0.1,0s0,0-0.1,0c-0.3,0-0.6-0.3-0.8-0.7c-0.3-0.4-0.4-0.9-0.4-1.4
		c0-0.3,0-0.6,0.1-0.9c0.1-0.3,0.2-0.7,0.3-1c0.2-0.5,0.4-0.9,0.6-1.4c0.3-0.4,0.5-0.8,0.8-1.1c0.1-0.2,0.3-0.3,0.4-0.4
		c0.1-0.1,0.3-0.1,0.4-0.1s0.2,0,0.3,0.1c0.1,0,0.1,0.1,0.1,0.1c0,0,0,0.1-0.1,0.2c0,0.1-0.1,0.2-0.1,0.3c-0.2,0.4-0.3,0.7-0.3,1.1
		c0,0.3-0.1,0.6-0.1,0.9c0,0.1,0,0.1,0,0.2s0,0.1,0,0.2c0,0,0,0.1,0,0.1c0,0,0,0.1,0,0.1c0,0,0,0.1,0,0.1c0,0,0,0.1,0,0.1
		c0,0.1,0.1,0.3,0.1,0.4c0,0.1,0.1,0.2,0.2,0.2c0.3,0,0.8-0.6,1.7-1.7c0.9-1.1,2.1-2.4,3.6-3.7c0.2-0.2,0.5-0.4,0.8-0.7
		c0.3-0.3,0.7-0.6,1.1-0.9c0.1-0.1,0.2-0.1,0.3-0.2c0.1-0.1,0.2-0.2,0.3-0.2c0.6-0.4,1.1-0.8,1.6-1.1c0.5-0.3,0.9-0.5,1.1-0.5
		c0.2,0,0.3,0.1,0.5,0.3c0.1,0.2,0.3,0.5,0.3,0.7c0.1,0.2,0.1,0.3,0.1,0.5c0,0.2,0,0.3,0,0.4c0,0.1-0.1,0.3-0.2,0.5
		c-0.1,0.2-0.3,0.4-0.4,0.6c0,0-0.1,0.1-0.1,0.1c0,0-0.1,0.1-0.1,0.1c-0.2,0.2-0.3,0.3-0.5,0.5s-0.3,0.3-0.3,0.4
		c-0.1,0.1-0.2,0.3-0.3,0.4c-0.1,0.1-0.2,0.3-0.3,0.4c-0.1,0.2-0.3,0.4-0.4,0.6c-0.1,0.2-0.3,0.4-0.4,0.6c-0.1,0.3-0.3,0.5-0.4,0.8
		c-0.1,0.3-0.1,0.5-0.1,0.8c0,0,0,0.1,0,0.1s0,0.1,0,0.1c0,0.2,0.1,0.3,0.3,0.5c0.2,0.1,0.4,0.2,0.8,0.2c0.2,0,0.4,0,0.6-0.1
		c0.2-0.1,0.4-0.2,0.7-0.4c0.2-0.1,0.3-0.2,0.5-0.3c0.2-0.1,0.3-0.3,0.5-0.4c0.1-0.1,0.3-0.2,0.4-0.4c0.1-0.1,0.2-0.2,0.3-0.3
		c0.1-0.1,0.2-0.2,0.3-0.3c0.1-0.1,0.2-0.1,0.3-0.1c0.1,0,0.1,0,0.2,0.1c0.1,0.1,0.1,0.2,0.1,0.3c0,0.2-0.1,0.4-0.4,0.7
		c-0.3,0.3-0.7,0.8-1.2,1.4c-0.1,0.2-0.4,0.4-0.7,0.7c-0.3,0.3-0.7,0.6-1.1,1c-0.2,0.1-0.3,0.3-0.5,0.4c-0.2,0.1-0.3,0.3-0.5,0.4
		c-0.4,0.3-0.8,0.5-1.2,0.7c-0.4,0.2-0.7,0.3-1,0.3c0,0,0,0-0.1,0s0,0-0.1,0c-0.5,0-0.9-0.3-1.2-0.7c-0.4-0.4-0.6-1.1-0.6-2.1
		c0-0.5,0.1-1,0.3-1.4c0.2-0.4,0.4-0.8,0.6-1.1c0.1-0.1,0.1-0.2,0.2-0.3c0.1-0.1,0.1-0.2,0.2-0.3c0.1-0.1,0.1-0.2,0.2-0.3
		c0.1-0.1,0.1-0.2,0.2-0.3c0,0,0-0.1,0.1-0.1c0.1-0.2,0.3-0.4,0.4-0.6C45.2,18.8,45.4,18.6,45.6,18.3C45.7,18.3,45.6,18.3,45.6,18.3
		z"/>
	<path class="st0" d="M54.2,19.9c-0.1,0.2-0.2,0.4-0.2,0.6c0,0.1,0,0.2-0.1,0.3c0,0.1,0,0.2,0,0.3c0,0.2,0,0.4,0.1,0.6
		c0.1,0.2,0.2,0.3,0.3,0.3c0,0,0,0,0.1,0s0,0,0.1,0c0.1,0,0.2-0.1,0.5-0.2c0.3-0.2,0.6-0.3,0.9-0.6c0,0,0.1-0.1,0.1-0.1
		c0.3-0.2,0.6-0.4,0.8-0.5c0.2-0.2,0.4-0.3,0.5-0.3c1.7-1.3,3.2-2.5,4.4-3.7c1.2-1.2,2.4-2.4,3.5-3.5c0.1-0.1,0.2-0.2,0.3-0.3
		c0.1,0,0.2-0.1,0.2-0.1c0.2,0,0.3,0.1,0.5,0.3s0.2,0.4,0.3,0.7c0,0.1,0,0.1,0,0.2c0,0.1,0,0.1,0,0.2c0,0.3,0,0.5-0.1,0.7
		c-0.1,0.2-0.2,0.4-0.3,0.6c0,0.1-0.1,0.2-0.1,0.3c0,0.1-0.1,0.2-0.1,0.2l-5.2,8.3c-0.2,0.3-0.4,0.6-0.5,0.7
		c-0.1,0.1-0.1,0.2-0.2,0.3c0,0,0,0.1,0,0.1c0,0,0,0,0,0.1c0,0,0,0,0,0.1h0c0,0,0,0,0.1,0.1c0,0,0,0,0.1,0s0,0,0.1,0
		c0.1,0,0.2,0,0.3-0.1c0.1,0,0.2-0.1,0.4-0.3l4.9-4.2c0.1-0.1,0.2-0.2,0.3-0.3c0.1-0.1,0.2-0.1,0.3-0.2c0,0,0,0,0.1-0.1
		c0,0,0,0,0.1,0c0,0,0.1,0,0.2,0c0.1,0,0.1,0,0.2,0c0,0,0.1,0.1,0.1,0.1c0,0,0.1,0.1,0.1,0.1c0,0,0,0.1,0,0.1c0,0,0,0.1-0.1,0.1
		s0,0.1-0.1,0.1c0,0,0,0.1-0.1,0.1c0,0,0,0-0.1,0.1c0,0,0,0-0.1,0.1l-6.3,6.6c-0.1,0-0.2,0.1-0.2,0.2c-0.1,0.1-0.2,0.2-0.2,0.2
		c-1.3,1.5-2.5,2.8-3.5,4.1c-1,1.2-1.6,1.8-2,1.8c-0.1,0-0.3-0.1-0.3-0.4c-0.1-0.3-0.1-0.6-0.1-0.9c0-0.2,0-0.4,0-0.6
		c0-0.2,0-0.4,0-0.5c0,0,0-0.1,0-0.1c0,0,0-0.1,0-0.1c0-0.3,0.2-0.6,0.4-0.9c0.2-0.3,0.5-0.8,0.9-1.5l3.4-6.1
		c0.1-0.3,0.2-0.5,0.2-0.7c0-0.2-0.2-0.2-0.4,0c-0.1,0.1-0.4,0.3-0.8,0.6c-0.4,0.3-0.8,0.6-1.2,0.9c-0.1,0.1-0.2,0.1-0.3,0.2
		c-0.1,0.1-0.2,0.1-0.3,0.2c-0.5,0.3-0.9,0.6-1.4,0.9c-0.4,0.3-0.8,0.4-1,0.4c-0.1,0-0.2,0-0.3-0.1c-0.1-0.1-0.2-0.2-0.3-0.3
		c-0.2-0.2-0.3-0.5-0.5-0.8c-0.2-0.3-0.3-0.6-0.5-1c-0.2-0.4-0.3-0.8-0.4-1.1c-0.1-0.4-0.1-0.6-0.1-0.8c0-0.8,0.1-1.6,0.4-2.3
		s0.6-1.4,1.1-2.1c0.1-0.1,0.2-0.3,0.3-0.4c0.1-0.1,0.2-0.3,0.3-0.4c0.1-0.2,0.3-0.4,0.7-0.8c0.3-0.4,0.7-0.8,1.2-1.2
		c0.1-0.1,0.3-0.3,0.4-0.4c0.1-0.1,0.3-0.3,0.4-0.4c0.5-0.4,0.9-0.7,1.3-1c0.4-0.3,0.7-0.4,1-0.4c0.3,0,0.5,0.1,0.8,0.3
		c0.2,0.2,0.4,0.3,0.5,0.5c0,0.1,0.1,0.1,0.1,0.2c0,0.1,0,0.1,0,0.2c0,0.2-0.2,0.6-0.5,1.1c-0.3,0.5-0.7,1.1-1.2,1.6
		c-0.3,0.3-0.6,0.7-0.9,1c-0.3,0.3-0.6,0.6-0.9,0.9c-0.3,0.2-0.6,0.5-0.8,0.6c-0.3,0.2-0.5,0.3-0.8,0.4
		C54.5,19.3,54.3,19.6,54.2,19.9z"/>
	<path class="st0" d="M76.7,14.3c0,0.1,0.1,0.1,0.1,0.2c0,0.1,0,0.2,0,0.3c0,0.3-0.1,0.6-0.3,0.9c-0.2,0.3-0.4,0.6-0.6,0.9
		c-0.1,0.1-0.2,0.2-0.3,0.4s-0.2,0.2-0.3,0.3c0,0-0.1,0.1-0.1,0.1c0,0-0.1,0.1-0.1,0.1c-0.1,0.1-0.1,0.2-0.2,0.3
		c-0.1,0.1-0.2,0.2-0.2,0.3c-0.3,0.4-0.7,0.8-1,1.3c-0.3,0.5-0.5,0.9-0.7,1.4c0,0.1-0.1,0.3-0.1,0.4c0,0.1,0,0.3,0,0.4
		c0,0.5,0.1,0.8,0.4,0.9c0.3,0.1,0.6,0.2,0.9,0.2c0,0,0.1,0,0.1,0s0.1,0,0.1,0c0.2,0,0.3,0,0.5-0.1c0.2-0.1,0.4-0.2,0.6-0.3
		c0.1-0.1,0.2-0.1,0.4-0.2c0.1-0.1,0.2-0.2,0.4-0.3c0.2-0.1,0.4-0.3,0.5-0.4c0.2-0.1,0.3-0.2,0.4-0.3c0.2-0.2,0.4-0.3,0.5-0.4
		c0.1,0,0.2-0.1,0.2-0.1c0,0,0,0,0.1,0s0,0,0.1,0.1c0,0,0,0,0,0.1c0,0.1-0.1,0.4-0.4,0.7c-0.3,0.3-0.5,0.7-0.9,1
		c-0.1,0.1-0.1,0.1-0.2,0.2c-0.1,0.1-0.1,0.1-0.2,0.2c-0.3,0.3-0.5,0.5-0.8,0.7c-0.2,0.2-0.4,0.4-0.6,0.6c-0.1,0.1-0.3,0.3-0.6,0.5
		c-0.2,0.2-0.5,0.4-0.8,0.6c-0.4,0.3-0.9,0.6-1.4,0.8c-0.5,0.3-1.1,0.4-1.6,0.5c0,0-0.1,0-0.2,0c-0.1,0-0.1,0-0.2,0
		c-0.6,0-1-0.2-1.3-0.6c-0.3-0.4-0.5-0.9-0.5-1.5c0-0.8,0.3-1.7,1-2.7c0.7-1,1.8-2.3,3.3-3.9c0.1-0.1,0.1-0.1,0.2-0.2
		c0.1-0.1,0.1-0.1,0.2-0.2c0.1-0.1,0.2-0.2,0.3-0.4c0.1-0.1,0.2-0.2,0.2-0.3c0-0.1,0.1-0.2,0.1-0.3c0-0.1,0.1-0.2,0.1-0.3
		c0-0.1,0-0.2-0.1-0.3c-0.1,0-0.1-0.1-0.2-0.1c0,0-0.1,0-0.1,0s-0.1,0-0.1,0c-0.2,0-0.6,0.1-1.1,0.2c-0.6,0.1-1.3,0.5-2.3,1.2
		c-0.7,0.5-1.3,0.9-1.6,1.2c-0.3,0.3-0.5,0.5-0.7,0.7c-0.1,0-0.1,0.1-0.2,0.1c-0.1,0-0.1,0-0.2,0c-0.1,0-0.2,0-0.2-0.1
		c-0.1,0-0.1-0.1-0.1-0.1c0,0,0,0,0-0.1c0,0,0,0,0-0.1c0-0.2,0.2-0.5,0.5-0.9s0.7-0.8,1.2-1.3c0.1-0.1,0.3-0.3,0.5-0.4
		s0.3-0.3,0.5-0.5c0.3-0.2,0.5-0.5,0.8-0.6c0.3-0.2,0.5-0.4,0.7-0.5c0.1,0,0.1-0.1,0.2-0.1c0.1,0,0.2-0.1,0.2-0.1
		c0.7-0.5,1.5-0.8,2.1-1.1c0.7-0.3,1.3-0.4,1.7-0.4c0.2,0,0.4,0,0.5,0.1c0.1,0.1,0.3,0.2,0.3,0.3L76.7,14.3z"/>
	<path class="st0" d="M85.1,21.8c-0.3,0.3-0.5,0.6-0.8,0.9c-0.3,0.3-0.5,0.6-0.8,0.8c-0.3,0.3-0.5,0.5-0.8,0.8
		c-0.5,0.4-0.9,0.7-1.4,1c-0.5,0.3-0.9,0.4-1.2,0.4c-0.6,0-1.1-0.5-1.6-1.5c-0.4-1-0.6-2.1-0.6-3.4c0-0.4,0.1-0.9,0.3-1.5
		c0.2-0.6,0.5-1.2,0.9-1.8c0.4-0.7,0.8-1.3,1.3-1.9c0.5-0.6,1-1.1,1.5-1.6c0.4-0.4,0.8-0.6,1.1-0.8c0.4-0.2,0.7-0.3,1.1-0.3
		c0.4,0,0.8,0.1,1.1,0.3c0.3,0.2,0.4,0.3,0.4,0.5c0,0.2-0.1,0.6-0.4,1c-0.3,0.4-0.6,0.8-1,1.3c-0.2,0.2-0.5,0.5-0.7,0.7
		s-0.5,0.5-0.7,0.7c-0.2,0.2-0.5,0.4-0.7,0.5c-0.2,0.2-0.4,0.3-0.6,0.4c-0.1,0-0.1,0.1-0.2,0.1c0,0-0.1,0.1-0.1,0.1h0
		c-0.1,0-0.1,0.1-0.2,0.1c-0.1,0-0.2,0.1-0.3,0.2c-0.1,0.2-0.1,0.4-0.2,0.6c0,0.2-0.1,0.4-0.1,0.6c0,0.5,0.1,0.9,0.3,1.3
		c0.2,0.4,0.5,0.5,0.8,0.5c0.2,0,0.4-0.1,0.6-0.2c0.2-0.1,0.5-0.3,0.9-0.5c0.3-0.2,0.6-0.4,0.9-0.6c0.3-0.2,0.8-0.6,1.3-1.2l6.4-6.3
		c0,0,0,0,0.1-0.1c0,0,0,0,0.1-0.1c0-0.1,0.1-0.1,0.2-0.2c0.1,0,0.2-0.1,0.3-0.1c0,0,0.1,0,0.2,0c0.1,0,0.1,0.1,0.2,0.1
		c0.1,0.1,0.2,0.3,0.3,0.6c0.1,0.3,0.2,0.7,0.2,1.2c0,0,0,0.1,0,0.2c0,0.1,0,0.1,0,0.2c0,0.1,0,0.1,0,0.2c0,0,0,0.1-0.1,0.1
		c0,0,0,0.1-0.1,0.1l-3.2,3.5c-0.1,0.1-0.1,0.1-0.2,0.2c-0.1,0.1-0.1,0.2-0.2,0.3c-0.2,0.3-0.4,0.6-0.5,1c-0.2,0.4-0.3,0.8-0.3,1.3
		c0,0.4,0.1,0.7,0.2,1c0.1,0.3,0.4,0.4,0.7,0.4c0.2,0,0.4,0,0.6-0.1c0.3-0.1,0.5-0.2,0.7-0.3c0.1-0.1,0.3-0.1,0.4-0.2
		c0.1-0.1,0.3-0.1,0.4-0.2c0.1,0,0.2-0.1,0.3-0.2c0.1-0.1,0.2-0.1,0.2-0.2c0,0,0.1,0,0.2-0.1c0.1-0.1,0.2-0.1,0.3-0.2
		c0.1-0.1,0.3-0.2,0.5-0.3c0,0,0,0,0.1,0c0,0,0,0,0.1,0c0,0,0.1,0.1,0.1,0.1s0.1,0.1,0.1,0.2c0,0.1-0.2,0.4-0.7,0.9
		c-0.5,0.5-1,1-1.7,1.6c-0.2,0.2-0.4,0.4-0.7,0.6c-0.2,0.2-0.5,0.4-0.7,0.5c-0.6,0.4-1.1,0.8-1.6,1s-1,0.4-1.3,0.4c0,0,0,0-0.1,0
		c0,0,0,0-0.1,0c-0.3,0-0.6-0.2-0.9-0.5s-0.4-0.8-0.4-1.5c0-0.2,0-0.5,0.1-0.9c0-0.3,0.1-0.7,0.2-1c0-0.2,0.1-0.4,0.1-0.6
		c0-0.2,0.1-0.4,0.1-0.6c0-0.1,0-0.1,0-0.2c0-0.1,0-0.1,0.1-0.2C85.6,21.2,85.4,21.5,85.1,21.8z"/>
</g>
</svg>
