<?xml version="1.0" encoding="utf-8"?>
<!-- Generator: Adobe Illustrator 21.0.2, SVG Export Plug-In . SVG Version: 6.00 Build 0)  -->
<svg version="1.1" id="Capa_1" xmlns="http://www.w3.org/2000/svg" xmlns:xlink="http://www.w3.org/1999/xlink" x="0px" y="0px"
	 viewBox="0 0 512 512" style="enable-background:new 0 0 512 512;" xml:space="preserve">
<g>
	<g>
		<path d="M256,174.6c-44.9,0-81.4,36.5-81.4,81.4s36.5,81.4,81.4,81.4s81.4-36.5,81.4-81.4S300.9,174.6,256,174.6z"/>
	</g>
</g>
<g>
	<g>
		<path d="M461,0H51C22.8,0,0,22.8,0,51v410c0,28.2,22.8,51,51,51h410c28.2,0,51-22.8,51-51V51C512,22.8,489.2,0,461,0z
			 M320.6,348.8c-108.5,63.9-221.3-49-157.5-157.5c6.8-11.6,16.6-21.3,28.2-28.2c108.5-63.9,221.3,49,157.5,157.5
			C342,332.3,332.3,342,320.6,348.8z M411.2,122c-2.8,2.8-6.6,4.4-10.6,4.4s-7.8-1.6-10.6-4.4c-2.8-2.8-4.4-6.7-4.4-10.6
			s1.6-7.8,4.4-10.6c2.8-2.8,6.7-4.4,10.6-4.4s7.8,1.6,10.6,4.4c2.8,2.8,4.4,6.7,4.4,10.6S414,119.2,411.2,122z"/>
	</g>
</g>
</svg>
