<?xml version="1.0" encoding="utf-8"?>
<!-- Generator: Adobe Illustrator 21.0.2, SVG Export Plug-In . SVG Version: 6.00 Build 0)  -->
<svg version="1.1" id="Layer_1" xmlns="http://www.w3.org/2000/svg" xmlns:xlink="http://www.w3.org/1999/xlink" x="0px" y="0px"
	 viewBox="0 0 88 39" style="enable-background:new 0 0 88 39;" xml:space="preserve">
<style type="text/css">
	.st0{fill:#003F6F;}
</style>
<g id="Layer_2">
	<g id="Layer_1-2">
		<path class="st0" d="M0,32.2l0.6,0h86.6c0.2,0,0.2,0.1,0.2,0.2c0,0.1,0,0.3-0.2,0.3H0V32.2z"/>
		<path class="st0" d="M59.3,39c-1.2-0.7-1.5-1.8-1.2-3c0.2-0.9,0.9-1.5,1.9-1.5c1,0,1.7,0.5,1.9,1.5c0.2,0.8,0.1,1.6-0.3,2.3
			c-0.2,0.4-0.6,0.5-1,0.7L59.3,39z M61.1,36.7c0-0.9-0.4-1.4-1.1-1.5c-0.6,0-1.1,0.6-1.1,1.5s0.4,1.5,1.2,1.5
			C60.7,38.2,61.1,37.6,61.1,36.7z"/>
		<path class="st0" d="M45.6,39c-1.2-0.7-1.6-1.6-1.3-3c0.2-1,1-1.6,2-1.5c1.1,0,1.7,0.7,1.8,1.7c0.1,0.4,0,0.9,0,1.3
			c-0.1,0.7-0.6,1.2-1.3,1.5L45.6,39z M45.1,36.7c0,0.2,0,0.5,0.1,0.7c0.2,0.5,0.5,0.8,1,0.8s0.8-0.3,1-0.7c0.2-0.5,0.2-1.1,0-1.6
			c-0.1-0.4-0.5-0.6-0.9-0.6c-0.4,0-0.7,0.1-0.9,0.5C45.2,36,45.1,36.4,45.1,36.7L45.1,36.7z"/>
		<path class="st0" d="M81.3,39c-1.2-0.7-1.6-1.8-1.2-3.1c0.2-0.8,0.8-1.3,1.5-1.3c0.9-0.1,1.6,0.2,1.9,1c0.1,0.2,0.3,0.4,0,0.5
			c-0.2,0.1-0.7,0.2-0.8-0.1c-0.2-0.4-0.5-0.6-1-0.5s-0.7,0.4-0.8,0.9c-0.1,0.5-0.1,0.9,0.1,1.4c0.1,0.4,0.4,0.6,0.8,0.6
			c0.4,0,0.7-0.2,0.8-0.5c0.1-0.2,0.7-0.4,0.9-0.3c0.2,0.1,0.1,0.2,0,0.2c-0.1,0.7-0.6,1-1.1,1.3L81.3,39z"/>
		<path class="st0" d="M14.5,39c-1.2-0.8-1.5-1.8-1.2-3.1c0.2-0.8,0.8-1.3,1.6-1.4c0.9-0.1,1.6,0.3,1.9,1c0.1,0.1,0.3,0.4,0,0.5
			s-0.6,0.2-0.8-0.1c-0.2-0.3-0.6-0.7-1-0.6c-0.5,0.1-0.7,0.5-0.8,1c-0.1,0.4-0.1,0.8,0.1,1.2c0.1,0.4,0.4,0.7,0.8,0.7
			c0.4,0,0.7-0.2,0.8-0.6c0.1-0.2,0.7-0.4,0.9-0.2c0.2,0.1,0,0.2,0,0.3c-0.2,0.6-0.6,1-1.1,1.3L14.5,39z"/>
		<path class="st0" d="M55.1,39c-1.2-0.8-1.7-2-1.1-3.4c0.3-0.7,0.8-1.1,1.6-1.1c0.8,0,1.4,0.2,1.7,0.9c0.1,0.2,0.3,0.4,0.1,0.5
			c-0.2,0.1-0.7,0.2-0.8-0.1c-0.2-0.3-0.5-0.6-1-0.5c-0.5,0.1-0.7,0.5-0.8,0.9c-0.1,0.4-0.1,0.9,0.1,1.3c0.1,0.4,0.4,0.6,0.8,0.6
			c0.4,0,0.7-0.1,0.8-0.5s0.6-0.2,0.9-0.3c0,0.8-0.6,1.2-1.1,1.6L55.1,39z"/>
		<path class="st0" d="M0,34.5c0.1,0.1,0.3,0.1,0.5,0.1c0.9,0,1.7,0,2.6,0c0.3,0,0.3,0.2,0.3,0.4s0.1,0.4-0.3,0.4s-0.7-0.1-0.9,0.1
			s-0.1,0.7-0.1,1c0,0.6,0,1.3,0,1.9c0,0.4,0,0.5-0.5,0.5s-0.4-0.2-0.4-0.5c0-0.9,0-1.7,0-2.6c0-0.4-0.1-0.5-0.5-0.5
			c-0.4,0-0.5,0-0.8,0L0,34.5z"/>
		<path class="st0" d="M70.5,35.8c-0.2,0.9-0.4,1.7-0.6,2.6c-0.1,0.4-0.2,0.5-0.6,0.5c-0.4,0-0.5-0.2-0.5-0.5
			c-0.2-0.8-0.4-1.6-0.6-2.4c0,0.8,0,1.7,0,2.5c0,0.4-0.1,0.4-0.4,0.4c-0.3,0-0.4,0-0.4-0.4c0-1.2,0-2.3,0-3.5
			c0-0.3,0.1-0.4,0.4-0.4c0.9,0,0.9,0,1.1,0.9l0.5,2.3c0.2-0.6,0.3-1.1,0.4-1.7c0.1-0.2,0.1-0.4,0.1-0.6c0.2-0.9,0.3-1,1.2-0.9
			c0.2,0,0.2,0.1,0.2,0.2c0,1.3,0,2.5,0,3.8c0,0.4-0.3,0.2-0.5,0.2s-0.3,0-0.3-0.3C70.6,37.7,70.6,36.8,70.5,35.8L70.5,35.8z"/>
		<path class="st0" d="M27.9,37.9c0.2-1,0.5-1.9,0.6-2.8c0.1-0.4,0.2-0.5,0.6-0.5c0.8,0,0.8,0,0.8,0.8c0,1,0,2,0,3.1
			c0,0.4-0.1,0.4-0.5,0.4s-0.4-0.1-0.4-0.4c0-0.8,0-1.7-0.1-2.5c-0.2,0.8-0.4,1.6-0.5,2.4c-0.1,0.4-0.3,0.6-0.7,0.5
			c-0.4,0-0.4-0.1-0.4-0.4c-0.2-0.9-0.4-1.8-0.7-2.7c0,0.9,0,1.8,0,2.7c0,0.3-0.1,0.4-0.4,0.4c-0.3,0-0.4-0.1-0.4-0.4
			c0-1.2,0-2.3,0-3.5c0-0.3,0.1-0.4,0.3-0.4c0.9,0,0.9,0,1.1,0.9C27.5,36.3,27.7,37,27.9,37.9z"/>
		<path class="st0" d="M63.4,35.8c0,0.9,0,1.8,0,2.7c0,0.3-0.1,0.4-0.4,0.4c-0.3,0-0.4,0-0.4-0.4c0-1.2,0-2.3,0-3.5
			c0-0.4,0.1-0.4,0.4-0.4c0.9,0,0.9,0,1.1,0.8c0.2,0.8,0.4,1.5,0.6,2.2c0.2-0.9,0.4-1.8,0.6-2.7c0.1-0.3,0.2-0.4,0.5-0.4
			c0.9,0,0.9,0,0.9,0.8c0,1,0,2,0,3.1c0,0.4-0.2,0.4-0.4,0.4s-0.4,0-0.4-0.4c0-0.9,0-1.8-0.1-2.6c-0.2,0.8-0.4,1.7-0.5,2.5
			c-0.1,0.4-0.2,0.5-0.6,0.5c-0.4,0-0.4-0.1-0.5-0.4C63.9,37.6,63.7,36.7,63.4,35.8L63.4,35.8z"/>
		<path class="st0" d="M33.6,36.6c0.6,0.4,0.6,0.9,0.5,1.4s-0.6,0.8-1.2,0.9c-0.6,0-1.2,0-1.9,0c-0.2,0-0.3-0.1-0.3-0.3
			c0-1.2,0-2.5,0-3.7c0-0.3,0.1-0.3,0.3-0.3h1.7c0.5,0,1,0.1,1.2,0.6C34.1,35.8,34,36.2,33.6,36.6z M32.2,38.1c0.2,0,0.4,0,0.6,0
			c0.2,0,0.4-0.2,0.4-0.4c0-0.2,0-0.4-0.2-0.6c-0.4-0.2-0.9-0.1-1.4-0.1c-0.1,0-0.1,0.1-0.1,0.1C31.3,37.8,31.6,38.1,32.2,38.1z
			 M32.2,35.4h-0.4c-0.2,0-0.3,0.1-0.2,0.3c0,0.2-0.2,0.6,0.2,0.6c0.4,0.1,0.8,0.1,1.2-0.1c0.2-0.1,0.3-0.2,0.2-0.4
			c0-0.2-0.1-0.4-0.3-0.4c0,0,0,0,0,0L32.2,35.4z"/>
		<path class="st0" d="M42.1,38.9c-1.2,0-1.1,0.2-1.1-0.9c0-0.6-0.8-1.1-1.4-0.8c-0.1,0.1-0.1,0.2-0.1,0.3c0,0.4,0,0.7,0,1.1
			s-0.2,0.3-0.4,0.3s-0.4,0.1-0.4-0.3c0-1.2,0-2.5,0-3.7c0-0.3,0.1-0.3,0.3-0.3h1.9c0.5,0,0.9,0.3,1,0.8c0.2,0.5,0.1,0.9-0.2,1.3
			c-0.2,0.2-0.2,0.2,0,0.4s0.2,0.5,0.2,0.7S41.8,38.5,42.1,38.9z M40.2,35.4c-0.8,0-0.7-0.1-0.7,0.6c0,0.4,0.1,0.6,0.5,0.5
			c0.2,0,0.4,0,0.6,0c0.2,0,0.5-0.3,0.4-0.6C41,35.3,40.6,35.4,40.2,35.4L40.2,35.4z"/>
		<path class="st0" d="M78.8,36.9c0.7,0.5,0.2,1.4,0.6,2l-0.2,0c-0.8,0-0.8,0-0.8-0.8c0-0.8-0.6-1.1-1.3-0.9
			c-0.2,0.1-0.1,0.2-0.1,0.3c0,0.3,0,0.7,0,1c0,0.4-0.2,0.4-0.4,0.4S76,39,76,38.6c0-1.2,0-2.4,0-3.6c0-0.3,0.1-0.4,0.4-0.4
			c0.5,0,1,0,1.5,0c0.5,0,1.1,0.1,1.3,0.7C79.5,36,79.3,36.4,78.8,36.9z M77.6,35.4c-0.4,0-0.7-0.1-0.7,0.5c0,0.6,0.2,0.7,0.7,0.6
			c0.2,0,0.3,0,0.5,0c0.3-0.1,0.5-0.3,0.4-0.6C78.4,35.3,77.9,35.4,77.6,35.4L77.6,35.4z"/>
		<path class="st0" d="M72.2,36.7c0-0.6,0-1.2,0-1.7c0-0.3,0.1-0.4,0.4-0.4c0.8,0,1.5,0,2.3,0c0.3,0,0.4,0.1,0.4,0.4
			c0,0.3-0.1,0.4-0.4,0.4c-0.5,0-1,0-1.5,0c-0.5,0-0.3,0.2-0.3,0.4c0,0.2-0.1,0.5,0.3,0.5c0.4,0,0.8,0,1.2,0c0.4,0,0.5,0,0.5,0.4
			c0,0.4-0.3,0.4-0.5,0.4c-0.4,0-0.8,0-1.1,0c-0.5,0-0.4,0.3-0.4,0.5c0,0.3-0.1,0.6,0.4,0.5s1.1,0,1.6,0c0.4,0,0.3,0.2,0.3,0.4
			c0,0.2,0,0.4-0.3,0.4c-0.8,0-1.7,0-2.5,0c-0.3,0-0.3-0.1-0.3-0.4C72.2,37.9,72.2,37.3,72.2,36.7z"/>
		<path class="st0" d="M84.3,36.7c0-0.6,0-1.2,0-1.8c0-0.2,0-0.3,0.3-0.3c0.8,0,1.6,0,2.4,0c0.3,0,0.3,0.1,0.3,0.4
			c0,0.2,0,0.4-0.3,0.4c-0.4,0-1,0-1.5,0c-0.3,0-0.3,0.2-0.3,0.4s-0.1,0.5,0.3,0.5c0.4,0,0.9,0,1.3,0c0.4,0,0.4,0.1,0.4,0.4
			c0,0.3-0.1,0.4-0.4,0.4c-0.3,0-0.9,0-1.3,0c-0.3,0-0.4,0-0.4,0.3c0,0.7,0,0.7,0.7,0.7c0.4,0,0.9,0,1.3,0c0.4,0,0.3,0.2,0.3,0.4
			s0.1,0.4-0.3,0.4c-0.9,0-1.7,0-2.6,0c-0.2,0-0.3-0.1-0.3-0.3C84.3,38,84.3,37.4,84.3,36.7z"/>
		<path class="st0" d="M36.4,38.9c-0.4,0-0.9,0-1.3,0c-0.2,0-0.3,0-0.3-0.3c0-1.2,0-2.5,0-3.7c0-0.3,0.1-0.3,0.3-0.3
			c0.8,0,1.6,0,2.4,0c0.3,0,0.3,0.1,0.3,0.4c0,0.2,0,0.4-0.4,0.4c-0.3,0-1,0-1.5,0c-0.5,0-0.3,0.2-0.3,0.4c0,0.2-0.1,0.5,0.3,0.4
			c0.4,0,0.9,0,1.3,0s0.3,0.2,0.3,0.4c0,0.2-0.1,0.4-0.4,0.3c-0.4,0-0.9,0-1.3,0c-0.4,0-0.4,0.1-0.4,0.4c0,0.1,0,0.3,0,0.4
			c0,0.3,0.1,0.3,0.3,0.3c0.5,0,1.1,0,1.6,0c0.3,0,0.3,0.2,0.3,0.4c0,0.2,0,0.4-0.3,0.4C37.4,38.9,36.8,38.9,36.4,38.9z"/>
		<path class="st0" d="M8,36.8c0-0.6,0-1.2,0-1.8c0-0.2,0.1-0.3,0.3-0.3c0.8,0,1.6,0,2.5,0c0.4,0,0.3,0.2,0.3,0.4
			c0,0.2,0,0.4-0.3,0.4c-0.5,0-1,0-1.5,0c-0.5,0-0.3,0.2-0.3,0.4c0,0.2-0.1,0.5,0.3,0.4c0.4,0,0.9,0,1.3,0s0.4,0.1,0.4,0.4
			c0,0.3-0.1,0.4-0.4,0.4c-0.3,0-0.8,0-1.2,0c-0.4,0-0.5,0.1-0.4,0.5c0,0.1,0,0.2,0,0.2c-0.1,0.3,0.1,0.4,0.4,0.4c0.5,0,1.1,0,1.6,0
			s0.3,0.2,0.3,0.4c0,0.2,0,0.4-0.3,0.4c-0.8,0-1.6,0-2.5,0c-0.3,0-0.4-0.1-0.4-0.4C8,38,8,37.4,8,36.8z"/>
		<path class="st0" d="M3.9,36.7c0-0.6,0-1.2,0-1.8c0-0.4,0.2-0.3,0.4-0.3c0.2,0,0.5-0.1,0.5,0.3c0,0.4,0,0.6,0,0.8
			c0,0.3,0.1,0.4,0.4,0.4c1.1,0,1.2,0,1.1-1.1c0-0.4,0.1-0.5,0.5-0.5s0.5,0.1,0.5,0.5c0,1.1,0,2.3,0,3.4c0,0.4-0.2,0.4-0.5,0.4
			c-0.3,0-0.5-0.1-0.4-0.4c0-0.4,0-0.8,0-1.2c0-0.2,0-0.3-0.3-0.3h0c-1.3-0.1-1.3-0.1-1.3,1.2c0,0.3,0.2,0.7-0.4,0.7
			c-0.4,0-0.5-0.1-0.5-0.5C3.9,37.9,3.9,37.3,3.9,36.7z"/>
		<path class="st0" d="M17.6,36.8c0-0.6,0-1.2,0-1.8c0-0.4,0.2-0.3,0.5-0.4c0.2,0,0.5,0,0.4,0.4c0,0,0,0,0,0c0,1.3,0,1.3,1.3,1.2
			c0.2,0,0.3-0.1,0.3-0.3c0-0.2,0-0.7,0-1c0-0.3,0.2-0.3,0.4-0.3c0.2,0,0.5-0.1,0.5,0.3c0,1.2,0,2.5,0,3.7c0,0.4-0.3,0.2-0.5,0.3
			c-0.2,0-0.4,0.1-0.4-0.3c0-0.4,0-0.8,0-1.2c0-0.4-0.1-0.4-0.3-0.4c-1.2,0-1.2,0-1.2,1.2c0,0.1,0,0.2,0,0.3
			c0.1,0.4-0.1,0.4-0.5,0.4c-0.3,0-0.5,0-0.4-0.4C17.6,37.9,17.6,37.3,17.6,36.8z"/>
		<path class="st0" d="M25.4,38.9c-0.2,0-0.4,0-0.5,0c-0.4,0.1-0.5-0.1-0.6-0.4c0-0.3-0.2-0.5-0.6-0.5c-0.1,0-0.3,0-0.4,0
			c-0.5-0.1-0.7,0.1-0.8,0.6s-0.1,0.4-1,0.3l0.9-2.6c0.1-0.4,0.3-0.7,0.4-1.1c0.1-0.4,0.3-0.6,0.8-0.6s0.5,0.1,0.6,0.4
			C24.5,36.3,24.9,37.6,25.4,38.9z M23.5,35.8h-0.1c-0.1,0.3-0.2,0.7-0.3,1c-0.2,0.4,0,0.5,0.4,0.5c0.4,0,0.5-0.1,0.4-0.5
			C23.6,36.3,23.6,36.1,23.5,35.8z"/>
		<path class="st0" d="M48.9,36.7c0-0.6,0-1.2,0-1.8c0-0.3,0.1-0.3,0.3-0.3c0.8,0,1.5,0,2.3,0c0.3,0,0.4,0.1,0.4,0.4
			c0,0.3-0.1,0.4-0.4,0.4c-0.5,0-0.9,0-1.4,0c-0.5,0-0.3,0.3-0.3,0.5c0,0.2-0.1,0.5,0.3,0.4c0.4,0,0.8,0,1.1,0
			c0.4,0,0.4,0.1,0.4,0.4c0,0.3-0.1,0.4-0.4,0.4c-0.3,0-0.8,0-1.2,0c-0.2,0-0.3,0.1-0.3,0.3c0,0.4,0,0.8,0,1.2
			c0,0.4-0.3,0.3-0.5,0.3s-0.4,0.1-0.4-0.3C48.9,38,48.9,37.4,48.9,36.7z"/>
		<path class="st0" d="M13.5,7c0.4,0,0.8,0,1.3,0c0.2,0,0.4-0.1,0.4,0.1c0,0.2-0.1,0.4-0.4,0.5c0,0-0.1,0-0.1,0c-0.9,0-1.8,0-2.7,0
			c0.1-0.4,0.3-0.7,0.6-0.8c0.7-0.3,1.3-0.6,2-0.9h-1.7c0-0.5,0.2-0.6,0.7-0.6c0.7,0,1.5,0,2.2,0c0.3,0,0.4,0,0.2,0.3
			c-0.1,0.2-0.3,0.3-0.5,0.4l-2.1,0.9L13.5,7z"/>
		<path class="st0" d="M9.5,18.2c-0.1,0.4-0.2,0.7-0.7,0.7c-0.9,0-1,0.1-1.3,1h1c0,0.5-0.3,0.6-0.7,0.6c-0.8,0-1.5,0-2.3,0
			c-0.2,0-0.3-0.1-0.2-0.3c0.2-0.4,0.4-0.8,0.6-1.2c0.2-0.3,0.5-0.6,0.8-0.8c0.4-0.1,0.7-0.2,1,0.2c0,0,0.1,0,0.1,0
			C8.5,18.2,9,18.4,9.5,18.2z M6.6,20c0.6,0.1,0.6-0.5,0.8-0.7c0.1-0.1,0.1-0.2,0-0.3c-0.1-0.1-0.2-0.1-0.4,0
			c-0.4,0.1-0.4,0.5-0.6,0.7S6.2,20,6.6,20z"/>
		<path class="st0" d="M0.3,30.4c0.1-0.5,0.3-0.7,0.8-0.6s0.9,0,1.4,0c0.2,0,0.4,0,0.6-0.1c0.2-0.2,0.5-0.4,0.4-0.7
			c-0.1-0.3-0.4-0.2-0.6-0.2c-0.4,0-0.8,0-1.3,0c-0.1,0-0.4,0.1-0.4-0.1c0-0.2,0.1-0.5,0.4-0.5c0.7,0,1.4-0.1,2.2,0
			c0.4,0.1,0.5,0.4,0.4,0.7c-0.2,0.8-0.9,1.4-1.7,1.5c-0.1,0-0.3,0-0.4,0H0.3z"/>
		<path class="st0" d="M17.2,0.7l-0.6,1.3C17,2.1,17.3,2,17.5,1.5c0.1-0.3,0.3-0.6,0.5-0.9c0.1-0.3,0.4-0.3,0.5-0.2s0,0.3-0.1,0.4
			c-0.2,0.4-0.5,0.8-0.6,1.3c-0.2,0.4-0.4,0.5-0.8,0.5c-0.8,0-1.6,0-2.5,0c0.4-0.7,0.7-1.4,1-2c0.1-0.2,0.4-0.1,0.6-0.1
			c-0.1,0.6-0.5,1-0.6,1.5c0.4,0.1,0.6,0,0.7-0.4c0.1-0.2,0.2-0.4,0.3-0.6C16.6,0.7,16.8,0.5,17.2,0.7z"/>
		<path class="st0" d="M7.1,22.9c-0.1,0.5-0.4,0.9-0.8,1c-0.3,0.1-0.6,0.3-0.9,0.5c-0.1,0.1-0.3,0.1-0.3,0.3s0.2,0.1,0.4,0.1h0.7
			c-0.1,0.4-0.2,0.6-0.7,0.6c-0.8,0-1.7,0-2.6,0C3,25.1,3,24.8,3.4,24.8c0.3,0,0.6,0,0.9,0c-0.2-0.6-1-1.1-0.2-1.8
			c0.1,0.2,0.3,0.5,0.4,0.7c0.1,0.3,0.3,0.4,0.6,0.2C5.8,23.6,6.4,23.3,7.1,22.9z"/>
		<path class="st0" d="M12.1,13.2c-0.1,0.4-0.3,0.6-0.7,0.7C11,14,10.9,14.7,10.6,15c0.4,0.1,0.6,0.2,0.3,0.6
			c-0.1,0.2-0.2,0.2-0.4,0.1l-1.7-0.7C8.6,15,8.3,15,8.3,14.8s0.1-0.6,0.5-0.7C9.9,13.8,10.9,13.5,12.1,13.2L12.1,13.2z M9.2,14.5
			c0.9,0.4,0.9,0.4,1.2-0.2C10,14.2,9.6,14.4,9.2,14.5z"/>
		<path class="st0" d="M11.8,10.8c-0.3,0-0.7,0-1,0c-0.1,0-0.4,0.1-0.4-0.1s0.1-0.5,0.3-0.5c0.9,0,1.9,0,2.8,0
			c0.1,0,0.2,0.1,0.1,0.2c-0.1,0.1-0.1,0.5-0.4,0.5L11.8,10.8L11.8,10.8z"/>
		<path class="st0" d="M21.3,1.8L21.3,1.8l4.6,0h4.6c0.3,4.4,0.7,8.8,1,13l0.1,0.9c0.3,4.1,0.7,8.8,1.1,13.4l-3.5,0l-3.5,0
			c0-0.6-0.1-1.2-0.2-1.8c0-0.4-0.1-0.8-0.1-1.1c0-0.5-0.4-0.9-0.9-0.9h-7.6c-0.6,0-0.8,0.4-0.9,0.6l-0.6,1.1L14,29.3H6.8L7,29
			l1.3-2.5l2.2-4.3C13.9,15.6,17.5,8.8,21,2C21.1,1.8,21.1,1.8,21.3,1.8 M20.1,20.7h3.6c0.1,0,0.5,0,0.7-0.3
			c0.3-0.3,0.2-0.6,0.2-0.8c-0.2-1.6-0.3-3.1-0.5-4.7l-0.1-1.3c0-0.4-0.4-0.7-0.8-0.6c-0.2,0-0.4,0.2-0.5,0.4l-0.7,1.3
			c-0.9,1.7-1.8,3.3-2.7,4.9c-0.1,0.1-0.3,0.5-0.1,0.9C19.6,20.7,20,20.7,20.1,20.7 M21.3,1.2c-0.4,0-0.6,0.2-0.8,0.5
			C16.2,9.9,12,18.1,7.7,26.2l-1.9,3.6c0.1,0,0.1,0,0.2,0h8.1c0.2,0,0.3-0.1,0.4-0.3c0.6-1.1,1.2-2.2,1.8-3.2
			c0.1-0.2,0.2-0.3,0.4-0.3h7.7c0.2,0,0.3,0.1,0.3,0.3c0.1,1,0.2,1.9,0.3,2.9c0,0.4,0.1,0.5,0.5,0.5h0l3.6,0l3.6,0h0
			c0.4,0,0.5-0.1,0.4-0.5c-0.4-4.5-0.7-9-1.1-13.5c-0.4-4.7-0.7-9.4-1.1-14c0-0.4-0.2-0.5-0.6-0.5h-4.6L21.3,1.2L21.3,1.2z
			 M20.1,20.1c-0.3,0-0.3,0-0.2-0.3c1.1-2,2.2-4,3.4-6.2c0,0,0.1-0.1,0.1,0c0.1,0,0.1,0,0.1,0.1c0.2,2.1,0.4,4.1,0.6,6.1
			c0,0.3,0,0.4-0.4,0.4L20.1,20.1L20.1,20.1z"/>
		<path class="st0" d="M53.4,0.6c0.6,0,1.2,0,1.8,0.1c3.3,0.4,5,1.9,5.7,5.1c0.3,1.2,0.1,2.4-0.1,3.7l-0.1,0.4
			c0,0.2-0.1,0.3-0.1,0.5c0,0.2-0.1,0.4-0.1,0.6h-6.5c0.3-1,0.4-1.8,0.3-2.6c-0.1-1.6-1.3-2.7-2.8-2.7h-0.2c-2.7,0-4.2,1-5.1,3.4
			s-1.6,5.3-2.3,7.9l-0.1,0.5l-0.1,0.5c-0.2,0.9-0.4,1.7-0.5,2.7c-0.1,1.3,0.4,2.1,0.8,2.6c0.6,0.6,1.4,0.9,2.4,0.9
			c0.3,0,0.6,0,0.9-0.1c2.3-0.5,3.8-2,4.6-4.5l0-0.1c0-0.1,0.1-0.3,0.1-0.4c0-0.1,0-0.2,0.1-0.4h0.1l0.3,0l0.4,0h5.7
			c-0.5,2.7-2,5.2-4.2,7.2s-5.2,3.3-8.2,3.5l-0.4,0c-0.8,0-1.6,0.1-2.3,0.1c-1.3,0-2.3-0.1-3.2-0.4c-2.3-0.7-3.8-2-4.5-3.9
			c-0.6-1.6-0.4-3.2-0.1-4.6c0.7-3.9,2-7.5,3.2-10.5c0.6-1.6,1.4-3.4,2.7-4.9c1.7-2,3.9-3.3,6.8-4C50.3,0.8,51.9,0.6,53.4,0.6
			 M53.4,0c-1.7,0-3.5,0.3-5.2,0.7c-2.8,0.6-5.2,1.9-7.1,4.2c-1.3,1.5-2,3.3-2.8,5.1c-1.4,3.5-2.6,7-3.3,10.6
			c-0.3,1.7-0.4,3.3,0.2,4.9c0.8,2.3,2.6,3.6,4.9,4.3c1.1,0.3,2.3,0.4,3.4,0.4c0.9,0,1.8-0.1,2.8-0.1c6.5-0.4,12-5.5,13-11.4
			c0.1-0.4,0-0.4-0.3-0.4h-6c-0.2,0-0.5,0-0.8,0c-0.2,0-0.3,0-0.5,0.1c-0.3,0.2-0.3,0.7-0.4,1.1v0c-0.7,2.1-2,3.6-4.2,4.1
			c-0.3,0.1-0.5,0.1-0.8,0.1c-1.3,0-2.7-0.8-2.5-2.8c0.1-1,0.4-2,0.6-3c0.7-2.8,1.3-5.7,2.4-8.4c0.8-2.2,2.1-3.1,4.6-3.1h0.2
			c1.3,0,2.1,0.9,2.2,2.2c0.1,0.9-0.1,1.8-0.4,2.6c-0.1,0.4,0,0.5,0.3,0.5h6.9c0.3,0,0.4-0.1,0.4-0.4c0-0.3,0.2-0.9,0.2-1.3
			c0.2-1.4,0.5-2.9,0.2-4.3c-0.9-3.7-3.1-5.2-6.3-5.5C54.7,0,54.1,0,53.4,0L53.4,0z"/>
		<path class="st0" d="M79.9,0.6c0.6,0,1.1,0,1.6,0.1c2.9,0.3,4.8,1.8,5.7,4.5c0.3,1.1,0.2,2.3,0.1,3.5v0.1c0,0.4-0.1,0.8-0.2,1.2
			s-0.1,0.7-0.2,1h0l-1.5,0h-5c0.2-0.9,0.5-1.9,0.3-3c-0.3-1.4-1.3-2.3-2.7-2.3h-0.4c-2.6,0-4.1,1-5,3.4s-1.5,4.8-2.1,7.2l-0.2,0.7
			l-0.1,0.4c-0.2,1-0.5,2-0.6,3.1c-0.1,1.1,0.1,2.1,0.7,2.8c0.6,0.7,1.4,1,2.3,1c0.3,0,0.7,0,1-0.1c2.3-0.5,3.8-2,4.6-4.4
			c0.1-0.2,0.1-0.4,0.2-0.6c0.1-0.2,0.1-0.3,0.1-0.4H85c-0.5,2.5-1.9,5-4,7s-4.9,3.4-7.7,3.6c-1.1,0.1-2.2,0.2-3.3,0.2
			c-1,0-2.1-0.1-3.1-0.3c-1.2-0.3-2.2-0.8-3-1.4c-0.9-0.7-1.5-1.6-1.9-2.6c-0.5-1.5-0.4-3-0.2-4.2c0.6-3.9,2-7.6,3.3-11
			c0.7-1.8,1.4-3.3,2.4-4.6c1.8-2.3,4.3-3.8,7.6-4.4C76.8,0.8,78.4,0.6,79.9,0.6 M80,11.1L80,11.1 M79.9,0c-1.6,0-3.1,0.2-4.7,0.5
			c-3.2,0.6-6,2-8,4.6c-1.1,1.4-1.8,3-2.5,4.7c-1.4,3.6-2.7,7.2-3.3,11.1c-0.2,1.5-0.3,3,0.2,4.5c0.9,2.5,2.8,3.8,5.3,4.4
			c1,0.3,2.1,0.4,3.2,0.4c1.1,0,2.2-0.1,3.4-0.2c6-0.6,11.3-5.7,12.2-11.3c0.1-0.4,0-0.5-0.4-0.5h-6.5c-0.8,0-0.8,0-1,0.8
			c0,0.2-0.1,0.4-0.2,0.6c-0.7,2.1-2,3.5-4.2,4c-0.3,0.1-0.6,0.1-0.8,0.1c-1.6,0-2.7-1.2-2.5-3.1c0.1-1.2,0.4-2.3,0.7-3.4
			c0.7-2.7,1.3-5.3,2.3-7.9c0.8-2.1,2.1-3,4.5-3H78c1.1,0,1.9,0.8,2.1,1.9c0.2,1.1-0.1,2.1-0.3,3.1c-0.1,0.3,0,0.4,0.3,0.4h5.4
			l1.5,0h0.1c0.4,0,0.5-0.1,0.6-0.5c0.1-0.8,0.3-1.5,0.3-2.2C88,7.6,88.1,6.3,87.8,5c-0.9-3-3.1-4.6-6.2-4.9C81,0.1,80.5,0,79.9,0z"
			/>
	</g>
</g>
</svg>
