<?xml version="1.0" encoding="utf-8"?>
<!-- Generator: Adobe Illustrator 21.0.2, SVG Export Plug-In . SVG Version: 6.00 Build 0)  -->
<svg version="1.1" id="Layer_1" xmlns="http://www.w3.org/2000/svg" xmlns:xlink="http://www.w3.org/1999/xlink" x="0px" y="0px"
	 viewBox="0 0 946 613" style="enable-background:new 0 0 946 613;" xml:space="preserve">
<style type="text/css">
	.st0{fill:#FFFFFF;}
	.st1{clip-path:url(#SVGID_2_);}
	.st2{fill:#D6ECFF;stroke:#FFFFFF;stroke-width:1.5271;}
	.st3{fill:#99CFFF;stroke:#FFFFFF;stroke-width:1.5271;}
	.st4{fill:none;}
	.st5{fill:#FFFFFF;stroke:#0086FF;stroke-width:1.5271;}
	.st6{fill:#0086FF;}
	.st7{enable-background:new    ;}
	.st8{fill:none;stroke:#0086FF;stroke-width:1.5271;}
	.st9{fill:none;stroke:#0086FF;stroke-width:1.5271;stroke-dasharray:3.0847,3.0847;}
	.st10{fill:none;stroke:#0086FF;stroke-width:1.5271;stroke-dasharray:1.5271,1.5271;}
	.st11{fill:none;stroke:#0086FF;stroke-width:1.5271;stroke-dasharray:3.0542,3.0542;}
	.st12{fill:url(#SVGID_3_);}
	.st13{fill:url(#SVGID_4_);}
	.st14{fill:#003F6F;}
	.st15{fill:#FFFFFF;stroke:#003F6F;stroke-width:1.5271;}
	.st16{display:none;enable-background:new    ;}
	.st17{display:inline;fill:#003F6F;}
	.st18{fill:none;stroke:#003F6F;stroke-width:1.5271;}
	.st19{fill:none;stroke:#003F6F;stroke-width:1.5271;stroke-dasharray:3.0847,3.0847;}
	.st20{fill:none;stroke:#003F6F;stroke-width:1.5271;stroke-dasharray:1.5271,1.5271;}
	.st21{fill:none;stroke:#003F6F;stroke-width:1.5271;stroke-dasharray:3.0542,3.0542;}
	.st22{display:none;}
	.st23{display:inline;}
</style>
<rect x="0" class="st0" width="945.2" height="611.9"/>
<g>
	<g>
		<defs>
			<rect id="SVGID_1_" x="0" width="945.2" height="611.9"/>
		</defs>
		<clipPath id="SVGID_2_">
			<use xlink:href="#SVGID_1_"  style="overflow:visible;"/>
		</clipPath>
		<g class="st1">
			<path id="AL" class="st2" d="M490.9,477.9l-1.5,6.6l2,8l5.9,4.4l-0.5,5l-4.4,2.4l-1.1,6l-6.6,9l-2.4-1.1l-0.5-4l-7.9-6l-1.1-9
				l1.1-12.5l2-6l-2.4-3.1l-1.1-6l5.9-9.5l1.1,3.5l4-1.5l3,5l3.5,2L490.9,477.9z"/>
			<path id="AT" class="st3" d="M440.5,353.7l-1.1,8.6h-7.9l2.4,4.4l-4.4,13l-2.4,3.5l-12.5,0.5l-7,4.4l-11.4-1.5l-20-5.5l-3-7
				l-14,3.5l-1.5,4l-8.5-3.1l-7-0.5l-6.6-3.5l2-5l-0.5-3.5l4.4-1.1l7,5.5l2-5.5l12.5,1.1l10.1-3.5l6.6,0.5l4.4,4l1.5-3.5l-2-13.5
				l5-2.4l5-9.5l10.5,7l7.9-8.6l5-1.5l11,6.6l6.6-1.1l6.6,4l-1.1,2.4L440.5,353.7z"/>
			<path id="BA" class="st2" d="M468.4,419.7h5l-3.5,8.6l7,7.5l-2,9l-3.5,1.1l-2.4,2l-4.4,4.4l-2,10.6l-12.5-7l-5.5-8l-5.5-4
				l-6.6-7.5l-3-6l-7-9l3-8l5,4.4l3-4l6.6-0.5l12,3.5l9.5-0.5L468.4,419.7z"/>
			<path id="BE" class="st2" d="M248.7,283.6l10.5,2l13-4.4l9,10.1l7.5,5l-1.5,15l-3.5,1.1l-1.5,12.1l-12.5-10.1l-7,1.5l-10.1-10.6
				l-6.6-9l-6.6-0.5l-2-8L248.7,283.6z"/>
			<path id="BG" class="st2" d="M519.9,432.3l4,8l5.5-1.5l11,3.1l20.4,1.1l7-5l16.5-4.4l10.1,7l8.5,2l-7.5,8l-5,13.5l4.4,11l-12-2.4
				l-14.5,6v9.5l-12.5,2l-10.1-6.6l-11,5l-10.5-0.5l-1.1-12.5l-7-6l2.4-2.4l-1.5-2l2.4-6l5.5-6l-6.6-8.6l-1.1-7L519.9,432.3z"/>
			<path id="BY" class="st2" d="M531.3,224.4h13.4l14.9-9l3.5-13.5l11.4-8l-1.5-11l8.5-4l14.9-9.5l14.9,6.6l2,6l7.5-3.1l13.4,6
				l1.5,11.5l-3,6.6l9,15.6l5.5,4.4l-1.1,4.4l9.5,4l4,6l-5.5,5l-11.4-1.1l-2.4,2.4l3.5,7.5l3.5,14.5l-12,1.5l-4.4,5l-1.1,11.5
				l-5.5-2l-12.5,1.1l-3.5-5l-5,4l-5-3.1l-11-0.5l-14.9-5.4l-14-2l-11,0.5l-7.5,6l-6.6,1.1v-10.1l-4.4-10.6l8.5-4.4V244l-4-9
				L531.3,224.4z"/>
			<path id="CH" class="st3" d="M336.6,365.7l0.5,3.5l-2,5l6.6,3.5l7,0.5l-1.1,8.6l-5.9,3.5l-10.5-2.4l-3,8l-6.6,0.5l-2.4-3.1
				l-7.9,7l-7,1.1l-5.9-4.4l-5-9l-6.6,3.1v-9l10.5-11.5l-0.5-5.5l6.6,2l4-3.5h12l3-4.4L336.6,365.7z"/>
			<path id="CY" class="st2" d="M677.2,596.1l9.5-7.5l-12.5,5l-10.1-0.5l-2,4h-1.1l-6.6,0.5l3,7l7,2l14.5-7l-0.5-1.5L677.2,596.1z"
				/>
			<path id="CZ" class="st2" d="M440,343.7l-6.6-4l-6.6,1.1l-11-6.6l-5,1.5l-7.9,8.6l-10.5-7l-7.9-9l-7-5l-1.5-9l-2.4-6.6l10.1-4.4
				l5-5.5l10.1-4.4l3.5-4l3.5,2.4l5.9-2.4l6.6,7l10.5,2l-1.1,6l7.5,4.4l2-5.5l9.5,2.4l1.5,7l10.5,1.5l6.6,10.6h-4l-2,4l-3,1.1
				l-1.1,5l-2.4,1.1l-0.5,2l-5,2l-5.9-0.5L440,343.7z"/>
			<path id="DE" class="st3" d="M341.7,198.4v9.5l14,5.5v8.6l14.5-4.4l7.9-6.6l16,9.5l6.6,7.5l3.5,12.1l-4,6l5,8l3.5,12.1l-1.1,8
				l5.5,14.5l-5.9,2.4l-3.5-2.4l-3.5,4l-10.1,4.4l-5,5.5l-10.1,4.4l2.4,6.6l1.5,9l7,5l7.9,9l-5,9.5l-5,2.4l2,13.5l-1.5,3.5l-4.4-4
				l-6.6-0.5l-10.1,3.5l-12.5-1.1l-2,5.5l-7-5.5l-4.4,1.1l-14.9-6.6l-3,4.4h-12l2-15l7-14.5l-20-4l-6.6-5.5l1.1-9.5l-3-5l1.5-15
				l-2.4-23.6h8.5l3.5-8.6l3.5-21.1l-2.4-8l3-5l11.4-1.5l2.4,5l9.5-11.5l-3-9l-0.5-14.1l10.5,3.1L341.7,198.4z"/>
			<path id="DK" class="st2" d="M380.1,182.8l-8.5,20l-14.5-14.1l-2-10.1l20.4-8.6L380.1,182.8z M355.7,161.7l-3.5,9.5l-4-2.4
				l-10.1,18l4,12.1l-9,3.5l-10.5-3.1l-5.5-13.5l-0.5-25.5l2.4-7l4-7.5l12.5-1.5l5-7l11.4-7.5l-0.5,13.5l-4,8.6l1.5,7L355.7,161.7z"
				/>
			<path id="EE" class="st2" d="M542.9,127.3l1.5-15.6l-5,3.5l-9-9.5l-1.1-15.6l17.5-7.5l17.5-4l14.9,4.4l14.5-1.1l2,5l-10.1,15.6
				l4,25.1l-5.9,8.6h-11.4l-12-9.5l-5.9-3.1L542.9,127.3z"/>
			<path id="ES" class="st2" d="M75.9,477.4l0.5-13.5l-5.5-8.6l20-14.1l16.9,3.5h19.1l14.9,3.5l11.4-1.1l22.4,0.5l5.5,7.5l25.9,8.6
				l5-4l16,8.6l16-2.4l0.5,11l-13.4,12.5l-18,4l-1.1,6l-8.5,10.1l-5.5,15l5.5,10.6l-7.9,8l-3,11.5L182,558L172,571.5l-18,0.5
				l-13.4-0.5l-9,6l-5.5,6.6l-7-1.5l-4.7-5.8l-4-10.1l-13-2.4l-1.1-6l5-6.6l2-5l-5-5.5l4-12.1l-5.5-11l5.9-1.5l0.5-8.6l2.4-2.4
				v-14.5l6.6-5l-3.8-9.3l-7.9-0.5l-2.4,2.4H90l-3.5-9l-5.5,2.4L75.9,477.4z"/>
			<polygon class="st2" points="637.7,0 625.2,16.5 595.2,53.5 569.7,55.5 545.3,66.1 522.3,72 514.4,56.6 500.8,47.1 503.9,18.5 
				499.1,0 			"/>
			<path id="FR" class="st2" d="M336.6,471.9l-4.4,14.5l-6.6-4l-3-12.5l3-7l9-7.5L336.6,471.9z M252.8,305l10.1,10.6l7-1.5
				l12.5,10.1l3,2l4-0.5l6.6,5.5l20,4l-7,14.5l-2,15l-4,3.5l-6.6-2l0.5,5l-10.1,11.5v9l6.6-3.1l5,9l-0.5,5.5l4,7.5l-5,6l3.5,15
				l7.5,2.4l-1.5,8.6l-12.5,11l-27.4-5l-20.4,6l-1.5,11.5l-16.2,2.8l-15.6-8.6l-5,4l-25.9-8.6l-5.5-7.5l7.5-11.5l2.4-39.6
				l-14.5-21.6L161.1,365l-21.3-7.8l-1.5-15.6l18-4.4l23.5,5.5l-4.4-24l13,9.5l32.5-17l4-18l12.5-4.4l2,8l6.6,0.5L252.8,305z"/>
			<path id="GB" class="st3" d="M123.3,208.9l-7.5,16.5l-10.5-5l-8.5,0.5l3-13l-3-13l12-1.1L123.3,208.9z M160.2,104.8l-14.9,28.5
				l14.5-3.5h15.6l-3.5,21.1l-12.5,22.5l14.5,1.5l1.1,2.4l12.5,29.1l9.5,4l8.5,27.1l4,9l16.9,4.4l-1.5,14.5l-7,6.6l5.5,11.5
				l-12.5,11.5h-18.9l-23.9,6l-6.6-4.4l-9.5,10.6l-13-2.4l-10.1,8.6l-7.5-4.4l20.4-23.1l12.5-5l0,0l-22-4l-4-9l14.5-7l-7.5-12.5
				l2.4-15.6l21,2l0,0l2-13.5l-9.5-15v-0.5l-16.9-4.4l-3.5-6.6l5-11l-4.4-7l-7.5,11.5l-1.1-24l-7.2-13l5-27.1l11-21.6l11,2
				L160.2,104.8z"/>
			<path id="GE" class="st2" d="M784.5,484l2-8l-3.5-13l-7.9-7l-7.5-2l-5-6l1.5-2.4l12,3.5l20.4,3.1l18.9,9l2.4,3.5l8.5-3.1l13,4
				l4,7.5l9,4.4l-3.5,2.4l7,10.1l-2,2l-7.5-1.1l-10.5-5.5l-3.5,3.1l-19.5,3.1l-13.4-9L784.5,484z"/>
			<path id="GR" class="st2" d="M534.4,588.1l7.5,6l11-1.1l10.5,1.1l-0.5,3.1l7.5-2l-1.5,5l-20,1.5v-3.1l-16.9-3.5L534.4,588.1z
				 M574.8,483.4l-4.4,11.5l-3.5,2l-8.5-0.5l-7.5-2l-16.9,5l9.5,10.6l-7,3.1h-7.9l-7.5-9.5l-2.4,4l3,11l7,8.6l-5.5,4l7.9,8l7,5v10.1
				l-7-5.5l-5,1.1l4,9l-4,1.1l-5-3.5l5.9,20h-3l-2.4-6h-3l-1.5,6.6l-2.4-1.5l0.5-3.5l-3-5h-3l0.5,4l-1.1,1.5l-3-2.4l-2-5l2.4-3.1
				l-2-3.5l-2-2l-1.1-1.5l-2.4-4.4l3-2.4l2-2.4l3,0.5l1.1-2l3-1.1l3.5,2.4l2.4,1.1l2-3.1l-4.4-0.5l-3-1.1l-5.9,1.5h-5.9l-5.5-8
				l-1.1-1.1l1.1-3.1l-7-5.5l-1.1-5l6.6-9l1.1-6l4.4-2.4l0.5-5l9-1.5l5.5-4l7.5,0.5l2.4-3.1l2.4-0.5l10.5,0.5l11-5l10.1,6.6l12.5-2
				v-9.5L574.8,483.4z"/>
			<path id="HR" class="st2" d="M465.9,398.8l3.5,8l4.4,5.5l-5.5,7.5l-6.4-4.4l-9.5,0.5l-12-3.5l-6.6,0.5l-3,4l-5-4.4l-3,8l7,9l3,6
				l6.6,7.5l5.5,4l5.5,8l12.5,7l-1.5,3.1l-13-7l-7.9-7l-13-5.5l-12-14.5l3-1.5l-6.6-8l-0.5-6.6l-9-3.1l-4.4,8.6l-4-6.6l0.5-7
				l0.5-0.5l9.5,0.5l2.4-3.5l5,3.1l5.5,0.5v-5.5l5-2l1.5-8l11-5.5l4.4,2.4l10.5,8.6l11.4,4L465.9,398.8z"/>
			<path id="HU" class="st3" d="M429.5,379.7l4.4-13l-2.4-4.4h7.9l1.1-8.6l7,5.5l5,2.4l12-2.4l1.1-4l5.5-0.5l7-3.1l1.5,1.5l6.6-2.4
				l3.5-5l4.4-1.1l14.9,6.6l3-2l7.5,5.5l1.1,5.5l-8.5,4.4l-6.6,14.1l-8.5,14.1l-11,1.5l-9-1.1l-11,5l-5,3.1l-11.4-4l-10.5-8.6
				l-4.6-2.6l-2.4-7L429.5,379.7z"/>
			<path id="IE" class="st2" d="M115.9,225.5l2.6,17l-10.5,20.5l-25,13.5L63,273l11.4-24l-7.5-24l18.9-19l10.5-11.5l3,13l-3,13
				l8.5-0.5L115.9,225.5z"/>
			<path id="IT" class="st2" d="M420,544.1l-5,14.1l2,5.5l-3,9l-10.5-6.6l-7-2l-19.5-9l2-9l16.5,1.5l14.5-2L420,544.1z M331.6,489.9
				l8.5,13l-2,24l-6.6-1.1l-5.5,6l-5.5-5l-0.5-22l-3-10.6l7.5,1.1L331.6,489.9z M376,381.8l20,5l-1.5,10.1l3.5,8.6l-11-3.1l-11.4,7
				l1.1,10.1l-1.5,5.5l4.4,10.1l13,10.1l7,16.1l15.6,15h11l3.5,4l-4,3.5l12.5,7l10.5,5.5l12,9.5l1.5,3.5l-2.4,6.6l-7.9-8.6l-12-3.1
				l-5.9,12.1l10.1,6.6l-1.5,9.5l-5.9,1.1l-7.9,15l-5.9,1.5v-5.5l3-9.5l3-4l-5.5-10.6l-4.4-9l-5.9-2.4l-4-8l-9-3.5l-5.9-7.5
				l-10.5-1.1l-11-8.6l-13-12.5l-9.5-11l-4.4-19l-7-2.4l-11.4-6.6l-6.6,2.4l-7.9,9l-5.9,1.5l1.5-8.6l-7.5-2.4l-3.5-15l5-6l-4-7.5
				l0.5-5.5l5.9,4.4l7-1.1l7.9-7l2.4,3.1l6.6-0.5l3-8l10.5,2.4l5.9-3.5l1.1-8.6l8.5,3.1l1.5-4l14-3.5L376,381.8z"/>
			<path id="XK" class="st2" d="M493.4,473.9l-0.5,4h-2l-1.1-7l-3.5-2l-3-5l2.4-4.4l3.5-1.5l2-6.6l2.4-1.1l2,2.4l2.4,1.1l2,3.1
				l2.4,1.1l2.4,3.5h2l-1.5,4.4l-1.5,2.4l0.5,1.5l-3,0.5L493.4,473.9z"/>
			<path id="LT" class="st2" d="M520.8,214.5l-1.1-6l1.5-6.6l-5.9-4l-14.5-4.4l-3-21.1l16-7.5l23.5,1.5l14-2.4l2,5l7.5,1.5
				l13.4,12.1l1.5,11l-11.4,8l-3.5,13.5l-14.9,9h-13.4l-3.5-7.5L520.8,214.5z"/>
			<path id="LU" class="st2" d="M287.2,310.5l3,5l-1.1,9.5l-4,0.5l-3-2l1.5-12.1L287.2,310.5z"/>
			<path id="LV" class="st2" d="M497.3,172.8l0.5-19l7-16.1l13-9l11,19.6l11-0.5l2.6-20.2l12-4.4l5.9,3.1l12,9.5h11.4l6.6,6
				l1.1,12.5l4.4,15l-14.9,9.5l-8.5,4l-13.4-12.1l-7.5-1.5l-2-5l-14,2.4L512,165L497.3,172.8z"/>
			<path id="MD" class="st2" d="M575.2,351.7l3.5-3.1l9.5-2l10.5,6.6l5.9,1.1l6.6,5.5l-1.1,7l5,3.5l2,8.6l5,5l-1.1,3.1l2.4,2
				l-3.5,1.5l-9.5-1.1l-1.5-3.1l-3,1.5l1.1,3.5l-4,6.6l-2.4,7l-3.5,2l-2.4-9l1.5-8.6l-0.5-9l-7.9-12.1l-4.4-9l-4.4-6L575.2,351.7z"
				/>
			<path id="ME" class="st2" d="M479.9,465.3l-1.1-3.5l-5.9,9.5l1.1,6l-3-1.5l-4-6l-5.9-4l1.5-3.1l2-10.6l4.4-4.4l2.4-2l3.5,3.5
				l2,2.4l4.4,2l5.5,4l-1.1,1.5l-2.4,4.4L479.9,465.3z"/>
			<path id="MK" class="st2" d="M490.9,477.9h2l0.5-4l8.5-3.1l3-0.5l5-1.1l6.6-0.5l7,6l1.1,12.5l-2.4,0.5l-2.4,3.1l-7.5-0.5l-5.5,4
				l-9,1.5l-5.9-4.4l-2-8L490.9,477.9z"/>
			<path id="NL" class="st2" d="M287.7,233.9l11.4,0.5l2.4,8l-3.5,21.1l-3.5,8.6H286l2.4,23.6l-7.5-5l-9-10.1l-13,4.4l-10.5-2l7-6
				l12.5-33.5L287.7,233.9z"/>
			<polyline class="st2" points="370.6,0 371.1,15.4 380.1,30.6 375.5,64.1 364.1,83.2 358.1,98.7 357.4,97.4 348.5,81.7 
				321.1,113.2 302.6,119.2 283.1,105.7 278.2,76.2 273.7,9.5 280.1,0 369.7,0 			"/>
			<path id="PL" class="st3" d="M413,289.1l-5.5-14.5l1.1-8l-3.5-12.1l-5-8l4-6l-3.5-12.1l9.5-7l22-11l17.5-8l14,4l1.1,6l13.4,0.5
				l17.5,3.1l25.9-0.5l7,2.4l3.5,7.5l0.5,10.6l4,9v9.5l-8.5,4.4l4.4,10.6v10.1l7,19.6l-1.5,6l-7,2.4l-12.3,18l3.5,9.5l-3-1.1
				l-13.4-8l-10.1,3.1l-6.6-2l-8.5,4.4l-7-7.5l-5.9,3.1l-1.1-1.5l-6.6-10.6l-10.5-1.5l-1.5-7l-9.5-2.4l-2,5.5l-7.5-4.4l1.1-6
				l-10.5-2L413,289.1z"/>
			<path id="PT" class="st2" d="M75.9,477.4l5-5l5.5-2.4l3.5,9h7.9l2.4-2.4l7.9,0.5l4,9.5l-6.6,5V506l-2.4,2.4l-0.5,8.6l-5.9,1.5
				l5.5,11l-4,12.1l5,5.5l-2,5l-5,6.6l1.1,6l-5.5,4.4l-7.5-2.4l-7.5,2l2-13.5l-1.5-11l-6.6-1.5l-3.5-7l1.1-12.1l5.5-6.6l1.1-7.5
				l3-11l-0.5-8l-3-6.6L75.9,477.4z"/>
			<path id="RO" class="st2" d="M520.3,358.7l5.9-4.4l8.5,2.4h9l6.6,5l5-3.1l10.5-2l3.5-5h5.9l4,2l4.4,6l4.4,9l7.9,12.1l0.5,9
				l-1.5,8.6l2.4,9l6.3,3.4l6.6-3.1l6.6,3.5l0.5,5l-7,4l-4.4-2l-4,23.6l-8.5-2l-10.1-7l-16.5,4.4l-7,5l-20.4-1.1l-11-3.1l-5.5,1.5
				l-4-8l-2.4-3.5l3-3.5l-3.5-2.4l-4.4,4.4l-7.9-5.5l-1.1-8l-8.5-4.4l-1.5-6.6l-6.6-8l11-4l8.5-14.1l6.6-14.1L520.3,358.7z"/>
			<path id="RS" class="st2" d="M494.9,408.7l8.5,4.4l1.1,8l7.9,5.5l4.4-4.4l3.5,2.4l-3,3.5l2.4,3.5l-3.5,4.4l1.1,7l7,8.6l-5.5,6
				l-2.4,6l1.5,2l-2.4,2.4l-6.6,0.5l-5,1.1l-0.5-1.5l1.5-2.4l1.5-4.4h-2l-2.4-3.5l-2.4-1.1l-2-3.1l-2.4-1.1l-2-2.4l-2.4,1.1l-2,6.6
				l-2.4,1.5l1.1-1.5l-5.5-4l-4.4-2l-2-2.4l-3.5-3.5l3.5-1.1l2-9l-7-7.5l3.5-8.6h-5l5.5-7.5l-4.4-5.5l-3.5-8l11-5l9,1.1l7.5,8
				L494.9,408.7z"/>
			<polygon class="st2" points="945.5,0 945.5,273 912.8,273.5 883.9,298.1 882.4,314 867.9,301.6 857,325.7 860.9,330.1 
				852.8,346.2 864.9,360.2 875.4,359.6 884.4,373.7 882.9,384.2 889.9,387.8 883.3,399.7 869.9,403.2 855.9,423.9 868.4,442.4 
				866.9,455.4 882.4,477.9 873.9,485.5 871.4,490.4 865.3,489.5 855.9,477.9 851.9,477.4 842.9,473 838.4,465.5 825.4,461.3 
				817,464.4 814.4,460.9 795.5,451.9 775.1,448.8 763.1,445.3 761.5,447.9 743.5,431.4 727.5,423.9 715.6,412.2 725.5,409.3 
				737.1,392.2 729.1,384.2 749.5,375.7 749,371.2 736.5,374.8 737.1,365.7 744.6,359.6 758,358.2 760,351.2 757.1,339.6 
				762.6,328.6 762.6,322.1 742,315.1 734.1,315.1 725.5,305 714.6,308.5 696.6,301 697.2,296.6 692.2,287.1 681.2,286 680.1,279 
				683.6,274.6 674.6,261.4 660.1,263.6 656.2,262.5 652.7,267.5 647.6,266.5 644.1,251.9 640.6,244 643.2,242 654.7,242.9 
				660.1,238 656.2,231.9 646.7,227.9 647.6,223.5 642.2,218.9 633.2,203.3 636.2,196.9 634.7,185.4 621.3,179.3 613.8,182.3 
				611.8,176.4 596.7,169.8 592.3,154.8 591.2,142.3 584.8,136.3 590.8,127.7 586.8,102.6 596.7,87.2 594.7,82.1 610.7,66.5 
				596.3,53.1 626.3,16.1 638.5,0 			"/>
			<line class="st4" x1="370.6" y1="0" x2="369.7" y2="0"/>
			<polygon class="st2" points="514.8,197.9 500.4,193.3 480.9,201.3 478,211.9 495.3,214.5 521.4,213.8 520.3,207.9 521.9,201.3 
							"/>
			<polyline class="st2" points="370.6,0 449.3,0 442.4,28.5 452.5,49.1 465.9,64.6 453,95.6 438.5,102.2 433,146.2 425.1,170.2 
				408,167.8 400,187.4 384,188.3 379.5,164.7 367.6,135.7 357.1,98.2 357.4,97.4 363,82.6 374.6,63.6 379,30 370,15 369.7,0 			"/>
			<path id="SI" class="st2" d="M396.1,386.7l11.4,1.5l7-4.4l12.5-0.5l2.4-3.5l2.4,0.5l2.4,7l-11,5.5l-1.5,8l-5,2v5.5l-5.5-0.5
				l-5-3.1l-2.4,3.5l-9.5-0.5l3-2l-3.5-8.6L396.1,386.7z"/>
			<path id="SK" class="st2" d="M466.4,324.1l1.1,1.5l5.9-3.1l7,7.5l8.5-4.4l6.6,2l10.1-3.1l13.4,8l-4,5.5l-2.4,8.6l-3,2l-14.9-6.6
				l-4.4,1.1l-3.5,5l-6.6,2.4l-1.5-1.5l-7,3.1l-5.5,0.5l-1.1,4l-12,2.4l-5-2.4l-7-5.5l-1.5-7.5l1.1-2.4l2-4.4l5.9,0.5l5-2l0.5-2
				l2.4-1.1l1.1-5l3-1.1l2-4L466.4,324.1z"/>
			<path id="TR" class="st2" d="M719.6,487.5l20,7l16.5-3.1l12,1.5l16.5-9.5l14.9-1.1l13.4,9l2.4,6.6l-1.5,9l10.5,4.4l5.5,5.5
				l-9.5,5l4.4,20.5l-2.4,5.5l7.5,14.1l-6.6,3.1l-5-4.4l-16.3-2.8l-5.9,2.4l-16,2.4l-7.5-0.5l-16,6.6h-11.4l-7.5-3.5l-15.6,5
				l-4.4-3.5l-1.1,9.5l-4,4l-4,4l-5-8l5.5-6.6l-8.5,1.5l-11.4-4l-9.5,10.1l-21.5,2l-11.4-9.5l-14.9-0.5l-3.5,7l-9.5,2l-13.4-9.5
				l-15.6,0.5l-8.5-17.6l-10.1-10.1l7-14.1l-9-8.6l15.6-17.6l21.5-0.5l5.9-14.1l26.5,2.4l16.9-12.1l16.5-5.5l23-0.5L719.6,487.5z
				 M583.3,499.4l-11.4,10.1l-4.4-8.6v-4l3.5-2l4.4-11.5l-7-5l14.5-6l12,2.4l1.5,7l12.5,6l-2.4,4.4l-16.5,1.1L583.3,499.4z"/>
			<path id="UA" class="st5" d="M647.6,266.5l5,1.1l3.5-5l4,1.1l14.5-2l9,13l-3.5,4.4l1.1,7l11,1.1l5,9.5l-0.5,4.4l18,7.5l10.5-3.5
				l8.5,10.1h7.9l20.4,7v6.6l-5.5,11l3,11.5l-2,7l-13.4,1.5l-7,6l-0.5,9l-11,1.5l-9.5,6.6l-13,1.1l-12,7.5l-6.6,5l7.5,7.5l7,5
				l14.5-1.1l-2.4,7l-15.7,3.4l-18.9,11.5l-7.5-4l3-9l-15.7-6.1l2.4-4l16-8l-2-4l-2.4,2l-2-1.1l-22-5l-1.1-7.5l-13,2.4l-5,11l-11,15
				l-6.6-3.5l-6.6,3.1l-5.9-3.5l3.5-2l2.4-7l4-6.6l-1.1-3.5l3-1.5l1.5,3.1l8.5,0.5l3.5-1.5l-2.4-2l1.1-3.1l-5-5l-2-8.6l-5-3.5l1.1-7
				l-6.6-5.5l-5.9-1.1l-10.5-6.6l-9.5,2l-3.5,3.1h-5.9l-3.5,5l-10.5,2l-5,3.1l-6.6-5h-9l-8.5-2.4l-5.9,4.4l-1.1-5.5l-7.5-5.5
				l2.4-8.6l4-5.5l3,1.1l-3.5-9.5l12.5-18l7-2.4l1.5-6l-7-19.6l6.6-1.1l7.5-6l11-0.5l14,2l15.6,5.5l11,0.5l5,3.1l5-4l3.5,5l12.5-1.1
				l5.5,2l1.1-11.5l4.4-5L647.6,266.5z"/>
			<ellipse class="st6" cx="283.7" cy="386.7" rx="5" ry="5"/>
			<ellipse class="st6" cx="318.6" cy="361.8" rx="5" ry="5"/>
			<ellipse class="st6" cx="316.2" cy="379.2" rx="2.4" ry="2.4"/>
			<ellipse class="st6" cx="326.1" cy="399.2" rx="2.4" ry="2.4"/>
			<g class="st7">
				<path d="M313.9,414.1c0.6,0,0.9-0.2,1.2-0.3c0.3-0.2,0.5-0.8,0.6-1.5c0.2-0.8,0.3-2.3,0.5-4.3l0.3-5.4h4.7V415H320v-11.5h-2.6
					l-0.3,4.4c-0.2,2.1-0.3,3.7-0.5,4.6s-0.5,1.5-0.8,1.8c-0.5,0.3-1.1,0.5-2,0.5V414.1z"/>
			</g>
			<g class="st7">
				<path d="M323.1,416.2c0.6,0,1.1-0.2,1.4-0.3c0.3-0.2,0.5-0.5,0.5-0.9c0-0.2,0-0.5-0.2-0.8l-1.8-8.1h1.1l0.9,4.6l0.6,3.1l0.5-3.1
					l0.9-4.6h1.1l-2,9.2c-0.2,0.5-0.3,0.9-0.5,1.2c-0.3,0.3-0.5,0.5-0.9,0.6c-0.5,0.2-0.8,0.2-1.4,0.2v-1.1H323.1z"/>
				<path d="M329.5,406.1h3.2v0.8h-2.1v8h-1.1L329.5,406.1L329.5,406.1z"/>
			</g>
			<g class="st7">
				<path d="M334.5,414.5c-0.3-0.3-0.5-0.9-0.5-1.4c0-0.6,0.2-1.1,0.3-1.4c0.2-0.3,0.6-0.8,1.1-1.1c0.5-0.3,1.2-0.6,2.1-1.1V409
					c0-0.6,0-0.9-0.2-1.2c-0.2-0.3-0.2-0.5-0.3-0.6c-0.2-0.2-0.3-0.2-0.6-0.2c-0.8,0-1.2,0.5-1.2,1.5v0.3h-1.1v-0.3
					c0-0.8,0.3-1.4,0.6-1.8c0.5-0.3,0.9-0.6,1.7-0.6c0.8,0,1.4,0.3,1.7,0.8c0.3,0.5,0.5,1.2,0.5,2.3v4.3c0,0.3,0,0.6,0,0.9
					c0,0.3,0,0.6,0,0.8h-0.9l-0.2-1.2c-0.2,0.5-0.3,0.8-0.6,0.9c-0.3,0.2-0.8,0.5-1.1,0.5C335.3,415.1,334.8,415,334.5,414.5z
					 M336.9,413.9c0.3-0.2,0.5-0.5,0.6-0.8v-2.8c-0.8,0.3-1.2,0.6-1.5,0.9c-0.3,0.2-0.5,0.5-0.8,0.6c-0.2,0.3-0.3,0.6-0.3,1.1
					c0,0.5,0.2,0.8,0.3,0.9c0.2,0.2,0.5,0.3,0.8,0.3C336.5,414.2,336.8,414.1,336.9,413.9z"/>
			</g>
			<g class="st7">
				<path d="M340.6,406.1h1.1v3.8h2.7v-3.8h1.1v8.9h-1.1v-4.1h-2.7v4.1h-1.1V406.1z"/>
			</g>
			<g class="st7">
				<path d="M347.8,414.4c-0.3-0.6-0.5-1.4-0.5-2.4v-2.4c0-1.1,0.2-2,0.5-2.4c0.3-0.5,0.9-0.8,1.8-0.8s1.5,0.3,1.8,0.8
					c0.3,0.5,0.5,1.4,0.5,2.4v2.4c0,1.1-0.2,2-0.5,2.4c-0.3,0.6-0.9,0.8-1.8,0.8C348.7,415.1,348.1,414.8,347.8,414.4z M350.3,413.9
					c0.2-0.2,0.3-0.5,0.3-0.8s0-0.8,0-1.4v-2.6c0-0.6,0-1.1,0-1.4c0-0.3-0.2-0.6-0.3-0.8c-0.2-0.2-0.5-0.3-0.8-0.3
					c-0.3,0-0.6,0.2-0.8,0.3c-0.2,0.2-0.3,0.5-0.3,0.8c0,0.3,0,0.8,0,1.4v2.6c0,0.6,0,1.1,0,1.4c0,0.3,0.2,0.6,0.3,0.8
					c0.2,0.2,0.5,0.3,0.8,0.3C349.9,414.2,350.2,414.2,350.3,413.9z"/>
			</g>
			<g class="st7">
				<path d="M224.9,384.5l-3.7-7.8h1.5l3.4,7.6h0.2v-7.6h1.4v7.6h0.2l3.4-7.6h1.5l-3.7,7.8l4,8.4h-1.5l-3.7-8.1h-0.2v8.1h-1.4v-8.1
					h-0.2l-3.7,8.1h-1.5L224.9,384.5z"/>
			</g>
			<g class="st7">
				<path d="M235.4,392.7c-0.5-0.3-0.8-0.8-0.9-1.4s-0.3-1.5-0.3-2.6v-2.9c0-1.1,0.2-2,0.3-2.6c0.2-0.6,0.6-1.1,1.1-1.4
					c0.5-0.3,1.1-0.5,1.8-0.5s1.4,0.2,1.8,0.5c0.5,0.3,0.8,0.9,0.9,1.5s0.3,1.5,0.3,2.8v1.1h-4.6v1.7c0,0.8,0,1.4,0.2,1.8
					c0.2,0.5,0.3,0.8,0.5,1.1c0.3,0.2,0.6,0.3,1.1,0.3s0.9-0.2,1.2-0.5c0.3-0.3,0.5-0.9,0.5-1.7v-0.8h1.4v0.6c0,1.1-0.3,2-0.8,2.6
					c-0.5,0.6-1.2,0.9-2.3,0.9C236.5,393.1,235.9,393,235.4,392.7z M238.7,386.2v-0.9c0-0.8,0-1.2-0.2-1.7c0-0.5-0.2-0.8-0.5-0.9
					c-0.2-0.2-0.6-0.3-1.1-0.3s-0.8,0.2-0.9,0.3c-0.3,0.2-0.5,0.5-0.5,0.9c-0.2,0.5-0.2,1.1-0.2,1.8v0.8L238.7,386.2L238.7,386.2z"
					/>
			</g>
			<g class="st7">
				<path d="M242.3,381.5h1.4v5h3.5v-5h1.5V393h-1.5v-5.4h-3.5v5.4h-1.4V381.5z"/>
			</g>
			<g class="st7">
				<path d="M252.2,392.7c-0.5-0.3-0.8-0.8-0.9-1.4s-0.3-1.5-0.3-2.6v-2.9c0-1.1,0.2-2,0.3-2.6c0.2-0.6,0.6-1.1,1.1-1.4
					c0.5-0.3,1.1-0.5,1.8-0.5c0.8,0,1.4,0.2,1.8,0.5c0.5,0.3,0.8,0.9,0.9,1.5s0.3,1.5,0.3,2.8v1.1h-4.6v1.7c0,0.8,0,1.4,0.2,1.8
					s0.3,0.8,0.5,1.1c0.3,0.2,0.6,0.3,1.1,0.3c0.5,0,0.9-0.2,1.2-0.5c0.3-0.3,0.5-0.9,0.5-1.7v-0.8h1.4v0.6c0,1.1-0.3,2-0.8,2.6
					c-0.5,0.6-1.2,0.9-2.3,0.9C253.2,393.1,252.6,393,252.2,392.7z M255.5,386.2v-0.9c0-0.8,0-1.2-0.2-1.7c0-0.5-0.2-0.8-0.5-0.9
					c-0.2-0.2-0.6-0.3-1.1-0.3c-0.5,0-0.8,0.2-0.9,0.3c-0.3,0.2-0.5,0.5-0.5,0.9c-0.2,0.5-0.2,1.1-0.2,1.8v0.8L255.5,386.2
					L255.5,386.2z"/>
			</g>
			<g class="st7">
				<path d="M259,381.5h2.7c1.1,0,1.8,0.3,2.3,0.8c0.5,0.5,0.8,1.2,0.8,2c0,0.6-0.2,1.1-0.3,1.5c-0.2,0.5-0.6,0.8-1.1,0.9
					c0.6,0.2,1.1,0.5,1.4,1.1c0.3,0.6,0.5,1.2,0.5,1.8c0,1.1-0.2,1.8-0.6,2.4s-1.2,0.9-2.4,0.9h-2.9v-11.5H259z M261.9,386.4
					c0.5,0,0.8-0.2,1.1-0.5c0.3-0.3,0.5-0.8,0.5-1.4c0-1.2-0.6-1.8-1.8-1.8h-1.2v3.7H261.9z M261.8,391.9c0.6,0,1.1-0.2,1.4-0.6
					c0.3-0.3,0.5-0.9,0.5-1.7c0-0.9-0.2-1.4-0.5-1.7s-0.8-0.5-1.4-0.5h-1.4v4.4H261.8z"/>
			</g>
			<g class="st7">
				<path d="M267.4,392.4c-0.5-0.5-0.6-1.1-0.6-1.8c0-0.8,0.2-1.4,0.5-1.8c0.3-0.5,0.8-0.9,1.4-1.4c0.6-0.5,1.5-0.9,2.7-1.4v-0.8
					c0-0.8,0-1.2-0.2-1.7s-0.3-0.6-0.5-0.9c-0.2-0.2-0.5-0.3-0.9-0.3c-1.1,0-1.7,0.6-1.7,2v0.5h-1.4v-0.3c0-1.1,0.3-1.8,0.8-2.3
					s1.2-0.8,2.3-0.8s1.7,0.3,2.1,0.9c0.5,0.6,0.6,1.5,0.6,2.9v5.7c0,0.3,0,0.8,0,1.2c0,0.5,0,0.8,0,1.1h-1.2l-0.2-1.5
					c-0.2,0.5-0.5,0.9-0.9,1.2c-0.5,0.3-0.9,0.5-1.5,0.5C268.5,393.1,267.9,393,267.4,392.4z M270.6,391.4c0.3-0.3,0.6-0.6,0.8-0.9
					V387c-0.9,0.5-1.5,0.9-2,1.1c-0.5,0.3-0.6,0.5-0.9,0.9s-0.3,0.8-0.3,1.2c0,0.6,0.2,1.1,0.3,1.2c0.3,0.3,0.6,0.5,0.9,0.5
					C270,391.9,270.3,391.7,270.6,391.4z"/>
			</g>
			<g class="st7">
				<path d="M272.7,366.7h-8.2v-16.1h1.5v15h5.3v-15h1.5v15h1.2v3.8h-1.2L272.7,366.7z"/>
			</g>
			<g class="st7">
				<path d="M279.5,365.7c-0.5-0.8-0.6-1.8-0.6-3.2v-1.1h-1.5v5.2h-1.4v-11.5h1.4v5.4h1.5v-1.2c0-1.5,0.2-2.6,0.6-3.2
					c0.5-0.6,1.2-1.1,2.3-1.1s1.8,0.3,2.3,1.1c0.5,0.8,0.6,1.8,0.6,3.2v3.2c0,1.5-0.2,2.6-0.6,3.2c-0.5,0.8-1.2,1.1-2.3,1.1
					C280.7,366.8,279.9,366.5,279.5,365.7z M282.8,365.4c0.2-0.3,0.3-0.6,0.5-1.1c0-0.5,0.2-1.1,0.2-1.7v-3.4c0-0.8,0-1.4-0.2-1.7
					c-0.2-0.3-0.2-0.8-0.5-1.1c-0.2-0.3-0.6-0.3-1.1-0.3c-0.5,0-0.8,0.2-1.1,0.3s-0.3,0.6-0.5,1.1c0,0.5-0.2,1.1-0.2,1.8v3.4
					c0,0.8,0,1.4,0.2,1.8c0,0.5,0.2,0.8,0.5,1.1c0.2,0.3,0.6,0.3,1.1,0.3C282.2,365.7,282.5,365.6,282.8,365.4z"/>
				<path d="M286.6,355.2h1.4v0.9c0.6-0.8,1.4-1.1,2.1-1.1c1.1,0,1.7,0.5,2,1.2c0.3,0.8,0.6,2,0.6,3.4v2.4c0,1.5-0.2,2.8-0.6,3.7
					c-0.5,0.9-1.1,1.2-2.1,1.2c-0.8,0-1.4-0.3-2-1.1v4.7h-1.4V355.2z M291,364.8c0.2-0.6,0.3-1.5,0.3-2.8v-2.4
					c0-1.2-0.2-2.1-0.3-2.6c-0.2-0.5-0.6-0.8-1.2-0.8c-0.6,0-1.2,0.3-1.8,0.9v7.8c0.5,0.6,1.1,0.8,1.8,0.8
					C290.4,365.7,290.9,365.4,291,364.8z"/>
			</g>
			<g class="st7">
				<path d="M295,355.2h1.2v8.9l3.8-8.9h1.2v11.5H300v-8.9l-3.8,8.9H295V355.2z"/>
			</g>
			<g class="st7">
				<path d="M305.7,360.7l-2.6-5.5h1.4l2,4.3l1.8-4.3h1.4l-2.7,5.7l2.7,5.8h-1.4l-2.1-4.6l-2,4.6h-1.4L305.7,360.7z"/>
			</g>
			<ellipse class="st6" cx="383.6" cy="251.5" rx="5" ry="5"/>
			<ellipse class="st6" cx="203.8" cy="271.5" rx="5" ry="5"/>
			<g class="st7">
				<path d="M141.5,275.5c0.8,0,1.2-0.2,1.5-0.5c0.3-0.3,0.5-0.9,0.8-2c0.2-1.1,0.3-2.9,0.6-5.5l0.5-6.9h6.1v16.1h-1.5v-15h-3.4
					l-0.3,5.8c-0.2,2.9-0.5,4.9-0.6,6c-0.2,1.2-0.6,2-1.1,2.4s-1.4,0.8-2.4,0.6v-1.1H141.5z"/>
			</g>
			<g class="st7">
				<path d="M153.8,275.6c-0.5-0.8-0.6-1.8-0.6-3.2v-3.2c0-1.5,0.2-2.6,0.6-3.2s1.2-1.1,2.4-1.1c1.1,0,2,0.3,2.4,1.1
					c0.5,0.8,0.6,1.8,0.6,3.2v3.2c0,1.5-0.2,2.6-0.6,3.2c-0.5,0.8-1.2,1.1-2.4,1.1C155,276.7,154.3,276.4,153.8,275.6z M157.3,275.3
					c0.3-0.3,0.3-0.6,0.5-1.1c0-0.5,0.2-1.1,0.2-1.7v-3.4c0-0.8,0-1.4-0.2-1.7c0-0.5-0.2-0.8-0.5-1.1c-0.3-0.3-0.6-0.3-1.1-0.3
					s-0.8,0.2-1.1,0.3c-0.3,0.3-0.3,0.6-0.5,1.1c0,0.5-0.2,1.1-0.2,1.8v3.4c0,0.8,0,1.4,0.2,1.8c0,0.5,0.2,0.8,0.5,1.1
					c0.3,0.3,0.6,0.3,1.1,0.3S157,275.5,157.3,275.3z"/>
			</g>
			<g class="st7">
				<path d="M161.5,265.1h1.4v5h3.5v-5h1.5v11.5h-1.5v-5.4h-3.5v5.4h-1.4V265.1z"/>
			</g>
			<g class="st7">
				<path d="M169.7,275.5c0.5-0.3,0.9-0.8,1.2-1.2c0.3-0.5,0.6-1.4,0.8-2.4c0.2-1.1,0.3-2.4,0.5-4.1l0.2-2.8h4.7v10.4h1.2v3.8h-1.1
					l-0.2-2.8h-6.1l-0.2,2.8h-1.1L169.7,275.5L169.7,275.5z M175.6,275.5v-9.3h-2.1l-0.2,1.8c0,1.7-0.2,2.9-0.3,4
					c-0.2,0.9-0.5,1.7-0.6,2.3c-0.3,0.5-0.6,0.9-1.1,1.2H175.6z"/>
			</g>
			<g class="st7">
				<path d="M180.4,275.6c-0.5-0.8-0.6-1.8-0.6-3.2v-3.2c0-1.5,0.2-2.6,0.6-3.2c0.5-0.6,1.2-1.1,2.4-1.1c1.1,0,2,0.3,2.4,1.1
					c0.5,0.8,0.6,1.8,0.6,3.2v3.2c0,1.5-0.2,2.6-0.6,3.2c-0.5,0.8-1.2,1.1-2.4,1.1C181.6,276.7,180.8,276.4,180.4,275.6z
					 M183.9,275.3c0.3-0.3,0.3-0.6,0.5-1.1c0-0.5,0.2-1.1,0.2-1.7v-3.4c0-0.8,0-1.4-0.2-1.7c0-0.5-0.2-0.8-0.5-1.1
					c-0.3-0.3-0.6-0.3-1.1-0.3s-0.8,0.2-1.1,0.3c-0.3,0.3-0.3,0.6-0.5,1.1c0,0.5-0.2,1.1-0.2,1.8v3.4c0,0.8,0,1.4,0.2,1.8
					c0,0.5,0.2,0.8,0.5,1.1c0.3,0.3,0.6,0.3,1.1,0.3S183.6,275.5,183.9,275.3z"/>
			</g>
			<g class="st7">
				<path d="M188,265.1h1.4v5h3.5v-5h1.5v11.5h-1.5v-5.4h-3.5v5.4H188V265.1z"/>
			</g>
			<ellipse class="st6" cx="498.4" cy="266.5" rx="5" ry="5"/>
			<g class="st7">
				<path d="M427.6,256.7h3.5c1.4,0,2.4,0.3,3,1.1c0.6,0.8,0.9,1.7,0.9,2.9c0,0.9-0.2,1.7-0.5,2.3c-0.3,0.6-0.9,1.1-1.5,1.2
					c0.9,0.3,1.5,0.8,1.8,1.4c0.3,0.8,0.6,1.5,0.6,2.6c0,1.4-0.3,2.6-0.9,3.4c-0.6,0.8-1.5,1.2-2.9,1.2h-4v-16.1H427.6z
					 M431.3,263.6c0.9,0,1.5-0.3,1.8-0.8s0.5-1.2,0.5-2.1c0-0.6-0.2-1.2-0.3-1.7s-0.5-0.8-0.9-0.9c-0.5-0.2-1.1-0.3-1.8-0.3h-1.4
					v5.8H431.3z M431.3,271.7c0.8,0,1.2-0.2,1.5-0.3s0.6-0.6,0.8-1.1c0.2-0.5,0.2-1.2,0.2-2c0-2.3-0.9-3.4-2.6-3.4H429v6.9h2.3
					V271.7z"/>
			</g>
			<g class="st7">
				<path d="M437.9,272.1c-0.5-0.5-0.6-1.1-0.6-1.8c0-0.8,0.2-1.4,0.5-1.8c0.3-0.5,0.8-0.9,1.4-1.4c0.6-0.5,1.5-0.9,2.7-1.4v-0.8
					c0-0.8,0-1.2-0.2-1.7s-0.3-0.6-0.5-0.9c-0.2-0.2-0.5-0.3-0.9-0.3c-1.1,0-1.7,0.6-1.7,2v0.5h-1.4v-0.3c0-1.1,0.3-1.8,0.8-2.3
					c0.5-0.5,1.2-0.8,2.3-0.8c1.1,0,1.7,0.3,2.1,0.9c0.5,0.6,0.6,1.5,0.6,2.9v5.7c0,0.3,0,0.8,0,1.2s0,0.8,0,1.1h-0.9l-0.2-1.5
					c-0.2,0.5-0.5,0.9-0.9,1.2c-0.5,0.3-0.9,0.5-1.5,0.5C438.9,272.9,438.3,272.7,437.9,272.1z M441.1,271.2
					c0.3-0.3,0.6-0.6,0.8-0.9v-3.5c-0.9,0.5-1.5,0.9-2,1.1c-0.5,0.3-0.6,0.5-0.9,0.9s-0.3,0.8-0.3,1.2c0,0.6,0.2,1.1,0.3,1.2
					c0.3,0.3,0.6,0.5,0.9,0.5C440.5,271.7,440.8,271.5,441.1,271.2z"/>
				<path d="M445.5,261.3h1.4v0.9c0.6-0.8,1.4-1.1,2.1-1.1c1.1,0,1.7,0.5,2,1.2c0.3,0.8,0.6,2,0.6,3.4v2.4c0,1.5-0.2,2.8-0.6,3.7
					c-0.5,0.9-1.1,1.2-2.1,1.2c-0.8,0-1.4-0.3-2-1.1v4.7h-1.4V261.3z M449.9,270.9c0.2-0.6,0.3-1.5,0.3-2.8v-2.4
					c0-1.2-0.2-2.1-0.3-2.6s-0.6-0.8-1.2-0.8c-0.6,0-1.2,0.3-1.8,0.9v7.8c0.5,0.6,1.1,0.8,1.8,0.8
					C449.3,271.8,449.8,271.5,449.9,270.9z"/>
			</g>
			<g class="st7">
				<path d="M453.9,261.3h1.4v10.4h2.6v-10.4h1.4v10.4h2.4v-10.4h1.4v11.5h-9.3v-11.5H453.9z"/>
			</g>
			<g class="st7">
				<path d="M465.8,272.1c-0.5-0.5-0.6-1.1-0.6-1.8c0-0.8,0.2-1.4,0.5-1.8c0.3-0.5,0.8-0.9,1.4-1.4s1.5-0.9,2.7-1.4v-0.8
					c0-0.8,0-1.2-0.2-1.7c-0.2-0.5-0.3-0.6-0.5-0.9c-0.2-0.2-0.5-0.3-0.9-0.3c-1.1,0-1.7,0.6-1.7,2v0.5h-1.4v-0.3
					c0-1.1,0.3-1.8,0.8-2.3c0.5-0.5,1.2-0.8,2.3-0.8s1.7,0.3,2.1,0.9c0.5,0.6,0.6,1.5,0.6,2.9v5.7c0,0.3,0,0.8,0,1.2s0,0.8,0,1.1
					h-1.2l-0.2-1.5c-0.2,0.5-0.5,0.9-0.9,1.2c-0.5,0.3-0.9,0.5-1.5,0.5C466.8,272.9,466.2,272.7,465.8,272.1z M469,271.2
					c0.3-0.3,0.6-0.6,0.8-0.9v-3.5c-0.9,0.5-1.5,0.9-2,1.1c-0.5,0.3-0.6,0.5-0.9,0.9s-0.3,0.8-0.3,1.2c0,0.6,0.2,1.1,0.3,1.2
					c0.3,0.3,0.6,0.5,0.9,0.5C468.4,271.7,468.7,271.5,469,271.2z"/>
			</g>
			<g class="st7">
				<path d="M473.4,261.3h2.7c1.1,0,1.8,0.3,2.3,0.8s0.8,1.2,0.8,2c0,0.6-0.2,1.1-0.3,1.5c-0.2,0.5-0.6,0.8-1.1,0.9
					c0.6,0.2,1.1,0.5,1.4,1.1c0.3,0.6,0.5,1.2,0.5,1.8c0,1.1-0.2,1.8-0.6,2.4c-0.5,0.6-1.2,0.9-2.4,0.9h-2.9v-11.5H473.4z
					 M476.3,266.2c0.5,0,0.8-0.2,1.1-0.5c0.3-0.3,0.5-0.8,0.5-1.4c0-1.2-0.6-1.8-1.8-1.8h-1.2v3.7H476.3z M476.1,271.7
					c0.6,0,1.1-0.2,1.4-0.6c0.3-0.3,0.5-0.9,0.5-1.7c0-0.9-0.2-1.4-0.5-1.7c-0.3-0.3-0.8-0.5-1.4-0.5h-1.4v4.4H476.1L476.1,271.7z"
					/>
			</g>
			<g class="st7">
				<path d="M481.8,272.1c-0.5-0.5-0.6-1.1-0.6-1.8c0-0.8,0.2-1.4,0.5-1.8c0.3-0.5,0.8-0.9,1.4-1.4c0.6-0.5,1.5-0.9,2.7-1.4v-0.8
					c0-0.8,0-1.2-0.2-1.7c-0.2-0.5-0.3-0.6-0.5-0.9c-0.2-0.2-0.5-0.3-0.9-0.3c-1.1,0-1.7,0.6-1.7,2v0.5h-1.4v-0.3
					c0-1.1,0.3-1.8,0.8-2.3c0.5-0.5,1.2-0.8,2.3-0.8s1.7,0.3,2.1,0.9c0.5,0.6,0.6,1.5,0.6,2.9v5.7c0,0.3,0,0.8,0,1.2s0,0.8,0,1.1
					h-1.2l-0.2-1.5c-0.2,0.5-0.5,0.9-0.9,1.2c-0.5,0.3-0.9,0.5-1.5,0.5C482.8,272.9,482.2,272.7,481.8,272.1z M485,271.2
					c0.3-0.3,0.6-0.6,0.8-0.9v-3.5c-0.9,0.5-1.5,0.9-2,1.1c-0.5,0.3-0.6,0.5-0.9,0.9c-0.3,0.5-0.3,0.8-0.3,1.2
					c0,0.6,0.2,1.1,0.3,1.2c0.3,0.3,0.6,0.5,0.9,0.5C484.4,271.7,484.7,271.5,485,271.2z"/>
			</g>
			<ellipse class="st6" cx="628.3" cy="306.5" rx="7.5" ry="7.5"/>
			<g class="st7">
				<path class="st6" d="M643.4,296.7h1.5v7.3h1.1l3.4-7.3h1.5l-3.5,7.8l4,8.4h-1.5l-3.8-8h-1.1v8h-1.5V296.7z"/>
			</g>
			<g class="st7">
				<path class="st6" d="M653.1,301.3h1.2v8.9l3.8-8.9h1.2v11.5h-1.2v-8.9l-3.8,8.9h-1.2V301.3z"/>
			</g>
			<g class="st7">
				<path class="st6" d="M662.7,312.5c-0.5-0.3-0.8-0.8-1.1-1.4s-0.3-1.5-0.3-2.6v-2.9c0-1.1,0.2-2,0.3-2.6s0.6-1.1,1.1-1.4
					c0.5-0.3,1.1-0.5,1.8-0.5c0.8,0,1.4,0.2,1.8,0.5c0.5,0.3,0.8,0.9,0.9,1.5s0.3,1.5,0.3,2.8v1.1H663v1.7c0,0.8,0,1.4,0.2,1.8
					s0.3,0.8,0.5,1.1c0.2,0.3,0.6,0.3,1.1,0.3c0.5,0,0.9-0.2,1.2-0.5c0.3-0.3,0.5-0.9,0.5-1.7V309h1.4v0.6c0,1.1-0.3,2-0.8,2.6
					c-0.5,0.6-1.2,0.9-2.3,0.9C663.8,313,663.2,312.8,662.7,312.5z M666.1,306.1v-0.9c0-0.8,0-1.2-0.2-1.7c0-0.5-0.2-0.8-0.5-0.9
					c-0.2-0.2-0.6-0.3-1.1-0.3s-0.8,0.2-0.9,0.3c-0.3,0.2-0.5,0.5-0.5,0.9c-0.2,0.5-0.2,1.1-0.2,1.8v0.8H666.1L666.1,306.1z"/>
			</g>
			<g class="st7">
				<path class="st6" d="M669.6,301.3h2.7c1.1,0,1.8,0.3,2.3,0.8s0.8,1.2,0.8,2c0,0.6-0.2,1.1-0.3,1.5s-0.6,0.8-1.1,0.9
					c0.6,0.2,1.1,0.5,1.4,1.1c0.3,0.6,0.5,1.2,0.5,1.8c0,1.1-0.2,1.8-0.6,2.4c-0.5,0.6-1.2,0.9-2.4,0.9h-2.9v-11.5H669.6z
					 M672.5,306.2c0.5,0,0.8-0.2,1.1-0.5c0.3-0.3,0.5-0.8,0.5-1.4c0-1.2-0.6-1.8-1.8-1.8H671v3.7H672.5z M672.3,311.7
					c0.6,0,1.1-0.2,1.4-0.6c0.3-0.3,0.5-0.9,0.5-1.7c0-0.9-0.2-1.4-0.5-1.7c-0.3-0.3-0.8-0.5-1.4-0.5H671v4.4L672.3,311.7
					L672.3,311.7z"/>
			</g>
			<ellipse class="st6" cx="468.4" cy="376.7" rx="5" ry="5"/>
			<ellipse class="st6" cx="428.4" cy="351.7" rx="5" ry="5"/>
			<g class="st7">
				<path d="M483.6,367h6.4v1.1h-4.9v5.7h1.2c1.5,0,2.7,0.3,3.5,1.1c0.8,0.8,1.1,2,1.1,3.7c0,1.5-0.3,2.6-1.1,3.4
					c-0.8,0.8-1.8,1.2-3.5,1.2h-2.9V367H483.6z M486.5,381.8c1.1,0,1.8-0.3,2.3-0.8c0.5-0.6,0.8-1.4,0.8-2.6c0-1.2-0.3-2.1-0.8-2.8
					c-0.5-0.6-1.2-0.9-2.4-0.9H485v7H486.5z"/>
			</g>
			<g class="st7">
				<path d="M492.4,384.7c0.8,0,1.4-0.2,1.7-0.5c0.3-0.3,0.5-0.6,0.5-1.2c0-0.3,0-0.6-0.2-1.1l-2.4-10.6h1.4l1.2,6.1l0.8,4l0.8-4
					l1.1-6.1h1.4l-2.6,11.8c-0.2,0.8-0.5,1.2-0.8,1.5c-0.3,0.3-0.8,0.6-1.2,0.8c-0.5,0.2-1.1,0.2-1.8,0.3v-1.1H492.4z"/>
			</g>
			<g class="st7">
				<path d="M499,381.9c0.5-0.3,0.9-0.8,1.2-1.2c0.3-0.5,0.6-1.4,0.8-2.4s0.3-2.4,0.5-4.1l0.2-2.8h4.7v10.4h1.2v3.8h-1.1l-0.2-2.8
					h-6.1l-0.2,2.8H499L499,381.9L499,381.9z M504.9,381.9v-9.3h-2.1l-0.2,1.8c0,1.7-0.2,2.9-0.3,4c-0.2,1.1-0.5,1.7-0.6,2.3
					c-0.3,0.5-0.6,0.9-1.1,1.2H504.9z"/>
			</g>
			<g class="st7">
				<path d="M509.8,382.4c-0.5-0.5-0.6-1.1-0.6-1.8c0-0.8,0.2-1.4,0.5-1.8c0.3-0.5,0.8-0.9,1.4-1.4c0.6-0.5,1.5-0.9,2.7-1.4v-0.8
					c0-0.8,0-1.2-0.2-1.7s-0.3-0.6-0.5-0.9c-0.2-0.2-0.5-0.3-0.9-0.3c-1.1,0-1.7,0.6-1.7,2v0.5h-1.4v-0.3c0-1.1,0.3-1.8,0.8-2.3
					s1.2-0.8,2.3-0.8c1.1,0,1.7,0.3,2.1,0.9s0.6,1.5,0.6,2.9v5.7c0,0.3,0,0.8,0,1.2s0,0.8,0,1.1h-1.2l-0.2-1.5
					c-0.2,0.5-0.5,0.9-0.9,1.2c-0.5,0.3-0.9,0.5-1.5,0.5C510.9,383.2,510.3,383,509.8,382.4z M513,381.5c0.3-0.3,0.6-0.6,0.8-0.9
					v-3.5c-0.9,0.5-1.5,0.9-2,1.1c-0.5,0.3-0.6,0.5-0.9,0.9s-0.3,0.8-0.3,1.2c0,0.6,0.2,1.1,0.3,1.2c0.2,0.2,0.6,0.5,0.9,0.5
					C512.4,381.9,512.7,381.8,513,381.5z"/>
			</g>
			<g class="st7">
				<path d="M517.4,371.5h6.1V383h-1.4v-10.4H519V383h-1.4v-11.5H517.4z"/>
			</g>
			<g class="st7">
				<path d="M526.9,382.7c-0.5-0.3-0.8-0.8-0.9-1.4s-0.3-1.5-0.3-2.6v-2.9c0-1.1,0.2-2,0.3-2.6c0.2-0.6,0.6-1.1,1.1-1.4
					c0.5-0.3,1.1-0.5,1.8-0.5c0.8,0,1.4,0.2,1.8,0.5c0.5,0.3,0.8,0.9,0.9,1.5s0.3,1.5,0.3,2.8v1.1h-4.6v1.7c0,0.8,0,1.4,0.2,1.8
					s0.3,0.8,0.5,1.1c0.3,0.2,0.6,0.3,1.1,0.3c0.5,0,0.9-0.2,1.2-0.5c0.3-0.3,0.5-0.9,0.5-1.7v-0.8h1.4v0.6c0,1.1-0.3,2-0.8,2.6
					s-1.2,0.9-2.3,0.9C528,383.2,527.4,383,526.9,382.7z M530.2,376.3v-0.9c0-0.8,0-1.2-0.2-1.7s-0.2-0.8-0.5-0.9
					c-0.2-0.2-0.6-0.3-1.1-0.3c-0.5,0-0.8,0.2-0.9,0.3s-0.5,0.5-0.5,0.9c-0.2,0.5-0.2,1.1-0.2,1.8v0.8L530.2,376.3L530.2,376.3z"/>
			</g>
			<g class="st7">
				<path d="M533.8,371.5h1.4v10.4h2.6v-10.4h1.4v10.4h2.4v-10.4h1.4V383h-9.3v-11.5H533.8z"/>
			</g>
			<g class="st7">
				<path d="M547.2,372.6h-2.4v-1.1h6.4v1.1h-2.4V383h-1.4v-10.4H547.2z"/>
			</g>
			<g class="st7">
				<path d="M328.5,385.8h-6.4v-12.4h1.2v11.5h4.1v-11.5h1.2v11.5h0.9v3.1h-0.9L328.5,385.8z"/>
			</g>
			<g class="st7">
				<path d="M331,387c0.6,0,1.1-0.2,1.4-0.3c0.3-0.2,0.5-0.5,0.5-0.9c0-0.2,0-0.5-0.2-0.8l-1.8-8.1h1.1l0.9,4.6l0.6,3.1l0.5-3.1
					l0.9-4.6h1.1l-2,9.2c-0.2,0.5-0.3,0.9-0.5,1.2c-0.3,0.3-0.5,0.5-0.9,0.6s-0.8,0.2-1.4,0.2V387H331z"/>
			</g>
			<g class="st7">
				<path d="M337.4,376.9h3.2v0.8h-2.1v8h-1.1V376.9z"/>
			</g>
			<path class="st8" d="M283.7,386.7l1.2-0.9"/>
			<path class="st9" d="M287.2,383.8c81.4-67.3,223.4-90.4,338-77.6"/>
			<path class="st8" d="M626.8,306.4h1.5"/>
			<path class="st10" d="M316.2,379.2c0-9.6,1.1-17.6,2.4-17.6"/>
			<path class="st10" d="M326.1,399.2c-5.5,0-10.1-9-10.1-20"/>
			<path class="st11" d="M381,252.7c82.3-33.2,174.1-26,247.1,53.8"/>
			<path class="st11" d="M498.4,266.5c61.1-7,100.3,12.5,129.9,40.1"/>
			<path class="st11" d="M203.8,271.5c79.9,40.5,218.5-10.1,424.4,35"/>
			<path class="st11" d="M428.4,351.7c29-24.5,89.3-45.1,199.7-45.1"/>
			<path class="st11" d="M468.4,376.7c36.9-50.6,116.3-70.2,159.8-70.2"/>
		</g>
	</g>
</g>
<linearGradient id="SVGID_3_" gradientUnits="userSpaceOnUse" x1="84.1085" y1="343.6562" x2="862.6537" y2="-434.889" gradientTransform="matrix(1 0 0 1 0 352.69)">
	<stop  offset="0" style="stop-color:#FFFFFF;stop-opacity:0"/>
	<stop  offset="0.16" style="stop-color:#FFFFFF;stop-opacity:1.000000e-02"/>
	<stop  offset="0.29" style="stop-color:#FFFFFF;stop-opacity:5.000000e-02"/>
	<stop  offset="0.41" style="stop-color:#FFFFFF;stop-opacity:0.12"/>
	<stop  offset="0.52" style="stop-color:#FFFFFF;stop-opacity:0.21"/>
	<stop  offset="0.63" style="stop-color:#FFFFFF;stop-opacity:0.33"/>
	<stop  offset="0.74" style="stop-color:#FFFFFF;stop-opacity:0.48"/>
	<stop  offset="0.84" style="stop-color:#FFFFFF;stop-opacity:0.66"/>
	<stop  offset="0.94" style="stop-color:#FFFFFF;stop-opacity:0.86"/>
	<stop  offset="1" style="stop-color:#FFFFFF"/>
</linearGradient>
<rect x="0.8" y="1.1" class="st12" width="945.2" height="611.9"/>
<linearGradient id="SVGID_4_" gradientUnits="userSpaceOnUse" x1="472.6189" y1="259.1628" x2="472.6189" y2="-352.69" gradientTransform="matrix(1 0 0 1 0 352.69)">
	<stop  offset="0" style="stop-color:#FFFFFF;stop-opacity:0"/>
	<stop  offset="0.12" style="stop-color:#FFFFFF;stop-opacity:2.000000e-02"/>
	<stop  offset="0.25" style="stop-color:#FFFFFF;stop-opacity:7.000000e-02"/>
	<stop  offset="0.37" style="stop-color:#FFFFFF;stop-opacity:0.15"/>
	<stop  offset="0.5" style="stop-color:#FFFFFF;stop-opacity:0.26"/>
	<stop  offset="0.63" style="stop-color:#FFFFFF;stop-opacity:0.41"/>
	<stop  offset="0.76" style="stop-color:#FFFFFF;stop-opacity:0.59"/>
	<stop  offset="0.89" style="stop-color:#FFFFFF;stop-opacity:0.8"/>
	<stop  offset="1" style="stop-color:#FFFFFF"/>
</linearGradient>
<rect class="st13" width="945.2" height="611.9"/>
<ellipse class="st14" cx="498.4" cy="266.5" rx="5" ry="5"/>
<path id="UA-2" class="st15" d="M647.6,266.5l5,1.1l3.5-5l4,1.1l14.5-2l9,13l-3.5,4.4l1.1,7l11,1.1l5,9.5l-0.5,4.4l18,7.5l10.5-3.5
	l8.5,10.1h7.9l20.4,7v6.6l-5.5,11l3,11.5l-2,7l-13.4,1.5l-7,6l-0.5,9l-11,1.5l-9.5,6.6l-13,1.1l-12,7.5l-6.6,5l7.5,7.5l7,5l14.5-1.1
	l-2.4,7l-15.7,3.4l-18.9,11.5l-7.5-4l3-9l-15.7-6.1l2.4-4l16-8l-2-4l-2.4,2l-2-1.1l-22-5l-1.1-7.5l-13,2.4l-5,11l-11,15l-6.6-3.5
	l-6.6,3.1l-5.9-3.5l3.5-2l2.4-7l4-6.6l-1.1-3.5l3-1.5l1.5,3.1l8.5,0.5l3.5-1.5l-2.4-2l1.1-3.1l-5-5l-2-8.6l-5-3.5l1.1-7l-6.6-5.5
	l-5.9-1.1l-10.5-6.6l-9.5,2l-3.5,3.1h-5.9l-3.5,5l-10.5,2l-5,3.1l-6.6-5h-9l-8.5-2.4l-5.9,4.4l-1.1-5.5l-7.5-5.5l2.4-8.6l4-5.5
	l3,1.1l-3.5-9.5l12.5-18l7-2.4l1.5-6l-7-19.6l6.6-1.1l7.5-6l11-0.5l14,2l15.6,5.5l11,0.5l5,3.1l5-4l3.5,5l12.5-1.1l5.5,2l1.1-11.5
	l4.4-5L647.6,266.5z"/>
<g class="st7">
	<path d="M313.9,414.1c0.6,0,0.9-0.2,1.2-0.3c0.3-0.2,0.5-0.8,0.6-1.5c0.2-0.8,0.3-2.3,0.5-4.3l0.3-5.4h4.7V415H320v-11.5h-2.6
		l-0.3,4.4c-0.2,2.1-0.3,3.7-0.5,4.6s-0.5,1.5-0.8,1.8c-0.5,0.3-1.1,0.5-2,0.5V414.1z"/>
</g>
<g class="st7">
	<path d="M323.1,416.2c0.6,0,1.1-0.2,1.4-0.3c0.3-0.2,0.5-0.5,0.5-0.9c0-0.2,0-0.5-0.2-0.8l-1.8-8.1h1.1l0.9,4.6l0.6,3.1l0.5-3.1
		l0.9-4.6h1.1l-2,9.2c-0.2,0.5-0.3,0.9-0.5,1.2c-0.3,0.3-0.5,0.5-0.9,0.6c-0.5,0.2-0.8,0.2-1.4,0.2v-1.1H323.1z"/>
	<path d="M329.5,406.1h3.2v0.8h-2.1v8h-1.1L329.5,406.1L329.5,406.1z"/>
</g>
<g class="st7">
	<path d="M334.5,414.5c-0.3-0.3-0.5-0.9-0.5-1.4c0-0.6,0.2-1.1,0.3-1.4c0.2-0.3,0.6-0.8,1.1-1.1c0.5-0.3,1.2-0.6,2.1-1.1V409
		c0-0.6,0-0.9-0.2-1.2c-0.2-0.3-0.2-0.5-0.3-0.6c-0.2-0.2-0.3-0.2-0.6-0.2c-0.8,0-1.2,0.5-1.2,1.5v0.3h-1.1v-0.3
		c0-0.8,0.3-1.4,0.6-1.8c0.5-0.3,0.9-0.6,1.7-0.6c0.8,0,1.4,0.3,1.7,0.8c0.3,0.5,0.5,1.2,0.5,2.3v4.3c0,0.3,0,0.6,0,0.9
		c0,0.3,0,0.6,0,0.8h-0.9l-0.2-1.2c-0.2,0.5-0.3,0.8-0.6,0.9c-0.3,0.2-0.8,0.5-1.1,0.5C335.3,415.1,334.8,415,334.5,414.5z
		 M336.9,413.9c0.3-0.2,0.5-0.5,0.6-0.8v-2.8c-0.8,0.3-1.2,0.6-1.5,0.9c-0.3,0.2-0.5,0.5-0.8,0.6c-0.2,0.3-0.3,0.6-0.3,1.1
		c0,0.5,0.2,0.8,0.3,0.9c0.2,0.2,0.5,0.3,0.8,0.3C336.5,414.2,336.8,414.1,336.9,413.9z"/>
</g>
<g class="st7">
	<path d="M340.6,406.1h1.1v3.8h2.7v-3.8h1.1v8.9h-1.1v-4.1h-2.7v4.1h-1.1V406.1z"/>
</g>
<g class="st7">
	<path d="M347.8,414.4c-0.3-0.6-0.5-1.4-0.5-2.4v-2.4c0-1.1,0.2-2,0.5-2.4c0.3-0.5,0.9-0.8,1.8-0.8s1.5,0.3,1.8,0.8
		c0.3,0.5,0.5,1.4,0.5,2.4v2.4c0,1.1-0.2,2-0.5,2.4c-0.3,0.6-0.9,0.8-1.8,0.8C348.7,415.1,348.1,414.8,347.8,414.4z M350.3,413.9
		c0.2-0.2,0.3-0.5,0.3-0.8s0-0.8,0-1.4v-2.6c0-0.6,0-1.1,0-1.4c0-0.3-0.2-0.6-0.3-0.8c-0.2-0.2-0.5-0.3-0.8-0.3
		c-0.3,0-0.6,0.2-0.8,0.3c-0.2,0.2-0.3,0.5-0.3,0.8c0,0.3,0,0.8,0,1.4v2.6c0,0.6,0,1.1,0,1.4c0,0.3,0.2,0.6,0.3,0.8
		c0.2,0.2,0.5,0.3,0.8,0.3C349.9,414.2,350.2,414.2,350.3,413.9z"/>
</g>
<g class="st7">
	<path d="M224.9,384.5l-3.7-7.8h1.5l3.4,7.6h0.2v-7.6h1.4v7.6h0.2l3.4-7.6h1.5l-3.7,7.8l4,8.4h-1.5l-3.7-8.1h-0.2v8.1h-1.4v-8.1
		h-0.2l-3.7,8.1h-1.5L224.9,384.5z"/>
</g>
<g class="st7">
	<path d="M235.4,392.7c-0.5-0.3-0.8-0.8-0.9-1.4s-0.3-1.5-0.3-2.6v-2.9c0-1.1,0.2-2,0.3-2.6c0.2-0.6,0.6-1.1,1.1-1.4
		c0.5-0.3,1.1-0.5,1.8-0.5s1.4,0.2,1.8,0.5c0.5,0.3,0.8,0.9,0.9,1.5s0.3,1.5,0.3,2.8v1.1h-4.6v1.7c0,0.8,0,1.4,0.2,1.8
		c0.2,0.5,0.3,0.8,0.5,1.1c0.3,0.2,0.6,0.3,1.1,0.3s0.9-0.2,1.2-0.5c0.3-0.3,0.5-0.9,0.5-1.7v-0.8h1.4v0.6c0,1.1-0.3,2-0.8,2.6
		c-0.5,0.6-1.2,0.9-2.3,0.9C236.5,393.1,235.9,393,235.4,392.7z M238.7,386.2v-0.9c0-0.8,0-1.2-0.2-1.7c0-0.5-0.2-0.8-0.5-0.9
		c-0.2-0.2-0.6-0.3-1.1-0.3s-0.8,0.2-0.9,0.3c-0.3,0.2-0.5,0.5-0.5,0.9c-0.2,0.5-0.2,1.1-0.2,1.8v0.8L238.7,386.2L238.7,386.2z"/>
</g>
<g class="st7">
	<path d="M242.3,381.5h1.4v5h3.5v-5h1.5V393h-1.5v-5.4h-3.5v5.4h-1.4V381.5z"/>
</g>
<g class="st7">
	<path d="M252.2,392.7c-0.5-0.3-0.8-0.8-0.9-1.4s-0.3-1.5-0.3-2.6v-2.9c0-1.1,0.2-2,0.3-2.6c0.2-0.6,0.6-1.1,1.1-1.4
		c0.5-0.3,1.1-0.5,1.8-0.5c0.8,0,1.4,0.2,1.8,0.5c0.5,0.3,0.8,0.9,0.9,1.5s0.3,1.5,0.3,2.8v1.1h-4.6v1.7c0,0.8,0,1.4,0.2,1.8
		s0.3,0.8,0.5,1.1c0.3,0.2,0.6,0.3,1.1,0.3c0.5,0,0.9-0.2,1.2-0.5c0.3-0.3,0.5-0.9,0.5-1.7v-0.8h1.4v0.6c0,1.1-0.3,2-0.8,2.6
		c-0.5,0.6-1.2,0.9-2.3,0.9C253.2,393.1,252.6,393,252.2,392.7z M255.5,386.2v-0.9c0-0.8,0-1.2-0.2-1.7c0-0.5-0.2-0.8-0.5-0.9
		c-0.2-0.2-0.6-0.3-1.1-0.3c-0.5,0-0.8,0.2-0.9,0.3c-0.3,0.2-0.5,0.5-0.5,0.9c-0.2,0.5-0.2,1.1-0.2,1.8v0.8L255.5,386.2L255.5,386.2
		z"/>
</g>
<g class="st7">
	<path d="M259,381.5h2.7c1.1,0,1.8,0.3,2.3,0.8c0.5,0.5,0.8,1.2,0.8,2c0,0.6-0.2,1.1-0.3,1.5c-0.2,0.5-0.6,0.8-1.1,0.9
		c0.6,0.2,1.1,0.5,1.4,1.1c0.3,0.6,0.5,1.2,0.5,1.8c0,1.1-0.2,1.8-0.6,2.4s-1.2,0.9-2.4,0.9h-2.9v-11.5H259z M261.9,386.4
		c0.5,0,0.8-0.2,1.1-0.5c0.3-0.3,0.5-0.8,0.5-1.4c0-1.2-0.6-1.8-1.8-1.8h-1.2v3.7H261.9z M261.8,391.9c0.6,0,1.1-0.2,1.4-0.6
		c0.3-0.3,0.5-0.9,0.5-1.7c0-0.9-0.2-1.4-0.5-1.7s-0.8-0.5-1.4-0.5h-1.4v4.4H261.8z"/>
</g>
<g class="st7">
	<path d="M267.4,392.4c-0.5-0.5-0.6-1.1-0.6-1.8c0-0.8,0.2-1.4,0.5-1.8c0.3-0.5,0.8-0.9,1.4-1.4c0.6-0.5,1.5-0.9,2.7-1.4v-0.8
		c0-0.8,0-1.2-0.2-1.7s-0.3-0.6-0.5-0.9c-0.2-0.2-0.5-0.3-0.9-0.3c-1.1,0-1.7,0.6-1.7,2v0.5h-1.4v-0.3c0-1.1,0.3-1.8,0.8-2.3
		s1.2-0.8,2.3-0.8s1.7,0.3,2.1,0.9c0.5,0.6,0.6,1.5,0.6,2.9v5.7c0,0.3,0,0.8,0,1.2c0,0.5,0,0.8,0,1.1h-1.2l-0.2-1.5
		c-0.2,0.5-0.5,0.9-0.9,1.2c-0.5,0.3-0.9,0.5-1.5,0.5C268.5,393.1,267.9,393,267.4,392.4z M270.6,391.4c0.3-0.3,0.6-0.6,0.8-0.9V387
		c-0.9,0.5-1.5,0.9-2,1.1c-0.5,0.3-0.6,0.5-0.9,0.9s-0.3,0.8-0.3,1.2c0,0.6,0.2,1.1,0.3,1.2c0.3,0.3,0.6,0.5,0.9,0.5
		C270,391.9,270.3,391.7,270.6,391.4z"/>
</g>
<g class="st7">
	<path d="M272.7,366.7h-8.2v-16.1h1.5v15h5.3v-15h1.5v15h1.2v3.8h-1.2L272.7,366.7z"/>
</g>
<g class="st7">
	<path d="M279.5,365.7c-0.5-0.8-0.6-1.8-0.6-3.2v-1.1h-1.5v5.2h-1.4v-11.5h1.4v5.4h1.5v-1.2c0-1.5,0.2-2.6,0.6-3.2
		c0.5-0.6,1.2-1.1,2.3-1.1s1.8,0.3,2.3,1.1c0.5,0.8,0.6,1.8,0.6,3.2v3.2c0,1.5-0.2,2.6-0.6,3.2c-0.5,0.8-1.2,1.1-2.3,1.1
		C280.7,366.8,279.9,366.5,279.5,365.7z M282.8,365.4c0.2-0.3,0.3-0.6,0.5-1.1c0-0.5,0.2-1.1,0.2-1.7v-3.4c0-0.8,0-1.4-0.2-1.7
		c-0.2-0.3-0.2-0.8-0.5-1.1c-0.2-0.3-0.6-0.3-1.1-0.3c-0.5,0-0.8,0.2-1.1,0.3s-0.3,0.6-0.5,1.1c0,0.5-0.2,1.1-0.2,1.8v3.4
		c0,0.8,0,1.4,0.2,1.8c0,0.5,0.2,0.8,0.5,1.1c0.2,0.3,0.6,0.3,1.1,0.3C282.2,365.7,282.5,365.6,282.8,365.4z"/>
	<path d="M286.6,355.2h1.4v0.9c0.6-0.8,1.4-1.1,2.1-1.1c1.1,0,1.7,0.5,2,1.2c0.3,0.8,0.6,2,0.6,3.4v2.4c0,1.5-0.2,2.8-0.6,3.7
		c-0.5,0.9-1.1,1.2-2.1,1.2c-0.8,0-1.4-0.3-2-1.1v4.7h-1.4V355.2z M291,364.8c0.2-0.6,0.3-1.5,0.3-2.8v-2.4c0-1.2-0.2-2.1-0.3-2.6
		c-0.2-0.5-0.6-0.8-1.2-0.8c-0.6,0-1.2,0.3-1.8,0.9v7.8c0.5,0.6,1.1,0.8,1.8,0.8C290.4,365.7,290.9,365.4,291,364.8z"/>
</g>
<g class="st7">
	<path d="M295,355.2h1.2v8.9l3.8-8.9h1.2v11.5H300v-8.9l-3.8,8.9H295V355.2z"/>
</g>
<g class="st7">
	<path d="M305.7,360.7l-2.6-5.5h1.4l2,4.3l1.8-4.3h1.4l-2.7,5.7l2.7,5.8h-1.4l-2.1-4.6l-2,4.6h-1.4L305.7,360.7z"/>
</g>
<g class="st7">
	<path d="M326.7,241.7h6.4v1.1h-4.9v5.7h1.2c1.5,0,2.7,0.3,3.5,1.1s1.1,2,1.1,3.7c0,1.5-0.3,2.6-1.1,3.4c-0.8,0.8-1.8,1.2-3.5,1.2
		h-2.9v-16.1H326.7z M329.6,256.5c1.1,0,1.8-0.3,2.3-0.8c0.5-0.6,0.8-1.4,0.8-2.6s-0.3-2.1-0.8-2.8c-0.5-0.6-1.2-0.9-2.4-0.9h-1.4v7
		H329.6z"/>
</g>
<g class="st7">
	<path d="M337.2,257.4c-0.5-0.3-0.8-0.8-0.9-1.4s-0.3-1.5-0.3-2.6v-2.9c0-1.1,0.2-2,0.3-2.6c0.2-0.6,0.6-1.1,1.1-1.4
		c0.5-0.3,1.1-0.5,1.8-0.5s1.4,0.2,1.8,0.5c0.5,0.3,0.8,0.9,0.9,1.5s0.3,1.5,0.3,2.8v1.1h-4.6v1.7c0,0.8,0,1.4,0.2,1.8
		s0.3,0.8,0.5,1.1c0.3,0.2,0.6,0.3,1.1,0.3s0.9-0.2,1.2-0.5c0.3-0.3,0.5-0.9,0.5-1.7v-0.8h1.4v0.6c0,1.1-0.3,2-0.8,2.6
		s-1.2,0.9-2.3,0.9C338.3,257.9,337.7,257.7,337.2,257.4z M340.6,251v-0.9c0-0.8,0-1.2-0.2-1.7c0-0.5-0.2-0.8-0.5-0.9
		c-0.2-0.2-0.6-0.3-1.1-0.3c-0.5,0-0.8,0.2-0.9,0.3c-0.3,0.2-0.5,0.5-0.5,0.9c-0.2,0.5-0.2,1.1-0.2,1.8v0.8L340.6,251L340.6,251z"/>
</g>
<g class="st7">
	<path d="M344.1,246.3h1.4v0.9c0.6-0.8,1.4-1.1,2.1-1.1c1.1,0,1.7,0.5,2,1.2s0.6,2,0.6,3.4v2.4c0,1.5-0.2,2.8-0.6,3.7
		c-0.5,0.9-1.1,1.2-2.1,1.2c-0.8,0-1.4-0.3-2-1.1v4.7h-1.4V246.3z M348.7,255.9c0.2-0.6,0.3-1.5,0.3-2.8v-2.4c0-1.2-0.2-2.1-0.3-2.6
		s-0.6-0.8-1.2-0.8s-1.2,0.3-1.8,0.9v7.8c0.5,0.6,1.1,0.8,1.8,0.8C348.1,256.8,348.4,256.5,348.7,255.9z"/>
</g>
<g class="st7">
	<path d="M351.7,256.7c0.5,0,0.9-0.2,1.2-0.5c0.3-0.3,0.5-0.8,0.6-1.5c0.2-0.8,0.3-1.8,0.3-3.4l0.3-5.2h5.2v11.5H358v-10.4h-2.6
		l-0.3,4c-0.2,1.8-0.3,3.1-0.5,4c-0.2,0.9-0.6,1.5-0.9,1.8c-0.5,0.3-1.1,0.6-1.8,0.6h-0.2L351.7,256.7L351.7,256.7z"/>
</g>
<g class="st7">
	<path d="M362.2,242.9h1.7v2h-1.7V242.9z M362.2,246.3h1.4v11.5h-1.4V246.3z"/>
</g>
<g class="st7">
	<path d="M367.3,246.3h1.4v5h3.5v-5h1.5v11.5h-1.5v-5.4h-3.5v5.4h-1.4V246.3z"/>
</g>
<g class="st7">
	<path d="M141.5,275.5c0.8,0,1.2-0.2,1.5-0.5c0.3-0.3,0.5-0.9,0.8-2c0.2-1.1,0.3-2.9,0.6-5.5l0.5-6.9h6.1v16.1h-1.5v-15h-3.4
		l-0.3,5.8c-0.2,2.9-0.5,4.9-0.6,6c-0.2,1.2-0.6,2-1.1,2.4s-1.4,0.8-2.4,0.6v-1.1H141.5z"/>
</g>
<g class="st7">
	<path d="M153.8,275.6c-0.5-0.8-0.6-1.8-0.6-3.2v-3.2c0-1.5,0.2-2.6,0.6-3.2s1.2-1.1,2.4-1.1c1.1,0,2,0.3,2.4,1.1
		c0.5,0.8,0.6,1.8,0.6,3.2v3.2c0,1.5-0.2,2.6-0.6,3.2c-0.5,0.8-1.2,1.1-2.4,1.1C155,276.7,154.3,276.4,153.8,275.6z M157.3,275.3
		c0.3-0.3,0.3-0.6,0.5-1.1c0-0.5,0.2-1.1,0.2-1.7v-3.4c0-0.8,0-1.4-0.2-1.7c0-0.5-0.2-0.8-0.5-1.1c-0.3-0.3-0.6-0.3-1.1-0.3
		s-0.8,0.2-1.1,0.3c-0.3,0.3-0.3,0.6-0.5,1.1c0,0.5-0.2,1.1-0.2,1.8v3.4c0,0.8,0,1.4,0.2,1.8c0,0.5,0.2,0.8,0.5,1.1
		c0.3,0.3,0.6,0.3,1.1,0.3S157,275.5,157.3,275.3z"/>
</g>
<g class="st7">
	<path d="M161.5,265.1h1.4v5h3.5v-5h1.5v11.5h-1.5v-5.4h-3.5v5.4h-1.4V265.1z"/>
</g>
<g class="st7">
	<path d="M169.7,275.5c0.5-0.3,0.9-0.8,1.2-1.2c0.3-0.5,0.6-1.4,0.8-2.4c0.2-1.1,0.3-2.4,0.5-4.1l0.2-2.8h4.7v10.4h1.2v3.8h-1.1
		l-0.2-2.8h-6.1l-0.2,2.8h-1.1L169.7,275.5L169.7,275.5z M175.6,275.5v-9.3h-2.1l-0.2,1.8c0,1.7-0.2,2.9-0.3,4
		c-0.2,0.9-0.5,1.7-0.6,2.3c-0.3,0.5-0.6,0.9-1.1,1.2H175.6z"/>
</g>
<g class="st7">
	<path d="M180.4,275.6c-0.5-0.8-0.6-1.8-0.6-3.2v-3.2c0-1.5,0.2-2.6,0.6-3.2c0.5-0.6,1.2-1.1,2.4-1.1c1.1,0,2,0.3,2.4,1.1
		c0.5,0.8,0.6,1.8,0.6,3.2v3.2c0,1.5-0.2,2.6-0.6,3.2c-0.5,0.8-1.2,1.1-2.4,1.1C181.6,276.7,180.8,276.4,180.4,275.6z M183.9,275.3
		c0.3-0.3,0.3-0.6,0.5-1.1c0-0.5,0.2-1.1,0.2-1.7v-3.4c0-0.8,0-1.4-0.2-1.7c0-0.5-0.2-0.8-0.5-1.1c-0.3-0.3-0.6-0.3-1.1-0.3
		s-0.8,0.2-1.1,0.3c-0.3,0.3-0.3,0.6-0.5,1.1c0,0.5-0.2,1.1-0.2,1.8v3.4c0,0.8,0,1.4,0.2,1.8c0,0.5,0.2,0.8,0.5,1.1
		c0.3,0.3,0.6,0.3,1.1,0.3S183.6,275.5,183.9,275.3z"/>
</g>
<g class="st7">
	<path d="M188,265.1h1.4v5h3.5v-5h1.5v11.5h-1.5v-5.4h-3.5v5.4H188V265.1z"/>
</g>
<g class="st7">
	<path d="M427.6,256.7h3.5c1.4,0,2.4,0.3,3,1.1c0.6,0.8,0.9,1.7,0.9,2.9c0,0.9-0.2,1.7-0.5,2.3c-0.3,0.6-0.9,1.1-1.5,1.2
		c0.9,0.3,1.5,0.8,1.8,1.4c0.3,0.8,0.6,1.5,0.6,2.6c0,1.4-0.3,2.6-0.9,3.4c-0.6,0.8-1.5,1.2-2.9,1.2h-4v-16.1H427.6z M431.3,263.6
		c0.9,0,1.5-0.3,1.8-0.8s0.5-1.2,0.5-2.1c0-0.6-0.2-1.2-0.3-1.7s-0.5-0.8-0.9-0.9c-0.5-0.2-1.1-0.3-1.8-0.3h-1.4v5.8H431.3z
		 M431.3,271.7c0.8,0,1.2-0.2,1.5-0.3s0.6-0.6,0.8-1.1c0.2-0.5,0.2-1.2,0.2-2c0-2.3-0.9-3.4-2.6-3.4H429v6.9h2.3V271.7z"/>
</g>
<g class="st7">
	<path d="M437.9,272.1c-0.5-0.5-0.6-1.1-0.6-1.8c0-0.8,0.2-1.4,0.5-1.8c0.3-0.5,0.8-0.9,1.4-1.4c0.6-0.5,1.5-0.9,2.7-1.4v-0.8
		c0-0.8,0-1.2-0.2-1.7s-0.3-0.6-0.5-0.9c-0.2-0.2-0.5-0.3-0.9-0.3c-1.1,0-1.7,0.6-1.7,2v0.5h-1.4v-0.3c0-1.1,0.3-1.8,0.8-2.3
		c0.5-0.5,1.2-0.8,2.3-0.8c1.1,0,1.7,0.3,2.1,0.9c0.5,0.6,0.6,1.5,0.6,2.9v5.7c0,0.3,0,0.8,0,1.2s0,0.8,0,1.1h-0.9l-0.2-1.5
		c-0.2,0.5-0.5,0.9-0.9,1.2c-0.5,0.3-0.9,0.5-1.5,0.5C438.9,272.9,438.3,272.7,437.9,272.1z M441.1,271.2c0.3-0.3,0.6-0.6,0.8-0.9
		v-3.5c-0.9,0.5-1.5,0.9-2,1.1c-0.5,0.3-0.6,0.5-0.9,0.9s-0.3,0.8-0.3,1.2c0,0.6,0.2,1.1,0.3,1.2c0.3,0.3,0.6,0.5,0.9,0.5
		C440.5,271.7,440.8,271.5,441.1,271.2z"/>
	<path d="M445.5,261.3h1.4v0.9c0.6-0.8,1.4-1.1,2.1-1.1c1.1,0,1.7,0.5,2,1.2c0.3,0.8,0.6,2,0.6,3.4v2.4c0,1.5-0.2,2.8-0.6,3.7
		c-0.5,0.9-1.1,1.2-2.1,1.2c-0.8,0-1.4-0.3-2-1.1v4.7h-1.4V261.3z M449.9,270.9c0.2-0.6,0.3-1.5,0.3-2.8v-2.4c0-1.2-0.2-2.1-0.3-2.6
		s-0.6-0.8-1.2-0.8c-0.6,0-1.2,0.3-1.8,0.9v7.8c0.5,0.6,1.1,0.8,1.8,0.8C449.3,271.8,449.8,271.5,449.9,270.9z"/>
</g>
<g class="st7">
	<path d="M453.9,261.3h1.4v10.4h2.6v-10.4h1.4v10.4h2.4v-10.4h1.4v11.5h-9.3v-11.5H453.9z"/>
</g>
<g class="st7">
	<path d="M465.8,272.1c-0.5-0.5-0.6-1.1-0.6-1.8c0-0.8,0.2-1.4,0.5-1.8c0.3-0.5,0.8-0.9,1.4-1.4s1.5-0.9,2.7-1.4v-0.8
		c0-0.8,0-1.2-0.2-1.7c-0.2-0.5-0.3-0.6-0.5-0.9c-0.2-0.2-0.5-0.3-0.9-0.3c-1.1,0-1.7,0.6-1.7,2v0.5h-1.4v-0.3
		c0-1.1,0.3-1.8,0.8-2.3c0.5-0.5,1.2-0.8,2.3-0.8s1.7,0.3,2.1,0.9c0.5,0.6,0.6,1.5,0.6,2.9v5.7c0,0.3,0,0.8,0,1.2s0,0.8,0,1.1h-1.2
		l-0.2-1.5c-0.2,0.5-0.5,0.9-0.9,1.2c-0.5,0.3-0.9,0.5-1.5,0.5C466.8,272.9,466.2,272.7,465.8,272.1z M469,271.2
		c0.3-0.3,0.6-0.6,0.8-0.9v-3.5c-0.9,0.5-1.5,0.9-2,1.1c-0.5,0.3-0.6,0.5-0.9,0.9s-0.3,0.8-0.3,1.2c0,0.6,0.2,1.1,0.3,1.2
		c0.3,0.3,0.6,0.5,0.9,0.5C468.4,271.7,468.7,271.5,469,271.2z"/>
</g>
<g class="st7">
	<path d="M473.4,261.3h2.7c1.1,0,1.8,0.3,2.3,0.8s0.8,1.2,0.8,2c0,0.6-0.2,1.1-0.3,1.5c-0.2,0.5-0.6,0.8-1.1,0.9
		c0.6,0.2,1.1,0.5,1.4,1.1c0.3,0.6,0.5,1.2,0.5,1.8c0,1.1-0.2,1.8-0.6,2.4c-0.5,0.6-1.2,0.9-2.4,0.9h-2.9v-11.5H473.4z M476.3,266.2
		c0.5,0,0.8-0.2,1.1-0.5c0.3-0.3,0.5-0.8,0.5-1.4c0-1.2-0.6-1.8-1.8-1.8h-1.2v3.7H476.3z M476.1,271.7c0.6,0,1.1-0.2,1.4-0.6
		c0.3-0.3,0.5-0.9,0.5-1.7c0-0.9-0.2-1.4-0.5-1.7c-0.3-0.3-0.8-0.5-1.4-0.5h-1.4v4.4H476.1L476.1,271.7z"/>
</g>
<g class="st7">
	<path d="M481.8,272.1c-0.5-0.5-0.6-1.1-0.6-1.8c0-0.8,0.2-1.4,0.5-1.8c0.3-0.5,0.8-0.9,1.4-1.4c0.6-0.5,1.5-0.9,2.7-1.4v-0.8
		c0-0.8,0-1.2-0.2-1.7c-0.2-0.5-0.3-0.6-0.5-0.9c-0.2-0.2-0.5-0.3-0.9-0.3c-1.1,0-1.7,0.6-1.7,2v0.5h-1.4v-0.3
		c0-1.1,0.3-1.8,0.8-2.3c0.5-0.5,1.2-0.8,2.3-0.8s1.7,0.3,2.1,0.9c0.5,0.6,0.6,1.5,0.6,2.9v5.7c0,0.3,0,0.8,0,1.2s0,0.8,0,1.1h-1.2
		l-0.2-1.5c-0.2,0.5-0.5,0.9-0.9,1.2c-0.5,0.3-0.9,0.5-1.5,0.5C482.8,272.9,482.2,272.7,481.8,272.1z M485,271.2
		c0.3-0.3,0.6-0.6,0.8-0.9v-3.5c-0.9,0.5-1.5,0.9-2,1.1c-0.5,0.3-0.6,0.5-0.9,0.9c-0.3,0.5-0.3,0.8-0.3,1.2c0,0.6,0.2,1.1,0.3,1.2
		c0.3,0.3,0.6,0.5,0.9,0.5C484.4,271.7,484.7,271.5,485,271.2z"/>
</g>
<ellipse class="st14" cx="628.3" cy="306.5" rx="7.5" ry="7.5"/>
<g class="st16">
	<path class="st17" d="M422,194h1v4.8h0.7l2.2-4.8h1l-2.3,5.1l2.6,5.5h-1l-2.5-5.2H423v5.2h-1V194z"/>
</g>
<g class="st16">
	<path class="st17" d="M428.4,197h0.8v5.8l2.5-5.8h0.8v7.5h-0.8v-5.8l-2.5,5.8h-0.8V197z"/>
</g>
<g class="st16">
	<path class="st17" d="M433.1,194h1v1.2h-1V194z M434.1,197h0.9v7.5h-0.9V197z M435.2,194h1v1.2h-1V194z"/>
</g>
<g class="st16">
	<path class="st17" d="M436.6,197h1.8c0.7,0,1.2,0.2,1.5,0.5s0.5,0.8,0.5,1.3c0,0.4-0.1,0.7-0.2,1s-0.4,0.5-0.7,0.6
		c0.4,0.1,0.7,0.3,0.9,0.7s0.3,0.8,0.3,1.2c0,0.7-0.1,1.2-0.4,1.6c-0.3,0.4-0.8,0.6-1.6,0.6h-1.9V197H436.6z M438.5,200.2
		c0.3,0,0.5-0.1,0.7-0.3s0.3-0.5,0.3-0.9c0-0.8-0.4-1.2-1.2-1.2h-0.8v2.4H438.5z M438.4,203.8c0.4,0,0.7-0.1,0.9-0.4
		c0.2-0.2,0.3-0.6,0.3-1.1c0-0.6-0.1-0.9-0.3-1.1c-0.2-0.2-0.5-0.3-0.9-0.3h-0.9v2.9L438.4,203.8L438.4,203.8z"/>
</g>
<g class="st7">
	<path d="M483.6,367h6.4v1.1h-4.9v5.7h1.2c1.5,0,2.7,0.3,3.5,1.1c0.8,0.8,1.1,2,1.1,3.7c0,1.5-0.3,2.6-1.1,3.4
		c-0.8,0.8-1.8,1.2-3.5,1.2h-2.9V367H483.6z M486.5,381.8c1.1,0,1.8-0.3,2.3-0.8c0.5-0.6,0.8-1.4,0.8-2.6c0-1.2-0.3-2.1-0.8-2.8
		c-0.5-0.6-1.2-0.9-2.4-0.9H485v7H486.5z"/>
</g>
<g class="st7">
	<path d="M492.4,384.7c0.8,0,1.4-0.2,1.7-0.5c0.3-0.3,0.5-0.6,0.5-1.2c0-0.3,0-0.6-0.2-1.1l-2.4-10.6h1.4l1.2,6.1l0.8,4l0.8-4
		l1.1-6.1h1.4l-2.6,11.8c-0.2,0.8-0.5,1.2-0.8,1.5c-0.3,0.3-0.8,0.6-1.2,0.8c-0.5,0.2-1.1,0.2-1.8,0.3v-1.1H492.4z"/>
</g>
<g class="st7">
	<path d="M499,381.9c0.5-0.3,0.9-0.8,1.2-1.2c0.3-0.5,0.6-1.4,0.8-2.4s0.3-2.4,0.5-4.1l0.2-2.8h4.7v10.4h1.2v3.8h-1.1l-0.2-2.8h-6.1
		l-0.2,2.8H499L499,381.9L499,381.9z M504.9,381.9v-9.3h-2.1l-0.2,1.8c0,1.7-0.2,2.9-0.3,4c-0.2,1.1-0.5,1.7-0.6,2.3
		c-0.3,0.5-0.6,0.9-1.1,1.2H504.9z"/>
</g>
<g class="st7">
	<path d="M509.8,382.4c-0.5-0.5-0.6-1.1-0.6-1.8c0-0.8,0.2-1.4,0.5-1.8c0.3-0.5,0.8-0.9,1.4-1.4c0.6-0.5,1.5-0.9,2.7-1.4v-0.8
		c0-0.8,0-1.2-0.2-1.7s-0.3-0.6-0.5-0.9c-0.2-0.2-0.5-0.3-0.9-0.3c-1.1,0-1.7,0.6-1.7,2v0.5h-1.4v-0.3c0-1.1,0.3-1.8,0.8-2.3
		s1.2-0.8,2.3-0.8c1.1,0,1.7,0.3,2.1,0.9s0.6,1.5,0.6,2.9v5.7c0,0.3,0,0.8,0,1.2s0,0.8,0,1.1h-1.2l-0.2-1.5
		c-0.2,0.5-0.5,0.9-0.9,1.2c-0.5,0.3-0.9,0.5-1.5,0.5C510.9,383.2,510.3,383,509.8,382.4z M513,381.5c0.3-0.3,0.6-0.6,0.8-0.9v-3.5
		c-0.9,0.5-1.5,0.9-2,1.1c-0.5,0.3-0.6,0.5-0.9,0.9s-0.3,0.8-0.3,1.2c0,0.6,0.2,1.1,0.3,1.2c0.2,0.2,0.6,0.5,0.9,0.5
		C512.4,381.9,512.7,381.8,513,381.5z"/>
</g>
<g class="st7">
	<path d="M517.4,371.5h6.1V383h-1.4v-10.4H519V383h-1.4v-11.5H517.4z"/>
</g>
<g class="st7">
	<path d="M526.9,382.7c-0.5-0.3-0.8-0.8-0.9-1.4s-0.3-1.5-0.3-2.6v-2.9c0-1.1,0.2-2,0.3-2.6c0.2-0.6,0.6-1.1,1.1-1.4
		c0.5-0.3,1.1-0.5,1.8-0.5c0.8,0,1.4,0.2,1.8,0.5c0.5,0.3,0.8,0.9,0.9,1.5s0.3,1.5,0.3,2.8v1.1h-4.6v1.7c0,0.8,0,1.4,0.2,1.8
		s0.3,0.8,0.5,1.1c0.3,0.2,0.6,0.3,1.1,0.3c0.5,0,0.9-0.2,1.2-0.5c0.3-0.3,0.5-0.9,0.5-1.7v-0.8h1.4v0.6c0,1.1-0.3,2-0.8,2.6
		s-1.2,0.9-2.3,0.9C528,383.2,527.4,383,526.9,382.7z M530.2,376.3v-0.9c0-0.8,0-1.2-0.2-1.7s-0.2-0.8-0.5-0.9
		c-0.2-0.2-0.6-0.3-1.1-0.3c-0.5,0-0.8,0.2-0.9,0.3s-0.5,0.5-0.5,0.9c-0.2,0.5-0.2,1.1-0.2,1.8v0.8L530.2,376.3L530.2,376.3z"/>
</g>
<g class="st7">
	<path d="M533.8,371.5h1.4v10.4h2.6v-10.4h1.4v10.4h2.4v-10.4h1.4V383h-9.3v-11.5H533.8z"/>
</g>
<g class="st7">
	<path d="M547.2,372.6h-2.4v-1.1h6.4v1.1h-2.4V383h-1.4v-10.4H547.2z"/>
</g>
<g>
	<g class="st7">
		<path d="M373.5,341.9h3.5c1.4,0,2.4,0.3,3,1.1c0.6,0.8,0.9,1.7,0.9,2.9c0,0.9-0.2,1.7-0.5,2.3c-0.3,0.6-0.9,1.1-1.5,1.2
			c0.9,0.3,1.5,0.8,1.8,1.4c0.3,0.8,0.6,1.5,0.6,2.6c0,1.4-0.3,2.6-0.9,3.4c-0.6,0.8-1.5,1.2-2.9,1.2h-4.1V341.9z M377.2,348.8
			c0.9,0,1.5-0.3,1.8-0.8c0.3-0.5,0.5-1.2,0.5-2.1c0-0.6-0.2-1.2-0.3-1.7c-0.2-0.5-0.5-0.8-0.9-0.9s-1.1-0.3-1.8-0.3H375v5.8H377.2z
			 M377.2,356.9c0.8,0,1.2-0.2,1.5-0.3c0.3-0.2,0.6-0.6,0.8-1.1s0.2-1.2,0.2-2c0-2.3-0.9-3.4-2.6-3.4h-2v6.9h2.1V356.9z"/>
	</g>
	<g class="st7">
		<path d="M383.6,342.9h1.4v2h-1.4V342.9z M383.6,346.5h1.4v11.5h-1.4V346.5z"/>
		<path d="M386.6,356.9c0.5-0.3,0.9-0.8,1.2-1.2c0.3-0.5,0.6-1.4,0.8-2.4c0.2-1.1,0.3-2.4,0.5-4.1l0.2-2.8h4.7v10.4h1.2v3.8h-1.1
			l-0.2-2.8h-6.1l-0.2,2.8h-1.1L386.6,356.9L386.6,356.9z M392.6,356.9v-9.3h-2.3l-0.2,1.8c0,1.7-0.2,2.9-0.3,4
			c-0.2,0.9-0.5,1.7-0.6,2.3c-0.3,0.5-0.6,0.9-1.1,1.2H392.6z"/>
		<path d="M397.9,357.6c-0.5-0.3-0.8-0.8-0.9-1.4s-0.3-1.5-0.3-2.6v-2.9c0-1.1,0.2-2,0.3-2.6s0.6-1.1,1.1-1.4
			c0.5-0.3,1.1-0.5,1.8-0.5c0.8,0,1.4,0.2,1.8,0.5c0.5,0.3,0.8,0.9,0.9,1.5c0.2,0.6,0.3,1.5,0.3,2.8v1.1h-4.6v1.7
			c0,0.8,0,1.4,0.2,1.8s0.3,0.8,0.5,1.1c0.3,0.2,0.6,0.3,1.1,0.3c0.5,0,0.9-0.2,1.2-0.5c0.3-0.3,0.5-0.9,0.5-1.7v-0.8h1.4v0.6
			c0,1.1-0.3,2-0.8,2.6c-0.5,0.6-1.2,0.9-2.3,0.9C399,358.1,398.4,357.9,397.9,357.6z M401.3,351.2v-0.9c0-0.8,0-1.2-0.2-1.7
			c0-0.5-0.2-0.8-0.5-0.9c-0.2-0.2-0.6-0.3-1.1-0.3c-0.5,0-0.8,0.2-0.9,0.3c-0.3,0.2-0.5,0.5-0.5,0.9c-0.2,0.5-0.2,1.1-0.2,1.8v0.8
			L401.3,351.2L401.3,351.2z"/>
	</g>
	<g class="st7">
		<path d="M405.1,346.5h1.4v5h3.5v-5h1.5v11.5H410v-5.4h-3.5v5.4h-1.4V346.5z"/>
		<path d="M414.1,346.5h1.4v4.7h0.8c1.5,0,2.4,0.3,3,0.9c0.6,0.6,0.9,1.4,0.9,2.6c0,1.1-0.3,2-0.9,2.4c-0.6,0.6-1.7,0.9-3.2,0.9h-2
			V346.5z M416.1,357c1.1,0,1.8-0.2,2.1-0.6c0.3-0.5,0.6-1.1,0.6-1.8c0-0.8-0.2-1.4-0.6-1.8c-0.5-0.5-1.1-0.6-2.1-0.6h-0.6v5h0.6
			V357z"/>
	</g>
</g>
<g class="st7">
	<path d="M328.5,385.8h-6.4v-12.4h1.2v11.5h4.1v-11.5h1.2v11.5h0.9v3.1h-0.9L328.5,385.8z"/>
</g>
<g class="st7">
	<path d="M331,387c0.6,0,1.1-0.2,1.4-0.3c0.3-0.2,0.5-0.5,0.5-0.9c0-0.2,0-0.5-0.2-0.8l-1.8-8.1h1.1l0.9,4.6l0.6,3.1l0.5-3.1
		l0.9-4.6h1.1l-2,9.2c-0.2,0.5-0.3,0.9-0.5,1.2c-0.3,0.3-0.5,0.5-0.9,0.6s-0.8,0.2-1.4,0.2V387H331z"/>
</g>
<g class="st7">
	<path d="M337.4,376.9h3.2v0.8h-2.1v8h-1.1V376.9z"/>
</g>
<path class="st18" d="M283.7,386.7l1.2-0.9"/>
<path class="st19" d="M287.2,383.8c81.4-67.3,223.4-90.4,338-77.6"/>
<path class="st8" d="M626.8,306.4h1.5"/>
<path class="st20" d="M316.2,379.2c0-9.6,1.1-17.6,2.4-17.6"/>
<path class="st20" d="M326.1,399.2c-5.5,0-10.1-9-10.1-20"/>
<path class="st21" d="M381,252.7c82.3-33.2,174.1-26,247.1,53.8"/>
<path class="st21" d="M498.4,266.5c61.1-7,100.3,12.5,129.9,40.1"/>
<path class="st21" d="M203.8,271.5c79.9,40.5,218.5-10.1,424.4,35"/>
<path class="st21" d="M428.4,351.7c29-24.5,89.3-45.1,199.7-45.1"/>
<ellipse class="st14" cx="283.7" cy="386.7" rx="5" ry="5"/>
<ellipse class="st14" cx="318.6" cy="361.8" rx="5" ry="5"/>
<ellipse class="st14" cx="316.2" cy="379.2" rx="2.4" ry="2.4"/>
<ellipse class="st14" cx="326.1" cy="399.2" rx="2.4" ry="2.4"/>
<ellipse class="st14" cx="383.6" cy="251.5" rx="5" ry="5"/>
<ellipse class="st14" cx="203.8" cy="271.5" rx="5" ry="5"/>
<ellipse class="st14" cx="498.4" cy="266.5" rx="5" ry="5"/>
<ellipse class="st14" cx="468.4" cy="376.7" rx="5" ry="5"/>
<ellipse class="st14" cx="428.4" cy="351.7" rx="5" ry="5"/>
<ellipse class="st14" cx="663" cy="326.2" rx="5" ry="5"/>
<ellipse class="st14" cx="541.5" cy="318.4" rx="5" ry="5"/>
<ellipse class="st14" cx="555.5" cy="337.7" rx="5" ry="5"/>
<ellipse class="st14" cx="671.9" cy="346.5" rx="5" ry="5"/>
<ellipse class="st14" cx="699.8" cy="315.1" rx="5" ry="5"/>
<g class="st22">
	<path class="st23" d="M362.1,209.2v4.7h-0.6v-4.2h-1.6v1.4c0,1,0,2.2-0.7,2.6c-0.2,0.1-0.4,0.2-0.7,0.2l-0.1-0.5
		c0.2,0,0.4-0.1,0.5-0.3c0.4-0.4,0.4-1.3,0.4-2v-2H362.1z"/>
	<path class="st23" d="M363.7,210.5v1.1c0.1,0,0.4,0,0.6,0c0.8,0,1.6,0.2,1.6,1.1c0,0.4-0.1,0.6-0.4,0.8c-0.4,0.3-1,0.4-1.5,0.4
		c-0.3,0-0.7,0-0.9,0v-3.4H363.7z M363.7,213.5c0.1,0,0.3,0,0.5,0c0.5,0,1.1-0.2,1.1-0.7c0-0.6-0.6-0.7-1.1-0.7c-0.2,0-0.3,0-0.4,0
		V213.5z"/>
	<path class="st23" d="M366.6,210.6c0.2,0,0.7-0.1,1.1-0.1c0.6,0,1.5,0.1,1.5,0.8c0,0.4-0.3,0.7-0.7,0.8v0c0.5,0.1,0.9,0.3,0.9,0.8
		c0,0.9-1.1,1-1.8,1c-0.4,0-0.8,0-1,0V210.6z M367.2,213.5c0.2,0,0.3,0,0.5,0c0.4,0,1-0.1,1-0.6s-0.5-0.6-1.1-0.6h-0.4V213.5z
		 M367.2,212h0.5c0.5,0,0.9-0.1,0.9-0.5c0-0.3-0.3-0.5-0.9-0.5c-0.2,0-0.3,0-0.5,0V212z"/>
	<path class="st23" d="M370.8,209.6c0,0.2-0.1,0.4-0.4,0.4c-0.2,0-0.4-0.2-0.4-0.4c0-0.2,0.2-0.4,0.4-0.4
		C370.7,209.2,370.8,209.4,370.8,209.6z M370.1,213.9v-3.4h0.6v3.4H370.1z"/>
	<path class="st23" d="M371.8,210.6c0.2,0,0.7-0.1,1.1-0.1c0.6,0,1.5,0.1,1.5,0.8c0,0.4-0.3,0.7-0.7,0.8v0c0.5,0.1,0.9,0.3,0.9,0.8
		c0,0.9-1.1,1-1.8,1c-0.4,0-0.8,0-1,0V210.6z M372.3,213.5c0.2,0,0.3,0,0.5,0c0.4,0,1-0.1,1-0.6s-0.5-0.6-1.1-0.6h-0.4V213.5z
		 M372.4,212h0.5c0.5,0,0.9-0.1,0.9-0.5c0-0.3-0.3-0.5-0.9-0.5c-0.2,0-0.3,0-0.5,0V212z"/>
	<path class="st23" d="M377.7,213.8c-0.2,0.1-0.5,0.2-1,0.2c-1,0-1.7-0.7-1.7-1.7c0-1,0.7-1.8,1.8-1.8c0.4,0,0.7,0.1,0.9,0.2
		l-0.1,0.5c-0.1-0.1-0.4-0.2-0.7-0.2c-0.8,0-1.2,0.6-1.2,1.3c0,0.8,0.5,1.3,1.2,1.3c0.3,0,0.6-0.1,0.8-0.2L377.7,213.8z"/>
	<path class="st23" d="M379,210.5v1.1c0.1,0,0.4,0,0.6,0c0.8,0,1.6,0.2,1.6,1.1c0,0.4-0.1,0.6-0.4,0.8c-0.4,0.3-1,0.4-1.5,0.4
		c-0.3,0-0.7,0-0.9,0v-3.4H379z M379,213.5c0.1,0,0.3,0,0.5,0c0.5,0,1.1-0.2,1.1-0.7c0-0.6-0.6-0.7-1.1-0.7c-0.2,0-0.3,0-0.4,0
		V213.5z"/>
	<path class="st23" d="M382.5,210.5v1.5h0.1l1.3-1.5h0.8l-1.5,1.5c0.5,0.1,0.9,0.4,1.1,1c0.1,0.2,0.2,0.6,0.4,0.8h-0.6
		c-0.1-0.1-0.2-0.4-0.3-0.7c-0.2-0.5-0.5-0.8-1.1-0.8h-0.1v1.5h-0.6v-3.4H382.5z"/>
	<path class="st23" d="M387.2,213.9l0-0.4h0c-0.2,0.3-0.6,0.5-1,0.5c-0.7,0-1-0.5-1-1c0-0.8,0.7-1.3,2-1.3v-0.1
		c0-0.3-0.1-0.8-0.8-0.8c-0.3,0-0.6,0.1-0.9,0.3l-0.1-0.4c0.3-0.2,0.7-0.3,1.1-0.3c1,0,1.3,0.7,1.3,1.4v1.3c0,0.3,0,0.6,0.1,0.8
		H387.2z M387.1,212.2c-0.7,0-1.4,0.1-1.4,0.8c0,0.4,0.3,0.6,0.6,0.6c0.4,0,0.7-0.3,0.8-0.6c0-0.1,0-0.1,0-0.2V212.2z"/>
</g>
<g class="st22">
	<path class="st23" d="M369.1,221.5v4.7h-0.6v-4.7H369.1z"/>
	<path class="st23" d="M370.1,222.8c0.2,0,0.7-0.1,1.1-0.1c0.6,0,1.5,0.1,1.5,0.8c0,0.4-0.3,0.7-0.7,0.8v0c0.5,0.1,0.9,0.3,0.9,0.8
		c0,0.9-1.1,1-1.8,1c-0.4,0-0.8,0-1,0V222.8z M370.7,225.8c0.2,0,0.3,0,0.5,0c0.4,0,1-0.1,1-0.6s-0.5-0.6-1.1-0.6h-0.4V225.8z
		 M370.7,224.2h0.5c0.5,0,0.9-0.1,0.9-0.5c0-0.3-0.3-0.5-0.9-0.5c-0.2,0-0.3,0-0.5,0V224.2z"/>
	<path class="st23" d="M375.5,226.2l0-0.4h0c-0.2,0.3-0.6,0.5-1,0.5c-0.7,0-1-0.5-1-1c0-0.8,0.7-1.3,2-1.3V224
		c0-0.3-0.1-0.8-0.8-0.8c-0.3,0-0.6,0.1-0.9,0.3l-0.1-0.4c0.3-0.2,0.7-0.3,1.1-0.3c1,0,1.3,0.7,1.3,1.4v1.3c0,0.3,0,0.6,0.1,0.8
		H375.5z M375.4,224.5c-0.7,0-1.4,0.1-1.4,0.8c0,0.4,0.3,0.6,0.6,0.6c0.4,0,0.7-0.3,0.8-0.6c0-0.1,0-0.1,0-0.2V224.5z"/>
	<path class="st23" d="M377.6,222.8v1.4h1.6v-1.4h0.6v3.4h-0.6v-1.5h-1.6v1.5H377v-3.4H377.6z"/>
	<path class="st23" d="M383.9,224.5c0,1.3-0.9,1.8-1.7,1.8c-0.9,0-1.6-0.7-1.6-1.7c0-1.1,0.7-1.8,1.7-1.8
		C383.2,222.7,383.9,223.4,383.9,224.5z M381.2,224.5c0,0.7,0.4,1.3,1,1.3c0.6,0,1-0.6,1-1.3c0-0.6-0.3-1.3-1-1.3
		C381.5,223.2,381.2,223.9,381.2,224.5z"/>
	<path class="st23" d="M386.1,224.1v0.5h-1.7v-0.5H386.1z"/>
	<path class="st23" d="M389.1,221.3v0.4c1,0,2,0.6,2,2.1c0,1.5-1,2.1-2,2.1v0.4h-0.6v-0.4c-1-0.1-2-0.6-2-2.1c0-1.5,1.1-2.1,2-2.2
		v-0.4H389.1z M388.6,222.1c-0.6,0-1.4,0.5-1.4,1.7c0,1.1,0.7,1.6,1.4,1.7V222.1z M389.1,225.5c0.7-0.1,1.4-0.5,1.4-1.7
		c0-1.2-0.7-1.6-1.4-1.7V225.5z"/>
	<path class="st23" d="M391.9,223.9c0-0.4,0-0.8,0-1.1h0.6l0,0.6h0c0.3-0.4,0.7-0.7,1.2-0.7c0.8,0,1.4,0.7,1.4,1.7
		c0,1.2-0.7,1.8-1.5,1.8c-0.4,0-0.8-0.2-1-0.5h0v1.8h-0.6V223.9z M392.5,224.8c0,0.1,0,0.2,0,0.3c0.1,0.4,0.5,0.7,0.9,0.7
		c0.7,0,1-0.5,1-1.3c0-0.7-0.4-1.3-1-1.3c-0.4,0-0.8,0.3-0.9,0.8c0,0.1,0,0.2,0,0.3V224.8z"/>
	<path class="st23" d="M397.8,226.2l0-0.4h0c-0.2,0.3-0.6,0.5-1,0.5c-0.7,0-1-0.5-1-1c0-0.8,0.7-1.3,2-1.3V224
		c0-0.3-0.1-0.8-0.8-0.8c-0.3,0-0.6,0.1-0.9,0.3l-0.1-0.4c0.3-0.2,0.7-0.3,1.1-0.3c1,0,1.3,0.7,1.3,1.4v1.3c0,0.3,0,0.6,0.1,0.8
		H397.8z M397.7,224.5c-0.7,0-1.4,0.1-1.4,0.8c0,0.4,0.3,0.6,0.6,0.6c0.4,0,0.7-0.3,0.8-0.6c0-0.1,0-0.1,0-0.2V224.5z"/>
	<path class="st23" d="M399.9,222.8v1.4h1.6v-1.4h0.6v3.4h-0.6v-1.5h-1.6v1.5h-0.6v-3.4H399.9z"/>
	<path class="st23" d="M403.7,222.8v1.5h0.1l1.3-1.5h0.8l-1.5,1.5c0.5,0.1,0.9,0.4,1.1,1c0.1,0.2,0.2,0.6,0.4,0.8h-0.6
		c-0.1-0.1-0.2-0.4-0.3-0.7c-0.2-0.5-0.5-0.8-1.1-0.8h-0.1v1.5h-0.6v-3.4H403.7z"/>
	<path class="st23" d="M407.1,221.8c0,0.2-0.1,0.4-0.4,0.4c-0.2,0-0.4-0.2-0.4-0.4c0-0.2,0.2-0.4,0.4-0.4
		C407,221.5,407.1,221.6,407.1,221.8z M406.4,226.2v-3.4h0.6v3.4H406.4z"/>
	<path class="st23" d="M408.1,222.8c0.2,0,0.7-0.1,1.1-0.1c0.6,0,1.5,0.1,1.5,0.8c0,0.4-0.3,0.7-0.7,0.8v0c0.5,0.1,0.9,0.3,0.9,0.8
		c0,0.9-1.1,1-1.8,1c-0.4,0-0.8,0-1,0V222.8z M408.6,225.8c0.2,0,0.3,0,0.5,0c0.4,0,1-0.1,1-0.6s-0.5-0.6-1.1-0.6h-0.4V225.8z
		 M408.6,224.2h0.5c0.5,0,0.9-0.1,0.9-0.5c0-0.3-0.3-0.5-0.9-0.5c-0.2,0-0.3,0-0.5,0V224.2z"/>
	<path class="st23" d="M414,226.1c-0.2,0.1-0.5,0.2-1,0.2c-1,0-1.7-0.7-1.7-1.7c0-1,0.7-1.8,1.8-1.8c0.4,0,0.7,0.1,0.9,0.2l-0.1,0.5
		c-0.1-0.1-0.4-0.2-0.7-0.2c-0.8,0-1.2,0.6-1.2,1.3c0,0.8,0.5,1.3,1.2,1.3c0.3,0,0.6-0.1,0.8-0.2L414,226.1z"/>
	<path class="st23" d="M415.3,222.8v1.1c0.1,0,0.4,0,0.6,0c0.8,0,1.6,0.2,1.6,1.1c0,0.4-0.1,0.6-0.4,0.8c-0.4,0.3-1,0.4-1.5,0.4
		c-0.3,0-0.7,0-0.9,0v-3.4H415.3z M415.3,225.8c0.1,0,0.3,0,0.5,0c0.5,0,1.1-0.2,1.1-0.7c0-0.6-0.6-0.7-1.1-0.7c-0.2,0-0.3,0-0.4,0
		V225.8z"/>
	<path class="st23" d="M418.8,222.8v1.5h0.1l1.3-1.5h0.8l-1.5,1.5c0.5,0.1,0.9,0.4,1.1,1c0.1,0.2,0.2,0.6,0.4,0.8h-0.6
		c-0.1-0.1-0.2-0.4-0.3-0.7c-0.2-0.5-0.5-0.8-1.1-0.8h-0.1v1.5h-0.6v-3.4H418.8z"/>
	<path class="st23" d="M423.5,226.2l0-0.4h0c-0.2,0.3-0.6,0.5-1,0.5c-0.7,0-1-0.5-1-1c0-0.8,0.7-1.3,2-1.3V224
		c0-0.3-0.1-0.8-0.8-0.8c-0.3,0-0.6,0.1-0.9,0.3l-0.1-0.4c0.3-0.2,0.7-0.3,1.1-0.3c1,0,1.3,0.7,1.3,1.4v1.3c0,0.3,0,0.6,0.1,0.8
		H423.5z M423.4,224.5c-0.7,0-1.4,0.1-1.4,0.8c0,0.4,0.3,0.6,0.6,0.6c0.4,0,0.7-0.3,0.8-0.6c0-0.1,0-0.1,0-0.2V224.5z"/>
</g>
<g class="st22">
	<path class="st23" d="M447.8,227.8v4.2l0.4,0l0,1.6h-0.5l0-1.1h-3l0,1.1h-0.5l0-1.6l0.4,0c0.2-0.3,0.3-0.7,0.5-1
		c0.2-0.5,0.2-1.2,0.2-2v-1.2H447.8z M445.7,229.2c0,0.8-0.1,1.4-0.2,1.9c-0.1,0.3-0.2,0.6-0.4,0.9h2.1v-3.7h-1.5V229.2z"/>
	<path class="st23" d="M449.5,229.2v1.4h1.6v-1.4h0.6v3.4h-0.6V231h-1.6v1.5h-0.6v-3.4H449.5z"/>
	<path class="st23" d="M453.4,228.2c0,0.2-0.1,0.4-0.4,0.4c-0.2,0-0.4-0.2-0.4-0.4c0-0.2,0.2-0.4,0.4-0.4
		C453.3,227.8,453.4,228,453.4,228.2z M452.8,232.6v-3.4h0.6v3.4H452.8z"/>
	<path class="st23" d="M457.2,229.2v3.4h-0.6v-2.9H455v2.9h-0.6v-3.4H457.2z"/>
	<path class="st23" d="M458.2,230.3c0-0.4,0-0.8,0-1.1h0.6l0,0.6h0c0.3-0.4,0.7-0.7,1.2-0.7c0.8,0,1.4,0.7,1.4,1.7
		c0,1.2-0.7,1.8-1.5,1.8c-0.4,0-0.8-0.2-1-0.5h0v1.8h-0.6V230.3z M458.8,231.2c0,0.1,0,0.2,0,0.3c0.1,0.4,0.5,0.7,0.9,0.7
		c0.7,0,1-0.5,1-1.3c0-0.7-0.4-1.3-1-1.3c-0.4,0-0.8,0.3-0.9,0.8c0,0.1,0,0.2,0,0.3V231.2z"/>
	<path class="st23" d="M465.2,230.8c0,1.3-0.9,1.8-1.7,1.8c-0.9,0-1.6-0.7-1.6-1.7c0-1.1,0.7-1.8,1.7-1.8
		C464.6,229.1,465.2,229.8,465.2,230.8z M462.6,230.9c0,0.7,0.4,1.3,1,1.3c0.6,0,1-0.6,1-1.3c0-0.6-0.3-1.3-1-1.3
		C462.9,229.6,462.6,230.2,462.6,230.9z"/>
	<path class="st23" d="M466,229.2c0.2,0,0.7-0.1,1.1-0.1c0.6,0,1.5,0.1,1.5,0.8c0,0.4-0.3,0.7-0.7,0.8v0c0.5,0.1,0.9,0.3,0.9,0.8
		c0,0.9-1.1,1-1.8,1c-0.4,0-0.8,0-1,0V229.2z M466.6,232.1c0.2,0,0.3,0,0.5,0c0.4,0,1-0.1,1-0.6s-0.5-0.6-1.1-0.6h-0.4V232.1z
		 M466.6,230.6h0.5c0.5,0,0.9-0.1,0.9-0.5c0-0.3-0.3-0.5-0.9-0.5c-0.2,0-0.3,0-0.5,0V230.6z"/>
	<path class="st23" d="M471.9,232.4c-0.2,0.1-0.5,0.2-1,0.2c-1,0-1.7-0.7-1.7-1.7c0-1,0.7-1.8,1.8-1.8c0.4,0,0.7,0.1,0.9,0.2
		l-0.1,0.5c-0.1-0.1-0.4-0.2-0.7-0.2c-0.8,0-1.2,0.6-1.2,1.3c0,0.8,0.5,1.3,1.2,1.3c0.3,0,0.6-0.1,0.8-0.2L471.9,232.4z"/>
	<path class="st23" d="M473.2,229.2v1.1c0.1,0,0.4,0,0.6,0c0.8,0,1.6,0.2,1.6,1.1c0,0.4-0.1,0.6-0.4,0.8c-0.4,0.3-1,0.4-1.5,0.4
		c-0.3,0-0.7,0-0.9,0v-3.4H473.2z M473.2,232.1c0.1,0,0.3,0,0.5,0c0.5,0,1.1-0.2,1.1-0.7c0-0.6-0.6-0.7-1.1-0.7c-0.2,0-0.3,0-0.4,0
		V232.1z"/>
	<path class="st23" d="M476.7,229.2v1.5h0.1l1.3-1.5h0.8l-1.5,1.5c0.5,0.1,0.9,0.4,1.1,1c0.1,0.2,0.2,0.6,0.4,0.8h-0.6
		c-0.1-0.1-0.2-0.4-0.3-0.7c-0.2-0.5-0.5-0.8-1.1-0.8h-0.1v1.5h-0.6v-3.4H476.7z"/>
	<path class="st23" d="M481.4,232.6l0-0.4h0c-0.2,0.3-0.6,0.5-1,0.5c-0.7,0-1-0.5-1-1c0-0.8,0.7-1.3,2-1.3v-0.1
		c0-0.3-0.1-0.8-0.8-0.8c-0.3,0-0.6,0.1-0.9,0.3l-0.1-0.4c0.3-0.2,0.7-0.3,1.1-0.3c1,0,1.3,0.7,1.3,1.4v1.3c0,0.3,0,0.6,0.1,0.8
		H481.4z M481.3,230.8c-0.7,0-1.4,0.1-1.4,0.8c0,0.4,0.3,0.6,0.6,0.6c0.4,0,0.7-0.3,0.8-0.6c0-0.1,0-0.1,0-0.2V230.8z"/>
</g>
<g class="st22">
	<path class="st23" d="M465.4,212.5l-0.6-1c-0.2-0.4-0.4-0.7-0.5-0.9h0c-0.1,0.3-0.3,0.5-0.5,0.9l-0.6,1h-0.7l1.4-2.4l-1.4-2.3h0.7
		l0.6,1.1c0.2,0.3,0.3,0.5,0.4,0.8h0c0.1-0.3,0.3-0.5,0.4-0.8l0.6-1.1h0.7l-1.4,2.3l1.5,2.4H465.4z"/>
	<path class="st23" d="M468.7,212.5l0-0.4h0c-0.2,0.3-0.6,0.5-1,0.5c-0.7,0-1-0.5-1-1c0-0.8,0.7-1.3,2-1.3v-0.1
		c0-0.3-0.1-0.8-0.8-0.8c-0.3,0-0.6,0.1-0.9,0.3l-0.1-0.4c0.3-0.2,0.7-0.3,1.1-0.3c1,0,1.3,0.7,1.3,1.4v1.3c0,0.3,0,0.6,0.1,0.8
		H468.7z M468.6,210.7c-0.7,0-1.4,0.1-1.4,0.8c0,0.4,0.3,0.6,0.6,0.6c0.4,0,0.7-0.3,0.8-0.6c0-0.1,0-0.1,0-0.2V210.7z"/>
	<path class="st23" d="M470.2,210.2c0-0.4,0-0.8,0-1.1h0.6l0,0.6h0c0.3-0.4,0.7-0.7,1.2-0.7c0.8,0,1.4,0.7,1.4,1.7
		c0,1.2-0.7,1.8-1.5,1.8c-0.4,0-0.8-0.2-1-0.5h0v1.8h-0.6V210.2z M470.8,211.1c0,0.1,0,0.2,0,0.3c0.1,0.4,0.5,0.7,0.9,0.7
		c0.7,0,1-0.5,1-1.3c0-0.7-0.4-1.3-1-1.3c-0.4,0-0.8,0.3-0.9,0.8c0,0.1,0,0.2,0,0.3V211.1z"/>
	<path class="st23" d="M474.8,209.1v1.5h0.1l1.3-1.5h0.8l-1.5,1.5c0.5,0.1,0.9,0.4,1.1,1c0.1,0.2,0.2,0.6,0.4,0.8h-0.6
		c-0.1-0.1-0.2-0.4-0.3-0.7c-0.2-0.5-0.5-0.8-1.1-0.8h-0.1v1.5h-0.6v-3.4H474.8z"/>
	<path class="st23" d="M478.2,208.1c0,0.2-0.1,0.4-0.4,0.4c-0.2,0-0.4-0.2-0.4-0.4c0-0.2,0.2-0.4,0.4-0.4
		C478,207.7,478.2,207.9,478.2,208.1z M477.5,212.5v-3.4h0.6v3.4H477.5z"/>
	<path class="st23" d="M479.1,209.1c0.2,0,0.7-0.1,1.1-0.1c0.6,0,1.5,0.1,1.5,0.8c0,0.4-0.3,0.7-0.7,0.8v0c0.5,0.1,0.9,0.3,0.9,0.8
		c0,0.9-1.1,1-1.8,1c-0.4,0-0.8,0-1,0V209.1z M479.7,212.1c0.2,0,0.3,0,0.5,0c0.4,0,1-0.1,1-0.6s-0.5-0.6-1.1-0.6h-0.4V212.1z
		 M479.7,210.5h0.5c0.5,0,0.9-0.1,0.9-0.5c0-0.3-0.3-0.5-0.9-0.5c-0.2,0-0.3,0-0.5,0V210.5z"/>
	<path class="st23" d="M485.1,212.3c-0.2,0.1-0.5,0.2-1,0.2c-1,0-1.7-0.7-1.7-1.7c0-1,0.7-1.8,1.8-1.8c0.4,0,0.7,0.1,0.9,0.2
		l-0.1,0.5c-0.1-0.1-0.4-0.2-0.7-0.2c-0.8,0-1.2,0.6-1.2,1.3c0,0.8,0.5,1.3,1.2,1.3c0.3,0,0.6-0.1,0.8-0.2L485.1,212.3z"/>
	<path class="st23" d="M486.4,209.1v1.1c0.1,0,0.4,0,0.6,0c0.8,0,1.6,0.2,1.6,1.1c0,0.4-0.1,0.6-0.4,0.8c-0.4,0.3-1,0.4-1.5,0.4
		c-0.3,0-0.7,0-0.9,0v-3.4H486.4z M486.4,212c0.1,0,0.3,0,0.5,0c0.5,0,1.1-0.2,1.1-0.7c0-0.6-0.6-0.7-1.1-0.7c-0.2,0-0.3,0-0.4,0
		V212z"/>
	<path class="st23" d="M489.9,209.1v1.5h0.1l1.3-1.5h0.8l-1.5,1.5c0.5,0.1,0.9,0.4,1.1,1c0.1,0.2,0.2,0.6,0.4,0.8h-0.6
		c-0.1-0.1-0.2-0.4-0.3-0.7c-0.2-0.5-0.5-0.8-1.1-0.8h-0.1v1.5h-0.6v-3.4H489.9z"/>
	<path class="st23" d="M494.6,212.5l0-0.4h0c-0.2,0.3-0.6,0.5-1,0.5c-0.7,0-1-0.5-1-1c0-0.8,0.7-1.3,2-1.3v-0.1
		c0-0.3-0.1-0.8-0.8-0.8c-0.3,0-0.6,0.1-0.9,0.3l-0.1-0.4c0.3-0.2,0.7-0.3,1.1-0.3c1,0,1.3,0.7,1.3,1.4v1.3c0,0.3,0,0.6,0.1,0.8
		H494.6z M494.5,210.7c-0.7,0-1.4,0.1-1.4,0.8c0,0.4,0.3,0.6,0.6,0.6c0.4,0,0.7-0.3,0.8-0.6c0-0.1,0-0.1,0-0.2V210.7z"/>
</g>
<g class="st22">
	<path class="st23" d="M442.1,215.2v4.7h-0.6v-4.2h-2.2v4.2h-0.6v-4.7H442.1z"/>
	<path class="st23" d="M446.3,218.2c0,1.3-0.9,1.8-1.7,1.8c-0.9,0-1.6-0.7-1.6-1.7c0-1.1,0.7-1.8,1.7-1.8
		C445.6,216.4,446.3,217.1,446.3,218.2z M443.6,218.2c0,0.7,0.4,1.3,1,1.3c0.6,0,1-0.6,1-1.3c0-0.6-0.3-1.3-1-1.3
		C443.9,216.9,443.6,217.6,443.6,218.2z"/>
	<path class="st23" d="M449.6,216.5v3.4H449V217h-1.2v0.9c0,1-0.1,1.6-0.5,1.9c-0.2,0.1-0.4,0.2-0.7,0.2l-0.1-0.5
		c0.1,0,0.3-0.1,0.3-0.1c0.3-0.2,0.3-0.7,0.3-1.5v-1.4H449.6z"/>
	<path class="st23" d="M452.9,216.5v0.5h-1.1v2.9h-0.6V217h-1.1v-0.5H452.9z"/>
	<path class="st23" d="M455.2,219.9l0-0.4h0c-0.2,0.3-0.6,0.5-1,0.5c-0.7,0-1-0.5-1-1c0-0.8,0.7-1.3,2-1.3v-0.1
		c0-0.3-0.1-0.8-0.8-0.8c-0.3,0-0.6,0.1-0.9,0.3l-0.1-0.4c0.3-0.2,0.7-0.3,1.1-0.3c1,0,1.3,0.7,1.3,1.4v1.3c0,0.3,0,0.6,0.1,0.8
		H455.2z M455.1,218.2c-0.7,0-1.4,0.1-1.4,0.8c0,0.4,0.3,0.6,0.6,0.6c0.4,0,0.7-0.3,0.8-0.6c0-0.1,0-0.1,0-0.2V218.2z"/>
	<path class="st23" d="M456.7,216.6c0.2,0,0.7-0.1,1.1-0.1c0.6,0,1.5,0.1,1.5,0.8c0,0.4-0.3,0.7-0.7,0.8v0c0.5,0.1,0.9,0.3,0.9,0.8
		c0,0.9-1.1,1-1.8,1c-0.4,0-0.8,0-1,0V216.6z M457.3,219.5c0.2,0,0.3,0,0.5,0c0.4,0,1-0.1,1-0.6s-0.5-0.6-1.1-0.6h-0.4V219.5z
		 M457.3,217.9h0.5c0.5,0,0.9-0.1,0.9-0.5c0-0.3-0.3-0.5-0.9-0.5c-0.2,0-0.3,0-0.5,0V217.9z"/>
	<path class="st23" d="M462.7,219.8c-0.2,0.1-0.5,0.2-1,0.2c-1,0-1.7-0.7-1.7-1.7c0-1,0.7-1.8,1.8-1.8c0.4,0,0.7,0.1,0.9,0.2
		l-0.1,0.5c-0.1-0.1-0.4-0.2-0.7-0.2c-0.8,0-1.2,0.6-1.2,1.3c0,0.8,0.5,1.3,1.2,1.3c0.3,0,0.6-0.1,0.8-0.2L462.7,219.8z"/>
	<path class="st23" d="M464,216.5v1.1c0.1,0,0.4,0,0.6,0c0.8,0,1.6,0.2,1.6,1.1c0,0.4-0.1,0.6-0.4,0.8c-0.4,0.3-1,0.4-1.5,0.4
		c-0.3,0-0.7,0-0.9,0v-3.4H464z M464,219.5c0.1,0,0.3,0,0.5,0c0.5,0,1.1-0.2,1.1-0.7c0-0.6-0.6-0.7-1.1-0.7c-0.2,0-0.3,0-0.4,0
		V219.5z"/>
	<path class="st23" d="M467.5,216.5v1.5h0.1l1.3-1.5h0.8l-1.5,1.5c0.5,0.1,0.9,0.4,1.1,1c0.1,0.2,0.2,0.6,0.4,0.8H469
		c-0.1-0.1-0.2-0.4-0.3-0.7c-0.2-0.5-0.5-0.8-1.1-0.8h-0.1v1.5h-0.6v-3.4H467.5z"/>
	<path class="st23" d="M472.2,219.9l0-0.4h0c-0.2,0.3-0.6,0.5-1,0.5c-0.7,0-1-0.5-1-1c0-0.8,0.7-1.3,2-1.3v-0.1
		c0-0.3-0.1-0.8-0.8-0.8c-0.3,0-0.6,0.1-0.9,0.3l-0.1-0.4c0.3-0.2,0.7-0.3,1.1-0.3c1,0,1.3,0.7,1.3,1.4v1.3c0,0.3,0,0.6,0.1,0.8
		H472.2z M472.1,218.2c-0.7,0-1.4,0.1-1.4,0.8c0,0.4,0.3,0.6,0.6,0.6c0.4,0,0.7-0.3,0.8-0.6c0-0.1,0-0.1,0-0.2V218.2z"/>
</g>
<path class="st21" d="M541.5,318.7c1.5,0,32.6-5.4,78.1-10"/>
<path class="st21" d="M555.5,337.7c30.7-1.4,70.1-27.1,73.2-31.9"/>
<path class="st21" d="M628.7,305.8c24.9,30.1,35.7,36.9,42.9,40.7"/>
<path class="st21" d="M628.7,305.8c16.6,11.3,27,16.6,34.1,20.4"/>
<path class="st21" d="M628.7,305.8c35.6-41.4,64,5.4,71.2,9.3"/>
</svg>
